%TF.GenerationSoftware,KiCad,Pcbnew,8.0.5*%
%TF.CreationDate,2024-12-03T17:15:42+01:00*%
%TF.ProjectId,ESC_drivers 1.4,4553435f-6472-4697-9665-727320312e34,rev?*%
%TF.SameCoordinates,Original*%
%TF.FileFunction,Drillmap*%
%TF.FilePolarity,Positive*%
%FSLAX45Y45*%
G04 Gerber Fmt 4.5, Leading zero omitted, Abs format (unit mm)*
G04 Created by KiCad (PCBNEW 8.0.5) date 2024-12-03 17:15:42*
%MOMM*%
%LPD*%
G01*
G04 APERTURE LIST*
%ADD10C,0.200000*%
%ADD11C,0.010050*%
%ADD12C,0.100000*%
%ADD13C,0.110000*%
%ADD14C,0.120000*%
%ADD15C,0.500000*%
G04 APERTURE END LIST*
D10*
X20374800Y-14630400D02*
G75*
G02*
X20054800Y-14630400I-160000J0D01*
G01*
X20054800Y-14630400D02*
G75*
G02*
X20374800Y-14630400I160000J0D01*
G01*
X10714800Y-14880400D02*
G75*
G02*
X10464800Y-14630400I0J250000D01*
G01*
X20464800Y-5130400D02*
X20464800Y-14630400D01*
X10714800Y-4880400D02*
X20214800Y-4880400D01*
X10874800Y-14630400D02*
G75*
G02*
X10554800Y-14630400I-160000J0D01*
G01*
X10554800Y-14630400D02*
G75*
G02*
X10874800Y-14630400I160000J0D01*
G01*
X10464800Y-5130400D02*
G75*
G02*
X10714800Y-4880400I250000J0D01*
G01*
X10464800Y-14630400D02*
X10464800Y-5130400D01*
X20464800Y-14630400D02*
G75*
G02*
X20214800Y-14880400I-250000J0D01*
G01*
X20214800Y-14880400D02*
X10714800Y-14880400D01*
X20214800Y-4880400D02*
G75*
G02*
X20464800Y-5130400I0J-250000D01*
G01*
X20374800Y-5130400D02*
G75*
G02*
X20054800Y-5130400I-160000J0D01*
G01*
X20054800Y-5130400D02*
G75*
G02*
X20374800Y-5130400I160000J0D01*
G01*
D11*
X14965302Y-9380400D02*
G75*
G02*
X14964297Y-9380400I-503J0D01*
G01*
X14964297Y-9380400D02*
G75*
G02*
X14965302Y-9380400I503J0D01*
G01*
D10*
X10874800Y-5130400D02*
G75*
G02*
X10554800Y-5130400I-160000J0D01*
G01*
X10554800Y-5130400D02*
G75*
G02*
X10874800Y-5130400I160000J0D01*
G01*
D12*
X12649894Y-13294600D02*
X12679894Y-13324600D01*
X12679894Y-13294600D02*
X12649894Y-13324600D01*
X12649894Y-13421600D02*
X12679894Y-13451600D01*
X12679894Y-13421600D02*
X12649894Y-13451600D01*
X12649894Y-13548600D02*
X12679894Y-13578600D01*
X12679894Y-13548600D02*
X12649894Y-13578600D01*
X12649894Y-13675600D02*
X12679894Y-13705600D01*
X12679894Y-13675600D02*
X12649894Y-13705600D01*
X12649894Y-13802600D02*
X12679894Y-13832600D01*
X12679894Y-13802600D02*
X12649894Y-13832600D01*
X12649894Y-13929600D02*
X12679894Y-13959600D01*
X12679894Y-13929600D02*
X12649894Y-13959600D01*
X12649894Y-14056600D02*
X12679894Y-14086600D01*
X12679894Y-14056600D02*
X12649894Y-14086600D01*
X12672050Y-5537608D02*
X12702050Y-5567608D01*
X12702050Y-5537608D02*
X12672050Y-5567608D01*
X12672050Y-5664608D02*
X12702050Y-5694608D01*
X12702050Y-5664608D02*
X12672050Y-5694608D01*
X12672050Y-5791608D02*
X12702050Y-5821608D01*
X12702050Y-5791608D02*
X12672050Y-5821608D01*
X12672050Y-5918608D02*
X12702050Y-5948608D01*
X12702050Y-5918608D02*
X12672050Y-5948608D01*
X12672050Y-6045608D02*
X12702050Y-6075608D01*
X12702050Y-6045608D02*
X12672050Y-6075608D01*
X12672050Y-6172608D02*
X12702050Y-6202608D01*
X12702050Y-6172608D02*
X12672050Y-6202608D01*
X12672050Y-6299608D02*
X12702050Y-6329608D01*
X12702050Y-6299608D02*
X12672050Y-6329608D01*
X12675294Y-8696549D02*
X12705294Y-8726549D01*
X12705294Y-8696549D02*
X12675294Y-8726549D01*
X12675294Y-8823549D02*
X12705294Y-8853549D01*
X12705294Y-8823549D02*
X12675294Y-8853549D01*
X12675294Y-8950549D02*
X12705294Y-8980549D01*
X12705294Y-8950549D02*
X12675294Y-8980549D01*
X12675294Y-9077549D02*
X12705294Y-9107549D01*
X12705294Y-9077549D02*
X12675294Y-9107549D01*
X12675294Y-9204549D02*
X12705294Y-9234549D01*
X12705294Y-9204549D02*
X12675294Y-9234549D01*
X12675294Y-9331549D02*
X12705294Y-9361549D01*
X12705294Y-9331549D02*
X12675294Y-9361549D01*
X12675294Y-9458549D02*
X12705294Y-9488549D01*
X12705294Y-9458549D02*
X12675294Y-9488549D01*
X12675294Y-10220549D02*
X12705294Y-10250549D01*
X12705294Y-10220549D02*
X12675294Y-10250549D01*
X12675294Y-10347549D02*
X12705294Y-10377549D01*
X12705294Y-10347549D02*
X12675294Y-10377549D01*
X12675294Y-10474549D02*
X12705294Y-10504549D01*
X12705294Y-10474549D02*
X12675294Y-10504549D01*
X12675294Y-10601549D02*
X12705294Y-10631549D01*
X12705294Y-10601549D02*
X12675294Y-10631549D01*
X12675294Y-10728549D02*
X12705294Y-10758549D01*
X12705294Y-10728549D02*
X12675294Y-10758549D01*
X12675294Y-10855549D02*
X12705294Y-10885549D01*
X12705294Y-10855549D02*
X12675294Y-10885549D01*
X12675294Y-10982549D02*
X12705294Y-11012549D01*
X12705294Y-10982549D02*
X12675294Y-11012549D01*
X12675294Y-11643600D02*
X12705294Y-11673600D01*
X12705294Y-11643600D02*
X12675294Y-11673600D01*
X12675294Y-11770600D02*
X12705294Y-11800600D01*
X12705294Y-11770600D02*
X12675294Y-11800600D01*
X12675294Y-11897600D02*
X12705294Y-11927600D01*
X12705294Y-11897600D02*
X12675294Y-11927600D01*
X12675294Y-12024600D02*
X12705294Y-12054600D01*
X12705294Y-12024600D02*
X12675294Y-12054600D01*
X12675294Y-12151600D02*
X12705294Y-12181600D01*
X12705294Y-12151600D02*
X12675294Y-12181600D01*
X12675294Y-12278600D02*
X12705294Y-12308600D01*
X12705294Y-12278600D02*
X12675294Y-12308600D01*
X12675294Y-12405600D02*
X12705294Y-12435600D01*
X12705294Y-12405600D02*
X12675294Y-12435600D01*
X12685000Y-7224000D02*
X12715000Y-7254000D01*
X12715000Y-7224000D02*
X12685000Y-7254000D01*
X12685000Y-7351000D02*
X12715000Y-7381000D01*
X12715000Y-7351000D02*
X12685000Y-7381000D01*
X12685000Y-7478000D02*
X12715000Y-7508000D01*
X12715000Y-7478000D02*
X12685000Y-7508000D01*
X12685000Y-7605000D02*
X12715000Y-7635000D01*
X12715000Y-7605000D02*
X12685000Y-7635000D01*
X12685000Y-7732000D02*
X12715000Y-7762000D01*
X12715000Y-7732000D02*
X12685000Y-7762000D01*
X12685000Y-7859000D02*
X12715000Y-7889000D01*
X12715000Y-7859000D02*
X12685000Y-7889000D01*
X12685000Y-7986000D02*
X12715000Y-8016000D01*
X12715000Y-7986000D02*
X12685000Y-8016000D01*
X12776894Y-13675600D02*
X12806894Y-13705600D01*
X12806894Y-13675600D02*
X12776894Y-13705600D01*
X12776894Y-13294600D02*
X12806894Y-13324600D01*
X12806894Y-13294600D02*
X12776894Y-13324600D01*
X12776894Y-13421600D02*
X12806894Y-13451600D01*
X12806894Y-13421600D02*
X12776894Y-13451600D01*
X12776894Y-13548600D02*
X12806894Y-13578600D01*
X12806894Y-13548600D02*
X12776894Y-13578600D01*
X12776894Y-13802600D02*
X12806894Y-13832600D01*
X12806894Y-13802600D02*
X12776894Y-13832600D01*
X12776894Y-13929600D02*
X12806894Y-13959600D01*
X12806894Y-13929600D02*
X12776894Y-13959600D01*
X12776894Y-14056600D02*
X12806894Y-14086600D01*
X12806894Y-14056600D02*
X12776894Y-14086600D01*
X12799050Y-5918608D02*
X12829050Y-5948608D01*
X12829050Y-5918608D02*
X12799050Y-5948608D01*
X12799050Y-5537608D02*
X12829050Y-5567608D01*
X12829050Y-5537608D02*
X12799050Y-5567608D01*
X12799050Y-5664608D02*
X12829050Y-5694608D01*
X12829050Y-5664608D02*
X12799050Y-5694608D01*
X12799050Y-5791608D02*
X12829050Y-5821608D01*
X12829050Y-5791608D02*
X12799050Y-5821608D01*
X12799050Y-6045608D02*
X12829050Y-6075608D01*
X12829050Y-6045608D02*
X12799050Y-6075608D01*
X12799050Y-6172608D02*
X12829050Y-6202608D01*
X12829050Y-6172608D02*
X12799050Y-6202608D01*
X12799050Y-6299608D02*
X12829050Y-6329608D01*
X12829050Y-6299608D02*
X12799050Y-6329608D01*
X12802294Y-9077549D02*
X12832294Y-9107549D01*
X12832294Y-9077549D02*
X12802294Y-9107549D01*
X12802294Y-8696549D02*
X12832294Y-8726549D01*
X12832294Y-8696549D02*
X12802294Y-8726549D01*
X12802294Y-8823549D02*
X12832294Y-8853549D01*
X12832294Y-8823549D02*
X12802294Y-8853549D01*
X12802294Y-8950549D02*
X12832294Y-8980549D01*
X12832294Y-8950549D02*
X12802294Y-8980549D01*
X12802294Y-9204549D02*
X12832294Y-9234549D01*
X12832294Y-9204549D02*
X12802294Y-9234549D01*
X12802294Y-9331549D02*
X12832294Y-9361549D01*
X12832294Y-9331549D02*
X12802294Y-9361549D01*
X12802294Y-9458549D02*
X12832294Y-9488549D01*
X12832294Y-9458549D02*
X12802294Y-9488549D01*
X12802294Y-10601549D02*
X12832294Y-10631549D01*
X12832294Y-10601549D02*
X12802294Y-10631549D01*
X12802294Y-12024600D02*
X12832294Y-12054600D01*
X12832294Y-12024600D02*
X12802294Y-12054600D01*
X12802294Y-10220549D02*
X12832294Y-10250549D01*
X12832294Y-10220549D02*
X12802294Y-10250549D01*
X12802294Y-10347549D02*
X12832294Y-10377549D01*
X12832294Y-10347549D02*
X12802294Y-10377549D01*
X12802294Y-10474549D02*
X12832294Y-10504549D01*
X12832294Y-10474549D02*
X12802294Y-10504549D01*
X12802294Y-10728549D02*
X12832294Y-10758549D01*
X12832294Y-10728549D02*
X12802294Y-10758549D01*
X12802294Y-10855549D02*
X12832294Y-10885549D01*
X12832294Y-10855549D02*
X12802294Y-10885549D01*
X12802294Y-10982549D02*
X12832294Y-11012549D01*
X12832294Y-10982549D02*
X12802294Y-11012549D01*
X12802294Y-11643600D02*
X12832294Y-11673600D01*
X12832294Y-11643600D02*
X12802294Y-11673600D01*
X12802294Y-11770600D02*
X12832294Y-11800600D01*
X12832294Y-11770600D02*
X12802294Y-11800600D01*
X12802294Y-11897600D02*
X12832294Y-11927600D01*
X12832294Y-11897600D02*
X12802294Y-11927600D01*
X12802294Y-12151600D02*
X12832294Y-12181600D01*
X12832294Y-12151600D02*
X12802294Y-12181600D01*
X12802294Y-12278600D02*
X12832294Y-12308600D01*
X12832294Y-12278600D02*
X12802294Y-12308600D01*
X12802294Y-12405600D02*
X12832294Y-12435600D01*
X12832294Y-12405600D02*
X12802294Y-12435600D01*
X12812000Y-7605000D02*
X12842000Y-7635000D01*
X12842000Y-7605000D02*
X12812000Y-7635000D01*
X12812000Y-7224000D02*
X12842000Y-7254000D01*
X12842000Y-7224000D02*
X12812000Y-7254000D01*
X12812000Y-7351000D02*
X12842000Y-7381000D01*
X12842000Y-7351000D02*
X12812000Y-7381000D01*
X12812000Y-7478000D02*
X12842000Y-7508000D01*
X12842000Y-7478000D02*
X12812000Y-7508000D01*
X12812000Y-7732000D02*
X12842000Y-7762000D01*
X12842000Y-7732000D02*
X12812000Y-7762000D01*
X12812000Y-7859000D02*
X12842000Y-7889000D01*
X12842000Y-7859000D02*
X12812000Y-7889000D01*
X12812000Y-7986000D02*
X12842000Y-8016000D01*
X12842000Y-7986000D02*
X12812000Y-8016000D01*
X12903894Y-13294600D02*
X12933894Y-13324600D01*
X12933894Y-13294600D02*
X12903894Y-13324600D01*
X12903894Y-13421600D02*
X12933894Y-13451600D01*
X12933894Y-13421600D02*
X12903894Y-13451600D01*
X12903894Y-13548600D02*
X12933894Y-13578600D01*
X12933894Y-13548600D02*
X12903894Y-13578600D01*
X12903894Y-13675600D02*
X12933894Y-13705600D01*
X12933894Y-13675600D02*
X12903894Y-13705600D01*
X12903894Y-13802600D02*
X12933894Y-13832600D01*
X12933894Y-13802600D02*
X12903894Y-13832600D01*
X12903894Y-13929600D02*
X12933894Y-13959600D01*
X12933894Y-13929600D02*
X12903894Y-13959600D01*
X12903894Y-14056600D02*
X12933894Y-14086600D01*
X12933894Y-14056600D02*
X12903894Y-14086600D01*
X12926050Y-5537608D02*
X12956050Y-5567608D01*
X12956050Y-5537608D02*
X12926050Y-5567608D01*
X12926050Y-5664608D02*
X12956050Y-5694608D01*
X12956050Y-5664608D02*
X12926050Y-5694608D01*
X12926050Y-5791608D02*
X12956050Y-5821608D01*
X12956050Y-5791608D02*
X12926050Y-5821608D01*
X12926050Y-5918608D02*
X12956050Y-5948608D01*
X12956050Y-5918608D02*
X12926050Y-5948608D01*
X12926050Y-6045608D02*
X12956050Y-6075608D01*
X12956050Y-6045608D02*
X12926050Y-6075608D01*
X12926050Y-6172608D02*
X12956050Y-6202608D01*
X12956050Y-6172608D02*
X12926050Y-6202608D01*
X12926050Y-6299608D02*
X12956050Y-6329608D01*
X12956050Y-6299608D02*
X12926050Y-6329608D01*
X12929294Y-8696549D02*
X12959294Y-8726549D01*
X12959294Y-8696549D02*
X12929294Y-8726549D01*
X12929294Y-8823549D02*
X12959294Y-8853549D01*
X12959294Y-8823549D02*
X12929294Y-8853549D01*
X12929294Y-8950549D02*
X12959294Y-8980549D01*
X12959294Y-8950549D02*
X12929294Y-8980549D01*
X12929294Y-9077549D02*
X12959294Y-9107549D01*
X12959294Y-9077549D02*
X12929294Y-9107549D01*
X12929294Y-9204549D02*
X12959294Y-9234549D01*
X12959294Y-9204549D02*
X12929294Y-9234549D01*
X12929294Y-9331549D02*
X12959294Y-9361549D01*
X12959294Y-9331549D02*
X12929294Y-9361549D01*
X12929294Y-9458549D02*
X12959294Y-9488549D01*
X12959294Y-9458549D02*
X12929294Y-9488549D01*
X12929294Y-10220549D02*
X12959294Y-10250549D01*
X12959294Y-10220549D02*
X12929294Y-10250549D01*
X12929294Y-10347549D02*
X12959294Y-10377549D01*
X12959294Y-10347549D02*
X12929294Y-10377549D01*
X12929294Y-10474549D02*
X12959294Y-10504549D01*
X12959294Y-10474549D02*
X12929294Y-10504549D01*
X12929294Y-10601549D02*
X12959294Y-10631549D01*
X12959294Y-10601549D02*
X12929294Y-10631549D01*
X12929294Y-10728549D02*
X12959294Y-10758549D01*
X12959294Y-10728549D02*
X12929294Y-10758549D01*
X12929294Y-10855549D02*
X12959294Y-10885549D01*
X12959294Y-10855549D02*
X12929294Y-10885549D01*
X12929294Y-10982549D02*
X12959294Y-11012549D01*
X12959294Y-10982549D02*
X12929294Y-11012549D01*
X12929294Y-11643600D02*
X12959294Y-11673600D01*
X12959294Y-11643600D02*
X12929294Y-11673600D01*
X12929294Y-11770600D02*
X12959294Y-11800600D01*
X12959294Y-11770600D02*
X12929294Y-11800600D01*
X12929294Y-11897600D02*
X12959294Y-11927600D01*
X12959294Y-11897600D02*
X12929294Y-11927600D01*
X12929294Y-12024600D02*
X12959294Y-12054600D01*
X12959294Y-12024600D02*
X12929294Y-12054600D01*
X12929294Y-12151600D02*
X12959294Y-12181600D01*
X12959294Y-12151600D02*
X12929294Y-12181600D01*
X12929294Y-12278600D02*
X12959294Y-12308600D01*
X12959294Y-12278600D02*
X12929294Y-12308600D01*
X12929294Y-12405600D02*
X12959294Y-12435600D01*
X12959294Y-12405600D02*
X12929294Y-12435600D01*
X12939000Y-7224000D02*
X12969000Y-7254000D01*
X12969000Y-7224000D02*
X12939000Y-7254000D01*
X12939000Y-7351000D02*
X12969000Y-7381000D01*
X12969000Y-7351000D02*
X12939000Y-7381000D01*
X12939000Y-7478000D02*
X12969000Y-7508000D01*
X12969000Y-7478000D02*
X12939000Y-7508000D01*
X12939000Y-7605000D02*
X12969000Y-7635000D01*
X12969000Y-7605000D02*
X12939000Y-7635000D01*
X12939000Y-7732000D02*
X12969000Y-7762000D01*
X12969000Y-7732000D02*
X12939000Y-7762000D01*
X12939000Y-7859000D02*
X12969000Y-7889000D01*
X12969000Y-7859000D02*
X12939000Y-7889000D01*
X12939000Y-7986000D02*
X12969000Y-8016000D01*
X12969000Y-7986000D02*
X12939000Y-8016000D01*
X13030894Y-13294600D02*
X13060894Y-13324600D01*
X13060894Y-13294600D02*
X13030894Y-13324600D01*
X13030894Y-13421600D02*
X13060894Y-13451600D01*
X13060894Y-13421600D02*
X13030894Y-13451600D01*
X13030894Y-13548600D02*
X13060894Y-13578600D01*
X13060894Y-13548600D02*
X13030894Y-13578600D01*
X13030894Y-13802600D02*
X13060894Y-13832600D01*
X13060894Y-13802600D02*
X13030894Y-13832600D01*
X13030894Y-13929600D02*
X13060894Y-13959600D01*
X13060894Y-13929600D02*
X13030894Y-13959600D01*
X13030894Y-14056600D02*
X13060894Y-14086600D01*
X13060894Y-14056600D02*
X13030894Y-14086600D01*
X13030895Y-13675600D02*
X13060895Y-13705600D01*
X13060895Y-13675600D02*
X13030895Y-13705600D01*
X13053050Y-5537608D02*
X13083050Y-5567608D01*
X13083050Y-5537608D02*
X13053050Y-5567608D01*
X13053050Y-5664608D02*
X13083050Y-5694608D01*
X13083050Y-5664608D02*
X13053050Y-5694608D01*
X13053050Y-5791608D02*
X13083050Y-5821608D01*
X13083050Y-5791608D02*
X13053050Y-5821608D01*
X13053050Y-6045608D02*
X13083050Y-6075608D01*
X13083050Y-6045608D02*
X13053050Y-6075608D01*
X13053050Y-6172608D02*
X13083050Y-6202608D01*
X13083050Y-6172608D02*
X13053050Y-6202608D01*
X13053050Y-6299608D02*
X13083050Y-6329608D01*
X13083050Y-6299608D02*
X13053050Y-6329608D01*
X13053050Y-5918608D02*
X13083050Y-5948608D01*
X13083050Y-5918608D02*
X13053050Y-5948608D01*
X13056294Y-8696549D02*
X13086294Y-8726549D01*
X13086294Y-8696549D02*
X13056294Y-8726549D01*
X13056294Y-8823549D02*
X13086294Y-8853549D01*
X13086294Y-8823549D02*
X13056294Y-8853549D01*
X13056294Y-8950549D02*
X13086294Y-8980549D01*
X13086294Y-8950549D02*
X13056294Y-8980549D01*
X13056294Y-9204549D02*
X13086294Y-9234549D01*
X13086294Y-9204549D02*
X13056294Y-9234549D01*
X13056294Y-9331549D02*
X13086294Y-9361549D01*
X13086294Y-9331549D02*
X13056294Y-9361549D01*
X13056294Y-9458549D02*
X13086294Y-9488549D01*
X13086294Y-9458549D02*
X13056294Y-9488549D01*
X13056294Y-9077549D02*
X13086294Y-9107549D01*
X13086294Y-9077549D02*
X13056294Y-9107549D01*
X13056294Y-10220549D02*
X13086294Y-10250549D01*
X13086294Y-10220549D02*
X13056294Y-10250549D01*
X13056294Y-10347549D02*
X13086294Y-10377549D01*
X13086294Y-10347549D02*
X13056294Y-10377549D01*
X13056294Y-10474549D02*
X13086294Y-10504549D01*
X13086294Y-10474549D02*
X13056294Y-10504549D01*
X13056294Y-10728549D02*
X13086294Y-10758549D01*
X13086294Y-10728549D02*
X13056294Y-10758549D01*
X13056294Y-10855549D02*
X13086294Y-10885549D01*
X13086294Y-10855549D02*
X13056294Y-10885549D01*
X13056294Y-10982549D02*
X13086294Y-11012549D01*
X13086294Y-10982549D02*
X13056294Y-11012549D01*
X13056294Y-11643600D02*
X13086294Y-11673600D01*
X13086294Y-11643600D02*
X13056294Y-11673600D01*
X13056294Y-11770600D02*
X13086294Y-11800600D01*
X13086294Y-11770600D02*
X13056294Y-11800600D01*
X13056294Y-11897600D02*
X13086294Y-11927600D01*
X13086294Y-11897600D02*
X13056294Y-11927600D01*
X13056294Y-12151600D02*
X13086294Y-12181600D01*
X13086294Y-12151600D02*
X13056294Y-12181600D01*
X13056294Y-12278600D02*
X13086294Y-12308600D01*
X13086294Y-12278600D02*
X13056294Y-12308600D01*
X13056294Y-12405600D02*
X13086294Y-12435600D01*
X13086294Y-12405600D02*
X13056294Y-12435600D01*
X13056295Y-10601549D02*
X13086295Y-10631549D01*
X13086295Y-10601549D02*
X13056295Y-10631549D01*
X13056295Y-12024600D02*
X13086295Y-12054600D01*
X13086295Y-12024600D02*
X13056295Y-12054600D01*
X13066000Y-7224000D02*
X13096000Y-7254000D01*
X13096000Y-7224000D02*
X13066000Y-7254000D01*
X13066000Y-7351000D02*
X13096000Y-7381000D01*
X13096000Y-7351000D02*
X13066000Y-7381000D01*
X13066000Y-7478000D02*
X13096000Y-7508000D01*
X13096000Y-7478000D02*
X13066000Y-7508000D01*
X13066000Y-7732000D02*
X13096000Y-7762000D01*
X13096000Y-7732000D02*
X13066000Y-7762000D01*
X13066000Y-7859000D02*
X13096000Y-7889000D01*
X13096000Y-7859000D02*
X13066000Y-7889000D01*
X13066000Y-7986000D02*
X13096000Y-8016000D01*
X13096000Y-7986000D02*
X13066000Y-8016000D01*
X13066000Y-7605000D02*
X13096000Y-7635000D01*
X13096000Y-7605000D02*
X13066000Y-7635000D01*
X13157894Y-13243800D02*
X13187894Y-13273800D01*
X13187894Y-13243800D02*
X13157894Y-13273800D01*
X13157894Y-13421600D02*
X13187894Y-13451600D01*
X13187894Y-13421600D02*
X13157894Y-13451600D01*
X13157894Y-13929600D02*
X13187894Y-13959600D01*
X13187894Y-13929600D02*
X13157894Y-13959600D01*
X13157894Y-14107400D02*
X13187894Y-14137400D01*
X13187894Y-14107400D02*
X13157894Y-14137400D01*
X13180050Y-5486808D02*
X13210050Y-5516808D01*
X13210050Y-5486808D02*
X13180050Y-5516808D01*
X13180050Y-5664608D02*
X13210050Y-5694608D01*
X13210050Y-5664608D02*
X13180050Y-5694608D01*
X13180050Y-6172608D02*
X13210050Y-6202608D01*
X13210050Y-6172608D02*
X13180050Y-6202608D01*
X13180050Y-6350408D02*
X13210050Y-6380408D01*
X13210050Y-6350408D02*
X13180050Y-6380408D01*
X13183294Y-8645749D02*
X13213294Y-8675749D01*
X13213294Y-8645749D02*
X13183294Y-8675749D01*
X13183294Y-8823549D02*
X13213294Y-8853549D01*
X13213294Y-8823549D02*
X13183294Y-8853549D01*
X13183294Y-9331549D02*
X13213294Y-9361549D01*
X13213294Y-9331549D02*
X13183294Y-9361549D01*
X13183294Y-9509349D02*
X13213294Y-9539349D01*
X13213294Y-9509349D02*
X13183294Y-9539349D01*
X13183294Y-10169749D02*
X13213294Y-10199749D01*
X13213294Y-10169749D02*
X13183294Y-10199749D01*
X13183294Y-10347549D02*
X13213294Y-10377549D01*
X13213294Y-10347549D02*
X13183294Y-10377549D01*
X13183294Y-10855549D02*
X13213294Y-10885549D01*
X13213294Y-10855549D02*
X13183294Y-10885549D01*
X13183294Y-11033349D02*
X13213294Y-11063349D01*
X13213294Y-11033349D02*
X13183294Y-11063349D01*
X13183294Y-11592800D02*
X13213294Y-11622800D01*
X13213294Y-11592800D02*
X13183294Y-11622800D01*
X13183294Y-11770600D02*
X13213294Y-11800600D01*
X13213294Y-11770600D02*
X13183294Y-11800600D01*
X13183294Y-12278600D02*
X13213294Y-12308600D01*
X13213294Y-12278600D02*
X13183294Y-12308600D01*
X13183294Y-12456400D02*
X13213294Y-12486400D01*
X13213294Y-12456400D02*
X13183294Y-12486400D01*
X13193000Y-7173200D02*
X13223000Y-7203200D01*
X13223000Y-7173200D02*
X13193000Y-7203200D01*
X13193000Y-7351000D02*
X13223000Y-7381000D01*
X13223000Y-7351000D02*
X13193000Y-7381000D01*
X13193000Y-7859000D02*
X13223000Y-7889000D01*
X13223000Y-7859000D02*
X13193000Y-7889000D01*
X13193000Y-8036800D02*
X13223000Y-8066800D01*
X13223000Y-8036800D02*
X13193000Y-8066800D01*
X13284894Y-13243800D02*
X13314894Y-13273800D01*
X13314894Y-13243800D02*
X13284894Y-13273800D01*
X13284894Y-13421600D02*
X13314894Y-13451600D01*
X13314894Y-13421600D02*
X13284894Y-13451600D01*
X13284894Y-13929600D02*
X13314894Y-13959600D01*
X13314894Y-13929600D02*
X13284894Y-13959600D01*
X13284894Y-14107400D02*
X13314894Y-14137400D01*
X13314894Y-14107400D02*
X13284894Y-14137400D01*
X13307050Y-5486808D02*
X13337050Y-5516808D01*
X13337050Y-5486808D02*
X13307050Y-5516808D01*
X13307050Y-5664608D02*
X13337050Y-5694608D01*
X13337050Y-5664608D02*
X13307050Y-5694608D01*
X13307050Y-6172608D02*
X13337050Y-6202608D01*
X13337050Y-6172608D02*
X13307050Y-6202608D01*
X13307050Y-6350408D02*
X13337050Y-6380408D01*
X13337050Y-6350408D02*
X13307050Y-6380408D01*
X13310294Y-8645749D02*
X13340294Y-8675749D01*
X13340294Y-8645749D02*
X13310294Y-8675749D01*
X13310294Y-8823549D02*
X13340294Y-8853549D01*
X13340294Y-8823549D02*
X13310294Y-8853549D01*
X13310294Y-9331549D02*
X13340294Y-9361549D01*
X13340294Y-9331549D02*
X13310294Y-9361549D01*
X13310294Y-9509349D02*
X13340294Y-9539349D01*
X13340294Y-9509349D02*
X13310294Y-9539349D01*
X13310294Y-10169749D02*
X13340294Y-10199749D01*
X13340294Y-10169749D02*
X13310294Y-10199749D01*
X13310294Y-10347549D02*
X13340294Y-10377549D01*
X13340294Y-10347549D02*
X13310294Y-10377549D01*
X13310294Y-10855549D02*
X13340294Y-10885549D01*
X13340294Y-10855549D02*
X13310294Y-10885549D01*
X13310294Y-11033349D02*
X13340294Y-11063349D01*
X13340294Y-11033349D02*
X13310294Y-11063349D01*
X13310294Y-11592800D02*
X13340294Y-11622800D01*
X13340294Y-11592800D02*
X13310294Y-11622800D01*
X13310294Y-11770600D02*
X13340294Y-11800600D01*
X13340294Y-11770600D02*
X13310294Y-11800600D01*
X13310294Y-12278600D02*
X13340294Y-12308600D01*
X13340294Y-12278600D02*
X13310294Y-12308600D01*
X13310294Y-12456400D02*
X13340294Y-12486400D01*
X13340294Y-12456400D02*
X13310294Y-12486400D01*
X13320000Y-7173200D02*
X13350000Y-7203200D01*
X13350000Y-7173200D02*
X13320000Y-7203200D01*
X13320000Y-7351000D02*
X13350000Y-7381000D01*
X13350000Y-7351000D02*
X13320000Y-7381000D01*
X13320000Y-7859000D02*
X13350000Y-7889000D01*
X13350000Y-7859000D02*
X13320000Y-7889000D01*
X13320000Y-8036800D02*
X13350000Y-8066800D01*
X13350000Y-8036800D02*
X13320000Y-8066800D01*
X13411894Y-13675600D02*
X13441894Y-13705600D01*
X13441894Y-13675600D02*
X13411894Y-13705600D01*
X13411894Y-13548600D02*
X13441894Y-13578600D01*
X13441894Y-13548600D02*
X13411894Y-13578600D01*
X13411894Y-13802600D02*
X13441894Y-13832600D01*
X13441894Y-13802600D02*
X13411894Y-13832600D01*
X13434050Y-5918608D02*
X13464050Y-5948608D01*
X13464050Y-5918608D02*
X13434050Y-5948608D01*
X13434050Y-5791608D02*
X13464050Y-5821608D01*
X13464050Y-5791608D02*
X13434050Y-5821608D01*
X13434050Y-6045608D02*
X13464050Y-6075608D01*
X13464050Y-6045608D02*
X13434050Y-6075608D01*
X13437294Y-9077549D02*
X13467294Y-9107549D01*
X13467294Y-9077549D02*
X13437294Y-9107549D01*
X13437294Y-8950549D02*
X13467294Y-8980549D01*
X13467294Y-8950549D02*
X13437294Y-8980549D01*
X13437294Y-9204549D02*
X13467294Y-9234549D01*
X13467294Y-9204549D02*
X13437294Y-9234549D01*
X13437294Y-10601549D02*
X13467294Y-10631549D01*
X13467294Y-10601549D02*
X13437294Y-10631549D01*
X13437294Y-12024600D02*
X13467294Y-12054600D01*
X13467294Y-12024600D02*
X13437294Y-12054600D01*
X13437294Y-10474549D02*
X13467294Y-10504549D01*
X13467294Y-10474549D02*
X13437294Y-10504549D01*
X13437294Y-10728549D02*
X13467294Y-10758549D01*
X13467294Y-10728549D02*
X13437294Y-10758549D01*
X13437294Y-11897600D02*
X13467294Y-11927600D01*
X13467294Y-11897600D02*
X13437294Y-11927600D01*
X13437294Y-12151600D02*
X13467294Y-12181600D01*
X13467294Y-12151600D02*
X13437294Y-12181600D01*
X13437294Y-13294600D02*
X13467294Y-13324600D01*
X13467294Y-13294600D02*
X13437294Y-13324600D01*
X13437294Y-13421600D02*
X13467294Y-13451600D01*
X13467294Y-13421600D02*
X13437294Y-13451600D01*
X13437294Y-13929600D02*
X13467294Y-13959600D01*
X13467294Y-13929600D02*
X13437294Y-13959600D01*
X13437294Y-14056600D02*
X13467294Y-14086600D01*
X13467294Y-14056600D02*
X13437294Y-14086600D01*
X13447000Y-7605000D02*
X13477000Y-7635000D01*
X13477000Y-7605000D02*
X13447000Y-7635000D01*
X13447000Y-7478000D02*
X13477000Y-7508000D01*
X13477000Y-7478000D02*
X13447000Y-7508000D01*
X13447000Y-7732000D02*
X13477000Y-7762000D01*
X13477000Y-7732000D02*
X13447000Y-7762000D01*
X13459450Y-5537608D02*
X13489450Y-5567608D01*
X13489450Y-5537608D02*
X13459450Y-5567608D01*
X13459450Y-5664608D02*
X13489450Y-5694608D01*
X13489450Y-5664608D02*
X13459450Y-5694608D01*
X13459450Y-6172608D02*
X13489450Y-6202608D01*
X13489450Y-6172608D02*
X13459450Y-6202608D01*
X13459450Y-6299608D02*
X13489450Y-6329608D01*
X13489450Y-6299608D02*
X13459450Y-6329608D01*
X13462694Y-8696549D02*
X13492694Y-8726549D01*
X13492694Y-8696549D02*
X13462694Y-8726549D01*
X13462694Y-8823549D02*
X13492694Y-8853549D01*
X13492694Y-8823549D02*
X13462694Y-8853549D01*
X13462694Y-9331549D02*
X13492694Y-9361549D01*
X13492694Y-9331549D02*
X13462694Y-9361549D01*
X13462694Y-9458549D02*
X13492694Y-9488549D01*
X13492694Y-9458549D02*
X13462694Y-9488549D01*
X13462694Y-10220549D02*
X13492694Y-10250549D01*
X13492694Y-10220549D02*
X13462694Y-10250549D01*
X13462694Y-10347549D02*
X13492694Y-10377549D01*
X13492694Y-10347549D02*
X13462694Y-10377549D01*
X13462694Y-10855549D02*
X13492694Y-10885549D01*
X13492694Y-10855549D02*
X13462694Y-10885549D01*
X13462694Y-10982549D02*
X13492694Y-11012549D01*
X13492694Y-10982549D02*
X13462694Y-11012549D01*
X13462694Y-11643600D02*
X13492694Y-11673600D01*
X13492694Y-11643600D02*
X13462694Y-11673600D01*
X13462694Y-11770600D02*
X13492694Y-11800600D01*
X13492694Y-11770600D02*
X13462694Y-11800600D01*
X13462694Y-12278600D02*
X13492694Y-12308600D01*
X13492694Y-12278600D02*
X13462694Y-12308600D01*
X13462694Y-12405600D02*
X13492694Y-12435600D01*
X13492694Y-12405600D02*
X13462694Y-12435600D01*
X13472400Y-7224000D02*
X13502400Y-7254000D01*
X13502400Y-7224000D02*
X13472400Y-7254000D01*
X13472400Y-7351000D02*
X13502400Y-7381000D01*
X13502400Y-7351000D02*
X13472400Y-7381000D01*
X13472400Y-7859000D02*
X13502400Y-7889000D01*
X13502400Y-7859000D02*
X13472400Y-7889000D01*
X13472400Y-7986000D02*
X13502400Y-8016000D01*
X13502400Y-7986000D02*
X13472400Y-8016000D01*
X13564294Y-13294600D02*
X13594294Y-13324600D01*
X13594294Y-13294600D02*
X13564294Y-13324600D01*
X13564294Y-13421600D02*
X13594294Y-13451600D01*
X13594294Y-13421600D02*
X13564294Y-13451600D01*
X13564294Y-13929600D02*
X13594294Y-13959600D01*
X13594294Y-13929600D02*
X13564294Y-13959600D01*
X13564294Y-14056600D02*
X13594294Y-14086600D01*
X13594294Y-14056600D02*
X13564294Y-14086600D01*
X13586450Y-5537608D02*
X13616450Y-5567608D01*
X13616450Y-5537608D02*
X13586450Y-5567608D01*
X13586450Y-5664608D02*
X13616450Y-5694608D01*
X13616450Y-5664608D02*
X13586450Y-5694608D01*
X13586450Y-6172608D02*
X13616450Y-6202608D01*
X13616450Y-6172608D02*
X13586450Y-6202608D01*
X13586450Y-6299608D02*
X13616450Y-6329608D01*
X13616450Y-6299608D02*
X13586450Y-6329608D01*
X13589694Y-8696549D02*
X13619694Y-8726549D01*
X13619694Y-8696549D02*
X13589694Y-8726549D01*
X13589694Y-8823549D02*
X13619694Y-8853549D01*
X13619694Y-8823549D02*
X13589694Y-8853549D01*
X13589694Y-9331549D02*
X13619694Y-9361549D01*
X13619694Y-9331549D02*
X13589694Y-9361549D01*
X13589694Y-9458549D02*
X13619694Y-9488549D01*
X13619694Y-9458549D02*
X13589694Y-9488549D01*
X13589694Y-10220549D02*
X13619694Y-10250549D01*
X13619694Y-10220549D02*
X13589694Y-10250549D01*
X13589694Y-10347549D02*
X13619694Y-10377549D01*
X13619694Y-10347549D02*
X13589694Y-10377549D01*
X13589694Y-10855549D02*
X13619694Y-10885549D01*
X13619694Y-10855549D02*
X13589694Y-10885549D01*
X13589694Y-10982549D02*
X13619694Y-11012549D01*
X13619694Y-10982549D02*
X13589694Y-11012549D01*
X13589694Y-11643600D02*
X13619694Y-11673600D01*
X13619694Y-11643600D02*
X13589694Y-11673600D01*
X13589694Y-11770600D02*
X13619694Y-11800600D01*
X13619694Y-11770600D02*
X13589694Y-11800600D01*
X13589694Y-12278600D02*
X13619694Y-12308600D01*
X13619694Y-12278600D02*
X13589694Y-12308600D01*
X13589694Y-12405600D02*
X13619694Y-12435600D01*
X13619694Y-12405600D02*
X13589694Y-12435600D01*
X13599400Y-7224000D02*
X13629400Y-7254000D01*
X13629400Y-7224000D02*
X13599400Y-7254000D01*
X13599400Y-7351000D02*
X13629400Y-7381000D01*
X13629400Y-7351000D02*
X13599400Y-7381000D01*
X13599400Y-7859000D02*
X13629400Y-7889000D01*
X13629400Y-7859000D02*
X13599400Y-7889000D01*
X13599400Y-7986000D02*
X13629400Y-8016000D01*
X13629400Y-7986000D02*
X13599400Y-8016000D01*
X13691294Y-13294600D02*
X13721294Y-13324600D01*
X13721294Y-13294600D02*
X13691294Y-13324600D01*
X13691294Y-13421600D02*
X13721294Y-13451600D01*
X13721294Y-13421600D02*
X13691294Y-13451600D01*
X13691294Y-13929600D02*
X13721294Y-13959600D01*
X13721294Y-13929600D02*
X13691294Y-13959600D01*
X13691294Y-14056600D02*
X13721294Y-14086600D01*
X13721294Y-14056600D02*
X13691294Y-14086600D01*
X13713450Y-5537608D02*
X13743450Y-5567608D01*
X13743450Y-5537608D02*
X13713450Y-5567608D01*
X13713450Y-5664608D02*
X13743450Y-5694608D01*
X13743450Y-5664608D02*
X13713450Y-5694608D01*
X13713450Y-6172608D02*
X13743450Y-6202608D01*
X13743450Y-6172608D02*
X13713450Y-6202608D01*
X13713450Y-6299608D02*
X13743450Y-6329608D01*
X13743450Y-6299608D02*
X13713450Y-6329608D01*
X13716694Y-8696549D02*
X13746694Y-8726549D01*
X13746694Y-8696549D02*
X13716694Y-8726549D01*
X13716694Y-8823549D02*
X13746694Y-8853549D01*
X13746694Y-8823549D02*
X13716694Y-8853549D01*
X13716694Y-9331549D02*
X13746694Y-9361549D01*
X13746694Y-9331549D02*
X13716694Y-9361549D01*
X13716694Y-9458549D02*
X13746694Y-9488549D01*
X13746694Y-9458549D02*
X13716694Y-9488549D01*
X13716694Y-10220549D02*
X13746694Y-10250549D01*
X13746694Y-10220549D02*
X13716694Y-10250549D01*
X13716694Y-10347549D02*
X13746694Y-10377549D01*
X13746694Y-10347549D02*
X13716694Y-10377549D01*
X13716694Y-10855549D02*
X13746694Y-10885549D01*
X13746694Y-10855549D02*
X13716694Y-10885549D01*
X13716694Y-10982549D02*
X13746694Y-11012549D01*
X13746694Y-10982549D02*
X13716694Y-11012549D01*
X13716694Y-11643600D02*
X13746694Y-11673600D01*
X13746694Y-11643600D02*
X13716694Y-11673600D01*
X13716694Y-11770600D02*
X13746694Y-11800600D01*
X13746694Y-11770600D02*
X13716694Y-11800600D01*
X13716694Y-12278600D02*
X13746694Y-12308600D01*
X13746694Y-12278600D02*
X13716694Y-12308600D01*
X13716694Y-12405600D02*
X13746694Y-12435600D01*
X13746694Y-12405600D02*
X13716694Y-12435600D01*
X13726400Y-7224000D02*
X13756400Y-7254000D01*
X13756400Y-7224000D02*
X13726400Y-7254000D01*
X13726400Y-7351000D02*
X13756400Y-7381000D01*
X13756400Y-7351000D02*
X13726400Y-7381000D01*
X13726400Y-7859000D02*
X13756400Y-7889000D01*
X13756400Y-7859000D02*
X13726400Y-7889000D01*
X13726400Y-7986000D02*
X13756400Y-8016000D01*
X13756400Y-7986000D02*
X13726400Y-8016000D01*
X13818294Y-13294600D02*
X13848294Y-13324600D01*
X13848294Y-13294600D02*
X13818294Y-13324600D01*
X13818294Y-13421600D02*
X13848294Y-13451600D01*
X13848294Y-13421600D02*
X13818294Y-13451600D01*
X13818294Y-13929600D02*
X13848294Y-13959600D01*
X13848294Y-13929600D02*
X13818294Y-13959600D01*
X13818294Y-14056600D02*
X13848294Y-14086600D01*
X13848294Y-14056600D02*
X13818294Y-14086600D01*
X13840450Y-5537608D02*
X13870450Y-5567608D01*
X13870450Y-5537608D02*
X13840450Y-5567608D01*
X13840450Y-5664608D02*
X13870450Y-5694608D01*
X13870450Y-5664608D02*
X13840450Y-5694608D01*
X13840450Y-6172608D02*
X13870450Y-6202608D01*
X13870450Y-6172608D02*
X13840450Y-6202608D01*
X13840450Y-6299608D02*
X13870450Y-6329608D01*
X13870450Y-6299608D02*
X13840450Y-6329608D01*
X13843694Y-8696549D02*
X13873694Y-8726549D01*
X13873694Y-8696549D02*
X13843694Y-8726549D01*
X13843694Y-8823549D02*
X13873694Y-8853549D01*
X13873694Y-8823549D02*
X13843694Y-8853549D01*
X13843694Y-9331549D02*
X13873694Y-9361549D01*
X13873694Y-9331549D02*
X13843694Y-9361549D01*
X13843694Y-9458549D02*
X13873694Y-9488549D01*
X13873694Y-9458549D02*
X13843694Y-9488549D01*
X13843694Y-10220549D02*
X13873694Y-10250549D01*
X13873694Y-10220549D02*
X13843694Y-10250549D01*
X13843694Y-10347549D02*
X13873694Y-10377549D01*
X13873694Y-10347549D02*
X13843694Y-10377549D01*
X13843694Y-10855549D02*
X13873694Y-10885549D01*
X13873694Y-10855549D02*
X13843694Y-10885549D01*
X13843694Y-10982549D02*
X13873694Y-11012549D01*
X13873694Y-10982549D02*
X13843694Y-11012549D01*
X13843694Y-11643600D02*
X13873694Y-11673600D01*
X13873694Y-11643600D02*
X13843694Y-11673600D01*
X13843694Y-11770600D02*
X13873694Y-11800600D01*
X13873694Y-11770600D02*
X13843694Y-11800600D01*
X13843694Y-12278600D02*
X13873694Y-12308600D01*
X13873694Y-12278600D02*
X13843694Y-12308600D01*
X13843694Y-12405600D02*
X13873694Y-12435600D01*
X13873694Y-12405600D02*
X13843694Y-12435600D01*
X13853400Y-7224000D02*
X13883400Y-7254000D01*
X13883400Y-7224000D02*
X13853400Y-7254000D01*
X13853400Y-7351000D02*
X13883400Y-7381000D01*
X13883400Y-7351000D02*
X13853400Y-7381000D01*
X13853400Y-7859000D02*
X13883400Y-7889000D01*
X13883400Y-7859000D02*
X13853400Y-7889000D01*
X13853400Y-7986000D02*
X13883400Y-8016000D01*
X13883400Y-7986000D02*
X13853400Y-8016000D01*
X13869094Y-13548600D02*
X13899094Y-13578600D01*
X13899094Y-13548600D02*
X13869094Y-13578600D01*
X13869094Y-13675600D02*
X13899094Y-13705600D01*
X13899094Y-13675600D02*
X13869094Y-13705600D01*
X13869094Y-13802600D02*
X13899094Y-13832600D01*
X13899094Y-13802600D02*
X13869094Y-13832600D01*
X13891250Y-5791608D02*
X13921250Y-5821608D01*
X13921250Y-5791608D02*
X13891250Y-5821608D01*
X13891250Y-5918608D02*
X13921250Y-5948608D01*
X13921250Y-5918608D02*
X13891250Y-5948608D01*
X13891250Y-6045608D02*
X13921250Y-6075608D01*
X13921250Y-6045608D02*
X13891250Y-6075608D01*
X13894494Y-8950549D02*
X13924494Y-8980549D01*
X13924494Y-8950549D02*
X13894494Y-8980549D01*
X13894494Y-9077549D02*
X13924494Y-9107549D01*
X13924494Y-9077549D02*
X13894494Y-9107549D01*
X13894494Y-9204549D02*
X13924494Y-9234549D01*
X13924494Y-9204549D02*
X13894494Y-9234549D01*
X13894494Y-10474549D02*
X13924494Y-10504549D01*
X13924494Y-10474549D02*
X13894494Y-10504549D01*
X13894494Y-10601549D02*
X13924494Y-10631549D01*
X13924494Y-10601549D02*
X13894494Y-10631549D01*
X13894494Y-10728549D02*
X13924494Y-10758549D01*
X13924494Y-10728549D02*
X13894494Y-10758549D01*
X13894494Y-11897600D02*
X13924494Y-11927600D01*
X13924494Y-11897600D02*
X13894494Y-11927600D01*
X13894494Y-12024600D02*
X13924494Y-12054600D01*
X13924494Y-12024600D02*
X13894494Y-12054600D01*
X13894494Y-12151600D02*
X13924494Y-12181600D01*
X13924494Y-12151600D02*
X13894494Y-12181600D01*
X13904200Y-7478000D02*
X13934200Y-7508000D01*
X13934200Y-7478000D02*
X13904200Y-7508000D01*
X13904200Y-7605000D02*
X13934200Y-7635000D01*
X13934200Y-7605000D02*
X13904200Y-7635000D01*
X13904200Y-7732000D02*
X13934200Y-7762000D01*
X13934200Y-7732000D02*
X13904200Y-7762000D01*
X19025295Y-12912949D02*
X19055295Y-12942949D01*
X19055295Y-12912949D02*
X19025295Y-12942949D01*
X19025295Y-13039949D02*
X19055295Y-13069949D01*
X19055295Y-13039949D02*
X19025295Y-13069949D01*
X19025295Y-13166949D02*
X19055295Y-13196949D01*
X19055295Y-13166949D02*
X19025295Y-13196949D01*
X19025295Y-13293949D02*
X19055295Y-13323949D01*
X19055295Y-13293949D02*
X19025295Y-13323949D01*
X19025295Y-13420949D02*
X19055295Y-13450949D01*
X19055295Y-13420949D02*
X19025295Y-13450949D01*
X19025295Y-13547949D02*
X19055295Y-13577949D01*
X19055295Y-13547949D02*
X19025295Y-13577949D01*
X19025295Y-13674949D02*
X19055295Y-13704949D01*
X19055295Y-13674949D02*
X19025295Y-13704949D01*
X19152294Y-13293949D02*
X19182294Y-13323949D01*
X19182294Y-13293949D02*
X19152294Y-13323949D01*
X19152295Y-12912949D02*
X19182295Y-12942949D01*
X19182295Y-12912949D02*
X19152295Y-12942949D01*
X19152295Y-13039949D02*
X19182295Y-13069949D01*
X19182295Y-13039949D02*
X19152295Y-13069949D01*
X19152295Y-13166949D02*
X19182295Y-13196949D01*
X19182295Y-13166949D02*
X19152295Y-13196949D01*
X19152295Y-13420949D02*
X19182295Y-13450949D01*
X19182295Y-13420949D02*
X19152295Y-13450949D01*
X19152295Y-13547949D02*
X19182295Y-13577949D01*
X19182295Y-13547949D02*
X19152295Y-13577949D01*
X19152295Y-13674949D02*
X19182295Y-13704949D01*
X19182295Y-13674949D02*
X19152295Y-13704949D01*
X19279295Y-12912949D02*
X19309295Y-12942949D01*
X19309295Y-12912949D02*
X19279295Y-12942949D01*
X19279295Y-13039949D02*
X19309295Y-13069949D01*
X19309295Y-13039949D02*
X19279295Y-13069949D01*
X19279295Y-13166949D02*
X19309295Y-13196949D01*
X19309295Y-13166949D02*
X19279295Y-13196949D01*
X19279295Y-13293949D02*
X19309295Y-13323949D01*
X19309295Y-13293949D02*
X19279295Y-13323949D01*
X19279295Y-13420949D02*
X19309295Y-13450949D01*
X19309295Y-13420949D02*
X19279295Y-13450949D01*
X19279295Y-13547949D02*
X19309295Y-13577949D01*
X19309295Y-13547949D02*
X19279295Y-13577949D01*
X19279295Y-13674949D02*
X19309295Y-13704949D01*
X19309295Y-13674949D02*
X19279295Y-13704949D01*
X19406295Y-12912949D02*
X19436295Y-12942949D01*
X19436295Y-12912949D02*
X19406295Y-12942949D01*
X19406295Y-13039949D02*
X19436295Y-13069949D01*
X19436295Y-13039949D02*
X19406295Y-13069949D01*
X19406295Y-13166949D02*
X19436295Y-13196949D01*
X19436295Y-13166949D02*
X19406295Y-13196949D01*
X19406295Y-13420949D02*
X19436295Y-13450949D01*
X19436295Y-13420949D02*
X19406295Y-13450949D01*
X19406295Y-13547949D02*
X19436295Y-13577949D01*
X19436295Y-13547949D02*
X19406295Y-13577949D01*
X19406295Y-13674949D02*
X19436295Y-13704949D01*
X19436295Y-13674949D02*
X19406295Y-13704949D01*
X19406295Y-13293949D02*
X19436295Y-13323949D01*
X19436295Y-13293949D02*
X19406295Y-13323949D01*
X19533295Y-12862149D02*
X19563295Y-12892149D01*
X19563295Y-12862149D02*
X19533295Y-12892149D01*
X19533295Y-13039949D02*
X19563295Y-13069949D01*
X19563295Y-13039949D02*
X19533295Y-13069949D01*
X19533295Y-13547949D02*
X19563295Y-13577949D01*
X19563295Y-13547949D02*
X19533295Y-13577949D01*
X19533295Y-13725749D02*
X19563295Y-13755749D01*
X19563295Y-13725749D02*
X19533295Y-13755749D01*
X19660295Y-12862149D02*
X19690295Y-12892149D01*
X19690295Y-12862149D02*
X19660295Y-12892149D01*
X19660295Y-13039949D02*
X19690295Y-13069949D01*
X19690295Y-13039949D02*
X19660295Y-13069949D01*
X19660295Y-13547949D02*
X19690295Y-13577949D01*
X19690295Y-13547949D02*
X19660295Y-13577949D01*
X19660295Y-13725749D02*
X19690295Y-13755749D01*
X19690295Y-13725749D02*
X19660295Y-13755749D01*
X19787294Y-13293949D02*
X19817294Y-13323949D01*
X19817294Y-13293949D02*
X19787294Y-13323949D01*
X19787295Y-13166949D02*
X19817295Y-13196949D01*
X19817295Y-13166949D02*
X19787295Y-13196949D01*
X19787295Y-13420949D02*
X19817295Y-13450949D01*
X19817295Y-13420949D02*
X19787295Y-13450949D01*
X19812695Y-12912949D02*
X19842695Y-12942949D01*
X19842695Y-12912949D02*
X19812695Y-12942949D01*
X19812695Y-13039949D02*
X19842695Y-13069949D01*
X19842695Y-13039949D02*
X19812695Y-13069949D01*
X19812695Y-13547949D02*
X19842695Y-13577949D01*
X19842695Y-13547949D02*
X19812695Y-13577949D01*
X19812695Y-13674949D02*
X19842695Y-13704949D01*
X19842695Y-13674949D02*
X19812695Y-13704949D01*
X19939695Y-12912949D02*
X19969695Y-12942949D01*
X19969695Y-12912949D02*
X19939695Y-12942949D01*
X19939695Y-13039949D02*
X19969695Y-13069949D01*
X19969695Y-13039949D02*
X19939695Y-13069949D01*
X19939695Y-13547949D02*
X19969695Y-13577949D01*
X19969695Y-13547949D02*
X19939695Y-13577949D01*
X19939695Y-13674949D02*
X19969695Y-13704949D01*
X19969695Y-13674949D02*
X19939695Y-13704949D01*
X20066695Y-12912949D02*
X20096695Y-12942949D01*
X20096695Y-12912949D02*
X20066695Y-12942949D01*
X20066695Y-13039949D02*
X20096695Y-13069949D01*
X20096695Y-13039949D02*
X20066695Y-13069949D01*
X20066695Y-13547949D02*
X20096695Y-13577949D01*
X20096695Y-13547949D02*
X20066695Y-13577949D01*
X20066695Y-13674949D02*
X20096695Y-13704949D01*
X20096695Y-13674949D02*
X20066695Y-13704949D01*
X20193695Y-12912949D02*
X20223695Y-12942949D01*
X20223695Y-12912949D02*
X20193695Y-12942949D01*
X20193695Y-13039949D02*
X20223695Y-13069949D01*
X20223695Y-13039949D02*
X20193695Y-13069949D01*
X20193695Y-13547949D02*
X20223695Y-13577949D01*
X20223695Y-13547949D02*
X20193695Y-13577949D01*
X20193695Y-13674949D02*
X20223695Y-13704949D01*
X20223695Y-13674949D02*
X20193695Y-13704949D01*
X20244495Y-13166949D02*
X20274495Y-13196949D01*
X20274495Y-13166949D02*
X20244495Y-13196949D01*
X20244495Y-13293949D02*
X20274495Y-13323949D01*
X20274495Y-13293949D02*
X20244495Y-13323949D01*
X20244495Y-13420949D02*
X20274495Y-13450949D01*
X20274495Y-13420949D02*
X20244495Y-13450949D01*
X15920400Y-10769600D02*
G75*
G02*
X15880400Y-10769600I-20000J0D01*
G01*
X15880400Y-10769600D02*
G75*
G02*
X15920400Y-10769600I20000J0D01*
G01*
X15920400Y-11201400D02*
G75*
G02*
X15880400Y-11201400I-20000J0D01*
G01*
X15880400Y-11201400D02*
G75*
G02*
X15920400Y-11201400I20000J0D01*
G01*
X15920400Y-11607800D02*
G75*
G02*
X15880400Y-11607800I-20000J0D01*
G01*
X15880400Y-11607800D02*
G75*
G02*
X15920400Y-11607800I20000J0D01*
G01*
X16047400Y-9753600D02*
G75*
G02*
X16007400Y-9753600I-20000J0D01*
G01*
X16007400Y-9753600D02*
G75*
G02*
X16047400Y-9753600I20000J0D01*
G01*
X16250600Y-7899400D02*
G75*
G02*
X16210600Y-7899400I-20000J0D01*
G01*
X16210600Y-7899400D02*
G75*
G02*
X16250600Y-7899400I20000J0D01*
G01*
X16264050Y-9943350D02*
G75*
G02*
X16224050Y-9943350I-20000J0D01*
G01*
X16224050Y-9943350D02*
G75*
G02*
X16264050Y-9943350I20000J0D01*
G01*
X16631600Y-11201400D02*
G75*
G02*
X16591600Y-11201400I-20000J0D01*
G01*
X16591600Y-11201400D02*
G75*
G02*
X16631600Y-11201400I20000J0D01*
G01*
X16631600Y-11557000D02*
G75*
G02*
X16591600Y-11557000I-20000J0D01*
G01*
X16591600Y-11557000D02*
G75*
G02*
X16631600Y-11557000I20000J0D01*
G01*
X17292000Y-9880100D02*
G75*
G02*
X17252000Y-9880100I-20000J0D01*
G01*
X17252000Y-9880100D02*
G75*
G02*
X17292000Y-9880100I20000J0D01*
G01*
X17749200Y-11988800D02*
G75*
G02*
X17709200Y-11988800I-20000J0D01*
G01*
X17709200Y-11988800D02*
G75*
G02*
X17749200Y-11988800I20000J0D01*
G01*
X17761900Y-13246100D02*
G75*
G02*
X17721900Y-13246100I-20000J0D01*
G01*
X17721900Y-13246100D02*
G75*
G02*
X17761900Y-13246100I20000J0D01*
G01*
X17774600Y-10795000D02*
G75*
G02*
X17734600Y-10795000I-20000J0D01*
G01*
X17734600Y-10795000D02*
G75*
G02*
X17774600Y-10795000I20000J0D01*
G01*
X17774600Y-12547600D02*
G75*
G02*
X17734600Y-12547600I-20000J0D01*
G01*
X17734600Y-12547600D02*
G75*
G02*
X17774600Y-12547600I20000J0D01*
G01*
X17774600Y-12801600D02*
G75*
G02*
X17734600Y-12801600I-20000J0D01*
G01*
X17734600Y-12801600D02*
G75*
G02*
X17774600Y-12801600I20000J0D01*
G01*
X17825400Y-12065000D02*
G75*
G02*
X17785400Y-12065000I-20000J0D01*
G01*
X17785400Y-12065000D02*
G75*
G02*
X17825400Y-12065000I20000J0D01*
G01*
X18054000Y-9525000D02*
G75*
G02*
X18014000Y-9525000I-20000J0D01*
G01*
X18014000Y-9525000D02*
G75*
G02*
X18054000Y-9525000I20000J0D01*
G01*
X18308000Y-10947400D02*
G75*
G02*
X18268000Y-10947400I-20000J0D01*
G01*
X18268000Y-10947400D02*
G75*
G02*
X18308000Y-10947400I20000J0D01*
G01*
X14579600Y-10973200D02*
X14579600Y-11023200D01*
X14554600Y-10998200D02*
X14604600Y-10998200D01*
X14201484Y-8715085D02*
X14201484Y-8658516D01*
X14144915Y-8658516D01*
X14144915Y-8715085D01*
X14201484Y-8715085D01*
X14252284Y-12194884D02*
X14252284Y-12138315D01*
X14195715Y-12138315D01*
X14195715Y-12194884D01*
X14252284Y-12194884D01*
X14262277Y-6165092D02*
X14262277Y-6108523D01*
X14205708Y-6108523D01*
X14205708Y-6165092D01*
X14262277Y-6165092D01*
X14277684Y-12956884D02*
X14277684Y-12900315D01*
X14221115Y-12900315D01*
X14221115Y-12956884D01*
X14277684Y-12956884D01*
X14277684Y-13718884D02*
X14277684Y-13662315D01*
X14221115Y-13662315D01*
X14221115Y-13718884D01*
X14277684Y-13718884D01*
X14353884Y-9908885D02*
X14353884Y-9852316D01*
X14297315Y-9852316D01*
X14297315Y-9908885D01*
X14353884Y-9908885D01*
X14353884Y-10670885D02*
X14353884Y-10614316D01*
X14297315Y-10614316D01*
X14297315Y-10670885D01*
X14353884Y-10670885D01*
X14404684Y-6784684D02*
X14404684Y-6728115D01*
X14348115Y-6728115D01*
X14348115Y-6784684D01*
X14404684Y-6784684D01*
X14404684Y-7546684D02*
X14404684Y-7490115D01*
X14348115Y-7490115D01*
X14348115Y-7546684D01*
X14404684Y-7546684D01*
X14557084Y-13998284D02*
X14557084Y-13941715D01*
X14500515Y-13941715D01*
X14500515Y-13998284D01*
X14557084Y-13998284D01*
X14607884Y-12603381D02*
X14607884Y-12546812D01*
X14551315Y-12546812D01*
X14551315Y-12603381D01*
X14607884Y-12603381D01*
X14684084Y-10416885D02*
X14684084Y-10360316D01*
X14627515Y-10360316D01*
X14627515Y-10416885D01*
X14684084Y-10416885D01*
X14744877Y-6385677D02*
X14744877Y-6329108D01*
X14688308Y-6329108D01*
X14688308Y-6385677D01*
X14744877Y-6385677D01*
X14791100Y-11656069D02*
X14791100Y-11599500D01*
X14734531Y-11599500D01*
X14734531Y-11656069D01*
X14791100Y-11656069D01*
X14795677Y-9543292D02*
X14795677Y-9486723D01*
X14739108Y-9486723D01*
X14739108Y-9543292D01*
X14795677Y-9543292D01*
X14801092Y-5626277D02*
X14801092Y-5569708D01*
X14744523Y-5569708D01*
X14744523Y-5626277D01*
X14801092Y-5626277D01*
X14914190Y-12956934D02*
X14914190Y-12900365D01*
X14857621Y-12900365D01*
X14857621Y-12956934D01*
X14914190Y-12956934D01*
X14963484Y-7165684D02*
X14963484Y-7109115D01*
X14906915Y-7109115D01*
X14906915Y-7165684D01*
X14963484Y-7165684D01*
X14963484Y-7927684D02*
X14963484Y-7871115D01*
X14906915Y-7871115D01*
X14906915Y-7927684D01*
X14963484Y-7927684D01*
X14963484Y-8715085D02*
X14963484Y-8658516D01*
X14906915Y-8658516D01*
X14906915Y-8715085D01*
X14963484Y-8715085D01*
X14989908Y-9907861D02*
X14989908Y-9851292D01*
X14933339Y-9851292D01*
X14933339Y-9907861D01*
X14989908Y-9907861D01*
X15005400Y-6784684D02*
X15005400Y-6728115D01*
X14948831Y-6728115D01*
X14948831Y-6784684D01*
X15005400Y-6784684D01*
X15146700Y-12064565D02*
X15146700Y-12007996D01*
X15090131Y-12007996D01*
X15090131Y-12064565D01*
X15146700Y-12064565D01*
X15267743Y-12603381D02*
X15267743Y-12546812D01*
X15211174Y-12546812D01*
X15211174Y-12603381D01*
X15267743Y-12603381D01*
X15283692Y-5846862D02*
X15283692Y-5790293D01*
X15227123Y-5790293D01*
X15227123Y-5846862D01*
X15283692Y-5846862D01*
X15319084Y-13998284D02*
X15319084Y-13941715D01*
X15262515Y-13941715D01*
X15262515Y-13998284D01*
X15319084Y-13998284D01*
X15334492Y-9004477D02*
X15334492Y-8947908D01*
X15277923Y-8947908D01*
X15277923Y-9004477D01*
X15334492Y-9004477D01*
X15343461Y-9554308D02*
X15343461Y-9497739D01*
X15286892Y-9497739D01*
X15286892Y-9554308D01*
X15343461Y-9554308D01*
X15358953Y-6431131D02*
X15358953Y-6374562D01*
X15302384Y-6374562D01*
X15302384Y-6431131D01*
X15358953Y-6431131D01*
X15446084Y-10416885D02*
X15446084Y-10360316D01*
X15389515Y-10360316D01*
X15389515Y-10416885D01*
X15446084Y-10416885D01*
X15700084Y-5768684D02*
X15700084Y-5712115D01*
X15643515Y-5712115D01*
X15643515Y-5768684D01*
X15700084Y-5768684D01*
X15700084Y-6022684D02*
X15700084Y-5966115D01*
X15643515Y-5966115D01*
X15643515Y-6022684D01*
X15700084Y-6022684D01*
X15700084Y-6276684D02*
X15700084Y-6220115D01*
X15643515Y-6220115D01*
X15643515Y-6276684D01*
X15700084Y-6276684D01*
X15700084Y-6530684D02*
X15700084Y-6474115D01*
X15643515Y-6474115D01*
X15643515Y-6530684D01*
X15700084Y-6530684D01*
X15700084Y-6784684D02*
X15700084Y-6728115D01*
X15643515Y-6728115D01*
X15643515Y-6784684D01*
X15700084Y-6784684D01*
X15700084Y-7038684D02*
X15700084Y-6982115D01*
X15643515Y-6982115D01*
X15643515Y-7038684D01*
X15700084Y-7038684D01*
X15700084Y-7292684D02*
X15700084Y-7236115D01*
X15643515Y-7236115D01*
X15643515Y-7292684D01*
X15700084Y-7292684D01*
X15700084Y-11941036D02*
X15700084Y-11884467D01*
X15643515Y-11884467D01*
X15643515Y-11941036D01*
X15700084Y-11941036D01*
X15700084Y-12195036D02*
X15700084Y-12138467D01*
X15643515Y-12138467D01*
X15643515Y-12195036D01*
X15700084Y-12195036D01*
X15700084Y-12449035D02*
X15700084Y-12392466D01*
X15643515Y-12392466D01*
X15643515Y-12449035D01*
X15700084Y-12449035D01*
X15700084Y-12703036D02*
X15700084Y-12646467D01*
X15643515Y-12646467D01*
X15643515Y-12703036D01*
X15700084Y-12703036D01*
X15700084Y-12957036D02*
X15700084Y-12900467D01*
X15643515Y-12900467D01*
X15643515Y-12957036D01*
X15700084Y-12957036D01*
X15700084Y-13211036D02*
X15700084Y-13154467D01*
X15643515Y-13154467D01*
X15643515Y-13211036D01*
X15700084Y-13211036D01*
X15700084Y-13465036D02*
X15700084Y-13408467D01*
X15643515Y-13408467D01*
X15643515Y-13465036D01*
X15700084Y-13465036D01*
X15701084Y-8892385D02*
X15701084Y-8835816D01*
X15644515Y-8835816D01*
X15644515Y-8892385D01*
X15701084Y-8892385D01*
X15701084Y-9146385D02*
X15701084Y-9089816D01*
X15644515Y-9089816D01*
X15644515Y-9146385D01*
X15701084Y-9146385D01*
X15701084Y-9400385D02*
X15701084Y-9343816D01*
X15644515Y-9343816D01*
X15644515Y-9400385D01*
X15701084Y-9400385D01*
X15701084Y-9654385D02*
X15701084Y-9597816D01*
X15644515Y-9597816D01*
X15644515Y-9654385D01*
X15701084Y-9654385D01*
X15701084Y-9908385D02*
X15701084Y-9851816D01*
X15644515Y-9851816D01*
X15644515Y-9908385D01*
X15701084Y-9908385D01*
X15701084Y-10162385D02*
X15701084Y-10105816D01*
X15644515Y-10105816D01*
X15644515Y-10162385D01*
X15701084Y-10162385D01*
X15701084Y-10416385D02*
X15701084Y-10359816D01*
X15644515Y-10359816D01*
X15644515Y-10416385D01*
X15701084Y-10416385D01*
X16106484Y-14205484D02*
X16106484Y-14148915D01*
X16049915Y-14148915D01*
X16049915Y-14205484D01*
X16106484Y-14205484D01*
X16106484Y-14455484D02*
X16106484Y-14398915D01*
X16049915Y-14398915D01*
X16049915Y-14455484D01*
X16106484Y-14455484D01*
X16436684Y-8153796D02*
X16436684Y-8097227D01*
X16380115Y-8097227D01*
X16380115Y-8153796D01*
X16436684Y-8153796D01*
X16436684Y-8403796D02*
X16436684Y-8347227D01*
X16380115Y-8347227D01*
X16380115Y-8403796D01*
X16436684Y-8403796D01*
X16462084Y-5768684D02*
X16462084Y-5712115D01*
X16405515Y-5712115D01*
X16405515Y-5768684D01*
X16462084Y-5768684D01*
X16462084Y-6022684D02*
X16462084Y-5966115D01*
X16405515Y-5966115D01*
X16405515Y-6022684D01*
X16462084Y-6022684D01*
X16462084Y-6276684D02*
X16462084Y-6220115D01*
X16405515Y-6220115D01*
X16405515Y-6276684D01*
X16462084Y-6276684D01*
X16462084Y-6530684D02*
X16462084Y-6474115D01*
X16405515Y-6474115D01*
X16405515Y-6530684D01*
X16462084Y-6530684D01*
X16462084Y-6784684D02*
X16462084Y-6728115D01*
X16405515Y-6728115D01*
X16405515Y-6784684D01*
X16462084Y-6784684D01*
X16462084Y-7038684D02*
X16462084Y-6982115D01*
X16405515Y-6982115D01*
X16405515Y-7038684D01*
X16462084Y-7038684D01*
X16462084Y-7292684D02*
X16462084Y-7236115D01*
X16405515Y-7236115D01*
X16405515Y-7292684D01*
X16462084Y-7292684D01*
X16462084Y-11941036D02*
X16462084Y-11884467D01*
X16405515Y-11884467D01*
X16405515Y-11941036D01*
X16462084Y-11941036D01*
X16462084Y-12195036D02*
X16462084Y-12138467D01*
X16405515Y-12138467D01*
X16405515Y-12195036D01*
X16462084Y-12195036D01*
X16462084Y-12449036D02*
X16462084Y-12392467D01*
X16405515Y-12392467D01*
X16405515Y-12449036D01*
X16462084Y-12449036D01*
X16462084Y-12703036D02*
X16462084Y-12646467D01*
X16405515Y-12646467D01*
X16405515Y-12703036D01*
X16462084Y-12703036D01*
X16462084Y-12957036D02*
X16462084Y-12900467D01*
X16405515Y-12900467D01*
X16405515Y-12957036D01*
X16462084Y-12957036D01*
X16462084Y-13211036D02*
X16462084Y-13154467D01*
X16405515Y-13154467D01*
X16405515Y-13211036D01*
X16462084Y-13211036D01*
X16462084Y-13465036D02*
X16462084Y-13408467D01*
X16405515Y-13408467D01*
X16405515Y-13465036D01*
X16462084Y-13465036D01*
X16463084Y-8892385D02*
X16463084Y-8835816D01*
X16406515Y-8835816D01*
X16406515Y-8892385D01*
X16463084Y-8892385D01*
X16463084Y-9146385D02*
X16463084Y-9089816D01*
X16406515Y-9089816D01*
X16406515Y-9146385D01*
X16463084Y-9146385D01*
X16463084Y-9400385D02*
X16463084Y-9343816D01*
X16406515Y-9343816D01*
X16406515Y-9400385D01*
X16463084Y-9400385D01*
X16463084Y-9654385D02*
X16463084Y-9597816D01*
X16406515Y-9597816D01*
X16406515Y-9654385D01*
X16463084Y-9654385D01*
X16463084Y-9908385D02*
X16463084Y-9851816D01*
X16406515Y-9851816D01*
X16406515Y-9908385D01*
X16463084Y-9908385D01*
X16463084Y-10162385D02*
X16463084Y-10105816D01*
X16406515Y-10105816D01*
X16406515Y-10162385D01*
X16463084Y-10162385D01*
X16463084Y-10416385D02*
X16463084Y-10359816D01*
X16406515Y-10359816D01*
X16406515Y-10416385D01*
X16463084Y-10416385D01*
X16843085Y-11864684D02*
X16843085Y-11808115D01*
X16786516Y-11808115D01*
X16786516Y-11864684D01*
X16843085Y-11864684D01*
X16843085Y-12626684D02*
X16843085Y-12570115D01*
X16786516Y-12570115D01*
X16786516Y-12626684D01*
X16843085Y-12626684D01*
X16944685Y-9296796D02*
X16944685Y-9240227D01*
X16888116Y-9240227D01*
X16888116Y-9296796D01*
X16944685Y-9296796D01*
X16944685Y-9546796D02*
X16944685Y-9490227D01*
X16888116Y-9490227D01*
X16888116Y-9546796D01*
X16944685Y-9546796D01*
X17247133Y-6949273D02*
X17247133Y-6892704D01*
X17190564Y-6892704D01*
X17190564Y-6949273D01*
X17247133Y-6949273D01*
X17249485Y-11880092D02*
X17249485Y-11823523D01*
X17192916Y-11823523D01*
X17192916Y-11880092D01*
X17249485Y-11880092D01*
X17249485Y-12321884D02*
X17249485Y-12265315D01*
X17192916Y-12265315D01*
X17192916Y-12321884D01*
X17249485Y-12321884D01*
X17249485Y-12829884D02*
X17249485Y-12773315D01*
X17192916Y-12773315D01*
X17192916Y-12829884D01*
X17249485Y-12829884D01*
X17326708Y-7723461D02*
X17326708Y-7666892D01*
X17270139Y-7666892D01*
X17270139Y-7723461D01*
X17326708Y-7723461D01*
X17379684Y-10340685D02*
X17379684Y-10284116D01*
X17323115Y-10284116D01*
X17323115Y-10340685D01*
X17379684Y-10340685D01*
X17423910Y-6772496D02*
X17423910Y-6715927D01*
X17367341Y-6715927D01*
X17367341Y-6772496D01*
X17423910Y-6772496D01*
X17503485Y-7546684D02*
X17503485Y-7490115D01*
X17446916Y-7490115D01*
X17446916Y-7546684D01*
X17503485Y-7546684D01*
X17579685Y-10340685D02*
X17579685Y-10284116D01*
X17523116Y-10284116D01*
X17523116Y-10340685D01*
X17579685Y-10340685D01*
X17788300Y-11341277D02*
X17788300Y-11284708D01*
X17731731Y-11284708D01*
X17731731Y-11341277D01*
X17788300Y-11341277D01*
X17856733Y-13819461D02*
X17856733Y-13762892D01*
X17800164Y-13762892D01*
X17800164Y-13819461D01*
X17856733Y-13819461D01*
X17977070Y-7944070D02*
X17977070Y-7887501D01*
X17920501Y-7887501D01*
X17920501Y-7944070D01*
X17977070Y-7944070D01*
X17997063Y-6617863D02*
X17997063Y-6561294D01*
X17940494Y-6561294D01*
X17940494Y-6617863D01*
X17997063Y-6617863D01*
X18011485Y-12321884D02*
X18011485Y-12265315D01*
X17954916Y-12265315D01*
X17954916Y-12321884D01*
X18011485Y-12321884D01*
X18011485Y-12829884D02*
X18011485Y-12773315D01*
X17954916Y-12773315D01*
X17954916Y-12829884D01*
X18011485Y-12829884D01*
X18033510Y-13642684D02*
X18033510Y-13586115D01*
X17976941Y-13586115D01*
X17976941Y-13642684D01*
X18033510Y-13642684D01*
X18050096Y-7280496D02*
X18050096Y-7223927D01*
X17993527Y-7223927D01*
X17993527Y-7280496D01*
X18050096Y-7280496D01*
X18062285Y-9883485D02*
X18062285Y-9826916D01*
X18005716Y-9826916D01*
X18005716Y-9883485D01*
X18062285Y-9883485D01*
X18062285Y-10645485D02*
X18062285Y-10588916D01*
X18005716Y-10588916D01*
X18005716Y-10645485D01*
X18062285Y-10645485D01*
X18138485Y-6759284D02*
X18138485Y-6702715D01*
X18081916Y-6702715D01*
X18081916Y-6759284D01*
X18138485Y-6759284D01*
X18153847Y-8120847D02*
X18153847Y-8064278D01*
X18097278Y-8064278D01*
X18097278Y-8120847D01*
X18153847Y-8120847D01*
X18214685Y-11153485D02*
X18214685Y-11096916D01*
X18158116Y-11096916D01*
X18158116Y-11153485D01*
X18214685Y-11153485D01*
X18214685Y-11915484D02*
X18214685Y-11858915D01*
X18158116Y-11858915D01*
X18158116Y-11915484D01*
X18214685Y-11915484D01*
X18226873Y-7457273D02*
X18226873Y-7400704D01*
X18170304Y-7400704D01*
X18170304Y-7457273D01*
X18226873Y-7457273D01*
X18339333Y-14315273D02*
X18339333Y-14258704D01*
X18282764Y-14258704D01*
X18282764Y-14315273D01*
X18339333Y-14315273D01*
X18516110Y-14138496D02*
X18516110Y-14081927D01*
X18459541Y-14081927D01*
X18459541Y-14138496D01*
X18516110Y-14138496D01*
X17907000Y-8635200D02*
X17957000Y-8585200D01*
X17907000Y-8535200D01*
X17857000Y-8585200D01*
X17907000Y-8635200D01*
X17907000Y-8889200D02*
X17957000Y-8839200D01*
X17907000Y-8789200D01*
X17857000Y-8839200D01*
X17907000Y-8889200D01*
X17907000Y-9143200D02*
X17957000Y-9093200D01*
X17907000Y-9043200D01*
X17857000Y-9093200D01*
X17907000Y-9143200D01*
X18592800Y-8406600D02*
X18642800Y-8356600D01*
X18592800Y-8306600D01*
X18542800Y-8356600D01*
X18592800Y-8406600D01*
X18592800Y-8660600D02*
X18642800Y-8610600D01*
X18592800Y-8560600D01*
X18542800Y-8610600D01*
X18592800Y-8660600D01*
X18592800Y-8914600D02*
X18642800Y-8864600D01*
X18592800Y-8814600D01*
X18542800Y-8864600D01*
X18592800Y-8914600D01*
X18592800Y-9168600D02*
X18642800Y-9118600D01*
X18592800Y-9068600D01*
X18542800Y-9118600D01*
X18592800Y-9168600D01*
X18592800Y-9422600D02*
X18642800Y-9372600D01*
X18592800Y-9322600D01*
X18542800Y-9372600D01*
X18592800Y-9422600D01*
X18592800Y-9676600D02*
X18642800Y-9626600D01*
X18592800Y-9576600D01*
X18542800Y-9626600D01*
X18592800Y-9676600D01*
X18592800Y-9930600D02*
X18642800Y-9880600D01*
X18592800Y-9830600D01*
X18542800Y-9880600D01*
X18592800Y-9930600D01*
X18592800Y-10184600D02*
X18642800Y-10134600D01*
X18592800Y-10084600D01*
X18542800Y-10134600D01*
X18592800Y-10184600D01*
X18592800Y-10438600D02*
X18642800Y-10388600D01*
X18592800Y-10338600D01*
X18542800Y-10388600D01*
X18592800Y-10438600D01*
X18592800Y-10692600D02*
X18642800Y-10642600D01*
X18592800Y-10592600D01*
X18542800Y-10642600D01*
X18592800Y-10692600D01*
X18592800Y-10946600D02*
X18642800Y-10896600D01*
X18592800Y-10846600D01*
X18542800Y-10896600D01*
X18592800Y-10946600D01*
X18592800Y-11200600D02*
X18642800Y-11150600D01*
X18592800Y-11100600D01*
X18542800Y-11150600D01*
X18592800Y-11200600D01*
X18592800Y-11454600D02*
X18642800Y-11404600D01*
X18592800Y-11354600D01*
X18542800Y-11404600D01*
X18592800Y-11454600D01*
X18592800Y-11708600D02*
X18642800Y-11658600D01*
X18592800Y-11608600D01*
X18542800Y-11658600D01*
X18592800Y-11708600D01*
X18592800Y-11962600D02*
X18642800Y-11912600D01*
X18592800Y-11862600D01*
X18542800Y-11912600D01*
X18592800Y-11962600D01*
X20116800Y-8406600D02*
X20166800Y-8356600D01*
X20116800Y-8306600D01*
X20066800Y-8356600D01*
X20116800Y-8406600D01*
X20116800Y-8660600D02*
X20166800Y-8610600D01*
X20116800Y-8560600D01*
X20066800Y-8610600D01*
X20116800Y-8660600D01*
X20116800Y-8914600D02*
X20166800Y-8864600D01*
X20116800Y-8814600D01*
X20066800Y-8864600D01*
X20116800Y-8914600D01*
X20116800Y-9168600D02*
X20166800Y-9118600D01*
X20116800Y-9068600D01*
X20066800Y-9118600D01*
X20116800Y-9168600D01*
X20116800Y-9422600D02*
X20166800Y-9372600D01*
X20116800Y-9322600D01*
X20066800Y-9372600D01*
X20116800Y-9422600D01*
X20116800Y-9676600D02*
X20166800Y-9626600D01*
X20116800Y-9576600D01*
X20066800Y-9626600D01*
X20116800Y-9676600D01*
X20116800Y-9930600D02*
X20166800Y-9880600D01*
X20116800Y-9830600D01*
X20066800Y-9880600D01*
X20116800Y-9930600D01*
X20116800Y-10184600D02*
X20166800Y-10134600D01*
X20116800Y-10084600D01*
X20066800Y-10134600D01*
X20116800Y-10184600D01*
X20116800Y-10438600D02*
X20166800Y-10388600D01*
X20116800Y-10338600D01*
X20066800Y-10388600D01*
X20116800Y-10438600D01*
X20116800Y-10692600D02*
X20166800Y-10642600D01*
X20116800Y-10592600D01*
X20066800Y-10642600D01*
X20116800Y-10692600D01*
X20116800Y-10946600D02*
X20166800Y-10896600D01*
X20116800Y-10846600D01*
X20066800Y-10896600D01*
X20116800Y-10946600D01*
X20116800Y-11200600D02*
X20166800Y-11150600D01*
X20116800Y-11100600D01*
X20066800Y-11150600D01*
X20116800Y-11200600D01*
X20116800Y-11454600D02*
X20166800Y-11404600D01*
X20116800Y-11354600D01*
X20066800Y-11404600D01*
X20116800Y-11454600D01*
X20116800Y-11708600D02*
X20166800Y-11658600D01*
X20116800Y-11608600D01*
X20066800Y-11658600D01*
X20116800Y-11708600D01*
X20116800Y-11962600D02*
X20166800Y-11912600D01*
X20116800Y-11862600D01*
X20066800Y-11912600D01*
X20116800Y-11962600D01*
D13*
X11933800Y-13382251D02*
X12043800Y-13492251D01*
X12043800Y-13382251D02*
X11933800Y-13492251D01*
X12043800Y-13437251D02*
G75*
G02*
X11933800Y-13437251I-55000J0D01*
G01*
X11933800Y-13437251D02*
G75*
G02*
X12043800Y-13437251I55000J0D01*
G01*
X11933800Y-13636251D02*
X12043800Y-13746251D01*
X12043800Y-13636251D02*
X11933800Y-13746251D01*
X12043800Y-13691251D02*
G75*
G02*
X11933800Y-13691251I-55000J0D01*
G01*
X11933800Y-13691251D02*
G75*
G02*
X12043800Y-13691251I55000J0D01*
G01*
X11933800Y-13890251D02*
X12043800Y-14000251D01*
X12043800Y-13890251D02*
X11933800Y-14000251D01*
X12043800Y-13945251D02*
G75*
G02*
X11933800Y-13945251I-55000J0D01*
G01*
X11933800Y-13945251D02*
G75*
G02*
X12043800Y-13945251I55000J0D01*
G01*
X11955955Y-5625259D02*
X12065955Y-5735259D01*
X12065955Y-5625259D02*
X11955955Y-5735259D01*
X12065955Y-5680259D02*
G75*
G02*
X11955955Y-5680259I-55000J0D01*
G01*
X11955955Y-5680259D02*
G75*
G02*
X12065955Y-5680259I55000J0D01*
G01*
X11955956Y-5879259D02*
X12065956Y-5989259D01*
X12065956Y-5879259D02*
X11955956Y-5989259D01*
X12065956Y-5934259D02*
G75*
G02*
X11955956Y-5934259I-55000J0D01*
G01*
X11955956Y-5934259D02*
G75*
G02*
X12065956Y-5934259I55000J0D01*
G01*
X11955956Y-6133259D02*
X12065956Y-6243259D01*
X12065956Y-6133259D02*
X11955956Y-6243259D01*
X12065956Y-6188259D02*
G75*
G02*
X11955956Y-6188259I-55000J0D01*
G01*
X11955956Y-6188259D02*
G75*
G02*
X12065956Y-6188259I55000J0D01*
G01*
X11959200Y-8784200D02*
X12069200Y-8894200D01*
X12069200Y-8784200D02*
X11959200Y-8894200D01*
X12069200Y-8839200D02*
G75*
G02*
X11959200Y-8839200I-55000J0D01*
G01*
X11959200Y-8839200D02*
G75*
G02*
X12069200Y-8839200I55000J0D01*
G01*
X11959200Y-9038200D02*
X12069200Y-9148200D01*
X12069200Y-9038200D02*
X11959200Y-9148200D01*
X12069200Y-9093200D02*
G75*
G02*
X11959200Y-9093200I-55000J0D01*
G01*
X11959200Y-9093200D02*
G75*
G02*
X12069200Y-9093200I55000J0D01*
G01*
X11959200Y-9292200D02*
X12069200Y-9402200D01*
X12069200Y-9292200D02*
X11959200Y-9402200D01*
X12069200Y-9347200D02*
G75*
G02*
X11959200Y-9347200I-55000J0D01*
G01*
X11959200Y-9347200D02*
G75*
G02*
X12069200Y-9347200I55000J0D01*
G01*
X11959200Y-10308200D02*
X12069200Y-10418200D01*
X12069200Y-10308200D02*
X11959200Y-10418200D01*
X12069200Y-10363200D02*
G75*
G02*
X11959200Y-10363200I-55000J0D01*
G01*
X11959200Y-10363200D02*
G75*
G02*
X12069200Y-10363200I55000J0D01*
G01*
X11959200Y-11731251D02*
X12069200Y-11841251D01*
X12069200Y-11731251D02*
X11959200Y-11841251D01*
X12069200Y-11786251D02*
G75*
G02*
X11959200Y-11786251I-55000J0D01*
G01*
X11959200Y-11786251D02*
G75*
G02*
X12069200Y-11786251I55000J0D01*
G01*
X11959200Y-10562200D02*
X12069200Y-10672200D01*
X12069200Y-10562200D02*
X11959200Y-10672200D01*
X12069200Y-10617200D02*
G75*
G02*
X11959200Y-10617200I-55000J0D01*
G01*
X11959200Y-10617200D02*
G75*
G02*
X12069200Y-10617200I55000J0D01*
G01*
X11959200Y-10816200D02*
X12069200Y-10926200D01*
X12069200Y-10816200D02*
X11959200Y-10926200D01*
X12069200Y-10871200D02*
G75*
G02*
X11959200Y-10871200I-55000J0D01*
G01*
X11959200Y-10871200D02*
G75*
G02*
X12069200Y-10871200I55000J0D01*
G01*
X11959200Y-11985251D02*
X12069200Y-12095251D01*
X12069200Y-11985251D02*
X11959200Y-12095251D01*
X12069200Y-12040251D02*
G75*
G02*
X11959200Y-12040251I-55000J0D01*
G01*
X11959200Y-12040251D02*
G75*
G02*
X12069200Y-12040251I55000J0D01*
G01*
X11959200Y-12239251D02*
X12069200Y-12349251D01*
X12069200Y-12239251D02*
X11959200Y-12349251D01*
X12069200Y-12294251D02*
G75*
G02*
X11959200Y-12294251I-55000J0D01*
G01*
X11959200Y-12294251D02*
G75*
G02*
X12069200Y-12294251I55000J0D01*
G01*
X11968905Y-7311651D02*
X12078905Y-7421651D01*
X12078905Y-7311651D02*
X11968905Y-7421651D01*
X12078905Y-7366651D02*
G75*
G02*
X11968905Y-7366651I-55000J0D01*
G01*
X11968905Y-7366651D02*
G75*
G02*
X12078905Y-7366651I55000J0D01*
G01*
X11968906Y-7565651D02*
X12078906Y-7675651D01*
X12078906Y-7565651D02*
X11968906Y-7675651D01*
X12078906Y-7620651D02*
G75*
G02*
X11968906Y-7620651I-55000J0D01*
G01*
X11968906Y-7620651D02*
G75*
G02*
X12078906Y-7620651I55000J0D01*
G01*
X11968906Y-7819651D02*
X12078906Y-7929651D01*
X12078906Y-7819651D02*
X11968906Y-7929651D01*
X12078906Y-7874651D02*
G75*
G02*
X11968906Y-7874651I-55000J0D01*
G01*
X11968906Y-7874651D02*
G75*
G02*
X12078906Y-7874651I55000J0D01*
G01*
X14956400Y-10943200D02*
X15066400Y-11053200D01*
X15066400Y-10943200D02*
X14956400Y-11053200D01*
X15066400Y-10998200D02*
G75*
G02*
X14956400Y-10998200I-55000J0D01*
G01*
X14956400Y-10998200D02*
G75*
G02*
X15066400Y-10998200I55000J0D01*
G01*
X15210400Y-10943200D02*
X15320400Y-11053200D01*
X15320400Y-10943200D02*
X15210400Y-11053200D01*
X15320400Y-10998200D02*
G75*
G02*
X15210400Y-10998200I-55000J0D01*
G01*
X15210400Y-10998200D02*
G75*
G02*
X15320400Y-10998200I55000J0D01*
G01*
X15464400Y-10943200D02*
X15574400Y-11053200D01*
X15574400Y-10943200D02*
X15464400Y-11053200D01*
X15574400Y-10998200D02*
G75*
G02*
X15464400Y-10998200I-55000J0D01*
G01*
X15464400Y-10998200D02*
G75*
G02*
X15574400Y-10998200I55000J0D01*
G01*
X18309200Y-13000600D02*
X18419200Y-13110600D01*
X18419200Y-13000600D02*
X18309200Y-13110600D01*
X18419200Y-13055600D02*
G75*
G02*
X18309200Y-13055600I-55000J0D01*
G01*
X18309200Y-13055600D02*
G75*
G02*
X18419200Y-13055600I55000J0D01*
G01*
X18309200Y-13254600D02*
X18419200Y-13364600D01*
X18419200Y-13254600D02*
X18309200Y-13364600D01*
X18419200Y-13309600D02*
G75*
G02*
X18309200Y-13309600I-55000J0D01*
G01*
X18309200Y-13309600D02*
G75*
G02*
X18419200Y-13309600I55000J0D01*
G01*
X18309200Y-13508600D02*
X18419200Y-13618600D01*
X18419200Y-13508600D02*
X18309200Y-13618600D01*
X18419200Y-13563600D02*
G75*
G02*
X18309200Y-13563600I-55000J0D01*
G01*
X18309200Y-13563600D02*
G75*
G02*
X18419200Y-13563600I55000J0D01*
G01*
D14*
X17413127Y-5655000D02*
X17533127Y-5775000D01*
X17533127Y-5655000D02*
X17413127Y-5775000D01*
X17473127Y-5655000D02*
X17473127Y-5775000D01*
X17413127Y-5715000D02*
X17533127Y-5715000D01*
X17913127Y-5655000D02*
X18033127Y-5775000D01*
X18033127Y-5655000D02*
X17913127Y-5775000D01*
X17973127Y-5655000D02*
X17973127Y-5775000D01*
X17913127Y-5715000D02*
X18033127Y-5715000D01*
D15*
X10824400Y-6531800D02*
X11324400Y-7031800D01*
X11324400Y-6531800D02*
X10824400Y-7031800D01*
X11251178Y-6958578D02*
X11251178Y-6605022D01*
X10897622Y-6605022D01*
X10897622Y-6958578D01*
X11251178Y-6958578D01*
X10824400Y-9630600D02*
X11324400Y-10130600D01*
X11324400Y-9630600D02*
X10824400Y-10130600D01*
X11251178Y-10057378D02*
X11251178Y-9703822D01*
X10897622Y-9703822D01*
X10897622Y-10057378D01*
X11251178Y-10057378D01*
X10824400Y-12678600D02*
X11324400Y-13178600D01*
X11324400Y-12678600D02*
X10824400Y-13178600D01*
X11251178Y-13105378D02*
X11251178Y-12751822D01*
X10897622Y-12751822D01*
X10897622Y-13105378D01*
X11251178Y-13105378D01*
X18723800Y-5795200D02*
X19223800Y-6295200D01*
X19223800Y-5795200D02*
X18723800Y-6295200D01*
X19150578Y-6221978D02*
X19150578Y-5868422D01*
X18797022Y-5868422D01*
X18797022Y-6221978D01*
X19150578Y-6221978D01*
X18723800Y-7065200D02*
X19223800Y-7565200D01*
X19223800Y-7065200D02*
X18723800Y-7565200D01*
X19150578Y-7491978D02*
X19150578Y-7138422D01*
X18797022Y-7138422D01*
X18797022Y-7491978D01*
X19150578Y-7491978D01*
D10*
X10715577Y-15201884D02*
X10715577Y-15001884D01*
X10715577Y-15001884D02*
X10763196Y-15001884D01*
X10763196Y-15001884D02*
X10791767Y-15011408D01*
X10791767Y-15011408D02*
X10810815Y-15030455D01*
X10810815Y-15030455D02*
X10820339Y-15049503D01*
X10820339Y-15049503D02*
X10829863Y-15087598D01*
X10829863Y-15087598D02*
X10829863Y-15116170D01*
X10829863Y-15116170D02*
X10820339Y-15154265D01*
X10820339Y-15154265D02*
X10810815Y-15173312D01*
X10810815Y-15173312D02*
X10791767Y-15192360D01*
X10791767Y-15192360D02*
X10763196Y-15201884D01*
X10763196Y-15201884D02*
X10715577Y-15201884D01*
X10915577Y-15201884D02*
X10915577Y-15068550D01*
X10915577Y-15106646D02*
X10925101Y-15087598D01*
X10925101Y-15087598D02*
X10934624Y-15078074D01*
X10934624Y-15078074D02*
X10953672Y-15068550D01*
X10953672Y-15068550D02*
X10972720Y-15068550D01*
X11039386Y-15201884D02*
X11039386Y-15068550D01*
X11039386Y-15001884D02*
X11029863Y-15011408D01*
X11029863Y-15011408D02*
X11039386Y-15020931D01*
X11039386Y-15020931D02*
X11048910Y-15011408D01*
X11048910Y-15011408D02*
X11039386Y-15001884D01*
X11039386Y-15001884D02*
X11039386Y-15020931D01*
X11163196Y-15201884D02*
X11144148Y-15192360D01*
X11144148Y-15192360D02*
X11134624Y-15173312D01*
X11134624Y-15173312D02*
X11134624Y-15001884D01*
X11267958Y-15201884D02*
X11248910Y-15192360D01*
X11248910Y-15192360D02*
X11239386Y-15173312D01*
X11239386Y-15173312D02*
X11239386Y-15001884D01*
X11496529Y-15201884D02*
X11496529Y-15001884D01*
X11496529Y-15001884D02*
X11563196Y-15144741D01*
X11563196Y-15144741D02*
X11629862Y-15001884D01*
X11629862Y-15001884D02*
X11629862Y-15201884D01*
X11810815Y-15201884D02*
X11810815Y-15097122D01*
X11810815Y-15097122D02*
X11801291Y-15078074D01*
X11801291Y-15078074D02*
X11782243Y-15068550D01*
X11782243Y-15068550D02*
X11744148Y-15068550D01*
X11744148Y-15068550D02*
X11725101Y-15078074D01*
X11810815Y-15192360D02*
X11791767Y-15201884D01*
X11791767Y-15201884D02*
X11744148Y-15201884D01*
X11744148Y-15201884D02*
X11725101Y-15192360D01*
X11725101Y-15192360D02*
X11715577Y-15173312D01*
X11715577Y-15173312D02*
X11715577Y-15154265D01*
X11715577Y-15154265D02*
X11725101Y-15135217D01*
X11725101Y-15135217D02*
X11744148Y-15125693D01*
X11744148Y-15125693D02*
X11791767Y-15125693D01*
X11791767Y-15125693D02*
X11810815Y-15116170D01*
X11906053Y-15068550D02*
X11906053Y-15268550D01*
X11906053Y-15078074D02*
X11925101Y-15068550D01*
X11925101Y-15068550D02*
X11963196Y-15068550D01*
X11963196Y-15068550D02*
X11982243Y-15078074D01*
X11982243Y-15078074D02*
X11991767Y-15087598D01*
X11991767Y-15087598D02*
X12001291Y-15106646D01*
X12001291Y-15106646D02*
X12001291Y-15163789D01*
X12001291Y-15163789D02*
X11991767Y-15182836D01*
X11991767Y-15182836D02*
X11982243Y-15192360D01*
X11982243Y-15192360D02*
X11963196Y-15201884D01*
X11963196Y-15201884D02*
X11925101Y-15201884D01*
X11925101Y-15201884D02*
X11906053Y-15192360D01*
X12087005Y-15182836D02*
X12096529Y-15192360D01*
X12096529Y-15192360D02*
X12087005Y-15201884D01*
X12087005Y-15201884D02*
X12077482Y-15192360D01*
X12077482Y-15192360D02*
X12087005Y-15182836D01*
X12087005Y-15182836D02*
X12087005Y-15201884D01*
X12087005Y-15078074D02*
X12096529Y-15087598D01*
X12096529Y-15087598D02*
X12087005Y-15097122D01*
X12087005Y-15097122D02*
X12077482Y-15087598D01*
X12077482Y-15087598D02*
X12087005Y-15078074D01*
X12087005Y-15078074D02*
X12087005Y-15097122D01*
D12*
X10424800Y-15515400D02*
X10454800Y-15545400D01*
X10454800Y-15515400D02*
X10424800Y-15545400D01*
D10*
X10753672Y-15421884D02*
X10772720Y-15421884D01*
X10772720Y-15421884D02*
X10791767Y-15431408D01*
X10791767Y-15431408D02*
X10801291Y-15440931D01*
X10801291Y-15440931D02*
X10810815Y-15459979D01*
X10810815Y-15459979D02*
X10820339Y-15498074D01*
X10820339Y-15498074D02*
X10820339Y-15545693D01*
X10820339Y-15545693D02*
X10810815Y-15583789D01*
X10810815Y-15583789D02*
X10801291Y-15602836D01*
X10801291Y-15602836D02*
X10791767Y-15612360D01*
X10791767Y-15612360D02*
X10772720Y-15621884D01*
X10772720Y-15621884D02*
X10753672Y-15621884D01*
X10753672Y-15621884D02*
X10734624Y-15612360D01*
X10734624Y-15612360D02*
X10725101Y-15602836D01*
X10725101Y-15602836D02*
X10715577Y-15583789D01*
X10715577Y-15583789D02*
X10706053Y-15545693D01*
X10706053Y-15545693D02*
X10706053Y-15498074D01*
X10706053Y-15498074D02*
X10715577Y-15459979D01*
X10715577Y-15459979D02*
X10725101Y-15440931D01*
X10725101Y-15440931D02*
X10734624Y-15431408D01*
X10734624Y-15431408D02*
X10753672Y-15421884D01*
X10906053Y-15602836D02*
X10915577Y-15612360D01*
X10915577Y-15612360D02*
X10906053Y-15621884D01*
X10906053Y-15621884D02*
X10896529Y-15612360D01*
X10896529Y-15612360D02*
X10906053Y-15602836D01*
X10906053Y-15602836D02*
X10906053Y-15621884D01*
X10982244Y-15421884D02*
X11106053Y-15421884D01*
X11106053Y-15421884D02*
X11039386Y-15498074D01*
X11039386Y-15498074D02*
X11067958Y-15498074D01*
X11067958Y-15498074D02*
X11087005Y-15507598D01*
X11087005Y-15507598D02*
X11096529Y-15517122D01*
X11096529Y-15517122D02*
X11106053Y-15536170D01*
X11106053Y-15536170D02*
X11106053Y-15583789D01*
X11106053Y-15583789D02*
X11096529Y-15602836D01*
X11096529Y-15602836D02*
X11087005Y-15612360D01*
X11087005Y-15612360D02*
X11067958Y-15621884D01*
X11067958Y-15621884D02*
X11010815Y-15621884D01*
X11010815Y-15621884D02*
X10991767Y-15612360D01*
X10991767Y-15612360D02*
X10982244Y-15602836D01*
X11229862Y-15421884D02*
X11248910Y-15421884D01*
X11248910Y-15421884D02*
X11267958Y-15431408D01*
X11267958Y-15431408D02*
X11277482Y-15440931D01*
X11277482Y-15440931D02*
X11287005Y-15459979D01*
X11287005Y-15459979D02*
X11296529Y-15498074D01*
X11296529Y-15498074D02*
X11296529Y-15545693D01*
X11296529Y-15545693D02*
X11287005Y-15583789D01*
X11287005Y-15583789D02*
X11277482Y-15602836D01*
X11277482Y-15602836D02*
X11267958Y-15612360D01*
X11267958Y-15612360D02*
X11248910Y-15621884D01*
X11248910Y-15621884D02*
X11229862Y-15621884D01*
X11229862Y-15621884D02*
X11210815Y-15612360D01*
X11210815Y-15612360D02*
X11201291Y-15602836D01*
X11201291Y-15602836D02*
X11191767Y-15583789D01*
X11191767Y-15583789D02*
X11182244Y-15545693D01*
X11182244Y-15545693D02*
X11182244Y-15498074D01*
X11182244Y-15498074D02*
X11191767Y-15459979D01*
X11191767Y-15459979D02*
X11201291Y-15440931D01*
X11201291Y-15440931D02*
X11210815Y-15431408D01*
X11210815Y-15431408D02*
X11229862Y-15421884D01*
X11420339Y-15421884D02*
X11439386Y-15421884D01*
X11439386Y-15421884D02*
X11458434Y-15431408D01*
X11458434Y-15431408D02*
X11467958Y-15440931D01*
X11467958Y-15440931D02*
X11477482Y-15459979D01*
X11477482Y-15459979D02*
X11487005Y-15498074D01*
X11487005Y-15498074D02*
X11487005Y-15545693D01*
X11487005Y-15545693D02*
X11477482Y-15583789D01*
X11477482Y-15583789D02*
X11467958Y-15602836D01*
X11467958Y-15602836D02*
X11458434Y-15612360D01*
X11458434Y-15612360D02*
X11439386Y-15621884D01*
X11439386Y-15621884D02*
X11420339Y-15621884D01*
X11420339Y-15621884D02*
X11401291Y-15612360D01*
X11401291Y-15612360D02*
X11391767Y-15602836D01*
X11391767Y-15602836D02*
X11382243Y-15583789D01*
X11382243Y-15583789D02*
X11372720Y-15545693D01*
X11372720Y-15545693D02*
X11372720Y-15498074D01*
X11372720Y-15498074D02*
X11382243Y-15459979D01*
X11382243Y-15459979D02*
X11391767Y-15440931D01*
X11391767Y-15440931D02*
X11401291Y-15431408D01*
X11401291Y-15431408D02*
X11420339Y-15421884D01*
X11572720Y-15621884D02*
X11572720Y-15488550D01*
X11572720Y-15507598D02*
X11582243Y-15498074D01*
X11582243Y-15498074D02*
X11601291Y-15488550D01*
X11601291Y-15488550D02*
X11629863Y-15488550D01*
X11629863Y-15488550D02*
X11648910Y-15498074D01*
X11648910Y-15498074D02*
X11658434Y-15517122D01*
X11658434Y-15517122D02*
X11658434Y-15621884D01*
X11658434Y-15517122D02*
X11667958Y-15498074D01*
X11667958Y-15498074D02*
X11687005Y-15488550D01*
X11687005Y-15488550D02*
X11715577Y-15488550D01*
X11715577Y-15488550D02*
X11734624Y-15498074D01*
X11734624Y-15498074D02*
X11744148Y-15517122D01*
X11744148Y-15517122D02*
X11744148Y-15621884D01*
X11839386Y-15621884D02*
X11839386Y-15488550D01*
X11839386Y-15507598D02*
X11848910Y-15498074D01*
X11848910Y-15498074D02*
X11867958Y-15488550D01*
X11867958Y-15488550D02*
X11896529Y-15488550D01*
X11896529Y-15488550D02*
X11915577Y-15498074D01*
X11915577Y-15498074D02*
X11925101Y-15517122D01*
X11925101Y-15517122D02*
X11925101Y-15621884D01*
X11925101Y-15517122D02*
X11934624Y-15498074D01*
X11934624Y-15498074D02*
X11953672Y-15488550D01*
X11953672Y-15488550D02*
X11982243Y-15488550D01*
X11982243Y-15488550D02*
X12001291Y-15498074D01*
X12001291Y-15498074D02*
X12010815Y-15517122D01*
X12010815Y-15517122D02*
X12010815Y-15621884D01*
X12401291Y-15412360D02*
X12229863Y-15669503D01*
X12658434Y-15421884D02*
X12677482Y-15421884D01*
X12677482Y-15421884D02*
X12696529Y-15431408D01*
X12696529Y-15431408D02*
X12706053Y-15440931D01*
X12706053Y-15440931D02*
X12715577Y-15459979D01*
X12715577Y-15459979D02*
X12725101Y-15498074D01*
X12725101Y-15498074D02*
X12725101Y-15545693D01*
X12725101Y-15545693D02*
X12715577Y-15583789D01*
X12715577Y-15583789D02*
X12706053Y-15602836D01*
X12706053Y-15602836D02*
X12696529Y-15612360D01*
X12696529Y-15612360D02*
X12677482Y-15621884D01*
X12677482Y-15621884D02*
X12658434Y-15621884D01*
X12658434Y-15621884D02*
X12639386Y-15612360D01*
X12639386Y-15612360D02*
X12629863Y-15602836D01*
X12629863Y-15602836D02*
X12620339Y-15583789D01*
X12620339Y-15583789D02*
X12610815Y-15545693D01*
X12610815Y-15545693D02*
X12610815Y-15498074D01*
X12610815Y-15498074D02*
X12620339Y-15459979D01*
X12620339Y-15459979D02*
X12629863Y-15440931D01*
X12629863Y-15440931D02*
X12639386Y-15431408D01*
X12639386Y-15431408D02*
X12658434Y-15421884D01*
X12810815Y-15602836D02*
X12820339Y-15612360D01*
X12820339Y-15612360D02*
X12810815Y-15621884D01*
X12810815Y-15621884D02*
X12801291Y-15612360D01*
X12801291Y-15612360D02*
X12810815Y-15602836D01*
X12810815Y-15602836D02*
X12810815Y-15621884D01*
X12944148Y-15421884D02*
X12963196Y-15421884D01*
X12963196Y-15421884D02*
X12982244Y-15431408D01*
X12982244Y-15431408D02*
X12991767Y-15440931D01*
X12991767Y-15440931D02*
X13001291Y-15459979D01*
X13001291Y-15459979D02*
X13010815Y-15498074D01*
X13010815Y-15498074D02*
X13010815Y-15545693D01*
X13010815Y-15545693D02*
X13001291Y-15583789D01*
X13001291Y-15583789D02*
X12991767Y-15602836D01*
X12991767Y-15602836D02*
X12982244Y-15612360D01*
X12982244Y-15612360D02*
X12963196Y-15621884D01*
X12963196Y-15621884D02*
X12944148Y-15621884D01*
X12944148Y-15621884D02*
X12925101Y-15612360D01*
X12925101Y-15612360D02*
X12915577Y-15602836D01*
X12915577Y-15602836D02*
X12906053Y-15583789D01*
X12906053Y-15583789D02*
X12896529Y-15545693D01*
X12896529Y-15545693D02*
X12896529Y-15498074D01*
X12896529Y-15498074D02*
X12906053Y-15459979D01*
X12906053Y-15459979D02*
X12915577Y-15440931D01*
X12915577Y-15440931D02*
X12925101Y-15431408D01*
X12925101Y-15431408D02*
X12944148Y-15421884D01*
X13201291Y-15621884D02*
X13087006Y-15621884D01*
X13144148Y-15621884D02*
X13144148Y-15421884D01*
X13144148Y-15421884D02*
X13125101Y-15450455D01*
X13125101Y-15450455D02*
X13106053Y-15469503D01*
X13106053Y-15469503D02*
X13087006Y-15479027D01*
X13391767Y-15621884D02*
X13277482Y-15621884D01*
X13334625Y-15621884D02*
X13334625Y-15421884D01*
X13334625Y-15421884D02*
X13315577Y-15450455D01*
X13315577Y-15450455D02*
X13296529Y-15469503D01*
X13296529Y-15469503D02*
X13277482Y-15479027D01*
X13506053Y-15507598D02*
X13487006Y-15498074D01*
X13487006Y-15498074D02*
X13477482Y-15488550D01*
X13477482Y-15488550D02*
X13467958Y-15469503D01*
X13467958Y-15469503D02*
X13467958Y-15459979D01*
X13467958Y-15459979D02*
X13477482Y-15440931D01*
X13477482Y-15440931D02*
X13487006Y-15431408D01*
X13487006Y-15431408D02*
X13506053Y-15421884D01*
X13506053Y-15421884D02*
X13544148Y-15421884D01*
X13544148Y-15421884D02*
X13563196Y-15431408D01*
X13563196Y-15431408D02*
X13572720Y-15440931D01*
X13572720Y-15440931D02*
X13582244Y-15459979D01*
X13582244Y-15459979D02*
X13582244Y-15469503D01*
X13582244Y-15469503D02*
X13572720Y-15488550D01*
X13572720Y-15488550D02*
X13563196Y-15498074D01*
X13563196Y-15498074D02*
X13544148Y-15507598D01*
X13544148Y-15507598D02*
X13506053Y-15507598D01*
X13506053Y-15507598D02*
X13487006Y-15517122D01*
X13487006Y-15517122D02*
X13477482Y-15526646D01*
X13477482Y-15526646D02*
X13467958Y-15545693D01*
X13467958Y-15545693D02*
X13467958Y-15583789D01*
X13467958Y-15583789D02*
X13477482Y-15602836D01*
X13477482Y-15602836D02*
X13487006Y-15612360D01*
X13487006Y-15612360D02*
X13506053Y-15621884D01*
X13506053Y-15621884D02*
X13544148Y-15621884D01*
X13544148Y-15621884D02*
X13563196Y-15612360D01*
X13563196Y-15612360D02*
X13572720Y-15602836D01*
X13572720Y-15602836D02*
X13582244Y-15583789D01*
X13582244Y-15583789D02*
X13582244Y-15545693D01*
X13582244Y-15545693D02*
X13572720Y-15526646D01*
X13572720Y-15526646D02*
X13563196Y-15517122D01*
X13563196Y-15517122D02*
X13544148Y-15507598D01*
X13658434Y-15421884D02*
X13658434Y-15459979D01*
X13734625Y-15421884D02*
X13734625Y-15459979D01*
X14029863Y-15698074D02*
X14020339Y-15688550D01*
X14020339Y-15688550D02*
X14001291Y-15659979D01*
X14001291Y-15659979D02*
X13991768Y-15640931D01*
X13991768Y-15640931D02*
X13982244Y-15612360D01*
X13982244Y-15612360D02*
X13972720Y-15564741D01*
X13972720Y-15564741D02*
X13972720Y-15526646D01*
X13972720Y-15526646D02*
X13982244Y-15479027D01*
X13982244Y-15479027D02*
X13991768Y-15450455D01*
X13991768Y-15450455D02*
X14001291Y-15431408D01*
X14001291Y-15431408D02*
X14020339Y-15402836D01*
X14020339Y-15402836D02*
X14029863Y-15393312D01*
X14191768Y-15488550D02*
X14191768Y-15621884D01*
X14144148Y-15412360D02*
X14096529Y-15555217D01*
X14096529Y-15555217D02*
X14220339Y-15555217D01*
X14334625Y-15421884D02*
X14353672Y-15421884D01*
X14353672Y-15421884D02*
X14372720Y-15431408D01*
X14372720Y-15431408D02*
X14382244Y-15440931D01*
X14382244Y-15440931D02*
X14391768Y-15459979D01*
X14391768Y-15459979D02*
X14401291Y-15498074D01*
X14401291Y-15498074D02*
X14401291Y-15545693D01*
X14401291Y-15545693D02*
X14391768Y-15583789D01*
X14391768Y-15583789D02*
X14382244Y-15602836D01*
X14382244Y-15602836D02*
X14372720Y-15612360D01*
X14372720Y-15612360D02*
X14353672Y-15621884D01*
X14353672Y-15621884D02*
X14334625Y-15621884D01*
X14334625Y-15621884D02*
X14315577Y-15612360D01*
X14315577Y-15612360D02*
X14306053Y-15602836D01*
X14306053Y-15602836D02*
X14296529Y-15583789D01*
X14296529Y-15583789D02*
X14287006Y-15545693D01*
X14287006Y-15545693D02*
X14287006Y-15498074D01*
X14287006Y-15498074D02*
X14296529Y-15459979D01*
X14296529Y-15459979D02*
X14306053Y-15440931D01*
X14306053Y-15440931D02*
X14315577Y-15431408D01*
X14315577Y-15431408D02*
X14334625Y-15421884D01*
X14572720Y-15421884D02*
X14534625Y-15421884D01*
X14534625Y-15421884D02*
X14515577Y-15431408D01*
X14515577Y-15431408D02*
X14506053Y-15440931D01*
X14506053Y-15440931D02*
X14487006Y-15469503D01*
X14487006Y-15469503D02*
X14477482Y-15507598D01*
X14477482Y-15507598D02*
X14477482Y-15583789D01*
X14477482Y-15583789D02*
X14487006Y-15602836D01*
X14487006Y-15602836D02*
X14496529Y-15612360D01*
X14496529Y-15612360D02*
X14515577Y-15621884D01*
X14515577Y-15621884D02*
X14553672Y-15621884D01*
X14553672Y-15621884D02*
X14572720Y-15612360D01*
X14572720Y-15612360D02*
X14582244Y-15602836D01*
X14582244Y-15602836D02*
X14591768Y-15583789D01*
X14591768Y-15583789D02*
X14591768Y-15536170D01*
X14591768Y-15536170D02*
X14582244Y-15517122D01*
X14582244Y-15517122D02*
X14572720Y-15507598D01*
X14572720Y-15507598D02*
X14553672Y-15498074D01*
X14553672Y-15498074D02*
X14515577Y-15498074D01*
X14515577Y-15498074D02*
X14496529Y-15507598D01*
X14496529Y-15507598D02*
X14487006Y-15517122D01*
X14487006Y-15517122D02*
X14477482Y-15536170D01*
X14829863Y-15621884D02*
X14829863Y-15421884D01*
X14915577Y-15621884D02*
X14915577Y-15517122D01*
X14915577Y-15517122D02*
X14906053Y-15498074D01*
X14906053Y-15498074D02*
X14887006Y-15488550D01*
X14887006Y-15488550D02*
X14858434Y-15488550D01*
X14858434Y-15488550D02*
X14839387Y-15498074D01*
X14839387Y-15498074D02*
X14829863Y-15507598D01*
X15039387Y-15621884D02*
X15020339Y-15612360D01*
X15020339Y-15612360D02*
X15010815Y-15602836D01*
X15010815Y-15602836D02*
X15001291Y-15583789D01*
X15001291Y-15583789D02*
X15001291Y-15526646D01*
X15001291Y-15526646D02*
X15010815Y-15507598D01*
X15010815Y-15507598D02*
X15020339Y-15498074D01*
X15020339Y-15498074D02*
X15039387Y-15488550D01*
X15039387Y-15488550D02*
X15067958Y-15488550D01*
X15067958Y-15488550D02*
X15087006Y-15498074D01*
X15087006Y-15498074D02*
X15096530Y-15507598D01*
X15096530Y-15507598D02*
X15106053Y-15526646D01*
X15106053Y-15526646D02*
X15106053Y-15583789D01*
X15106053Y-15583789D02*
X15096530Y-15602836D01*
X15096530Y-15602836D02*
X15087006Y-15612360D01*
X15087006Y-15612360D02*
X15067958Y-15621884D01*
X15067958Y-15621884D02*
X15039387Y-15621884D01*
X15220339Y-15621884D02*
X15201291Y-15612360D01*
X15201291Y-15612360D02*
X15191768Y-15593312D01*
X15191768Y-15593312D02*
X15191768Y-15421884D01*
X15372720Y-15612360D02*
X15353672Y-15621884D01*
X15353672Y-15621884D02*
X15315577Y-15621884D01*
X15315577Y-15621884D02*
X15296530Y-15612360D01*
X15296530Y-15612360D02*
X15287006Y-15593312D01*
X15287006Y-15593312D02*
X15287006Y-15517122D01*
X15287006Y-15517122D02*
X15296530Y-15498074D01*
X15296530Y-15498074D02*
X15315577Y-15488550D01*
X15315577Y-15488550D02*
X15353672Y-15488550D01*
X15353672Y-15488550D02*
X15372720Y-15498074D01*
X15372720Y-15498074D02*
X15382244Y-15517122D01*
X15382244Y-15517122D02*
X15382244Y-15536170D01*
X15382244Y-15536170D02*
X15287006Y-15555217D01*
X15458434Y-15612360D02*
X15477482Y-15621884D01*
X15477482Y-15621884D02*
X15515577Y-15621884D01*
X15515577Y-15621884D02*
X15534625Y-15612360D01*
X15534625Y-15612360D02*
X15544149Y-15593312D01*
X15544149Y-15593312D02*
X15544149Y-15583789D01*
X15544149Y-15583789D02*
X15534625Y-15564741D01*
X15534625Y-15564741D02*
X15515577Y-15555217D01*
X15515577Y-15555217D02*
X15487006Y-15555217D01*
X15487006Y-15555217D02*
X15467958Y-15545693D01*
X15467958Y-15545693D02*
X15458434Y-15526646D01*
X15458434Y-15526646D02*
X15458434Y-15517122D01*
X15458434Y-15517122D02*
X15467958Y-15498074D01*
X15467958Y-15498074D02*
X15487006Y-15488550D01*
X15487006Y-15488550D02*
X15515577Y-15488550D01*
X15515577Y-15488550D02*
X15534625Y-15498074D01*
X15610815Y-15698074D02*
X15620339Y-15688550D01*
X15620339Y-15688550D02*
X15639387Y-15659979D01*
X15639387Y-15659979D02*
X15648911Y-15640931D01*
X15648911Y-15640931D02*
X15658434Y-15612360D01*
X15658434Y-15612360D02*
X15667958Y-15564741D01*
X15667958Y-15564741D02*
X15667958Y-15526646D01*
X15667958Y-15526646D02*
X15658434Y-15479027D01*
X15658434Y-15479027D02*
X15648911Y-15450455D01*
X15648911Y-15450455D02*
X15639387Y-15431408D01*
X15639387Y-15431408D02*
X15620339Y-15402836D01*
X15620339Y-15402836D02*
X15610815Y-15393312D01*
D12*
X10454800Y-15794400D02*
G75*
G02*
X10414800Y-15794400I-20000J0D01*
G01*
X10414800Y-15794400D02*
G75*
G02*
X10454800Y-15794400I20000J0D01*
G01*
D10*
X10753672Y-15685884D02*
X10772720Y-15685884D01*
X10772720Y-15685884D02*
X10791767Y-15695408D01*
X10791767Y-15695408D02*
X10801291Y-15704931D01*
X10801291Y-15704931D02*
X10810815Y-15723979D01*
X10810815Y-15723979D02*
X10820339Y-15762074D01*
X10820339Y-15762074D02*
X10820339Y-15809693D01*
X10820339Y-15809693D02*
X10810815Y-15847789D01*
X10810815Y-15847789D02*
X10801291Y-15866836D01*
X10801291Y-15866836D02*
X10791767Y-15876360D01*
X10791767Y-15876360D02*
X10772720Y-15885884D01*
X10772720Y-15885884D02*
X10753672Y-15885884D01*
X10753672Y-15885884D02*
X10734624Y-15876360D01*
X10734624Y-15876360D02*
X10725101Y-15866836D01*
X10725101Y-15866836D02*
X10715577Y-15847789D01*
X10715577Y-15847789D02*
X10706053Y-15809693D01*
X10706053Y-15809693D02*
X10706053Y-15762074D01*
X10706053Y-15762074D02*
X10715577Y-15723979D01*
X10715577Y-15723979D02*
X10725101Y-15704931D01*
X10725101Y-15704931D02*
X10734624Y-15695408D01*
X10734624Y-15695408D02*
X10753672Y-15685884D01*
X10906053Y-15866836D02*
X10915577Y-15876360D01*
X10915577Y-15876360D02*
X10906053Y-15885884D01*
X10906053Y-15885884D02*
X10896529Y-15876360D01*
X10896529Y-15876360D02*
X10906053Y-15866836D01*
X10906053Y-15866836D02*
X10906053Y-15885884D01*
X11087005Y-15752550D02*
X11087005Y-15885884D01*
X11039386Y-15676360D02*
X10991767Y-15819217D01*
X10991767Y-15819217D02*
X11115577Y-15819217D01*
X11229862Y-15685884D02*
X11248910Y-15685884D01*
X11248910Y-15685884D02*
X11267958Y-15695408D01*
X11267958Y-15695408D02*
X11277482Y-15704931D01*
X11277482Y-15704931D02*
X11287005Y-15723979D01*
X11287005Y-15723979D02*
X11296529Y-15762074D01*
X11296529Y-15762074D02*
X11296529Y-15809693D01*
X11296529Y-15809693D02*
X11287005Y-15847789D01*
X11287005Y-15847789D02*
X11277482Y-15866836D01*
X11277482Y-15866836D02*
X11267958Y-15876360D01*
X11267958Y-15876360D02*
X11248910Y-15885884D01*
X11248910Y-15885884D02*
X11229862Y-15885884D01*
X11229862Y-15885884D02*
X11210815Y-15876360D01*
X11210815Y-15876360D02*
X11201291Y-15866836D01*
X11201291Y-15866836D02*
X11191767Y-15847789D01*
X11191767Y-15847789D02*
X11182244Y-15809693D01*
X11182244Y-15809693D02*
X11182244Y-15762074D01*
X11182244Y-15762074D02*
X11191767Y-15723979D01*
X11191767Y-15723979D02*
X11201291Y-15704931D01*
X11201291Y-15704931D02*
X11210815Y-15695408D01*
X11210815Y-15695408D02*
X11229862Y-15685884D01*
X11420339Y-15685884D02*
X11439386Y-15685884D01*
X11439386Y-15685884D02*
X11458434Y-15695408D01*
X11458434Y-15695408D02*
X11467958Y-15704931D01*
X11467958Y-15704931D02*
X11477482Y-15723979D01*
X11477482Y-15723979D02*
X11487005Y-15762074D01*
X11487005Y-15762074D02*
X11487005Y-15809693D01*
X11487005Y-15809693D02*
X11477482Y-15847789D01*
X11477482Y-15847789D02*
X11467958Y-15866836D01*
X11467958Y-15866836D02*
X11458434Y-15876360D01*
X11458434Y-15876360D02*
X11439386Y-15885884D01*
X11439386Y-15885884D02*
X11420339Y-15885884D01*
X11420339Y-15885884D02*
X11401291Y-15876360D01*
X11401291Y-15876360D02*
X11391767Y-15866836D01*
X11391767Y-15866836D02*
X11382243Y-15847789D01*
X11382243Y-15847789D02*
X11372720Y-15809693D01*
X11372720Y-15809693D02*
X11372720Y-15762074D01*
X11372720Y-15762074D02*
X11382243Y-15723979D01*
X11382243Y-15723979D02*
X11391767Y-15704931D01*
X11391767Y-15704931D02*
X11401291Y-15695408D01*
X11401291Y-15695408D02*
X11420339Y-15685884D01*
X11572720Y-15885884D02*
X11572720Y-15752550D01*
X11572720Y-15771598D02*
X11582243Y-15762074D01*
X11582243Y-15762074D02*
X11601291Y-15752550D01*
X11601291Y-15752550D02*
X11629863Y-15752550D01*
X11629863Y-15752550D02*
X11648910Y-15762074D01*
X11648910Y-15762074D02*
X11658434Y-15781122D01*
X11658434Y-15781122D02*
X11658434Y-15885884D01*
X11658434Y-15781122D02*
X11667958Y-15762074D01*
X11667958Y-15762074D02*
X11687005Y-15752550D01*
X11687005Y-15752550D02*
X11715577Y-15752550D01*
X11715577Y-15752550D02*
X11734624Y-15762074D01*
X11734624Y-15762074D02*
X11744148Y-15781122D01*
X11744148Y-15781122D02*
X11744148Y-15885884D01*
X11839386Y-15885884D02*
X11839386Y-15752550D01*
X11839386Y-15771598D02*
X11848910Y-15762074D01*
X11848910Y-15762074D02*
X11867958Y-15752550D01*
X11867958Y-15752550D02*
X11896529Y-15752550D01*
X11896529Y-15752550D02*
X11915577Y-15762074D01*
X11915577Y-15762074D02*
X11925101Y-15781122D01*
X11925101Y-15781122D02*
X11925101Y-15885884D01*
X11925101Y-15781122D02*
X11934624Y-15762074D01*
X11934624Y-15762074D02*
X11953672Y-15752550D01*
X11953672Y-15752550D02*
X11982243Y-15752550D01*
X11982243Y-15752550D02*
X12001291Y-15762074D01*
X12001291Y-15762074D02*
X12010815Y-15781122D01*
X12010815Y-15781122D02*
X12010815Y-15885884D01*
X12401291Y-15676360D02*
X12229863Y-15933503D01*
X12658434Y-15685884D02*
X12677482Y-15685884D01*
X12677482Y-15685884D02*
X12696529Y-15695408D01*
X12696529Y-15695408D02*
X12706053Y-15704931D01*
X12706053Y-15704931D02*
X12715577Y-15723979D01*
X12715577Y-15723979D02*
X12725101Y-15762074D01*
X12725101Y-15762074D02*
X12725101Y-15809693D01*
X12725101Y-15809693D02*
X12715577Y-15847789D01*
X12715577Y-15847789D02*
X12706053Y-15866836D01*
X12706053Y-15866836D02*
X12696529Y-15876360D01*
X12696529Y-15876360D02*
X12677482Y-15885884D01*
X12677482Y-15885884D02*
X12658434Y-15885884D01*
X12658434Y-15885884D02*
X12639386Y-15876360D01*
X12639386Y-15876360D02*
X12629863Y-15866836D01*
X12629863Y-15866836D02*
X12620339Y-15847789D01*
X12620339Y-15847789D02*
X12610815Y-15809693D01*
X12610815Y-15809693D02*
X12610815Y-15762074D01*
X12610815Y-15762074D02*
X12620339Y-15723979D01*
X12620339Y-15723979D02*
X12629863Y-15704931D01*
X12629863Y-15704931D02*
X12639386Y-15695408D01*
X12639386Y-15695408D02*
X12658434Y-15685884D01*
X12810815Y-15866836D02*
X12820339Y-15876360D01*
X12820339Y-15876360D02*
X12810815Y-15885884D01*
X12810815Y-15885884D02*
X12801291Y-15876360D01*
X12801291Y-15876360D02*
X12810815Y-15866836D01*
X12810815Y-15866836D02*
X12810815Y-15885884D01*
X12944148Y-15685884D02*
X12963196Y-15685884D01*
X12963196Y-15685884D02*
X12982244Y-15695408D01*
X12982244Y-15695408D02*
X12991767Y-15704931D01*
X12991767Y-15704931D02*
X13001291Y-15723979D01*
X13001291Y-15723979D02*
X13010815Y-15762074D01*
X13010815Y-15762074D02*
X13010815Y-15809693D01*
X13010815Y-15809693D02*
X13001291Y-15847789D01*
X13001291Y-15847789D02*
X12991767Y-15866836D01*
X12991767Y-15866836D02*
X12982244Y-15876360D01*
X12982244Y-15876360D02*
X12963196Y-15885884D01*
X12963196Y-15885884D02*
X12944148Y-15885884D01*
X12944148Y-15885884D02*
X12925101Y-15876360D01*
X12925101Y-15876360D02*
X12915577Y-15866836D01*
X12915577Y-15866836D02*
X12906053Y-15847789D01*
X12906053Y-15847789D02*
X12896529Y-15809693D01*
X12896529Y-15809693D02*
X12896529Y-15762074D01*
X12896529Y-15762074D02*
X12906053Y-15723979D01*
X12906053Y-15723979D02*
X12915577Y-15704931D01*
X12915577Y-15704931D02*
X12925101Y-15695408D01*
X12925101Y-15695408D02*
X12944148Y-15685884D01*
X13201291Y-15885884D02*
X13087006Y-15885884D01*
X13144148Y-15885884D02*
X13144148Y-15685884D01*
X13144148Y-15685884D02*
X13125101Y-15714455D01*
X13125101Y-15714455D02*
X13106053Y-15733503D01*
X13106053Y-15733503D02*
X13087006Y-15743027D01*
X13382244Y-15685884D02*
X13287006Y-15685884D01*
X13287006Y-15685884D02*
X13277482Y-15781122D01*
X13277482Y-15781122D02*
X13287006Y-15771598D01*
X13287006Y-15771598D02*
X13306053Y-15762074D01*
X13306053Y-15762074D02*
X13353672Y-15762074D01*
X13353672Y-15762074D02*
X13372720Y-15771598D01*
X13372720Y-15771598D02*
X13382244Y-15781122D01*
X13382244Y-15781122D02*
X13391767Y-15800170D01*
X13391767Y-15800170D02*
X13391767Y-15847789D01*
X13391767Y-15847789D02*
X13382244Y-15866836D01*
X13382244Y-15866836D02*
X13372720Y-15876360D01*
X13372720Y-15876360D02*
X13353672Y-15885884D01*
X13353672Y-15885884D02*
X13306053Y-15885884D01*
X13306053Y-15885884D02*
X13287006Y-15876360D01*
X13287006Y-15876360D02*
X13277482Y-15866836D01*
X13458434Y-15685884D02*
X13591767Y-15685884D01*
X13591767Y-15685884D02*
X13506053Y-15885884D01*
X13658434Y-15685884D02*
X13658434Y-15723979D01*
X13734625Y-15685884D02*
X13734625Y-15723979D01*
X14029863Y-15962074D02*
X14020339Y-15952550D01*
X14020339Y-15952550D02*
X14001291Y-15923979D01*
X14001291Y-15923979D02*
X13991768Y-15904931D01*
X13991768Y-15904931D02*
X13982244Y-15876360D01*
X13982244Y-15876360D02*
X13972720Y-15828741D01*
X13972720Y-15828741D02*
X13972720Y-15790646D01*
X13972720Y-15790646D02*
X13982244Y-15743027D01*
X13982244Y-15743027D02*
X13991768Y-15714455D01*
X13991768Y-15714455D02*
X14001291Y-15695408D01*
X14001291Y-15695408D02*
X14020339Y-15666836D01*
X14020339Y-15666836D02*
X14029863Y-15657312D01*
X14210815Y-15885884D02*
X14096529Y-15885884D01*
X14153672Y-15885884D02*
X14153672Y-15685884D01*
X14153672Y-15685884D02*
X14134625Y-15714455D01*
X14134625Y-15714455D02*
X14115577Y-15733503D01*
X14115577Y-15733503D02*
X14096529Y-15743027D01*
X14277482Y-15685884D02*
X14410815Y-15685884D01*
X14410815Y-15685884D02*
X14325101Y-15885884D01*
X14639387Y-15885884D02*
X14639387Y-15685884D01*
X14725101Y-15885884D02*
X14725101Y-15781122D01*
X14725101Y-15781122D02*
X14715577Y-15762074D01*
X14715577Y-15762074D02*
X14696530Y-15752550D01*
X14696530Y-15752550D02*
X14667958Y-15752550D01*
X14667958Y-15752550D02*
X14648910Y-15762074D01*
X14648910Y-15762074D02*
X14639387Y-15771598D01*
X14848910Y-15885884D02*
X14829863Y-15876360D01*
X14829863Y-15876360D02*
X14820339Y-15866836D01*
X14820339Y-15866836D02*
X14810815Y-15847789D01*
X14810815Y-15847789D02*
X14810815Y-15790646D01*
X14810815Y-15790646D02*
X14820339Y-15771598D01*
X14820339Y-15771598D02*
X14829863Y-15762074D01*
X14829863Y-15762074D02*
X14848910Y-15752550D01*
X14848910Y-15752550D02*
X14877482Y-15752550D01*
X14877482Y-15752550D02*
X14896530Y-15762074D01*
X14896530Y-15762074D02*
X14906053Y-15771598D01*
X14906053Y-15771598D02*
X14915577Y-15790646D01*
X14915577Y-15790646D02*
X14915577Y-15847789D01*
X14915577Y-15847789D02*
X14906053Y-15866836D01*
X14906053Y-15866836D02*
X14896530Y-15876360D01*
X14896530Y-15876360D02*
X14877482Y-15885884D01*
X14877482Y-15885884D02*
X14848910Y-15885884D01*
X15029863Y-15885884D02*
X15010815Y-15876360D01*
X15010815Y-15876360D02*
X15001291Y-15857312D01*
X15001291Y-15857312D02*
X15001291Y-15685884D01*
X15182244Y-15876360D02*
X15163196Y-15885884D01*
X15163196Y-15885884D02*
X15125101Y-15885884D01*
X15125101Y-15885884D02*
X15106053Y-15876360D01*
X15106053Y-15876360D02*
X15096530Y-15857312D01*
X15096530Y-15857312D02*
X15096530Y-15781122D01*
X15096530Y-15781122D02*
X15106053Y-15762074D01*
X15106053Y-15762074D02*
X15125101Y-15752550D01*
X15125101Y-15752550D02*
X15163196Y-15752550D01*
X15163196Y-15752550D02*
X15182244Y-15762074D01*
X15182244Y-15762074D02*
X15191768Y-15781122D01*
X15191768Y-15781122D02*
X15191768Y-15800170D01*
X15191768Y-15800170D02*
X15096530Y-15819217D01*
X15267958Y-15876360D02*
X15287006Y-15885884D01*
X15287006Y-15885884D02*
X15325101Y-15885884D01*
X15325101Y-15885884D02*
X15344149Y-15876360D01*
X15344149Y-15876360D02*
X15353672Y-15857312D01*
X15353672Y-15857312D02*
X15353672Y-15847789D01*
X15353672Y-15847789D02*
X15344149Y-15828741D01*
X15344149Y-15828741D02*
X15325101Y-15819217D01*
X15325101Y-15819217D02*
X15296530Y-15819217D01*
X15296530Y-15819217D02*
X15277482Y-15809693D01*
X15277482Y-15809693D02*
X15267958Y-15790646D01*
X15267958Y-15790646D02*
X15267958Y-15781122D01*
X15267958Y-15781122D02*
X15277482Y-15762074D01*
X15277482Y-15762074D02*
X15296530Y-15752550D01*
X15296530Y-15752550D02*
X15325101Y-15752550D01*
X15325101Y-15752550D02*
X15344149Y-15762074D01*
X15420339Y-15962074D02*
X15429863Y-15952550D01*
X15429863Y-15952550D02*
X15448911Y-15923979D01*
X15448911Y-15923979D02*
X15458434Y-15904931D01*
X15458434Y-15904931D02*
X15467958Y-15876360D01*
X15467958Y-15876360D02*
X15477482Y-15828741D01*
X15477482Y-15828741D02*
X15477482Y-15790646D01*
X15477482Y-15790646D02*
X15467958Y-15743027D01*
X15467958Y-15743027D02*
X15458434Y-15714455D01*
X15458434Y-15714455D02*
X15448911Y-15695408D01*
X15448911Y-15695408D02*
X15429863Y-15666836D01*
X15429863Y-15666836D02*
X15420339Y-15657312D01*
D12*
X10429800Y-16033400D02*
X10429800Y-16083400D01*
X10404800Y-16058400D02*
X10454800Y-16058400D01*
D10*
X10753672Y-15949884D02*
X10772720Y-15949884D01*
X10772720Y-15949884D02*
X10791767Y-15959408D01*
X10791767Y-15959408D02*
X10801291Y-15968931D01*
X10801291Y-15968931D02*
X10810815Y-15987979D01*
X10810815Y-15987979D02*
X10820339Y-16026074D01*
X10820339Y-16026074D02*
X10820339Y-16073693D01*
X10820339Y-16073693D02*
X10810815Y-16111789D01*
X10810815Y-16111789D02*
X10801291Y-16130836D01*
X10801291Y-16130836D02*
X10791767Y-16140360D01*
X10791767Y-16140360D02*
X10772720Y-16149884D01*
X10772720Y-16149884D02*
X10753672Y-16149884D01*
X10753672Y-16149884D02*
X10734624Y-16140360D01*
X10734624Y-16140360D02*
X10725101Y-16130836D01*
X10725101Y-16130836D02*
X10715577Y-16111789D01*
X10715577Y-16111789D02*
X10706053Y-16073693D01*
X10706053Y-16073693D02*
X10706053Y-16026074D01*
X10706053Y-16026074D02*
X10715577Y-15987979D01*
X10715577Y-15987979D02*
X10725101Y-15968931D01*
X10725101Y-15968931D02*
X10734624Y-15959408D01*
X10734624Y-15959408D02*
X10753672Y-15949884D01*
X10906053Y-16130836D02*
X10915577Y-16140360D01*
X10915577Y-16140360D02*
X10906053Y-16149884D01*
X10906053Y-16149884D02*
X10896529Y-16140360D01*
X10896529Y-16140360D02*
X10906053Y-16130836D01*
X10906053Y-16130836D02*
X10906053Y-16149884D01*
X11096529Y-15949884D02*
X11001291Y-15949884D01*
X11001291Y-15949884D02*
X10991767Y-16045122D01*
X10991767Y-16045122D02*
X11001291Y-16035598D01*
X11001291Y-16035598D02*
X11020339Y-16026074D01*
X11020339Y-16026074D02*
X11067958Y-16026074D01*
X11067958Y-16026074D02*
X11087005Y-16035598D01*
X11087005Y-16035598D02*
X11096529Y-16045122D01*
X11096529Y-16045122D02*
X11106053Y-16064170D01*
X11106053Y-16064170D02*
X11106053Y-16111789D01*
X11106053Y-16111789D02*
X11096529Y-16130836D01*
X11096529Y-16130836D02*
X11087005Y-16140360D01*
X11087005Y-16140360D02*
X11067958Y-16149884D01*
X11067958Y-16149884D02*
X11020339Y-16149884D01*
X11020339Y-16149884D02*
X11001291Y-16140360D01*
X11001291Y-16140360D02*
X10991767Y-16130836D01*
X11229862Y-15949884D02*
X11248910Y-15949884D01*
X11248910Y-15949884D02*
X11267958Y-15959408D01*
X11267958Y-15959408D02*
X11277482Y-15968931D01*
X11277482Y-15968931D02*
X11287005Y-15987979D01*
X11287005Y-15987979D02*
X11296529Y-16026074D01*
X11296529Y-16026074D02*
X11296529Y-16073693D01*
X11296529Y-16073693D02*
X11287005Y-16111789D01*
X11287005Y-16111789D02*
X11277482Y-16130836D01*
X11277482Y-16130836D02*
X11267958Y-16140360D01*
X11267958Y-16140360D02*
X11248910Y-16149884D01*
X11248910Y-16149884D02*
X11229862Y-16149884D01*
X11229862Y-16149884D02*
X11210815Y-16140360D01*
X11210815Y-16140360D02*
X11201291Y-16130836D01*
X11201291Y-16130836D02*
X11191767Y-16111789D01*
X11191767Y-16111789D02*
X11182244Y-16073693D01*
X11182244Y-16073693D02*
X11182244Y-16026074D01*
X11182244Y-16026074D02*
X11191767Y-15987979D01*
X11191767Y-15987979D02*
X11201291Y-15968931D01*
X11201291Y-15968931D02*
X11210815Y-15959408D01*
X11210815Y-15959408D02*
X11229862Y-15949884D01*
X11420339Y-15949884D02*
X11439386Y-15949884D01*
X11439386Y-15949884D02*
X11458434Y-15959408D01*
X11458434Y-15959408D02*
X11467958Y-15968931D01*
X11467958Y-15968931D02*
X11477482Y-15987979D01*
X11477482Y-15987979D02*
X11487005Y-16026074D01*
X11487005Y-16026074D02*
X11487005Y-16073693D01*
X11487005Y-16073693D02*
X11477482Y-16111789D01*
X11477482Y-16111789D02*
X11467958Y-16130836D01*
X11467958Y-16130836D02*
X11458434Y-16140360D01*
X11458434Y-16140360D02*
X11439386Y-16149884D01*
X11439386Y-16149884D02*
X11420339Y-16149884D01*
X11420339Y-16149884D02*
X11401291Y-16140360D01*
X11401291Y-16140360D02*
X11391767Y-16130836D01*
X11391767Y-16130836D02*
X11382243Y-16111789D01*
X11382243Y-16111789D02*
X11372720Y-16073693D01*
X11372720Y-16073693D02*
X11372720Y-16026074D01*
X11372720Y-16026074D02*
X11382243Y-15987979D01*
X11382243Y-15987979D02*
X11391767Y-15968931D01*
X11391767Y-15968931D02*
X11401291Y-15959408D01*
X11401291Y-15959408D02*
X11420339Y-15949884D01*
X11572720Y-16149884D02*
X11572720Y-16016550D01*
X11572720Y-16035598D02*
X11582243Y-16026074D01*
X11582243Y-16026074D02*
X11601291Y-16016550D01*
X11601291Y-16016550D02*
X11629863Y-16016550D01*
X11629863Y-16016550D02*
X11648910Y-16026074D01*
X11648910Y-16026074D02*
X11658434Y-16045122D01*
X11658434Y-16045122D02*
X11658434Y-16149884D01*
X11658434Y-16045122D02*
X11667958Y-16026074D01*
X11667958Y-16026074D02*
X11687005Y-16016550D01*
X11687005Y-16016550D02*
X11715577Y-16016550D01*
X11715577Y-16016550D02*
X11734624Y-16026074D01*
X11734624Y-16026074D02*
X11744148Y-16045122D01*
X11744148Y-16045122D02*
X11744148Y-16149884D01*
X11839386Y-16149884D02*
X11839386Y-16016550D01*
X11839386Y-16035598D02*
X11848910Y-16026074D01*
X11848910Y-16026074D02*
X11867958Y-16016550D01*
X11867958Y-16016550D02*
X11896529Y-16016550D01*
X11896529Y-16016550D02*
X11915577Y-16026074D01*
X11915577Y-16026074D02*
X11925101Y-16045122D01*
X11925101Y-16045122D02*
X11925101Y-16149884D01*
X11925101Y-16045122D02*
X11934624Y-16026074D01*
X11934624Y-16026074D02*
X11953672Y-16016550D01*
X11953672Y-16016550D02*
X11982243Y-16016550D01*
X11982243Y-16016550D02*
X12001291Y-16026074D01*
X12001291Y-16026074D02*
X12010815Y-16045122D01*
X12010815Y-16045122D02*
X12010815Y-16149884D01*
X12401291Y-15940360D02*
X12229863Y-16197503D01*
X12658434Y-15949884D02*
X12677482Y-15949884D01*
X12677482Y-15949884D02*
X12696529Y-15959408D01*
X12696529Y-15959408D02*
X12706053Y-15968931D01*
X12706053Y-15968931D02*
X12715577Y-15987979D01*
X12715577Y-15987979D02*
X12725101Y-16026074D01*
X12725101Y-16026074D02*
X12725101Y-16073693D01*
X12725101Y-16073693D02*
X12715577Y-16111789D01*
X12715577Y-16111789D02*
X12706053Y-16130836D01*
X12706053Y-16130836D02*
X12696529Y-16140360D01*
X12696529Y-16140360D02*
X12677482Y-16149884D01*
X12677482Y-16149884D02*
X12658434Y-16149884D01*
X12658434Y-16149884D02*
X12639386Y-16140360D01*
X12639386Y-16140360D02*
X12629863Y-16130836D01*
X12629863Y-16130836D02*
X12620339Y-16111789D01*
X12620339Y-16111789D02*
X12610815Y-16073693D01*
X12610815Y-16073693D02*
X12610815Y-16026074D01*
X12610815Y-16026074D02*
X12620339Y-15987979D01*
X12620339Y-15987979D02*
X12629863Y-15968931D01*
X12629863Y-15968931D02*
X12639386Y-15959408D01*
X12639386Y-15959408D02*
X12658434Y-15949884D01*
X12810815Y-16130836D02*
X12820339Y-16140360D01*
X12820339Y-16140360D02*
X12810815Y-16149884D01*
X12810815Y-16149884D02*
X12801291Y-16140360D01*
X12801291Y-16140360D02*
X12810815Y-16130836D01*
X12810815Y-16130836D02*
X12810815Y-16149884D01*
X12944148Y-15949884D02*
X12963196Y-15949884D01*
X12963196Y-15949884D02*
X12982244Y-15959408D01*
X12982244Y-15959408D02*
X12991767Y-15968931D01*
X12991767Y-15968931D02*
X13001291Y-15987979D01*
X13001291Y-15987979D02*
X13010815Y-16026074D01*
X13010815Y-16026074D02*
X13010815Y-16073693D01*
X13010815Y-16073693D02*
X13001291Y-16111789D01*
X13001291Y-16111789D02*
X12991767Y-16130836D01*
X12991767Y-16130836D02*
X12982244Y-16140360D01*
X12982244Y-16140360D02*
X12963196Y-16149884D01*
X12963196Y-16149884D02*
X12944148Y-16149884D01*
X12944148Y-16149884D02*
X12925101Y-16140360D01*
X12925101Y-16140360D02*
X12915577Y-16130836D01*
X12915577Y-16130836D02*
X12906053Y-16111789D01*
X12906053Y-16111789D02*
X12896529Y-16073693D01*
X12896529Y-16073693D02*
X12896529Y-16026074D01*
X12896529Y-16026074D02*
X12906053Y-15987979D01*
X12906053Y-15987979D02*
X12915577Y-15968931D01*
X12915577Y-15968931D02*
X12925101Y-15959408D01*
X12925101Y-15959408D02*
X12944148Y-15949884D01*
X13201291Y-16149884D02*
X13087006Y-16149884D01*
X13144148Y-16149884D02*
X13144148Y-15949884D01*
X13144148Y-15949884D02*
X13125101Y-15978455D01*
X13125101Y-15978455D02*
X13106053Y-15997503D01*
X13106053Y-15997503D02*
X13087006Y-16007027D01*
X13296529Y-16149884D02*
X13334625Y-16149884D01*
X13334625Y-16149884D02*
X13353672Y-16140360D01*
X13353672Y-16140360D02*
X13363196Y-16130836D01*
X13363196Y-16130836D02*
X13382244Y-16102265D01*
X13382244Y-16102265D02*
X13391767Y-16064170D01*
X13391767Y-16064170D02*
X13391767Y-15987979D01*
X13391767Y-15987979D02*
X13382244Y-15968931D01*
X13382244Y-15968931D02*
X13372720Y-15959408D01*
X13372720Y-15959408D02*
X13353672Y-15949884D01*
X13353672Y-15949884D02*
X13315577Y-15949884D01*
X13315577Y-15949884D02*
X13296529Y-15959408D01*
X13296529Y-15959408D02*
X13287006Y-15968931D01*
X13287006Y-15968931D02*
X13277482Y-15987979D01*
X13277482Y-15987979D02*
X13277482Y-16035598D01*
X13277482Y-16035598D02*
X13287006Y-16054646D01*
X13287006Y-16054646D02*
X13296529Y-16064170D01*
X13296529Y-16064170D02*
X13315577Y-16073693D01*
X13315577Y-16073693D02*
X13353672Y-16073693D01*
X13353672Y-16073693D02*
X13372720Y-16064170D01*
X13372720Y-16064170D02*
X13382244Y-16054646D01*
X13382244Y-16054646D02*
X13391767Y-16035598D01*
X13458434Y-15949884D02*
X13591767Y-15949884D01*
X13591767Y-15949884D02*
X13506053Y-16149884D01*
X13658434Y-15949884D02*
X13658434Y-15987979D01*
X13734625Y-15949884D02*
X13734625Y-15987979D01*
X14029863Y-16226074D02*
X14020339Y-16216550D01*
X14020339Y-16216550D02*
X14001291Y-16187979D01*
X14001291Y-16187979D02*
X13991768Y-16168931D01*
X13991768Y-16168931D02*
X13982244Y-16140360D01*
X13982244Y-16140360D02*
X13972720Y-16092741D01*
X13972720Y-16092741D02*
X13972720Y-16054646D01*
X13972720Y-16054646D02*
X13982244Y-16007027D01*
X13982244Y-16007027D02*
X13991768Y-15978455D01*
X13991768Y-15978455D02*
X14001291Y-15959408D01*
X14001291Y-15959408D02*
X14020339Y-15930836D01*
X14020339Y-15930836D02*
X14029863Y-15921312D01*
X14210815Y-16149884D02*
X14096529Y-16149884D01*
X14153672Y-16149884D02*
X14153672Y-15949884D01*
X14153672Y-15949884D02*
X14134625Y-15978455D01*
X14134625Y-15978455D02*
X14115577Y-15997503D01*
X14115577Y-15997503D02*
X14096529Y-16007027D01*
X14448910Y-16149884D02*
X14448910Y-15949884D01*
X14534625Y-16149884D02*
X14534625Y-16045122D01*
X14534625Y-16045122D02*
X14525101Y-16026074D01*
X14525101Y-16026074D02*
X14506053Y-16016550D01*
X14506053Y-16016550D02*
X14477482Y-16016550D01*
X14477482Y-16016550D02*
X14458434Y-16026074D01*
X14458434Y-16026074D02*
X14448910Y-16035598D01*
X14658434Y-16149884D02*
X14639387Y-16140360D01*
X14639387Y-16140360D02*
X14629863Y-16130836D01*
X14629863Y-16130836D02*
X14620339Y-16111789D01*
X14620339Y-16111789D02*
X14620339Y-16054646D01*
X14620339Y-16054646D02*
X14629863Y-16035598D01*
X14629863Y-16035598D02*
X14639387Y-16026074D01*
X14639387Y-16026074D02*
X14658434Y-16016550D01*
X14658434Y-16016550D02*
X14687006Y-16016550D01*
X14687006Y-16016550D02*
X14706053Y-16026074D01*
X14706053Y-16026074D02*
X14715577Y-16035598D01*
X14715577Y-16035598D02*
X14725101Y-16054646D01*
X14725101Y-16054646D02*
X14725101Y-16111789D01*
X14725101Y-16111789D02*
X14715577Y-16130836D01*
X14715577Y-16130836D02*
X14706053Y-16140360D01*
X14706053Y-16140360D02*
X14687006Y-16149884D01*
X14687006Y-16149884D02*
X14658434Y-16149884D01*
X14839387Y-16149884D02*
X14820339Y-16140360D01*
X14820339Y-16140360D02*
X14810815Y-16121312D01*
X14810815Y-16121312D02*
X14810815Y-15949884D01*
X14991768Y-16140360D02*
X14972720Y-16149884D01*
X14972720Y-16149884D02*
X14934625Y-16149884D01*
X14934625Y-16149884D02*
X14915577Y-16140360D01*
X14915577Y-16140360D02*
X14906053Y-16121312D01*
X14906053Y-16121312D02*
X14906053Y-16045122D01*
X14906053Y-16045122D02*
X14915577Y-16026074D01*
X14915577Y-16026074D02*
X14934625Y-16016550D01*
X14934625Y-16016550D02*
X14972720Y-16016550D01*
X14972720Y-16016550D02*
X14991768Y-16026074D01*
X14991768Y-16026074D02*
X15001291Y-16045122D01*
X15001291Y-16045122D02*
X15001291Y-16064170D01*
X15001291Y-16064170D02*
X14906053Y-16083217D01*
X15067958Y-16226074D02*
X15077482Y-16216550D01*
X15077482Y-16216550D02*
X15096530Y-16187979D01*
X15096530Y-16187979D02*
X15106053Y-16168931D01*
X15106053Y-16168931D02*
X15115577Y-16140360D01*
X15115577Y-16140360D02*
X15125101Y-16092741D01*
X15125101Y-16092741D02*
X15125101Y-16054646D01*
X15125101Y-16054646D02*
X15115577Y-16007027D01*
X15115577Y-16007027D02*
X15106053Y-15978455D01*
X15106053Y-15978455D02*
X15096530Y-15959408D01*
X15096530Y-15959408D02*
X15077482Y-15930836D01*
X15077482Y-15930836D02*
X15067958Y-15921312D01*
D12*
X10443085Y-16350685D02*
X10443085Y-16294116D01*
X10386516Y-16294116D01*
X10386516Y-16350685D01*
X10443085Y-16350685D01*
D10*
X10753672Y-16213884D02*
X10772720Y-16213884D01*
X10772720Y-16213884D02*
X10791767Y-16223408D01*
X10791767Y-16223408D02*
X10801291Y-16232931D01*
X10801291Y-16232931D02*
X10810815Y-16251979D01*
X10810815Y-16251979D02*
X10820339Y-16290074D01*
X10820339Y-16290074D02*
X10820339Y-16337693D01*
X10820339Y-16337693D02*
X10810815Y-16375789D01*
X10810815Y-16375789D02*
X10801291Y-16394836D01*
X10801291Y-16394836D02*
X10791767Y-16404360D01*
X10791767Y-16404360D02*
X10772720Y-16413884D01*
X10772720Y-16413884D02*
X10753672Y-16413884D01*
X10753672Y-16413884D02*
X10734624Y-16404360D01*
X10734624Y-16404360D02*
X10725101Y-16394836D01*
X10725101Y-16394836D02*
X10715577Y-16375789D01*
X10715577Y-16375789D02*
X10706053Y-16337693D01*
X10706053Y-16337693D02*
X10706053Y-16290074D01*
X10706053Y-16290074D02*
X10715577Y-16251979D01*
X10715577Y-16251979D02*
X10725101Y-16232931D01*
X10725101Y-16232931D02*
X10734624Y-16223408D01*
X10734624Y-16223408D02*
X10753672Y-16213884D01*
X10906053Y-16394836D02*
X10915577Y-16404360D01*
X10915577Y-16404360D02*
X10906053Y-16413884D01*
X10906053Y-16413884D02*
X10896529Y-16404360D01*
X10896529Y-16404360D02*
X10906053Y-16394836D01*
X10906053Y-16394836D02*
X10906053Y-16413884D01*
X11029863Y-16299598D02*
X11010815Y-16290074D01*
X11010815Y-16290074D02*
X11001291Y-16280550D01*
X11001291Y-16280550D02*
X10991767Y-16261503D01*
X10991767Y-16261503D02*
X10991767Y-16251979D01*
X10991767Y-16251979D02*
X11001291Y-16232931D01*
X11001291Y-16232931D02*
X11010815Y-16223408D01*
X11010815Y-16223408D02*
X11029863Y-16213884D01*
X11029863Y-16213884D02*
X11067958Y-16213884D01*
X11067958Y-16213884D02*
X11087005Y-16223408D01*
X11087005Y-16223408D02*
X11096529Y-16232931D01*
X11096529Y-16232931D02*
X11106053Y-16251979D01*
X11106053Y-16251979D02*
X11106053Y-16261503D01*
X11106053Y-16261503D02*
X11096529Y-16280550D01*
X11096529Y-16280550D02*
X11087005Y-16290074D01*
X11087005Y-16290074D02*
X11067958Y-16299598D01*
X11067958Y-16299598D02*
X11029863Y-16299598D01*
X11029863Y-16299598D02*
X11010815Y-16309122D01*
X11010815Y-16309122D02*
X11001291Y-16318646D01*
X11001291Y-16318646D02*
X10991767Y-16337693D01*
X10991767Y-16337693D02*
X10991767Y-16375789D01*
X10991767Y-16375789D02*
X11001291Y-16394836D01*
X11001291Y-16394836D02*
X11010815Y-16404360D01*
X11010815Y-16404360D02*
X11029863Y-16413884D01*
X11029863Y-16413884D02*
X11067958Y-16413884D01*
X11067958Y-16413884D02*
X11087005Y-16404360D01*
X11087005Y-16404360D02*
X11096529Y-16394836D01*
X11096529Y-16394836D02*
X11106053Y-16375789D01*
X11106053Y-16375789D02*
X11106053Y-16337693D01*
X11106053Y-16337693D02*
X11096529Y-16318646D01*
X11096529Y-16318646D02*
X11087005Y-16309122D01*
X11087005Y-16309122D02*
X11067958Y-16299598D01*
X11229862Y-16213884D02*
X11248910Y-16213884D01*
X11248910Y-16213884D02*
X11267958Y-16223408D01*
X11267958Y-16223408D02*
X11277482Y-16232931D01*
X11277482Y-16232931D02*
X11287005Y-16251979D01*
X11287005Y-16251979D02*
X11296529Y-16290074D01*
X11296529Y-16290074D02*
X11296529Y-16337693D01*
X11296529Y-16337693D02*
X11287005Y-16375789D01*
X11287005Y-16375789D02*
X11277482Y-16394836D01*
X11277482Y-16394836D02*
X11267958Y-16404360D01*
X11267958Y-16404360D02*
X11248910Y-16413884D01*
X11248910Y-16413884D02*
X11229862Y-16413884D01*
X11229862Y-16413884D02*
X11210815Y-16404360D01*
X11210815Y-16404360D02*
X11201291Y-16394836D01*
X11201291Y-16394836D02*
X11191767Y-16375789D01*
X11191767Y-16375789D02*
X11182244Y-16337693D01*
X11182244Y-16337693D02*
X11182244Y-16290074D01*
X11182244Y-16290074D02*
X11191767Y-16251979D01*
X11191767Y-16251979D02*
X11201291Y-16232931D01*
X11201291Y-16232931D02*
X11210815Y-16223408D01*
X11210815Y-16223408D02*
X11229862Y-16213884D01*
X11420339Y-16213884D02*
X11439386Y-16213884D01*
X11439386Y-16213884D02*
X11458434Y-16223408D01*
X11458434Y-16223408D02*
X11467958Y-16232931D01*
X11467958Y-16232931D02*
X11477482Y-16251979D01*
X11477482Y-16251979D02*
X11487005Y-16290074D01*
X11487005Y-16290074D02*
X11487005Y-16337693D01*
X11487005Y-16337693D02*
X11477482Y-16375789D01*
X11477482Y-16375789D02*
X11467958Y-16394836D01*
X11467958Y-16394836D02*
X11458434Y-16404360D01*
X11458434Y-16404360D02*
X11439386Y-16413884D01*
X11439386Y-16413884D02*
X11420339Y-16413884D01*
X11420339Y-16413884D02*
X11401291Y-16404360D01*
X11401291Y-16404360D02*
X11391767Y-16394836D01*
X11391767Y-16394836D02*
X11382243Y-16375789D01*
X11382243Y-16375789D02*
X11372720Y-16337693D01*
X11372720Y-16337693D02*
X11372720Y-16290074D01*
X11372720Y-16290074D02*
X11382243Y-16251979D01*
X11382243Y-16251979D02*
X11391767Y-16232931D01*
X11391767Y-16232931D02*
X11401291Y-16223408D01*
X11401291Y-16223408D02*
X11420339Y-16213884D01*
X11572720Y-16413884D02*
X11572720Y-16280550D01*
X11572720Y-16299598D02*
X11582243Y-16290074D01*
X11582243Y-16290074D02*
X11601291Y-16280550D01*
X11601291Y-16280550D02*
X11629863Y-16280550D01*
X11629863Y-16280550D02*
X11648910Y-16290074D01*
X11648910Y-16290074D02*
X11658434Y-16309122D01*
X11658434Y-16309122D02*
X11658434Y-16413884D01*
X11658434Y-16309122D02*
X11667958Y-16290074D01*
X11667958Y-16290074D02*
X11687005Y-16280550D01*
X11687005Y-16280550D02*
X11715577Y-16280550D01*
X11715577Y-16280550D02*
X11734624Y-16290074D01*
X11734624Y-16290074D02*
X11744148Y-16309122D01*
X11744148Y-16309122D02*
X11744148Y-16413884D01*
X11839386Y-16413884D02*
X11839386Y-16280550D01*
X11839386Y-16299598D02*
X11848910Y-16290074D01*
X11848910Y-16290074D02*
X11867958Y-16280550D01*
X11867958Y-16280550D02*
X11896529Y-16280550D01*
X11896529Y-16280550D02*
X11915577Y-16290074D01*
X11915577Y-16290074D02*
X11925101Y-16309122D01*
X11925101Y-16309122D02*
X11925101Y-16413884D01*
X11925101Y-16309122D02*
X11934624Y-16290074D01*
X11934624Y-16290074D02*
X11953672Y-16280550D01*
X11953672Y-16280550D02*
X11982243Y-16280550D01*
X11982243Y-16280550D02*
X12001291Y-16290074D01*
X12001291Y-16290074D02*
X12010815Y-16309122D01*
X12010815Y-16309122D02*
X12010815Y-16413884D01*
X12401291Y-16204360D02*
X12229863Y-16461503D01*
X12658434Y-16213884D02*
X12677482Y-16213884D01*
X12677482Y-16213884D02*
X12696529Y-16223408D01*
X12696529Y-16223408D02*
X12706053Y-16232931D01*
X12706053Y-16232931D02*
X12715577Y-16251979D01*
X12715577Y-16251979D02*
X12725101Y-16290074D01*
X12725101Y-16290074D02*
X12725101Y-16337693D01*
X12725101Y-16337693D02*
X12715577Y-16375789D01*
X12715577Y-16375789D02*
X12706053Y-16394836D01*
X12706053Y-16394836D02*
X12696529Y-16404360D01*
X12696529Y-16404360D02*
X12677482Y-16413884D01*
X12677482Y-16413884D02*
X12658434Y-16413884D01*
X12658434Y-16413884D02*
X12639386Y-16404360D01*
X12639386Y-16404360D02*
X12629863Y-16394836D01*
X12629863Y-16394836D02*
X12620339Y-16375789D01*
X12620339Y-16375789D02*
X12610815Y-16337693D01*
X12610815Y-16337693D02*
X12610815Y-16290074D01*
X12610815Y-16290074D02*
X12620339Y-16251979D01*
X12620339Y-16251979D02*
X12629863Y-16232931D01*
X12629863Y-16232931D02*
X12639386Y-16223408D01*
X12639386Y-16223408D02*
X12658434Y-16213884D01*
X12810815Y-16394836D02*
X12820339Y-16404360D01*
X12820339Y-16404360D02*
X12810815Y-16413884D01*
X12810815Y-16413884D02*
X12801291Y-16404360D01*
X12801291Y-16404360D02*
X12810815Y-16394836D01*
X12810815Y-16394836D02*
X12810815Y-16413884D01*
X12944148Y-16213884D02*
X12963196Y-16213884D01*
X12963196Y-16213884D02*
X12982244Y-16223408D01*
X12982244Y-16223408D02*
X12991767Y-16232931D01*
X12991767Y-16232931D02*
X13001291Y-16251979D01*
X13001291Y-16251979D02*
X13010815Y-16290074D01*
X13010815Y-16290074D02*
X13010815Y-16337693D01*
X13010815Y-16337693D02*
X13001291Y-16375789D01*
X13001291Y-16375789D02*
X12991767Y-16394836D01*
X12991767Y-16394836D02*
X12982244Y-16404360D01*
X12982244Y-16404360D02*
X12963196Y-16413884D01*
X12963196Y-16413884D02*
X12944148Y-16413884D01*
X12944148Y-16413884D02*
X12925101Y-16404360D01*
X12925101Y-16404360D02*
X12915577Y-16394836D01*
X12915577Y-16394836D02*
X12906053Y-16375789D01*
X12906053Y-16375789D02*
X12896529Y-16337693D01*
X12896529Y-16337693D02*
X12896529Y-16290074D01*
X12896529Y-16290074D02*
X12906053Y-16251979D01*
X12906053Y-16251979D02*
X12915577Y-16232931D01*
X12915577Y-16232931D02*
X12925101Y-16223408D01*
X12925101Y-16223408D02*
X12944148Y-16213884D01*
X13077482Y-16213884D02*
X13201291Y-16213884D01*
X13201291Y-16213884D02*
X13134625Y-16290074D01*
X13134625Y-16290074D02*
X13163196Y-16290074D01*
X13163196Y-16290074D02*
X13182244Y-16299598D01*
X13182244Y-16299598D02*
X13191767Y-16309122D01*
X13191767Y-16309122D02*
X13201291Y-16328170D01*
X13201291Y-16328170D02*
X13201291Y-16375789D01*
X13201291Y-16375789D02*
X13191767Y-16394836D01*
X13191767Y-16394836D02*
X13182244Y-16404360D01*
X13182244Y-16404360D02*
X13163196Y-16413884D01*
X13163196Y-16413884D02*
X13106053Y-16413884D01*
X13106053Y-16413884D02*
X13087006Y-16404360D01*
X13087006Y-16404360D02*
X13077482Y-16394836D01*
X13391767Y-16413884D02*
X13277482Y-16413884D01*
X13334625Y-16413884D02*
X13334625Y-16213884D01*
X13334625Y-16213884D02*
X13315577Y-16242455D01*
X13315577Y-16242455D02*
X13296529Y-16261503D01*
X13296529Y-16261503D02*
X13277482Y-16271027D01*
X13572720Y-16213884D02*
X13477482Y-16213884D01*
X13477482Y-16213884D02*
X13467958Y-16309122D01*
X13467958Y-16309122D02*
X13477482Y-16299598D01*
X13477482Y-16299598D02*
X13496529Y-16290074D01*
X13496529Y-16290074D02*
X13544148Y-16290074D01*
X13544148Y-16290074D02*
X13563196Y-16299598D01*
X13563196Y-16299598D02*
X13572720Y-16309122D01*
X13572720Y-16309122D02*
X13582244Y-16328170D01*
X13582244Y-16328170D02*
X13582244Y-16375789D01*
X13582244Y-16375789D02*
X13572720Y-16394836D01*
X13572720Y-16394836D02*
X13563196Y-16404360D01*
X13563196Y-16404360D02*
X13544148Y-16413884D01*
X13544148Y-16413884D02*
X13496529Y-16413884D01*
X13496529Y-16413884D02*
X13477482Y-16404360D01*
X13477482Y-16404360D02*
X13467958Y-16394836D01*
X13658434Y-16213884D02*
X13658434Y-16251979D01*
X13734625Y-16213884D02*
X13734625Y-16251979D01*
X14029863Y-16490074D02*
X14020339Y-16480550D01*
X14020339Y-16480550D02*
X14001291Y-16451979D01*
X14001291Y-16451979D02*
X13991768Y-16432931D01*
X13991768Y-16432931D02*
X13982244Y-16404360D01*
X13982244Y-16404360D02*
X13972720Y-16356741D01*
X13972720Y-16356741D02*
X13972720Y-16318646D01*
X13972720Y-16318646D02*
X13982244Y-16271027D01*
X13982244Y-16271027D02*
X13991768Y-16242455D01*
X13991768Y-16242455D02*
X14001291Y-16223408D01*
X14001291Y-16223408D02*
X14020339Y-16194836D01*
X14020339Y-16194836D02*
X14029863Y-16185312D01*
X14210815Y-16413884D02*
X14096529Y-16413884D01*
X14153672Y-16413884D02*
X14153672Y-16213884D01*
X14153672Y-16213884D02*
X14134625Y-16242455D01*
X14134625Y-16242455D02*
X14115577Y-16261503D01*
X14115577Y-16261503D02*
X14096529Y-16271027D01*
X14334625Y-16213884D02*
X14353672Y-16213884D01*
X14353672Y-16213884D02*
X14372720Y-16223408D01*
X14372720Y-16223408D02*
X14382244Y-16232931D01*
X14382244Y-16232931D02*
X14391768Y-16251979D01*
X14391768Y-16251979D02*
X14401291Y-16290074D01*
X14401291Y-16290074D02*
X14401291Y-16337693D01*
X14401291Y-16337693D02*
X14391768Y-16375789D01*
X14391768Y-16375789D02*
X14382244Y-16394836D01*
X14382244Y-16394836D02*
X14372720Y-16404360D01*
X14372720Y-16404360D02*
X14353672Y-16413884D01*
X14353672Y-16413884D02*
X14334625Y-16413884D01*
X14334625Y-16413884D02*
X14315577Y-16404360D01*
X14315577Y-16404360D02*
X14306053Y-16394836D01*
X14306053Y-16394836D02*
X14296529Y-16375789D01*
X14296529Y-16375789D02*
X14287006Y-16337693D01*
X14287006Y-16337693D02*
X14287006Y-16290074D01*
X14287006Y-16290074D02*
X14296529Y-16251979D01*
X14296529Y-16251979D02*
X14306053Y-16232931D01*
X14306053Y-16232931D02*
X14315577Y-16223408D01*
X14315577Y-16223408D02*
X14334625Y-16213884D01*
X14572720Y-16213884D02*
X14534625Y-16213884D01*
X14534625Y-16213884D02*
X14515577Y-16223408D01*
X14515577Y-16223408D02*
X14506053Y-16232931D01*
X14506053Y-16232931D02*
X14487006Y-16261503D01*
X14487006Y-16261503D02*
X14477482Y-16299598D01*
X14477482Y-16299598D02*
X14477482Y-16375789D01*
X14477482Y-16375789D02*
X14487006Y-16394836D01*
X14487006Y-16394836D02*
X14496529Y-16404360D01*
X14496529Y-16404360D02*
X14515577Y-16413884D01*
X14515577Y-16413884D02*
X14553672Y-16413884D01*
X14553672Y-16413884D02*
X14572720Y-16404360D01*
X14572720Y-16404360D02*
X14582244Y-16394836D01*
X14582244Y-16394836D02*
X14591768Y-16375789D01*
X14591768Y-16375789D02*
X14591768Y-16328170D01*
X14591768Y-16328170D02*
X14582244Y-16309122D01*
X14582244Y-16309122D02*
X14572720Y-16299598D01*
X14572720Y-16299598D02*
X14553672Y-16290074D01*
X14553672Y-16290074D02*
X14515577Y-16290074D01*
X14515577Y-16290074D02*
X14496529Y-16299598D01*
X14496529Y-16299598D02*
X14487006Y-16309122D01*
X14487006Y-16309122D02*
X14477482Y-16328170D01*
X14829863Y-16413884D02*
X14829863Y-16213884D01*
X14915577Y-16413884D02*
X14915577Y-16309122D01*
X14915577Y-16309122D02*
X14906053Y-16290074D01*
X14906053Y-16290074D02*
X14887006Y-16280550D01*
X14887006Y-16280550D02*
X14858434Y-16280550D01*
X14858434Y-16280550D02*
X14839387Y-16290074D01*
X14839387Y-16290074D02*
X14829863Y-16299598D01*
X15039387Y-16413884D02*
X15020339Y-16404360D01*
X15020339Y-16404360D02*
X15010815Y-16394836D01*
X15010815Y-16394836D02*
X15001291Y-16375789D01*
X15001291Y-16375789D02*
X15001291Y-16318646D01*
X15001291Y-16318646D02*
X15010815Y-16299598D01*
X15010815Y-16299598D02*
X15020339Y-16290074D01*
X15020339Y-16290074D02*
X15039387Y-16280550D01*
X15039387Y-16280550D02*
X15067958Y-16280550D01*
X15067958Y-16280550D02*
X15087006Y-16290074D01*
X15087006Y-16290074D02*
X15096530Y-16299598D01*
X15096530Y-16299598D02*
X15106053Y-16318646D01*
X15106053Y-16318646D02*
X15106053Y-16375789D01*
X15106053Y-16375789D02*
X15096530Y-16394836D01*
X15096530Y-16394836D02*
X15087006Y-16404360D01*
X15087006Y-16404360D02*
X15067958Y-16413884D01*
X15067958Y-16413884D02*
X15039387Y-16413884D01*
X15220339Y-16413884D02*
X15201291Y-16404360D01*
X15201291Y-16404360D02*
X15191768Y-16385312D01*
X15191768Y-16385312D02*
X15191768Y-16213884D01*
X15372720Y-16404360D02*
X15353672Y-16413884D01*
X15353672Y-16413884D02*
X15315577Y-16413884D01*
X15315577Y-16413884D02*
X15296530Y-16404360D01*
X15296530Y-16404360D02*
X15287006Y-16385312D01*
X15287006Y-16385312D02*
X15287006Y-16309122D01*
X15287006Y-16309122D02*
X15296530Y-16290074D01*
X15296530Y-16290074D02*
X15315577Y-16280550D01*
X15315577Y-16280550D02*
X15353672Y-16280550D01*
X15353672Y-16280550D02*
X15372720Y-16290074D01*
X15372720Y-16290074D02*
X15382244Y-16309122D01*
X15382244Y-16309122D02*
X15382244Y-16328170D01*
X15382244Y-16328170D02*
X15287006Y-16347217D01*
X15458434Y-16404360D02*
X15477482Y-16413884D01*
X15477482Y-16413884D02*
X15515577Y-16413884D01*
X15515577Y-16413884D02*
X15534625Y-16404360D01*
X15534625Y-16404360D02*
X15544149Y-16385312D01*
X15544149Y-16385312D02*
X15544149Y-16375789D01*
X15544149Y-16375789D02*
X15534625Y-16356741D01*
X15534625Y-16356741D02*
X15515577Y-16347217D01*
X15515577Y-16347217D02*
X15487006Y-16347217D01*
X15487006Y-16347217D02*
X15467958Y-16337693D01*
X15467958Y-16337693D02*
X15458434Y-16318646D01*
X15458434Y-16318646D02*
X15458434Y-16309122D01*
X15458434Y-16309122D02*
X15467958Y-16290074D01*
X15467958Y-16290074D02*
X15487006Y-16280550D01*
X15487006Y-16280550D02*
X15515577Y-16280550D01*
X15515577Y-16280550D02*
X15534625Y-16290074D01*
X15610815Y-16490074D02*
X15620339Y-16480550D01*
X15620339Y-16480550D02*
X15639387Y-16451979D01*
X15639387Y-16451979D02*
X15648911Y-16432931D01*
X15648911Y-16432931D02*
X15658434Y-16404360D01*
X15658434Y-16404360D02*
X15667958Y-16356741D01*
X15667958Y-16356741D02*
X15667958Y-16318646D01*
X15667958Y-16318646D02*
X15658434Y-16271027D01*
X15658434Y-16271027D02*
X15648911Y-16242455D01*
X15648911Y-16242455D02*
X15639387Y-16223408D01*
X15639387Y-16223408D02*
X15620339Y-16194836D01*
X15620339Y-16194836D02*
X15610815Y-16185312D01*
D12*
X10404800Y-16636400D02*
X10454800Y-16586400D01*
X10404800Y-16536400D01*
X10354800Y-16586400D01*
X10404800Y-16636400D01*
D10*
X10820339Y-16677884D02*
X10706053Y-16677884D01*
X10763196Y-16677884D02*
X10763196Y-16477884D01*
X10763196Y-16477884D02*
X10744148Y-16506455D01*
X10744148Y-16506455D02*
X10725101Y-16525503D01*
X10725101Y-16525503D02*
X10706053Y-16535027D01*
X10906053Y-16658836D02*
X10915577Y-16668360D01*
X10915577Y-16668360D02*
X10906053Y-16677884D01*
X10906053Y-16677884D02*
X10896529Y-16668360D01*
X10896529Y-16668360D02*
X10906053Y-16658836D01*
X10906053Y-16658836D02*
X10906053Y-16677884D01*
X11039386Y-16477884D02*
X11058434Y-16477884D01*
X11058434Y-16477884D02*
X11077482Y-16487408D01*
X11077482Y-16487408D02*
X11087005Y-16496931D01*
X11087005Y-16496931D02*
X11096529Y-16515979D01*
X11096529Y-16515979D02*
X11106053Y-16554074D01*
X11106053Y-16554074D02*
X11106053Y-16601693D01*
X11106053Y-16601693D02*
X11096529Y-16639789D01*
X11096529Y-16639789D02*
X11087005Y-16658836D01*
X11087005Y-16658836D02*
X11077482Y-16668360D01*
X11077482Y-16668360D02*
X11058434Y-16677884D01*
X11058434Y-16677884D02*
X11039386Y-16677884D01*
X11039386Y-16677884D02*
X11020339Y-16668360D01*
X11020339Y-16668360D02*
X11010815Y-16658836D01*
X11010815Y-16658836D02*
X11001291Y-16639789D01*
X11001291Y-16639789D02*
X10991767Y-16601693D01*
X10991767Y-16601693D02*
X10991767Y-16554074D01*
X10991767Y-16554074D02*
X11001291Y-16515979D01*
X11001291Y-16515979D02*
X11010815Y-16496931D01*
X11010815Y-16496931D02*
X11020339Y-16487408D01*
X11020339Y-16487408D02*
X11039386Y-16477884D01*
X11229862Y-16477884D02*
X11248910Y-16477884D01*
X11248910Y-16477884D02*
X11267958Y-16487408D01*
X11267958Y-16487408D02*
X11277482Y-16496931D01*
X11277482Y-16496931D02*
X11287005Y-16515979D01*
X11287005Y-16515979D02*
X11296529Y-16554074D01*
X11296529Y-16554074D02*
X11296529Y-16601693D01*
X11296529Y-16601693D02*
X11287005Y-16639789D01*
X11287005Y-16639789D02*
X11277482Y-16658836D01*
X11277482Y-16658836D02*
X11267958Y-16668360D01*
X11267958Y-16668360D02*
X11248910Y-16677884D01*
X11248910Y-16677884D02*
X11229862Y-16677884D01*
X11229862Y-16677884D02*
X11210815Y-16668360D01*
X11210815Y-16668360D02*
X11201291Y-16658836D01*
X11201291Y-16658836D02*
X11191767Y-16639789D01*
X11191767Y-16639789D02*
X11182244Y-16601693D01*
X11182244Y-16601693D02*
X11182244Y-16554074D01*
X11182244Y-16554074D02*
X11191767Y-16515979D01*
X11191767Y-16515979D02*
X11201291Y-16496931D01*
X11201291Y-16496931D02*
X11210815Y-16487408D01*
X11210815Y-16487408D02*
X11229862Y-16477884D01*
X11420339Y-16477884D02*
X11439386Y-16477884D01*
X11439386Y-16477884D02*
X11458434Y-16487408D01*
X11458434Y-16487408D02*
X11467958Y-16496931D01*
X11467958Y-16496931D02*
X11477482Y-16515979D01*
X11477482Y-16515979D02*
X11487005Y-16554074D01*
X11487005Y-16554074D02*
X11487005Y-16601693D01*
X11487005Y-16601693D02*
X11477482Y-16639789D01*
X11477482Y-16639789D02*
X11467958Y-16658836D01*
X11467958Y-16658836D02*
X11458434Y-16668360D01*
X11458434Y-16668360D02*
X11439386Y-16677884D01*
X11439386Y-16677884D02*
X11420339Y-16677884D01*
X11420339Y-16677884D02*
X11401291Y-16668360D01*
X11401291Y-16668360D02*
X11391767Y-16658836D01*
X11391767Y-16658836D02*
X11382243Y-16639789D01*
X11382243Y-16639789D02*
X11372720Y-16601693D01*
X11372720Y-16601693D02*
X11372720Y-16554074D01*
X11372720Y-16554074D02*
X11382243Y-16515979D01*
X11382243Y-16515979D02*
X11391767Y-16496931D01*
X11391767Y-16496931D02*
X11401291Y-16487408D01*
X11401291Y-16487408D02*
X11420339Y-16477884D01*
X11572720Y-16677884D02*
X11572720Y-16544550D01*
X11572720Y-16563598D02*
X11582243Y-16554074D01*
X11582243Y-16554074D02*
X11601291Y-16544550D01*
X11601291Y-16544550D02*
X11629863Y-16544550D01*
X11629863Y-16544550D02*
X11648910Y-16554074D01*
X11648910Y-16554074D02*
X11658434Y-16573122D01*
X11658434Y-16573122D02*
X11658434Y-16677884D01*
X11658434Y-16573122D02*
X11667958Y-16554074D01*
X11667958Y-16554074D02*
X11687005Y-16544550D01*
X11687005Y-16544550D02*
X11715577Y-16544550D01*
X11715577Y-16544550D02*
X11734624Y-16554074D01*
X11734624Y-16554074D02*
X11744148Y-16573122D01*
X11744148Y-16573122D02*
X11744148Y-16677884D01*
X11839386Y-16677884D02*
X11839386Y-16544550D01*
X11839386Y-16563598D02*
X11848910Y-16554074D01*
X11848910Y-16554074D02*
X11867958Y-16544550D01*
X11867958Y-16544550D02*
X11896529Y-16544550D01*
X11896529Y-16544550D02*
X11915577Y-16554074D01*
X11915577Y-16554074D02*
X11925101Y-16573122D01*
X11925101Y-16573122D02*
X11925101Y-16677884D01*
X11925101Y-16573122D02*
X11934624Y-16554074D01*
X11934624Y-16554074D02*
X11953672Y-16544550D01*
X11953672Y-16544550D02*
X11982243Y-16544550D01*
X11982243Y-16544550D02*
X12001291Y-16554074D01*
X12001291Y-16554074D02*
X12010815Y-16573122D01*
X12010815Y-16573122D02*
X12010815Y-16677884D01*
X12401291Y-16468360D02*
X12229863Y-16725503D01*
X12658434Y-16477884D02*
X12677482Y-16477884D01*
X12677482Y-16477884D02*
X12696529Y-16487408D01*
X12696529Y-16487408D02*
X12706053Y-16496931D01*
X12706053Y-16496931D02*
X12715577Y-16515979D01*
X12715577Y-16515979D02*
X12725101Y-16554074D01*
X12725101Y-16554074D02*
X12725101Y-16601693D01*
X12725101Y-16601693D02*
X12715577Y-16639789D01*
X12715577Y-16639789D02*
X12706053Y-16658836D01*
X12706053Y-16658836D02*
X12696529Y-16668360D01*
X12696529Y-16668360D02*
X12677482Y-16677884D01*
X12677482Y-16677884D02*
X12658434Y-16677884D01*
X12658434Y-16677884D02*
X12639386Y-16668360D01*
X12639386Y-16668360D02*
X12629863Y-16658836D01*
X12629863Y-16658836D02*
X12620339Y-16639789D01*
X12620339Y-16639789D02*
X12610815Y-16601693D01*
X12610815Y-16601693D02*
X12610815Y-16554074D01*
X12610815Y-16554074D02*
X12620339Y-16515979D01*
X12620339Y-16515979D02*
X12629863Y-16496931D01*
X12629863Y-16496931D02*
X12639386Y-16487408D01*
X12639386Y-16487408D02*
X12658434Y-16477884D01*
X12810815Y-16658836D02*
X12820339Y-16668360D01*
X12820339Y-16668360D02*
X12810815Y-16677884D01*
X12810815Y-16677884D02*
X12801291Y-16668360D01*
X12801291Y-16668360D02*
X12810815Y-16658836D01*
X12810815Y-16658836D02*
X12810815Y-16677884D01*
X12944148Y-16477884D02*
X12963196Y-16477884D01*
X12963196Y-16477884D02*
X12982244Y-16487408D01*
X12982244Y-16487408D02*
X12991767Y-16496931D01*
X12991767Y-16496931D02*
X13001291Y-16515979D01*
X13001291Y-16515979D02*
X13010815Y-16554074D01*
X13010815Y-16554074D02*
X13010815Y-16601693D01*
X13010815Y-16601693D02*
X13001291Y-16639789D01*
X13001291Y-16639789D02*
X12991767Y-16658836D01*
X12991767Y-16658836D02*
X12982244Y-16668360D01*
X12982244Y-16668360D02*
X12963196Y-16677884D01*
X12963196Y-16677884D02*
X12944148Y-16677884D01*
X12944148Y-16677884D02*
X12925101Y-16668360D01*
X12925101Y-16668360D02*
X12915577Y-16658836D01*
X12915577Y-16658836D02*
X12906053Y-16639789D01*
X12906053Y-16639789D02*
X12896529Y-16601693D01*
X12896529Y-16601693D02*
X12896529Y-16554074D01*
X12896529Y-16554074D02*
X12906053Y-16515979D01*
X12906053Y-16515979D02*
X12915577Y-16496931D01*
X12915577Y-16496931D02*
X12925101Y-16487408D01*
X12925101Y-16487408D02*
X12944148Y-16477884D01*
X13077482Y-16477884D02*
X13201291Y-16477884D01*
X13201291Y-16477884D02*
X13134625Y-16554074D01*
X13134625Y-16554074D02*
X13163196Y-16554074D01*
X13163196Y-16554074D02*
X13182244Y-16563598D01*
X13182244Y-16563598D02*
X13191767Y-16573122D01*
X13191767Y-16573122D02*
X13201291Y-16592170D01*
X13201291Y-16592170D02*
X13201291Y-16639789D01*
X13201291Y-16639789D02*
X13191767Y-16658836D01*
X13191767Y-16658836D02*
X13182244Y-16668360D01*
X13182244Y-16668360D02*
X13163196Y-16677884D01*
X13163196Y-16677884D02*
X13106053Y-16677884D01*
X13106053Y-16677884D02*
X13087006Y-16668360D01*
X13087006Y-16668360D02*
X13077482Y-16658836D01*
X13296529Y-16677884D02*
X13334625Y-16677884D01*
X13334625Y-16677884D02*
X13353672Y-16668360D01*
X13353672Y-16668360D02*
X13363196Y-16658836D01*
X13363196Y-16658836D02*
X13382244Y-16630265D01*
X13382244Y-16630265D02*
X13391767Y-16592170D01*
X13391767Y-16592170D02*
X13391767Y-16515979D01*
X13391767Y-16515979D02*
X13382244Y-16496931D01*
X13382244Y-16496931D02*
X13372720Y-16487408D01*
X13372720Y-16487408D02*
X13353672Y-16477884D01*
X13353672Y-16477884D02*
X13315577Y-16477884D01*
X13315577Y-16477884D02*
X13296529Y-16487408D01*
X13296529Y-16487408D02*
X13287006Y-16496931D01*
X13287006Y-16496931D02*
X13277482Y-16515979D01*
X13277482Y-16515979D02*
X13277482Y-16563598D01*
X13277482Y-16563598D02*
X13287006Y-16582646D01*
X13287006Y-16582646D02*
X13296529Y-16592170D01*
X13296529Y-16592170D02*
X13315577Y-16601693D01*
X13315577Y-16601693D02*
X13353672Y-16601693D01*
X13353672Y-16601693D02*
X13372720Y-16592170D01*
X13372720Y-16592170D02*
X13382244Y-16582646D01*
X13382244Y-16582646D02*
X13391767Y-16563598D01*
X13563196Y-16544550D02*
X13563196Y-16677884D01*
X13515577Y-16468360D02*
X13467958Y-16611217D01*
X13467958Y-16611217D02*
X13591767Y-16611217D01*
X13658434Y-16477884D02*
X13658434Y-16515979D01*
X13734625Y-16477884D02*
X13734625Y-16515979D01*
X14029863Y-16754074D02*
X14020339Y-16744550D01*
X14020339Y-16744550D02*
X14001291Y-16715979D01*
X14001291Y-16715979D02*
X13991768Y-16696931D01*
X13991768Y-16696931D02*
X13982244Y-16668360D01*
X13982244Y-16668360D02*
X13972720Y-16620741D01*
X13972720Y-16620741D02*
X13972720Y-16582646D01*
X13972720Y-16582646D02*
X13982244Y-16535027D01*
X13982244Y-16535027D02*
X13991768Y-16506455D01*
X13991768Y-16506455D02*
X14001291Y-16487408D01*
X14001291Y-16487408D02*
X14020339Y-16458836D01*
X14020339Y-16458836D02*
X14029863Y-16449312D01*
X14087006Y-16477884D02*
X14210815Y-16477884D01*
X14210815Y-16477884D02*
X14144148Y-16554074D01*
X14144148Y-16554074D02*
X14172720Y-16554074D01*
X14172720Y-16554074D02*
X14191768Y-16563598D01*
X14191768Y-16563598D02*
X14201291Y-16573122D01*
X14201291Y-16573122D02*
X14210815Y-16592170D01*
X14210815Y-16592170D02*
X14210815Y-16639789D01*
X14210815Y-16639789D02*
X14201291Y-16658836D01*
X14201291Y-16658836D02*
X14191768Y-16668360D01*
X14191768Y-16668360D02*
X14172720Y-16677884D01*
X14172720Y-16677884D02*
X14115577Y-16677884D01*
X14115577Y-16677884D02*
X14096529Y-16668360D01*
X14096529Y-16668360D02*
X14087006Y-16658836D01*
X14277482Y-16477884D02*
X14401291Y-16477884D01*
X14401291Y-16477884D02*
X14334625Y-16554074D01*
X14334625Y-16554074D02*
X14363196Y-16554074D01*
X14363196Y-16554074D02*
X14382244Y-16563598D01*
X14382244Y-16563598D02*
X14391768Y-16573122D01*
X14391768Y-16573122D02*
X14401291Y-16592170D01*
X14401291Y-16592170D02*
X14401291Y-16639789D01*
X14401291Y-16639789D02*
X14391768Y-16658836D01*
X14391768Y-16658836D02*
X14382244Y-16668360D01*
X14382244Y-16668360D02*
X14363196Y-16677884D01*
X14363196Y-16677884D02*
X14306053Y-16677884D01*
X14306053Y-16677884D02*
X14287006Y-16668360D01*
X14287006Y-16668360D02*
X14277482Y-16658836D01*
X14639387Y-16677884D02*
X14639387Y-16477884D01*
X14725101Y-16677884D02*
X14725101Y-16573122D01*
X14725101Y-16573122D02*
X14715577Y-16554074D01*
X14715577Y-16554074D02*
X14696530Y-16544550D01*
X14696530Y-16544550D02*
X14667958Y-16544550D01*
X14667958Y-16544550D02*
X14648910Y-16554074D01*
X14648910Y-16554074D02*
X14639387Y-16563598D01*
X14848910Y-16677884D02*
X14829863Y-16668360D01*
X14829863Y-16668360D02*
X14820339Y-16658836D01*
X14820339Y-16658836D02*
X14810815Y-16639789D01*
X14810815Y-16639789D02*
X14810815Y-16582646D01*
X14810815Y-16582646D02*
X14820339Y-16563598D01*
X14820339Y-16563598D02*
X14829863Y-16554074D01*
X14829863Y-16554074D02*
X14848910Y-16544550D01*
X14848910Y-16544550D02*
X14877482Y-16544550D01*
X14877482Y-16544550D02*
X14896530Y-16554074D01*
X14896530Y-16554074D02*
X14906053Y-16563598D01*
X14906053Y-16563598D02*
X14915577Y-16582646D01*
X14915577Y-16582646D02*
X14915577Y-16639789D01*
X14915577Y-16639789D02*
X14906053Y-16658836D01*
X14906053Y-16658836D02*
X14896530Y-16668360D01*
X14896530Y-16668360D02*
X14877482Y-16677884D01*
X14877482Y-16677884D02*
X14848910Y-16677884D01*
X15029863Y-16677884D02*
X15010815Y-16668360D01*
X15010815Y-16668360D02*
X15001291Y-16649312D01*
X15001291Y-16649312D02*
X15001291Y-16477884D01*
X15182244Y-16668360D02*
X15163196Y-16677884D01*
X15163196Y-16677884D02*
X15125101Y-16677884D01*
X15125101Y-16677884D02*
X15106053Y-16668360D01*
X15106053Y-16668360D02*
X15096530Y-16649312D01*
X15096530Y-16649312D02*
X15096530Y-16573122D01*
X15096530Y-16573122D02*
X15106053Y-16554074D01*
X15106053Y-16554074D02*
X15125101Y-16544550D01*
X15125101Y-16544550D02*
X15163196Y-16544550D01*
X15163196Y-16544550D02*
X15182244Y-16554074D01*
X15182244Y-16554074D02*
X15191768Y-16573122D01*
X15191768Y-16573122D02*
X15191768Y-16592170D01*
X15191768Y-16592170D02*
X15096530Y-16611217D01*
X15267958Y-16668360D02*
X15287006Y-16677884D01*
X15287006Y-16677884D02*
X15325101Y-16677884D01*
X15325101Y-16677884D02*
X15344149Y-16668360D01*
X15344149Y-16668360D02*
X15353672Y-16649312D01*
X15353672Y-16649312D02*
X15353672Y-16639789D01*
X15353672Y-16639789D02*
X15344149Y-16620741D01*
X15344149Y-16620741D02*
X15325101Y-16611217D01*
X15325101Y-16611217D02*
X15296530Y-16611217D01*
X15296530Y-16611217D02*
X15277482Y-16601693D01*
X15277482Y-16601693D02*
X15267958Y-16582646D01*
X15267958Y-16582646D02*
X15267958Y-16573122D01*
X15267958Y-16573122D02*
X15277482Y-16554074D01*
X15277482Y-16554074D02*
X15296530Y-16544550D01*
X15296530Y-16544550D02*
X15325101Y-16544550D01*
X15325101Y-16544550D02*
X15344149Y-16554074D01*
X15420339Y-16754074D02*
X15429863Y-16744550D01*
X15429863Y-16744550D02*
X15448911Y-16715979D01*
X15448911Y-16715979D02*
X15458434Y-16696931D01*
X15458434Y-16696931D02*
X15467958Y-16668360D01*
X15467958Y-16668360D02*
X15477482Y-16620741D01*
X15477482Y-16620741D02*
X15477482Y-16582646D01*
X15477482Y-16582646D02*
X15467958Y-16535027D01*
X15467958Y-16535027D02*
X15458434Y-16506455D01*
X15458434Y-16506455D02*
X15448911Y-16487408D01*
X15448911Y-16487408D02*
X15429863Y-16458836D01*
X15429863Y-16458836D02*
X15420339Y-16449312D01*
D13*
X10344800Y-16795400D02*
X10454800Y-16905400D01*
X10454800Y-16795400D02*
X10344800Y-16905400D01*
X10454800Y-16850400D02*
G75*
G02*
X10344800Y-16850400I-55000J0D01*
G01*
X10344800Y-16850400D02*
G75*
G02*
X10454800Y-16850400I55000J0D01*
G01*
D10*
X10820339Y-16941884D02*
X10706053Y-16941884D01*
X10763196Y-16941884D02*
X10763196Y-16741884D01*
X10763196Y-16741884D02*
X10744148Y-16770455D01*
X10744148Y-16770455D02*
X10725101Y-16789503D01*
X10725101Y-16789503D02*
X10706053Y-16799027D01*
X10906053Y-16922836D02*
X10915577Y-16932360D01*
X10915577Y-16932360D02*
X10906053Y-16941884D01*
X10906053Y-16941884D02*
X10896529Y-16932360D01*
X10896529Y-16932360D02*
X10906053Y-16922836D01*
X10906053Y-16922836D02*
X10906053Y-16941884D01*
X11106053Y-16941884D02*
X10991767Y-16941884D01*
X11048910Y-16941884D02*
X11048910Y-16741884D01*
X11048910Y-16741884D02*
X11029863Y-16770455D01*
X11029863Y-16770455D02*
X11010815Y-16789503D01*
X11010815Y-16789503D02*
X10991767Y-16799027D01*
X11229862Y-16741884D02*
X11248910Y-16741884D01*
X11248910Y-16741884D02*
X11267958Y-16751408D01*
X11267958Y-16751408D02*
X11277482Y-16760931D01*
X11277482Y-16760931D02*
X11287005Y-16779979D01*
X11287005Y-16779979D02*
X11296529Y-16818074D01*
X11296529Y-16818074D02*
X11296529Y-16865693D01*
X11296529Y-16865693D02*
X11287005Y-16903789D01*
X11287005Y-16903789D02*
X11277482Y-16922836D01*
X11277482Y-16922836D02*
X11267958Y-16932360D01*
X11267958Y-16932360D02*
X11248910Y-16941884D01*
X11248910Y-16941884D02*
X11229862Y-16941884D01*
X11229862Y-16941884D02*
X11210815Y-16932360D01*
X11210815Y-16932360D02*
X11201291Y-16922836D01*
X11201291Y-16922836D02*
X11191767Y-16903789D01*
X11191767Y-16903789D02*
X11182244Y-16865693D01*
X11182244Y-16865693D02*
X11182244Y-16818074D01*
X11182244Y-16818074D02*
X11191767Y-16779979D01*
X11191767Y-16779979D02*
X11201291Y-16760931D01*
X11201291Y-16760931D02*
X11210815Y-16751408D01*
X11210815Y-16751408D02*
X11229862Y-16741884D01*
X11420339Y-16741884D02*
X11439386Y-16741884D01*
X11439386Y-16741884D02*
X11458434Y-16751408D01*
X11458434Y-16751408D02*
X11467958Y-16760931D01*
X11467958Y-16760931D02*
X11477482Y-16779979D01*
X11477482Y-16779979D02*
X11487005Y-16818074D01*
X11487005Y-16818074D02*
X11487005Y-16865693D01*
X11487005Y-16865693D02*
X11477482Y-16903789D01*
X11477482Y-16903789D02*
X11467958Y-16922836D01*
X11467958Y-16922836D02*
X11458434Y-16932360D01*
X11458434Y-16932360D02*
X11439386Y-16941884D01*
X11439386Y-16941884D02*
X11420339Y-16941884D01*
X11420339Y-16941884D02*
X11401291Y-16932360D01*
X11401291Y-16932360D02*
X11391767Y-16922836D01*
X11391767Y-16922836D02*
X11382243Y-16903789D01*
X11382243Y-16903789D02*
X11372720Y-16865693D01*
X11372720Y-16865693D02*
X11372720Y-16818074D01*
X11372720Y-16818074D02*
X11382243Y-16779979D01*
X11382243Y-16779979D02*
X11391767Y-16760931D01*
X11391767Y-16760931D02*
X11401291Y-16751408D01*
X11401291Y-16751408D02*
X11420339Y-16741884D01*
X11572720Y-16941884D02*
X11572720Y-16808551D01*
X11572720Y-16827598D02*
X11582243Y-16818074D01*
X11582243Y-16818074D02*
X11601291Y-16808551D01*
X11601291Y-16808551D02*
X11629863Y-16808551D01*
X11629863Y-16808551D02*
X11648910Y-16818074D01*
X11648910Y-16818074D02*
X11658434Y-16837122D01*
X11658434Y-16837122D02*
X11658434Y-16941884D01*
X11658434Y-16837122D02*
X11667958Y-16818074D01*
X11667958Y-16818074D02*
X11687005Y-16808551D01*
X11687005Y-16808551D02*
X11715577Y-16808551D01*
X11715577Y-16808551D02*
X11734624Y-16818074D01*
X11734624Y-16818074D02*
X11744148Y-16837122D01*
X11744148Y-16837122D02*
X11744148Y-16941884D01*
X11839386Y-16941884D02*
X11839386Y-16808551D01*
X11839386Y-16827598D02*
X11848910Y-16818074D01*
X11848910Y-16818074D02*
X11867958Y-16808551D01*
X11867958Y-16808551D02*
X11896529Y-16808551D01*
X11896529Y-16808551D02*
X11915577Y-16818074D01*
X11915577Y-16818074D02*
X11925101Y-16837122D01*
X11925101Y-16837122D02*
X11925101Y-16941884D01*
X11925101Y-16837122D02*
X11934624Y-16818074D01*
X11934624Y-16818074D02*
X11953672Y-16808551D01*
X11953672Y-16808551D02*
X11982243Y-16808551D01*
X11982243Y-16808551D02*
X12001291Y-16818074D01*
X12001291Y-16818074D02*
X12010815Y-16837122D01*
X12010815Y-16837122D02*
X12010815Y-16941884D01*
X12401291Y-16732360D02*
X12229863Y-16989503D01*
X12658434Y-16741884D02*
X12677482Y-16741884D01*
X12677482Y-16741884D02*
X12696529Y-16751408D01*
X12696529Y-16751408D02*
X12706053Y-16760931D01*
X12706053Y-16760931D02*
X12715577Y-16779979D01*
X12715577Y-16779979D02*
X12725101Y-16818074D01*
X12725101Y-16818074D02*
X12725101Y-16865693D01*
X12725101Y-16865693D02*
X12715577Y-16903789D01*
X12715577Y-16903789D02*
X12706053Y-16922836D01*
X12706053Y-16922836D02*
X12696529Y-16932360D01*
X12696529Y-16932360D02*
X12677482Y-16941884D01*
X12677482Y-16941884D02*
X12658434Y-16941884D01*
X12658434Y-16941884D02*
X12639386Y-16932360D01*
X12639386Y-16932360D02*
X12629863Y-16922836D01*
X12629863Y-16922836D02*
X12620339Y-16903789D01*
X12620339Y-16903789D02*
X12610815Y-16865693D01*
X12610815Y-16865693D02*
X12610815Y-16818074D01*
X12610815Y-16818074D02*
X12620339Y-16779979D01*
X12620339Y-16779979D02*
X12629863Y-16760931D01*
X12629863Y-16760931D02*
X12639386Y-16751408D01*
X12639386Y-16751408D02*
X12658434Y-16741884D01*
X12810815Y-16922836D02*
X12820339Y-16932360D01*
X12820339Y-16932360D02*
X12810815Y-16941884D01*
X12810815Y-16941884D02*
X12801291Y-16932360D01*
X12801291Y-16932360D02*
X12810815Y-16922836D01*
X12810815Y-16922836D02*
X12810815Y-16941884D01*
X12944148Y-16741884D02*
X12963196Y-16741884D01*
X12963196Y-16741884D02*
X12982244Y-16751408D01*
X12982244Y-16751408D02*
X12991767Y-16760931D01*
X12991767Y-16760931D02*
X13001291Y-16779979D01*
X13001291Y-16779979D02*
X13010815Y-16818074D01*
X13010815Y-16818074D02*
X13010815Y-16865693D01*
X13010815Y-16865693D02*
X13001291Y-16903789D01*
X13001291Y-16903789D02*
X12991767Y-16922836D01*
X12991767Y-16922836D02*
X12982244Y-16932360D01*
X12982244Y-16932360D02*
X12963196Y-16941884D01*
X12963196Y-16941884D02*
X12944148Y-16941884D01*
X12944148Y-16941884D02*
X12925101Y-16932360D01*
X12925101Y-16932360D02*
X12915577Y-16922836D01*
X12915577Y-16922836D02*
X12906053Y-16903789D01*
X12906053Y-16903789D02*
X12896529Y-16865693D01*
X12896529Y-16865693D02*
X12896529Y-16818074D01*
X12896529Y-16818074D02*
X12906053Y-16779979D01*
X12906053Y-16779979D02*
X12915577Y-16760931D01*
X12915577Y-16760931D02*
X12925101Y-16751408D01*
X12925101Y-16751408D02*
X12944148Y-16741884D01*
X13182244Y-16808551D02*
X13182244Y-16941884D01*
X13134625Y-16732360D02*
X13087006Y-16875217D01*
X13087006Y-16875217D02*
X13210815Y-16875217D01*
X13267958Y-16741884D02*
X13391767Y-16741884D01*
X13391767Y-16741884D02*
X13325101Y-16818074D01*
X13325101Y-16818074D02*
X13353672Y-16818074D01*
X13353672Y-16818074D02*
X13372720Y-16827598D01*
X13372720Y-16827598D02*
X13382244Y-16837122D01*
X13382244Y-16837122D02*
X13391767Y-16856170D01*
X13391767Y-16856170D02*
X13391767Y-16903789D01*
X13391767Y-16903789D02*
X13382244Y-16922836D01*
X13382244Y-16922836D02*
X13372720Y-16932360D01*
X13372720Y-16932360D02*
X13353672Y-16941884D01*
X13353672Y-16941884D02*
X13296529Y-16941884D01*
X13296529Y-16941884D02*
X13277482Y-16932360D01*
X13277482Y-16932360D02*
X13267958Y-16922836D01*
X13458434Y-16741884D02*
X13582244Y-16741884D01*
X13582244Y-16741884D02*
X13515577Y-16818074D01*
X13515577Y-16818074D02*
X13544148Y-16818074D01*
X13544148Y-16818074D02*
X13563196Y-16827598D01*
X13563196Y-16827598D02*
X13572720Y-16837122D01*
X13572720Y-16837122D02*
X13582244Y-16856170D01*
X13582244Y-16856170D02*
X13582244Y-16903789D01*
X13582244Y-16903789D02*
X13572720Y-16922836D01*
X13572720Y-16922836D02*
X13563196Y-16932360D01*
X13563196Y-16932360D02*
X13544148Y-16941884D01*
X13544148Y-16941884D02*
X13487006Y-16941884D01*
X13487006Y-16941884D02*
X13467958Y-16932360D01*
X13467958Y-16932360D02*
X13458434Y-16922836D01*
X13658434Y-16741884D02*
X13658434Y-16779979D01*
X13734625Y-16741884D02*
X13734625Y-16779979D01*
X14029863Y-17018074D02*
X14020339Y-17008551D01*
X14020339Y-17008551D02*
X14001291Y-16979979D01*
X14001291Y-16979979D02*
X13991768Y-16960932D01*
X13991768Y-16960932D02*
X13982244Y-16932360D01*
X13982244Y-16932360D02*
X13972720Y-16884741D01*
X13972720Y-16884741D02*
X13972720Y-16846646D01*
X13972720Y-16846646D02*
X13982244Y-16799027D01*
X13982244Y-16799027D02*
X13991768Y-16770455D01*
X13991768Y-16770455D02*
X14001291Y-16751408D01*
X14001291Y-16751408D02*
X14020339Y-16722836D01*
X14020339Y-16722836D02*
X14029863Y-16713312D01*
X14096529Y-16760931D02*
X14106053Y-16751408D01*
X14106053Y-16751408D02*
X14125101Y-16741884D01*
X14125101Y-16741884D02*
X14172720Y-16741884D01*
X14172720Y-16741884D02*
X14191768Y-16751408D01*
X14191768Y-16751408D02*
X14201291Y-16760931D01*
X14201291Y-16760931D02*
X14210815Y-16779979D01*
X14210815Y-16779979D02*
X14210815Y-16799027D01*
X14210815Y-16799027D02*
X14201291Y-16827598D01*
X14201291Y-16827598D02*
X14087006Y-16941884D01*
X14087006Y-16941884D02*
X14210815Y-16941884D01*
X14382244Y-16808551D02*
X14382244Y-16941884D01*
X14334625Y-16732360D02*
X14287006Y-16875217D01*
X14287006Y-16875217D02*
X14410815Y-16875217D01*
X14639387Y-16941884D02*
X14639387Y-16741884D01*
X14725101Y-16941884D02*
X14725101Y-16837122D01*
X14725101Y-16837122D02*
X14715577Y-16818074D01*
X14715577Y-16818074D02*
X14696530Y-16808551D01*
X14696530Y-16808551D02*
X14667958Y-16808551D01*
X14667958Y-16808551D02*
X14648910Y-16818074D01*
X14648910Y-16818074D02*
X14639387Y-16827598D01*
X14848910Y-16941884D02*
X14829863Y-16932360D01*
X14829863Y-16932360D02*
X14820339Y-16922836D01*
X14820339Y-16922836D02*
X14810815Y-16903789D01*
X14810815Y-16903789D02*
X14810815Y-16846646D01*
X14810815Y-16846646D02*
X14820339Y-16827598D01*
X14820339Y-16827598D02*
X14829863Y-16818074D01*
X14829863Y-16818074D02*
X14848910Y-16808551D01*
X14848910Y-16808551D02*
X14877482Y-16808551D01*
X14877482Y-16808551D02*
X14896530Y-16818074D01*
X14896530Y-16818074D02*
X14906053Y-16827598D01*
X14906053Y-16827598D02*
X14915577Y-16846646D01*
X14915577Y-16846646D02*
X14915577Y-16903789D01*
X14915577Y-16903789D02*
X14906053Y-16922836D01*
X14906053Y-16922836D02*
X14896530Y-16932360D01*
X14896530Y-16932360D02*
X14877482Y-16941884D01*
X14877482Y-16941884D02*
X14848910Y-16941884D01*
X15029863Y-16941884D02*
X15010815Y-16932360D01*
X15010815Y-16932360D02*
X15001291Y-16913312D01*
X15001291Y-16913312D02*
X15001291Y-16741884D01*
X15182244Y-16932360D02*
X15163196Y-16941884D01*
X15163196Y-16941884D02*
X15125101Y-16941884D01*
X15125101Y-16941884D02*
X15106053Y-16932360D01*
X15106053Y-16932360D02*
X15096530Y-16913312D01*
X15096530Y-16913312D02*
X15096530Y-16837122D01*
X15096530Y-16837122D02*
X15106053Y-16818074D01*
X15106053Y-16818074D02*
X15125101Y-16808551D01*
X15125101Y-16808551D02*
X15163196Y-16808551D01*
X15163196Y-16808551D02*
X15182244Y-16818074D01*
X15182244Y-16818074D02*
X15191768Y-16837122D01*
X15191768Y-16837122D02*
X15191768Y-16856170D01*
X15191768Y-16856170D02*
X15096530Y-16875217D01*
X15267958Y-16932360D02*
X15287006Y-16941884D01*
X15287006Y-16941884D02*
X15325101Y-16941884D01*
X15325101Y-16941884D02*
X15344149Y-16932360D01*
X15344149Y-16932360D02*
X15353672Y-16913312D01*
X15353672Y-16913312D02*
X15353672Y-16903789D01*
X15353672Y-16903789D02*
X15344149Y-16884741D01*
X15344149Y-16884741D02*
X15325101Y-16875217D01*
X15325101Y-16875217D02*
X15296530Y-16875217D01*
X15296530Y-16875217D02*
X15277482Y-16865693D01*
X15277482Y-16865693D02*
X15267958Y-16846646D01*
X15267958Y-16846646D02*
X15267958Y-16837122D01*
X15267958Y-16837122D02*
X15277482Y-16818074D01*
X15277482Y-16818074D02*
X15296530Y-16808551D01*
X15296530Y-16808551D02*
X15325101Y-16808551D01*
X15325101Y-16808551D02*
X15344149Y-16818074D01*
X15420339Y-17018074D02*
X15429863Y-17008551D01*
X15429863Y-17008551D02*
X15448911Y-16979979D01*
X15448911Y-16979979D02*
X15458434Y-16960932D01*
X15458434Y-16960932D02*
X15467958Y-16932360D01*
X15467958Y-16932360D02*
X15477482Y-16884741D01*
X15477482Y-16884741D02*
X15477482Y-16846646D01*
X15477482Y-16846646D02*
X15467958Y-16799027D01*
X15467958Y-16799027D02*
X15458434Y-16770455D01*
X15458434Y-16770455D02*
X15448911Y-16751408D01*
X15448911Y-16751408D02*
X15429863Y-16722836D01*
X15429863Y-16722836D02*
X15420339Y-16713312D01*
D14*
X10334800Y-17054400D02*
X10454800Y-17174400D01*
X10454800Y-17054400D02*
X10334800Y-17174400D01*
X10394800Y-17054400D02*
X10394800Y-17174400D01*
X10334800Y-17114400D02*
X10454800Y-17114400D01*
D10*
X10820339Y-17205884D02*
X10706053Y-17205884D01*
X10763196Y-17205884D02*
X10763196Y-17005884D01*
X10763196Y-17005884D02*
X10744148Y-17034455D01*
X10744148Y-17034455D02*
X10725101Y-17053503D01*
X10725101Y-17053503D02*
X10706053Y-17063027D01*
X10906053Y-17186836D02*
X10915577Y-17196360D01*
X10915577Y-17196360D02*
X10906053Y-17205884D01*
X10906053Y-17205884D02*
X10896529Y-17196360D01*
X10896529Y-17196360D02*
X10906053Y-17186836D01*
X10906053Y-17186836D02*
X10906053Y-17205884D01*
X10991767Y-17024932D02*
X11001291Y-17015408D01*
X11001291Y-17015408D02*
X11020339Y-17005884D01*
X11020339Y-17005884D02*
X11067958Y-17005884D01*
X11067958Y-17005884D02*
X11087005Y-17015408D01*
X11087005Y-17015408D02*
X11096529Y-17024932D01*
X11096529Y-17024932D02*
X11106053Y-17043979D01*
X11106053Y-17043979D02*
X11106053Y-17063027D01*
X11106053Y-17063027D02*
X11096529Y-17091598D01*
X11096529Y-17091598D02*
X10982244Y-17205884D01*
X10982244Y-17205884D02*
X11106053Y-17205884D01*
X11229862Y-17005884D02*
X11248910Y-17005884D01*
X11248910Y-17005884D02*
X11267958Y-17015408D01*
X11267958Y-17015408D02*
X11277482Y-17024932D01*
X11277482Y-17024932D02*
X11287005Y-17043979D01*
X11287005Y-17043979D02*
X11296529Y-17082074D01*
X11296529Y-17082074D02*
X11296529Y-17129693D01*
X11296529Y-17129693D02*
X11287005Y-17167789D01*
X11287005Y-17167789D02*
X11277482Y-17186836D01*
X11277482Y-17186836D02*
X11267958Y-17196360D01*
X11267958Y-17196360D02*
X11248910Y-17205884D01*
X11248910Y-17205884D02*
X11229862Y-17205884D01*
X11229862Y-17205884D02*
X11210815Y-17196360D01*
X11210815Y-17196360D02*
X11201291Y-17186836D01*
X11201291Y-17186836D02*
X11191767Y-17167789D01*
X11191767Y-17167789D02*
X11182244Y-17129693D01*
X11182244Y-17129693D02*
X11182244Y-17082074D01*
X11182244Y-17082074D02*
X11191767Y-17043979D01*
X11191767Y-17043979D02*
X11201291Y-17024932D01*
X11201291Y-17024932D02*
X11210815Y-17015408D01*
X11210815Y-17015408D02*
X11229862Y-17005884D01*
X11420339Y-17005884D02*
X11439386Y-17005884D01*
X11439386Y-17005884D02*
X11458434Y-17015408D01*
X11458434Y-17015408D02*
X11467958Y-17024932D01*
X11467958Y-17024932D02*
X11477482Y-17043979D01*
X11477482Y-17043979D02*
X11487005Y-17082074D01*
X11487005Y-17082074D02*
X11487005Y-17129693D01*
X11487005Y-17129693D02*
X11477482Y-17167789D01*
X11477482Y-17167789D02*
X11467958Y-17186836D01*
X11467958Y-17186836D02*
X11458434Y-17196360D01*
X11458434Y-17196360D02*
X11439386Y-17205884D01*
X11439386Y-17205884D02*
X11420339Y-17205884D01*
X11420339Y-17205884D02*
X11401291Y-17196360D01*
X11401291Y-17196360D02*
X11391767Y-17186836D01*
X11391767Y-17186836D02*
X11382243Y-17167789D01*
X11382243Y-17167789D02*
X11372720Y-17129693D01*
X11372720Y-17129693D02*
X11372720Y-17082074D01*
X11372720Y-17082074D02*
X11382243Y-17043979D01*
X11382243Y-17043979D02*
X11391767Y-17024932D01*
X11391767Y-17024932D02*
X11401291Y-17015408D01*
X11401291Y-17015408D02*
X11420339Y-17005884D01*
X11572720Y-17205884D02*
X11572720Y-17072551D01*
X11572720Y-17091598D02*
X11582243Y-17082074D01*
X11582243Y-17082074D02*
X11601291Y-17072551D01*
X11601291Y-17072551D02*
X11629863Y-17072551D01*
X11629863Y-17072551D02*
X11648910Y-17082074D01*
X11648910Y-17082074D02*
X11658434Y-17101122D01*
X11658434Y-17101122D02*
X11658434Y-17205884D01*
X11658434Y-17101122D02*
X11667958Y-17082074D01*
X11667958Y-17082074D02*
X11687005Y-17072551D01*
X11687005Y-17072551D02*
X11715577Y-17072551D01*
X11715577Y-17072551D02*
X11734624Y-17082074D01*
X11734624Y-17082074D02*
X11744148Y-17101122D01*
X11744148Y-17101122D02*
X11744148Y-17205884D01*
X11839386Y-17205884D02*
X11839386Y-17072551D01*
X11839386Y-17091598D02*
X11848910Y-17082074D01*
X11848910Y-17082074D02*
X11867958Y-17072551D01*
X11867958Y-17072551D02*
X11896529Y-17072551D01*
X11896529Y-17072551D02*
X11915577Y-17082074D01*
X11915577Y-17082074D02*
X11925101Y-17101122D01*
X11925101Y-17101122D02*
X11925101Y-17205884D01*
X11925101Y-17101122D02*
X11934624Y-17082074D01*
X11934624Y-17082074D02*
X11953672Y-17072551D01*
X11953672Y-17072551D02*
X11982243Y-17072551D01*
X11982243Y-17072551D02*
X12001291Y-17082074D01*
X12001291Y-17082074D02*
X12010815Y-17101122D01*
X12010815Y-17101122D02*
X12010815Y-17205884D01*
X12401291Y-16996360D02*
X12229863Y-17253503D01*
X12658434Y-17005884D02*
X12677482Y-17005884D01*
X12677482Y-17005884D02*
X12696529Y-17015408D01*
X12696529Y-17015408D02*
X12706053Y-17024932D01*
X12706053Y-17024932D02*
X12715577Y-17043979D01*
X12715577Y-17043979D02*
X12725101Y-17082074D01*
X12725101Y-17082074D02*
X12725101Y-17129693D01*
X12725101Y-17129693D02*
X12715577Y-17167789D01*
X12715577Y-17167789D02*
X12706053Y-17186836D01*
X12706053Y-17186836D02*
X12696529Y-17196360D01*
X12696529Y-17196360D02*
X12677482Y-17205884D01*
X12677482Y-17205884D02*
X12658434Y-17205884D01*
X12658434Y-17205884D02*
X12639386Y-17196360D01*
X12639386Y-17196360D02*
X12629863Y-17186836D01*
X12629863Y-17186836D02*
X12620339Y-17167789D01*
X12620339Y-17167789D02*
X12610815Y-17129693D01*
X12610815Y-17129693D02*
X12610815Y-17082074D01*
X12610815Y-17082074D02*
X12620339Y-17043979D01*
X12620339Y-17043979D02*
X12629863Y-17024932D01*
X12629863Y-17024932D02*
X12639386Y-17015408D01*
X12639386Y-17015408D02*
X12658434Y-17005884D01*
X12810815Y-17186836D02*
X12820339Y-17196360D01*
X12820339Y-17196360D02*
X12810815Y-17205884D01*
X12810815Y-17205884D02*
X12801291Y-17196360D01*
X12801291Y-17196360D02*
X12810815Y-17186836D01*
X12810815Y-17186836D02*
X12810815Y-17205884D01*
X12944148Y-17005884D02*
X12963196Y-17005884D01*
X12963196Y-17005884D02*
X12982244Y-17015408D01*
X12982244Y-17015408D02*
X12991767Y-17024932D01*
X12991767Y-17024932D02*
X13001291Y-17043979D01*
X13001291Y-17043979D02*
X13010815Y-17082074D01*
X13010815Y-17082074D02*
X13010815Y-17129693D01*
X13010815Y-17129693D02*
X13001291Y-17167789D01*
X13001291Y-17167789D02*
X12991767Y-17186836D01*
X12991767Y-17186836D02*
X12982244Y-17196360D01*
X12982244Y-17196360D02*
X12963196Y-17205884D01*
X12963196Y-17205884D02*
X12944148Y-17205884D01*
X12944148Y-17205884D02*
X12925101Y-17196360D01*
X12925101Y-17196360D02*
X12915577Y-17186836D01*
X12915577Y-17186836D02*
X12906053Y-17167789D01*
X12906053Y-17167789D02*
X12896529Y-17129693D01*
X12896529Y-17129693D02*
X12896529Y-17082074D01*
X12896529Y-17082074D02*
X12906053Y-17043979D01*
X12906053Y-17043979D02*
X12915577Y-17024932D01*
X12915577Y-17024932D02*
X12925101Y-17015408D01*
X12925101Y-17015408D02*
X12944148Y-17005884D01*
X13182244Y-17072551D02*
X13182244Y-17205884D01*
X13134625Y-16996360D02*
X13087006Y-17139217D01*
X13087006Y-17139217D02*
X13210815Y-17139217D01*
X13267958Y-17005884D02*
X13401291Y-17005884D01*
X13401291Y-17005884D02*
X13315577Y-17205884D01*
X13467958Y-17024932D02*
X13477482Y-17015408D01*
X13477482Y-17015408D02*
X13496529Y-17005884D01*
X13496529Y-17005884D02*
X13544148Y-17005884D01*
X13544148Y-17005884D02*
X13563196Y-17015408D01*
X13563196Y-17015408D02*
X13572720Y-17024932D01*
X13572720Y-17024932D02*
X13582244Y-17043979D01*
X13582244Y-17043979D02*
X13582244Y-17063027D01*
X13582244Y-17063027D02*
X13572720Y-17091598D01*
X13572720Y-17091598D02*
X13458434Y-17205884D01*
X13458434Y-17205884D02*
X13582244Y-17205884D01*
X13658434Y-17005884D02*
X13658434Y-17043979D01*
X13734625Y-17005884D02*
X13734625Y-17043979D01*
X14029863Y-17282074D02*
X14020339Y-17272551D01*
X14020339Y-17272551D02*
X14001291Y-17243979D01*
X14001291Y-17243979D02*
X13991768Y-17224932D01*
X13991768Y-17224932D02*
X13982244Y-17196360D01*
X13982244Y-17196360D02*
X13972720Y-17148741D01*
X13972720Y-17148741D02*
X13972720Y-17110646D01*
X13972720Y-17110646D02*
X13982244Y-17063027D01*
X13982244Y-17063027D02*
X13991768Y-17034455D01*
X13991768Y-17034455D02*
X14001291Y-17015408D01*
X14001291Y-17015408D02*
X14020339Y-16986836D01*
X14020339Y-16986836D02*
X14029863Y-16977312D01*
X14096529Y-17024932D02*
X14106053Y-17015408D01*
X14106053Y-17015408D02*
X14125101Y-17005884D01*
X14125101Y-17005884D02*
X14172720Y-17005884D01*
X14172720Y-17005884D02*
X14191768Y-17015408D01*
X14191768Y-17015408D02*
X14201291Y-17024932D01*
X14201291Y-17024932D02*
X14210815Y-17043979D01*
X14210815Y-17043979D02*
X14210815Y-17063027D01*
X14210815Y-17063027D02*
X14201291Y-17091598D01*
X14201291Y-17091598D02*
X14087006Y-17205884D01*
X14087006Y-17205884D02*
X14210815Y-17205884D01*
X14448910Y-17205884D02*
X14448910Y-17005884D01*
X14534625Y-17205884D02*
X14534625Y-17101122D01*
X14534625Y-17101122D02*
X14525101Y-17082074D01*
X14525101Y-17082074D02*
X14506053Y-17072551D01*
X14506053Y-17072551D02*
X14477482Y-17072551D01*
X14477482Y-17072551D02*
X14458434Y-17082074D01*
X14458434Y-17082074D02*
X14448910Y-17091598D01*
X14658434Y-17205884D02*
X14639387Y-17196360D01*
X14639387Y-17196360D02*
X14629863Y-17186836D01*
X14629863Y-17186836D02*
X14620339Y-17167789D01*
X14620339Y-17167789D02*
X14620339Y-17110646D01*
X14620339Y-17110646D02*
X14629863Y-17091598D01*
X14629863Y-17091598D02*
X14639387Y-17082074D01*
X14639387Y-17082074D02*
X14658434Y-17072551D01*
X14658434Y-17072551D02*
X14687006Y-17072551D01*
X14687006Y-17072551D02*
X14706053Y-17082074D01*
X14706053Y-17082074D02*
X14715577Y-17091598D01*
X14715577Y-17091598D02*
X14725101Y-17110646D01*
X14725101Y-17110646D02*
X14725101Y-17167789D01*
X14725101Y-17167789D02*
X14715577Y-17186836D01*
X14715577Y-17186836D02*
X14706053Y-17196360D01*
X14706053Y-17196360D02*
X14687006Y-17205884D01*
X14687006Y-17205884D02*
X14658434Y-17205884D01*
X14839387Y-17205884D02*
X14820339Y-17196360D01*
X14820339Y-17196360D02*
X14810815Y-17177312D01*
X14810815Y-17177312D02*
X14810815Y-17005884D01*
X14991768Y-17196360D02*
X14972720Y-17205884D01*
X14972720Y-17205884D02*
X14934625Y-17205884D01*
X14934625Y-17205884D02*
X14915577Y-17196360D01*
X14915577Y-17196360D02*
X14906053Y-17177312D01*
X14906053Y-17177312D02*
X14906053Y-17101122D01*
X14906053Y-17101122D02*
X14915577Y-17082074D01*
X14915577Y-17082074D02*
X14934625Y-17072551D01*
X14934625Y-17072551D02*
X14972720Y-17072551D01*
X14972720Y-17072551D02*
X14991768Y-17082074D01*
X14991768Y-17082074D02*
X15001291Y-17101122D01*
X15001291Y-17101122D02*
X15001291Y-17120170D01*
X15001291Y-17120170D02*
X14906053Y-17139217D01*
X15077482Y-17196360D02*
X15096530Y-17205884D01*
X15096530Y-17205884D02*
X15134625Y-17205884D01*
X15134625Y-17205884D02*
X15153672Y-17196360D01*
X15153672Y-17196360D02*
X15163196Y-17177312D01*
X15163196Y-17177312D02*
X15163196Y-17167789D01*
X15163196Y-17167789D02*
X15153672Y-17148741D01*
X15153672Y-17148741D02*
X15134625Y-17139217D01*
X15134625Y-17139217D02*
X15106053Y-17139217D01*
X15106053Y-17139217D02*
X15087006Y-17129693D01*
X15087006Y-17129693D02*
X15077482Y-17110646D01*
X15077482Y-17110646D02*
X15077482Y-17101122D01*
X15077482Y-17101122D02*
X15087006Y-17082074D01*
X15087006Y-17082074D02*
X15106053Y-17072551D01*
X15106053Y-17072551D02*
X15134625Y-17072551D01*
X15134625Y-17072551D02*
X15153672Y-17082074D01*
X15229863Y-17282074D02*
X15239387Y-17272551D01*
X15239387Y-17272551D02*
X15258434Y-17243979D01*
X15258434Y-17243979D02*
X15267958Y-17224932D01*
X15267958Y-17224932D02*
X15277482Y-17196360D01*
X15277482Y-17196360D02*
X15287006Y-17148741D01*
X15287006Y-17148741D02*
X15287006Y-17110646D01*
X15287006Y-17110646D02*
X15277482Y-17063027D01*
X15277482Y-17063027D02*
X15267958Y-17034455D01*
X15267958Y-17034455D02*
X15258434Y-17015408D01*
X15258434Y-17015408D02*
X15239387Y-16986836D01*
X15239387Y-16986836D02*
X15229863Y-16977312D01*
X10254800Y-17278400D02*
X10454800Y-17478400D01*
X10454800Y-17278400D02*
X10254800Y-17478400D01*
X10425511Y-17449112D02*
X10425511Y-17307689D01*
X10284089Y-17307689D01*
X10284089Y-17449112D01*
X10425511Y-17449112D01*
X10810815Y-17269884D02*
X10715577Y-17269884D01*
X10715577Y-17269884D02*
X10706053Y-17365122D01*
X10706053Y-17365122D02*
X10715577Y-17355598D01*
X10715577Y-17355598D02*
X10734624Y-17346074D01*
X10734624Y-17346074D02*
X10782244Y-17346074D01*
X10782244Y-17346074D02*
X10801291Y-17355598D01*
X10801291Y-17355598D02*
X10810815Y-17365122D01*
X10810815Y-17365122D02*
X10820339Y-17384170D01*
X10820339Y-17384170D02*
X10820339Y-17431789D01*
X10820339Y-17431789D02*
X10810815Y-17450836D01*
X10810815Y-17450836D02*
X10801291Y-17460360D01*
X10801291Y-17460360D02*
X10782244Y-17469884D01*
X10782244Y-17469884D02*
X10734624Y-17469884D01*
X10734624Y-17469884D02*
X10715577Y-17460360D01*
X10715577Y-17460360D02*
X10706053Y-17450836D01*
X10906053Y-17450836D02*
X10915577Y-17460360D01*
X10915577Y-17460360D02*
X10906053Y-17469884D01*
X10906053Y-17469884D02*
X10896529Y-17460360D01*
X10896529Y-17460360D02*
X10906053Y-17450836D01*
X10906053Y-17450836D02*
X10906053Y-17469884D01*
X11039386Y-17269884D02*
X11058434Y-17269884D01*
X11058434Y-17269884D02*
X11077482Y-17279408D01*
X11077482Y-17279408D02*
X11087005Y-17288932D01*
X11087005Y-17288932D02*
X11096529Y-17307979D01*
X11096529Y-17307979D02*
X11106053Y-17346074D01*
X11106053Y-17346074D02*
X11106053Y-17393693D01*
X11106053Y-17393693D02*
X11096529Y-17431789D01*
X11096529Y-17431789D02*
X11087005Y-17450836D01*
X11087005Y-17450836D02*
X11077482Y-17460360D01*
X11077482Y-17460360D02*
X11058434Y-17469884D01*
X11058434Y-17469884D02*
X11039386Y-17469884D01*
X11039386Y-17469884D02*
X11020339Y-17460360D01*
X11020339Y-17460360D02*
X11010815Y-17450836D01*
X11010815Y-17450836D02*
X11001291Y-17431789D01*
X11001291Y-17431789D02*
X10991767Y-17393693D01*
X10991767Y-17393693D02*
X10991767Y-17346074D01*
X10991767Y-17346074D02*
X11001291Y-17307979D01*
X11001291Y-17307979D02*
X11010815Y-17288932D01*
X11010815Y-17288932D02*
X11020339Y-17279408D01*
X11020339Y-17279408D02*
X11039386Y-17269884D01*
X11229862Y-17269884D02*
X11248910Y-17269884D01*
X11248910Y-17269884D02*
X11267958Y-17279408D01*
X11267958Y-17279408D02*
X11277482Y-17288932D01*
X11277482Y-17288932D02*
X11287005Y-17307979D01*
X11287005Y-17307979D02*
X11296529Y-17346074D01*
X11296529Y-17346074D02*
X11296529Y-17393693D01*
X11296529Y-17393693D02*
X11287005Y-17431789D01*
X11287005Y-17431789D02*
X11277482Y-17450836D01*
X11277482Y-17450836D02*
X11267958Y-17460360D01*
X11267958Y-17460360D02*
X11248910Y-17469884D01*
X11248910Y-17469884D02*
X11229862Y-17469884D01*
X11229862Y-17469884D02*
X11210815Y-17460360D01*
X11210815Y-17460360D02*
X11201291Y-17450836D01*
X11201291Y-17450836D02*
X11191767Y-17431789D01*
X11191767Y-17431789D02*
X11182244Y-17393693D01*
X11182244Y-17393693D02*
X11182244Y-17346074D01*
X11182244Y-17346074D02*
X11191767Y-17307979D01*
X11191767Y-17307979D02*
X11201291Y-17288932D01*
X11201291Y-17288932D02*
X11210815Y-17279408D01*
X11210815Y-17279408D02*
X11229862Y-17269884D01*
X11420339Y-17269884D02*
X11439386Y-17269884D01*
X11439386Y-17269884D02*
X11458434Y-17279408D01*
X11458434Y-17279408D02*
X11467958Y-17288932D01*
X11467958Y-17288932D02*
X11477482Y-17307979D01*
X11477482Y-17307979D02*
X11487005Y-17346074D01*
X11487005Y-17346074D02*
X11487005Y-17393693D01*
X11487005Y-17393693D02*
X11477482Y-17431789D01*
X11477482Y-17431789D02*
X11467958Y-17450836D01*
X11467958Y-17450836D02*
X11458434Y-17460360D01*
X11458434Y-17460360D02*
X11439386Y-17469884D01*
X11439386Y-17469884D02*
X11420339Y-17469884D01*
X11420339Y-17469884D02*
X11401291Y-17460360D01*
X11401291Y-17460360D02*
X11391767Y-17450836D01*
X11391767Y-17450836D02*
X11382243Y-17431789D01*
X11382243Y-17431789D02*
X11372720Y-17393693D01*
X11372720Y-17393693D02*
X11372720Y-17346074D01*
X11372720Y-17346074D02*
X11382243Y-17307979D01*
X11382243Y-17307979D02*
X11391767Y-17288932D01*
X11391767Y-17288932D02*
X11401291Y-17279408D01*
X11401291Y-17279408D02*
X11420339Y-17269884D01*
X11572720Y-17469884D02*
X11572720Y-17336551D01*
X11572720Y-17355598D02*
X11582243Y-17346074D01*
X11582243Y-17346074D02*
X11601291Y-17336551D01*
X11601291Y-17336551D02*
X11629863Y-17336551D01*
X11629863Y-17336551D02*
X11648910Y-17346074D01*
X11648910Y-17346074D02*
X11658434Y-17365122D01*
X11658434Y-17365122D02*
X11658434Y-17469884D01*
X11658434Y-17365122D02*
X11667958Y-17346074D01*
X11667958Y-17346074D02*
X11687005Y-17336551D01*
X11687005Y-17336551D02*
X11715577Y-17336551D01*
X11715577Y-17336551D02*
X11734624Y-17346074D01*
X11734624Y-17346074D02*
X11744148Y-17365122D01*
X11744148Y-17365122D02*
X11744148Y-17469884D01*
X11839386Y-17469884D02*
X11839386Y-17336551D01*
X11839386Y-17355598D02*
X11848910Y-17346074D01*
X11848910Y-17346074D02*
X11867958Y-17336551D01*
X11867958Y-17336551D02*
X11896529Y-17336551D01*
X11896529Y-17336551D02*
X11915577Y-17346074D01*
X11915577Y-17346074D02*
X11925101Y-17365122D01*
X11925101Y-17365122D02*
X11925101Y-17469884D01*
X11925101Y-17365122D02*
X11934624Y-17346074D01*
X11934624Y-17346074D02*
X11953672Y-17336551D01*
X11953672Y-17336551D02*
X11982243Y-17336551D01*
X11982243Y-17336551D02*
X12001291Y-17346074D01*
X12001291Y-17346074D02*
X12010815Y-17365122D01*
X12010815Y-17365122D02*
X12010815Y-17469884D01*
X12401291Y-17260360D02*
X12229863Y-17517503D01*
X12658434Y-17269884D02*
X12677482Y-17269884D01*
X12677482Y-17269884D02*
X12696529Y-17279408D01*
X12696529Y-17279408D02*
X12706053Y-17288932D01*
X12706053Y-17288932D02*
X12715577Y-17307979D01*
X12715577Y-17307979D02*
X12725101Y-17346074D01*
X12725101Y-17346074D02*
X12725101Y-17393693D01*
X12725101Y-17393693D02*
X12715577Y-17431789D01*
X12715577Y-17431789D02*
X12706053Y-17450836D01*
X12706053Y-17450836D02*
X12696529Y-17460360D01*
X12696529Y-17460360D02*
X12677482Y-17469884D01*
X12677482Y-17469884D02*
X12658434Y-17469884D01*
X12658434Y-17469884D02*
X12639386Y-17460360D01*
X12639386Y-17460360D02*
X12629863Y-17450836D01*
X12629863Y-17450836D02*
X12620339Y-17431789D01*
X12620339Y-17431789D02*
X12610815Y-17393693D01*
X12610815Y-17393693D02*
X12610815Y-17346074D01*
X12610815Y-17346074D02*
X12620339Y-17307979D01*
X12620339Y-17307979D02*
X12629863Y-17288932D01*
X12629863Y-17288932D02*
X12639386Y-17279408D01*
X12639386Y-17279408D02*
X12658434Y-17269884D01*
X12810815Y-17450836D02*
X12820339Y-17460360D01*
X12820339Y-17460360D02*
X12810815Y-17469884D01*
X12810815Y-17469884D02*
X12801291Y-17460360D01*
X12801291Y-17460360D02*
X12810815Y-17450836D01*
X12810815Y-17450836D02*
X12810815Y-17469884D01*
X13010815Y-17469884D02*
X12896529Y-17469884D01*
X12953672Y-17469884D02*
X12953672Y-17269884D01*
X12953672Y-17269884D02*
X12934625Y-17298455D01*
X12934625Y-17298455D02*
X12915577Y-17317503D01*
X12915577Y-17317503D02*
X12896529Y-17327027D01*
X13106053Y-17469884D02*
X13144148Y-17469884D01*
X13144148Y-17469884D02*
X13163196Y-17460360D01*
X13163196Y-17460360D02*
X13172720Y-17450836D01*
X13172720Y-17450836D02*
X13191767Y-17422265D01*
X13191767Y-17422265D02*
X13201291Y-17384170D01*
X13201291Y-17384170D02*
X13201291Y-17307979D01*
X13201291Y-17307979D02*
X13191767Y-17288932D01*
X13191767Y-17288932D02*
X13182244Y-17279408D01*
X13182244Y-17279408D02*
X13163196Y-17269884D01*
X13163196Y-17269884D02*
X13125101Y-17269884D01*
X13125101Y-17269884D02*
X13106053Y-17279408D01*
X13106053Y-17279408D02*
X13096529Y-17288932D01*
X13096529Y-17288932D02*
X13087006Y-17307979D01*
X13087006Y-17307979D02*
X13087006Y-17355598D01*
X13087006Y-17355598D02*
X13096529Y-17374646D01*
X13096529Y-17374646D02*
X13106053Y-17384170D01*
X13106053Y-17384170D02*
X13125101Y-17393693D01*
X13125101Y-17393693D02*
X13163196Y-17393693D01*
X13163196Y-17393693D02*
X13182244Y-17384170D01*
X13182244Y-17384170D02*
X13191767Y-17374646D01*
X13191767Y-17374646D02*
X13201291Y-17355598D01*
X13372720Y-17269884D02*
X13334625Y-17269884D01*
X13334625Y-17269884D02*
X13315577Y-17279408D01*
X13315577Y-17279408D02*
X13306053Y-17288932D01*
X13306053Y-17288932D02*
X13287006Y-17317503D01*
X13287006Y-17317503D02*
X13277482Y-17355598D01*
X13277482Y-17355598D02*
X13277482Y-17431789D01*
X13277482Y-17431789D02*
X13287006Y-17450836D01*
X13287006Y-17450836D02*
X13296529Y-17460360D01*
X13296529Y-17460360D02*
X13315577Y-17469884D01*
X13315577Y-17469884D02*
X13353672Y-17469884D01*
X13353672Y-17469884D02*
X13372720Y-17460360D01*
X13372720Y-17460360D02*
X13382244Y-17450836D01*
X13382244Y-17450836D02*
X13391767Y-17431789D01*
X13391767Y-17431789D02*
X13391767Y-17384170D01*
X13391767Y-17384170D02*
X13382244Y-17365122D01*
X13382244Y-17365122D02*
X13372720Y-17355598D01*
X13372720Y-17355598D02*
X13353672Y-17346074D01*
X13353672Y-17346074D02*
X13315577Y-17346074D01*
X13315577Y-17346074D02*
X13296529Y-17355598D01*
X13296529Y-17355598D02*
X13287006Y-17365122D01*
X13287006Y-17365122D02*
X13277482Y-17384170D01*
X13487006Y-17469884D02*
X13525101Y-17469884D01*
X13525101Y-17469884D02*
X13544148Y-17460360D01*
X13544148Y-17460360D02*
X13553672Y-17450836D01*
X13553672Y-17450836D02*
X13572720Y-17422265D01*
X13572720Y-17422265D02*
X13582244Y-17384170D01*
X13582244Y-17384170D02*
X13582244Y-17307979D01*
X13582244Y-17307979D02*
X13572720Y-17288932D01*
X13572720Y-17288932D02*
X13563196Y-17279408D01*
X13563196Y-17279408D02*
X13544148Y-17269884D01*
X13544148Y-17269884D02*
X13506053Y-17269884D01*
X13506053Y-17269884D02*
X13487006Y-17279408D01*
X13487006Y-17279408D02*
X13477482Y-17288932D01*
X13477482Y-17288932D02*
X13467958Y-17307979D01*
X13467958Y-17307979D02*
X13467958Y-17355598D01*
X13467958Y-17355598D02*
X13477482Y-17374646D01*
X13477482Y-17374646D02*
X13487006Y-17384170D01*
X13487006Y-17384170D02*
X13506053Y-17393693D01*
X13506053Y-17393693D02*
X13544148Y-17393693D01*
X13544148Y-17393693D02*
X13563196Y-17384170D01*
X13563196Y-17384170D02*
X13572720Y-17374646D01*
X13572720Y-17374646D02*
X13582244Y-17355598D01*
X13658434Y-17269884D02*
X13658434Y-17307979D01*
X13734625Y-17269884D02*
X13734625Y-17307979D01*
X14029863Y-17546074D02*
X14020339Y-17536551D01*
X14020339Y-17536551D02*
X14001291Y-17507979D01*
X14001291Y-17507979D02*
X13991768Y-17488932D01*
X13991768Y-17488932D02*
X13982244Y-17460360D01*
X13982244Y-17460360D02*
X13972720Y-17412741D01*
X13972720Y-17412741D02*
X13972720Y-17374646D01*
X13972720Y-17374646D02*
X13982244Y-17327027D01*
X13982244Y-17327027D02*
X13991768Y-17298455D01*
X13991768Y-17298455D02*
X14001291Y-17279408D01*
X14001291Y-17279408D02*
X14020339Y-17250836D01*
X14020339Y-17250836D02*
X14029863Y-17241312D01*
X14201291Y-17269884D02*
X14106053Y-17269884D01*
X14106053Y-17269884D02*
X14096529Y-17365122D01*
X14096529Y-17365122D02*
X14106053Y-17355598D01*
X14106053Y-17355598D02*
X14125101Y-17346074D01*
X14125101Y-17346074D02*
X14172720Y-17346074D01*
X14172720Y-17346074D02*
X14191768Y-17355598D01*
X14191768Y-17355598D02*
X14201291Y-17365122D01*
X14201291Y-17365122D02*
X14210815Y-17384170D01*
X14210815Y-17384170D02*
X14210815Y-17431789D01*
X14210815Y-17431789D02*
X14201291Y-17450836D01*
X14201291Y-17450836D02*
X14191768Y-17460360D01*
X14191768Y-17460360D02*
X14172720Y-17469884D01*
X14172720Y-17469884D02*
X14125101Y-17469884D01*
X14125101Y-17469884D02*
X14106053Y-17460360D01*
X14106053Y-17460360D02*
X14096529Y-17450836D01*
X14448910Y-17469884D02*
X14448910Y-17269884D01*
X14534625Y-17469884D02*
X14534625Y-17365122D01*
X14534625Y-17365122D02*
X14525101Y-17346074D01*
X14525101Y-17346074D02*
X14506053Y-17336551D01*
X14506053Y-17336551D02*
X14477482Y-17336551D01*
X14477482Y-17336551D02*
X14458434Y-17346074D01*
X14458434Y-17346074D02*
X14448910Y-17355598D01*
X14658434Y-17469884D02*
X14639387Y-17460360D01*
X14639387Y-17460360D02*
X14629863Y-17450836D01*
X14629863Y-17450836D02*
X14620339Y-17431789D01*
X14620339Y-17431789D02*
X14620339Y-17374646D01*
X14620339Y-17374646D02*
X14629863Y-17355598D01*
X14629863Y-17355598D02*
X14639387Y-17346074D01*
X14639387Y-17346074D02*
X14658434Y-17336551D01*
X14658434Y-17336551D02*
X14687006Y-17336551D01*
X14687006Y-17336551D02*
X14706053Y-17346074D01*
X14706053Y-17346074D02*
X14715577Y-17355598D01*
X14715577Y-17355598D02*
X14725101Y-17374646D01*
X14725101Y-17374646D02*
X14725101Y-17431789D01*
X14725101Y-17431789D02*
X14715577Y-17450836D01*
X14715577Y-17450836D02*
X14706053Y-17460360D01*
X14706053Y-17460360D02*
X14687006Y-17469884D01*
X14687006Y-17469884D02*
X14658434Y-17469884D01*
X14839387Y-17469884D02*
X14820339Y-17460360D01*
X14820339Y-17460360D02*
X14810815Y-17441312D01*
X14810815Y-17441312D02*
X14810815Y-17269884D01*
X14991768Y-17460360D02*
X14972720Y-17469884D01*
X14972720Y-17469884D02*
X14934625Y-17469884D01*
X14934625Y-17469884D02*
X14915577Y-17460360D01*
X14915577Y-17460360D02*
X14906053Y-17441312D01*
X14906053Y-17441312D02*
X14906053Y-17365122D01*
X14906053Y-17365122D02*
X14915577Y-17346074D01*
X14915577Y-17346074D02*
X14934625Y-17336551D01*
X14934625Y-17336551D02*
X14972720Y-17336551D01*
X14972720Y-17336551D02*
X14991768Y-17346074D01*
X14991768Y-17346074D02*
X15001291Y-17365122D01*
X15001291Y-17365122D02*
X15001291Y-17384170D01*
X15001291Y-17384170D02*
X14906053Y-17403217D01*
X15077482Y-17460360D02*
X15096530Y-17469884D01*
X15096530Y-17469884D02*
X15134625Y-17469884D01*
X15134625Y-17469884D02*
X15153672Y-17460360D01*
X15153672Y-17460360D02*
X15163196Y-17441312D01*
X15163196Y-17441312D02*
X15163196Y-17431789D01*
X15163196Y-17431789D02*
X15153672Y-17412741D01*
X15153672Y-17412741D02*
X15134625Y-17403217D01*
X15134625Y-17403217D02*
X15106053Y-17403217D01*
X15106053Y-17403217D02*
X15087006Y-17393693D01*
X15087006Y-17393693D02*
X15077482Y-17374646D01*
X15077482Y-17374646D02*
X15077482Y-17365122D01*
X15077482Y-17365122D02*
X15087006Y-17346074D01*
X15087006Y-17346074D02*
X15106053Y-17336551D01*
X15106053Y-17336551D02*
X15134625Y-17336551D01*
X15134625Y-17336551D02*
X15153672Y-17346074D01*
X15229863Y-17546074D02*
X15239387Y-17536551D01*
X15239387Y-17536551D02*
X15258434Y-17507979D01*
X15258434Y-17507979D02*
X15267958Y-17488932D01*
X15267958Y-17488932D02*
X15277482Y-17460360D01*
X15277482Y-17460360D02*
X15287006Y-17412741D01*
X15287006Y-17412741D02*
X15287006Y-17374646D01*
X15287006Y-17374646D02*
X15277482Y-17327027D01*
X15277482Y-17327027D02*
X15267958Y-17298455D01*
X15267958Y-17298455D02*
X15258434Y-17279408D01*
X15258434Y-17279408D02*
X15239387Y-17250836D01*
X15239387Y-17250836D02*
X15229863Y-17241312D01*
M02*
