%TF.GenerationSoftware,KiCad,Pcbnew,8.0.5*%
%TF.CreationDate,2024-12-03T18:07:43+01:00*%
%TF.ProjectId,ESC_drivers 1.4,4553435f-6472-4697-9665-727320312e34,rev?*%
%TF.SameCoordinates,Original*%
%TF.FileFunction,Legend,Top*%
%TF.FilePolarity,Positive*%
%FSLAX46Y46*%
G04 Gerber Fmt 4.6, Leading zero omitted, Abs format (unit mm)*
G04 Created by KiCad (PCBNEW 8.0.5) date 2024-12-03 18:07:43*
%MOMM*%
%LPD*%
G01*
G04 APERTURE LIST*
%ADD10C,0.400000*%
%ADD11C,0.150000*%
%ADD12C,0.200000*%
%ADD13C,0.100000*%
%ADD14C,0.120000*%
G04 APERTURE END LIST*
D10*
X196478014Y-71920931D02*
X196763728Y-72016169D01*
X196763728Y-72016169D02*
X196858966Y-72111407D01*
X196858966Y-72111407D02*
X196954204Y-72301883D01*
X196954204Y-72301883D02*
X196954204Y-72587597D01*
X196954204Y-72587597D02*
X196858966Y-72778073D01*
X196858966Y-72778073D02*
X196763728Y-72873312D01*
X196763728Y-72873312D02*
X196573252Y-72968550D01*
X196573252Y-72968550D02*
X195811347Y-72968550D01*
X195811347Y-72968550D02*
X195811347Y-70968550D01*
X195811347Y-70968550D02*
X196478014Y-70968550D01*
X196478014Y-70968550D02*
X196668490Y-71063788D01*
X196668490Y-71063788D02*
X196763728Y-71159026D01*
X196763728Y-71159026D02*
X196858966Y-71349502D01*
X196858966Y-71349502D02*
X196858966Y-71539978D01*
X196858966Y-71539978D02*
X196763728Y-71730454D01*
X196763728Y-71730454D02*
X196668490Y-71825692D01*
X196668490Y-71825692D02*
X196478014Y-71920931D01*
X196478014Y-71920931D02*
X195811347Y-71920931D01*
X197716109Y-72397121D02*
X198668490Y-72397121D01*
X197525633Y-72968550D02*
X198192299Y-70968550D01*
X198192299Y-70968550D02*
X198858966Y-72968550D01*
X199239919Y-70968550D02*
X200382776Y-70968550D01*
X199811347Y-72968550D02*
X199811347Y-70968550D01*
X201049443Y-72206645D02*
X202573253Y-72206645D01*
X196858966Y-74283676D02*
X196668490Y-74188438D01*
X196668490Y-74188438D02*
X196382776Y-74188438D01*
X196382776Y-74188438D02*
X196097061Y-74283676D01*
X196097061Y-74283676D02*
X195906585Y-74474152D01*
X195906585Y-74474152D02*
X195811347Y-74664628D01*
X195811347Y-74664628D02*
X195716109Y-75045580D01*
X195716109Y-75045580D02*
X195716109Y-75331295D01*
X195716109Y-75331295D02*
X195811347Y-75712247D01*
X195811347Y-75712247D02*
X195906585Y-75902723D01*
X195906585Y-75902723D02*
X196097061Y-76093200D01*
X196097061Y-76093200D02*
X196382776Y-76188438D01*
X196382776Y-76188438D02*
X196573252Y-76188438D01*
X196573252Y-76188438D02*
X196858966Y-76093200D01*
X196858966Y-76093200D02*
X196954204Y-75997961D01*
X196954204Y-75997961D02*
X196954204Y-75331295D01*
X196954204Y-75331295D02*
X196573252Y-75331295D01*
X197811347Y-76188438D02*
X197811347Y-74188438D01*
X197811347Y-74188438D02*
X198954204Y-76188438D01*
X198954204Y-76188438D02*
X198954204Y-74188438D01*
X199906585Y-76188438D02*
X199906585Y-74188438D01*
X199906585Y-74188438D02*
X200382775Y-74188438D01*
X200382775Y-74188438D02*
X200668490Y-74283676D01*
X200668490Y-74283676D02*
X200858966Y-74474152D01*
X200858966Y-74474152D02*
X200954204Y-74664628D01*
X200954204Y-74664628D02*
X201049442Y-75045580D01*
X201049442Y-75045580D02*
X201049442Y-75331295D01*
X201049442Y-75331295D02*
X200954204Y-75712247D01*
X200954204Y-75712247D02*
X200858966Y-75902723D01*
X200858966Y-75902723D02*
X200668490Y-76093200D01*
X200668490Y-76093200D02*
X200382775Y-76188438D01*
X200382775Y-76188438D02*
X199906585Y-76188438D01*
D11*
X176850561Y-85188588D02*
X176898180Y-85093350D01*
X176898180Y-85093350D02*
X176898180Y-84950493D01*
X176898180Y-84950493D02*
X176850561Y-84807636D01*
X176850561Y-84807636D02*
X176755323Y-84712398D01*
X176755323Y-84712398D02*
X176660085Y-84664779D01*
X176660085Y-84664779D02*
X176469609Y-84617160D01*
X176469609Y-84617160D02*
X176326752Y-84617160D01*
X176326752Y-84617160D02*
X176136276Y-84664779D01*
X176136276Y-84664779D02*
X176041038Y-84712398D01*
X176041038Y-84712398D02*
X175945800Y-84807636D01*
X175945800Y-84807636D02*
X175898180Y-84950493D01*
X175898180Y-84950493D02*
X175898180Y-85045731D01*
X175898180Y-85045731D02*
X175945800Y-85188588D01*
X175945800Y-85188588D02*
X175993419Y-85236207D01*
X175993419Y-85236207D02*
X176326752Y-85236207D01*
X176326752Y-85236207D02*
X176326752Y-85045731D01*
X175898180Y-85664779D02*
X176898180Y-85664779D01*
X176898180Y-85664779D02*
X175898180Y-86236207D01*
X175898180Y-86236207D02*
X176898180Y-86236207D01*
X175898180Y-86712398D02*
X176898180Y-86712398D01*
X176898180Y-86712398D02*
X176898180Y-86950493D01*
X176898180Y-86950493D02*
X176850561Y-87093350D01*
X176850561Y-87093350D02*
X176755323Y-87188588D01*
X176755323Y-87188588D02*
X176660085Y-87236207D01*
X176660085Y-87236207D02*
X176469609Y-87283826D01*
X176469609Y-87283826D02*
X176326752Y-87283826D01*
X176326752Y-87283826D02*
X176136276Y-87236207D01*
X176136276Y-87236207D02*
X176041038Y-87188588D01*
X176041038Y-87188588D02*
X175945800Y-87093350D01*
X175945800Y-87093350D02*
X175898180Y-86950493D01*
X175898180Y-86950493D02*
X175898180Y-86712398D01*
X176898180Y-88331446D02*
X176898180Y-88902874D01*
X175898180Y-88617160D02*
X176898180Y-88617160D01*
X176898180Y-89140970D02*
X175898180Y-89807636D01*
X176898180Y-89807636D02*
X175898180Y-89140970D01*
X175898180Y-91521922D02*
X176374371Y-91188589D01*
X175898180Y-90950494D02*
X176898180Y-90950494D01*
X176898180Y-90950494D02*
X176898180Y-91331446D01*
X176898180Y-91331446D02*
X176850561Y-91426684D01*
X176850561Y-91426684D02*
X176802942Y-91474303D01*
X176802942Y-91474303D02*
X176707704Y-91521922D01*
X176707704Y-91521922D02*
X176564847Y-91521922D01*
X176564847Y-91521922D02*
X176469609Y-91474303D01*
X176469609Y-91474303D02*
X176421990Y-91426684D01*
X176421990Y-91426684D02*
X176374371Y-91331446D01*
X176374371Y-91331446D02*
X176374371Y-90950494D01*
X176898180Y-91855256D02*
X175898180Y-92521922D01*
X176898180Y-92521922D02*
X175898180Y-91855256D01*
D10*
X196478014Y-61932819D02*
X196763728Y-62028057D01*
X196763728Y-62028057D02*
X196858966Y-62123295D01*
X196858966Y-62123295D02*
X196954204Y-62313771D01*
X196954204Y-62313771D02*
X196954204Y-62599485D01*
X196954204Y-62599485D02*
X196858966Y-62789961D01*
X196858966Y-62789961D02*
X196763728Y-62885200D01*
X196763728Y-62885200D02*
X196573252Y-62980438D01*
X196573252Y-62980438D02*
X195811347Y-62980438D01*
X195811347Y-62980438D02*
X195811347Y-60980438D01*
X195811347Y-60980438D02*
X196478014Y-60980438D01*
X196478014Y-60980438D02*
X196668490Y-61075676D01*
X196668490Y-61075676D02*
X196763728Y-61170914D01*
X196763728Y-61170914D02*
X196858966Y-61361390D01*
X196858966Y-61361390D02*
X196858966Y-61551866D01*
X196858966Y-61551866D02*
X196763728Y-61742342D01*
X196763728Y-61742342D02*
X196668490Y-61837580D01*
X196668490Y-61837580D02*
X196478014Y-61932819D01*
X196478014Y-61932819D02*
X195811347Y-61932819D01*
X197716109Y-62409009D02*
X198668490Y-62409009D01*
X197525633Y-62980438D02*
X198192299Y-60980438D01*
X198192299Y-60980438D02*
X198858966Y-62980438D01*
X199239919Y-60980438D02*
X200382776Y-60980438D01*
X199811347Y-62980438D02*
X199811347Y-60980438D01*
X201049443Y-62218533D02*
X202573253Y-62218533D01*
X201811348Y-62980438D02*
X201811348Y-61456628D01*
D12*
X115130054Y-50950600D02*
X115272911Y-50998219D01*
X115272911Y-50998219D02*
X115511006Y-50998219D01*
X115511006Y-50998219D02*
X115606244Y-50950600D01*
X115606244Y-50950600D02*
X115653863Y-50902980D01*
X115653863Y-50902980D02*
X115701482Y-50807742D01*
X115701482Y-50807742D02*
X115701482Y-50712504D01*
X115701482Y-50712504D02*
X115653863Y-50617266D01*
X115653863Y-50617266D02*
X115606244Y-50569647D01*
X115606244Y-50569647D02*
X115511006Y-50522028D01*
X115511006Y-50522028D02*
X115320530Y-50474409D01*
X115320530Y-50474409D02*
X115225292Y-50426790D01*
X115225292Y-50426790D02*
X115177673Y-50379171D01*
X115177673Y-50379171D02*
X115130054Y-50283933D01*
X115130054Y-50283933D02*
X115130054Y-50188695D01*
X115130054Y-50188695D02*
X115177673Y-50093457D01*
X115177673Y-50093457D02*
X115225292Y-50045838D01*
X115225292Y-50045838D02*
X115320530Y-49998219D01*
X115320530Y-49998219D02*
X115558625Y-49998219D01*
X115558625Y-49998219D02*
X115701482Y-50045838D01*
X116130054Y-50998219D02*
X116130054Y-49998219D01*
X116130054Y-49998219D02*
X116511006Y-49998219D01*
X116511006Y-49998219D02*
X116606244Y-50045838D01*
X116606244Y-50045838D02*
X116653863Y-50093457D01*
X116653863Y-50093457D02*
X116701482Y-50188695D01*
X116701482Y-50188695D02*
X116701482Y-50331552D01*
X116701482Y-50331552D02*
X116653863Y-50426790D01*
X116653863Y-50426790D02*
X116606244Y-50474409D01*
X116606244Y-50474409D02*
X116511006Y-50522028D01*
X116511006Y-50522028D02*
X116130054Y-50522028D01*
X117701482Y-50998219D02*
X117368149Y-50522028D01*
X117130054Y-50998219D02*
X117130054Y-49998219D01*
X117130054Y-49998219D02*
X117511006Y-49998219D01*
X117511006Y-49998219D02*
X117606244Y-50045838D01*
X117606244Y-50045838D02*
X117653863Y-50093457D01*
X117653863Y-50093457D02*
X117701482Y-50188695D01*
X117701482Y-50188695D02*
X117701482Y-50331552D01*
X117701482Y-50331552D02*
X117653863Y-50426790D01*
X117653863Y-50426790D02*
X117606244Y-50474409D01*
X117606244Y-50474409D02*
X117511006Y-50522028D01*
X117511006Y-50522028D02*
X117130054Y-50522028D01*
X118320530Y-49998219D02*
X118511006Y-49998219D01*
X118511006Y-49998219D02*
X118606244Y-50045838D01*
X118606244Y-50045838D02*
X118701482Y-50141076D01*
X118701482Y-50141076D02*
X118749101Y-50331552D01*
X118749101Y-50331552D02*
X118749101Y-50664885D01*
X118749101Y-50664885D02*
X118701482Y-50855361D01*
X118701482Y-50855361D02*
X118606244Y-50950600D01*
X118606244Y-50950600D02*
X118511006Y-50998219D01*
X118511006Y-50998219D02*
X118320530Y-50998219D01*
X118320530Y-50998219D02*
X118225292Y-50950600D01*
X118225292Y-50950600D02*
X118130054Y-50855361D01*
X118130054Y-50855361D02*
X118082435Y-50664885D01*
X118082435Y-50664885D02*
X118082435Y-50331552D01*
X118082435Y-50331552D02*
X118130054Y-50141076D01*
X118130054Y-50141076D02*
X118225292Y-50045838D01*
X118225292Y-50045838D02*
X118320530Y-49998219D01*
X119463387Y-49998219D02*
X119463387Y-50712504D01*
X119463387Y-50712504D02*
X119415768Y-50855361D01*
X119415768Y-50855361D02*
X119320530Y-50950600D01*
X119320530Y-50950600D02*
X119177673Y-50998219D01*
X119177673Y-50998219D02*
X119082435Y-50998219D01*
X119844340Y-49998219D02*
X120463387Y-49998219D01*
X120463387Y-49998219D02*
X120130054Y-50379171D01*
X120130054Y-50379171D02*
X120272911Y-50379171D01*
X120272911Y-50379171D02*
X120368149Y-50426790D01*
X120368149Y-50426790D02*
X120415768Y-50474409D01*
X120415768Y-50474409D02*
X120463387Y-50569647D01*
X120463387Y-50569647D02*
X120463387Y-50807742D01*
X120463387Y-50807742D02*
X120415768Y-50902980D01*
X120415768Y-50902980D02*
X120368149Y-50950600D01*
X120368149Y-50950600D02*
X120272911Y-50998219D01*
X120272911Y-50998219D02*
X119987197Y-50998219D01*
X119987197Y-50998219D02*
X119891959Y-50950600D01*
X119891959Y-50950600D02*
X119844340Y-50902980D01*
X120891959Y-50474409D02*
X121225292Y-50474409D01*
X121368149Y-50998219D02*
X120891959Y-50998219D01*
X120891959Y-50998219D02*
X120891959Y-49998219D01*
X120891959Y-49998219D02*
X121368149Y-49998219D01*
X121796721Y-50474409D02*
X122130054Y-50474409D01*
X122272911Y-50998219D02*
X121796721Y-50998219D01*
X121796721Y-50998219D02*
X121796721Y-49998219D01*
X121796721Y-49998219D02*
X122272911Y-49998219D01*
X123987197Y-50045838D02*
X123891959Y-49998219D01*
X123891959Y-49998219D02*
X123749102Y-49998219D01*
X123749102Y-49998219D02*
X123606245Y-50045838D01*
X123606245Y-50045838D02*
X123511007Y-50141076D01*
X123511007Y-50141076D02*
X123463388Y-50236314D01*
X123463388Y-50236314D02*
X123415769Y-50426790D01*
X123415769Y-50426790D02*
X123415769Y-50569647D01*
X123415769Y-50569647D02*
X123463388Y-50760123D01*
X123463388Y-50760123D02*
X123511007Y-50855361D01*
X123511007Y-50855361D02*
X123606245Y-50950600D01*
X123606245Y-50950600D02*
X123749102Y-50998219D01*
X123749102Y-50998219D02*
X123844340Y-50998219D01*
X123844340Y-50998219D02*
X123987197Y-50950600D01*
X123987197Y-50950600D02*
X124034816Y-50902980D01*
X124034816Y-50902980D02*
X124034816Y-50569647D01*
X124034816Y-50569647D02*
X123844340Y-50569647D01*
X124463388Y-50998219D02*
X124463388Y-50331552D01*
X124463388Y-50522028D02*
X124511007Y-50426790D01*
X124511007Y-50426790D02*
X124558626Y-50379171D01*
X124558626Y-50379171D02*
X124653864Y-50331552D01*
X124653864Y-50331552D02*
X124749102Y-50331552D01*
X125225293Y-50998219D02*
X125130055Y-50950600D01*
X125130055Y-50950600D02*
X125082436Y-50902980D01*
X125082436Y-50902980D02*
X125034817Y-50807742D01*
X125034817Y-50807742D02*
X125034817Y-50522028D01*
X125034817Y-50522028D02*
X125082436Y-50426790D01*
X125082436Y-50426790D02*
X125130055Y-50379171D01*
X125130055Y-50379171D02*
X125225293Y-50331552D01*
X125225293Y-50331552D02*
X125368150Y-50331552D01*
X125368150Y-50331552D02*
X125463388Y-50379171D01*
X125463388Y-50379171D02*
X125511007Y-50426790D01*
X125511007Y-50426790D02*
X125558626Y-50522028D01*
X125558626Y-50522028D02*
X125558626Y-50807742D01*
X125558626Y-50807742D02*
X125511007Y-50902980D01*
X125511007Y-50902980D02*
X125463388Y-50950600D01*
X125463388Y-50950600D02*
X125368150Y-50998219D01*
X125368150Y-50998219D02*
X125225293Y-50998219D01*
X126415769Y-50331552D02*
X126415769Y-50998219D01*
X125987198Y-50331552D02*
X125987198Y-50855361D01*
X125987198Y-50855361D02*
X126034817Y-50950600D01*
X126034817Y-50950600D02*
X126130055Y-50998219D01*
X126130055Y-50998219D02*
X126272912Y-50998219D01*
X126272912Y-50998219D02*
X126368150Y-50950600D01*
X126368150Y-50950600D02*
X126415769Y-50902980D01*
X126891960Y-50331552D02*
X126891960Y-51331552D01*
X126891960Y-50379171D02*
X126987198Y-50331552D01*
X126987198Y-50331552D02*
X127177674Y-50331552D01*
X127177674Y-50331552D02*
X127272912Y-50379171D01*
X127272912Y-50379171D02*
X127320531Y-50426790D01*
X127320531Y-50426790D02*
X127368150Y-50522028D01*
X127368150Y-50522028D02*
X127368150Y-50807742D01*
X127368150Y-50807742D02*
X127320531Y-50902980D01*
X127320531Y-50902980D02*
X127272912Y-50950600D01*
X127272912Y-50950600D02*
X127177674Y-50998219D01*
X127177674Y-50998219D02*
X126987198Y-50998219D01*
X126987198Y-50998219D02*
X126891960Y-50950600D01*
X128463389Y-49998219D02*
X129082436Y-49998219D01*
X129082436Y-49998219D02*
X128749103Y-50379171D01*
X128749103Y-50379171D02*
X128891960Y-50379171D01*
X128891960Y-50379171D02*
X128987198Y-50426790D01*
X128987198Y-50426790D02*
X129034817Y-50474409D01*
X129034817Y-50474409D02*
X129082436Y-50569647D01*
X129082436Y-50569647D02*
X129082436Y-50807742D01*
X129082436Y-50807742D02*
X129034817Y-50902980D01*
X129034817Y-50902980D02*
X128987198Y-50950600D01*
X128987198Y-50950600D02*
X128891960Y-50998219D01*
X128891960Y-50998219D02*
X128606246Y-50998219D01*
X128606246Y-50998219D02*
X128511008Y-50950600D01*
X128511008Y-50950600D02*
X128463389Y-50902980D01*
X130272913Y-50617266D02*
X131034818Y-50617266D01*
X132272913Y-50474409D02*
X132606246Y-50474409D01*
X132749103Y-50998219D02*
X132272913Y-50998219D01*
X132272913Y-50998219D02*
X132272913Y-49998219D01*
X132272913Y-49998219D02*
X132749103Y-49998219D01*
X133130056Y-50950600D02*
X133272913Y-50998219D01*
X133272913Y-50998219D02*
X133511008Y-50998219D01*
X133511008Y-50998219D02*
X133606246Y-50950600D01*
X133606246Y-50950600D02*
X133653865Y-50902980D01*
X133653865Y-50902980D02*
X133701484Y-50807742D01*
X133701484Y-50807742D02*
X133701484Y-50712504D01*
X133701484Y-50712504D02*
X133653865Y-50617266D01*
X133653865Y-50617266D02*
X133606246Y-50569647D01*
X133606246Y-50569647D02*
X133511008Y-50522028D01*
X133511008Y-50522028D02*
X133320532Y-50474409D01*
X133320532Y-50474409D02*
X133225294Y-50426790D01*
X133225294Y-50426790D02*
X133177675Y-50379171D01*
X133177675Y-50379171D02*
X133130056Y-50283933D01*
X133130056Y-50283933D02*
X133130056Y-50188695D01*
X133130056Y-50188695D02*
X133177675Y-50093457D01*
X133177675Y-50093457D02*
X133225294Y-50045838D01*
X133225294Y-50045838D02*
X133320532Y-49998219D01*
X133320532Y-49998219D02*
X133558627Y-49998219D01*
X133558627Y-49998219D02*
X133701484Y-50045838D01*
X134701484Y-50902980D02*
X134653865Y-50950600D01*
X134653865Y-50950600D02*
X134511008Y-50998219D01*
X134511008Y-50998219D02*
X134415770Y-50998219D01*
X134415770Y-50998219D02*
X134272913Y-50950600D01*
X134272913Y-50950600D02*
X134177675Y-50855361D01*
X134177675Y-50855361D02*
X134130056Y-50760123D01*
X134130056Y-50760123D02*
X134082437Y-50569647D01*
X134082437Y-50569647D02*
X134082437Y-50426790D01*
X134082437Y-50426790D02*
X134130056Y-50236314D01*
X134130056Y-50236314D02*
X134177675Y-50141076D01*
X134177675Y-50141076D02*
X134272913Y-50045838D01*
X134272913Y-50045838D02*
X134415770Y-49998219D01*
X134415770Y-49998219D02*
X134511008Y-49998219D01*
X134511008Y-49998219D02*
X134653865Y-50045838D01*
X134653865Y-50045838D02*
X134701484Y-50093457D01*
D11*
X142068779Y-111868009D02*
X142402112Y-111868009D01*
X142544969Y-112391819D02*
X142068779Y-112391819D01*
X142068779Y-112391819D02*
X142068779Y-111391819D01*
X142068779Y-111391819D02*
X142544969Y-111391819D01*
X142925922Y-112344200D02*
X143068779Y-112391819D01*
X143068779Y-112391819D02*
X143306874Y-112391819D01*
X143306874Y-112391819D02*
X143402112Y-112344200D01*
X143402112Y-112344200D02*
X143449731Y-112296580D01*
X143449731Y-112296580D02*
X143497350Y-112201342D01*
X143497350Y-112201342D02*
X143497350Y-112106104D01*
X143497350Y-112106104D02*
X143449731Y-112010866D01*
X143449731Y-112010866D02*
X143402112Y-111963247D01*
X143402112Y-111963247D02*
X143306874Y-111915628D01*
X143306874Y-111915628D02*
X143116398Y-111868009D01*
X143116398Y-111868009D02*
X143021160Y-111820390D01*
X143021160Y-111820390D02*
X142973541Y-111772771D01*
X142973541Y-111772771D02*
X142925922Y-111677533D01*
X142925922Y-111677533D02*
X142925922Y-111582295D01*
X142925922Y-111582295D02*
X142973541Y-111487057D01*
X142973541Y-111487057D02*
X143021160Y-111439438D01*
X143021160Y-111439438D02*
X143116398Y-111391819D01*
X143116398Y-111391819D02*
X143354493Y-111391819D01*
X143354493Y-111391819D02*
X143497350Y-111439438D01*
X144497350Y-112296580D02*
X144449731Y-112344200D01*
X144449731Y-112344200D02*
X144306874Y-112391819D01*
X144306874Y-112391819D02*
X144211636Y-112391819D01*
X144211636Y-112391819D02*
X144068779Y-112344200D01*
X144068779Y-112344200D02*
X143973541Y-112248961D01*
X143973541Y-112248961D02*
X143925922Y-112153723D01*
X143925922Y-112153723D02*
X143878303Y-111963247D01*
X143878303Y-111963247D02*
X143878303Y-111820390D01*
X143878303Y-111820390D02*
X143925922Y-111629914D01*
X143925922Y-111629914D02*
X143973541Y-111534676D01*
X143973541Y-111534676D02*
X144068779Y-111439438D01*
X144068779Y-111439438D02*
X144211636Y-111391819D01*
X144211636Y-111391819D02*
X144306874Y-111391819D01*
X144306874Y-111391819D02*
X144449731Y-111439438D01*
X144449731Y-111439438D02*
X144497350Y-111487057D01*
X145687827Y-111868009D02*
X146021160Y-111868009D01*
X146164017Y-112391819D02*
X145687827Y-112391819D01*
X145687827Y-112391819D02*
X145687827Y-111391819D01*
X145687827Y-111391819D02*
X146164017Y-111391819D01*
X146592589Y-112391819D02*
X146592589Y-111391819D01*
X146592589Y-111391819D02*
X147164017Y-112391819D01*
X147164017Y-112391819D02*
X147164017Y-111391819D01*
X167999583Y-82671780D02*
X168047203Y-82719399D01*
X168047203Y-82719399D02*
X168094822Y-82862256D01*
X168094822Y-82862256D02*
X168094822Y-82957494D01*
X168094822Y-82957494D02*
X168047203Y-83100351D01*
X168047203Y-83100351D02*
X167951964Y-83195589D01*
X167951964Y-83195589D02*
X167856726Y-83243208D01*
X167856726Y-83243208D02*
X167666250Y-83290827D01*
X167666250Y-83290827D02*
X167523393Y-83290827D01*
X167523393Y-83290827D02*
X167332917Y-83243208D01*
X167332917Y-83243208D02*
X167237679Y-83195589D01*
X167237679Y-83195589D02*
X167142441Y-83100351D01*
X167142441Y-83100351D02*
X167094822Y-82957494D01*
X167094822Y-82957494D02*
X167094822Y-82862256D01*
X167094822Y-82862256D02*
X167142441Y-82719399D01*
X167142441Y-82719399D02*
X167190060Y-82671780D01*
X167094822Y-82338446D02*
X167094822Y-81719399D01*
X167094822Y-81719399D02*
X167475774Y-82052732D01*
X167475774Y-82052732D02*
X167475774Y-81909875D01*
X167475774Y-81909875D02*
X167523393Y-81814637D01*
X167523393Y-81814637D02*
X167571012Y-81767018D01*
X167571012Y-81767018D02*
X167666250Y-81719399D01*
X167666250Y-81719399D02*
X167904345Y-81719399D01*
X167904345Y-81719399D02*
X167999583Y-81767018D01*
X167999583Y-81767018D02*
X168047203Y-81814637D01*
X168047203Y-81814637D02*
X168094822Y-81909875D01*
X168094822Y-81909875D02*
X168094822Y-82195589D01*
X168094822Y-82195589D02*
X168047203Y-82290827D01*
X168047203Y-82290827D02*
X167999583Y-82338446D01*
D13*
X117506761Y-106724657D02*
X117411523Y-106677038D01*
X117411523Y-106677038D02*
X117316285Y-106581800D01*
X117316285Y-106581800D02*
X117173428Y-106438942D01*
X117173428Y-106438942D02*
X117078190Y-106391323D01*
X117078190Y-106391323D02*
X116982952Y-106391323D01*
X117030571Y-106629419D02*
X116935333Y-106581800D01*
X116935333Y-106581800D02*
X116840095Y-106486561D01*
X116840095Y-106486561D02*
X116792476Y-106296085D01*
X116792476Y-106296085D02*
X116792476Y-105962752D01*
X116792476Y-105962752D02*
X116840095Y-105772276D01*
X116840095Y-105772276D02*
X116935333Y-105677038D01*
X116935333Y-105677038D02*
X117030571Y-105629419D01*
X117030571Y-105629419D02*
X117221047Y-105629419D01*
X117221047Y-105629419D02*
X117316285Y-105677038D01*
X117316285Y-105677038D02*
X117411523Y-105772276D01*
X117411523Y-105772276D02*
X117459142Y-105962752D01*
X117459142Y-105962752D02*
X117459142Y-106296085D01*
X117459142Y-106296085D02*
X117411523Y-106486561D01*
X117411523Y-106486561D02*
X117316285Y-106581800D01*
X117316285Y-106581800D02*
X117221047Y-106629419D01*
X117221047Y-106629419D02*
X117030571Y-106629419D01*
X118363904Y-105629419D02*
X117887714Y-105629419D01*
X117887714Y-105629419D02*
X117840095Y-106105609D01*
X117840095Y-106105609D02*
X117887714Y-106057990D01*
X117887714Y-106057990D02*
X117982952Y-106010371D01*
X117982952Y-106010371D02*
X118221047Y-106010371D01*
X118221047Y-106010371D02*
X118316285Y-106057990D01*
X118316285Y-106057990D02*
X118363904Y-106105609D01*
X118363904Y-106105609D02*
X118411523Y-106200847D01*
X118411523Y-106200847D02*
X118411523Y-106438942D01*
X118411523Y-106438942D02*
X118363904Y-106534180D01*
X118363904Y-106534180D02*
X118316285Y-106581800D01*
X118316285Y-106581800D02*
X118221047Y-106629419D01*
X118221047Y-106629419D02*
X117982952Y-106629419D01*
X117982952Y-106629419D02*
X117887714Y-106581800D01*
X117887714Y-106581800D02*
X117840095Y-106534180D01*
D11*
X150201333Y-104340819D02*
X149868000Y-103864628D01*
X149629905Y-104340819D02*
X149629905Y-103340819D01*
X149629905Y-103340819D02*
X150010857Y-103340819D01*
X150010857Y-103340819D02*
X150106095Y-103388438D01*
X150106095Y-103388438D02*
X150153714Y-103436057D01*
X150153714Y-103436057D02*
X150201333Y-103531295D01*
X150201333Y-103531295D02*
X150201333Y-103674152D01*
X150201333Y-103674152D02*
X150153714Y-103769390D01*
X150153714Y-103769390D02*
X150106095Y-103817009D01*
X150106095Y-103817009D02*
X150010857Y-103864628D01*
X150010857Y-103864628D02*
X149629905Y-103864628D01*
X151058476Y-103340819D02*
X150868000Y-103340819D01*
X150868000Y-103340819D02*
X150772762Y-103388438D01*
X150772762Y-103388438D02*
X150725143Y-103436057D01*
X150725143Y-103436057D02*
X150629905Y-103578914D01*
X150629905Y-103578914D02*
X150582286Y-103769390D01*
X150582286Y-103769390D02*
X150582286Y-104150342D01*
X150582286Y-104150342D02*
X150629905Y-104245580D01*
X150629905Y-104245580D02*
X150677524Y-104293200D01*
X150677524Y-104293200D02*
X150772762Y-104340819D01*
X150772762Y-104340819D02*
X150963238Y-104340819D01*
X150963238Y-104340819D02*
X151058476Y-104293200D01*
X151058476Y-104293200D02*
X151106095Y-104245580D01*
X151106095Y-104245580D02*
X151153714Y-104150342D01*
X151153714Y-104150342D02*
X151153714Y-103912247D01*
X151153714Y-103912247D02*
X151106095Y-103817009D01*
X151106095Y-103817009D02*
X151058476Y-103769390D01*
X151058476Y-103769390D02*
X150963238Y-103721771D01*
X150963238Y-103721771D02*
X150772762Y-103721771D01*
X150772762Y-103721771D02*
X150677524Y-103769390D01*
X150677524Y-103769390D02*
X150629905Y-103817009D01*
X150629905Y-103817009D02*
X150582286Y-103912247D01*
X142948819Y-133738857D02*
X142472628Y-134072190D01*
X142948819Y-134310285D02*
X141948819Y-134310285D01*
X141948819Y-134310285D02*
X141948819Y-133929333D01*
X141948819Y-133929333D02*
X141996438Y-133834095D01*
X141996438Y-133834095D02*
X142044057Y-133786476D01*
X142044057Y-133786476D02*
X142139295Y-133738857D01*
X142139295Y-133738857D02*
X142282152Y-133738857D01*
X142282152Y-133738857D02*
X142377390Y-133786476D01*
X142377390Y-133786476D02*
X142425009Y-133834095D01*
X142425009Y-133834095D02*
X142472628Y-133929333D01*
X142472628Y-133929333D02*
X142472628Y-134310285D01*
X142948819Y-132786476D02*
X142948819Y-133357904D01*
X142948819Y-133072190D02*
X141948819Y-133072190D01*
X141948819Y-133072190D02*
X142091676Y-133167428D01*
X142091676Y-133167428D02*
X142186914Y-133262666D01*
X142186914Y-133262666D02*
X142234533Y-133357904D01*
X142044057Y-132405523D02*
X141996438Y-132357904D01*
X141996438Y-132357904D02*
X141948819Y-132262666D01*
X141948819Y-132262666D02*
X141948819Y-132024571D01*
X141948819Y-132024571D02*
X141996438Y-131929333D01*
X141996438Y-131929333D02*
X142044057Y-131881714D01*
X142044057Y-131881714D02*
X142139295Y-131834095D01*
X142139295Y-131834095D02*
X142234533Y-131834095D01*
X142234533Y-131834095D02*
X142377390Y-131881714D01*
X142377390Y-131881714D02*
X142948819Y-132453142D01*
X142948819Y-132453142D02*
X142948819Y-131834095D01*
X175523715Y-71686481D02*
X175523715Y-71753825D01*
X175523715Y-71753825D02*
X175456371Y-71888512D01*
X175456371Y-71888512D02*
X175389028Y-71955855D01*
X175389028Y-71955855D02*
X175254341Y-72023199D01*
X175254341Y-72023199D02*
X175119654Y-72023199D01*
X175119654Y-72023199D02*
X175018639Y-71989527D01*
X175018639Y-71989527D02*
X174850280Y-71888512D01*
X174850280Y-71888512D02*
X174749265Y-71787497D01*
X174749265Y-71787497D02*
X174648249Y-71619138D01*
X174648249Y-71619138D02*
X174614578Y-71518123D01*
X174614578Y-71518123D02*
X174614578Y-71383436D01*
X174614578Y-71383436D02*
X174681921Y-71248749D01*
X174681921Y-71248749D02*
X174749265Y-71181405D01*
X174749265Y-71181405D02*
X174883952Y-71114062D01*
X174883952Y-71114062D02*
X174951295Y-71114062D01*
X176264493Y-71080390D02*
X175860432Y-71484451D01*
X176062463Y-71282420D02*
X175355356Y-70575314D01*
X175355356Y-70575314D02*
X175389028Y-70743672D01*
X175389028Y-70743672D02*
X175389028Y-70878359D01*
X175389028Y-70878359D02*
X175355356Y-70979375D01*
X175995120Y-69935550D02*
X176062463Y-69868207D01*
X176062463Y-69868207D02*
X176163478Y-69834535D01*
X176163478Y-69834535D02*
X176230822Y-69834535D01*
X176230822Y-69834535D02*
X176331837Y-69868207D01*
X176331837Y-69868207D02*
X176500196Y-69969222D01*
X176500196Y-69969222D02*
X176668555Y-70137581D01*
X176668555Y-70137581D02*
X176769570Y-70305939D01*
X176769570Y-70305939D02*
X176803242Y-70406955D01*
X176803242Y-70406955D02*
X176803242Y-70474298D01*
X176803242Y-70474298D02*
X176769570Y-70575313D01*
X176769570Y-70575313D02*
X176702226Y-70642657D01*
X176702226Y-70642657D02*
X176601211Y-70676329D01*
X176601211Y-70676329D02*
X176533868Y-70676329D01*
X176533868Y-70676329D02*
X176432852Y-70642657D01*
X176432852Y-70642657D02*
X176264494Y-70541642D01*
X176264494Y-70541642D02*
X176096135Y-70373283D01*
X176096135Y-70373283D02*
X175995120Y-70204924D01*
X175995120Y-70204924D02*
X175961448Y-70103909D01*
X175961448Y-70103909D02*
X175961448Y-70036565D01*
X175961448Y-70036565D02*
X175995120Y-69935550D01*
X182314559Y-77189782D02*
X182247215Y-77189782D01*
X182247215Y-77189782D02*
X182112528Y-77122438D01*
X182112528Y-77122438D02*
X182045185Y-77055095D01*
X182045185Y-77055095D02*
X181977841Y-76920408D01*
X181977841Y-76920408D02*
X181977841Y-76785721D01*
X181977841Y-76785721D02*
X182011513Y-76684706D01*
X182011513Y-76684706D02*
X182112528Y-76516347D01*
X182112528Y-76516347D02*
X182213543Y-76415332D01*
X182213543Y-76415332D02*
X182381902Y-76314316D01*
X182381902Y-76314316D02*
X182482917Y-76280645D01*
X182482917Y-76280645D02*
X182617604Y-76280645D01*
X182617604Y-76280645D02*
X182752291Y-76347988D01*
X182752291Y-76347988D02*
X182819635Y-76415332D01*
X182819635Y-76415332D02*
X182886978Y-76550019D01*
X182886978Y-76550019D02*
X182886978Y-76617362D01*
X182920650Y-77930560D02*
X182516589Y-77526499D01*
X182718620Y-77728530D02*
X183425726Y-77021423D01*
X183425726Y-77021423D02*
X183257368Y-77055095D01*
X183257368Y-77055095D02*
X183122681Y-77055095D01*
X183122681Y-77055095D02*
X183021665Y-77021423D01*
X183863459Y-77459156D02*
X184301192Y-77896889D01*
X184301192Y-77896889D02*
X183796116Y-77930561D01*
X183796116Y-77930561D02*
X183897131Y-78031576D01*
X183897131Y-78031576D02*
X183930803Y-78132591D01*
X183930803Y-78132591D02*
X183930803Y-78199935D01*
X183930803Y-78199935D02*
X183897131Y-78300950D01*
X183897131Y-78300950D02*
X183728772Y-78469309D01*
X183728772Y-78469309D02*
X183627757Y-78502980D01*
X183627757Y-78502980D02*
X183560414Y-78502980D01*
X183560414Y-78502980D02*
X183459398Y-78469309D01*
X183459398Y-78469309D02*
X183257368Y-78267278D01*
X183257368Y-78267278D02*
X183223696Y-78166263D01*
X183223696Y-78166263D02*
X183223696Y-78098919D01*
X151764411Y-66411290D02*
X151764411Y-66478634D01*
X151764411Y-66478634D02*
X151697067Y-66613321D01*
X151697067Y-66613321D02*
X151629724Y-66680664D01*
X151629724Y-66680664D02*
X151495037Y-66748008D01*
X151495037Y-66748008D02*
X151360350Y-66748008D01*
X151360350Y-66748008D02*
X151259335Y-66714336D01*
X151259335Y-66714336D02*
X151090976Y-66613321D01*
X151090976Y-66613321D02*
X150989961Y-66512306D01*
X150989961Y-66512306D02*
X150888945Y-66343947D01*
X150888945Y-66343947D02*
X150855274Y-66242932D01*
X150855274Y-66242932D02*
X150855274Y-66108245D01*
X150855274Y-66108245D02*
X150922617Y-65973558D01*
X150922617Y-65973558D02*
X150989961Y-65906214D01*
X150989961Y-65906214D02*
X151124648Y-65838871D01*
X151124648Y-65838871D02*
X151191991Y-65838871D01*
X151461365Y-65569497D02*
X151461365Y-65502153D01*
X151461365Y-65502153D02*
X151495037Y-65401138D01*
X151495037Y-65401138D02*
X151663396Y-65232779D01*
X151663396Y-65232779D02*
X151764411Y-65199107D01*
X151764411Y-65199107D02*
X151831754Y-65199107D01*
X151831754Y-65199107D02*
X151932770Y-65232779D01*
X151932770Y-65232779D02*
X152000113Y-65300123D01*
X152000113Y-65300123D02*
X152067457Y-65434810D01*
X152067457Y-65434810D02*
X152067457Y-66242932D01*
X152067457Y-66242932D02*
X152505189Y-65805199D01*
X145462666Y-107876819D02*
X145462666Y-108591104D01*
X145462666Y-108591104D02*
X145415047Y-108733961D01*
X145415047Y-108733961D02*
X145319809Y-108829200D01*
X145319809Y-108829200D02*
X145176952Y-108876819D01*
X145176952Y-108876819D02*
X145081714Y-108876819D01*
X146462666Y-108876819D02*
X145891238Y-108876819D01*
X146176952Y-108876819D02*
X146176952Y-107876819D01*
X146176952Y-107876819D02*
X146081714Y-108019676D01*
X146081714Y-108019676D02*
X145986476Y-108114914D01*
X145986476Y-108114914D02*
X145891238Y-108162533D01*
X143710819Y-103512857D02*
X143234628Y-103846190D01*
X143710819Y-104084285D02*
X142710819Y-104084285D01*
X142710819Y-104084285D02*
X142710819Y-103703333D01*
X142710819Y-103703333D02*
X142758438Y-103608095D01*
X142758438Y-103608095D02*
X142806057Y-103560476D01*
X142806057Y-103560476D02*
X142901295Y-103512857D01*
X142901295Y-103512857D02*
X143044152Y-103512857D01*
X143044152Y-103512857D02*
X143139390Y-103560476D01*
X143139390Y-103560476D02*
X143187009Y-103608095D01*
X143187009Y-103608095D02*
X143234628Y-103703333D01*
X143234628Y-103703333D02*
X143234628Y-104084285D01*
X143710819Y-102560476D02*
X143710819Y-103131904D01*
X143710819Y-102846190D02*
X142710819Y-102846190D01*
X142710819Y-102846190D02*
X142853676Y-102941428D01*
X142853676Y-102941428D02*
X142948914Y-103036666D01*
X142948914Y-103036666D02*
X142996533Y-103131904D01*
X142710819Y-101703333D02*
X142710819Y-101893809D01*
X142710819Y-101893809D02*
X142758438Y-101989047D01*
X142758438Y-101989047D02*
X142806057Y-102036666D01*
X142806057Y-102036666D02*
X142948914Y-102131904D01*
X142948914Y-102131904D02*
X143139390Y-102179523D01*
X143139390Y-102179523D02*
X143520342Y-102179523D01*
X143520342Y-102179523D02*
X143615580Y-102131904D01*
X143615580Y-102131904D02*
X143663200Y-102084285D01*
X143663200Y-102084285D02*
X143710819Y-101989047D01*
X143710819Y-101989047D02*
X143710819Y-101798571D01*
X143710819Y-101798571D02*
X143663200Y-101703333D01*
X143663200Y-101703333D02*
X143615580Y-101655714D01*
X143615580Y-101655714D02*
X143520342Y-101608095D01*
X143520342Y-101608095D02*
X143282247Y-101608095D01*
X143282247Y-101608095D02*
X143187009Y-101655714D01*
X143187009Y-101655714D02*
X143139390Y-101703333D01*
X143139390Y-101703333D02*
X143091771Y-101798571D01*
X143091771Y-101798571D02*
X143091771Y-101989047D01*
X143091771Y-101989047D02*
X143139390Y-102084285D01*
X143139390Y-102084285D02*
X143187009Y-102131904D01*
X143187009Y-102131904D02*
X143282247Y-102179523D01*
X150426511Y-128227558D02*
X150426511Y-128294902D01*
X150426511Y-128294902D02*
X150359167Y-128429589D01*
X150359167Y-128429589D02*
X150291824Y-128496932D01*
X150291824Y-128496932D02*
X150157137Y-128564276D01*
X150157137Y-128564276D02*
X150022450Y-128564276D01*
X150022450Y-128564276D02*
X149921435Y-128530604D01*
X149921435Y-128530604D02*
X149753076Y-128429589D01*
X149753076Y-128429589D02*
X149652061Y-128328574D01*
X149652061Y-128328574D02*
X149551045Y-128160215D01*
X149551045Y-128160215D02*
X149517374Y-128059200D01*
X149517374Y-128059200D02*
X149517374Y-127924513D01*
X149517374Y-127924513D02*
X149584717Y-127789826D01*
X149584717Y-127789826D02*
X149652061Y-127722482D01*
X149652061Y-127722482D02*
X149786748Y-127655139D01*
X149786748Y-127655139D02*
X149854091Y-127655139D01*
X150123465Y-127385765D02*
X150123465Y-127318421D01*
X150123465Y-127318421D02*
X150157137Y-127217406D01*
X150157137Y-127217406D02*
X150325496Y-127049047D01*
X150325496Y-127049047D02*
X150426511Y-127015375D01*
X150426511Y-127015375D02*
X150493854Y-127015375D01*
X150493854Y-127015375D02*
X150594870Y-127049047D01*
X150594870Y-127049047D02*
X150662213Y-127116391D01*
X150662213Y-127116391D02*
X150729557Y-127251078D01*
X150729557Y-127251078D02*
X150729557Y-128059200D01*
X150729557Y-128059200D02*
X151167289Y-127621467D01*
X150796900Y-126712329D02*
X150796900Y-126644986D01*
X150796900Y-126644986D02*
X150830572Y-126543971D01*
X150830572Y-126543971D02*
X150998931Y-126375612D01*
X150998931Y-126375612D02*
X151099946Y-126341940D01*
X151099946Y-126341940D02*
X151167290Y-126341940D01*
X151167290Y-126341940D02*
X151268305Y-126375612D01*
X151268305Y-126375612D02*
X151335648Y-126442955D01*
X151335648Y-126442955D02*
X151402992Y-126577642D01*
X151402992Y-126577642D02*
X151402992Y-127385764D01*
X151402992Y-127385764D02*
X151840725Y-126948032D01*
X182674430Y-64087653D02*
X182607086Y-64087653D01*
X182607086Y-64087653D02*
X182472399Y-64020309D01*
X182472399Y-64020309D02*
X182405056Y-63952966D01*
X182405056Y-63952966D02*
X182337712Y-63818279D01*
X182337712Y-63818279D02*
X182337712Y-63683592D01*
X182337712Y-63683592D02*
X182371384Y-63582577D01*
X182371384Y-63582577D02*
X182472399Y-63414218D01*
X182472399Y-63414218D02*
X182573414Y-63313203D01*
X182573414Y-63313203D02*
X182741773Y-63212187D01*
X182741773Y-63212187D02*
X182842788Y-63178516D01*
X182842788Y-63178516D02*
X182977475Y-63178516D01*
X182977475Y-63178516D02*
X183112162Y-63245859D01*
X183112162Y-63245859D02*
X183179506Y-63313203D01*
X183179506Y-63313203D02*
X183246849Y-63447890D01*
X183246849Y-63447890D02*
X183246849Y-63515233D01*
X182943804Y-64491714D02*
X183078491Y-64626401D01*
X183078491Y-64626401D02*
X183179506Y-64660073D01*
X183179506Y-64660073D02*
X183246849Y-64660073D01*
X183246849Y-64660073D02*
X183415208Y-64626401D01*
X183415208Y-64626401D02*
X183583567Y-64525386D01*
X183583567Y-64525386D02*
X183852941Y-64256012D01*
X183852941Y-64256012D02*
X183886613Y-64154996D01*
X183886613Y-64154996D02*
X183886613Y-64087653D01*
X183886613Y-64087653D02*
X183852941Y-63986638D01*
X183852941Y-63986638D02*
X183718254Y-63851951D01*
X183718254Y-63851951D02*
X183617239Y-63818279D01*
X183617239Y-63818279D02*
X183549895Y-63818279D01*
X183549895Y-63818279D02*
X183448880Y-63851951D01*
X183448880Y-63851951D02*
X183280521Y-64020309D01*
X183280521Y-64020309D02*
X183246849Y-64121325D01*
X183246849Y-64121325D02*
X183246849Y-64188668D01*
X183246849Y-64188668D02*
X183280521Y-64289683D01*
X183280521Y-64289683D02*
X183415208Y-64424370D01*
X183415208Y-64424370D02*
X183516223Y-64458042D01*
X183516223Y-64458042D02*
X183583567Y-64458042D01*
X183583567Y-64458042D02*
X183684582Y-64424370D01*
D13*
X117506761Y-91484657D02*
X117411523Y-91437038D01*
X117411523Y-91437038D02*
X117316285Y-91341800D01*
X117316285Y-91341800D02*
X117173428Y-91198942D01*
X117173428Y-91198942D02*
X117078190Y-91151323D01*
X117078190Y-91151323D02*
X116982952Y-91151323D01*
X117030571Y-91389419D02*
X116935333Y-91341800D01*
X116935333Y-91341800D02*
X116840095Y-91246561D01*
X116840095Y-91246561D02*
X116792476Y-91056085D01*
X116792476Y-91056085D02*
X116792476Y-90722752D01*
X116792476Y-90722752D02*
X116840095Y-90532276D01*
X116840095Y-90532276D02*
X116935333Y-90437038D01*
X116935333Y-90437038D02*
X117030571Y-90389419D01*
X117030571Y-90389419D02*
X117221047Y-90389419D01*
X117221047Y-90389419D02*
X117316285Y-90437038D01*
X117316285Y-90437038D02*
X117411523Y-90532276D01*
X117411523Y-90532276D02*
X117459142Y-90722752D01*
X117459142Y-90722752D02*
X117459142Y-91056085D01*
X117459142Y-91056085D02*
X117411523Y-91246561D01*
X117411523Y-91246561D02*
X117316285Y-91341800D01*
X117316285Y-91341800D02*
X117221047Y-91389419D01*
X117221047Y-91389419D02*
X117030571Y-91389419D01*
X118316285Y-90389419D02*
X118125809Y-90389419D01*
X118125809Y-90389419D02*
X118030571Y-90437038D01*
X118030571Y-90437038D02*
X117982952Y-90484657D01*
X117982952Y-90484657D02*
X117887714Y-90627514D01*
X117887714Y-90627514D02*
X117840095Y-90817990D01*
X117840095Y-90817990D02*
X117840095Y-91198942D01*
X117840095Y-91198942D02*
X117887714Y-91294180D01*
X117887714Y-91294180D02*
X117935333Y-91341800D01*
X117935333Y-91341800D02*
X118030571Y-91389419D01*
X118030571Y-91389419D02*
X118221047Y-91389419D01*
X118221047Y-91389419D02*
X118316285Y-91341800D01*
X118316285Y-91341800D02*
X118363904Y-91294180D01*
X118363904Y-91294180D02*
X118411523Y-91198942D01*
X118411523Y-91198942D02*
X118411523Y-90960847D01*
X118411523Y-90960847D02*
X118363904Y-90865609D01*
X118363904Y-90865609D02*
X118316285Y-90817990D01*
X118316285Y-90817990D02*
X118221047Y-90770371D01*
X118221047Y-90770371D02*
X118030571Y-90770371D01*
X118030571Y-90770371D02*
X117935333Y-90817990D01*
X117935333Y-90817990D02*
X117887714Y-90865609D01*
X117887714Y-90865609D02*
X117840095Y-90960847D01*
D11*
X188976095Y-54906819D02*
X188976095Y-53906819D01*
X188976095Y-54383009D02*
X189547523Y-54383009D01*
X189547523Y-54906819D02*
X189547523Y-53906819D01*
X190452285Y-54240152D02*
X190452285Y-54906819D01*
X190214190Y-53859200D02*
X189976095Y-54573485D01*
X189976095Y-54573485D02*
X190595142Y-54573485D01*
D13*
X117536338Y-59734657D02*
X117441100Y-59687038D01*
X117441100Y-59687038D02*
X117345862Y-59591800D01*
X117345862Y-59591800D02*
X117203005Y-59448942D01*
X117203005Y-59448942D02*
X117107767Y-59401323D01*
X117107767Y-59401323D02*
X117012529Y-59401323D01*
X117060148Y-59639419D02*
X116964910Y-59591800D01*
X116964910Y-59591800D02*
X116869672Y-59496561D01*
X116869672Y-59496561D02*
X116822053Y-59306085D01*
X116822053Y-59306085D02*
X116822053Y-58972752D01*
X116822053Y-58972752D02*
X116869672Y-58782276D01*
X116869672Y-58782276D02*
X116964910Y-58687038D01*
X116964910Y-58687038D02*
X117060148Y-58639419D01*
X117060148Y-58639419D02*
X117250624Y-58639419D01*
X117250624Y-58639419D02*
X117345862Y-58687038D01*
X117345862Y-58687038D02*
X117441100Y-58782276D01*
X117441100Y-58782276D02*
X117488719Y-58972752D01*
X117488719Y-58972752D02*
X117488719Y-59306085D01*
X117488719Y-59306085D02*
X117441100Y-59496561D01*
X117441100Y-59496561D02*
X117345862Y-59591800D01*
X117345862Y-59591800D02*
X117250624Y-59639419D01*
X117250624Y-59639419D02*
X117060148Y-59639419D01*
X117869672Y-58734657D02*
X117917291Y-58687038D01*
X117917291Y-58687038D02*
X118012529Y-58639419D01*
X118012529Y-58639419D02*
X118250624Y-58639419D01*
X118250624Y-58639419D02*
X118345862Y-58687038D01*
X118345862Y-58687038D02*
X118393481Y-58734657D01*
X118393481Y-58734657D02*
X118441100Y-58829895D01*
X118441100Y-58829895D02*
X118441100Y-58925133D01*
X118441100Y-58925133D02*
X118393481Y-59067990D01*
X118393481Y-59067990D02*
X117822053Y-59639419D01*
X117822053Y-59639419D02*
X118441100Y-59639419D01*
D11*
X159776095Y-85765820D02*
X159776095Y-86575343D01*
X159776095Y-86575343D02*
X159823714Y-86670581D01*
X159823714Y-86670581D02*
X159871333Y-86718201D01*
X159871333Y-86718201D02*
X159966571Y-86765820D01*
X159966571Y-86765820D02*
X160157047Y-86765820D01*
X160157047Y-86765820D02*
X160252285Y-86718201D01*
X160252285Y-86718201D02*
X160299904Y-86670581D01*
X160299904Y-86670581D02*
X160347523Y-86575343D01*
X160347523Y-86575343D02*
X160347523Y-85765820D01*
X160728476Y-85765820D02*
X161347523Y-85765820D01*
X161347523Y-85765820D02*
X161014190Y-86146772D01*
X161014190Y-86146772D02*
X161157047Y-86146772D01*
X161157047Y-86146772D02*
X161252285Y-86194391D01*
X161252285Y-86194391D02*
X161299904Y-86242010D01*
X161299904Y-86242010D02*
X161347523Y-86337248D01*
X161347523Y-86337248D02*
X161347523Y-86575343D01*
X161347523Y-86575343D02*
X161299904Y-86670581D01*
X161299904Y-86670581D02*
X161252285Y-86718201D01*
X161252285Y-86718201D02*
X161157047Y-86765820D01*
X161157047Y-86765820D02*
X160871333Y-86765820D01*
X160871333Y-86765820D02*
X160776095Y-86718201D01*
X160776095Y-86718201D02*
X160728476Y-86670581D01*
X180032819Y-115704857D02*
X179556628Y-116038190D01*
X180032819Y-116276285D02*
X179032819Y-116276285D01*
X179032819Y-116276285D02*
X179032819Y-115895333D01*
X179032819Y-115895333D02*
X179080438Y-115800095D01*
X179080438Y-115800095D02*
X179128057Y-115752476D01*
X179128057Y-115752476D02*
X179223295Y-115704857D01*
X179223295Y-115704857D02*
X179366152Y-115704857D01*
X179366152Y-115704857D02*
X179461390Y-115752476D01*
X179461390Y-115752476D02*
X179509009Y-115800095D01*
X179509009Y-115800095D02*
X179556628Y-115895333D01*
X179556628Y-115895333D02*
X179556628Y-116276285D01*
X180032819Y-114752476D02*
X180032819Y-115323904D01*
X180032819Y-115038190D02*
X179032819Y-115038190D01*
X179032819Y-115038190D02*
X179175676Y-115133428D01*
X179175676Y-115133428D02*
X179270914Y-115228666D01*
X179270914Y-115228666D02*
X179318533Y-115323904D01*
X180032819Y-113800095D02*
X180032819Y-114371523D01*
X180032819Y-114085809D02*
X179032819Y-114085809D01*
X179032819Y-114085809D02*
X179175676Y-114181047D01*
X179175676Y-114181047D02*
X179270914Y-114276285D01*
X179270914Y-114276285D02*
X179318533Y-114371523D01*
X175754607Y-64875580D02*
X175706988Y-64923200D01*
X175706988Y-64923200D02*
X175564131Y-64970819D01*
X175564131Y-64970819D02*
X175468893Y-64970819D01*
X175468893Y-64970819D02*
X175326036Y-64923200D01*
X175326036Y-64923200D02*
X175230798Y-64827961D01*
X175230798Y-64827961D02*
X175183179Y-64732723D01*
X175183179Y-64732723D02*
X175135560Y-64542247D01*
X175135560Y-64542247D02*
X175135560Y-64399390D01*
X175135560Y-64399390D02*
X175183179Y-64208914D01*
X175183179Y-64208914D02*
X175230798Y-64113676D01*
X175230798Y-64113676D02*
X175326036Y-64018438D01*
X175326036Y-64018438D02*
X175468893Y-63970819D01*
X175468893Y-63970819D02*
X175564131Y-63970819D01*
X175564131Y-63970819D02*
X175706988Y-64018438D01*
X175706988Y-64018438D02*
X175754607Y-64066057D01*
X176326036Y-64399390D02*
X176230798Y-64351771D01*
X176230798Y-64351771D02*
X176183179Y-64304152D01*
X176183179Y-64304152D02*
X176135560Y-64208914D01*
X176135560Y-64208914D02*
X176135560Y-64161295D01*
X176135560Y-64161295D02*
X176183179Y-64066057D01*
X176183179Y-64066057D02*
X176230798Y-64018438D01*
X176230798Y-64018438D02*
X176326036Y-63970819D01*
X176326036Y-63970819D02*
X176516512Y-63970819D01*
X176516512Y-63970819D02*
X176611750Y-64018438D01*
X176611750Y-64018438D02*
X176659369Y-64066057D01*
X176659369Y-64066057D02*
X176706988Y-64161295D01*
X176706988Y-64161295D02*
X176706988Y-64208914D01*
X176706988Y-64208914D02*
X176659369Y-64304152D01*
X176659369Y-64304152D02*
X176611750Y-64351771D01*
X176611750Y-64351771D02*
X176516512Y-64399390D01*
X176516512Y-64399390D02*
X176326036Y-64399390D01*
X176326036Y-64399390D02*
X176230798Y-64447009D01*
X176230798Y-64447009D02*
X176183179Y-64494628D01*
X176183179Y-64494628D02*
X176135560Y-64589866D01*
X176135560Y-64589866D02*
X176135560Y-64780342D01*
X176135560Y-64780342D02*
X176183179Y-64875580D01*
X176183179Y-64875580D02*
X176230798Y-64923200D01*
X176230798Y-64923200D02*
X176326036Y-64970819D01*
X176326036Y-64970819D02*
X176516512Y-64970819D01*
X176516512Y-64970819D02*
X176611750Y-64923200D01*
X176611750Y-64923200D02*
X176659369Y-64875580D01*
X176659369Y-64875580D02*
X176706988Y-64780342D01*
X176706988Y-64780342D02*
X176706988Y-64589866D01*
X176706988Y-64589866D02*
X176659369Y-64494628D01*
X176659369Y-64494628D02*
X176611750Y-64447009D01*
X176611750Y-64447009D02*
X176516512Y-64399390D01*
X145137831Y-118909889D02*
X144565412Y-118808874D01*
X144733770Y-119313950D02*
X144026664Y-118606843D01*
X144026664Y-118606843D02*
X144296038Y-118337469D01*
X144296038Y-118337469D02*
X144397053Y-118303797D01*
X144397053Y-118303797D02*
X144464396Y-118303797D01*
X144464396Y-118303797D02*
X144565412Y-118337469D01*
X144565412Y-118337469D02*
X144666427Y-118438484D01*
X144666427Y-118438484D02*
X144700099Y-118539500D01*
X144700099Y-118539500D02*
X144700099Y-118606843D01*
X144700099Y-118606843D02*
X144666427Y-118707858D01*
X144666427Y-118707858D02*
X144397053Y-118977232D01*
X145070488Y-117563019D02*
X144733770Y-117899736D01*
X144733770Y-117899736D02*
X145036816Y-118270126D01*
X145036816Y-118270126D02*
X145036816Y-118202782D01*
X145036816Y-118202782D02*
X145070488Y-118101767D01*
X145070488Y-118101767D02*
X145238847Y-117933408D01*
X145238847Y-117933408D02*
X145339862Y-117899736D01*
X145339862Y-117899736D02*
X145407205Y-117899736D01*
X145407205Y-117899736D02*
X145508221Y-117933408D01*
X145508221Y-117933408D02*
X145676579Y-118101767D01*
X145676579Y-118101767D02*
X145710251Y-118202782D01*
X145710251Y-118202782D02*
X145710251Y-118270126D01*
X145710251Y-118270126D02*
X145676579Y-118371141D01*
X145676579Y-118371141D02*
X145508221Y-118539500D01*
X145508221Y-118539500D02*
X145407205Y-118573171D01*
X145407205Y-118573171D02*
X145339862Y-118573171D01*
X159766095Y-116252330D02*
X159766095Y-117061853D01*
X159766095Y-117061853D02*
X159813714Y-117157091D01*
X159813714Y-117157091D02*
X159861333Y-117204711D01*
X159861333Y-117204711D02*
X159956571Y-117252330D01*
X159956571Y-117252330D02*
X160147047Y-117252330D01*
X160147047Y-117252330D02*
X160242285Y-117204711D01*
X160242285Y-117204711D02*
X160289904Y-117157091D01*
X160289904Y-117157091D02*
X160337523Y-117061853D01*
X160337523Y-117061853D02*
X160337523Y-116252330D01*
X160766095Y-116347568D02*
X160813714Y-116299949D01*
X160813714Y-116299949D02*
X160908952Y-116252330D01*
X160908952Y-116252330D02*
X161147047Y-116252330D01*
X161147047Y-116252330D02*
X161242285Y-116299949D01*
X161242285Y-116299949D02*
X161289904Y-116347568D01*
X161289904Y-116347568D02*
X161337523Y-116442806D01*
X161337523Y-116442806D02*
X161337523Y-116538044D01*
X161337523Y-116538044D02*
X161289904Y-116680901D01*
X161289904Y-116680901D02*
X160718476Y-117252330D01*
X160718476Y-117252330D02*
X161337523Y-117252330D01*
X150267616Y-93045517D02*
X149560510Y-92338410D01*
X149560510Y-92338410D02*
X149728868Y-92170051D01*
X149728868Y-92170051D02*
X149863555Y-92102708D01*
X149863555Y-92102708D02*
X149998242Y-92102708D01*
X149998242Y-92102708D02*
X150099258Y-92136380D01*
X150099258Y-92136380D02*
X150267616Y-92237395D01*
X150267616Y-92237395D02*
X150368632Y-92338410D01*
X150368632Y-92338410D02*
X150469647Y-92506769D01*
X150469647Y-92506769D02*
X150503319Y-92607784D01*
X150503319Y-92607784D02*
X150503319Y-92742471D01*
X150503319Y-92742471D02*
X150435975Y-92877158D01*
X150435975Y-92877158D02*
X150267616Y-93045517D01*
X151345112Y-91968021D02*
X150941051Y-92372082D01*
X151143082Y-92170051D02*
X150435975Y-91462945D01*
X150435975Y-91462945D02*
X150469647Y-91631303D01*
X150469647Y-91631303D02*
X150469647Y-91765990D01*
X150469647Y-91765990D02*
X150435975Y-91867006D01*
X146440410Y-94232800D02*
X145733304Y-93525693D01*
X146844472Y-93828739D02*
X146137365Y-93727723D01*
X146137365Y-93121632D02*
X146137365Y-93929754D01*
X148931333Y-142524819D02*
X148598000Y-142048628D01*
X148359905Y-142524819D02*
X148359905Y-141524819D01*
X148359905Y-141524819D02*
X148740857Y-141524819D01*
X148740857Y-141524819D02*
X148836095Y-141572438D01*
X148836095Y-141572438D02*
X148883714Y-141620057D01*
X148883714Y-141620057D02*
X148931333Y-141715295D01*
X148931333Y-141715295D02*
X148931333Y-141858152D01*
X148931333Y-141858152D02*
X148883714Y-141953390D01*
X148883714Y-141953390D02*
X148836095Y-142001009D01*
X148836095Y-142001009D02*
X148740857Y-142048628D01*
X148740857Y-142048628D02*
X148359905Y-142048628D01*
X149788476Y-141858152D02*
X149788476Y-142524819D01*
X149550381Y-141477200D02*
X149312286Y-142191485D01*
X149312286Y-142191485D02*
X149931333Y-142191485D01*
D13*
X117506761Y-120948657D02*
X117411523Y-120901038D01*
X117411523Y-120901038D02*
X117316285Y-120805800D01*
X117316285Y-120805800D02*
X117173428Y-120662942D01*
X117173428Y-120662942D02*
X117078190Y-120615323D01*
X117078190Y-120615323D02*
X116982952Y-120615323D01*
X117030571Y-120853419D02*
X116935333Y-120805800D01*
X116935333Y-120805800D02*
X116840095Y-120710561D01*
X116840095Y-120710561D02*
X116792476Y-120520085D01*
X116792476Y-120520085D02*
X116792476Y-120186752D01*
X116792476Y-120186752D02*
X116840095Y-119996276D01*
X116840095Y-119996276D02*
X116935333Y-119901038D01*
X116935333Y-119901038D02*
X117030571Y-119853419D01*
X117030571Y-119853419D02*
X117221047Y-119853419D01*
X117221047Y-119853419D02*
X117316285Y-119901038D01*
X117316285Y-119901038D02*
X117411523Y-119996276D01*
X117411523Y-119996276D02*
X117459142Y-120186752D01*
X117459142Y-120186752D02*
X117459142Y-120520085D01*
X117459142Y-120520085D02*
X117411523Y-120710561D01*
X117411523Y-120710561D02*
X117316285Y-120805800D01*
X117316285Y-120805800D02*
X117221047Y-120853419D01*
X117221047Y-120853419D02*
X117030571Y-120853419D01*
X118316285Y-120186752D02*
X118316285Y-120853419D01*
X118078190Y-119805800D02*
X117840095Y-120520085D01*
X117840095Y-120520085D02*
X118459142Y-120520085D01*
D11*
X144218819Y-72270857D02*
X143742628Y-72604190D01*
X144218819Y-72842285D02*
X143218819Y-72842285D01*
X143218819Y-72842285D02*
X143218819Y-72461333D01*
X143218819Y-72461333D02*
X143266438Y-72366095D01*
X143266438Y-72366095D02*
X143314057Y-72318476D01*
X143314057Y-72318476D02*
X143409295Y-72270857D01*
X143409295Y-72270857D02*
X143552152Y-72270857D01*
X143552152Y-72270857D02*
X143647390Y-72318476D01*
X143647390Y-72318476D02*
X143695009Y-72366095D01*
X143695009Y-72366095D02*
X143742628Y-72461333D01*
X143742628Y-72461333D02*
X143742628Y-72842285D01*
X144218819Y-71318476D02*
X144218819Y-71889904D01*
X144218819Y-71604190D02*
X143218819Y-71604190D01*
X143218819Y-71604190D02*
X143361676Y-71699428D01*
X143361676Y-71699428D02*
X143456914Y-71794666D01*
X143456914Y-71794666D02*
X143504533Y-71889904D01*
X143218819Y-70985142D02*
X143218819Y-70366095D01*
X143218819Y-70366095D02*
X143599771Y-70699428D01*
X143599771Y-70699428D02*
X143599771Y-70556571D01*
X143599771Y-70556571D02*
X143647390Y-70461333D01*
X143647390Y-70461333D02*
X143695009Y-70413714D01*
X143695009Y-70413714D02*
X143790247Y-70366095D01*
X143790247Y-70366095D02*
X144028342Y-70366095D01*
X144028342Y-70366095D02*
X144123580Y-70413714D01*
X144123580Y-70413714D02*
X144171200Y-70461333D01*
X144171200Y-70461333D02*
X144218819Y-70556571D01*
X144218819Y-70556571D02*
X144218819Y-70842285D01*
X144218819Y-70842285D02*
X144171200Y-70937523D01*
X144171200Y-70937523D02*
X144123580Y-70985142D01*
X170972819Y-122816857D02*
X170496628Y-123150190D01*
X170972819Y-123388285D02*
X169972819Y-123388285D01*
X169972819Y-123388285D02*
X169972819Y-123007333D01*
X169972819Y-123007333D02*
X170020438Y-122912095D01*
X170020438Y-122912095D02*
X170068057Y-122864476D01*
X170068057Y-122864476D02*
X170163295Y-122816857D01*
X170163295Y-122816857D02*
X170306152Y-122816857D01*
X170306152Y-122816857D02*
X170401390Y-122864476D01*
X170401390Y-122864476D02*
X170449009Y-122912095D01*
X170449009Y-122912095D02*
X170496628Y-123007333D01*
X170496628Y-123007333D02*
X170496628Y-123388285D01*
X170972819Y-121864476D02*
X170972819Y-122435904D01*
X170972819Y-122150190D02*
X169972819Y-122150190D01*
X169972819Y-122150190D02*
X170115676Y-122245428D01*
X170115676Y-122245428D02*
X170210914Y-122340666D01*
X170210914Y-122340666D02*
X170258533Y-122435904D01*
X170306152Y-121007333D02*
X170972819Y-121007333D01*
X169925200Y-121245428D02*
X170639485Y-121483523D01*
X170639485Y-121483523D02*
X170639485Y-120864476D01*
X151520411Y-97400112D02*
X151520411Y-97467456D01*
X151520411Y-97467456D02*
X151453067Y-97602143D01*
X151453067Y-97602143D02*
X151385724Y-97669486D01*
X151385724Y-97669486D02*
X151251037Y-97736830D01*
X151251037Y-97736830D02*
X151116350Y-97736830D01*
X151116350Y-97736830D02*
X151015335Y-97703158D01*
X151015335Y-97703158D02*
X150846976Y-97602143D01*
X150846976Y-97602143D02*
X150745961Y-97501128D01*
X150745961Y-97501128D02*
X150644945Y-97332769D01*
X150644945Y-97332769D02*
X150611274Y-97231754D01*
X150611274Y-97231754D02*
X150611274Y-97097067D01*
X150611274Y-97097067D02*
X150678617Y-96962380D01*
X150678617Y-96962380D02*
X150745961Y-96895036D01*
X150745961Y-96895036D02*
X150880648Y-96827693D01*
X150880648Y-96827693D02*
X150947991Y-96827693D01*
X152261189Y-96794021D02*
X151857128Y-97198082D01*
X152059159Y-96996051D02*
X151352052Y-96288945D01*
X151352052Y-96288945D02*
X151385724Y-96457303D01*
X151385724Y-96457303D02*
X151385724Y-96591990D01*
X151385724Y-96591990D02*
X151352052Y-96693006D01*
X176347744Y-79844143D02*
X176347744Y-79911487D01*
X176347744Y-79911487D02*
X176280400Y-80046174D01*
X176280400Y-80046174D02*
X176213057Y-80113517D01*
X176213057Y-80113517D02*
X176078370Y-80180861D01*
X176078370Y-80180861D02*
X175943683Y-80180861D01*
X175943683Y-80180861D02*
X175842668Y-80147189D01*
X175842668Y-80147189D02*
X175674309Y-80046174D01*
X175674309Y-80046174D02*
X175573294Y-79945159D01*
X175573294Y-79945159D02*
X175472278Y-79776800D01*
X175472278Y-79776800D02*
X175438607Y-79675785D01*
X175438607Y-79675785D02*
X175438607Y-79541098D01*
X175438607Y-79541098D02*
X175505950Y-79406411D01*
X175505950Y-79406411D02*
X175573294Y-79339067D01*
X175573294Y-79339067D02*
X175707981Y-79271724D01*
X175707981Y-79271724D02*
X175775324Y-79271724D01*
X177088522Y-79238052D02*
X176684461Y-79642113D01*
X176886492Y-79440082D02*
X176179385Y-78732976D01*
X176179385Y-78732976D02*
X176213057Y-78901334D01*
X176213057Y-78901334D02*
X176213057Y-79036021D01*
X176213057Y-79036021D02*
X176179385Y-79137037D01*
X177761958Y-78564617D02*
X177357897Y-78968678D01*
X177559927Y-78766647D02*
X176852820Y-78059540D01*
X176852820Y-78059540D02*
X176886492Y-78227899D01*
X176886492Y-78227899D02*
X176886492Y-78362586D01*
X176886492Y-78362586D02*
X176852820Y-78463601D01*
X175379142Y-126100819D02*
X175045809Y-125624628D01*
X174807714Y-126100819D02*
X174807714Y-125100819D01*
X174807714Y-125100819D02*
X175188666Y-125100819D01*
X175188666Y-125100819D02*
X175283904Y-125148438D01*
X175283904Y-125148438D02*
X175331523Y-125196057D01*
X175331523Y-125196057D02*
X175379142Y-125291295D01*
X175379142Y-125291295D02*
X175379142Y-125434152D01*
X175379142Y-125434152D02*
X175331523Y-125529390D01*
X175331523Y-125529390D02*
X175283904Y-125577009D01*
X175283904Y-125577009D02*
X175188666Y-125624628D01*
X175188666Y-125624628D02*
X174807714Y-125624628D01*
X176331523Y-126100819D02*
X175760095Y-126100819D01*
X176045809Y-126100819D02*
X176045809Y-125100819D01*
X176045809Y-125100819D02*
X175950571Y-125243676D01*
X175950571Y-125243676D02*
X175855333Y-125338914D01*
X175855333Y-125338914D02*
X175760095Y-125386533D01*
X177236285Y-125100819D02*
X176760095Y-125100819D01*
X176760095Y-125100819D02*
X176712476Y-125577009D01*
X176712476Y-125577009D02*
X176760095Y-125529390D01*
X176760095Y-125529390D02*
X176855333Y-125481771D01*
X176855333Y-125481771D02*
X177093428Y-125481771D01*
X177093428Y-125481771D02*
X177188666Y-125529390D01*
X177188666Y-125529390D02*
X177236285Y-125577009D01*
X177236285Y-125577009D02*
X177283904Y-125672247D01*
X177283904Y-125672247D02*
X177283904Y-125910342D01*
X177283904Y-125910342D02*
X177236285Y-126005580D01*
X177236285Y-126005580D02*
X177188666Y-126053200D01*
X177188666Y-126053200D02*
X177093428Y-126100819D01*
X177093428Y-126100819D02*
X176855333Y-126100819D01*
X176855333Y-126100819D02*
X176760095Y-126053200D01*
X176760095Y-126053200D02*
X176712476Y-126005580D01*
X109982095Y-62272819D02*
X109982095Y-61272819D01*
X109982095Y-61749009D02*
X110553523Y-61749009D01*
X110553523Y-62272819D02*
X110553523Y-61272819D01*
X110982095Y-61368057D02*
X111029714Y-61320438D01*
X111029714Y-61320438D02*
X111124952Y-61272819D01*
X111124952Y-61272819D02*
X111363047Y-61272819D01*
X111363047Y-61272819D02*
X111458285Y-61320438D01*
X111458285Y-61320438D02*
X111505904Y-61368057D01*
X111505904Y-61368057D02*
X111553523Y-61463295D01*
X111553523Y-61463295D02*
X111553523Y-61558533D01*
X111553523Y-61558533D02*
X111505904Y-61701390D01*
X111505904Y-61701390D02*
X110934476Y-62272819D01*
X110934476Y-62272819D02*
X111553523Y-62272819D01*
X173079580Y-94380777D02*
X173127200Y-94428396D01*
X173127200Y-94428396D02*
X173174819Y-94571253D01*
X173174819Y-94571253D02*
X173174819Y-94666491D01*
X173174819Y-94666491D02*
X173127200Y-94809348D01*
X173127200Y-94809348D02*
X173031961Y-94904586D01*
X173031961Y-94904586D02*
X172936723Y-94952205D01*
X172936723Y-94952205D02*
X172746247Y-94999824D01*
X172746247Y-94999824D02*
X172603390Y-94999824D01*
X172603390Y-94999824D02*
X172412914Y-94952205D01*
X172412914Y-94952205D02*
X172317676Y-94904586D01*
X172317676Y-94904586D02*
X172222438Y-94809348D01*
X172222438Y-94809348D02*
X172174819Y-94666491D01*
X172174819Y-94666491D02*
X172174819Y-94571253D01*
X172174819Y-94571253D02*
X172222438Y-94428396D01*
X172222438Y-94428396D02*
X172270057Y-94380777D01*
X172174819Y-93476015D02*
X172174819Y-93952205D01*
X172174819Y-93952205D02*
X172651009Y-93999824D01*
X172651009Y-93999824D02*
X172603390Y-93952205D01*
X172603390Y-93952205D02*
X172555771Y-93856967D01*
X172555771Y-93856967D02*
X172555771Y-93618872D01*
X172555771Y-93618872D02*
X172603390Y-93523634D01*
X172603390Y-93523634D02*
X172651009Y-93476015D01*
X172651009Y-93476015D02*
X172746247Y-93428396D01*
X172746247Y-93428396D02*
X172984342Y-93428396D01*
X172984342Y-93428396D02*
X173079580Y-93476015D01*
X173079580Y-93476015D02*
X173127200Y-93523634D01*
X173127200Y-93523634D02*
X173174819Y-93618872D01*
X173174819Y-93618872D02*
X173174819Y-93856967D01*
X173174819Y-93856967D02*
X173127200Y-93952205D01*
X173127200Y-93952205D02*
X173079580Y-93999824D01*
X159766095Y-54528819D02*
X159766095Y-55338342D01*
X159766095Y-55338342D02*
X159813714Y-55433580D01*
X159813714Y-55433580D02*
X159861333Y-55481200D01*
X159861333Y-55481200D02*
X159956571Y-55528819D01*
X159956571Y-55528819D02*
X160147047Y-55528819D01*
X160147047Y-55528819D02*
X160242285Y-55481200D01*
X160242285Y-55481200D02*
X160289904Y-55433580D01*
X160289904Y-55433580D02*
X160337523Y-55338342D01*
X160337523Y-55338342D02*
X160337523Y-54528819D01*
X161337523Y-55528819D02*
X160766095Y-55528819D01*
X161051809Y-55528819D02*
X161051809Y-54528819D01*
X161051809Y-54528819D02*
X160956571Y-54671676D01*
X160956571Y-54671676D02*
X160861333Y-54766914D01*
X160861333Y-54766914D02*
X160766095Y-54814533D01*
X178417513Y-74822140D02*
X178350169Y-74822140D01*
X178350169Y-74822140D02*
X178215482Y-74754796D01*
X178215482Y-74754796D02*
X178148139Y-74687453D01*
X178148139Y-74687453D02*
X178080795Y-74552766D01*
X178080795Y-74552766D02*
X178080795Y-74418079D01*
X178080795Y-74418079D02*
X178114467Y-74317064D01*
X178114467Y-74317064D02*
X178215482Y-74148705D01*
X178215482Y-74148705D02*
X178316497Y-74047690D01*
X178316497Y-74047690D02*
X178484856Y-73946674D01*
X178484856Y-73946674D02*
X178585871Y-73913003D01*
X178585871Y-73913003D02*
X178720558Y-73913003D01*
X178720558Y-73913003D02*
X178855245Y-73980346D01*
X178855245Y-73980346D02*
X178922589Y-74047690D01*
X178922589Y-74047690D02*
X178989932Y-74182377D01*
X178989932Y-74182377D02*
X178989932Y-74249720D01*
X179023604Y-75562918D02*
X178619543Y-75158857D01*
X178821574Y-75360888D02*
X179528680Y-74653781D01*
X179528680Y-74653781D02*
X179360322Y-74687453D01*
X179360322Y-74687453D02*
X179225635Y-74687453D01*
X179225635Y-74687453D02*
X179124619Y-74653781D01*
X179932742Y-75192529D02*
X180000085Y-75192529D01*
X180000085Y-75192529D02*
X180101100Y-75226201D01*
X180101100Y-75226201D02*
X180269459Y-75394560D01*
X180269459Y-75394560D02*
X180303131Y-75495575D01*
X180303131Y-75495575D02*
X180303131Y-75562919D01*
X180303131Y-75562919D02*
X180269459Y-75663934D01*
X180269459Y-75663934D02*
X180202116Y-75731277D01*
X180202116Y-75731277D02*
X180067429Y-75798621D01*
X180067429Y-75798621D02*
X179259307Y-75798621D01*
X179259307Y-75798621D02*
X179697039Y-76236354D01*
D13*
X180243040Y-131530909D02*
X180243040Y-132340432D01*
X180243040Y-132340432D02*
X180290659Y-132435670D01*
X180290659Y-132435670D02*
X180338278Y-132483290D01*
X180338278Y-132483290D02*
X180433516Y-132530909D01*
X180433516Y-132530909D02*
X180623992Y-132530909D01*
X180623992Y-132530909D02*
X180719230Y-132483290D01*
X180719230Y-132483290D02*
X180766849Y-132435670D01*
X180766849Y-132435670D02*
X180814468Y-132340432D01*
X180814468Y-132340432D02*
X180814468Y-131530909D01*
X181719230Y-131864242D02*
X181719230Y-132530909D01*
X181481135Y-131483290D02*
X181243040Y-132197575D01*
X181243040Y-132197575D02*
X181862087Y-132197575D01*
D11*
X145375333Y-87322819D02*
X145042000Y-86846628D01*
X144803905Y-87322819D02*
X144803905Y-86322819D01*
X144803905Y-86322819D02*
X145184857Y-86322819D01*
X145184857Y-86322819D02*
X145280095Y-86370438D01*
X145280095Y-86370438D02*
X145327714Y-86418057D01*
X145327714Y-86418057D02*
X145375333Y-86513295D01*
X145375333Y-86513295D02*
X145375333Y-86656152D01*
X145375333Y-86656152D02*
X145327714Y-86751390D01*
X145327714Y-86751390D02*
X145280095Y-86799009D01*
X145280095Y-86799009D02*
X145184857Y-86846628D01*
X145184857Y-86846628D02*
X144803905Y-86846628D01*
X145708667Y-86322819D02*
X146375333Y-86322819D01*
X146375333Y-86322819D02*
X145946762Y-87322819D01*
X109982095Y-123740819D02*
X109982095Y-122740819D01*
X109982095Y-123217009D02*
X110553523Y-123217009D01*
X110553523Y-123740819D02*
X110553523Y-122740819D01*
X111553523Y-123740819D02*
X110982095Y-123740819D01*
X111267809Y-123740819D02*
X111267809Y-122740819D01*
X111267809Y-122740819D02*
X111172571Y-122883676D01*
X111172571Y-122883676D02*
X111077333Y-122978914D01*
X111077333Y-122978914D02*
X110982095Y-123026533D01*
X149806819Y-75604666D02*
X149330628Y-75937999D01*
X149806819Y-76176094D02*
X148806819Y-76176094D01*
X148806819Y-76176094D02*
X148806819Y-75795142D01*
X148806819Y-75795142D02*
X148854438Y-75699904D01*
X148854438Y-75699904D02*
X148902057Y-75652285D01*
X148902057Y-75652285D02*
X148997295Y-75604666D01*
X148997295Y-75604666D02*
X149140152Y-75604666D01*
X149140152Y-75604666D02*
X149235390Y-75652285D01*
X149235390Y-75652285D02*
X149283009Y-75699904D01*
X149283009Y-75699904D02*
X149330628Y-75795142D01*
X149330628Y-75795142D02*
X149330628Y-76176094D01*
X148902057Y-75223713D02*
X148854438Y-75176094D01*
X148854438Y-75176094D02*
X148806819Y-75080856D01*
X148806819Y-75080856D02*
X148806819Y-74842761D01*
X148806819Y-74842761D02*
X148854438Y-74747523D01*
X148854438Y-74747523D02*
X148902057Y-74699904D01*
X148902057Y-74699904D02*
X148997295Y-74652285D01*
X148997295Y-74652285D02*
X149092533Y-74652285D01*
X149092533Y-74652285D02*
X149235390Y-74699904D01*
X149235390Y-74699904D02*
X149806819Y-75271332D01*
X149806819Y-75271332D02*
X149806819Y-74652285D01*
X180794819Y-102528666D02*
X180318628Y-102861999D01*
X180794819Y-103100094D02*
X179794819Y-103100094D01*
X179794819Y-103100094D02*
X179794819Y-102719142D01*
X179794819Y-102719142D02*
X179842438Y-102623904D01*
X179842438Y-102623904D02*
X179890057Y-102576285D01*
X179890057Y-102576285D02*
X179985295Y-102528666D01*
X179985295Y-102528666D02*
X180128152Y-102528666D01*
X180128152Y-102528666D02*
X180223390Y-102576285D01*
X180223390Y-102576285D02*
X180271009Y-102623904D01*
X180271009Y-102623904D02*
X180318628Y-102719142D01*
X180318628Y-102719142D02*
X180318628Y-103100094D01*
X180223390Y-101957237D02*
X180175771Y-102052475D01*
X180175771Y-102052475D02*
X180128152Y-102100094D01*
X180128152Y-102100094D02*
X180032914Y-102147713D01*
X180032914Y-102147713D02*
X179985295Y-102147713D01*
X179985295Y-102147713D02*
X179890057Y-102100094D01*
X179890057Y-102100094D02*
X179842438Y-102052475D01*
X179842438Y-102052475D02*
X179794819Y-101957237D01*
X179794819Y-101957237D02*
X179794819Y-101766761D01*
X179794819Y-101766761D02*
X179842438Y-101671523D01*
X179842438Y-101671523D02*
X179890057Y-101623904D01*
X179890057Y-101623904D02*
X179985295Y-101576285D01*
X179985295Y-101576285D02*
X180032914Y-101576285D01*
X180032914Y-101576285D02*
X180128152Y-101623904D01*
X180128152Y-101623904D02*
X180175771Y-101671523D01*
X180175771Y-101671523D02*
X180223390Y-101766761D01*
X180223390Y-101766761D02*
X180223390Y-101957237D01*
X180223390Y-101957237D02*
X180271009Y-102052475D01*
X180271009Y-102052475D02*
X180318628Y-102100094D01*
X180318628Y-102100094D02*
X180413866Y-102147713D01*
X180413866Y-102147713D02*
X180604342Y-102147713D01*
X180604342Y-102147713D02*
X180699580Y-102100094D01*
X180699580Y-102100094D02*
X180747200Y-102052475D01*
X180747200Y-102052475D02*
X180794819Y-101957237D01*
X180794819Y-101957237D02*
X180794819Y-101766761D01*
X180794819Y-101766761D02*
X180747200Y-101671523D01*
X180747200Y-101671523D02*
X180699580Y-101623904D01*
X180699580Y-101623904D02*
X180604342Y-101576285D01*
X180604342Y-101576285D02*
X180413866Y-101576285D01*
X180413866Y-101576285D02*
X180318628Y-101623904D01*
X180318628Y-101623904D02*
X180271009Y-101671523D01*
X180271009Y-101671523D02*
X180223390Y-101766761D01*
D13*
X117919838Y-76852582D02*
X117824600Y-76804963D01*
X117824600Y-76804963D02*
X117729362Y-76709725D01*
X117729362Y-76709725D02*
X117586505Y-76566867D01*
X117586505Y-76566867D02*
X117491267Y-76519248D01*
X117491267Y-76519248D02*
X117396029Y-76519248D01*
X117443648Y-76757344D02*
X117348410Y-76709725D01*
X117348410Y-76709725D02*
X117253172Y-76614486D01*
X117253172Y-76614486D02*
X117205553Y-76424010D01*
X117205553Y-76424010D02*
X117205553Y-76090677D01*
X117205553Y-76090677D02*
X117253172Y-75900201D01*
X117253172Y-75900201D02*
X117348410Y-75804963D01*
X117348410Y-75804963D02*
X117443648Y-75757344D01*
X117443648Y-75757344D02*
X117634124Y-75757344D01*
X117634124Y-75757344D02*
X117729362Y-75804963D01*
X117729362Y-75804963D02*
X117824600Y-75900201D01*
X117824600Y-75900201D02*
X117872219Y-76090677D01*
X117872219Y-76090677D02*
X117872219Y-76424010D01*
X117872219Y-76424010D02*
X117824600Y-76614486D01*
X117824600Y-76614486D02*
X117729362Y-76709725D01*
X117729362Y-76709725D02*
X117634124Y-76757344D01*
X117634124Y-76757344D02*
X117443648Y-76757344D01*
X118824600Y-76757344D02*
X118253172Y-76757344D01*
X118538886Y-76757344D02*
X118538886Y-75757344D01*
X118538886Y-75757344D02*
X118443648Y-75900201D01*
X118443648Y-75900201D02*
X118348410Y-75995439D01*
X118348410Y-75995439D02*
X118253172Y-76043058D01*
D11*
X192833714Y-78655104D02*
X193309904Y-78655104D01*
X192738476Y-78940819D02*
X193071809Y-77940819D01*
X193071809Y-77940819D02*
X193405142Y-78940819D01*
X194262285Y-78940819D02*
X193690857Y-78940819D01*
X193976571Y-78940819D02*
X193976571Y-77940819D01*
X193976571Y-77940819D02*
X193881333Y-78083676D01*
X193881333Y-78083676D02*
X193786095Y-78178914D01*
X193786095Y-78178914D02*
X193690857Y-78226533D01*
X192286095Y-118580819D02*
X192286095Y-119390342D01*
X192286095Y-119390342D02*
X192333714Y-119485580D01*
X192333714Y-119485580D02*
X192381333Y-119533200D01*
X192381333Y-119533200D02*
X192476571Y-119580819D01*
X192476571Y-119580819D02*
X192667047Y-119580819D01*
X192667047Y-119580819D02*
X192762285Y-119533200D01*
X192762285Y-119533200D02*
X192809904Y-119485580D01*
X192809904Y-119485580D02*
X192857523Y-119390342D01*
X192857523Y-119390342D02*
X192857523Y-118580819D01*
X193286095Y-119533200D02*
X193428952Y-119580819D01*
X193428952Y-119580819D02*
X193667047Y-119580819D01*
X193667047Y-119580819D02*
X193762285Y-119533200D01*
X193762285Y-119533200D02*
X193809904Y-119485580D01*
X193809904Y-119485580D02*
X193857523Y-119390342D01*
X193857523Y-119390342D02*
X193857523Y-119295104D01*
X193857523Y-119295104D02*
X193809904Y-119199866D01*
X193809904Y-119199866D02*
X193762285Y-119152247D01*
X193762285Y-119152247D02*
X193667047Y-119104628D01*
X193667047Y-119104628D02*
X193476571Y-119057009D01*
X193476571Y-119057009D02*
X193381333Y-119009390D01*
X193381333Y-119009390D02*
X193333714Y-118961771D01*
X193333714Y-118961771D02*
X193286095Y-118866533D01*
X193286095Y-118866533D02*
X193286095Y-118771295D01*
X193286095Y-118771295D02*
X193333714Y-118676057D01*
X193333714Y-118676057D02*
X193381333Y-118628438D01*
X193381333Y-118628438D02*
X193476571Y-118580819D01*
X193476571Y-118580819D02*
X193714666Y-118580819D01*
X193714666Y-118580819D02*
X193857523Y-118628438D01*
X194619428Y-119057009D02*
X194762285Y-119104628D01*
X194762285Y-119104628D02*
X194809904Y-119152247D01*
X194809904Y-119152247D02*
X194857523Y-119247485D01*
X194857523Y-119247485D02*
X194857523Y-119390342D01*
X194857523Y-119390342D02*
X194809904Y-119485580D01*
X194809904Y-119485580D02*
X194762285Y-119533200D01*
X194762285Y-119533200D02*
X194667047Y-119580819D01*
X194667047Y-119580819D02*
X194286095Y-119580819D01*
X194286095Y-119580819D02*
X194286095Y-118580819D01*
X194286095Y-118580819D02*
X194619428Y-118580819D01*
X194619428Y-118580819D02*
X194714666Y-118628438D01*
X194714666Y-118628438D02*
X194762285Y-118676057D01*
X194762285Y-118676057D02*
X194809904Y-118771295D01*
X194809904Y-118771295D02*
X194809904Y-118866533D01*
X194809904Y-118866533D02*
X194762285Y-118961771D01*
X194762285Y-118961771D02*
X194714666Y-119009390D01*
X194714666Y-119009390D02*
X194619428Y-119057009D01*
X194619428Y-119057009D02*
X194286095Y-119057009D01*
X109982095Y-93260819D02*
X109982095Y-92260819D01*
X109982095Y-92737009D02*
X110553523Y-92737009D01*
X110553523Y-93260819D02*
X110553523Y-92260819D01*
X110934476Y-92260819D02*
X111553523Y-92260819D01*
X111553523Y-92260819D02*
X111220190Y-92641771D01*
X111220190Y-92641771D02*
X111363047Y-92641771D01*
X111363047Y-92641771D02*
X111458285Y-92689390D01*
X111458285Y-92689390D02*
X111505904Y-92737009D01*
X111505904Y-92737009D02*
X111553523Y-92832247D01*
X111553523Y-92832247D02*
X111553523Y-93070342D01*
X111553523Y-93070342D02*
X111505904Y-93165580D01*
X111505904Y-93165580D02*
X111458285Y-93213200D01*
X111458285Y-93213200D02*
X111363047Y-93260819D01*
X111363047Y-93260819D02*
X111077333Y-93260819D01*
X111077333Y-93260819D02*
X110982095Y-93213200D01*
X110982095Y-93213200D02*
X110934476Y-93165580D01*
X177919143Y-140821580D02*
X177871524Y-140869200D01*
X177871524Y-140869200D02*
X177728667Y-140916819D01*
X177728667Y-140916819D02*
X177633429Y-140916819D01*
X177633429Y-140916819D02*
X177490572Y-140869200D01*
X177490572Y-140869200D02*
X177395334Y-140773961D01*
X177395334Y-140773961D02*
X177347715Y-140678723D01*
X177347715Y-140678723D02*
X177300096Y-140488247D01*
X177300096Y-140488247D02*
X177300096Y-140345390D01*
X177300096Y-140345390D02*
X177347715Y-140154914D01*
X177347715Y-140154914D02*
X177395334Y-140059676D01*
X177395334Y-140059676D02*
X177490572Y-139964438D01*
X177490572Y-139964438D02*
X177633429Y-139916819D01*
X177633429Y-139916819D02*
X177728667Y-139916819D01*
X177728667Y-139916819D02*
X177871524Y-139964438D01*
X177871524Y-139964438D02*
X177919143Y-140012057D01*
X178871524Y-140916819D02*
X178300096Y-140916819D01*
X178585810Y-140916819D02*
X178585810Y-139916819D01*
X178585810Y-139916819D02*
X178490572Y-140059676D01*
X178490572Y-140059676D02*
X178395334Y-140154914D01*
X178395334Y-140154914D02*
X178300096Y-140202533D01*
X179728667Y-140250152D02*
X179728667Y-140916819D01*
X179490572Y-139869200D02*
X179252477Y-140583485D01*
X179252477Y-140583485D02*
X179871524Y-140583485D01*
X146790703Y-122401335D02*
X146083597Y-121694228D01*
X146083597Y-121694228D02*
X146251955Y-121525869D01*
X146251955Y-121525869D02*
X146386642Y-121458526D01*
X146386642Y-121458526D02*
X146521329Y-121458526D01*
X146521329Y-121458526D02*
X146622345Y-121492198D01*
X146622345Y-121492198D02*
X146790703Y-121593213D01*
X146790703Y-121593213D02*
X146891719Y-121694228D01*
X146891719Y-121694228D02*
X146992734Y-121862587D01*
X146992734Y-121862587D02*
X147026406Y-121963602D01*
X147026406Y-121963602D02*
X147026406Y-122098289D01*
X147026406Y-122098289D02*
X146959062Y-122232976D01*
X146959062Y-122232976D02*
X146790703Y-122401335D01*
X146723360Y-121054465D02*
X147161093Y-120616732D01*
X147161093Y-120616732D02*
X147194764Y-121121808D01*
X147194764Y-121121808D02*
X147295780Y-121020793D01*
X147295780Y-121020793D02*
X147396795Y-120987121D01*
X147396795Y-120987121D02*
X147464138Y-120987121D01*
X147464138Y-120987121D02*
X147565154Y-121020793D01*
X147565154Y-121020793D02*
X147733512Y-121189152D01*
X147733512Y-121189152D02*
X147767184Y-121290167D01*
X147767184Y-121290167D02*
X147767184Y-121357511D01*
X147767184Y-121357511D02*
X147733512Y-121458526D01*
X147733512Y-121458526D02*
X147531482Y-121660556D01*
X147531482Y-121660556D02*
X147430467Y-121694228D01*
X147430467Y-121694228D02*
X147363123Y-121694228D01*
X144659618Y-124984969D02*
X143952512Y-124277862D01*
X145063680Y-124580908D02*
X144356573Y-124479892D01*
X144356573Y-123873801D02*
X144356573Y-124681923D01*
D13*
X117252761Y-137458657D02*
X117157523Y-137411038D01*
X117157523Y-137411038D02*
X117062285Y-137315800D01*
X117062285Y-137315800D02*
X116919428Y-137172942D01*
X116919428Y-137172942D02*
X116824190Y-137125323D01*
X116824190Y-137125323D02*
X116728952Y-137125323D01*
X116776571Y-137363419D02*
X116681333Y-137315800D01*
X116681333Y-137315800D02*
X116586095Y-137220561D01*
X116586095Y-137220561D02*
X116538476Y-137030085D01*
X116538476Y-137030085D02*
X116538476Y-136696752D01*
X116538476Y-136696752D02*
X116586095Y-136506276D01*
X116586095Y-136506276D02*
X116681333Y-136411038D01*
X116681333Y-136411038D02*
X116776571Y-136363419D01*
X116776571Y-136363419D02*
X116967047Y-136363419D01*
X116967047Y-136363419D02*
X117062285Y-136411038D01*
X117062285Y-136411038D02*
X117157523Y-136506276D01*
X117157523Y-136506276D02*
X117205142Y-136696752D01*
X117205142Y-136696752D02*
X117205142Y-137030085D01*
X117205142Y-137030085D02*
X117157523Y-137220561D01*
X117157523Y-137220561D02*
X117062285Y-137315800D01*
X117062285Y-137315800D02*
X116967047Y-137363419D01*
X116967047Y-137363419D02*
X116776571Y-137363419D01*
X117538476Y-136363419D02*
X118157523Y-136363419D01*
X118157523Y-136363419D02*
X117824190Y-136744371D01*
X117824190Y-136744371D02*
X117967047Y-136744371D01*
X117967047Y-136744371D02*
X118062285Y-136791990D01*
X118062285Y-136791990D02*
X118109904Y-136839609D01*
X118109904Y-136839609D02*
X118157523Y-136934847D01*
X118157523Y-136934847D02*
X118157523Y-137172942D01*
X118157523Y-137172942D02*
X118109904Y-137268180D01*
X118109904Y-137268180D02*
X118062285Y-137315800D01*
X118062285Y-137315800D02*
X117967047Y-137363419D01*
X117967047Y-137363419D02*
X117681333Y-137363419D01*
X117681333Y-137363419D02*
X117586095Y-137315800D01*
X117586095Y-137315800D02*
X117538476Y-137268180D01*
D11*
X174347333Y-107233580D02*
X174299714Y-107281200D01*
X174299714Y-107281200D02*
X174156857Y-107328819D01*
X174156857Y-107328819D02*
X174061619Y-107328819D01*
X174061619Y-107328819D02*
X173918762Y-107281200D01*
X173918762Y-107281200D02*
X173823524Y-107185961D01*
X173823524Y-107185961D02*
X173775905Y-107090723D01*
X173775905Y-107090723D02*
X173728286Y-106900247D01*
X173728286Y-106900247D02*
X173728286Y-106757390D01*
X173728286Y-106757390D02*
X173775905Y-106566914D01*
X173775905Y-106566914D02*
X173823524Y-106471676D01*
X173823524Y-106471676D02*
X173918762Y-106376438D01*
X173918762Y-106376438D02*
X174061619Y-106328819D01*
X174061619Y-106328819D02*
X174156857Y-106328819D01*
X174156857Y-106328819D02*
X174299714Y-106376438D01*
X174299714Y-106376438D02*
X174347333Y-106424057D01*
X174680667Y-106328819D02*
X175347333Y-106328819D01*
X175347333Y-106328819D02*
X174918762Y-107328819D01*
X176785674Y-117939299D02*
X176213255Y-117838284D01*
X176381613Y-118343360D02*
X175674507Y-117636253D01*
X175674507Y-117636253D02*
X175943881Y-117366879D01*
X175943881Y-117366879D02*
X176044896Y-117333207D01*
X176044896Y-117333207D02*
X176112239Y-117333207D01*
X176112239Y-117333207D02*
X176213255Y-117366879D01*
X176213255Y-117366879D02*
X176314270Y-117467894D01*
X176314270Y-117467894D02*
X176347942Y-117568910D01*
X176347942Y-117568910D02*
X176347942Y-117636253D01*
X176347942Y-117636253D02*
X176314270Y-117737268D01*
X176314270Y-117737268D02*
X176044896Y-118006642D01*
X177122392Y-117602581D02*
X177257079Y-117467894D01*
X177257079Y-117467894D02*
X177290751Y-117366879D01*
X177290751Y-117366879D02*
X177290751Y-117299536D01*
X177290751Y-117299536D02*
X177257079Y-117131177D01*
X177257079Y-117131177D02*
X177156064Y-116962818D01*
X177156064Y-116962818D02*
X176886690Y-116693444D01*
X176886690Y-116693444D02*
X176785674Y-116659772D01*
X176785674Y-116659772D02*
X176718331Y-116659772D01*
X176718331Y-116659772D02*
X176617316Y-116693444D01*
X176617316Y-116693444D02*
X176482629Y-116828131D01*
X176482629Y-116828131D02*
X176448957Y-116929146D01*
X176448957Y-116929146D02*
X176448957Y-116996490D01*
X176448957Y-116996490D02*
X176482629Y-117097505D01*
X176482629Y-117097505D02*
X176650987Y-117265864D01*
X176650987Y-117265864D02*
X176752003Y-117299536D01*
X176752003Y-117299536D02*
X176819346Y-117299536D01*
X176819346Y-117299536D02*
X176920361Y-117265864D01*
X176920361Y-117265864D02*
X177055048Y-117131177D01*
X177055048Y-117131177D02*
X177088720Y-117030162D01*
X177088720Y-117030162D02*
X177088720Y-116962818D01*
X177088720Y-116962818D02*
X177055048Y-116861803D01*
X152950058Y-112688238D02*
X152902439Y-112783476D01*
X152902439Y-112783476D02*
X152807201Y-112878714D01*
X152807201Y-112878714D02*
X152664343Y-113021571D01*
X152664343Y-113021571D02*
X152616724Y-113116809D01*
X152616724Y-113116809D02*
X152616724Y-113212047D01*
X152854820Y-113164428D02*
X152807201Y-113259666D01*
X152807201Y-113259666D02*
X152711962Y-113354904D01*
X152711962Y-113354904D02*
X152521486Y-113402523D01*
X152521486Y-113402523D02*
X152188153Y-113402523D01*
X152188153Y-113402523D02*
X151997677Y-113354904D01*
X151997677Y-113354904D02*
X151902439Y-113259666D01*
X151902439Y-113259666D02*
X151854820Y-113164428D01*
X151854820Y-113164428D02*
X151854820Y-112973952D01*
X151854820Y-112973952D02*
X151902439Y-112878714D01*
X151902439Y-112878714D02*
X151997677Y-112783476D01*
X151997677Y-112783476D02*
X152188153Y-112735857D01*
X152188153Y-112735857D02*
X152521486Y-112735857D01*
X152521486Y-112735857D02*
X152711962Y-112783476D01*
X152711962Y-112783476D02*
X152807201Y-112878714D01*
X152807201Y-112878714D02*
X152854820Y-112973952D01*
X152854820Y-112973952D02*
X152854820Y-113164428D01*
X151854820Y-112402523D02*
X151854820Y-111735857D01*
X151854820Y-111735857D02*
X152854820Y-112164428D01*
X188976095Y-67606819D02*
X188976095Y-66606819D01*
X188976095Y-67083009D02*
X189547523Y-67083009D01*
X189547523Y-67606819D02*
X189547523Y-66606819D01*
X190499904Y-66606819D02*
X190023714Y-66606819D01*
X190023714Y-66606819D02*
X189976095Y-67083009D01*
X189976095Y-67083009D02*
X190023714Y-67035390D01*
X190023714Y-67035390D02*
X190118952Y-66987771D01*
X190118952Y-66987771D02*
X190357047Y-66987771D01*
X190357047Y-66987771D02*
X190452285Y-67035390D01*
X190452285Y-67035390D02*
X190499904Y-67083009D01*
X190499904Y-67083009D02*
X190547523Y-67178247D01*
X190547523Y-67178247D02*
X190547523Y-67416342D01*
X190547523Y-67416342D02*
X190499904Y-67511580D01*
X190499904Y-67511580D02*
X190452285Y-67559200D01*
X190452285Y-67559200D02*
X190357047Y-67606819D01*
X190357047Y-67606819D02*
X190118952Y-67606819D01*
X190118952Y-67606819D02*
X190023714Y-67559200D01*
X190023714Y-67559200D02*
X189976095Y-67511580D01*
X175379142Y-121020819D02*
X175045809Y-120544628D01*
X174807714Y-121020819D02*
X174807714Y-120020819D01*
X174807714Y-120020819D02*
X175188666Y-120020819D01*
X175188666Y-120020819D02*
X175283904Y-120068438D01*
X175283904Y-120068438D02*
X175331523Y-120116057D01*
X175331523Y-120116057D02*
X175379142Y-120211295D01*
X175379142Y-120211295D02*
X175379142Y-120354152D01*
X175379142Y-120354152D02*
X175331523Y-120449390D01*
X175331523Y-120449390D02*
X175283904Y-120497009D01*
X175283904Y-120497009D02*
X175188666Y-120544628D01*
X175188666Y-120544628D02*
X174807714Y-120544628D01*
X176331523Y-121020819D02*
X175760095Y-121020819D01*
X176045809Y-121020819D02*
X176045809Y-120020819D01*
X176045809Y-120020819D02*
X175950571Y-120163676D01*
X175950571Y-120163676D02*
X175855333Y-120258914D01*
X175855333Y-120258914D02*
X175760095Y-120306533D01*
X176950571Y-120020819D02*
X177045809Y-120020819D01*
X177045809Y-120020819D02*
X177141047Y-120068438D01*
X177141047Y-120068438D02*
X177188666Y-120116057D01*
X177188666Y-120116057D02*
X177236285Y-120211295D01*
X177236285Y-120211295D02*
X177283904Y-120401771D01*
X177283904Y-120401771D02*
X177283904Y-120639866D01*
X177283904Y-120639866D02*
X177236285Y-120830342D01*
X177236285Y-120830342D02*
X177188666Y-120925580D01*
X177188666Y-120925580D02*
X177141047Y-120973200D01*
X177141047Y-120973200D02*
X177045809Y-121020819D01*
X177045809Y-121020819D02*
X176950571Y-121020819D01*
X176950571Y-121020819D02*
X176855333Y-120973200D01*
X176855333Y-120973200D02*
X176807714Y-120925580D01*
X176807714Y-120925580D02*
X176760095Y-120830342D01*
X176760095Y-120830342D02*
X176712476Y-120639866D01*
X176712476Y-120639866D02*
X176712476Y-120401771D01*
X176712476Y-120401771D02*
X176760095Y-120211295D01*
X176760095Y-120211295D02*
X176807714Y-120116057D01*
X176807714Y-120116057D02*
X176855333Y-120068438D01*
X176855333Y-120068438D02*
X176950571Y-120020819D01*
X157391580Y-143188666D02*
X157439200Y-143236285D01*
X157439200Y-143236285D02*
X157486819Y-143379142D01*
X157486819Y-143379142D02*
X157486819Y-143474380D01*
X157486819Y-143474380D02*
X157439200Y-143617237D01*
X157439200Y-143617237D02*
X157343961Y-143712475D01*
X157343961Y-143712475D02*
X157248723Y-143760094D01*
X157248723Y-143760094D02*
X157058247Y-143807713D01*
X157058247Y-143807713D02*
X156915390Y-143807713D01*
X156915390Y-143807713D02*
X156724914Y-143760094D01*
X156724914Y-143760094D02*
X156629676Y-143712475D01*
X156629676Y-143712475D02*
X156534438Y-143617237D01*
X156534438Y-143617237D02*
X156486819Y-143474380D01*
X156486819Y-143474380D02*
X156486819Y-143379142D01*
X156486819Y-143379142D02*
X156534438Y-143236285D01*
X156534438Y-143236285D02*
X156582057Y-143188666D01*
X156820152Y-142331523D02*
X157486819Y-142331523D01*
X156439200Y-142569618D02*
X157153485Y-142807713D01*
X157153485Y-142807713D02*
X157153485Y-142188666D01*
X149903693Y-61549517D02*
X149196587Y-60842410D01*
X149196587Y-60842410D02*
X149364945Y-60674051D01*
X149364945Y-60674051D02*
X149499632Y-60606708D01*
X149499632Y-60606708D02*
X149634319Y-60606708D01*
X149634319Y-60606708D02*
X149735335Y-60640380D01*
X149735335Y-60640380D02*
X149903693Y-60741395D01*
X149903693Y-60741395D02*
X150004709Y-60842410D01*
X150004709Y-60842410D02*
X150105724Y-61010769D01*
X150105724Y-61010769D02*
X150139396Y-61111784D01*
X150139396Y-61111784D02*
X150139396Y-61246471D01*
X150139396Y-61246471D02*
X150072052Y-61381158D01*
X150072052Y-61381158D02*
X149903693Y-61549517D01*
X149937365Y-60236319D02*
X149937365Y-60168975D01*
X149937365Y-60168975D02*
X149971037Y-60067960D01*
X149971037Y-60067960D02*
X150139396Y-59899601D01*
X150139396Y-59899601D02*
X150240411Y-59865929D01*
X150240411Y-59865929D02*
X150307754Y-59865929D01*
X150307754Y-59865929D02*
X150408770Y-59899601D01*
X150408770Y-59899601D02*
X150476113Y-59966945D01*
X150476113Y-59966945D02*
X150543457Y-60101632D01*
X150543457Y-60101632D02*
X150543457Y-60909754D01*
X150543457Y-60909754D02*
X150981189Y-60472021D01*
X146029542Y-62807936D02*
X145322436Y-62100829D01*
X146433604Y-62403875D02*
X145726497Y-62302859D01*
X145726497Y-61696768D02*
X145726497Y-62504890D01*
X145237754Y-59113456D02*
X144665335Y-59012441D01*
X144833693Y-59517517D02*
X144126587Y-58810410D01*
X144126587Y-58810410D02*
X144395961Y-58541036D01*
X144395961Y-58541036D02*
X144496976Y-58507364D01*
X144496976Y-58507364D02*
X144564319Y-58507364D01*
X144564319Y-58507364D02*
X144665335Y-58541036D01*
X144665335Y-58541036D02*
X144766350Y-58642051D01*
X144766350Y-58642051D02*
X144800022Y-58743067D01*
X144800022Y-58743067D02*
X144800022Y-58810410D01*
X144800022Y-58810410D02*
X144766350Y-58911425D01*
X144766350Y-58911425D02*
X144496976Y-59180799D01*
X144766350Y-58170647D02*
X145204083Y-57732914D01*
X145204083Y-57732914D02*
X145237754Y-58237990D01*
X145237754Y-58237990D02*
X145338770Y-58136975D01*
X145338770Y-58136975D02*
X145439785Y-58103303D01*
X145439785Y-58103303D02*
X145507128Y-58103303D01*
X145507128Y-58103303D02*
X145608144Y-58136975D01*
X145608144Y-58136975D02*
X145776502Y-58305334D01*
X145776502Y-58305334D02*
X145810174Y-58406349D01*
X145810174Y-58406349D02*
X145810174Y-58473693D01*
X145810174Y-58473693D02*
X145776502Y-58574708D01*
X145776502Y-58574708D02*
X145574472Y-58776738D01*
X145574472Y-58776738D02*
X145473457Y-58810410D01*
X145473457Y-58810410D02*
X145406113Y-58810410D01*
X183983333Y-145901579D02*
X183935714Y-145949199D01*
X183935714Y-145949199D02*
X183792857Y-145996818D01*
X183792857Y-145996818D02*
X183697619Y-145996818D01*
X183697619Y-145996818D02*
X183554762Y-145949199D01*
X183554762Y-145949199D02*
X183459524Y-145853960D01*
X183459524Y-145853960D02*
X183411905Y-145758722D01*
X183411905Y-145758722D02*
X183364286Y-145568246D01*
X183364286Y-145568246D02*
X183364286Y-145425389D01*
X183364286Y-145425389D02*
X183411905Y-145234913D01*
X183411905Y-145234913D02*
X183459524Y-145139675D01*
X183459524Y-145139675D02*
X183554762Y-145044437D01*
X183554762Y-145044437D02*
X183697619Y-144996818D01*
X183697619Y-144996818D02*
X183792857Y-144996818D01*
X183792857Y-144996818D02*
X183935714Y-145044437D01*
X183935714Y-145044437D02*
X183983333Y-145092056D01*
X184840476Y-144996818D02*
X184650000Y-144996818D01*
X184650000Y-144996818D02*
X184554762Y-145044437D01*
X184554762Y-145044437D02*
X184507143Y-145092056D01*
X184507143Y-145092056D02*
X184411905Y-145234913D01*
X184411905Y-145234913D02*
X184364286Y-145425389D01*
X184364286Y-145425389D02*
X184364286Y-145806341D01*
X184364286Y-145806341D02*
X184411905Y-145901579D01*
X184411905Y-145901579D02*
X184459524Y-145949199D01*
X184459524Y-145949199D02*
X184554762Y-145996818D01*
X184554762Y-145996818D02*
X184745238Y-145996818D01*
X184745238Y-145996818D02*
X184840476Y-145949199D01*
X184840476Y-145949199D02*
X184888095Y-145901579D01*
X184888095Y-145901579D02*
X184935714Y-145806341D01*
X184935714Y-145806341D02*
X184935714Y-145568246D01*
X184935714Y-145568246D02*
X184888095Y-145473008D01*
X184888095Y-145473008D02*
X184840476Y-145425389D01*
X184840476Y-145425389D02*
X184745238Y-145377770D01*
X184745238Y-145377770D02*
X184554762Y-145377770D01*
X184554762Y-145377770D02*
X184459524Y-145425389D01*
X184459524Y-145425389D02*
X184411905Y-145473008D01*
X184411905Y-145473008D02*
X184364286Y-145568246D01*
D14*
%TO.C,C3*%
X161504000Y-82465114D02*
X166664000Y-82465114D01*
X161504000Y-82505114D02*
X166664000Y-82505114D01*
X161505001Y-82425114D02*
X166662999Y-82425114D01*
X161506000Y-82385114D02*
X166662000Y-82385114D01*
X161507999Y-82345114D02*
X166660001Y-82345114D01*
X161511000Y-82305114D02*
X166657000Y-82305114D01*
X161515000Y-82265114D02*
X163044000Y-82265114D01*
X161519000Y-82225115D02*
X163044000Y-82225115D01*
X161523000Y-82185114D02*
X163044000Y-82185114D01*
X161528000Y-82145114D02*
X163044000Y-82145114D01*
X161534000Y-82105114D02*
X163044000Y-82105114D01*
X161541000Y-82065114D02*
X163043999Y-82065114D01*
X161548000Y-82025114D02*
X163044000Y-82025114D01*
X161556000Y-81985114D02*
X163044000Y-81985114D01*
X161564000Y-81945114D02*
X163044000Y-81945114D01*
X161572999Y-81905114D02*
X163043999Y-81905114D01*
X161583000Y-81865114D02*
X163044000Y-81865114D01*
X161593000Y-81825114D02*
X163044000Y-81825114D01*
X161604000Y-81784114D02*
X163043999Y-81784114D01*
X161616000Y-81744114D02*
X163044000Y-81744114D01*
X161629000Y-81704114D02*
X163044000Y-81704114D01*
X161642000Y-81664114D02*
X163044000Y-81664114D01*
X161656000Y-81624114D02*
X163043999Y-81624114D01*
X161670000Y-81584114D02*
X163044000Y-81584114D01*
X161686000Y-81544114D02*
X163044000Y-81544114D01*
X161702000Y-81504114D02*
X163044000Y-81504115D01*
X161719000Y-81464114D02*
X163044000Y-81464113D01*
X161736000Y-81424114D02*
X163044000Y-81424114D01*
X161755000Y-81384114D02*
X163044000Y-81384114D01*
X161774000Y-81344114D02*
X163043999Y-81344114D01*
X161794000Y-81304114D02*
X163044000Y-81304114D01*
X161816000Y-81264114D02*
X163044000Y-81264114D01*
X161837000Y-81224114D02*
X163044000Y-81224114D01*
X161860000Y-81184114D02*
X163043999Y-81184114D01*
X161884000Y-81144114D02*
X163044000Y-81144114D01*
X161909000Y-81104114D02*
X163044000Y-81104114D01*
X161935000Y-81064114D02*
X163044000Y-81064114D01*
X161962000Y-81024114D02*
X163044000Y-81024113D01*
X161989000Y-80984114D02*
X163044000Y-80984114D01*
X162019000Y-80944114D02*
X163044000Y-80944114D01*
X162049000Y-80904114D02*
X163044000Y-80904115D01*
X162080000Y-80864114D02*
X163044000Y-80864114D01*
X162113001Y-80824114D02*
X163044000Y-80824114D01*
X162147000Y-80784114D02*
X163044000Y-80784114D01*
X162183000Y-80744113D02*
X163043999Y-80744114D01*
X162220000Y-80704114D02*
X163044000Y-80704114D01*
X162258000Y-80664114D02*
X163044000Y-80664114D01*
X162299000Y-80624114D02*
X163044000Y-80624114D01*
X162340999Y-80584114D02*
X163044000Y-80584113D01*
X162359000Y-85059889D02*
X162859000Y-85059889D01*
X162385000Y-80544115D02*
X163044000Y-80544114D01*
X162431000Y-80504113D02*
X163044000Y-80504114D01*
X162479000Y-80464114D02*
X163044000Y-80464115D01*
X162530000Y-80424114D02*
X163044000Y-80424114D01*
X162584000Y-80384114D02*
X163044000Y-80384114D01*
X162609000Y-85309888D02*
X162609000Y-84809889D01*
X162641000Y-80344114D02*
X163044000Y-80344114D01*
X162701000Y-80304114D02*
X163043999Y-80304114D01*
X162765000Y-80264114D02*
X163044000Y-80264114D01*
X162832999Y-80224114D02*
X163044000Y-80224114D01*
X162906000Y-80184114D02*
X165262000Y-80184114D01*
X162986000Y-80144114D02*
X165182000Y-80144114D01*
X163073000Y-80104114D02*
X165095000Y-80104114D01*
X163169000Y-80064114D02*
X164999000Y-80064114D01*
X163279000Y-80024115D02*
X164889000Y-80024115D01*
X163407000Y-79984114D02*
X164761000Y-79984114D01*
X163566000Y-79944114D02*
X164602000Y-79944114D01*
X163800000Y-79904114D02*
X164368000Y-79904114D01*
X165124000Y-80224114D02*
X165335001Y-80224114D01*
X165124000Y-80264114D02*
X165403000Y-80264114D01*
X165124000Y-80344114D02*
X165527000Y-80344114D01*
X165124000Y-80384114D02*
X165584000Y-80384114D01*
X165124000Y-80424114D02*
X165638000Y-80424114D01*
X165124000Y-80464115D02*
X165689000Y-80464114D01*
X165124000Y-80504114D02*
X165737000Y-80504113D01*
X165124000Y-80544114D02*
X165783000Y-80544115D01*
X165124000Y-80584113D02*
X165827001Y-80584114D01*
X165124000Y-80624114D02*
X165869000Y-80624114D01*
X165124000Y-80664114D02*
X165910000Y-80664114D01*
X165124000Y-80704114D02*
X165948000Y-80704114D01*
X165124000Y-80784114D02*
X166021000Y-80784114D01*
X165124000Y-80824114D02*
X166054999Y-80824114D01*
X165124000Y-80864114D02*
X166088000Y-80864114D01*
X165124000Y-80904115D02*
X166119000Y-80904114D01*
X165124000Y-80944114D02*
X166149000Y-80944114D01*
X165124000Y-80984114D02*
X166179000Y-80984114D01*
X165124000Y-81024113D02*
X166206000Y-81024114D01*
X165124000Y-81064114D02*
X166233000Y-81064114D01*
X165124000Y-81104114D02*
X166259000Y-81104114D01*
X165124000Y-81144114D02*
X166284000Y-81144114D01*
X165124000Y-81224114D02*
X166331000Y-81224114D01*
X165124000Y-81264114D02*
X166352000Y-81264114D01*
X165124000Y-81304114D02*
X166374000Y-81304114D01*
X165124000Y-81384114D02*
X166413000Y-81384114D01*
X165124000Y-81424114D02*
X166432000Y-81424114D01*
X165124000Y-81464113D02*
X166449000Y-81464114D01*
X165124000Y-81504115D02*
X166466000Y-81504114D01*
X165124000Y-81544114D02*
X166482000Y-81544114D01*
X165124000Y-81584114D02*
X166498000Y-81584114D01*
X165124000Y-81664114D02*
X166526000Y-81664114D01*
X165124000Y-81704114D02*
X166539000Y-81704114D01*
X165124000Y-81744114D02*
X166552000Y-81744114D01*
X165124000Y-81825114D02*
X166575000Y-81825114D01*
X165124000Y-81865114D02*
X166585000Y-81865114D01*
X165124000Y-81945114D02*
X166604000Y-81945114D01*
X165124000Y-81985114D02*
X166612000Y-81985114D01*
X165124000Y-82025114D02*
X166620000Y-82025114D01*
X165124000Y-82105114D02*
X166634000Y-82105114D01*
X165124000Y-82145114D02*
X166640000Y-82145114D01*
X165124000Y-82185114D02*
X166645000Y-82185114D01*
X165124000Y-82225115D02*
X166649000Y-82225115D01*
X165124000Y-82265114D02*
X166653000Y-82265114D01*
X165124001Y-80304114D02*
X165467000Y-80304114D01*
X165124001Y-80744114D02*
X165985000Y-80744113D01*
X165124001Y-81184114D02*
X166308000Y-81184114D01*
X165124001Y-81344114D02*
X166394000Y-81344114D01*
X165124001Y-81624114D02*
X166512000Y-81624114D01*
X165124001Y-81784114D02*
X166564000Y-81784114D01*
X165124001Y-81905114D02*
X166595001Y-81905114D01*
X165124001Y-82065114D02*
X166627000Y-82065114D01*
X166704001Y-82505115D02*
G75*
G02*
X161463999Y-82505115I-2620001J0D01*
G01*
X161463999Y-82505115D02*
G75*
G02*
X166704001Y-82505115I2620001J0D01*
G01*
%TO.C,Q5*%
X121292001Y-103632000D02*
X123832000Y-103632000D01*
X121292001Y-106172000D02*
X123832001Y-106172000D01*
X121292001Y-108712000D02*
X123832001Y-108712000D01*
X123832000Y-111292000D02*
X123832001Y-101052000D01*
X123832000Y-111292000D02*
X133322001Y-111292000D01*
X123832001Y-101052000D02*
X133322001Y-101052000D01*
D13*
X123854945Y-100831490D02*
X126140945Y-100831490D01*
D14*
X133562000Y-111292000D02*
X134762002Y-111292000D01*
X133562001Y-101052000D02*
X134762001Y-101052000D01*
X135962001Y-101052000D02*
X137162001Y-101052000D01*
X135962001Y-111292000D02*
X137162001Y-111292000D01*
X138362001Y-101052001D02*
X139562002Y-101052000D01*
X138362001Y-111292000D02*
X139562001Y-111292000D01*
X139722001Y-101692000D02*
X139722001Y-101052000D01*
X139722001Y-104092000D02*
X139722001Y-102892000D01*
X139722001Y-106492000D02*
X139722001Y-105292000D01*
X139722001Y-108893000D02*
X139722001Y-107692000D01*
X139722001Y-111292000D02*
X139722001Y-110092000D01*
%TO.C,R6*%
X147098000Y-102516000D02*
X147098000Y-102846000D01*
X147098000Y-105256000D02*
X147098000Y-104926000D01*
X153638000Y-102516000D02*
X147098000Y-102516000D01*
X153638000Y-102846000D02*
X153638000Y-102516000D01*
X153638000Y-104926000D02*
X153638000Y-105256000D01*
X153638000Y-105256000D02*
X147098000Y-105256000D01*
%TO.C,R12*%
X141124000Y-129826000D02*
X141454000Y-129826000D01*
X141124000Y-136366000D02*
X141124000Y-129826000D01*
X141454000Y-136366000D02*
X141124000Y-136366000D01*
X143534000Y-136366000D02*
X143864000Y-136366000D01*
X143864000Y-129826000D02*
X143534000Y-129826000D01*
X143864000Y-136366000D02*
X143864000Y-129826000D01*
%TO.C,C10*%
X170724070Y-69203520D02*
X170574870Y-69054320D01*
X170752354Y-69175236D02*
X170555071Y-68977953D01*
X170780638Y-69146951D02*
X170538101Y-68904414D01*
X170808923Y-69118667D02*
X170523959Y-68833703D01*
X170837207Y-69090383D02*
X170511938Y-68765114D01*
X170865491Y-69062099D02*
X170502038Y-68698646D01*
X170893776Y-69033814D02*
X170494260Y-68634299D01*
X170922060Y-69005530D02*
X170488603Y-68572074D01*
X170950344Y-68977246D02*
X170484361Y-68511262D01*
X170978628Y-68948962D02*
X170481532Y-68451865D01*
X171006913Y-68920677D02*
X170480118Y-68393883D01*
X171035197Y-68892393D02*
X170479411Y-68336607D01*
X171063481Y-68864109D02*
X170480825Y-68281453D01*
X171091765Y-68835824D02*
X170482946Y-68227006D01*
X171120050Y-68807540D02*
X170485775Y-68173265D01*
X171148334Y-68779256D02*
X170490018Y-68120940D01*
X171176618Y-68750972D02*
X170494967Y-68069321D01*
X171204903Y-68722687D02*
X170501331Y-68019116D01*
X171233187Y-68694403D02*
X170508402Y-67969619D01*
X171261471Y-68666119D02*
X170515473Y-67920121D01*
X171289755Y-68637835D02*
X170524666Y-67872745D01*
X171318040Y-68609550D02*
X170533858Y-67825369D01*
X171346324Y-68581266D02*
X170543758Y-67778700D01*
X171374608Y-68552982D02*
X170554364Y-67732738D01*
X171402892Y-68524697D02*
X170565678Y-67687483D01*
X171431177Y-68496413D02*
X170577699Y-67642935D01*
X171434005Y-70366004D02*
X171032368Y-69964367D01*
X171459461Y-68468129D02*
X170591134Y-67599802D01*
X171487745Y-68439845D02*
X170603862Y-67555961D01*
X171516029Y-68411560D02*
X170618004Y-67513535D01*
X171544314Y-68383276D02*
X170632853Y-67471815D01*
X171572598Y-68354992D02*
X170647702Y-67430096D01*
X171600882Y-68326708D02*
X170663966Y-67389791D01*
X171627752Y-70503182D02*
X170895190Y-69770620D01*
X171629167Y-68298423D02*
X170680229Y-67349486D01*
X171657451Y-68270139D02*
X170697200Y-67309888D01*
X171685735Y-68241855D02*
X170714170Y-67270290D01*
X171714019Y-68213570D02*
X170732555Y-67232106D01*
X171742304Y-68185286D02*
X170750940Y-67193923D01*
X171768467Y-70587328D02*
X170811044Y-69629905D01*
X171770588Y-68157002D02*
X170770032Y-67156446D01*
X171798872Y-68128718D02*
X170789124Y-67118969D01*
X171827156Y-68100433D02*
X170808923Y-67082200D01*
X171856148Y-68071442D02*
X170830136Y-67045430D01*
X171884432Y-68043158D02*
X170851349Y-67010075D01*
X171887261Y-70649553D02*
X170748819Y-69511111D01*
X171912716Y-68014873D02*
X170872562Y-66974719D01*
X171941001Y-67986589D02*
X170894483Y-66940071D01*
X171969285Y-67958305D02*
X170917110Y-66906130D01*
X171993327Y-70699051D02*
X170699321Y-69405045D01*
X171997569Y-67930021D02*
X170939737Y-66872189D01*
X172025853Y-67901736D02*
X170963072Y-66838955D01*
X172054138Y-67873452D02*
X170986407Y-66805721D01*
X172082422Y-67845168D02*
X171010448Y-66773194D01*
X172089493Y-70738649D02*
X170659723Y-69308879D01*
X172110706Y-67816884D02*
X171035197Y-66741374D01*
X172138991Y-67788599D02*
X171060653Y-66710261D01*
X172167275Y-67760315D02*
X171086109Y-66679149D01*
X172179296Y-70771883D02*
X170626489Y-69219076D01*
X172264148Y-70800167D02*
X170598205Y-69134224D01*
X172344052Y-70823502D02*
X172194852Y-70674302D01*
X172420419Y-70843301D02*
X172223136Y-70646018D01*
X172493958Y-70860271D02*
X172251421Y-70617734D01*
X172564669Y-70874413D02*
X172279705Y-70589449D01*
X172633258Y-70886434D02*
X172307989Y-70561165D01*
X172699726Y-70896334D02*
X172336273Y-70532881D01*
X172764073Y-70904112D02*
X172364558Y-70504596D01*
X172826298Y-70909769D02*
X172392842Y-70476312D01*
X172887110Y-70914011D02*
X172421126Y-70448028D01*
X172946507Y-70916840D02*
X172449410Y-70419744D01*
X173004489Y-70918254D02*
X172477695Y-70391459D01*
X173061765Y-70918961D02*
X172505979Y-70363175D01*
X173116919Y-70917547D02*
X172534263Y-70334891D01*
X173171366Y-70915426D02*
X172562548Y-70306607D01*
X173225107Y-70912597D02*
X172590832Y-70278322D01*
X173277432Y-70908354D02*
X172619116Y-70250038D01*
X173329051Y-70903405D02*
X172647400Y-70221754D01*
X173379256Y-70897041D02*
X172675685Y-70193469D01*
X173428753Y-70889970D02*
X172703969Y-70165185D01*
X173478251Y-70882899D02*
X172732253Y-70136901D01*
X173525627Y-70873706D02*
X172760537Y-70108617D01*
X173573003Y-70864514D02*
X172788822Y-70080332D01*
X173619672Y-70854614D02*
X172817106Y-70052048D01*
X173665634Y-70844008D02*
X172845390Y-70023764D01*
X173710889Y-70832694D02*
X172873675Y-69995480D01*
X173755437Y-70820673D02*
X172901959Y-69967195D01*
X173798570Y-70807238D02*
X172930243Y-69938911D01*
X173842411Y-70794510D02*
X172958527Y-69910627D01*
X173884837Y-70780368D02*
X172986812Y-69882343D01*
X173926557Y-70765519D02*
X173015096Y-69854058D01*
X173968276Y-70750670D02*
X173043380Y-69825774D01*
X174008581Y-70734406D02*
X173071664Y-69797490D01*
X174048886Y-70718143D02*
X173099949Y-69769205D01*
X174088484Y-70701172D02*
X173128233Y-69740921D01*
X174128082Y-70684202D02*
X173156517Y-69712637D01*
X174166266Y-70665817D02*
X173184802Y-69684353D01*
X174204449Y-70647432D02*
X173213086Y-69656068D01*
X174241926Y-70628340D02*
X173241370Y-69627784D01*
X174279403Y-70609248D02*
X173269654Y-69599500D01*
X174316172Y-70589449D02*
X173297939Y-69571216D01*
X174352942Y-70568236D02*
X173326930Y-69542224D01*
X174388297Y-70547023D02*
X173355214Y-69513940D01*
X174423653Y-70525810D02*
X173383499Y-69485656D01*
X174458301Y-70503889D02*
X173411783Y-69457371D01*
X174492242Y-70481262D02*
X173440067Y-69429087D01*
X174526183Y-70458635D02*
X173468351Y-69400803D01*
X174559417Y-70435300D02*
X173496636Y-69372519D01*
X174592651Y-70411965D02*
X173524920Y-69344234D01*
X174625178Y-70387924D02*
X173553204Y-69315950D01*
X174656998Y-70363175D02*
X173581488Y-69287666D01*
X174688111Y-70337719D02*
X173609773Y-69259381D01*
X174719223Y-70312263D02*
X173638057Y-69231097D01*
X174750336Y-70286808D02*
X171111564Y-66648036D01*
X174780742Y-70260645D02*
X171137727Y-66617630D01*
X174810440Y-70233775D02*
X171164597Y-66587932D01*
X174839431Y-70206197D02*
X171192175Y-66558941D01*
X174868423Y-70178620D02*
X171219752Y-66529949D01*
X174896707Y-70150336D02*
X171248036Y-66501665D01*
X176098629Y-67385708D02*
X175745076Y-67739261D01*
X176098629Y-67739261D02*
X175745076Y-67385708D01*
X175692372Y-68326000D02*
G75*
G02*
X170452372Y-68326000I-2620000J0D01*
G01*
X170452372Y-68326000D02*
G75*
G02*
X175692372Y-68326000I2620000J0D01*
G01*
%TO.C,C13*%
X179431447Y-77015482D02*
X179785000Y-77369035D01*
X179785000Y-77015482D02*
X179431447Y-77369035D01*
X179806054Y-80946836D02*
X178724888Y-82028002D01*
X179834338Y-80975120D02*
X178756000Y-82053458D01*
X179862623Y-81003405D02*
X178787113Y-82078914D01*
X179890907Y-81031689D02*
X178818933Y-82103663D01*
X179919191Y-81059973D02*
X178851460Y-82127704D01*
X179947475Y-81088258D02*
X178884694Y-82151039D01*
X179975760Y-81116542D02*
X178917928Y-82174374D01*
X180004044Y-81144826D02*
X178951869Y-82197001D01*
X180032328Y-81173110D02*
X178985810Y-82219628D01*
X180060612Y-81201395D02*
X179020458Y-82241549D01*
X180088897Y-81229679D02*
X179055814Y-82262762D01*
X180117181Y-81257963D02*
X179091169Y-82283975D01*
X180146172Y-81286955D02*
X179127939Y-82305188D01*
X180174457Y-81315239D02*
X179164708Y-82324987D01*
X180202741Y-81343523D02*
X179202185Y-82344079D01*
X180231025Y-81371807D02*
X179239662Y-82363171D01*
X180259309Y-81400092D02*
X179277845Y-82381556D01*
X180287594Y-81428376D02*
X179316029Y-82399941D01*
X180315878Y-81456660D02*
X179355627Y-82416911D01*
X180344162Y-81484944D02*
X179395225Y-82433882D01*
X180372447Y-81513229D02*
X179435530Y-82450145D01*
X180400731Y-81541513D02*
X179475835Y-82466409D01*
X180429015Y-81569797D02*
X179517554Y-82481258D01*
X180457299Y-81598082D02*
X179559274Y-82496107D01*
X180485584Y-81626366D02*
X179601700Y-82510249D01*
X180513868Y-81654650D02*
X179645541Y-82522977D01*
X180542152Y-81682934D02*
X179688674Y-82536412D01*
X180570436Y-81711219D02*
X179733222Y-82548433D01*
X180598721Y-81739503D02*
X179778477Y-82559747D01*
X180627005Y-81767787D02*
X179824439Y-82570353D01*
X180655289Y-81796071D02*
X179871108Y-82580253D01*
X180683574Y-81824356D02*
X179918484Y-82589445D01*
X180711858Y-81852640D02*
X179965860Y-82598638D01*
X180740142Y-81880924D02*
X180015358Y-82605709D01*
X180768426Y-81909208D02*
X180064855Y-82612780D01*
X180796711Y-81937493D02*
X180115060Y-82619144D01*
X180824995Y-81965777D02*
X180166679Y-82624093D01*
X180853279Y-81994061D02*
X180219004Y-82628336D01*
X180881563Y-82022346D02*
X180272745Y-82631165D01*
X180909848Y-82050630D02*
X180327192Y-82633286D01*
X180938132Y-82078914D02*
X180382346Y-82634700D01*
X180966416Y-82107198D02*
X180439622Y-82633993D01*
X180994701Y-82135483D02*
X180497604Y-82632579D01*
X181022985Y-82163767D02*
X180557001Y-82629750D01*
X181051269Y-82192051D02*
X180617813Y-82625508D01*
X181079553Y-82220335D02*
X180680038Y-82619851D01*
X181107838Y-82248620D02*
X180744385Y-82612073D01*
X181136122Y-82276904D02*
X180810853Y-82602173D01*
X181164406Y-82305188D02*
X180879442Y-82590152D01*
X181192690Y-82333473D02*
X180950153Y-82576010D01*
X181220975Y-82361757D02*
X181023692Y-82559040D01*
X181249259Y-82390041D02*
X181100059Y-82539241D01*
X182196075Y-78217404D02*
X178547404Y-81866075D01*
X182224359Y-78245688D02*
X178575688Y-81894359D01*
X182251936Y-78274680D02*
X178604680Y-81921936D01*
X182279514Y-78303671D02*
X178633671Y-81949514D01*
X182306384Y-78333369D02*
X178663369Y-81976384D01*
X182332547Y-78363775D02*
X178693775Y-82002547D01*
X182358002Y-78394888D02*
X181276836Y-79476054D01*
X182383458Y-78426000D02*
X181305120Y-79504338D01*
X182408914Y-78457113D02*
X181333405Y-79532623D01*
X182411743Y-81680106D02*
X182010106Y-82081743D01*
X182433663Y-78488933D02*
X181361689Y-79560907D01*
X182457704Y-78521460D02*
X181389973Y-79589191D01*
X182481039Y-78554694D02*
X181418258Y-79617475D01*
X182504374Y-78587928D02*
X181446542Y-79645760D01*
X182527001Y-78621869D02*
X181474826Y-79674044D01*
X182548921Y-81486359D02*
X181816359Y-82218921D01*
X182549628Y-78655810D02*
X181503110Y-79702328D01*
X182571549Y-78690458D02*
X181531395Y-79730612D01*
X182592762Y-78725814D02*
X181559679Y-79758897D01*
X182613975Y-78761169D02*
X181587963Y-79787181D01*
X182633067Y-81345644D02*
X181675644Y-82303067D01*
X182635188Y-78797939D02*
X181616955Y-79816172D01*
X182654987Y-78834708D02*
X181645239Y-79844457D01*
X182674079Y-78872185D02*
X181673523Y-79872741D01*
X182693171Y-78909662D02*
X181701807Y-79901025D01*
X182695292Y-81226850D02*
X181556850Y-82365292D01*
X182711556Y-78947845D02*
X181730092Y-79929309D01*
X182729941Y-78986029D02*
X181758376Y-79957594D01*
X182744790Y-81120784D02*
X181450784Y-82414790D01*
X182746911Y-79025627D02*
X181786660Y-79985878D01*
X182763882Y-79065225D02*
X181814944Y-80014162D01*
X182780145Y-79105530D02*
X181843229Y-80042447D01*
X182784388Y-81024618D02*
X181354618Y-82454388D01*
X182796409Y-79145835D02*
X181871513Y-80070731D01*
X182811258Y-79187554D02*
X181899797Y-80099015D01*
X182817622Y-80934815D02*
X181264815Y-82487622D01*
X182826107Y-79229274D02*
X181928082Y-80127299D01*
X182840249Y-79271700D02*
X181956366Y-80155584D01*
X182845906Y-80849963D02*
X181179963Y-82515906D01*
X182852977Y-79315541D02*
X181984650Y-80183868D01*
X182866412Y-79358674D02*
X182012934Y-80212152D01*
X182869241Y-80770059D02*
X182720041Y-80919259D01*
X182878433Y-79403222D02*
X182041219Y-80240436D01*
X182889040Y-80693692D02*
X182691757Y-80890975D01*
X182889747Y-79448477D02*
X182069503Y-80268721D01*
X182900353Y-79494439D02*
X182097787Y-80297005D01*
X182906010Y-80620153D02*
X182663473Y-80862690D01*
X182910253Y-79541108D02*
X182126071Y-80325289D01*
X182919445Y-79588484D02*
X182154356Y-80353574D01*
X182920152Y-80549442D02*
X182635188Y-80834406D01*
X182928638Y-79635860D02*
X182182640Y-80381858D01*
X182932173Y-80480853D02*
X182606904Y-80806122D01*
X182935709Y-79685358D02*
X182210924Y-80410142D01*
X182942073Y-80414385D02*
X182578620Y-80777838D01*
X182942780Y-79734855D02*
X182239208Y-80438426D01*
X182949144Y-79785060D02*
X182267493Y-80466711D01*
X182949851Y-80350038D02*
X182550335Y-80749553D01*
X182954093Y-79836679D02*
X182295777Y-80494995D01*
X182955508Y-80287813D02*
X182522051Y-80721269D01*
X182958336Y-79889004D02*
X182324061Y-80523279D01*
X182959750Y-80227001D02*
X182493767Y-80692985D01*
X182961165Y-79942745D02*
X182352346Y-80551563D01*
X182962579Y-80167604D02*
X182465483Y-80664701D01*
X182963286Y-79997192D02*
X182380630Y-80579848D01*
X182963993Y-80109622D02*
X182437198Y-80636416D01*
X182964700Y-80052346D02*
X182408914Y-80608132D01*
X182991739Y-80041739D02*
G75*
G02*
X177751739Y-80041739I-2620000J0D01*
G01*
X177751739Y-80041739D02*
G75*
G02*
X182991739Y-80041739I2620000J0D01*
G01*
%TO.C,C2*%
X148904947Y-66938210D02*
X148434014Y-66467277D01*
X150867876Y-68901139D02*
X150396943Y-68430206D01*
X152209964Y-62691327D02*
X148434014Y-66467277D01*
X152680897Y-63162260D02*
X152209964Y-62691327D01*
X154643826Y-65125189D02*
X150867876Y-68901139D01*
X154643826Y-65125189D02*
X154172893Y-64654256D01*
%TO.C,J1*%
X145101000Y-109297000D02*
X145796000Y-109297000D01*
X145101000Y-109982000D02*
X145101000Y-109297000D01*
X145101000Y-110667000D02*
X145101000Y-110542000D01*
X145101000Y-110667000D02*
X145187724Y-110667000D01*
X145101000Y-110667000D02*
X146491000Y-110667000D01*
X146404276Y-110667000D02*
X146491000Y-110667000D01*
X146491000Y-110667000D02*
X146491000Y-110542000D01*
%TO.C,R16*%
X141886000Y-99346000D02*
X142216000Y-99346000D01*
X141886000Y-105886000D02*
X141886000Y-99346000D01*
X142216000Y-105886000D02*
X141886000Y-105886000D01*
X144296000Y-105886000D02*
X144626000Y-105886000D01*
X144626000Y-99346000D02*
X144296000Y-99346000D01*
X144626000Y-105886000D02*
X144626000Y-99346000D01*
%TO.C,C22*%
X147992845Y-128660705D02*
X147521912Y-128189772D01*
X149955774Y-130623634D02*
X149484841Y-130152701D01*
X151297862Y-124413822D02*
X147521912Y-128189772D01*
X151768795Y-124884755D02*
X151297862Y-124413822D01*
X153731724Y-126847684D02*
X149955774Y-130623634D01*
X153731724Y-126847684D02*
X153260791Y-126376751D01*
%TO.C,C9*%
X179454600Y-63576635D02*
X179808153Y-63930188D01*
X179659502Y-67338284D02*
X178570557Y-68427228D01*
X179687786Y-67366568D02*
X178598842Y-68455513D01*
X179716070Y-67394852D02*
X178627833Y-68483090D01*
X179744355Y-67423137D02*
X178656824Y-68510667D01*
X179772639Y-67451421D02*
X178686523Y-68537537D01*
X179800923Y-67479705D02*
X178716928Y-68563700D01*
X179808153Y-63576635D02*
X179454600Y-63930188D01*
X179829207Y-67507989D02*
X178748041Y-68589156D01*
X179857492Y-67536274D02*
X178779154Y-68614612D01*
X179885776Y-67564558D02*
X178810266Y-68640067D01*
X179914060Y-67592842D02*
X178842086Y-68664816D01*
X179942344Y-67621127D02*
X178874613Y-68688858D01*
X179970629Y-67649411D02*
X178907847Y-68712192D01*
X179998913Y-67677695D02*
X178941081Y-68735527D01*
X180027197Y-67705979D02*
X178975022Y-68758154D01*
X180055482Y-67734264D02*
X179008963Y-68780782D01*
X180083766Y-67762548D02*
X179043612Y-68802702D01*
X180112050Y-67790832D02*
X179078967Y-68823915D01*
X180140334Y-67819116D02*
X179114322Y-68845128D01*
X180169326Y-67848108D02*
X179151092Y-68866342D01*
X180197610Y-67876392D02*
X179187862Y-68886141D01*
X180225894Y-67904676D02*
X179225338Y-68905232D01*
X180254179Y-67932961D02*
X179262815Y-68924324D01*
X180282463Y-67961245D02*
X179300999Y-68942709D01*
X180310747Y-67989529D02*
X179339182Y-68961094D01*
X180339031Y-68017813D02*
X179378780Y-68978064D01*
X180367316Y-68046098D02*
X179418378Y-68995035D01*
X180395600Y-68074382D02*
X179458683Y-69011298D01*
X180423884Y-68102666D02*
X179498988Y-69027562D01*
X180452168Y-68130951D02*
X179540708Y-69042411D01*
X180480453Y-68159235D02*
X179582427Y-69057260D01*
X180508737Y-68187519D02*
X179624853Y-69071403D01*
X180537021Y-68215803D02*
X179668694Y-69084130D01*
X180565306Y-68244088D02*
X179711828Y-69097566D01*
X180593590Y-68272372D02*
X179756375Y-69109586D01*
X180621874Y-68300656D02*
X179801630Y-69120900D01*
X180650158Y-68328940D02*
X179847592Y-69131507D01*
X180678443Y-68357225D02*
X179894261Y-69141406D01*
X180706727Y-68385509D02*
X179941637Y-69150599D01*
X180735011Y-68413793D02*
X179989013Y-69159791D01*
X180763295Y-68442078D02*
X180038511Y-69166862D01*
X180791580Y-68470362D02*
X180088008Y-69173933D01*
X180819864Y-68498646D02*
X180138213Y-69180297D01*
X180848148Y-68526930D02*
X180189832Y-69185247D01*
X180876432Y-68555215D02*
X180242158Y-69189489D01*
X180904717Y-68583499D02*
X180295898Y-69192318D01*
X180933001Y-68611783D02*
X180350345Y-69194439D01*
X180961285Y-68640067D02*
X180405499Y-69195853D01*
X180989570Y-68668352D02*
X180462775Y-69195146D01*
X181017854Y-68696636D02*
X180520758Y-69193732D01*
X181046138Y-68724920D02*
X180580155Y-69190904D01*
X181074422Y-68753205D02*
X180640966Y-69186661D01*
X182219228Y-64778557D02*
X181130284Y-65867502D01*
X182247513Y-64806842D02*
X181158568Y-65895786D01*
X182275090Y-64835833D02*
X181186852Y-65924070D01*
X182302667Y-64864824D02*
X181215137Y-65952355D01*
X182329537Y-64894523D02*
X181243421Y-65980639D01*
X182355700Y-64924928D02*
X181271705Y-66008923D01*
X182381156Y-64956041D02*
X181299989Y-66037207D01*
X182406612Y-64987154D02*
X181328274Y-66065492D01*
X182432067Y-65018266D02*
X181356558Y-66093776D01*
X182434896Y-68241259D02*
X182033259Y-68642896D01*
X182456816Y-65050086D02*
X181384842Y-66122060D01*
X182480858Y-65082613D02*
X181413127Y-66150344D01*
X182504192Y-65115847D02*
X181441411Y-66178629D01*
X182527527Y-65149081D02*
X181469695Y-66206913D01*
X182550154Y-65183022D02*
X181497979Y-66235197D01*
X182572075Y-68047512D02*
X181839512Y-68780075D01*
X182572782Y-65216963D02*
X181526264Y-66263482D01*
X182594702Y-65251612D02*
X181554548Y-66291766D01*
X182615915Y-65286967D02*
X181582832Y-66320050D01*
X182637128Y-65322322D02*
X181611116Y-66348334D01*
X182656220Y-67906798D02*
X181698798Y-68864220D01*
X182658342Y-65359092D02*
X181640108Y-66377326D01*
X182678141Y-65395862D02*
X181668392Y-66405610D01*
X182697232Y-65433338D02*
X181696676Y-66433894D01*
X182716324Y-65470815D02*
X181724961Y-66462179D01*
X182718446Y-67788004D02*
X181580004Y-68926446D01*
X182734709Y-65508999D02*
X181753245Y-66490463D01*
X182753094Y-65547182D02*
X181781529Y-66518747D01*
X182767943Y-67681938D02*
X181473938Y-68975943D01*
X182770064Y-65586780D02*
X181809813Y-66547031D01*
X182787035Y-65626378D02*
X181838098Y-66575316D01*
X182803298Y-65666683D02*
X181866382Y-66603600D01*
X182807541Y-67585771D02*
X181377771Y-69015541D01*
X182819562Y-65706988D02*
X181894666Y-66631884D01*
X182834411Y-65748708D02*
X181922951Y-66660168D01*
X182840775Y-67495969D02*
X181287969Y-69048775D01*
X182849260Y-65790427D02*
X181951235Y-66688453D01*
X182863403Y-65832853D02*
X181979519Y-66716737D01*
X182869059Y-67411116D02*
X181203116Y-69077059D01*
X182876130Y-65876694D02*
X182007803Y-66745021D01*
X182889566Y-65919828D02*
X182036088Y-66773306D01*
X182892394Y-67331213D02*
X181123213Y-69100394D01*
X182901586Y-65964375D02*
X182064372Y-66801590D01*
X182912193Y-67254845D02*
X181046845Y-69120193D01*
X182912900Y-66009630D02*
X182092656Y-66829874D01*
X182923507Y-66055592D02*
X182120940Y-66858158D01*
X182929163Y-67181306D02*
X180973306Y-69137163D01*
X182933406Y-66102261D02*
X182149225Y-66886443D01*
X182942599Y-66149637D02*
X182177509Y-66914727D01*
X182943306Y-67110595D02*
X180902595Y-69151306D01*
X182951791Y-66197013D02*
X182205793Y-66943011D01*
X182955326Y-67042006D02*
X180834006Y-69163326D01*
X182958862Y-66246511D02*
X182234078Y-66971295D01*
X182965226Y-66975538D02*
X180767538Y-69173226D01*
X182965933Y-66296008D02*
X182262362Y-66999580D01*
X182972297Y-66346213D02*
X182290646Y-67027864D01*
X182973004Y-66911191D02*
X180703191Y-69181004D01*
X182977247Y-66397832D02*
X182318930Y-67056148D01*
X182978661Y-66848966D02*
X182545205Y-67282422D01*
X182981489Y-66450158D02*
X182347215Y-67084432D01*
X182982904Y-66788155D02*
X182516920Y-67254138D01*
X182984318Y-66503898D02*
X182375499Y-67112717D01*
X182985732Y-66728758D02*
X182488636Y-67225854D01*
X182986439Y-66558345D02*
X182403783Y-67141001D01*
X182987146Y-66670775D02*
X182460352Y-67197570D01*
X182987853Y-66613499D02*
X182432067Y-67169285D01*
X183014893Y-66602893D02*
G75*
G02*
X177774893Y-66602893I-2620000J0D01*
G01*
X177774893Y-66602893D02*
G75*
G02*
X183014893Y-66602893I2620000J0D01*
G01*
%TO.C,Q6*%
X121292000Y-88392000D02*
X123831999Y-88392000D01*
X121292000Y-90932000D02*
X123832000Y-90932000D01*
X121292000Y-93472000D02*
X123832000Y-93472000D01*
X123831999Y-96052000D02*
X123832000Y-85812000D01*
X123831999Y-96052000D02*
X133322000Y-96052000D01*
X123832000Y-85812000D02*
X133322000Y-85812000D01*
D13*
X123854944Y-85591490D02*
X126140944Y-85591490D01*
D14*
X133561999Y-96052000D02*
X134762001Y-96052000D01*
X133562000Y-85812000D02*
X134762000Y-85812000D01*
X135962000Y-85812000D02*
X137162000Y-85812000D01*
X135962000Y-96052000D02*
X137162000Y-96052000D01*
X138362000Y-85812001D02*
X139562001Y-85812000D01*
X138362000Y-96052000D02*
X139562000Y-96052000D01*
X139722000Y-86452000D02*
X139722000Y-85812000D01*
X139722000Y-88852000D02*
X139722000Y-87652000D01*
X139722000Y-91252000D02*
X139722000Y-90052000D01*
X139722000Y-93653000D02*
X139722000Y-92452000D01*
X139722000Y-96052000D02*
X139722000Y-94852000D01*
%TO.C,Q2*%
X121259556Y-56802587D02*
X123799555Y-56802587D01*
X121259556Y-59342587D02*
X123799556Y-59342587D01*
X121259556Y-61882587D02*
X123799556Y-61882587D01*
X123799555Y-64462587D02*
X123799556Y-54222587D01*
X123799555Y-64462587D02*
X133289556Y-64462587D01*
X123799556Y-54222587D02*
X133289556Y-54222587D01*
D13*
X123822500Y-54002077D02*
X126108500Y-54002077D01*
D14*
X133529555Y-64462587D02*
X134729557Y-64462587D01*
X133529556Y-54222587D02*
X134729556Y-54222587D01*
X135929556Y-54222587D02*
X137129556Y-54222587D01*
X135929556Y-64462587D02*
X137129556Y-64462587D01*
X138329556Y-54222588D02*
X139529557Y-54222587D01*
X138329556Y-64462587D02*
X139529556Y-64462587D01*
X139689556Y-54862587D02*
X139689556Y-54222587D01*
X139689556Y-57262587D02*
X139689556Y-56062587D01*
X139689556Y-59662587D02*
X139689556Y-58462587D01*
X139689556Y-62063587D02*
X139689556Y-60862587D01*
X139689556Y-64462587D02*
X139689556Y-63262587D01*
%TO.C,U3*%
X157888000Y-87311001D02*
X157888000Y-105211000D01*
X157888000Y-105211000D02*
X163188000Y-105211001D01*
X159538000Y-87311001D02*
X157888000Y-87311001D01*
X163188000Y-87311001D02*
X161538001Y-87311001D01*
X163188000Y-105211001D02*
X163188000Y-87311001D01*
X161538001Y-87311001D02*
G75*
G02*
X159537999Y-87311001I-1000001J0D01*
G01*
%TO.C,R11*%
X180494000Y-111792000D02*
X180494000Y-118332000D01*
X180494000Y-118332000D02*
X180824000Y-118332000D01*
X180824000Y-111792000D02*
X180494000Y-111792000D01*
X182904000Y-111792000D02*
X183234000Y-111792000D01*
X183234000Y-111792000D02*
X183234000Y-118332000D01*
X183234000Y-118332000D02*
X182904000Y-118332000D01*
%TO.C,C8*%
X170870274Y-57467000D02*
X170870274Y-56833000D01*
X170910274Y-57907000D02*
X170910274Y-56393000D01*
X170950274Y-58178000D02*
X170950274Y-56122000D01*
X170990274Y-58391000D02*
X170990274Y-55909000D01*
X171030274Y-58572000D02*
X171030274Y-55728000D01*
X171070274Y-58733000D02*
X171070274Y-55567000D01*
X171110274Y-58878000D02*
X171110274Y-55422000D01*
X171150274Y-59011000D02*
X171150274Y-55289000D01*
X171190274Y-59134000D02*
X171190274Y-55166000D01*
X171230274Y-59250000D02*
X171230274Y-55050000D01*
X171270274Y-59358999D02*
X171270274Y-54941001D01*
X171310274Y-59462000D02*
X171310274Y-54838000D01*
X171350274Y-59560000D02*
X171350274Y-54740000D01*
X171390274Y-59654000D02*
X171390274Y-54646000D01*
X171430275Y-59744000D02*
X171430275Y-54556000D01*
X171470274Y-59831000D02*
X171470274Y-54469000D01*
X171510274Y-59914000D02*
X171510274Y-54386000D01*
X171550274Y-59994000D02*
X171550274Y-54306000D01*
X171590274Y-60071000D02*
X171590274Y-54229000D01*
X171630274Y-60146000D02*
X171630274Y-54154000D01*
X171670274Y-60219000D02*
X171670274Y-54081000D01*
X171710274Y-60290000D02*
X171710274Y-54010000D01*
X171750274Y-60358000D02*
X171750274Y-53942000D01*
X171790274Y-60425000D02*
X171790274Y-53875000D01*
X171830274Y-60489000D02*
X171830274Y-53811000D01*
X171870274Y-60552000D02*
X171870274Y-53748000D01*
X171910274Y-60614000D02*
X171910274Y-53686000D01*
X171950274Y-60674000D02*
X171950274Y-53626000D01*
X171990274Y-60733000D02*
X171990274Y-53567000D01*
X172030274Y-60790000D02*
X172030274Y-53510000D01*
X172070274Y-60846000D02*
X172070274Y-53454000D01*
X172110274Y-60900000D02*
X172110274Y-53400000D01*
X172150274Y-60954000D02*
X172150274Y-53346000D01*
X172190274Y-61006000D02*
X172190274Y-53294000D01*
X172230274Y-61057000D02*
X172230274Y-53243000D01*
X172270274Y-61107000D02*
X172270274Y-53193000D01*
X172310274Y-61156999D02*
X172310274Y-53143001D01*
X172350274Y-61205000D02*
X172350274Y-53095000D01*
X172390274Y-61252000D02*
X172390274Y-53048000D01*
X172430273Y-61298000D02*
X172430273Y-53002000D01*
X172470274Y-61344000D02*
X172470274Y-52956000D01*
X172510273Y-61388000D02*
X172510273Y-52912000D01*
X172550274Y-61432000D02*
X172550274Y-52868000D01*
X172590274Y-61475000D02*
X172590274Y-52825000D01*
X172630274Y-61517000D02*
X172630274Y-52783000D01*
X172670274Y-61558000D02*
X172670274Y-52742000D01*
X172710274Y-61599000D02*
X172710274Y-52701000D01*
X172750274Y-61639000D02*
X172750274Y-52661000D01*
X172790274Y-61678000D02*
X172790274Y-52622000D01*
X172830274Y-61717000D02*
X172830274Y-52583000D01*
X172870274Y-61755000D02*
X172870274Y-52545000D01*
X172910274Y-61792000D02*
X172910274Y-52508000D01*
X172950273Y-61828000D02*
X172950273Y-52472000D01*
X172990274Y-61864000D02*
X172990274Y-52436000D01*
X173030274Y-61900000D02*
X173030274Y-52400000D01*
X173070274Y-61935000D02*
X173070274Y-52365000D01*
X173110274Y-61969001D02*
X173110274Y-52330999D01*
X173150274Y-62002000D02*
X173150274Y-52298000D01*
X173190274Y-62035000D02*
X173190274Y-52265000D01*
X173230274Y-62068000D02*
X173230274Y-52232000D01*
X173270275Y-62100000D02*
X173270275Y-52200000D01*
X173310273Y-62132000D02*
X173310274Y-58590000D01*
X173310274Y-55710000D02*
X173310273Y-52168000D01*
X173350274Y-55710000D02*
X173350274Y-52138000D01*
X173350274Y-62162000D02*
X173350274Y-58590000D01*
X173390273Y-62193000D02*
X173390274Y-58590000D01*
X173390274Y-55710000D02*
X173390273Y-52107000D01*
X173430274Y-55710000D02*
X173430274Y-52077000D01*
X173430274Y-62223000D02*
X173430274Y-58590000D01*
X173470274Y-55710000D02*
X173470274Y-52048000D01*
X173470274Y-62252000D02*
X173470274Y-58590000D01*
X173510274Y-55710000D02*
X173510274Y-52019000D01*
X173510274Y-62281000D02*
X173510274Y-58590000D01*
X173550274Y-55710000D02*
X173550274Y-51990000D01*
X173550274Y-62310000D02*
X173550274Y-58590000D01*
X173590274Y-55710000D02*
X173590274Y-51962000D01*
X173590274Y-62338000D02*
X173590274Y-58590000D01*
X173630274Y-55710000D02*
X173630274Y-51934001D01*
X173630274Y-62365999D02*
X173630274Y-58590000D01*
X173670274Y-55710000D02*
X173670274Y-51907000D01*
X173670274Y-62393000D02*
X173670274Y-58590000D01*
X173710274Y-55710000D02*
X173710274Y-51880000D01*
X173710274Y-62420000D02*
X173710274Y-58590000D01*
X173750274Y-55710000D02*
X173750274Y-51854000D01*
X173750274Y-62446000D02*
X173750274Y-58590000D01*
X173790274Y-55710000D02*
X173790274Y-51828000D01*
X173790274Y-62472000D02*
X173790274Y-58590000D01*
X173830274Y-55710000D02*
X173830274Y-51803000D01*
X173830274Y-62497000D02*
X173830274Y-58590000D01*
X173870274Y-55710000D02*
X173870274Y-51778000D01*
X173870274Y-62522000D02*
X173870274Y-58590000D01*
X173910274Y-55710000D02*
X173910274Y-51753000D01*
X173910274Y-62547000D02*
X173910274Y-58590000D01*
X173950274Y-55710000D02*
X173950274Y-51729000D01*
X173950274Y-62571000D02*
X173950274Y-58590000D01*
X173990274Y-55710000D02*
X173990274Y-51705001D01*
X173990274Y-62594999D02*
X173990274Y-58590000D01*
X174030274Y-55710000D02*
X174030274Y-51682000D01*
X174030274Y-62618000D02*
X174030274Y-58590000D01*
X174070274Y-55710000D02*
X174070274Y-51659000D01*
X174070274Y-62641000D02*
X174070274Y-58590000D01*
X174110274Y-55710000D02*
X174110274Y-51636000D01*
X174110274Y-62664000D02*
X174110274Y-58590000D01*
X174150274Y-55710000D02*
X174150274Y-51614000D01*
X174150274Y-62686000D02*
X174150274Y-58590000D01*
X174190274Y-55710000D02*
X174190274Y-51592000D01*
X174190274Y-62708000D02*
X174190274Y-58590000D01*
X174230274Y-55710000D02*
X174230274Y-51570000D01*
X174230274Y-62730000D02*
X174230274Y-58590000D01*
X174270274Y-55710000D02*
X174270274Y-51549000D01*
X174270274Y-62751000D02*
X174270274Y-58590000D01*
X174310274Y-55710000D02*
X174310274Y-51528000D01*
X174310274Y-62772000D02*
X174310274Y-58590000D01*
X174350274Y-55710000D02*
X174350274Y-51508000D01*
X174350274Y-62792000D02*
X174350274Y-58590000D01*
X174390274Y-55710000D02*
X174390274Y-51488000D01*
X174390274Y-62812000D02*
X174390274Y-58590000D01*
X174430274Y-55710000D02*
X174430274Y-51468000D01*
X174430274Y-62832000D02*
X174430274Y-58590000D01*
X174470274Y-55710000D02*
X174470274Y-51448000D01*
X174470274Y-62852000D02*
X174470274Y-58590000D01*
X174510274Y-55710000D02*
X174510274Y-51429001D01*
X174510274Y-62870999D02*
X174510274Y-58590000D01*
X174550274Y-55710000D02*
X174550274Y-51411000D01*
X174550274Y-62889000D02*
X174550274Y-58590000D01*
X174590274Y-55710000D02*
X174590274Y-51392000D01*
X174590274Y-62908000D02*
X174590274Y-58590000D01*
X174630274Y-55710000D02*
X174630274Y-51374000D01*
X174630274Y-62926000D02*
X174630274Y-58590000D01*
X174670274Y-55710000D02*
X174670274Y-51357000D01*
X174670274Y-62943000D02*
X174670274Y-58590000D01*
X174710274Y-55710000D02*
X174710274Y-51339000D01*
X174710274Y-62961000D02*
X174710274Y-58590000D01*
X174750274Y-55710000D02*
X174750274Y-51322000D01*
X174750274Y-62978000D02*
X174750274Y-58590000D01*
X174790274Y-55710000D02*
X174790274Y-51304999D01*
X174790274Y-62995001D02*
X174790274Y-58590000D01*
X174830274Y-55710000D02*
X174830274Y-51289000D01*
X174830274Y-63011000D02*
X174830274Y-58590000D01*
X174870273Y-63027000D02*
X174870274Y-58590000D01*
X174870274Y-55710000D02*
X174870273Y-51273000D01*
X174910274Y-55710000D02*
X174910274Y-51257000D01*
X174910274Y-63043000D02*
X174910274Y-58590000D01*
X174950274Y-55710000D02*
X174950274Y-51242001D01*
X174950274Y-63057999D02*
X174950274Y-58590000D01*
X174990274Y-55710000D02*
X174990274Y-51226000D01*
X174990274Y-63074000D02*
X174990274Y-58590000D01*
X175030274Y-55710000D02*
X175030274Y-51211000D01*
X175030274Y-63089000D02*
X175030274Y-58590000D01*
X175070274Y-55710000D02*
X175070274Y-51197000D01*
X175070274Y-63103000D02*
X175070274Y-58590000D01*
X175110274Y-55710000D02*
X175110274Y-51183000D01*
X175110274Y-63117000D02*
X175110274Y-58590000D01*
X175150274Y-55710000D02*
X175150274Y-51169000D01*
X175150274Y-63131000D02*
X175150274Y-58590000D01*
X175190274Y-55710000D02*
X175190274Y-51155000D01*
X175190274Y-63145000D02*
X175190274Y-58590000D01*
X175230274Y-55710000D02*
X175230274Y-51142000D01*
X175230274Y-63158000D02*
X175230274Y-58590000D01*
X175270274Y-55710000D02*
X175270274Y-51129000D01*
X175270274Y-63171000D02*
X175270274Y-58590000D01*
X175310274Y-55710000D02*
X175310274Y-51116000D01*
X175310274Y-63184000D02*
X175310274Y-58590000D01*
X175350274Y-55710000D02*
X175350274Y-51103000D01*
X175350274Y-63197000D02*
X175350274Y-58590000D01*
X175390273Y-63209000D02*
X175390274Y-58590000D01*
X175390274Y-55710000D02*
X175390273Y-51091000D01*
X175430274Y-55710000D02*
X175430274Y-51079000D01*
X175430274Y-63221000D02*
X175430274Y-58590000D01*
X175470274Y-55710000D02*
X175470274Y-51066999D01*
X175470274Y-63233001D02*
X175470274Y-58590000D01*
X175510274Y-55710000D02*
X175510274Y-51056000D01*
X175510274Y-63244000D02*
X175510274Y-58590000D01*
X175550274Y-55710000D02*
X175550274Y-51045001D01*
X175550274Y-63254999D02*
X175550274Y-58590000D01*
X175590274Y-55710000D02*
X175590274Y-51034000D01*
X175590274Y-63266000D02*
X175590274Y-58590000D01*
X175630274Y-55710000D02*
X175630274Y-51024000D01*
X175630274Y-63276000D02*
X175630274Y-58590000D01*
X175670274Y-55710000D02*
X175670274Y-51013000D01*
X175670274Y-63287000D02*
X175670274Y-58590000D01*
X175710274Y-55710000D02*
X175710274Y-51004000D01*
X175710274Y-63296000D02*
X175710274Y-58590000D01*
X175750274Y-55710000D02*
X175750274Y-50994000D01*
X175750274Y-63306000D02*
X175750274Y-58590000D01*
X175790274Y-55710000D02*
X175790274Y-50984000D01*
X175790274Y-63316000D02*
X175790274Y-58590000D01*
X175830274Y-55710000D02*
X175830274Y-50975000D01*
X175830274Y-63325000D02*
X175830274Y-58590000D01*
X175870274Y-55710000D02*
X175870274Y-50966000D01*
X175870274Y-63334000D02*
X175870274Y-58590000D01*
X175910274Y-55710000D02*
X175910274Y-50958000D01*
X175910274Y-63342000D02*
X175910274Y-58590000D01*
X175950274Y-55710000D02*
X175950274Y-50949000D01*
X175950274Y-63351000D02*
X175950274Y-58590000D01*
X175990274Y-55710000D02*
X175990275Y-50941000D01*
X175990275Y-63359000D02*
X175990274Y-58590000D01*
X176030274Y-55710000D02*
X176030274Y-50934000D01*
X176030274Y-63366000D02*
X176030274Y-58590000D01*
X176070274Y-55710000D02*
X176070274Y-50925999D01*
X176070274Y-63374001D02*
X176070274Y-58590000D01*
X176110274Y-55710000D02*
X176110274Y-50919000D01*
X176110274Y-63381000D02*
X176110274Y-58590000D01*
X176150274Y-55710000D02*
X176150275Y-50912000D01*
X176150275Y-63388000D02*
X176150274Y-58590000D01*
X176190274Y-63395000D02*
X176190274Y-50905000D01*
X176230274Y-63402000D02*
X176230274Y-50898000D01*
X176270274Y-63408000D02*
X176270274Y-50892000D01*
X176310274Y-63414000D02*
X176310274Y-50886000D01*
X176350274Y-63418999D02*
X176350274Y-50881001D01*
X176390274Y-63425000D02*
X176390274Y-50875000D01*
X176430274Y-63430000D02*
X176430274Y-50870000D01*
X176470274Y-63435000D02*
X176470274Y-50865000D01*
X176510274Y-63440000D02*
X176510274Y-50860000D01*
X176551274Y-63444001D02*
X176551274Y-50855999D01*
X176591274Y-63448000D02*
X176591274Y-50852000D01*
X176631274Y-63452000D02*
X176631274Y-50848000D01*
X176671274Y-63456000D02*
X176671274Y-50844000D01*
X176711274Y-63459000D02*
X176711274Y-50841000D01*
X176751274Y-63462000D02*
X176751274Y-50838000D01*
X176791274Y-63465000D02*
X176791274Y-50835000D01*
X176831274Y-63468000D02*
X176831274Y-50832000D01*
X176871274Y-63469999D02*
X176871274Y-50830001D01*
X176911274Y-63472000D02*
X176911274Y-50828000D01*
X176951274Y-63474000D02*
X176951274Y-50826000D01*
X176991274Y-63476000D02*
X176991274Y-50824000D01*
X177031274Y-63477000D02*
X177031274Y-50823000D01*
X177071274Y-63478000D02*
X177071274Y-50822000D01*
X177111274Y-63479000D02*
X177111274Y-50821000D01*
X177151274Y-63479999D02*
X177151274Y-50820001D01*
X177191274Y-63480000D02*
X177191274Y-50820000D01*
X177231274Y-63480000D02*
X177231274Y-50820000D01*
X183423356Y-61350000D02*
X183423356Y-60100000D01*
X184048356Y-60725000D02*
X182798356Y-60725000D01*
X183601274Y-57150000D02*
G75*
G02*
X170861274Y-57150000I-6370000J0D01*
G01*
X170861274Y-57150000D02*
G75*
G02*
X183601274Y-57150000I6370000J0D01*
G01*
%TO.C,R5*%
X141653102Y-120315426D02*
X141886447Y-120548771D01*
X143590574Y-122252898D02*
X143357229Y-122019553D01*
X146277580Y-115690947D02*
X141653102Y-120315426D01*
X146510925Y-115924293D02*
X146277580Y-115690947D01*
X147981707Y-117395075D02*
X148215053Y-117628420D01*
X148215053Y-117628420D02*
X143590574Y-122252898D01*
%TO.C,U2*%
X157878000Y-117797511D02*
X157878000Y-135697510D01*
X157878000Y-135697510D02*
X163178000Y-135697511D01*
X159528000Y-117797511D02*
X157878000Y-117797511D01*
X163178000Y-117797511D02*
X161528001Y-117797511D01*
X163178000Y-135697511D02*
X163178000Y-117797511D01*
X161528001Y-117797511D02*
G75*
G02*
X159527999Y-117797511I-1000001J0D01*
G01*
%TO.C,D1*%
X148076975Y-93163107D02*
X149660894Y-94747026D01*
X148409315Y-94414686D02*
X148868934Y-93955067D01*
X148501239Y-92738843D02*
X150085158Y-94322762D01*
X148586092Y-92653990D02*
X150170011Y-94237909D01*
X148670945Y-92569137D02*
X150254864Y-94153056D01*
X149660894Y-94747026D02*
X152659027Y-91748893D01*
X151075108Y-90164974D02*
X148076975Y-93163107D01*
X152326687Y-90497314D02*
X151867067Y-90956934D01*
X152659027Y-91748893D02*
X151075108Y-90164974D01*
%TO.C,R4*%
X145828000Y-138330000D02*
X145828000Y-138660000D01*
X145828000Y-141070000D02*
X145828000Y-140740000D01*
X152368000Y-138330000D02*
X145828000Y-138330000D01*
X152368000Y-138660000D02*
X152368000Y-138330000D01*
X152368000Y-140740000D02*
X152368000Y-141070000D01*
X152368000Y-141070000D02*
X145828000Y-141070000D01*
%TO.C,Q4*%
X121292001Y-117862510D02*
X123832000Y-117862510D01*
X121292001Y-120402510D02*
X123832001Y-120402510D01*
X121292001Y-122942510D02*
X123832001Y-122942510D01*
X123832000Y-125522510D02*
X123832001Y-115282510D01*
X123832000Y-125522510D02*
X133322001Y-125522510D01*
X123832001Y-115282510D02*
X133322001Y-115282510D01*
D13*
X123854945Y-115062000D02*
X126140945Y-115062000D01*
D14*
X133562000Y-125522510D02*
X134762002Y-125522510D01*
X133562001Y-115282510D02*
X134762001Y-115282510D01*
X135962001Y-115282510D02*
X137162001Y-115282510D01*
X135962001Y-125522510D02*
X137162001Y-125522510D01*
X138362001Y-115282511D02*
X139562002Y-115282510D01*
X138362001Y-125522510D02*
X139562001Y-125522510D01*
X139722001Y-115922510D02*
X139722001Y-115282510D01*
X139722001Y-118322510D02*
X139722001Y-117122510D01*
X139722001Y-120722510D02*
X139722001Y-119522510D01*
X139722001Y-123123510D02*
X139722001Y-121922510D01*
X139722001Y-125522510D02*
X139722001Y-124322510D01*
%TO.C,R13*%
X142394000Y-68104000D02*
X142724000Y-68104000D01*
X142394000Y-74644000D02*
X142394000Y-68104000D01*
X142724000Y-74644000D02*
X142394000Y-74644000D01*
X144804000Y-74644000D02*
X145134000Y-74644000D01*
X145134000Y-68104000D02*
X144804000Y-68104000D01*
X145134000Y-74644000D02*
X145134000Y-68104000D01*
%TO.C,R14*%
X166778000Y-118904000D02*
X166778000Y-125444000D01*
X166778000Y-125444000D02*
X167108000Y-125444000D01*
X167108000Y-118904000D02*
X166778000Y-118904000D01*
X169188000Y-118904000D02*
X169518000Y-118904000D01*
X169518000Y-118904000D02*
X169518000Y-125444000D01*
X169518000Y-125444000D02*
X169188000Y-125444000D01*
%TO.C,C1*%
X148750027Y-98169977D02*
X148279094Y-97699044D01*
X150712956Y-100132906D02*
X150242023Y-99661973D01*
X152055044Y-93923094D02*
X148279094Y-97699044D01*
X152525977Y-94394027D02*
X152055044Y-93923094D01*
X154488906Y-96356956D02*
X150712956Y-100132906D01*
X154488906Y-96356956D02*
X154017973Y-95886023D01*
%TO.C,C11*%
X171519815Y-76945403D02*
X170625325Y-76050913D01*
X171548099Y-76917119D02*
X170626739Y-75995759D01*
X171576383Y-76888834D02*
X170628860Y-75941311D01*
X171604668Y-76860550D02*
X170631689Y-75887571D01*
X171632952Y-76832266D02*
X170635931Y-75835245D01*
X171661236Y-76803982D02*
X170640174Y-75782919D01*
X171689521Y-76775697D02*
X170645831Y-75732008D01*
X171717805Y-76747413D02*
X170651488Y-75681096D01*
X171746089Y-76719129D02*
X170658559Y-75631599D01*
X171774373Y-76690845D02*
X170666337Y-75582808D01*
X171802658Y-76662560D02*
X170674115Y-75534018D01*
X171830942Y-76634276D02*
X170682600Y-75485935D01*
X171859226Y-76605992D02*
X170692500Y-75439266D01*
X171860640Y-78643873D02*
X171292127Y-78075360D01*
X171887510Y-76577707D02*
X170702399Y-75392597D01*
X171915795Y-76549423D02*
X170712299Y-75345927D01*
X171944079Y-76521139D02*
X170723613Y-75300673D01*
X171972363Y-76492855D02*
X170734926Y-75255418D01*
X172000648Y-76464570D02*
X170747654Y-75211577D01*
X172028932Y-76436286D02*
X170760382Y-75167737D01*
X172052266Y-78778931D02*
X171157069Y-77883734D01*
X172057216Y-76408002D02*
X170773110Y-75123896D01*
X172085500Y-76379718D02*
X170787252Y-75081470D01*
X172113785Y-76351433D02*
X170801394Y-75039043D01*
X172142069Y-76323149D02*
X170815537Y-74996617D01*
X172170353Y-76294865D02*
X170831093Y-74955605D01*
X172198637Y-76266580D02*
X170846649Y-74914592D01*
X172200052Y-78870148D02*
X171065852Y-77735948D01*
X172226922Y-76238296D02*
X170862206Y-74873580D01*
X172255206Y-76210012D02*
X170879176Y-74833982D01*
X172283490Y-76181728D02*
X170896147Y-74794384D01*
X172311774Y-76153443D02*
X170913117Y-74754786D01*
X172325917Y-78939444D02*
X170996556Y-77610083D01*
X172340059Y-76125159D02*
X170930795Y-74715895D01*
X172368343Y-76096875D02*
X170949180Y-74677712D01*
X172396627Y-76068591D02*
X170967565Y-74639528D01*
X172424912Y-76040306D02*
X170986656Y-74602051D01*
X172438347Y-78995306D02*
X170940694Y-77497653D01*
X172453196Y-76012022D02*
X171006455Y-74565282D01*
X172481480Y-75983738D02*
X171026254Y-74528512D01*
X172509764Y-75955453D02*
X171046053Y-74491742D01*
X172538049Y-75927169D02*
X171066559Y-74455680D01*
X172541584Y-79041975D02*
X170894025Y-77394416D01*
X172566333Y-75898885D02*
X171087773Y-74420325D01*
X172594617Y-75870601D02*
X171108986Y-74384969D01*
X172622901Y-75842316D02*
X171130906Y-74350321D01*
X172638458Y-79082280D02*
X170853720Y-77297542D01*
X172651893Y-75813325D02*
X171153534Y-74314966D01*
X172680177Y-75785041D02*
X171176161Y-74281025D01*
X172708461Y-75756756D02*
X171198788Y-74247084D01*
X172728967Y-79116221D02*
X170819779Y-77207033D01*
X172736746Y-75728472D02*
X171222123Y-74213849D01*
X172765030Y-75700188D02*
X171245457Y-74180615D01*
X172793314Y-75671904D02*
X171269499Y-74148089D01*
X172815235Y-79145919D02*
X170790081Y-77120765D01*
X172821598Y-75643619D02*
X171293541Y-74115562D01*
X172849883Y-75615335D02*
X171318289Y-74083742D01*
X172878167Y-75587051D02*
X171343038Y-74051922D01*
X172897966Y-79172082D02*
X170763918Y-77038034D01*
X172906451Y-75558767D02*
X171368494Y-74020809D01*
X172934736Y-75530482D02*
X171394657Y-73990404D01*
X172963020Y-75502198D02*
X171420113Y-73959291D01*
X172977162Y-79194710D02*
X170741290Y-76958838D01*
X173054237Y-79215216D02*
X170720784Y-76881763D01*
X173127776Y-79232186D02*
X170703814Y-76808224D01*
X173199901Y-79247743D02*
X170688257Y-76736099D01*
X173269197Y-79260471D02*
X170675529Y-76666803D01*
X173337079Y-79271784D02*
X170664216Y-76598921D01*
X173403547Y-79281684D02*
X170654316Y-76532453D01*
X173467894Y-79289462D02*
X170646538Y-76468106D01*
X173530827Y-79295826D02*
X170640174Y-76405173D01*
X173593052Y-79301483D02*
X170634517Y-76342948D01*
X173653156Y-79305018D02*
X170630982Y-76282844D01*
X173713260Y-79308554D02*
X170627446Y-76222740D01*
X173771243Y-79309968D02*
X170626032Y-76164757D01*
X173828519Y-79310675D02*
X170625325Y-76107481D01*
X173885087Y-79310675D02*
X172990597Y-78416185D01*
X173940241Y-79309261D02*
X173018881Y-78387901D01*
X173994689Y-79307140D02*
X173047166Y-78359617D01*
X174048429Y-79304311D02*
X173075450Y-78331332D01*
X174100755Y-79300069D02*
X173103734Y-78303048D01*
X174153081Y-79295826D02*
X173132018Y-78274764D01*
X174203992Y-79290169D02*
X173160303Y-78246479D01*
X174254904Y-79284512D02*
X173188587Y-78218195D01*
X174304401Y-79277441D02*
X173216871Y-78189911D01*
X174353192Y-79269663D02*
X173245155Y-78161627D01*
X174401982Y-79261885D02*
X173273440Y-78133342D01*
X174450065Y-79253400D02*
X173301724Y-78105058D01*
X174496734Y-79243500D02*
X173330008Y-78076774D01*
X174543403Y-79233601D02*
X173358293Y-78048490D01*
X174590073Y-79223701D02*
X173386577Y-78020205D01*
X174635327Y-79212387D02*
X173414861Y-77991921D01*
X174680582Y-79201074D02*
X173443145Y-77963637D01*
X174724423Y-79188346D02*
X173471430Y-77935352D01*
X174768263Y-79175618D02*
X173499714Y-77907068D01*
X174812104Y-79162890D02*
X173527998Y-77878784D01*
X174854530Y-79148748D02*
X173556282Y-77850500D01*
X174896957Y-79134606D02*
X173584567Y-77822215D01*
X174939383Y-79120463D02*
X173612851Y-77793931D01*
X174980395Y-79104907D02*
X173641135Y-77765647D01*
X175021408Y-79089351D02*
X173669420Y-77737363D01*
X175062420Y-79073794D02*
X173697704Y-77709078D01*
X175102018Y-79056824D02*
X173725988Y-77680794D01*
X175141616Y-79039853D02*
X173754272Y-77652510D01*
X175181214Y-79022883D02*
X173782557Y-77624226D01*
X175220105Y-79005205D02*
X173810841Y-77595941D01*
X175258288Y-78986820D02*
X173839125Y-77567657D01*
X175296472Y-78968435D02*
X173867409Y-77539373D01*
X175333949Y-78949344D02*
X173895694Y-77511088D01*
X175370718Y-78929545D02*
X173923978Y-77482804D01*
X175407488Y-78909746D02*
X173952262Y-77454520D01*
X175444258Y-78889947D02*
X173980547Y-77426236D01*
X175480320Y-78869441D02*
X174008831Y-77397951D01*
X175515675Y-78848227D02*
X174037115Y-77369667D01*
X175551031Y-78827014D02*
X174065399Y-77341383D01*
X175585679Y-78805094D02*
X174093684Y-77313099D01*
X175621034Y-78782466D02*
X174122675Y-77284107D01*
X175654975Y-78759839D02*
X174150959Y-77255823D01*
X175688916Y-78737212D02*
X174179244Y-77227539D01*
X175722151Y-78713877D02*
X174207528Y-77199254D01*
X175755385Y-78690543D02*
X174235812Y-77170970D01*
X175787911Y-78666501D02*
X174264096Y-77142686D01*
X175820438Y-78642459D02*
X174292381Y-77114402D01*
X175852258Y-78617711D02*
X174320665Y-77086117D01*
X175884078Y-78592962D02*
X174348949Y-77057833D01*
X175915191Y-78567506D02*
X174377233Y-77029549D01*
X175945596Y-78541343D02*
X174405518Y-77001264D01*
X175976709Y-78515887D02*
X174433802Y-76972980D01*
X176006407Y-78489017D02*
X171446983Y-73929593D01*
X176036813Y-78462854D02*
X171473146Y-73899187D01*
X176065804Y-78435277D02*
X171500723Y-73870196D01*
X176095503Y-78408407D02*
X171527593Y-73840497D01*
X176123787Y-78380123D02*
X171555877Y-73812213D01*
X176152071Y-78351838D02*
X171584162Y-73783929D01*
X177643530Y-74893209D02*
X177198053Y-75338686D01*
X177643530Y-75338686D02*
X177198053Y-74893209D01*
X177138118Y-76067883D02*
G75*
G02*
X170598116Y-76067883I-3270001J0D01*
G01*
X170598116Y-76067883D02*
G75*
G02*
X177138118Y-76067883I3270001J0D01*
G01*
%TO.C,R15*%
X172752000Y-126646000D02*
X179292000Y-126646000D01*
X172752000Y-126976000D02*
X172752000Y-126646000D01*
X172752000Y-129056000D02*
X172752000Y-129386000D01*
X172752000Y-129386000D02*
X179292000Y-129386000D01*
X179292000Y-126646000D02*
X179292000Y-126976000D01*
X179292000Y-129386000D02*
X179292000Y-129056000D01*
%TO.C,C5*%
X166584000Y-93895113D02*
X171744000Y-93895113D01*
X166584000Y-93935113D02*
X171744000Y-93935113D01*
X166585001Y-93855113D02*
X171742999Y-93855113D01*
X166586000Y-93815113D02*
X171742000Y-93815113D01*
X166587999Y-93775113D02*
X171740001Y-93775113D01*
X166591000Y-93735113D02*
X171737000Y-93735113D01*
X166595000Y-93695113D02*
X168124000Y-93695113D01*
X166599000Y-93655114D02*
X168124000Y-93655114D01*
X166603000Y-93615113D02*
X168124000Y-93615113D01*
X166608000Y-93575113D02*
X168124000Y-93575113D01*
X166614000Y-93535113D02*
X168124000Y-93535113D01*
X166621000Y-93495113D02*
X168123999Y-93495113D01*
X166628000Y-93455113D02*
X168124000Y-93455113D01*
X166636000Y-93415113D02*
X168124000Y-93415113D01*
X166644000Y-93375113D02*
X168124000Y-93375113D01*
X166652999Y-93335113D02*
X168123999Y-93335113D01*
X166663000Y-93295113D02*
X168124000Y-93295113D01*
X166673000Y-93255113D02*
X168124000Y-93255113D01*
X166684000Y-93214113D02*
X168123999Y-93214113D01*
X166696000Y-93174113D02*
X168124000Y-93174113D01*
X166709000Y-93134113D02*
X168124000Y-93134113D01*
X166722000Y-93094113D02*
X168124000Y-93094113D01*
X166736000Y-93054113D02*
X168123999Y-93054113D01*
X166750000Y-93014113D02*
X168124000Y-93014113D01*
X166766000Y-92974113D02*
X168124000Y-92974113D01*
X166782000Y-92934113D02*
X168124000Y-92934114D01*
X166799000Y-92894113D02*
X168124000Y-92894112D01*
X166816000Y-92854113D02*
X168124000Y-92854113D01*
X166835000Y-92814113D02*
X168124000Y-92814113D01*
X166854000Y-92774113D02*
X168123999Y-92774113D01*
X166874000Y-92734113D02*
X168124000Y-92734113D01*
X166896000Y-92694113D02*
X168124000Y-92694113D01*
X166917000Y-92654113D02*
X168124000Y-92654113D01*
X166940000Y-92614113D02*
X168123999Y-92614113D01*
X166964000Y-92574113D02*
X168124000Y-92574113D01*
X166989000Y-92534113D02*
X168124000Y-92534113D01*
X167015000Y-92494113D02*
X168124000Y-92494113D01*
X167042000Y-92454113D02*
X168124000Y-92454112D01*
X167069000Y-92414113D02*
X168124000Y-92414113D01*
X167099000Y-92374113D02*
X168124000Y-92374113D01*
X167129000Y-92334113D02*
X168124000Y-92334114D01*
X167160000Y-92294113D02*
X168124000Y-92294113D01*
X167193001Y-92254113D02*
X168124000Y-92254113D01*
X167227000Y-92214113D02*
X168124000Y-92214113D01*
X167263000Y-92174112D02*
X168123999Y-92174113D01*
X167300000Y-92134113D02*
X168124000Y-92134113D01*
X167338000Y-92094113D02*
X168124000Y-92094113D01*
X167379000Y-92054113D02*
X168124000Y-92054113D01*
X167420999Y-92014113D02*
X168124000Y-92014112D01*
X167439000Y-96489888D02*
X167939000Y-96489888D01*
X167465000Y-91974114D02*
X168124000Y-91974113D01*
X167511000Y-91934112D02*
X168124000Y-91934113D01*
X167559000Y-91894113D02*
X168124000Y-91894114D01*
X167610000Y-91854113D02*
X168124000Y-91854113D01*
X167664000Y-91814113D02*
X168124000Y-91814113D01*
X167689000Y-96739887D02*
X167689000Y-96239888D01*
X167721000Y-91774113D02*
X168124000Y-91774113D01*
X167781000Y-91734113D02*
X168123999Y-91734113D01*
X167845000Y-91694113D02*
X168124000Y-91694113D01*
X167912999Y-91654113D02*
X168124000Y-91654113D01*
X167986000Y-91614113D02*
X170342000Y-91614113D01*
X168066000Y-91574113D02*
X170262000Y-91574113D01*
X168153000Y-91534113D02*
X170175000Y-91534113D01*
X168249000Y-91494113D02*
X170079000Y-91494113D01*
X168359000Y-91454114D02*
X169969000Y-91454114D01*
X168487000Y-91414113D02*
X169841000Y-91414113D01*
X168646000Y-91374113D02*
X169682000Y-91374113D01*
X168880000Y-91334113D02*
X169448000Y-91334113D01*
X170204000Y-91654113D02*
X170415001Y-91654113D01*
X170204000Y-91694113D02*
X170483000Y-91694113D01*
X170204000Y-91774113D02*
X170607000Y-91774113D01*
X170204000Y-91814113D02*
X170664000Y-91814113D01*
X170204000Y-91854113D02*
X170718000Y-91854113D01*
X170204000Y-91894114D02*
X170769000Y-91894113D01*
X170204000Y-91934113D02*
X170817000Y-91934112D01*
X170204000Y-91974113D02*
X170863000Y-91974114D01*
X170204000Y-92014112D02*
X170907001Y-92014113D01*
X170204000Y-92054113D02*
X170949000Y-92054113D01*
X170204000Y-92094113D02*
X170990000Y-92094113D01*
X170204000Y-92134113D02*
X171028000Y-92134113D01*
X170204000Y-92214113D02*
X171101000Y-92214113D01*
X170204000Y-92254113D02*
X171134999Y-92254113D01*
X170204000Y-92294113D02*
X171168000Y-92294113D01*
X170204000Y-92334114D02*
X171199000Y-92334113D01*
X170204000Y-92374113D02*
X171229000Y-92374113D01*
X170204000Y-92414113D02*
X171259000Y-92414113D01*
X170204000Y-92454112D02*
X171286000Y-92454113D01*
X170204000Y-92494113D02*
X171313000Y-92494113D01*
X170204000Y-92534113D02*
X171339000Y-92534113D01*
X170204000Y-92574113D02*
X171364000Y-92574113D01*
X170204000Y-92654113D02*
X171411000Y-92654113D01*
X170204000Y-92694113D02*
X171432000Y-92694113D01*
X170204000Y-92734113D02*
X171454000Y-92734113D01*
X170204000Y-92814113D02*
X171493000Y-92814113D01*
X170204000Y-92854113D02*
X171512000Y-92854113D01*
X170204000Y-92894112D02*
X171529000Y-92894113D01*
X170204000Y-92934114D02*
X171546000Y-92934113D01*
X170204000Y-92974113D02*
X171562000Y-92974113D01*
X170204000Y-93014113D02*
X171578000Y-93014113D01*
X170204000Y-93094113D02*
X171606000Y-93094113D01*
X170204000Y-93134113D02*
X171619000Y-93134113D01*
X170204000Y-93174113D02*
X171632000Y-93174113D01*
X170204000Y-93255113D02*
X171655000Y-93255113D01*
X170204000Y-93295113D02*
X171665000Y-93295113D01*
X170204000Y-93375113D02*
X171684000Y-93375113D01*
X170204000Y-93415113D02*
X171692000Y-93415113D01*
X170204000Y-93455113D02*
X171700000Y-93455113D01*
X170204000Y-93535113D02*
X171714000Y-93535113D01*
X170204000Y-93575113D02*
X171720000Y-93575113D01*
X170204000Y-93615113D02*
X171725000Y-93615113D01*
X170204000Y-93655114D02*
X171729000Y-93655114D01*
X170204000Y-93695113D02*
X171733000Y-93695113D01*
X170204001Y-91734113D02*
X170547000Y-91734113D01*
X170204001Y-92174113D02*
X171065000Y-92174112D01*
X170204001Y-92614113D02*
X171388000Y-92614113D01*
X170204001Y-92774113D02*
X171474000Y-92774113D01*
X170204001Y-93054113D02*
X171592000Y-93054113D01*
X170204001Y-93214113D02*
X171644000Y-93214113D01*
X170204001Y-93335113D02*
X171675001Y-93335113D01*
X170204001Y-93495113D02*
X171707000Y-93495113D01*
X171784001Y-93935114D02*
G75*
G02*
X166543999Y-93935114I-2620001J0D01*
G01*
X166543999Y-93935114D02*
G75*
G02*
X171784001Y-93935114I2620001J0D01*
G01*
%TO.C,U1*%
X157878000Y-56074000D02*
X157878000Y-73973999D01*
X157878000Y-73973999D02*
X163178000Y-73974000D01*
X159528000Y-56074000D02*
X157878000Y-56074000D01*
X163178000Y-56074000D02*
X161528001Y-56074000D01*
X163178000Y-73974000D02*
X163178000Y-56074000D01*
X161528001Y-56074000D02*
G75*
G02*
X159527999Y-56074000I-1000001J0D01*
G01*
%TO.C,C12*%
X178669553Y-72981736D02*
X181526265Y-75838448D01*
X179111495Y-72539795D02*
X178669553Y-72981736D01*
X180677736Y-70973553D02*
X180235795Y-71415495D01*
X180677736Y-70973553D02*
X183534448Y-73830265D01*
X181968206Y-75396506D02*
X181526265Y-75838448D01*
X183534448Y-73830265D02*
X183092506Y-74272206D01*
%TO.C,U4*%
X184792001Y-130556000D02*
X187332000Y-130556000D01*
X184792001Y-133096000D02*
X187332001Y-133096000D01*
X184792001Y-135636000D02*
X187332001Y-135636000D01*
X187332000Y-138216000D02*
X187332001Y-127976000D01*
X187332000Y-138216000D02*
X196822001Y-138216000D01*
X187332001Y-127976000D02*
X196822001Y-127976000D01*
D13*
X187354945Y-127755490D02*
X189640945Y-127755490D01*
D14*
X197062000Y-138216000D02*
X198262002Y-138216000D01*
X197062001Y-127976000D02*
X198262001Y-127976000D01*
X199462001Y-127976000D02*
X200662001Y-127976000D01*
X199462001Y-138216000D02*
X200662001Y-138216000D01*
X201862001Y-127976001D02*
X203062002Y-127976000D01*
X201862001Y-138216000D02*
X203062001Y-138216000D01*
X203222001Y-128616000D02*
X203222001Y-127976000D01*
X203222001Y-131016000D02*
X203222001Y-129816000D01*
X203222001Y-133416000D02*
X203222001Y-132216000D01*
X203222001Y-135817000D02*
X203222001Y-134616000D01*
X203222001Y-138216000D02*
X203222001Y-137016000D01*
%TO.C,R7*%
X142272000Y-85498000D02*
X142272000Y-85828000D01*
X142272000Y-88238000D02*
X142272000Y-87908000D01*
X148812000Y-85498000D02*
X142272000Y-85498000D01*
X148812000Y-85828000D02*
X148812000Y-85498000D01*
X148812000Y-87908000D02*
X148812000Y-88238000D01*
X148812000Y-88238000D02*
X142272000Y-88238000D01*
%TO.C,Communication*%
X177740000Y-89661998D02*
X177740000Y-84522000D01*
X180400000Y-84522000D02*
X177740000Y-84522000D01*
X180400000Y-89661998D02*
X177740000Y-89661998D01*
X180400000Y-89661998D02*
X180400000Y-84522000D01*
X180400000Y-90931999D02*
X180400000Y-92261999D01*
X180400000Y-92261999D02*
X179070000Y-92261999D01*
%TO.C,R2*%
X147982000Y-71914000D02*
X147982000Y-78454000D01*
X147982000Y-78454000D02*
X148312000Y-78454000D01*
X148312000Y-71914000D02*
X147982000Y-71914000D01*
X150392000Y-71914000D02*
X150722000Y-71914000D01*
X150722000Y-71914000D02*
X150722000Y-78454000D01*
X150722000Y-78454000D02*
X150392000Y-78454000D01*
%TO.C,R8*%
X178970000Y-99092000D02*
X178970000Y-105632000D01*
X178970000Y-105632000D02*
X179300000Y-105632000D01*
X179300000Y-99092000D02*
X178970000Y-99092000D01*
X181380000Y-99092000D02*
X181710000Y-99092000D01*
X181710000Y-99092000D02*
X181710000Y-105632000D01*
X181710000Y-105632000D02*
X181380000Y-105632000D01*
%TO.C,Q1*%
X121389056Y-73666510D02*
X123929055Y-73666510D01*
X121389056Y-76206510D02*
X123929056Y-76206510D01*
X121389056Y-78746510D02*
X123929056Y-78746510D01*
X123929055Y-81326510D02*
X123929056Y-71086510D01*
X123929055Y-81326510D02*
X133419056Y-81326510D01*
X123929056Y-71086510D02*
X133419056Y-71086510D01*
D13*
X123952000Y-70866000D02*
X126238000Y-70866000D01*
D14*
X133659055Y-81326510D02*
X134859057Y-81326510D01*
X133659056Y-71086510D02*
X134859056Y-71086510D01*
X136059056Y-71086510D02*
X137259056Y-71086510D01*
X136059056Y-81326510D02*
X137259056Y-81326510D01*
X138459056Y-71086511D02*
X139659057Y-71086510D01*
X138459056Y-81326510D02*
X139659056Y-81326510D01*
X139819056Y-71726510D02*
X139819056Y-71086510D01*
X139819056Y-74126510D02*
X139819056Y-72926510D01*
X139819056Y-76526510D02*
X139819056Y-75326510D01*
X139819056Y-78927510D02*
X139819056Y-77726510D01*
X139819056Y-81326510D02*
X139819056Y-80126510D01*
%TO.C,A1*%
X184528000Y-79626000D02*
X184528000Y-82296000D01*
X184528000Y-84836000D02*
X184528000Y-123065999D01*
X184528000Y-123065999D02*
X189608000Y-123066000D01*
X187198000Y-82296000D02*
X184528000Y-82296000D01*
X187198000Y-84836000D02*
X184528000Y-84836000D01*
X187198000Y-84836000D02*
X187198000Y-82296000D01*
X187198000Y-84836000D02*
X187198000Y-120396000D01*
X187198000Y-120396000D02*
X184528000Y-120396000D01*
X189608000Y-115185999D02*
X197488000Y-115186000D01*
X189608000Y-125606000D02*
X189608000Y-115185999D01*
X197487999Y-125606000D02*
X189608000Y-125606000D01*
X197488000Y-115186000D02*
X197487999Y-125606000D01*
X199898000Y-82296000D02*
X199898000Y-120396000D01*
X199898000Y-82296000D02*
X202568000Y-82296000D01*
X199898000Y-120396000D02*
X202568000Y-120396000D01*
X202568000Y-79626000D02*
X184528000Y-79626000D01*
X202568000Y-123066000D02*
X197488000Y-123065999D01*
X202568000Y-123066000D02*
X202568000Y-79626000D01*
%TO.C,C14*%
X176820070Y-137905403D02*
X176670870Y-137756203D01*
X176848354Y-137877119D02*
X176651071Y-137679836D01*
X176876638Y-137848834D02*
X176634101Y-137606297D01*
X176904923Y-137820550D02*
X176619959Y-137535586D01*
X176933207Y-137792266D02*
X176607938Y-137466997D01*
X176961491Y-137763982D02*
X176598038Y-137400529D01*
X176989776Y-137735697D02*
X176590260Y-137336182D01*
X177018060Y-137707413D02*
X176584603Y-137273957D01*
X177046344Y-137679129D02*
X176580361Y-137213145D01*
X177074628Y-137650845D02*
X176577532Y-137153748D01*
X177102913Y-137622560D02*
X176576118Y-137095766D01*
X177131197Y-137594276D02*
X176575411Y-137038490D01*
X177159481Y-137565992D02*
X176576825Y-136983336D01*
X177187765Y-137537707D02*
X176578946Y-136928889D01*
X177216050Y-137509423D02*
X176581775Y-136875148D01*
X177244334Y-137481139D02*
X176586018Y-136822823D01*
X177272618Y-137452855D02*
X176590967Y-136771204D01*
X177300903Y-137424570D02*
X176597331Y-136720999D01*
X177329187Y-137396286D02*
X176604402Y-136671502D01*
X177357471Y-137368002D02*
X176611473Y-136622004D01*
X177385755Y-137339718D02*
X176620666Y-136574628D01*
X177414040Y-137311433D02*
X176629858Y-136527252D01*
X177442324Y-137283149D02*
X176639758Y-136480583D01*
X177470608Y-137254865D02*
X176650364Y-136434621D01*
X177498892Y-137226580D02*
X176661678Y-136389366D01*
X177527177Y-137198296D02*
X176673699Y-136344818D01*
X177530005Y-139067887D02*
X177128368Y-138666250D01*
X177555461Y-137170012D02*
X176687134Y-136301685D01*
X177583745Y-137141728D02*
X176699862Y-136257844D01*
X177612029Y-137113443D02*
X176714004Y-136215418D01*
X177640314Y-137085159D02*
X176728853Y-136173698D01*
X177668598Y-137056875D02*
X176743702Y-136131979D01*
X177696882Y-137028591D02*
X176759966Y-136091674D01*
X177723752Y-139205065D02*
X176991190Y-138472503D01*
X177725167Y-137000306D02*
X176776229Y-136051369D01*
X177753451Y-136972022D02*
X176793200Y-136011771D01*
X177781735Y-136943738D02*
X176810170Y-135972173D01*
X177810019Y-136915453D02*
X176828555Y-135933989D01*
X177838304Y-136887169D02*
X176846940Y-135895806D01*
X177864467Y-139289211D02*
X176907044Y-138331788D01*
X177866588Y-136858885D02*
X176866032Y-135858329D01*
X177894872Y-136830601D02*
X176885124Y-135820852D01*
X177923156Y-136802316D02*
X176904923Y-135784083D01*
X177952148Y-136773325D02*
X176926136Y-135747313D01*
X177980432Y-136745041D02*
X176947349Y-135711958D01*
X177983261Y-139351436D02*
X176844819Y-138212994D01*
X178008716Y-136716756D02*
X176968562Y-135676602D01*
X178037001Y-136688472D02*
X176990483Y-135641954D01*
X178065285Y-136660188D02*
X177013110Y-135608013D01*
X178089327Y-139400934D02*
X176795321Y-138106928D01*
X178093569Y-136631904D02*
X177035737Y-135574072D01*
X178121853Y-136603619D02*
X177059072Y-135540838D01*
X178150138Y-136575335D02*
X177082407Y-135507604D01*
X178178422Y-136547051D02*
X177106448Y-135475077D01*
X178185493Y-139440532D02*
X176755723Y-138010762D01*
X178206706Y-136518767D02*
X177131197Y-135443257D01*
X178234991Y-136490482D02*
X177156653Y-135412144D01*
X178263275Y-136462198D02*
X177182109Y-135381032D01*
X178275296Y-139473766D02*
X176722489Y-137920959D01*
X178360148Y-139502050D02*
X176694205Y-137836107D01*
X178440052Y-139525385D02*
X178290852Y-139376185D01*
X178516419Y-139545184D02*
X178319136Y-139347901D01*
X178589958Y-139562154D02*
X178347421Y-139319617D01*
X178660669Y-139576296D02*
X178375705Y-139291332D01*
X178729258Y-139588317D02*
X178403989Y-139263048D01*
X178795726Y-139598217D02*
X178432273Y-139234764D01*
X178860073Y-139605995D02*
X178460558Y-139206479D01*
X178922298Y-139611652D02*
X178488842Y-139178195D01*
X178983110Y-139615894D02*
X178517126Y-139149911D01*
X179042507Y-139618723D02*
X178545410Y-139121627D01*
X179100489Y-139620137D02*
X178573695Y-139093342D01*
X179157765Y-139620844D02*
X178601979Y-139065058D01*
X179212919Y-139619430D02*
X178630263Y-139036774D01*
X179267366Y-139617309D02*
X178658548Y-139008490D01*
X179321107Y-139614480D02*
X178686832Y-138980205D01*
X179373432Y-139610237D02*
X178715116Y-138951921D01*
X179425051Y-139605288D02*
X178743400Y-138923637D01*
X179475256Y-139598924D02*
X178771685Y-138895352D01*
X179524753Y-139591853D02*
X178799969Y-138867068D01*
X179574251Y-139584782D02*
X178828253Y-138838784D01*
X179621627Y-139575589D02*
X178856537Y-138810500D01*
X179669003Y-139566397D02*
X178884822Y-138782215D01*
X179715672Y-139556497D02*
X178913106Y-138753931D01*
X179761634Y-139545891D02*
X178941390Y-138725647D01*
X179806889Y-139534577D02*
X178969675Y-138697363D01*
X179851437Y-139522556D02*
X178997959Y-138669078D01*
X179894570Y-139509121D02*
X179026243Y-138640794D01*
X179938411Y-139496393D02*
X179054527Y-138612510D01*
X179980837Y-139482251D02*
X179082812Y-138584226D01*
X180022557Y-139467402D02*
X179111096Y-138555941D01*
X180064276Y-139452553D02*
X179139380Y-138527657D01*
X180104581Y-139436289D02*
X179167664Y-138499373D01*
X180144886Y-139420026D02*
X179195949Y-138471088D01*
X180184484Y-139403055D02*
X179224233Y-138442804D01*
X180224082Y-139386085D02*
X179252517Y-138414520D01*
X180262266Y-139367700D02*
X179280802Y-138386236D01*
X180300449Y-139349315D02*
X179309086Y-138357951D01*
X180337926Y-139330223D02*
X179337370Y-138329667D01*
X180375403Y-139311131D02*
X179365654Y-138301383D01*
X180412172Y-139291332D02*
X179393939Y-138273099D01*
X180448942Y-139270119D02*
X179422930Y-138244107D01*
X180484297Y-139248906D02*
X179451214Y-138215823D01*
X180519653Y-139227693D02*
X179479499Y-138187539D01*
X180554301Y-139205772D02*
X179507783Y-138159254D01*
X180588242Y-139183145D02*
X179536067Y-138130970D01*
X180622183Y-139160518D02*
X179564351Y-138102686D01*
X180655417Y-139137183D02*
X179592636Y-138074402D01*
X180688651Y-139113848D02*
X179620920Y-138046117D01*
X180721178Y-139089807D02*
X179649204Y-138017833D01*
X180752998Y-139065058D02*
X179677488Y-137989549D01*
X180784111Y-139039602D02*
X179705773Y-137961264D01*
X180815223Y-139014146D02*
X179734057Y-137932980D01*
X180846336Y-138988691D02*
X177207564Y-135349919D01*
X180876742Y-138962528D02*
X177233727Y-135319513D01*
X180906440Y-138935658D02*
X177260597Y-135289815D01*
X180935431Y-138908080D02*
X177288175Y-135260824D01*
X180964423Y-138880503D02*
X177315752Y-135231832D01*
X180992707Y-138852219D02*
X177344036Y-135203548D01*
X182194629Y-136087591D02*
X181841076Y-136441144D01*
X182194629Y-136441144D02*
X181841076Y-136087591D01*
X181788372Y-137027883D02*
G75*
G02*
X176548372Y-137027883I-2620000J0D01*
G01*
X176548372Y-137027883D02*
G75*
G02*
X181788372Y-137027883I2620000J0D01*
G01*
%TO.C,D3*%
X146199051Y-123763991D02*
X147782970Y-125347910D01*
X146531391Y-125015570D02*
X146991010Y-124555951D01*
X146623315Y-123339727D02*
X148207234Y-124923646D01*
X146708168Y-123254874D02*
X148292087Y-124838793D01*
X146793021Y-123170021D02*
X148376940Y-124753940D01*
X147782970Y-125347910D02*
X150781103Y-122349777D01*
X149197184Y-120765858D02*
X146199051Y-123763991D01*
X150448763Y-121098198D02*
X149989143Y-121557818D01*
X150781103Y-122349777D02*
X149197184Y-120765858D01*
%TO.C,Q3*%
X121038001Y-134372510D02*
X123578000Y-134372510D01*
X121038001Y-136912510D02*
X123578001Y-136912510D01*
X121038001Y-139452510D02*
X123578001Y-139452510D01*
X123578000Y-142032510D02*
X123578001Y-131792510D01*
X123578000Y-142032510D02*
X133068001Y-142032510D01*
X123578001Y-131792510D02*
X133068001Y-131792510D01*
D13*
X123600945Y-131572000D02*
X125886945Y-131572000D01*
D14*
X133308000Y-142032510D02*
X134508002Y-142032510D01*
X133308001Y-131792510D02*
X134508001Y-131792510D01*
X135708001Y-131792510D02*
X136908001Y-131792510D01*
X135708001Y-142032510D02*
X136908001Y-142032510D01*
X138108001Y-131792511D02*
X139308002Y-131792510D01*
X138108001Y-142032510D02*
X139308001Y-142032510D01*
X139468001Y-132432510D02*
X139468001Y-131792510D01*
X139468001Y-134832510D02*
X139468001Y-133632510D01*
X139468001Y-137232510D02*
X139468001Y-136032510D01*
X139468001Y-139633510D02*
X139468001Y-138432510D01*
X139468001Y-142032510D02*
X139468001Y-140832510D01*
%TO.C,C7*%
X171913000Y-103408000D02*
X171913000Y-102840000D01*
X171953000Y-103642000D02*
X171953000Y-102606000D01*
X171993000Y-103801000D02*
X171993000Y-102447000D01*
X172033000Y-103929000D02*
X172033000Y-102319000D01*
X172073000Y-104039000D02*
X172073000Y-102209000D01*
X172113000Y-104135000D02*
X172113000Y-102113000D01*
X172153000Y-104222000D02*
X172153000Y-102026000D01*
X172193000Y-104302000D02*
X172193000Y-101946000D01*
X172233000Y-104375000D02*
X172233000Y-101873000D01*
X172273000Y-104443000D02*
X172273000Y-101805000D01*
X172313000Y-104507000D02*
X172313000Y-101741000D01*
X172353000Y-104567001D02*
X172353000Y-101680999D01*
X172393000Y-104624000D02*
X172393000Y-101624000D01*
X172433000Y-104678000D02*
X172433000Y-101570000D01*
X172473000Y-104729000D02*
X172473000Y-101519000D01*
X172513000Y-102083999D02*
X172513000Y-101471000D01*
X172513000Y-104777000D02*
X172513000Y-104164001D01*
X172553000Y-102084000D02*
X172553000Y-101425000D01*
X172553000Y-104823000D02*
X172553000Y-104164000D01*
X172593000Y-102084000D02*
X172593000Y-101381000D01*
X172593000Y-104867000D02*
X172593000Y-104164000D01*
X172632999Y-102084000D02*
X172633000Y-101339000D01*
X172633000Y-104909000D02*
X172632999Y-104164000D01*
X172673001Y-102084000D02*
X172673001Y-101298000D01*
X172673001Y-104950000D02*
X172673001Y-104164000D01*
X172713000Y-102084000D02*
X172713000Y-101260000D01*
X172713000Y-104988000D02*
X172713000Y-104164000D01*
X172753000Y-102084000D02*
X172753000Y-101223000D01*
X172753000Y-105025000D02*
X172753000Y-104164000D01*
X172793000Y-102083999D02*
X172793000Y-101187000D01*
X172793000Y-105061000D02*
X172793000Y-104164001D01*
X172833000Y-102084000D02*
X172833000Y-101153000D01*
X172833000Y-105095000D02*
X172833000Y-104164000D01*
X172873000Y-102084000D02*
X172873000Y-101120000D01*
X172873000Y-105128000D02*
X172873000Y-104164000D01*
X172913000Y-102084000D02*
X172913000Y-101089000D01*
X172913000Y-105159000D02*
X172913000Y-104164000D01*
X172953000Y-102083999D02*
X172953000Y-101059000D01*
X172953000Y-105189000D02*
X172953000Y-104164001D01*
X172993000Y-102084000D02*
X172993000Y-101029000D01*
X172993000Y-105219000D02*
X172993000Y-104164000D01*
X173033000Y-102084000D02*
X173033000Y-101001999D01*
X173033000Y-105246001D02*
X173033000Y-104164000D01*
X173073000Y-102084000D02*
X173073000Y-100975000D01*
X173073000Y-105273000D02*
X173073000Y-104164000D01*
X173113000Y-105299000D02*
X173113001Y-104164000D01*
X173113001Y-102084000D02*
X173113000Y-100949000D01*
X173153000Y-102084000D02*
X173153000Y-100924000D01*
X173153000Y-105324000D02*
X173153000Y-104164000D01*
X173193000Y-102084000D02*
X173193000Y-100900000D01*
X173193000Y-105348000D02*
X173193000Y-104164000D01*
X173232999Y-102084000D02*
X173232999Y-100877000D01*
X173232999Y-105371000D02*
X173232999Y-104164000D01*
X173273000Y-102084000D02*
X173273000Y-100856000D01*
X173273000Y-105392000D02*
X173273000Y-104164000D01*
X173313000Y-102084000D02*
X173313000Y-100833999D01*
X173313000Y-105414001D02*
X173313000Y-104164000D01*
X173353000Y-102084000D02*
X173353000Y-100814000D01*
X173353000Y-105434000D02*
X173353000Y-104164000D01*
X173393000Y-102083999D02*
X173393000Y-100795000D01*
X173393000Y-105453000D02*
X173393000Y-104164001D01*
X173433000Y-102084000D02*
X173433000Y-100776000D01*
X173433000Y-105472000D02*
X173433000Y-104164000D01*
X173473000Y-102084000D02*
X173473001Y-100759000D01*
X173473001Y-105489000D02*
X173473000Y-104164000D01*
X173513000Y-102084000D02*
X173513000Y-100742000D01*
X173513000Y-105506000D02*
X173513000Y-104164000D01*
X173553001Y-102084000D02*
X173553001Y-100726000D01*
X173553001Y-105522000D02*
X173553001Y-104164000D01*
X173593000Y-102084000D02*
X173593000Y-100710000D01*
X173593000Y-105538000D02*
X173593000Y-104164000D01*
X173633000Y-102084000D02*
X173633000Y-100696000D01*
X173633000Y-105552000D02*
X173633000Y-104164000D01*
X173672999Y-102084000D02*
X173673000Y-100682000D01*
X173673000Y-105566000D02*
X173672999Y-104164000D01*
X173713000Y-102084000D02*
X173713000Y-100669000D01*
X173713000Y-105579000D02*
X173713000Y-104164000D01*
X173752999Y-105592000D02*
X173753000Y-104164000D01*
X173753000Y-102084000D02*
X173752999Y-100656000D01*
X173793000Y-102084000D02*
X173793000Y-100644000D01*
X173793000Y-105604000D02*
X173793000Y-104164000D01*
X173834001Y-102084000D02*
X173834001Y-100633000D01*
X173834001Y-105615000D02*
X173834001Y-104164000D01*
X173874000Y-102084000D02*
X173874000Y-100623000D01*
X173874000Y-105625000D02*
X173874000Y-104164000D01*
X173914000Y-102084000D02*
X173914000Y-100613000D01*
X173914000Y-105635000D02*
X173914000Y-104164000D01*
X173953999Y-102084000D02*
X173954000Y-100603999D01*
X173954000Y-105644001D02*
X173953999Y-104164000D01*
X173994000Y-102084000D02*
X173994000Y-100596000D01*
X173994000Y-105652000D02*
X173994000Y-104164000D01*
X174034000Y-102084000D02*
X174034000Y-100588000D01*
X174034000Y-105660000D02*
X174034000Y-104164000D01*
X174074000Y-102084000D02*
X174074000Y-100581000D01*
X174074000Y-105667000D02*
X174074000Y-104164000D01*
X174114000Y-102083999D02*
X174114000Y-100574000D01*
X174114000Y-105674000D02*
X174114000Y-104164001D01*
X174154000Y-102084000D02*
X174154000Y-100568000D01*
X174154000Y-105680000D02*
X174154000Y-104164000D01*
X174194000Y-102084000D02*
X174194001Y-100563000D01*
X174194001Y-105685000D02*
X174194000Y-104164000D01*
X174234000Y-102084000D02*
X174234000Y-100559000D01*
X174234000Y-105689000D02*
X174234000Y-104164000D01*
X174274000Y-105693000D02*
X174274001Y-104164000D01*
X174274001Y-102084000D02*
X174274000Y-100555000D01*
X174314000Y-102084000D02*
X174314000Y-100551000D01*
X174314000Y-105697000D02*
X174314000Y-104164000D01*
X174354000Y-102084000D02*
X174354000Y-100548000D01*
X174354000Y-105700000D02*
X174354000Y-104164000D01*
X174393999Y-102084000D02*
X174394000Y-100546000D01*
X174394000Y-105702000D02*
X174393999Y-104164000D01*
X174434000Y-102084000D02*
X174434000Y-100545000D01*
X174434000Y-105703000D02*
X174434000Y-104164000D01*
X174473999Y-105704000D02*
X174474000Y-104164000D01*
X174474000Y-102084000D02*
X174473999Y-100544000D01*
X174514000Y-102084000D02*
X174514000Y-100544000D01*
X174514000Y-105704000D02*
X174514000Y-104164000D01*
X177068775Y-104849000D02*
X177068775Y-104349000D01*
X177318775Y-104599000D02*
X176818775Y-104599000D01*
X177134001Y-103124000D02*
G75*
G02*
X171893999Y-103124000I-2620001J0D01*
G01*
X171893999Y-103124000D02*
G75*
G02*
X177134001Y-103124000I2620001J0D01*
G01*
%TO.C,R9*%
X171625102Y-117167503D02*
X171858447Y-117400848D01*
X173562574Y-119104975D02*
X173329229Y-118871630D01*
X176249580Y-112543024D02*
X171625102Y-117167503D01*
X176482925Y-112776370D02*
X176249580Y-112543024D01*
X177953707Y-114247152D02*
X178187053Y-114480497D01*
X178187053Y-114480497D02*
X173562574Y-119104975D01*
%TO.C,Q7*%
X147534001Y-106712000D02*
X147534001Y-111353000D01*
X147534001Y-106712000D02*
X157774001Y-106712000D01*
X147534001Y-108222001D02*
X157774001Y-108222000D01*
X147534001Y-111353000D02*
X157774001Y-111352999D01*
X150804001Y-106712000D02*
X150804001Y-108222000D01*
X154505001Y-106712000D02*
X154505001Y-108222000D01*
X157774001Y-106712000D02*
X157774001Y-111352999D01*
%TO.C,R10*%
X172752000Y-121566000D02*
X179292000Y-121566000D01*
X172752000Y-121896000D02*
X172752000Y-121566000D01*
X172752000Y-123976000D02*
X172752000Y-124306000D01*
X172752000Y-124306000D02*
X179292000Y-124306000D01*
X179292000Y-121566000D02*
X179292000Y-121896000D01*
X179292000Y-124306000D02*
X179292000Y-123976000D01*
%TO.C,C4*%
X158202000Y-142982000D02*
X163362000Y-142982000D01*
X158202000Y-143022000D02*
X163362000Y-143022000D01*
X158203001Y-142942000D02*
X163360999Y-142942000D01*
X158204000Y-142902000D02*
X163360000Y-142902000D01*
X158205999Y-142862000D02*
X163358001Y-142862000D01*
X158209000Y-142822000D02*
X163355000Y-142822000D01*
X158213000Y-142782000D02*
X159742000Y-142782000D01*
X158217000Y-142742001D02*
X159742000Y-142742001D01*
X158221000Y-142702000D02*
X159742000Y-142702000D01*
X158226000Y-142662000D02*
X159742000Y-142662000D01*
X158232000Y-142622000D02*
X159742000Y-142622000D01*
X158239000Y-142582000D02*
X159741999Y-142582000D01*
X158246000Y-142542000D02*
X159742000Y-142542000D01*
X158254000Y-142502000D02*
X159742000Y-142502000D01*
X158262000Y-142462000D02*
X159742000Y-142462000D01*
X158270999Y-142422000D02*
X159741999Y-142422000D01*
X158281000Y-142382000D02*
X159742000Y-142382000D01*
X158291000Y-142342000D02*
X159742000Y-142342000D01*
X158302000Y-142301000D02*
X159741999Y-142301000D01*
X158314000Y-142261000D02*
X159742000Y-142261000D01*
X158327000Y-142221000D02*
X159742000Y-142221000D01*
X158340000Y-142181000D02*
X159742000Y-142181000D01*
X158354000Y-142141000D02*
X159741999Y-142141000D01*
X158368000Y-142101000D02*
X159742000Y-142101000D01*
X158384000Y-142061000D02*
X159742000Y-142061000D01*
X158400000Y-142021000D02*
X159742000Y-142021001D01*
X158417000Y-141981000D02*
X159742000Y-141980999D01*
X158434000Y-141941000D02*
X159742000Y-141941000D01*
X158453000Y-141901000D02*
X159742000Y-141901000D01*
X158472000Y-141861000D02*
X159741999Y-141861000D01*
X158492000Y-141821000D02*
X159742000Y-141821000D01*
X158514000Y-141781000D02*
X159742000Y-141781000D01*
X158535000Y-141741000D02*
X159742000Y-141741000D01*
X158558000Y-141701000D02*
X159741999Y-141701000D01*
X158582000Y-141661000D02*
X159742000Y-141661000D01*
X158607000Y-141621000D02*
X159742000Y-141621000D01*
X158633000Y-141581000D02*
X159742000Y-141581000D01*
X158660000Y-141541000D02*
X159742000Y-141540999D01*
X158687000Y-141501000D02*
X159742000Y-141501000D01*
X158717000Y-141461000D02*
X159742000Y-141461000D01*
X158747000Y-141421000D02*
X159742000Y-141421001D01*
X158778000Y-141381000D02*
X159742000Y-141381000D01*
X158811001Y-141341000D02*
X159742000Y-141341000D01*
X158845000Y-141301000D02*
X159742000Y-141301000D01*
X158881000Y-141260999D02*
X159741999Y-141261000D01*
X158918000Y-141221000D02*
X159742000Y-141221000D01*
X158956000Y-141181000D02*
X159742000Y-141181000D01*
X158997000Y-141141000D02*
X159742000Y-141141000D01*
X159038999Y-141101000D02*
X159742000Y-141100999D01*
X159057000Y-145576775D02*
X159557000Y-145576775D01*
X159083000Y-141061001D02*
X159742000Y-141061000D01*
X159129000Y-141020999D02*
X159742000Y-141021000D01*
X159177000Y-140981000D02*
X159742000Y-140981001D01*
X159228000Y-140941000D02*
X159742000Y-140941000D01*
X159282000Y-140901000D02*
X159742000Y-140901000D01*
X159307000Y-145826774D02*
X159307000Y-145326775D01*
X159339000Y-140861000D02*
X159742000Y-140861000D01*
X159399000Y-140821000D02*
X159741999Y-140821000D01*
X159463000Y-140781000D02*
X159742000Y-140781000D01*
X159530999Y-140741000D02*
X159742000Y-140741000D01*
X159604000Y-140701000D02*
X161960000Y-140701000D01*
X159684000Y-140661000D02*
X161880000Y-140661000D01*
X159771000Y-140621000D02*
X161793000Y-140621000D01*
X159867000Y-140581000D02*
X161697000Y-140581000D01*
X159977000Y-140541001D02*
X161587000Y-140541001D01*
X160105000Y-140501000D02*
X161459000Y-140501000D01*
X160264000Y-140461000D02*
X161300000Y-140461000D01*
X160498000Y-140421000D02*
X161066000Y-140421000D01*
X161822000Y-140741000D02*
X162033001Y-140741000D01*
X161822000Y-140781000D02*
X162101000Y-140781000D01*
X161822000Y-140861000D02*
X162225000Y-140861000D01*
X161822000Y-140901000D02*
X162282000Y-140901000D01*
X161822000Y-140941000D02*
X162336000Y-140941000D01*
X161822000Y-140981001D02*
X162387000Y-140981000D01*
X161822000Y-141021000D02*
X162435000Y-141020999D01*
X161822000Y-141061000D02*
X162481000Y-141061001D01*
X161822000Y-141100999D02*
X162525001Y-141101000D01*
X161822000Y-141141000D02*
X162567000Y-141141000D01*
X161822000Y-141181000D02*
X162608000Y-141181000D01*
X161822000Y-141221000D02*
X162646000Y-141221000D01*
X161822000Y-141301000D02*
X162719000Y-141301000D01*
X161822000Y-141341000D02*
X162752999Y-141341000D01*
X161822000Y-141381000D02*
X162786000Y-141381000D01*
X161822000Y-141421001D02*
X162817000Y-141421000D01*
X161822000Y-141461000D02*
X162847000Y-141461000D01*
X161822000Y-141501000D02*
X162877000Y-141501000D01*
X161822000Y-141540999D02*
X162904000Y-141541000D01*
X161822000Y-141581000D02*
X162931000Y-141581000D01*
X161822000Y-141621000D02*
X162957000Y-141621000D01*
X161822000Y-141661000D02*
X162982000Y-141661000D01*
X161822000Y-141741000D02*
X163029000Y-141741000D01*
X161822000Y-141781000D02*
X163050000Y-141781000D01*
X161822000Y-141821000D02*
X163072000Y-141821000D01*
X161822000Y-141901000D02*
X163111000Y-141901000D01*
X161822000Y-141941000D02*
X163130000Y-141941000D01*
X161822000Y-141980999D02*
X163147000Y-141981000D01*
X161822000Y-142021001D02*
X163164000Y-142021000D01*
X161822000Y-142061000D02*
X163180000Y-142061000D01*
X161822000Y-142101000D02*
X163196000Y-142101000D01*
X161822000Y-142181000D02*
X163224000Y-142181000D01*
X161822000Y-142221000D02*
X163237000Y-142221000D01*
X161822000Y-142261000D02*
X163250000Y-142261000D01*
X161822000Y-142342000D02*
X163273000Y-142342000D01*
X161822000Y-142382000D02*
X163283000Y-142382000D01*
X161822000Y-142462000D02*
X163302000Y-142462000D01*
X161822000Y-142502000D02*
X163310000Y-142502000D01*
X161822000Y-142542000D02*
X163318000Y-142542000D01*
X161822000Y-142622000D02*
X163332000Y-142622000D01*
X161822000Y-142662000D02*
X163338000Y-142662000D01*
X161822000Y-142702000D02*
X163343000Y-142702000D01*
X161822000Y-142742001D02*
X163347000Y-142742001D01*
X161822000Y-142782000D02*
X163351000Y-142782000D01*
X161822001Y-140821000D02*
X162165000Y-140821000D01*
X161822001Y-141261000D02*
X162683000Y-141260999D01*
X161822001Y-141701000D02*
X163006000Y-141701000D01*
X161822001Y-141861000D02*
X163092000Y-141861000D01*
X161822001Y-142141000D02*
X163210000Y-142141000D01*
X161822001Y-142301000D02*
X163262000Y-142301000D01*
X161822001Y-142422000D02*
X163293001Y-142422000D01*
X161822001Y-142582000D02*
X163325000Y-142582000D01*
X163402001Y-143022001D02*
G75*
G02*
X158161999Y-143022001I-2620001J0D01*
G01*
X158161999Y-143022001D02*
G75*
G02*
X163402001Y-143022001I2620001J0D01*
G01*
%TO.C,D2*%
X147568975Y-61586958D02*
X149152894Y-63170877D01*
X147901315Y-62838537D02*
X148360934Y-62378918D01*
X147993239Y-61162694D02*
X149577158Y-62746613D01*
X148078092Y-61077841D02*
X149662011Y-62661760D01*
X148162945Y-60992988D02*
X149746864Y-62576907D01*
X149152894Y-63170877D02*
X152151027Y-60172744D01*
X150567108Y-58588825D02*
X147568975Y-61586958D01*
X151818687Y-58921165D02*
X151359067Y-59380785D01*
X152151027Y-60172744D02*
X150567108Y-58588825D01*
%TO.C,R3*%
X141753025Y-60017503D02*
X141986370Y-60250848D01*
X143690497Y-61954975D02*
X143457152Y-61721630D01*
X146377503Y-55393024D02*
X141753025Y-60017503D01*
X146610848Y-55626370D02*
X146377503Y-55393024D01*
X148081630Y-57097152D02*
X148314976Y-57330497D01*
X148314976Y-57330497D02*
X143690497Y-61954975D01*
%TO.C,C6*%
X181646070Y-142863520D02*
X181496870Y-142714320D01*
X181674354Y-142835236D02*
X181477071Y-142637953D01*
X181702638Y-142806951D02*
X181460101Y-142564414D01*
X181730923Y-142778667D02*
X181445959Y-142493703D01*
X181759207Y-142750383D02*
X181433938Y-142425114D01*
X181787491Y-142722099D02*
X181424038Y-142358646D01*
X181815776Y-142693814D02*
X181416260Y-142294299D01*
X181844060Y-142665530D02*
X181410603Y-142232074D01*
X181872344Y-142637246D02*
X181406361Y-142171262D01*
X181900628Y-142608962D02*
X181403532Y-142111865D01*
X181928913Y-142580677D02*
X181402118Y-142053883D01*
X181957197Y-142552393D02*
X181401411Y-141996607D01*
X181985481Y-142524109D02*
X181402825Y-141941453D01*
X182013765Y-142495824D02*
X181404946Y-141887006D01*
X182042050Y-142467540D02*
X181407775Y-141833265D01*
X182070334Y-142439256D02*
X181412018Y-141780940D01*
X182098618Y-142410972D02*
X181416967Y-141729321D01*
X182126903Y-142382687D02*
X181423331Y-141679116D01*
X182155187Y-142354403D02*
X181430402Y-141629619D01*
X182183471Y-142326119D02*
X181437473Y-141580121D01*
X182211755Y-142297835D02*
X181446666Y-141532745D01*
X182240040Y-142269550D02*
X181455858Y-141485369D01*
X182268324Y-142241266D02*
X181465758Y-141438700D01*
X182296608Y-142212982D02*
X181476364Y-141392738D01*
X182324892Y-142184697D02*
X181487678Y-141347483D01*
X182353177Y-142156413D02*
X181499699Y-141302935D01*
X182356005Y-144026004D02*
X181954368Y-143624367D01*
X182381461Y-142128129D02*
X181513134Y-141259802D01*
X182409745Y-142099845D02*
X181525862Y-141215961D01*
X182438029Y-142071560D02*
X181540004Y-141173535D01*
X182466314Y-142043276D02*
X181554853Y-141131815D01*
X182494598Y-142014992D02*
X181569702Y-141090096D01*
X182522882Y-141986708D02*
X181585966Y-141049791D01*
X182549752Y-144163182D02*
X181817190Y-143430620D01*
X182551167Y-141958423D02*
X181602229Y-141009486D01*
X182579451Y-141930139D02*
X181619200Y-140969888D01*
X182607735Y-141901855D02*
X181636170Y-140930290D01*
X182636019Y-141873570D02*
X181654555Y-140892106D01*
X182664304Y-141845286D02*
X181672940Y-140853923D01*
X182690467Y-144247328D02*
X181733044Y-143289905D01*
X182692588Y-141817002D02*
X181692032Y-140816446D01*
X182720872Y-141788718D02*
X181711124Y-140778969D01*
X182749156Y-141760433D02*
X181730923Y-140742200D01*
X182778148Y-141731442D02*
X181752136Y-140705430D01*
X182806432Y-141703158D02*
X181773349Y-140670075D01*
X182809261Y-144309553D02*
X181670819Y-143171111D01*
X182834716Y-141674873D02*
X181794562Y-140634719D01*
X182863001Y-141646589D02*
X181816483Y-140600071D01*
X182891285Y-141618305D02*
X181839110Y-140566130D01*
X182915327Y-144359051D02*
X181621321Y-143065045D01*
X182919569Y-141590021D02*
X181861737Y-140532189D01*
X182947853Y-141561736D02*
X181885072Y-140498955D01*
X182976138Y-141533452D02*
X181908407Y-140465721D01*
X183004422Y-141505168D02*
X181932448Y-140433194D01*
X183011493Y-144398649D02*
X181581723Y-142968879D01*
X183032706Y-141476884D02*
X181957197Y-140401374D01*
X183060991Y-141448599D02*
X181982653Y-140370261D01*
X183089275Y-141420315D02*
X182008109Y-140339149D01*
X183101296Y-144431883D02*
X181548489Y-142879076D01*
X183186148Y-144460167D02*
X181520205Y-142794224D01*
X183266052Y-144483502D02*
X183116852Y-144334302D01*
X183342419Y-144503301D02*
X183145136Y-144306018D01*
X183415958Y-144520271D02*
X183173421Y-144277734D01*
X183486669Y-144534413D02*
X183201705Y-144249449D01*
X183555258Y-144546434D02*
X183229989Y-144221165D01*
X183621726Y-144556334D02*
X183258273Y-144192881D01*
X183686073Y-144564112D02*
X183286558Y-144164596D01*
X183748298Y-144569769D02*
X183314842Y-144136312D01*
X183809110Y-144574011D02*
X183343126Y-144108028D01*
X183868507Y-144576840D02*
X183371410Y-144079744D01*
X183926489Y-144578254D02*
X183399695Y-144051459D01*
X183983765Y-144578961D02*
X183427979Y-144023175D01*
X184038919Y-144577547D02*
X183456263Y-143994891D01*
X184093366Y-144575426D02*
X183484548Y-143966607D01*
X184147107Y-144572597D02*
X183512832Y-143938322D01*
X184199432Y-144568354D02*
X183541116Y-143910038D01*
X184251051Y-144563405D02*
X183569400Y-143881754D01*
X184301256Y-144557041D02*
X183597685Y-143853469D01*
X184350753Y-144549970D02*
X183625969Y-143825185D01*
X184400251Y-144542899D02*
X183654253Y-143796901D01*
X184447627Y-144533706D02*
X183682537Y-143768617D01*
X184495003Y-144524514D02*
X183710822Y-143740332D01*
X184541672Y-144514614D02*
X183739106Y-143712048D01*
X184587634Y-144504008D02*
X183767390Y-143683764D01*
X184632889Y-144492694D02*
X183795675Y-143655480D01*
X184677437Y-144480673D02*
X183823959Y-143627195D01*
X184720570Y-144467238D02*
X183852243Y-143598911D01*
X184764411Y-144454510D02*
X183880527Y-143570627D01*
X184806837Y-144440368D02*
X183908812Y-143542343D01*
X184848557Y-144425519D02*
X183937096Y-143514058D01*
X184890276Y-144410670D02*
X183965380Y-143485774D01*
X184930581Y-144394406D02*
X183993664Y-143457490D01*
X184970886Y-144378143D02*
X184021949Y-143429205D01*
X185010484Y-144361172D02*
X184050233Y-143400921D01*
X185050082Y-144344202D02*
X184078517Y-143372637D01*
X185088266Y-144325817D02*
X184106802Y-143344353D01*
X185126449Y-144307432D02*
X184135086Y-143316068D01*
X185163926Y-144288340D02*
X184163370Y-143287784D01*
X185201403Y-144269248D02*
X184191654Y-143259500D01*
X185238172Y-144249449D02*
X184219939Y-143231216D01*
X185274942Y-144228236D02*
X184248930Y-143202224D01*
X185310297Y-144207023D02*
X184277214Y-143173940D01*
X185345653Y-144185810D02*
X184305499Y-143145656D01*
X185380301Y-144163889D02*
X184333783Y-143117371D01*
X185414242Y-144141262D02*
X184362067Y-143089087D01*
X185448183Y-144118635D02*
X184390351Y-143060803D01*
X185481417Y-144095300D02*
X184418636Y-143032519D01*
X185514651Y-144071965D02*
X184446920Y-143004234D01*
X185547178Y-144047924D02*
X184475204Y-142975950D01*
X185578998Y-144023175D02*
X184503488Y-142947666D01*
X185610111Y-143997719D02*
X184531773Y-142919381D01*
X185641223Y-143972263D02*
X184560057Y-142891097D01*
X185672336Y-143946808D02*
X182033564Y-140308036D01*
X185702742Y-143920645D02*
X182059727Y-140277630D01*
X185732440Y-143893775D02*
X182086597Y-140247932D01*
X185761431Y-143866197D02*
X182114175Y-140218941D01*
X185790423Y-143838620D02*
X182141752Y-140189949D01*
X185818707Y-143810336D02*
X182170036Y-140161665D01*
X187020629Y-141045708D02*
X186667076Y-141399261D01*
X187020629Y-141399261D02*
X186667076Y-141045708D01*
X186614372Y-141986000D02*
G75*
G02*
X181374372Y-141986000I-2620000J0D01*
G01*
X181374372Y-141986000D02*
G75*
G02*
X186614372Y-141986000I2620000J0D01*
G01*
%TD*%
M02*
