M48
; DRILL file {KiCad 8.0.5} date 2024-12-03T18:07:42+0100
; FORMAT={-:-/ absolute / metric / decimal}
; #@! TF.CreationDate,2024-12-03T18:07:42+01:00
; #@! TF.GenerationSoftware,Kicad,Pcbnew,8.0.5
; #@! TF.FileFunction,Plated,1,2,PTH
FMAT,2
METRIC
; #@! TA.AperFunction,Plated,PTH,ComponentDrill
T1C0.300
; #@! TA.AperFunction,Plated,PTH,ViaDrill
T2C0.400
; #@! TA.AperFunction,Plated,PTH,ComponentDrill
T3C0.500
; #@! TA.AperFunction,Plated,PTH,ComponentDrill
T4C0.800
; #@! TA.AperFunction,Plated,PTH,ComponentDrill
T5C1.000
; #@! TA.AperFunction,Plated,PTH,ComponentDrill
T6C1.100
; #@! TA.AperFunction,Plated,PTH,ComponentDrill
T7C1.200
; #@! TA.AperFunction,Plated,PTH,ComponentDrill
T8C5.000
%
G90
G05
T1
X126.649Y-133.096
X126.649Y-134.366
X126.649Y-135.636
X126.649Y-136.906
X126.649Y-138.176
X126.649Y-139.446
X126.649Y-140.716
X126.87Y-55.526
X126.87Y-56.796
X126.87Y-58.066
X126.87Y-59.336
X126.87Y-60.606
X126.87Y-61.876
X126.87Y-63.146
X126.903Y-87.115
X126.903Y-88.385
X126.903Y-89.655
X126.903Y-90.925
X126.903Y-92.195
X126.903Y-93.465
X126.903Y-94.735
X126.903Y-102.355
X126.903Y-103.625
X126.903Y-104.895
X126.903Y-106.165
X126.903Y-107.435
X126.903Y-108.705
X126.903Y-109.975
X126.903Y-116.586
X126.903Y-117.856
X126.903Y-119.126
X126.903Y-120.396
X126.903Y-121.666
X126.903Y-122.936
X126.903Y-124.206
X127.0Y-72.39
X127.0Y-73.66
X127.0Y-74.93
X127.0Y-76.2
X127.0Y-77.47
X127.0Y-78.74
X127.0Y-80.01
X127.919Y-136.906
X127.919Y-133.096
X127.919Y-134.366
X127.919Y-135.636
X127.919Y-138.176
X127.919Y-139.446
X127.919Y-140.716
X128.14Y-59.336
X128.141Y-55.526
X128.141Y-56.796
X128.141Y-58.066
X128.141Y-60.606
X128.141Y-61.876
X128.141Y-63.146
X128.173Y-90.925
X128.173Y-87.115
X128.173Y-88.385
X128.173Y-89.655
X128.173Y-92.195
X128.173Y-93.465
X128.173Y-94.735
X128.173Y-106.165
X128.173Y-120.396
X128.173Y-102.355
X128.173Y-103.625
X128.173Y-104.895
X128.173Y-107.435
X128.173Y-108.705
X128.173Y-109.975
X128.173Y-116.586
X128.173Y-117.856
X128.173Y-119.126
X128.173Y-121.666
X128.173Y-122.936
X128.173Y-124.206
X128.27Y-76.2
X128.27Y-72.39
X128.27Y-73.66
X128.27Y-74.93
X128.27Y-77.47
X128.27Y-78.74
X128.27Y-80.01
X129.189Y-133.096
X129.189Y-134.366
X129.189Y-135.636
X129.189Y-136.906
X129.189Y-138.176
X129.189Y-139.446
X129.189Y-140.716
X129.41Y-55.526
X129.41Y-56.796
X129.41Y-58.066
X129.41Y-59.336
X129.41Y-60.606
X129.41Y-61.876
X129.41Y-63.146
X129.443Y-87.115
X129.443Y-88.385
X129.443Y-89.655
X129.443Y-90.925
X129.443Y-92.195
X129.443Y-93.465
X129.443Y-94.735
X129.443Y-102.355
X129.443Y-103.625
X129.443Y-104.895
X129.443Y-106.165
X129.443Y-107.435
X129.443Y-108.705
X129.443Y-109.975
X129.443Y-116.586
X129.443Y-117.856
X129.443Y-119.126
X129.443Y-120.396
X129.443Y-121.666
X129.443Y-122.936
X129.443Y-124.206
X129.54Y-72.39
X129.54Y-73.66
X129.54Y-74.93
X129.54Y-76.2
X129.54Y-77.47
X129.54Y-78.74
X129.54Y-80.01
X130.459Y-133.096
X130.459Y-134.366
X130.459Y-135.636
X130.459Y-138.176
X130.459Y-139.446
X130.459Y-140.716
X130.459Y-136.906
X130.68Y-55.526
X130.68Y-56.796
X130.68Y-58.066
X130.68Y-60.606
X130.68Y-61.876
X130.68Y-63.146
X130.681Y-59.336
X130.713Y-87.115
X130.713Y-88.385
X130.713Y-89.655
X130.713Y-92.195
X130.713Y-93.465
X130.713Y-94.735
X130.713Y-90.925
X130.713Y-102.355
X130.713Y-103.625
X130.713Y-104.895
X130.713Y-107.435
X130.713Y-108.705
X130.713Y-109.975
X130.713Y-116.586
X130.713Y-117.856
X130.713Y-119.126
X130.713Y-121.666
X130.713Y-122.936
X130.713Y-124.206
X130.713Y-106.165
X130.713Y-120.396
X130.81Y-72.39
X130.81Y-73.66
X130.81Y-74.93
X130.81Y-77.47
X130.81Y-78.74
X130.81Y-80.01
X130.81Y-76.2
X131.729Y-132.588
X131.729Y-134.366
X131.729Y-139.446
X131.729Y-141.224
X131.951Y-55.018
X131.951Y-56.796
X131.951Y-61.876
X131.951Y-63.654
X131.983Y-86.607
X131.983Y-88.385
X131.983Y-93.465
X131.983Y-95.243
X131.983Y-101.847
X131.983Y-103.625
X131.983Y-108.705
X131.983Y-110.483
X131.983Y-116.078
X131.983Y-117.856
X131.983Y-122.936
X131.983Y-124.714
X132.08Y-71.882
X132.08Y-73.66
X132.08Y-78.74
X132.08Y-80.518
X132.999Y-132.588
X132.999Y-134.366
X132.999Y-139.446
X132.999Y-141.224
X133.22Y-55.018
X133.22Y-56.796
X133.22Y-61.876
X133.22Y-63.654
X133.253Y-86.607
X133.253Y-88.385
X133.253Y-93.465
X133.253Y-95.243
X133.253Y-101.847
X133.253Y-103.625
X133.253Y-108.705
X133.253Y-110.483
X133.253Y-116.078
X133.253Y-117.856
X133.253Y-122.936
X133.253Y-124.714
X133.35Y-71.882
X133.35Y-73.66
X133.35Y-78.74
X133.35Y-80.518
X134.269Y-136.906
X134.269Y-135.636
X134.269Y-138.176
X134.49Y-59.336
X134.49Y-58.066
X134.49Y-60.606
X134.523Y-90.925
X134.523Y-89.655
X134.523Y-92.195
X134.523Y-106.165
X134.523Y-120.396
X134.523Y-104.895
X134.523Y-107.435
X134.523Y-119.126
X134.523Y-121.666
X134.523Y-133.096
X134.523Y-134.366
X134.523Y-139.446
X134.523Y-140.716
X134.62Y-76.2
X134.62Y-74.93
X134.62Y-77.47
X134.744Y-55.526
X134.744Y-56.796
X134.744Y-61.876
X134.744Y-63.146
X134.777Y-87.115
X134.777Y-88.385
X134.777Y-93.465
X134.777Y-94.735
X134.777Y-102.355
X134.777Y-103.625
X134.777Y-108.705
X134.777Y-109.975
X134.777Y-116.586
X134.777Y-117.856
X134.777Y-122.936
X134.777Y-124.206
X134.874Y-72.39
X134.874Y-73.66
X134.874Y-78.74
X134.874Y-80.01
X135.793Y-133.096
X135.793Y-134.366
X135.793Y-139.446
X135.793Y-140.716
X136.014Y-55.526
X136.014Y-56.796
X136.014Y-61.876
X136.014Y-63.146
X136.047Y-87.115
X136.047Y-88.385
X136.047Y-93.465
X136.047Y-94.735
X136.047Y-102.355
X136.047Y-103.625
X136.047Y-108.705
X136.047Y-109.975
X136.047Y-116.586
X136.047Y-117.856
X136.047Y-122.936
X136.047Y-124.206
X136.144Y-72.39
X136.144Y-73.66
X136.144Y-78.74
X136.144Y-80.01
X137.063Y-133.096
X137.063Y-134.366
X137.063Y-139.446
X137.063Y-140.716
X137.284Y-55.526
X137.284Y-56.796
X137.284Y-61.876
X137.284Y-63.146
X137.317Y-87.115
X137.317Y-88.385
X137.317Y-93.465
X137.317Y-94.735
X137.317Y-102.355
X137.317Y-103.625
X137.317Y-108.705
X137.317Y-109.975
X137.317Y-116.586
X137.317Y-117.856
X137.317Y-122.936
X137.317Y-124.206
X137.414Y-72.39
X137.414Y-73.66
X137.414Y-78.74
X137.414Y-80.01
X138.333Y-133.096
X138.333Y-134.366
X138.333Y-139.446
X138.333Y-140.716
X138.554Y-55.526
X138.554Y-56.796
X138.554Y-61.876
X138.554Y-63.146
X138.587Y-87.115
X138.587Y-88.385
X138.587Y-93.465
X138.587Y-94.735
X138.587Y-102.355
X138.587Y-103.625
X138.587Y-108.705
X138.587Y-109.975
X138.587Y-116.586
X138.587Y-117.856
X138.587Y-122.936
X138.587Y-124.206
X138.684Y-72.39
X138.684Y-73.66
X138.684Y-78.74
X138.684Y-80.01
X138.841Y-135.636
X138.841Y-136.906
X138.841Y-138.176
X139.062Y-58.066
X139.062Y-59.336
X139.062Y-60.606
X139.095Y-89.655
X139.095Y-90.925
X139.095Y-92.195
X139.095Y-104.895
X139.095Y-106.165
X139.095Y-107.435
X139.095Y-119.126
X139.095Y-120.396
X139.095Y-121.666
X139.192Y-74.93
X139.192Y-76.2
X139.192Y-77.47
X190.403Y-129.279
X190.403Y-130.549
X190.403Y-131.819
X190.403Y-133.089
X190.403Y-134.359
X190.403Y-135.629
X190.403Y-136.899
X191.673Y-133.089
X191.673Y-129.279
X191.673Y-130.549
X191.673Y-131.819
X191.673Y-134.359
X191.673Y-135.629
X191.673Y-136.899
X192.943Y-129.279
X192.943Y-130.549
X192.943Y-131.819
X192.943Y-133.089
X192.943Y-134.359
X192.943Y-135.629
X192.943Y-136.899
X194.213Y-129.279
X194.213Y-130.549
X194.213Y-131.819
X194.213Y-134.359
X194.213Y-135.629
X194.213Y-136.899
X194.213Y-133.089
X195.483Y-128.771
X195.483Y-130.549
X195.483Y-135.629
X195.483Y-137.407
X196.753Y-128.771
X196.753Y-130.549
X196.753Y-135.629
X196.753Y-137.407
X198.023Y-133.089
X198.023Y-131.819
X198.023Y-134.359
X198.277Y-129.279
X198.277Y-130.549
X198.277Y-135.629
X198.277Y-136.899
X199.547Y-129.279
X199.547Y-130.549
X199.547Y-135.629
X199.547Y-136.899
X200.817Y-129.279
X200.817Y-130.549
X200.817Y-135.629
X200.817Y-136.899
X202.087Y-129.279
X202.087Y-130.549
X202.087Y-135.629
X202.087Y-136.899
X202.595Y-131.819
X202.595Y-133.089
X202.595Y-134.359
T2
X159.004Y-107.696
X159.004Y-112.014
X159.004Y-116.078
X160.274Y-97.536
X162.306Y-78.994
X162.44Y-99.433
X166.116Y-112.014
X166.116Y-115.57
X172.72Y-98.801
X177.292Y-119.888
X177.419Y-132.461
X177.546Y-107.95
X177.546Y-125.476
X177.546Y-128.016
X178.054Y-120.65
X180.34Y-95.25
X182.88Y-109.474
T3
X145.796Y-109.982
T4
X141.732Y-86.868
X142.24Y-121.666
X142.34Y-61.368
X142.494Y-129.286
X142.494Y-136.906
X143.256Y-98.806
X143.256Y-106.426
X143.764Y-67.564
X143.764Y-75.184
X145.288Y-139.7
X145.796Y-125.751
X146.558Y-103.886
X147.166Y-63.574
X147.628Y-116.278
X147.674Y-95.15
X147.728Y-55.98
X148.859Y-129.286
X149.352Y-71.374
X149.352Y-78.994
X149.352Y-86.868
X149.616Y-98.796
X149.771Y-67.564
X151.184Y-120.363
X152.395Y-125.751
X152.554Y-58.186
X152.908Y-139.7
X153.062Y-89.762
X153.152Y-95.26
X153.307Y-64.028
X154.178Y-103.886
X156.718Y-57.404
X156.718Y-59.944
X156.718Y-62.484
X156.718Y-65.024
X156.718Y-67.564
X156.718Y-70.104
X156.718Y-72.644
X156.718Y-119.128
X156.718Y-121.668
X156.718Y-124.208
X156.718Y-126.748
X156.718Y-129.288
X156.718Y-131.828
X156.718Y-134.368
X156.728Y-88.641
X156.728Y-91.181
X156.728Y-93.721
X156.728Y-96.261
X156.728Y-98.801
X156.728Y-101.341
X156.728Y-103.881
X160.782Y-141.772
X160.782Y-144.272
X164.084Y-81.255
X164.084Y-83.755
X164.338Y-57.404
X164.338Y-59.944
X164.338Y-62.484
X164.338Y-65.024
X164.338Y-67.564
X164.338Y-70.104
X164.338Y-72.644
X164.338Y-119.128
X164.338Y-121.668
X164.338Y-124.208
X164.338Y-126.748
X164.338Y-129.288
X164.338Y-131.828
X164.338Y-134.368
X164.348Y-88.641
X164.348Y-91.181
X164.348Y-93.721
X164.348Y-96.261
X164.348Y-98.801
X164.348Y-101.341
X164.348Y-103.881
X168.148Y-118.364
X168.148Y-125.984
X169.164Y-92.685
X169.164Y-95.185
X172.188Y-69.21
X172.212Y-118.518
X172.212Y-122.936
X172.212Y-128.016
X172.984Y-76.952
X173.514Y-103.124
X173.956Y-67.442
X174.752Y-75.184
X175.514Y-103.124
X177.6Y-113.13
X178.284Y-137.912
X179.488Y-79.158
X179.688Y-65.896
X179.832Y-122.936
X179.832Y-128.016
X180.052Y-136.144
X180.218Y-72.522
X180.34Y-98.552
X180.34Y-106.172
X181.102Y-67.31
X181.256Y-80.926
X181.864Y-111.252
X181.864Y-118.872
X181.986Y-74.29
X183.11Y-142.87
X184.878Y-141.102
T5
X179.07Y-85.852
X179.07Y-88.392
X179.07Y-90.932
X185.928Y-83.566
X185.928Y-86.106
X185.928Y-88.646
X185.928Y-91.186
X185.928Y-93.726
X185.928Y-96.266
X185.928Y-98.806
X185.928Y-101.346
X185.928Y-103.886
X185.928Y-106.426
X185.928Y-108.966
X185.928Y-111.506
X185.928Y-114.046
X185.928Y-116.586
X185.928Y-119.126
X201.168Y-83.566
X201.168Y-86.106
X201.168Y-88.646
X201.168Y-91.186
X201.168Y-93.726
X201.168Y-96.266
X201.168Y-98.806
X201.168Y-101.346
X201.168Y-103.886
X201.168Y-106.426
X201.168Y-108.966
X201.168Y-111.506
X201.168Y-114.046
X201.168Y-116.586
X201.168Y-119.126
T6
X119.888Y-134.373
X119.888Y-136.913
X119.888Y-139.453
X120.11Y-56.803
X120.11Y-59.343
X120.11Y-61.883
X120.142Y-88.392
X120.142Y-90.932
X120.142Y-93.472
X120.142Y-103.632
X120.142Y-117.863
X120.142Y-106.172
X120.142Y-108.712
X120.142Y-120.403
X120.142Y-122.943
X120.239Y-73.667
X120.239Y-76.207
X120.239Y-78.747
X150.114Y-109.982
X152.654Y-109.982
X155.194Y-109.982
X183.642Y-130.556
X183.642Y-133.096
X183.642Y-135.636
T7
X174.731Y-57.15
X179.731Y-57.15
T8
X110.744Y-67.818
X110.744Y-98.806
X110.744Y-129.286
X189.738Y-60.452
X189.738Y-73.152
M30
