%TF.GenerationSoftware,KiCad,Pcbnew,8.0.5*%
%TF.CreationDate,2024-12-03T17:15:42+01:00*%
%TF.ProjectId,ESC_drivers 1.4,4553435f-6472-4697-9665-727320312e34,rev?*%
%TF.SameCoordinates,Original*%
%TF.FileFunction,Drillmap*%
%TF.FilePolarity,Positive*%
%FSLAX45Y45*%
G04 Gerber Fmt 4.5, Leading zero omitted, Abs format (unit mm)*
G04 Created by KiCad (PCBNEW 8.0.5) date 2024-12-03 17:15:42*
%MOMM*%
%LPD*%
G01*
G04 APERTURE LIST*
%ADD10C,0.200000*%
%ADD11C,0.010050*%
%ADD12C,0.350000*%
G04 APERTURE END LIST*
D10*
X20374800Y-14630400D02*
G75*
G02*
X20054800Y-14630400I-160000J0D01*
G01*
X20054800Y-14630400D02*
G75*
G02*
X20374800Y-14630400I160000J0D01*
G01*
X10714800Y-14880400D02*
G75*
G02*
X10464800Y-14630400I0J250000D01*
G01*
X20464800Y-5130400D02*
X20464800Y-14630400D01*
X10714800Y-4880400D02*
X20214800Y-4880400D01*
X10874800Y-14630400D02*
G75*
G02*
X10554800Y-14630400I-160000J0D01*
G01*
X10554800Y-14630400D02*
G75*
G02*
X10874800Y-14630400I160000J0D01*
G01*
X10464800Y-5130400D02*
G75*
G02*
X10714800Y-4880400I250000J0D01*
G01*
X10464800Y-14630400D02*
X10464800Y-5130400D01*
X20464800Y-14630400D02*
G75*
G02*
X20214800Y-14880400I-250000J0D01*
G01*
X20214800Y-14880400D02*
X10714800Y-14880400D01*
X20214800Y-4880400D02*
G75*
G02*
X20464800Y-5130400I0J-250000D01*
G01*
X20374800Y-5130400D02*
G75*
G02*
X20054800Y-5130400I-160000J0D01*
G01*
X20054800Y-5130400D02*
G75*
G02*
X20374800Y-5130400I160000J0D01*
G01*
D11*
X14965302Y-9380400D02*
G75*
G02*
X14964297Y-9380400I-503J0D01*
G01*
X14964297Y-9380400D02*
G75*
G02*
X14965302Y-9380400I503J0D01*
G01*
D10*
X10874800Y-5130400D02*
G75*
G02*
X10554800Y-5130400I-160000J0D01*
G01*
X10554800Y-5130400D02*
G75*
G02*
X10874800Y-5130400I160000J0D01*
G01*
D12*
X13479800Y-13515600D02*
X13829800Y-13865600D01*
X13829800Y-13515600D02*
X13479800Y-13865600D01*
X13501955Y-5758608D02*
X13851955Y-6108608D01*
X13851955Y-5758608D02*
X13501955Y-6108608D01*
X13505200Y-8917549D02*
X13855200Y-9267549D01*
X13855200Y-8917549D02*
X13505200Y-9267549D01*
X13505200Y-10441549D02*
X13855200Y-10791549D01*
X13855200Y-10441549D02*
X13505200Y-10791549D01*
X13505200Y-11864600D02*
X13855200Y-12214600D01*
X13855200Y-11864600D02*
X13505200Y-12214600D01*
X13514905Y-7445000D02*
X13864905Y-7795000D01*
X13864905Y-7445000D02*
X13514905Y-7795000D01*
X19855200Y-13133949D02*
X20205200Y-13483949D01*
X20205200Y-13133949D02*
X19855200Y-13483949D01*
D10*
X10715577Y-15201884D02*
X10715577Y-15001884D01*
X10715577Y-15001884D02*
X10763196Y-15001884D01*
X10763196Y-15001884D02*
X10791767Y-15011408D01*
X10791767Y-15011408D02*
X10810815Y-15030455D01*
X10810815Y-15030455D02*
X10820339Y-15049503D01*
X10820339Y-15049503D02*
X10829863Y-15087598D01*
X10829863Y-15087598D02*
X10829863Y-15116170D01*
X10829863Y-15116170D02*
X10820339Y-15154265D01*
X10820339Y-15154265D02*
X10810815Y-15173312D01*
X10810815Y-15173312D02*
X10791767Y-15192360D01*
X10791767Y-15192360D02*
X10763196Y-15201884D01*
X10763196Y-15201884D02*
X10715577Y-15201884D01*
X10915577Y-15201884D02*
X10915577Y-15068550D01*
X10915577Y-15106646D02*
X10925101Y-15087598D01*
X10925101Y-15087598D02*
X10934624Y-15078074D01*
X10934624Y-15078074D02*
X10953672Y-15068550D01*
X10953672Y-15068550D02*
X10972720Y-15068550D01*
X11039386Y-15201884D02*
X11039386Y-15068550D01*
X11039386Y-15001884D02*
X11029863Y-15011408D01*
X11029863Y-15011408D02*
X11039386Y-15020931D01*
X11039386Y-15020931D02*
X11048910Y-15011408D01*
X11048910Y-15011408D02*
X11039386Y-15001884D01*
X11039386Y-15001884D02*
X11039386Y-15020931D01*
X11163196Y-15201884D02*
X11144148Y-15192360D01*
X11144148Y-15192360D02*
X11134624Y-15173312D01*
X11134624Y-15173312D02*
X11134624Y-15001884D01*
X11267958Y-15201884D02*
X11248910Y-15192360D01*
X11248910Y-15192360D02*
X11239386Y-15173312D01*
X11239386Y-15173312D02*
X11239386Y-15001884D01*
X11496529Y-15201884D02*
X11496529Y-15001884D01*
X11496529Y-15001884D02*
X11563196Y-15144741D01*
X11563196Y-15144741D02*
X11629862Y-15001884D01*
X11629862Y-15001884D02*
X11629862Y-15201884D01*
X11810815Y-15201884D02*
X11810815Y-15097122D01*
X11810815Y-15097122D02*
X11801291Y-15078074D01*
X11801291Y-15078074D02*
X11782243Y-15068550D01*
X11782243Y-15068550D02*
X11744148Y-15068550D01*
X11744148Y-15068550D02*
X11725101Y-15078074D01*
X11810815Y-15192360D02*
X11791767Y-15201884D01*
X11791767Y-15201884D02*
X11744148Y-15201884D01*
X11744148Y-15201884D02*
X11725101Y-15192360D01*
X11725101Y-15192360D02*
X11715577Y-15173312D01*
X11715577Y-15173312D02*
X11715577Y-15154265D01*
X11715577Y-15154265D02*
X11725101Y-15135217D01*
X11725101Y-15135217D02*
X11744148Y-15125693D01*
X11744148Y-15125693D02*
X11791767Y-15125693D01*
X11791767Y-15125693D02*
X11810815Y-15116170D01*
X11906053Y-15068550D02*
X11906053Y-15268550D01*
X11906053Y-15078074D02*
X11925101Y-15068550D01*
X11925101Y-15068550D02*
X11963196Y-15068550D01*
X11963196Y-15068550D02*
X11982243Y-15078074D01*
X11982243Y-15078074D02*
X11991767Y-15087598D01*
X11991767Y-15087598D02*
X12001291Y-15106646D01*
X12001291Y-15106646D02*
X12001291Y-15163789D01*
X12001291Y-15163789D02*
X11991767Y-15182836D01*
X11991767Y-15182836D02*
X11982243Y-15192360D01*
X11982243Y-15192360D02*
X11963196Y-15201884D01*
X11963196Y-15201884D02*
X11925101Y-15201884D01*
X11925101Y-15201884D02*
X11906053Y-15192360D01*
X12087005Y-15182836D02*
X12096529Y-15192360D01*
X12096529Y-15192360D02*
X12087005Y-15201884D01*
X12087005Y-15201884D02*
X12077482Y-15192360D01*
X12077482Y-15192360D02*
X12087005Y-15182836D01*
X12087005Y-15182836D02*
X12087005Y-15201884D01*
X12087005Y-15078074D02*
X12096529Y-15087598D01*
X12096529Y-15087598D02*
X12087005Y-15097122D01*
X12087005Y-15097122D02*
X12077482Y-15087598D01*
X12077482Y-15087598D02*
X12087005Y-15078074D01*
X12087005Y-15078074D02*
X12087005Y-15097122D01*
X10254800Y-15430400D02*
X10454800Y-15630400D01*
X10454800Y-15430400D02*
X10254800Y-15630400D01*
X10696529Y-15421884D02*
X10820339Y-15421884D01*
X10820339Y-15421884D02*
X10753672Y-15498074D01*
X10753672Y-15498074D02*
X10782244Y-15498074D01*
X10782244Y-15498074D02*
X10801291Y-15507598D01*
X10801291Y-15507598D02*
X10810815Y-15517122D01*
X10810815Y-15517122D02*
X10820339Y-15536170D01*
X10820339Y-15536170D02*
X10820339Y-15583789D01*
X10820339Y-15583789D02*
X10810815Y-15602836D01*
X10810815Y-15602836D02*
X10801291Y-15612360D01*
X10801291Y-15612360D02*
X10782244Y-15621884D01*
X10782244Y-15621884D02*
X10725101Y-15621884D01*
X10725101Y-15621884D02*
X10706053Y-15612360D01*
X10706053Y-15612360D02*
X10696529Y-15602836D01*
X10906053Y-15602836D02*
X10915577Y-15612360D01*
X10915577Y-15612360D02*
X10906053Y-15621884D01*
X10906053Y-15621884D02*
X10896529Y-15612360D01*
X10896529Y-15612360D02*
X10906053Y-15602836D01*
X10906053Y-15602836D02*
X10906053Y-15621884D01*
X11096529Y-15421884D02*
X11001291Y-15421884D01*
X11001291Y-15421884D02*
X10991767Y-15517122D01*
X10991767Y-15517122D02*
X11001291Y-15507598D01*
X11001291Y-15507598D02*
X11020339Y-15498074D01*
X11020339Y-15498074D02*
X11067958Y-15498074D01*
X11067958Y-15498074D02*
X11087005Y-15507598D01*
X11087005Y-15507598D02*
X11096529Y-15517122D01*
X11096529Y-15517122D02*
X11106053Y-15536170D01*
X11106053Y-15536170D02*
X11106053Y-15583789D01*
X11106053Y-15583789D02*
X11096529Y-15602836D01*
X11096529Y-15602836D02*
X11087005Y-15612360D01*
X11087005Y-15612360D02*
X11067958Y-15621884D01*
X11067958Y-15621884D02*
X11020339Y-15621884D01*
X11020339Y-15621884D02*
X11001291Y-15612360D01*
X11001291Y-15612360D02*
X10991767Y-15602836D01*
X11229862Y-15421884D02*
X11248910Y-15421884D01*
X11248910Y-15421884D02*
X11267958Y-15431408D01*
X11267958Y-15431408D02*
X11277482Y-15440931D01*
X11277482Y-15440931D02*
X11287005Y-15459979D01*
X11287005Y-15459979D02*
X11296529Y-15498074D01*
X11296529Y-15498074D02*
X11296529Y-15545693D01*
X11296529Y-15545693D02*
X11287005Y-15583789D01*
X11287005Y-15583789D02*
X11277482Y-15602836D01*
X11277482Y-15602836D02*
X11267958Y-15612360D01*
X11267958Y-15612360D02*
X11248910Y-15621884D01*
X11248910Y-15621884D02*
X11229862Y-15621884D01*
X11229862Y-15621884D02*
X11210815Y-15612360D01*
X11210815Y-15612360D02*
X11201291Y-15602836D01*
X11201291Y-15602836D02*
X11191767Y-15583789D01*
X11191767Y-15583789D02*
X11182244Y-15545693D01*
X11182244Y-15545693D02*
X11182244Y-15498074D01*
X11182244Y-15498074D02*
X11191767Y-15459979D01*
X11191767Y-15459979D02*
X11201291Y-15440931D01*
X11201291Y-15440931D02*
X11210815Y-15431408D01*
X11210815Y-15431408D02*
X11229862Y-15421884D01*
X11420339Y-15421884D02*
X11439386Y-15421884D01*
X11439386Y-15421884D02*
X11458434Y-15431408D01*
X11458434Y-15431408D02*
X11467958Y-15440931D01*
X11467958Y-15440931D02*
X11477482Y-15459979D01*
X11477482Y-15459979D02*
X11487005Y-15498074D01*
X11487005Y-15498074D02*
X11487005Y-15545693D01*
X11487005Y-15545693D02*
X11477482Y-15583789D01*
X11477482Y-15583789D02*
X11467958Y-15602836D01*
X11467958Y-15602836D02*
X11458434Y-15612360D01*
X11458434Y-15612360D02*
X11439386Y-15621884D01*
X11439386Y-15621884D02*
X11420339Y-15621884D01*
X11420339Y-15621884D02*
X11401291Y-15612360D01*
X11401291Y-15612360D02*
X11391767Y-15602836D01*
X11391767Y-15602836D02*
X11382243Y-15583789D01*
X11382243Y-15583789D02*
X11372720Y-15545693D01*
X11372720Y-15545693D02*
X11372720Y-15498074D01*
X11372720Y-15498074D02*
X11382243Y-15459979D01*
X11382243Y-15459979D02*
X11391767Y-15440931D01*
X11391767Y-15440931D02*
X11401291Y-15431408D01*
X11401291Y-15431408D02*
X11420339Y-15421884D01*
X11572720Y-15621884D02*
X11572720Y-15488550D01*
X11572720Y-15507598D02*
X11582243Y-15498074D01*
X11582243Y-15498074D02*
X11601291Y-15488550D01*
X11601291Y-15488550D02*
X11629863Y-15488550D01*
X11629863Y-15488550D02*
X11648910Y-15498074D01*
X11648910Y-15498074D02*
X11658434Y-15517122D01*
X11658434Y-15517122D02*
X11658434Y-15621884D01*
X11658434Y-15517122D02*
X11667958Y-15498074D01*
X11667958Y-15498074D02*
X11687005Y-15488550D01*
X11687005Y-15488550D02*
X11715577Y-15488550D01*
X11715577Y-15488550D02*
X11734624Y-15498074D01*
X11734624Y-15498074D02*
X11744148Y-15517122D01*
X11744148Y-15517122D02*
X11744148Y-15621884D01*
X11839386Y-15621884D02*
X11839386Y-15488550D01*
X11839386Y-15507598D02*
X11848910Y-15498074D01*
X11848910Y-15498074D02*
X11867958Y-15488550D01*
X11867958Y-15488550D02*
X11896529Y-15488550D01*
X11896529Y-15488550D02*
X11915577Y-15498074D01*
X11915577Y-15498074D02*
X11925101Y-15517122D01*
X11925101Y-15517122D02*
X11925101Y-15621884D01*
X11925101Y-15517122D02*
X11934624Y-15498074D01*
X11934624Y-15498074D02*
X11953672Y-15488550D01*
X11953672Y-15488550D02*
X11982243Y-15488550D01*
X11982243Y-15488550D02*
X12001291Y-15498074D01*
X12001291Y-15498074D02*
X12010815Y-15517122D01*
X12010815Y-15517122D02*
X12010815Y-15621884D01*
X12401291Y-15412360D02*
X12229863Y-15669503D01*
X12658434Y-15421884D02*
X12677482Y-15421884D01*
X12677482Y-15421884D02*
X12696529Y-15431408D01*
X12696529Y-15431408D02*
X12706053Y-15440931D01*
X12706053Y-15440931D02*
X12715577Y-15459979D01*
X12715577Y-15459979D02*
X12725101Y-15498074D01*
X12725101Y-15498074D02*
X12725101Y-15545693D01*
X12725101Y-15545693D02*
X12715577Y-15583789D01*
X12715577Y-15583789D02*
X12706053Y-15602836D01*
X12706053Y-15602836D02*
X12696529Y-15612360D01*
X12696529Y-15612360D02*
X12677482Y-15621884D01*
X12677482Y-15621884D02*
X12658434Y-15621884D01*
X12658434Y-15621884D02*
X12639386Y-15612360D01*
X12639386Y-15612360D02*
X12629863Y-15602836D01*
X12629863Y-15602836D02*
X12620339Y-15583789D01*
X12620339Y-15583789D02*
X12610815Y-15545693D01*
X12610815Y-15545693D02*
X12610815Y-15498074D01*
X12610815Y-15498074D02*
X12620339Y-15459979D01*
X12620339Y-15459979D02*
X12629863Y-15440931D01*
X12629863Y-15440931D02*
X12639386Y-15431408D01*
X12639386Y-15431408D02*
X12658434Y-15421884D01*
X12810815Y-15602836D02*
X12820339Y-15612360D01*
X12820339Y-15612360D02*
X12810815Y-15621884D01*
X12810815Y-15621884D02*
X12801291Y-15612360D01*
X12801291Y-15612360D02*
X12810815Y-15602836D01*
X12810815Y-15602836D02*
X12810815Y-15621884D01*
X13010815Y-15621884D02*
X12896529Y-15621884D01*
X12953672Y-15621884D02*
X12953672Y-15421884D01*
X12953672Y-15421884D02*
X12934625Y-15450455D01*
X12934625Y-15450455D02*
X12915577Y-15469503D01*
X12915577Y-15469503D02*
X12896529Y-15479027D01*
X13077482Y-15421884D02*
X13201291Y-15421884D01*
X13201291Y-15421884D02*
X13134625Y-15498074D01*
X13134625Y-15498074D02*
X13163196Y-15498074D01*
X13163196Y-15498074D02*
X13182244Y-15507598D01*
X13182244Y-15507598D02*
X13191767Y-15517122D01*
X13191767Y-15517122D02*
X13201291Y-15536170D01*
X13201291Y-15536170D02*
X13201291Y-15583789D01*
X13201291Y-15583789D02*
X13191767Y-15602836D01*
X13191767Y-15602836D02*
X13182244Y-15612360D01*
X13182244Y-15612360D02*
X13163196Y-15621884D01*
X13163196Y-15621884D02*
X13106053Y-15621884D01*
X13106053Y-15621884D02*
X13087006Y-15612360D01*
X13087006Y-15612360D02*
X13077482Y-15602836D01*
X13267958Y-15421884D02*
X13401291Y-15421884D01*
X13401291Y-15421884D02*
X13315577Y-15621884D01*
X13506053Y-15507598D02*
X13487006Y-15498074D01*
X13487006Y-15498074D02*
X13477482Y-15488550D01*
X13477482Y-15488550D02*
X13467958Y-15469503D01*
X13467958Y-15469503D02*
X13467958Y-15459979D01*
X13467958Y-15459979D02*
X13477482Y-15440931D01*
X13477482Y-15440931D02*
X13487006Y-15431408D01*
X13487006Y-15431408D02*
X13506053Y-15421884D01*
X13506053Y-15421884D02*
X13544148Y-15421884D01*
X13544148Y-15421884D02*
X13563196Y-15431408D01*
X13563196Y-15431408D02*
X13572720Y-15440931D01*
X13572720Y-15440931D02*
X13582244Y-15459979D01*
X13582244Y-15459979D02*
X13582244Y-15469503D01*
X13582244Y-15469503D02*
X13572720Y-15488550D01*
X13572720Y-15488550D02*
X13563196Y-15498074D01*
X13563196Y-15498074D02*
X13544148Y-15507598D01*
X13544148Y-15507598D02*
X13506053Y-15507598D01*
X13506053Y-15507598D02*
X13487006Y-15517122D01*
X13487006Y-15517122D02*
X13477482Y-15526646D01*
X13477482Y-15526646D02*
X13467958Y-15545693D01*
X13467958Y-15545693D02*
X13467958Y-15583789D01*
X13467958Y-15583789D02*
X13477482Y-15602836D01*
X13477482Y-15602836D02*
X13487006Y-15612360D01*
X13487006Y-15612360D02*
X13506053Y-15621884D01*
X13506053Y-15621884D02*
X13544148Y-15621884D01*
X13544148Y-15621884D02*
X13563196Y-15612360D01*
X13563196Y-15612360D02*
X13572720Y-15602836D01*
X13572720Y-15602836D02*
X13582244Y-15583789D01*
X13582244Y-15583789D02*
X13582244Y-15545693D01*
X13582244Y-15545693D02*
X13572720Y-15526646D01*
X13572720Y-15526646D02*
X13563196Y-15517122D01*
X13563196Y-15517122D02*
X13544148Y-15507598D01*
X13658434Y-15421884D02*
X13658434Y-15459979D01*
X13734625Y-15421884D02*
X13734625Y-15459979D01*
X14029863Y-15698074D02*
X14020339Y-15688550D01*
X14020339Y-15688550D02*
X14001291Y-15659979D01*
X14001291Y-15659979D02*
X13991768Y-15640931D01*
X13991768Y-15640931D02*
X13982244Y-15612360D01*
X13982244Y-15612360D02*
X13972720Y-15564741D01*
X13972720Y-15564741D02*
X13972720Y-15526646D01*
X13972720Y-15526646D02*
X13982244Y-15479027D01*
X13982244Y-15479027D02*
X13991768Y-15450455D01*
X13991768Y-15450455D02*
X14001291Y-15431408D01*
X14001291Y-15431408D02*
X14020339Y-15402836D01*
X14020339Y-15402836D02*
X14029863Y-15393312D01*
X14087006Y-15421884D02*
X14220339Y-15421884D01*
X14220339Y-15421884D02*
X14134625Y-15621884D01*
X14448910Y-15621884D02*
X14448910Y-15421884D01*
X14534625Y-15621884D02*
X14534625Y-15517122D01*
X14534625Y-15517122D02*
X14525101Y-15498074D01*
X14525101Y-15498074D02*
X14506053Y-15488550D01*
X14506053Y-15488550D02*
X14477482Y-15488550D01*
X14477482Y-15488550D02*
X14458434Y-15498074D01*
X14458434Y-15498074D02*
X14448910Y-15507598D01*
X14658434Y-15621884D02*
X14639387Y-15612360D01*
X14639387Y-15612360D02*
X14629863Y-15602836D01*
X14629863Y-15602836D02*
X14620339Y-15583789D01*
X14620339Y-15583789D02*
X14620339Y-15526646D01*
X14620339Y-15526646D02*
X14629863Y-15507598D01*
X14629863Y-15507598D02*
X14639387Y-15498074D01*
X14639387Y-15498074D02*
X14658434Y-15488550D01*
X14658434Y-15488550D02*
X14687006Y-15488550D01*
X14687006Y-15488550D02*
X14706053Y-15498074D01*
X14706053Y-15498074D02*
X14715577Y-15507598D01*
X14715577Y-15507598D02*
X14725101Y-15526646D01*
X14725101Y-15526646D02*
X14725101Y-15583789D01*
X14725101Y-15583789D02*
X14715577Y-15602836D01*
X14715577Y-15602836D02*
X14706053Y-15612360D01*
X14706053Y-15612360D02*
X14687006Y-15621884D01*
X14687006Y-15621884D02*
X14658434Y-15621884D01*
X14839387Y-15621884D02*
X14820339Y-15612360D01*
X14820339Y-15612360D02*
X14810815Y-15593312D01*
X14810815Y-15593312D02*
X14810815Y-15421884D01*
X14991768Y-15612360D02*
X14972720Y-15621884D01*
X14972720Y-15621884D02*
X14934625Y-15621884D01*
X14934625Y-15621884D02*
X14915577Y-15612360D01*
X14915577Y-15612360D02*
X14906053Y-15593312D01*
X14906053Y-15593312D02*
X14906053Y-15517122D01*
X14906053Y-15517122D02*
X14915577Y-15498074D01*
X14915577Y-15498074D02*
X14934625Y-15488550D01*
X14934625Y-15488550D02*
X14972720Y-15488550D01*
X14972720Y-15488550D02*
X14991768Y-15498074D01*
X14991768Y-15498074D02*
X15001291Y-15517122D01*
X15001291Y-15517122D02*
X15001291Y-15536170D01*
X15001291Y-15536170D02*
X14906053Y-15555217D01*
X15077482Y-15612360D02*
X15096530Y-15621884D01*
X15096530Y-15621884D02*
X15134625Y-15621884D01*
X15134625Y-15621884D02*
X15153672Y-15612360D01*
X15153672Y-15612360D02*
X15163196Y-15593312D01*
X15163196Y-15593312D02*
X15163196Y-15583789D01*
X15163196Y-15583789D02*
X15153672Y-15564741D01*
X15153672Y-15564741D02*
X15134625Y-15555217D01*
X15134625Y-15555217D02*
X15106053Y-15555217D01*
X15106053Y-15555217D02*
X15087006Y-15545693D01*
X15087006Y-15545693D02*
X15077482Y-15526646D01*
X15077482Y-15526646D02*
X15077482Y-15517122D01*
X15077482Y-15517122D02*
X15087006Y-15498074D01*
X15087006Y-15498074D02*
X15106053Y-15488550D01*
X15106053Y-15488550D02*
X15134625Y-15488550D01*
X15134625Y-15488550D02*
X15153672Y-15498074D01*
X15229863Y-15698074D02*
X15239387Y-15688550D01*
X15239387Y-15688550D02*
X15258434Y-15659979D01*
X15258434Y-15659979D02*
X15267958Y-15640931D01*
X15267958Y-15640931D02*
X15277482Y-15612360D01*
X15277482Y-15612360D02*
X15287006Y-15564741D01*
X15287006Y-15564741D02*
X15287006Y-15526646D01*
X15287006Y-15526646D02*
X15277482Y-15479027D01*
X15277482Y-15479027D02*
X15267958Y-15450455D01*
X15267958Y-15450455D02*
X15258434Y-15431408D01*
X15258434Y-15431408D02*
X15239387Y-15402836D01*
X15239387Y-15402836D02*
X15229863Y-15393312D01*
X15591768Y-15698074D02*
X15582244Y-15688550D01*
X15582244Y-15688550D02*
X15563196Y-15659979D01*
X15563196Y-15659979D02*
X15553672Y-15640931D01*
X15553672Y-15640931D02*
X15544149Y-15612360D01*
X15544149Y-15612360D02*
X15534625Y-15564741D01*
X15534625Y-15564741D02*
X15534625Y-15526646D01*
X15534625Y-15526646D02*
X15544149Y-15479027D01*
X15544149Y-15479027D02*
X15553672Y-15450455D01*
X15553672Y-15450455D02*
X15563196Y-15431408D01*
X15563196Y-15431408D02*
X15582244Y-15402836D01*
X15582244Y-15402836D02*
X15591768Y-15393312D01*
X15667958Y-15488550D02*
X15667958Y-15621884D01*
X15667958Y-15507598D02*
X15677482Y-15498074D01*
X15677482Y-15498074D02*
X15696530Y-15488550D01*
X15696530Y-15488550D02*
X15725101Y-15488550D01*
X15725101Y-15488550D02*
X15744149Y-15498074D01*
X15744149Y-15498074D02*
X15753672Y-15517122D01*
X15753672Y-15517122D02*
X15753672Y-15621884D01*
X15877482Y-15621884D02*
X15858434Y-15612360D01*
X15858434Y-15612360D02*
X15848911Y-15602836D01*
X15848911Y-15602836D02*
X15839387Y-15583789D01*
X15839387Y-15583789D02*
X15839387Y-15526646D01*
X15839387Y-15526646D02*
X15848911Y-15507598D01*
X15848911Y-15507598D02*
X15858434Y-15498074D01*
X15858434Y-15498074D02*
X15877482Y-15488550D01*
X15877482Y-15488550D02*
X15906053Y-15488550D01*
X15906053Y-15488550D02*
X15925101Y-15498074D01*
X15925101Y-15498074D02*
X15934625Y-15507598D01*
X15934625Y-15507598D02*
X15944149Y-15526646D01*
X15944149Y-15526646D02*
X15944149Y-15583789D01*
X15944149Y-15583789D02*
X15934625Y-15602836D01*
X15934625Y-15602836D02*
X15925101Y-15612360D01*
X15925101Y-15612360D02*
X15906053Y-15621884D01*
X15906053Y-15621884D02*
X15877482Y-15621884D01*
X16001292Y-15488550D02*
X16077482Y-15488550D01*
X16029863Y-15421884D02*
X16029863Y-15593312D01*
X16029863Y-15593312D02*
X16039387Y-15612360D01*
X16039387Y-15612360D02*
X16058434Y-15621884D01*
X16058434Y-15621884D02*
X16077482Y-15621884D01*
X16296530Y-15488550D02*
X16296530Y-15688550D01*
X16296530Y-15498074D02*
X16315577Y-15488550D01*
X16315577Y-15488550D02*
X16353673Y-15488550D01*
X16353673Y-15488550D02*
X16372720Y-15498074D01*
X16372720Y-15498074D02*
X16382244Y-15507598D01*
X16382244Y-15507598D02*
X16391768Y-15526646D01*
X16391768Y-15526646D02*
X16391768Y-15583789D01*
X16391768Y-15583789D02*
X16382244Y-15602836D01*
X16382244Y-15602836D02*
X16372720Y-15612360D01*
X16372720Y-15612360D02*
X16353673Y-15621884D01*
X16353673Y-15621884D02*
X16315577Y-15621884D01*
X16315577Y-15621884D02*
X16296530Y-15612360D01*
X16506053Y-15621884D02*
X16487006Y-15612360D01*
X16487006Y-15612360D02*
X16477482Y-15593312D01*
X16477482Y-15593312D02*
X16477482Y-15421884D01*
X16667958Y-15621884D02*
X16667958Y-15517122D01*
X16667958Y-15517122D02*
X16658434Y-15498074D01*
X16658434Y-15498074D02*
X16639387Y-15488550D01*
X16639387Y-15488550D02*
X16601292Y-15488550D01*
X16601292Y-15488550D02*
X16582244Y-15498074D01*
X16667958Y-15612360D02*
X16648911Y-15621884D01*
X16648911Y-15621884D02*
X16601292Y-15621884D01*
X16601292Y-15621884D02*
X16582244Y-15612360D01*
X16582244Y-15612360D02*
X16572720Y-15593312D01*
X16572720Y-15593312D02*
X16572720Y-15574265D01*
X16572720Y-15574265D02*
X16582244Y-15555217D01*
X16582244Y-15555217D02*
X16601292Y-15545693D01*
X16601292Y-15545693D02*
X16648911Y-15545693D01*
X16648911Y-15545693D02*
X16667958Y-15536170D01*
X16734625Y-15488550D02*
X16810815Y-15488550D01*
X16763196Y-15421884D02*
X16763196Y-15593312D01*
X16763196Y-15593312D02*
X16772720Y-15612360D01*
X16772720Y-15612360D02*
X16791768Y-15621884D01*
X16791768Y-15621884D02*
X16810815Y-15621884D01*
X16953673Y-15612360D02*
X16934625Y-15621884D01*
X16934625Y-15621884D02*
X16896530Y-15621884D01*
X16896530Y-15621884D02*
X16877482Y-15612360D01*
X16877482Y-15612360D02*
X16867958Y-15593312D01*
X16867958Y-15593312D02*
X16867958Y-15517122D01*
X16867958Y-15517122D02*
X16877482Y-15498074D01*
X16877482Y-15498074D02*
X16896530Y-15488550D01*
X16896530Y-15488550D02*
X16934625Y-15488550D01*
X16934625Y-15488550D02*
X16953673Y-15498074D01*
X16953673Y-15498074D02*
X16963196Y-15517122D01*
X16963196Y-15517122D02*
X16963196Y-15536170D01*
X16963196Y-15536170D02*
X16867958Y-15555217D01*
X17134625Y-15621884D02*
X17134625Y-15421884D01*
X17134625Y-15612360D02*
X17115577Y-15621884D01*
X17115577Y-15621884D02*
X17077482Y-15621884D01*
X17077482Y-15621884D02*
X17058435Y-15612360D01*
X17058435Y-15612360D02*
X17048911Y-15602836D01*
X17048911Y-15602836D02*
X17039387Y-15583789D01*
X17039387Y-15583789D02*
X17039387Y-15526646D01*
X17039387Y-15526646D02*
X17048911Y-15507598D01*
X17048911Y-15507598D02*
X17058435Y-15498074D01*
X17058435Y-15498074D02*
X17077482Y-15488550D01*
X17077482Y-15488550D02*
X17115577Y-15488550D01*
X17115577Y-15488550D02*
X17134625Y-15498074D01*
X17210816Y-15698074D02*
X17220339Y-15688550D01*
X17220339Y-15688550D02*
X17239387Y-15659979D01*
X17239387Y-15659979D02*
X17248911Y-15640931D01*
X17248911Y-15640931D02*
X17258435Y-15612360D01*
X17258435Y-15612360D02*
X17267958Y-15564741D01*
X17267958Y-15564741D02*
X17267958Y-15526646D01*
X17267958Y-15526646D02*
X17258435Y-15479027D01*
X17258435Y-15479027D02*
X17248911Y-15450455D01*
X17248911Y-15450455D02*
X17239387Y-15431408D01*
X17239387Y-15431408D02*
X17220339Y-15402836D01*
X17220339Y-15402836D02*
X17210816Y-15393312D01*
M02*
