M48
; DRILL file {KiCad 8.0.5} date 2024-12-03T18:06:48+0100
; FORMAT={-:-/ absolute / metric / decimal}
; #@! TF.CreationDate,2024-12-03T18:06:48+01:00
; #@! TF.GenerationSoftware,Kicad,Pcbnew,8.0.5
; #@! TF.FileFunction,Plated,1,2,PTH
FMAT,2
METRIC
; #@! TA.AperFunction,Plated,PTH,ViaDrill
T1C0.400
; #@! TA.AperFunction,Plated,PTH,ComponentDrill
T2C0.750
; #@! TA.AperFunction,Plated,PTH,ComponentDrill
T3C0.800
; #@! TA.AperFunction,Plated,PTH,ComponentDrill
T4C1.000
; #@! TA.AperFunction,Plated,PTH,ComponentDrill
T5C5.000
%
G90
G05
T1
X137.858Y-47.942
X143.551Y-43.536
X143.8Y-76.4
T2
X125.984Y-73.66
X127.254Y-73.66
X128.524Y-73.66
T3
X113.5Y-80.655
X113.5Y-88.275
X117.094Y-80.655
X117.094Y-88.275
X120.904Y-67.818
X120.904Y-75.438
X125.466Y-42.101
X125.476Y-46.701
X131.572Y-68.326
X131.572Y-71.628
X131.572Y-74.93
X133.086Y-42.101
X133.096Y-46.701
X139.192Y-68.326
X139.192Y-71.628
X139.192Y-74.93
X145.39Y-67.6
X147.066Y-70.866
X153.01Y-67.6
X154.686Y-70.866
X157.48Y-71.12
X157.48Y-74.93
X165.1Y-71.12
X165.1Y-74.93
T4
X109.5Y-84.985
X109.5Y-87.525
X111.5Y-73.5
X117.094Y-91.953
X117.094Y-94.493
X120.904Y-97.282
X123.444Y-97.282
X123.444Y-78.486
X123.444Y-93.726
X125.984Y-97.282
X125.984Y-78.486
X125.984Y-93.726
X128.524Y-93.726
X128.524Y-78.486
X131.064Y-78.486
X131.064Y-93.726
X133.604Y-78.486
X133.604Y-93.726
X136.144Y-78.486
X136.144Y-93.726
X138.684Y-78.486
X138.684Y-93.726
X141.224Y-78.486
X141.224Y-93.726
X143.764Y-78.486
X143.764Y-93.726
X146.304Y-74.676
X146.304Y-78.486
X146.304Y-93.726
X148.844Y-74.676
X148.844Y-78.486
X148.844Y-93.726
X151.384Y-74.676
X151.384Y-93.726
X151.384Y-78.486
X153.924Y-74.676
X153.924Y-78.486
X153.924Y-93.726
X156.464Y-78.486
X156.464Y-93.726
X159.004Y-78.486
X159.004Y-93.726
T5
X111.238Y-50.831
X111.322Y-63.3
X160.344Y-63.3
X160.514Y-50.831
M30
