%TF.GenerationSoftware,KiCad,Pcbnew,8.0.5*%
%TF.CreationDate,2024-12-03T18:06:48+01:00*%
%TF.ProjectId,Controller 1.4,436f6e74-726f-46c6-9c65-7220312e342e,rev?*%
%TF.SameCoordinates,Original*%
%TF.FileFunction,Drillmap*%
%TF.FilePolarity,Positive*%
%FSLAX45Y45*%
G04 Gerber Fmt 4.5, Leading zero omitted, Abs format (unit mm)*
G04 Created by KiCad (PCBNEW 8.0.5) date 2024-12-03 18:06:48*
%MOMM*%
%LPD*%
G01*
G04 APERTURE LIST*
%ADD10C,0.200000*%
%ADD11C,0.010050*%
%ADD12C,0.100000*%
%ADD13C,0.500000*%
G04 APERTURE END LIST*
D10*
X16690200Y-9880600D02*
G75*
G02*
X16440200Y-10130600I-250000J0D01*
G01*
X10875200Y-4180600D02*
G75*
G02*
X10605200Y-4180600I-135000J0D01*
G01*
X10605200Y-4180600D02*
G75*
G02*
X10875200Y-4180600I135000J0D01*
G01*
X16440200Y-3930600D02*
G75*
G02*
X16690200Y-4180600I0J-250000D01*
G01*
X10740200Y-3930600D02*
X16440200Y-3930600D01*
X10490200Y-9880600D02*
X10490200Y-4180600D01*
X10740200Y-10130600D02*
G75*
G02*
X10490200Y-9880600I0J250000D01*
G01*
X10875200Y-9880600D02*
G75*
G02*
X10605200Y-9880600I-135000J0D01*
G01*
X10605200Y-9880600D02*
G75*
G02*
X10875200Y-9880600I135000J0D01*
G01*
X16575200Y-9880600D02*
G75*
G02*
X16305200Y-9880600I-135000J0D01*
G01*
X16305200Y-9880600D02*
G75*
G02*
X16575200Y-9880600I135000J0D01*
G01*
X16575200Y-4180600D02*
G75*
G02*
X16305200Y-4180600I-135000J0D01*
G01*
X16305200Y-4180600D02*
G75*
G02*
X16575200Y-4180600I135000J0D01*
G01*
X16440200Y-10130600D02*
X10740200Y-10130600D01*
X10490200Y-4180600D02*
G75*
G02*
X10740200Y-3930600I250000J0D01*
G01*
X16690200Y-4180600D02*
X16690200Y-9880600D01*
D11*
X12990702Y-7630600D02*
G75*
G02*
X12989697Y-7630600I-503J0D01*
G01*
X12989697Y-7630600D02*
G75*
G02*
X12990702Y-7630600I503J0D01*
G01*
D10*
D12*
X13765800Y-4774200D02*
X13805800Y-4814200D01*
X13805800Y-4774200D02*
X13765800Y-4814200D01*
X14335109Y-4333605D02*
X14375109Y-4373605D01*
X14375109Y-4333605D02*
X14335109Y-4373605D01*
X14360000Y-7620000D02*
X14400000Y-7660000D01*
X14400000Y-7620000D02*
X14360000Y-7660000D01*
X12635900Y-7366000D02*
G75*
G02*
X12560900Y-7366000I-37500J0D01*
G01*
X12560900Y-7366000D02*
G75*
G02*
X12635900Y-7366000I37500J0D01*
G01*
X12762900Y-7366000D02*
G75*
G02*
X12687900Y-7366000I-37500J0D01*
G01*
X12687900Y-7366000D02*
G75*
G02*
X12762900Y-7366000I37500J0D01*
G01*
X12889900Y-7366000D02*
G75*
G02*
X12814900Y-7366000I-37500J0D01*
G01*
X12814900Y-7366000D02*
G75*
G02*
X12889900Y-7366000I37500J0D01*
G01*
X11350000Y-8025500D02*
X11350000Y-8105500D01*
X11310000Y-8065500D02*
X11390000Y-8065500D01*
X11350000Y-8787500D02*
X11350000Y-8867500D01*
X11310000Y-8827500D02*
X11390000Y-8827500D01*
X11709400Y-8025500D02*
X11709400Y-8105500D01*
X11669400Y-8065500D02*
X11749400Y-8065500D01*
X11709400Y-8787500D02*
X11709400Y-8867500D01*
X11669400Y-8827500D02*
X11749400Y-8827500D01*
X12090400Y-6741800D02*
X12090400Y-6821800D01*
X12050400Y-6781800D02*
X12130400Y-6781800D01*
X12090400Y-7503800D02*
X12090400Y-7583800D01*
X12050400Y-7543800D02*
X12130400Y-7543800D01*
X12546600Y-4170114D02*
X12546600Y-4250114D01*
X12506600Y-4210114D02*
X12586600Y-4210114D01*
X12547600Y-4630114D02*
X12547600Y-4710114D01*
X12507600Y-4670114D02*
X12587600Y-4670114D01*
X13157200Y-6792600D02*
X13157200Y-6872600D01*
X13117200Y-6832600D02*
X13197200Y-6832600D01*
X13157200Y-7122800D02*
X13157200Y-7202800D01*
X13117200Y-7162800D02*
X13197200Y-7162800D01*
X13157200Y-7453000D02*
X13157200Y-7533000D01*
X13117200Y-7493000D02*
X13197200Y-7493000D01*
X13308600Y-4170114D02*
X13308600Y-4250114D01*
X13268600Y-4210114D02*
X13348600Y-4210114D01*
X13309600Y-4630114D02*
X13309600Y-4710114D01*
X13269600Y-4670114D02*
X13349600Y-4670114D01*
X13919200Y-6792600D02*
X13919200Y-6872600D01*
X13879200Y-6832600D02*
X13959200Y-6832600D01*
X13919200Y-7122800D02*
X13919200Y-7202800D01*
X13879200Y-7162800D02*
X13959200Y-7162800D01*
X13919200Y-7453000D02*
X13919200Y-7533000D01*
X13879200Y-7493000D02*
X13959200Y-7493000D01*
X14539000Y-6720000D02*
X14539000Y-6800000D01*
X14499000Y-6760000D02*
X14579000Y-6760000D01*
X14706600Y-7046600D02*
X14706600Y-7126600D01*
X14666600Y-7086600D02*
X14746600Y-7086600D01*
X15301000Y-6720000D02*
X15301000Y-6800000D01*
X15261000Y-6760000D02*
X15341000Y-6760000D01*
X15468600Y-7046600D02*
X15468600Y-7126600D01*
X15428600Y-7086600D02*
X15508600Y-7086600D01*
X15748000Y-7072000D02*
X15748000Y-7152000D01*
X15708000Y-7112000D02*
X15788000Y-7112000D01*
X15748000Y-7453000D02*
X15748000Y-7533000D01*
X15708000Y-7493000D02*
X15788000Y-7493000D01*
X16510000Y-7072000D02*
X16510000Y-7152000D01*
X16470000Y-7112000D02*
X16550000Y-7112000D01*
X16510000Y-7453000D02*
X16510000Y-7533000D01*
X16470000Y-7493000D02*
X16550000Y-7493000D01*
X10985356Y-8533856D02*
X10985356Y-8463144D01*
X10914644Y-8463144D01*
X10914644Y-8533856D01*
X10985356Y-8533856D01*
X10985356Y-8787856D02*
X10985356Y-8717144D01*
X10914644Y-8717144D01*
X10914644Y-8787856D01*
X10985356Y-8787856D01*
X11185356Y-7385356D02*
X11185356Y-7314644D01*
X11114644Y-7314644D01*
X11114644Y-7385356D01*
X11185356Y-7385356D01*
X11744756Y-9230656D02*
X11744756Y-9159944D01*
X11674044Y-9159944D01*
X11674044Y-9230656D01*
X11744756Y-9230656D01*
X11744756Y-9484656D02*
X11744756Y-9413944D01*
X11674044Y-9413944D01*
X11674044Y-9484656D01*
X11744756Y-9484656D01*
X12125756Y-9763556D02*
X12125756Y-9692844D01*
X12055044Y-9692844D01*
X12055044Y-9763556D01*
X12125756Y-9763556D01*
X12379756Y-9763556D02*
X12379756Y-9692844D01*
X12309044Y-9692844D01*
X12309044Y-9763556D01*
X12379756Y-9763556D01*
X12379756Y-7883956D02*
X12379756Y-7813244D01*
X12309044Y-7813244D01*
X12309044Y-7883956D01*
X12379756Y-7883956D01*
X12379756Y-9407956D02*
X12379756Y-9337244D01*
X12309044Y-9337244D01*
X12309044Y-9407956D01*
X12379756Y-9407956D01*
X12633756Y-9763556D02*
X12633756Y-9692844D01*
X12563044Y-9692844D01*
X12563044Y-9763556D01*
X12633756Y-9763556D01*
X12633756Y-7883956D02*
X12633756Y-7813244D01*
X12563044Y-7813244D01*
X12563044Y-7883956D01*
X12633756Y-7883956D01*
X12633756Y-9407956D02*
X12633756Y-9337244D01*
X12563044Y-9337244D01*
X12563044Y-9407956D01*
X12633756Y-9407956D01*
X12887756Y-9407956D02*
X12887756Y-9337244D01*
X12817044Y-9337244D01*
X12817044Y-9407956D01*
X12887756Y-9407956D01*
X12887756Y-7883956D02*
X12887756Y-7813244D01*
X12817044Y-7813244D01*
X12817044Y-7883956D01*
X12887756Y-7883956D01*
X13141756Y-7883956D02*
X13141756Y-7813244D01*
X13071044Y-7813244D01*
X13071044Y-7883956D01*
X13141756Y-7883956D01*
X13141756Y-9407956D02*
X13141756Y-9337244D01*
X13071044Y-9337244D01*
X13071044Y-9407956D01*
X13141756Y-9407956D01*
X13395756Y-7883956D02*
X13395756Y-7813244D01*
X13325044Y-7813244D01*
X13325044Y-7883956D01*
X13395756Y-7883956D01*
X13395756Y-9407956D02*
X13395756Y-9337244D01*
X13325044Y-9337244D01*
X13325044Y-9407956D01*
X13395756Y-9407956D01*
X13649756Y-7883956D02*
X13649756Y-7813244D01*
X13579044Y-7813244D01*
X13579044Y-7883956D01*
X13649756Y-7883956D01*
X13649756Y-9407956D02*
X13649756Y-9337244D01*
X13579044Y-9337244D01*
X13579044Y-9407956D01*
X13649756Y-9407956D01*
X13903756Y-7883956D02*
X13903756Y-7813244D01*
X13833044Y-7813244D01*
X13833044Y-7883956D01*
X13903756Y-7883956D01*
X13903756Y-9407956D02*
X13903756Y-9337244D01*
X13833044Y-9337244D01*
X13833044Y-9407956D01*
X13903756Y-9407956D01*
X14157756Y-7883956D02*
X14157756Y-7813244D01*
X14087044Y-7813244D01*
X14087044Y-7883956D01*
X14157756Y-7883956D01*
X14157756Y-9407956D02*
X14157756Y-9337244D01*
X14087044Y-9337244D01*
X14087044Y-9407956D01*
X14157756Y-9407956D01*
X14411756Y-7883956D02*
X14411756Y-7813244D01*
X14341044Y-7813244D01*
X14341044Y-7883956D01*
X14411756Y-7883956D01*
X14411756Y-9407956D02*
X14411756Y-9337244D01*
X14341044Y-9337244D01*
X14341044Y-9407956D01*
X14411756Y-9407956D01*
X14665756Y-7502956D02*
X14665756Y-7432244D01*
X14595044Y-7432244D01*
X14595044Y-7502956D01*
X14665756Y-7502956D01*
X14665756Y-7883956D02*
X14665756Y-7813244D01*
X14595044Y-7813244D01*
X14595044Y-7883956D01*
X14665756Y-7883956D01*
X14665756Y-9407956D02*
X14665756Y-9337244D01*
X14595044Y-9337244D01*
X14595044Y-9407956D01*
X14665756Y-9407956D01*
X14919756Y-7502956D02*
X14919756Y-7432244D01*
X14849044Y-7432244D01*
X14849044Y-7502956D01*
X14919756Y-7502956D01*
X14919756Y-7883956D02*
X14919756Y-7813244D01*
X14849044Y-7813244D01*
X14849044Y-7883956D01*
X14919756Y-7883956D01*
X14919756Y-9407956D02*
X14919756Y-9337244D01*
X14849044Y-9337244D01*
X14849044Y-9407956D01*
X14919756Y-9407956D01*
X15173756Y-7502956D02*
X15173756Y-7432244D01*
X15103044Y-7432244D01*
X15103044Y-7502956D01*
X15173756Y-7502956D01*
X15173756Y-9407956D02*
X15173756Y-9337244D01*
X15103044Y-9337244D01*
X15103044Y-9407956D01*
X15173756Y-9407956D01*
X15173756Y-7883956D02*
X15173756Y-7813244D01*
X15103044Y-7813244D01*
X15103044Y-7883956D01*
X15173756Y-7883956D01*
X15427756Y-7502956D02*
X15427756Y-7432244D01*
X15357044Y-7432244D01*
X15357044Y-7502956D01*
X15427756Y-7502956D01*
X15427756Y-7883956D02*
X15427756Y-7813244D01*
X15357044Y-7813244D01*
X15357044Y-7883956D01*
X15427756Y-7883956D01*
X15427756Y-9407956D02*
X15427756Y-9337244D01*
X15357044Y-9337244D01*
X15357044Y-9407956D01*
X15427756Y-9407956D01*
X15681756Y-7883956D02*
X15681756Y-7813244D01*
X15611044Y-7813244D01*
X15611044Y-7883956D01*
X15681756Y-7883956D01*
X15681756Y-9407956D02*
X15681756Y-9337244D01*
X15611044Y-9337244D01*
X15611044Y-9407956D01*
X15681756Y-9407956D01*
X15935756Y-7883956D02*
X15935756Y-7813244D01*
X15865044Y-7813244D01*
X15865044Y-7883956D01*
X15935756Y-7883956D01*
X15935756Y-9407956D02*
X15935756Y-9337244D01*
X15865044Y-9337244D01*
X15865044Y-9407956D01*
X15935756Y-9407956D01*
D13*
X11123800Y-5333114D02*
X11373800Y-5083114D01*
X11123800Y-4833114D01*
X10873800Y-5083114D01*
X11123800Y-5333114D01*
X11132200Y-6580000D02*
X11382200Y-6330000D01*
X11132200Y-6080000D01*
X10882200Y-6330000D01*
X11132200Y-6580000D01*
X16034400Y-6580000D02*
X16284400Y-6330000D01*
X16034400Y-6080000D01*
X15784400Y-6330000D01*
X16034400Y-6580000D01*
X16051400Y-5333114D02*
X16301400Y-5083114D01*
X16051400Y-4833114D01*
X15801400Y-5083114D01*
X16051400Y-5333114D01*
D10*
X10740977Y-10452084D02*
X10740977Y-10252084D01*
X10740977Y-10252084D02*
X10788596Y-10252084D01*
X10788596Y-10252084D02*
X10817167Y-10261608D01*
X10817167Y-10261608D02*
X10836215Y-10280655D01*
X10836215Y-10280655D02*
X10845739Y-10299703D01*
X10845739Y-10299703D02*
X10855263Y-10337798D01*
X10855263Y-10337798D02*
X10855263Y-10366370D01*
X10855263Y-10366370D02*
X10845739Y-10404465D01*
X10845739Y-10404465D02*
X10836215Y-10423512D01*
X10836215Y-10423512D02*
X10817167Y-10442560D01*
X10817167Y-10442560D02*
X10788596Y-10452084D01*
X10788596Y-10452084D02*
X10740977Y-10452084D01*
X10940977Y-10452084D02*
X10940977Y-10318751D01*
X10940977Y-10356846D02*
X10950501Y-10337798D01*
X10950501Y-10337798D02*
X10960024Y-10328274D01*
X10960024Y-10328274D02*
X10979072Y-10318751D01*
X10979072Y-10318751D02*
X10998120Y-10318751D01*
X11064786Y-10452084D02*
X11064786Y-10318751D01*
X11064786Y-10252084D02*
X11055263Y-10261608D01*
X11055263Y-10261608D02*
X11064786Y-10271132D01*
X11064786Y-10271132D02*
X11074310Y-10261608D01*
X11074310Y-10261608D02*
X11064786Y-10252084D01*
X11064786Y-10252084D02*
X11064786Y-10271132D01*
X11188596Y-10452084D02*
X11169548Y-10442560D01*
X11169548Y-10442560D02*
X11160024Y-10423512D01*
X11160024Y-10423512D02*
X11160024Y-10252084D01*
X11293358Y-10452084D02*
X11274310Y-10442560D01*
X11274310Y-10442560D02*
X11264786Y-10423512D01*
X11264786Y-10423512D02*
X11264786Y-10252084D01*
X11521929Y-10452084D02*
X11521929Y-10252084D01*
X11521929Y-10252084D02*
X11588596Y-10394941D01*
X11588596Y-10394941D02*
X11655262Y-10252084D01*
X11655262Y-10252084D02*
X11655262Y-10452084D01*
X11836215Y-10452084D02*
X11836215Y-10347322D01*
X11836215Y-10347322D02*
X11826691Y-10328274D01*
X11826691Y-10328274D02*
X11807643Y-10318751D01*
X11807643Y-10318751D02*
X11769548Y-10318751D01*
X11769548Y-10318751D02*
X11750501Y-10328274D01*
X11836215Y-10442560D02*
X11817167Y-10452084D01*
X11817167Y-10452084D02*
X11769548Y-10452084D01*
X11769548Y-10452084D02*
X11750501Y-10442560D01*
X11750501Y-10442560D02*
X11740977Y-10423512D01*
X11740977Y-10423512D02*
X11740977Y-10404465D01*
X11740977Y-10404465D02*
X11750501Y-10385417D01*
X11750501Y-10385417D02*
X11769548Y-10375893D01*
X11769548Y-10375893D02*
X11817167Y-10375893D01*
X11817167Y-10375893D02*
X11836215Y-10366370D01*
X11931453Y-10318751D02*
X11931453Y-10518751D01*
X11931453Y-10328274D02*
X11950501Y-10318751D01*
X11950501Y-10318751D02*
X11988596Y-10318751D01*
X11988596Y-10318751D02*
X12007643Y-10328274D01*
X12007643Y-10328274D02*
X12017167Y-10337798D01*
X12017167Y-10337798D02*
X12026691Y-10356846D01*
X12026691Y-10356846D02*
X12026691Y-10413989D01*
X12026691Y-10413989D02*
X12017167Y-10433036D01*
X12017167Y-10433036D02*
X12007643Y-10442560D01*
X12007643Y-10442560D02*
X11988596Y-10452084D01*
X11988596Y-10452084D02*
X11950501Y-10452084D01*
X11950501Y-10452084D02*
X11931453Y-10442560D01*
X12112405Y-10433036D02*
X12121929Y-10442560D01*
X12121929Y-10442560D02*
X12112405Y-10452084D01*
X12112405Y-10452084D02*
X12102882Y-10442560D01*
X12102882Y-10442560D02*
X12112405Y-10433036D01*
X12112405Y-10433036D02*
X12112405Y-10452084D01*
X12112405Y-10328274D02*
X12121929Y-10337798D01*
X12121929Y-10337798D02*
X12112405Y-10347322D01*
X12112405Y-10347322D02*
X12102882Y-10337798D01*
X12102882Y-10337798D02*
X12112405Y-10328274D01*
X12112405Y-10328274D02*
X12112405Y-10347322D01*
D12*
X10440200Y-10760600D02*
X10480200Y-10800600D01*
X10480200Y-10760600D02*
X10440200Y-10800600D01*
D10*
X10779072Y-10672084D02*
X10798120Y-10672084D01*
X10798120Y-10672084D02*
X10817167Y-10681608D01*
X10817167Y-10681608D02*
X10826691Y-10691132D01*
X10826691Y-10691132D02*
X10836215Y-10710179D01*
X10836215Y-10710179D02*
X10845739Y-10748274D01*
X10845739Y-10748274D02*
X10845739Y-10795893D01*
X10845739Y-10795893D02*
X10836215Y-10833989D01*
X10836215Y-10833989D02*
X10826691Y-10853036D01*
X10826691Y-10853036D02*
X10817167Y-10862560D01*
X10817167Y-10862560D02*
X10798120Y-10872084D01*
X10798120Y-10872084D02*
X10779072Y-10872084D01*
X10779072Y-10872084D02*
X10760024Y-10862560D01*
X10760024Y-10862560D02*
X10750501Y-10853036D01*
X10750501Y-10853036D02*
X10740977Y-10833989D01*
X10740977Y-10833989D02*
X10731453Y-10795893D01*
X10731453Y-10795893D02*
X10731453Y-10748274D01*
X10731453Y-10748274D02*
X10740977Y-10710179D01*
X10740977Y-10710179D02*
X10750501Y-10691132D01*
X10750501Y-10691132D02*
X10760024Y-10681608D01*
X10760024Y-10681608D02*
X10779072Y-10672084D01*
X10931453Y-10853036D02*
X10940977Y-10862560D01*
X10940977Y-10862560D02*
X10931453Y-10872084D01*
X10931453Y-10872084D02*
X10921929Y-10862560D01*
X10921929Y-10862560D02*
X10931453Y-10853036D01*
X10931453Y-10853036D02*
X10931453Y-10872084D01*
X11112405Y-10738751D02*
X11112405Y-10872084D01*
X11064786Y-10662560D02*
X11017167Y-10805417D01*
X11017167Y-10805417D02*
X11140977Y-10805417D01*
X11255262Y-10672084D02*
X11274310Y-10672084D01*
X11274310Y-10672084D02*
X11293358Y-10681608D01*
X11293358Y-10681608D02*
X11302882Y-10691132D01*
X11302882Y-10691132D02*
X11312405Y-10710179D01*
X11312405Y-10710179D02*
X11321929Y-10748274D01*
X11321929Y-10748274D02*
X11321929Y-10795893D01*
X11321929Y-10795893D02*
X11312405Y-10833989D01*
X11312405Y-10833989D02*
X11302882Y-10853036D01*
X11302882Y-10853036D02*
X11293358Y-10862560D01*
X11293358Y-10862560D02*
X11274310Y-10872084D01*
X11274310Y-10872084D02*
X11255262Y-10872084D01*
X11255262Y-10872084D02*
X11236215Y-10862560D01*
X11236215Y-10862560D02*
X11226691Y-10853036D01*
X11226691Y-10853036D02*
X11217167Y-10833989D01*
X11217167Y-10833989D02*
X11207643Y-10795893D01*
X11207643Y-10795893D02*
X11207643Y-10748274D01*
X11207643Y-10748274D02*
X11217167Y-10710179D01*
X11217167Y-10710179D02*
X11226691Y-10691132D01*
X11226691Y-10691132D02*
X11236215Y-10681608D01*
X11236215Y-10681608D02*
X11255262Y-10672084D01*
X11445739Y-10672084D02*
X11464786Y-10672084D01*
X11464786Y-10672084D02*
X11483834Y-10681608D01*
X11483834Y-10681608D02*
X11493358Y-10691132D01*
X11493358Y-10691132D02*
X11502882Y-10710179D01*
X11502882Y-10710179D02*
X11512405Y-10748274D01*
X11512405Y-10748274D02*
X11512405Y-10795893D01*
X11512405Y-10795893D02*
X11502882Y-10833989D01*
X11502882Y-10833989D02*
X11493358Y-10853036D01*
X11493358Y-10853036D02*
X11483834Y-10862560D01*
X11483834Y-10862560D02*
X11464786Y-10872084D01*
X11464786Y-10872084D02*
X11445739Y-10872084D01*
X11445739Y-10872084D02*
X11426691Y-10862560D01*
X11426691Y-10862560D02*
X11417167Y-10853036D01*
X11417167Y-10853036D02*
X11407643Y-10833989D01*
X11407643Y-10833989D02*
X11398120Y-10795893D01*
X11398120Y-10795893D02*
X11398120Y-10748274D01*
X11398120Y-10748274D02*
X11407643Y-10710179D01*
X11407643Y-10710179D02*
X11417167Y-10691132D01*
X11417167Y-10691132D02*
X11426691Y-10681608D01*
X11426691Y-10681608D02*
X11445739Y-10672084D01*
X11598120Y-10872084D02*
X11598120Y-10738751D01*
X11598120Y-10757798D02*
X11607643Y-10748274D01*
X11607643Y-10748274D02*
X11626691Y-10738751D01*
X11626691Y-10738751D02*
X11655263Y-10738751D01*
X11655263Y-10738751D02*
X11674310Y-10748274D01*
X11674310Y-10748274D02*
X11683834Y-10767322D01*
X11683834Y-10767322D02*
X11683834Y-10872084D01*
X11683834Y-10767322D02*
X11693358Y-10748274D01*
X11693358Y-10748274D02*
X11712405Y-10738751D01*
X11712405Y-10738751D02*
X11740977Y-10738751D01*
X11740977Y-10738751D02*
X11760024Y-10748274D01*
X11760024Y-10748274D02*
X11769548Y-10767322D01*
X11769548Y-10767322D02*
X11769548Y-10872084D01*
X11864786Y-10872084D02*
X11864786Y-10738751D01*
X11864786Y-10757798D02*
X11874310Y-10748274D01*
X11874310Y-10748274D02*
X11893358Y-10738751D01*
X11893358Y-10738751D02*
X11921929Y-10738751D01*
X11921929Y-10738751D02*
X11940977Y-10748274D01*
X11940977Y-10748274D02*
X11950501Y-10767322D01*
X11950501Y-10767322D02*
X11950501Y-10872084D01*
X11950501Y-10767322D02*
X11960024Y-10748274D01*
X11960024Y-10748274D02*
X11979072Y-10738751D01*
X11979072Y-10738751D02*
X12007643Y-10738751D01*
X12007643Y-10738751D02*
X12026691Y-10748274D01*
X12026691Y-10748274D02*
X12036215Y-10767322D01*
X12036215Y-10767322D02*
X12036215Y-10872084D01*
X12426691Y-10662560D02*
X12255263Y-10919703D01*
X12683834Y-10672084D02*
X12702882Y-10672084D01*
X12702882Y-10672084D02*
X12721929Y-10681608D01*
X12721929Y-10681608D02*
X12731453Y-10691132D01*
X12731453Y-10691132D02*
X12740977Y-10710179D01*
X12740977Y-10710179D02*
X12750501Y-10748274D01*
X12750501Y-10748274D02*
X12750501Y-10795893D01*
X12750501Y-10795893D02*
X12740977Y-10833989D01*
X12740977Y-10833989D02*
X12731453Y-10853036D01*
X12731453Y-10853036D02*
X12721929Y-10862560D01*
X12721929Y-10862560D02*
X12702882Y-10872084D01*
X12702882Y-10872084D02*
X12683834Y-10872084D01*
X12683834Y-10872084D02*
X12664786Y-10862560D01*
X12664786Y-10862560D02*
X12655263Y-10853036D01*
X12655263Y-10853036D02*
X12645739Y-10833989D01*
X12645739Y-10833989D02*
X12636215Y-10795893D01*
X12636215Y-10795893D02*
X12636215Y-10748274D01*
X12636215Y-10748274D02*
X12645739Y-10710179D01*
X12645739Y-10710179D02*
X12655263Y-10691132D01*
X12655263Y-10691132D02*
X12664786Y-10681608D01*
X12664786Y-10681608D02*
X12683834Y-10672084D01*
X12836215Y-10853036D02*
X12845739Y-10862560D01*
X12845739Y-10862560D02*
X12836215Y-10872084D01*
X12836215Y-10872084D02*
X12826691Y-10862560D01*
X12826691Y-10862560D02*
X12836215Y-10853036D01*
X12836215Y-10853036D02*
X12836215Y-10872084D01*
X12969548Y-10672084D02*
X12988596Y-10672084D01*
X12988596Y-10672084D02*
X13007644Y-10681608D01*
X13007644Y-10681608D02*
X13017167Y-10691132D01*
X13017167Y-10691132D02*
X13026691Y-10710179D01*
X13026691Y-10710179D02*
X13036215Y-10748274D01*
X13036215Y-10748274D02*
X13036215Y-10795893D01*
X13036215Y-10795893D02*
X13026691Y-10833989D01*
X13026691Y-10833989D02*
X13017167Y-10853036D01*
X13017167Y-10853036D02*
X13007644Y-10862560D01*
X13007644Y-10862560D02*
X12988596Y-10872084D01*
X12988596Y-10872084D02*
X12969548Y-10872084D01*
X12969548Y-10872084D02*
X12950501Y-10862560D01*
X12950501Y-10862560D02*
X12940977Y-10853036D01*
X12940977Y-10853036D02*
X12931453Y-10833989D01*
X12931453Y-10833989D02*
X12921929Y-10795893D01*
X12921929Y-10795893D02*
X12921929Y-10748274D01*
X12921929Y-10748274D02*
X12931453Y-10710179D01*
X12931453Y-10710179D02*
X12940977Y-10691132D01*
X12940977Y-10691132D02*
X12950501Y-10681608D01*
X12950501Y-10681608D02*
X12969548Y-10672084D01*
X13226691Y-10872084D02*
X13112406Y-10872084D01*
X13169548Y-10872084D02*
X13169548Y-10672084D01*
X13169548Y-10672084D02*
X13150501Y-10700655D01*
X13150501Y-10700655D02*
X13131453Y-10719703D01*
X13131453Y-10719703D02*
X13112406Y-10729227D01*
X13407644Y-10672084D02*
X13312406Y-10672084D01*
X13312406Y-10672084D02*
X13302882Y-10767322D01*
X13302882Y-10767322D02*
X13312406Y-10757798D01*
X13312406Y-10757798D02*
X13331453Y-10748274D01*
X13331453Y-10748274D02*
X13379072Y-10748274D01*
X13379072Y-10748274D02*
X13398120Y-10757798D01*
X13398120Y-10757798D02*
X13407644Y-10767322D01*
X13407644Y-10767322D02*
X13417167Y-10786370D01*
X13417167Y-10786370D02*
X13417167Y-10833989D01*
X13417167Y-10833989D02*
X13407644Y-10853036D01*
X13407644Y-10853036D02*
X13398120Y-10862560D01*
X13398120Y-10862560D02*
X13379072Y-10872084D01*
X13379072Y-10872084D02*
X13331453Y-10872084D01*
X13331453Y-10872084D02*
X13312406Y-10862560D01*
X13312406Y-10862560D02*
X13302882Y-10853036D01*
X13483834Y-10672084D02*
X13617167Y-10672084D01*
X13617167Y-10672084D02*
X13531453Y-10872084D01*
X13683834Y-10672084D02*
X13683834Y-10710179D01*
X13760025Y-10672084D02*
X13760025Y-10710179D01*
X14055263Y-10948274D02*
X14045739Y-10938751D01*
X14045739Y-10938751D02*
X14026691Y-10910179D01*
X14026691Y-10910179D02*
X14017168Y-10891132D01*
X14017168Y-10891132D02*
X14007644Y-10862560D01*
X14007644Y-10862560D02*
X13998120Y-10814941D01*
X13998120Y-10814941D02*
X13998120Y-10776846D01*
X13998120Y-10776846D02*
X14007644Y-10729227D01*
X14007644Y-10729227D02*
X14017168Y-10700655D01*
X14017168Y-10700655D02*
X14026691Y-10681608D01*
X14026691Y-10681608D02*
X14045739Y-10653036D01*
X14045739Y-10653036D02*
X14055263Y-10643512D01*
X14112406Y-10672084D02*
X14236215Y-10672084D01*
X14236215Y-10672084D02*
X14169548Y-10748274D01*
X14169548Y-10748274D02*
X14198120Y-10748274D01*
X14198120Y-10748274D02*
X14217168Y-10757798D01*
X14217168Y-10757798D02*
X14226691Y-10767322D01*
X14226691Y-10767322D02*
X14236215Y-10786370D01*
X14236215Y-10786370D02*
X14236215Y-10833989D01*
X14236215Y-10833989D02*
X14226691Y-10853036D01*
X14226691Y-10853036D02*
X14217168Y-10862560D01*
X14217168Y-10862560D02*
X14198120Y-10872084D01*
X14198120Y-10872084D02*
X14140977Y-10872084D01*
X14140977Y-10872084D02*
X14121929Y-10862560D01*
X14121929Y-10862560D02*
X14112406Y-10853036D01*
X14474310Y-10872084D02*
X14474310Y-10672084D01*
X14560025Y-10872084D02*
X14560025Y-10767322D01*
X14560025Y-10767322D02*
X14550501Y-10748274D01*
X14550501Y-10748274D02*
X14531453Y-10738751D01*
X14531453Y-10738751D02*
X14502882Y-10738751D01*
X14502882Y-10738751D02*
X14483834Y-10748274D01*
X14483834Y-10748274D02*
X14474310Y-10757798D01*
X14683834Y-10872084D02*
X14664787Y-10862560D01*
X14664787Y-10862560D02*
X14655263Y-10853036D01*
X14655263Y-10853036D02*
X14645739Y-10833989D01*
X14645739Y-10833989D02*
X14645739Y-10776846D01*
X14645739Y-10776846D02*
X14655263Y-10757798D01*
X14655263Y-10757798D02*
X14664787Y-10748274D01*
X14664787Y-10748274D02*
X14683834Y-10738751D01*
X14683834Y-10738751D02*
X14712406Y-10738751D01*
X14712406Y-10738751D02*
X14731453Y-10748274D01*
X14731453Y-10748274D02*
X14740977Y-10757798D01*
X14740977Y-10757798D02*
X14750501Y-10776846D01*
X14750501Y-10776846D02*
X14750501Y-10833989D01*
X14750501Y-10833989D02*
X14740977Y-10853036D01*
X14740977Y-10853036D02*
X14731453Y-10862560D01*
X14731453Y-10862560D02*
X14712406Y-10872084D01*
X14712406Y-10872084D02*
X14683834Y-10872084D01*
X14864787Y-10872084D02*
X14845739Y-10862560D01*
X14845739Y-10862560D02*
X14836215Y-10843512D01*
X14836215Y-10843512D02*
X14836215Y-10672084D01*
X15017168Y-10862560D02*
X14998120Y-10872084D01*
X14998120Y-10872084D02*
X14960025Y-10872084D01*
X14960025Y-10872084D02*
X14940977Y-10862560D01*
X14940977Y-10862560D02*
X14931453Y-10843512D01*
X14931453Y-10843512D02*
X14931453Y-10767322D01*
X14931453Y-10767322D02*
X14940977Y-10748274D01*
X14940977Y-10748274D02*
X14960025Y-10738751D01*
X14960025Y-10738751D02*
X14998120Y-10738751D01*
X14998120Y-10738751D02*
X15017168Y-10748274D01*
X15017168Y-10748274D02*
X15026691Y-10767322D01*
X15026691Y-10767322D02*
X15026691Y-10786370D01*
X15026691Y-10786370D02*
X14931453Y-10805417D01*
X15102882Y-10862560D02*
X15121930Y-10872084D01*
X15121930Y-10872084D02*
X15160025Y-10872084D01*
X15160025Y-10872084D02*
X15179072Y-10862560D01*
X15179072Y-10862560D02*
X15188596Y-10843512D01*
X15188596Y-10843512D02*
X15188596Y-10833989D01*
X15188596Y-10833989D02*
X15179072Y-10814941D01*
X15179072Y-10814941D02*
X15160025Y-10805417D01*
X15160025Y-10805417D02*
X15131453Y-10805417D01*
X15131453Y-10805417D02*
X15112406Y-10795893D01*
X15112406Y-10795893D02*
X15102882Y-10776846D01*
X15102882Y-10776846D02*
X15102882Y-10767322D01*
X15102882Y-10767322D02*
X15112406Y-10748274D01*
X15112406Y-10748274D02*
X15131453Y-10738751D01*
X15131453Y-10738751D02*
X15160025Y-10738751D01*
X15160025Y-10738751D02*
X15179072Y-10748274D01*
X15255263Y-10948274D02*
X15264787Y-10938751D01*
X15264787Y-10938751D02*
X15283834Y-10910179D01*
X15283834Y-10910179D02*
X15293358Y-10891132D01*
X15293358Y-10891132D02*
X15302882Y-10862560D01*
X15302882Y-10862560D02*
X15312406Y-10814941D01*
X15312406Y-10814941D02*
X15312406Y-10776846D01*
X15312406Y-10776846D02*
X15302882Y-10729227D01*
X15302882Y-10729227D02*
X15293358Y-10700655D01*
X15293358Y-10700655D02*
X15283834Y-10681608D01*
X15283834Y-10681608D02*
X15264787Y-10653036D01*
X15264787Y-10653036D02*
X15255263Y-10643512D01*
D12*
X10480200Y-11044600D02*
G75*
G02*
X10405200Y-11044600I-37500J0D01*
G01*
X10405200Y-11044600D02*
G75*
G02*
X10480200Y-11044600I37500J0D01*
G01*
D10*
X10779072Y-10936084D02*
X10798120Y-10936084D01*
X10798120Y-10936084D02*
X10817167Y-10945608D01*
X10817167Y-10945608D02*
X10826691Y-10955132D01*
X10826691Y-10955132D02*
X10836215Y-10974179D01*
X10836215Y-10974179D02*
X10845739Y-11012274D01*
X10845739Y-11012274D02*
X10845739Y-11059893D01*
X10845739Y-11059893D02*
X10836215Y-11097989D01*
X10836215Y-11097989D02*
X10826691Y-11117036D01*
X10826691Y-11117036D02*
X10817167Y-11126560D01*
X10817167Y-11126560D02*
X10798120Y-11136084D01*
X10798120Y-11136084D02*
X10779072Y-11136084D01*
X10779072Y-11136084D02*
X10760024Y-11126560D01*
X10760024Y-11126560D02*
X10750501Y-11117036D01*
X10750501Y-11117036D02*
X10740977Y-11097989D01*
X10740977Y-11097989D02*
X10731453Y-11059893D01*
X10731453Y-11059893D02*
X10731453Y-11012274D01*
X10731453Y-11012274D02*
X10740977Y-10974179D01*
X10740977Y-10974179D02*
X10750501Y-10955132D01*
X10750501Y-10955132D02*
X10760024Y-10945608D01*
X10760024Y-10945608D02*
X10779072Y-10936084D01*
X10931453Y-11117036D02*
X10940977Y-11126560D01*
X10940977Y-11126560D02*
X10931453Y-11136084D01*
X10931453Y-11136084D02*
X10921929Y-11126560D01*
X10921929Y-11126560D02*
X10931453Y-11117036D01*
X10931453Y-11117036D02*
X10931453Y-11136084D01*
X11007644Y-10936084D02*
X11140977Y-10936084D01*
X11140977Y-10936084D02*
X11055263Y-11136084D01*
X11312405Y-10936084D02*
X11217167Y-10936084D01*
X11217167Y-10936084D02*
X11207643Y-11031322D01*
X11207643Y-11031322D02*
X11217167Y-11021798D01*
X11217167Y-11021798D02*
X11236215Y-11012274D01*
X11236215Y-11012274D02*
X11283834Y-11012274D01*
X11283834Y-11012274D02*
X11302882Y-11021798D01*
X11302882Y-11021798D02*
X11312405Y-11031322D01*
X11312405Y-11031322D02*
X11321929Y-11050370D01*
X11321929Y-11050370D02*
X11321929Y-11097989D01*
X11321929Y-11097989D02*
X11312405Y-11117036D01*
X11312405Y-11117036D02*
X11302882Y-11126560D01*
X11302882Y-11126560D02*
X11283834Y-11136084D01*
X11283834Y-11136084D02*
X11236215Y-11136084D01*
X11236215Y-11136084D02*
X11217167Y-11126560D01*
X11217167Y-11126560D02*
X11207643Y-11117036D01*
X11445739Y-10936084D02*
X11464786Y-10936084D01*
X11464786Y-10936084D02*
X11483834Y-10945608D01*
X11483834Y-10945608D02*
X11493358Y-10955132D01*
X11493358Y-10955132D02*
X11502882Y-10974179D01*
X11502882Y-10974179D02*
X11512405Y-11012274D01*
X11512405Y-11012274D02*
X11512405Y-11059893D01*
X11512405Y-11059893D02*
X11502882Y-11097989D01*
X11502882Y-11097989D02*
X11493358Y-11117036D01*
X11493358Y-11117036D02*
X11483834Y-11126560D01*
X11483834Y-11126560D02*
X11464786Y-11136084D01*
X11464786Y-11136084D02*
X11445739Y-11136084D01*
X11445739Y-11136084D02*
X11426691Y-11126560D01*
X11426691Y-11126560D02*
X11417167Y-11117036D01*
X11417167Y-11117036D02*
X11407643Y-11097989D01*
X11407643Y-11097989D02*
X11398120Y-11059893D01*
X11398120Y-11059893D02*
X11398120Y-11012274D01*
X11398120Y-11012274D02*
X11407643Y-10974179D01*
X11407643Y-10974179D02*
X11417167Y-10955132D01*
X11417167Y-10955132D02*
X11426691Y-10945608D01*
X11426691Y-10945608D02*
X11445739Y-10936084D01*
X11598120Y-11136084D02*
X11598120Y-11002751D01*
X11598120Y-11021798D02*
X11607643Y-11012274D01*
X11607643Y-11012274D02*
X11626691Y-11002751D01*
X11626691Y-11002751D02*
X11655263Y-11002751D01*
X11655263Y-11002751D02*
X11674310Y-11012274D01*
X11674310Y-11012274D02*
X11683834Y-11031322D01*
X11683834Y-11031322D02*
X11683834Y-11136084D01*
X11683834Y-11031322D02*
X11693358Y-11012274D01*
X11693358Y-11012274D02*
X11712405Y-11002751D01*
X11712405Y-11002751D02*
X11740977Y-11002751D01*
X11740977Y-11002751D02*
X11760024Y-11012274D01*
X11760024Y-11012274D02*
X11769548Y-11031322D01*
X11769548Y-11031322D02*
X11769548Y-11136084D01*
X11864786Y-11136084D02*
X11864786Y-11002751D01*
X11864786Y-11021798D02*
X11874310Y-11012274D01*
X11874310Y-11012274D02*
X11893358Y-11002751D01*
X11893358Y-11002751D02*
X11921929Y-11002751D01*
X11921929Y-11002751D02*
X11940977Y-11012274D01*
X11940977Y-11012274D02*
X11950501Y-11031322D01*
X11950501Y-11031322D02*
X11950501Y-11136084D01*
X11950501Y-11031322D02*
X11960024Y-11012274D01*
X11960024Y-11012274D02*
X11979072Y-11002751D01*
X11979072Y-11002751D02*
X12007643Y-11002751D01*
X12007643Y-11002751D02*
X12026691Y-11012274D01*
X12026691Y-11012274D02*
X12036215Y-11031322D01*
X12036215Y-11031322D02*
X12036215Y-11136084D01*
X12426691Y-10926560D02*
X12255263Y-11183703D01*
X12683834Y-10936084D02*
X12702882Y-10936084D01*
X12702882Y-10936084D02*
X12721929Y-10945608D01*
X12721929Y-10945608D02*
X12731453Y-10955132D01*
X12731453Y-10955132D02*
X12740977Y-10974179D01*
X12740977Y-10974179D02*
X12750501Y-11012274D01*
X12750501Y-11012274D02*
X12750501Y-11059893D01*
X12750501Y-11059893D02*
X12740977Y-11097989D01*
X12740977Y-11097989D02*
X12731453Y-11117036D01*
X12731453Y-11117036D02*
X12721929Y-11126560D01*
X12721929Y-11126560D02*
X12702882Y-11136084D01*
X12702882Y-11136084D02*
X12683834Y-11136084D01*
X12683834Y-11136084D02*
X12664786Y-11126560D01*
X12664786Y-11126560D02*
X12655263Y-11117036D01*
X12655263Y-11117036D02*
X12645739Y-11097989D01*
X12645739Y-11097989D02*
X12636215Y-11059893D01*
X12636215Y-11059893D02*
X12636215Y-11012274D01*
X12636215Y-11012274D02*
X12645739Y-10974179D01*
X12645739Y-10974179D02*
X12655263Y-10955132D01*
X12655263Y-10955132D02*
X12664786Y-10945608D01*
X12664786Y-10945608D02*
X12683834Y-10936084D01*
X12836215Y-11117036D02*
X12845739Y-11126560D01*
X12845739Y-11126560D02*
X12836215Y-11136084D01*
X12836215Y-11136084D02*
X12826691Y-11126560D01*
X12826691Y-11126560D02*
X12836215Y-11117036D01*
X12836215Y-11117036D02*
X12836215Y-11136084D01*
X12969548Y-10936084D02*
X12988596Y-10936084D01*
X12988596Y-10936084D02*
X13007644Y-10945608D01*
X13007644Y-10945608D02*
X13017167Y-10955132D01*
X13017167Y-10955132D02*
X13026691Y-10974179D01*
X13026691Y-10974179D02*
X13036215Y-11012274D01*
X13036215Y-11012274D02*
X13036215Y-11059893D01*
X13036215Y-11059893D02*
X13026691Y-11097989D01*
X13026691Y-11097989D02*
X13017167Y-11117036D01*
X13017167Y-11117036D02*
X13007644Y-11126560D01*
X13007644Y-11126560D02*
X12988596Y-11136084D01*
X12988596Y-11136084D02*
X12969548Y-11136084D01*
X12969548Y-11136084D02*
X12950501Y-11126560D01*
X12950501Y-11126560D02*
X12940977Y-11117036D01*
X12940977Y-11117036D02*
X12931453Y-11097989D01*
X12931453Y-11097989D02*
X12921929Y-11059893D01*
X12921929Y-11059893D02*
X12921929Y-11012274D01*
X12921929Y-11012274D02*
X12931453Y-10974179D01*
X12931453Y-10974179D02*
X12940977Y-10955132D01*
X12940977Y-10955132D02*
X12950501Y-10945608D01*
X12950501Y-10945608D02*
X12969548Y-10936084D01*
X13112406Y-10955132D02*
X13121929Y-10945608D01*
X13121929Y-10945608D02*
X13140977Y-10936084D01*
X13140977Y-10936084D02*
X13188596Y-10936084D01*
X13188596Y-10936084D02*
X13207644Y-10945608D01*
X13207644Y-10945608D02*
X13217167Y-10955132D01*
X13217167Y-10955132D02*
X13226691Y-10974179D01*
X13226691Y-10974179D02*
X13226691Y-10993227D01*
X13226691Y-10993227D02*
X13217167Y-11021798D01*
X13217167Y-11021798D02*
X13102882Y-11136084D01*
X13102882Y-11136084D02*
X13226691Y-11136084D01*
X13321929Y-11136084D02*
X13360025Y-11136084D01*
X13360025Y-11136084D02*
X13379072Y-11126560D01*
X13379072Y-11126560D02*
X13388596Y-11117036D01*
X13388596Y-11117036D02*
X13407644Y-11088465D01*
X13407644Y-11088465D02*
X13417167Y-11050370D01*
X13417167Y-11050370D02*
X13417167Y-10974179D01*
X13417167Y-10974179D02*
X13407644Y-10955132D01*
X13407644Y-10955132D02*
X13398120Y-10945608D01*
X13398120Y-10945608D02*
X13379072Y-10936084D01*
X13379072Y-10936084D02*
X13340977Y-10936084D01*
X13340977Y-10936084D02*
X13321929Y-10945608D01*
X13321929Y-10945608D02*
X13312406Y-10955132D01*
X13312406Y-10955132D02*
X13302882Y-10974179D01*
X13302882Y-10974179D02*
X13302882Y-11021798D01*
X13302882Y-11021798D02*
X13312406Y-11040846D01*
X13312406Y-11040846D02*
X13321929Y-11050370D01*
X13321929Y-11050370D02*
X13340977Y-11059893D01*
X13340977Y-11059893D02*
X13379072Y-11059893D01*
X13379072Y-11059893D02*
X13398120Y-11050370D01*
X13398120Y-11050370D02*
X13407644Y-11040846D01*
X13407644Y-11040846D02*
X13417167Y-11021798D01*
X13598120Y-10936084D02*
X13502882Y-10936084D01*
X13502882Y-10936084D02*
X13493358Y-11031322D01*
X13493358Y-11031322D02*
X13502882Y-11021798D01*
X13502882Y-11021798D02*
X13521929Y-11012274D01*
X13521929Y-11012274D02*
X13569548Y-11012274D01*
X13569548Y-11012274D02*
X13588596Y-11021798D01*
X13588596Y-11021798D02*
X13598120Y-11031322D01*
X13598120Y-11031322D02*
X13607644Y-11050370D01*
X13607644Y-11050370D02*
X13607644Y-11097989D01*
X13607644Y-11097989D02*
X13598120Y-11117036D01*
X13598120Y-11117036D02*
X13588596Y-11126560D01*
X13588596Y-11126560D02*
X13569548Y-11136084D01*
X13569548Y-11136084D02*
X13521929Y-11136084D01*
X13521929Y-11136084D02*
X13502882Y-11126560D01*
X13502882Y-11126560D02*
X13493358Y-11117036D01*
X13683834Y-10936084D02*
X13683834Y-10974179D01*
X13760025Y-10936084D02*
X13760025Y-10974179D01*
X14055263Y-11212274D02*
X14045739Y-11202750D01*
X14045739Y-11202750D02*
X14026691Y-11174179D01*
X14026691Y-11174179D02*
X14017168Y-11155132D01*
X14017168Y-11155132D02*
X14007644Y-11126560D01*
X14007644Y-11126560D02*
X13998120Y-11078941D01*
X13998120Y-11078941D02*
X13998120Y-11040846D01*
X13998120Y-11040846D02*
X14007644Y-10993227D01*
X14007644Y-10993227D02*
X14017168Y-10964655D01*
X14017168Y-10964655D02*
X14026691Y-10945608D01*
X14026691Y-10945608D02*
X14045739Y-10917036D01*
X14045739Y-10917036D02*
X14055263Y-10907512D01*
X14112406Y-10936084D02*
X14236215Y-10936084D01*
X14236215Y-10936084D02*
X14169548Y-11012274D01*
X14169548Y-11012274D02*
X14198120Y-11012274D01*
X14198120Y-11012274D02*
X14217168Y-11021798D01*
X14217168Y-11021798D02*
X14226691Y-11031322D01*
X14226691Y-11031322D02*
X14236215Y-11050370D01*
X14236215Y-11050370D02*
X14236215Y-11097989D01*
X14236215Y-11097989D02*
X14226691Y-11117036D01*
X14226691Y-11117036D02*
X14217168Y-11126560D01*
X14217168Y-11126560D02*
X14198120Y-11136084D01*
X14198120Y-11136084D02*
X14140977Y-11136084D01*
X14140977Y-11136084D02*
X14121929Y-11126560D01*
X14121929Y-11126560D02*
X14112406Y-11117036D01*
X14474310Y-11136084D02*
X14474310Y-10936084D01*
X14560025Y-11136084D02*
X14560025Y-11031322D01*
X14560025Y-11031322D02*
X14550501Y-11012274D01*
X14550501Y-11012274D02*
X14531453Y-11002751D01*
X14531453Y-11002751D02*
X14502882Y-11002751D01*
X14502882Y-11002751D02*
X14483834Y-11012274D01*
X14483834Y-11012274D02*
X14474310Y-11021798D01*
X14683834Y-11136084D02*
X14664787Y-11126560D01*
X14664787Y-11126560D02*
X14655263Y-11117036D01*
X14655263Y-11117036D02*
X14645739Y-11097989D01*
X14645739Y-11097989D02*
X14645739Y-11040846D01*
X14645739Y-11040846D02*
X14655263Y-11021798D01*
X14655263Y-11021798D02*
X14664787Y-11012274D01*
X14664787Y-11012274D02*
X14683834Y-11002751D01*
X14683834Y-11002751D02*
X14712406Y-11002751D01*
X14712406Y-11002751D02*
X14731453Y-11012274D01*
X14731453Y-11012274D02*
X14740977Y-11021798D01*
X14740977Y-11021798D02*
X14750501Y-11040846D01*
X14750501Y-11040846D02*
X14750501Y-11097989D01*
X14750501Y-11097989D02*
X14740977Y-11117036D01*
X14740977Y-11117036D02*
X14731453Y-11126560D01*
X14731453Y-11126560D02*
X14712406Y-11136084D01*
X14712406Y-11136084D02*
X14683834Y-11136084D01*
X14864787Y-11136084D02*
X14845739Y-11126560D01*
X14845739Y-11126560D02*
X14836215Y-11107512D01*
X14836215Y-11107512D02*
X14836215Y-10936084D01*
X15017168Y-11126560D02*
X14998120Y-11136084D01*
X14998120Y-11136084D02*
X14960025Y-11136084D01*
X14960025Y-11136084D02*
X14940977Y-11126560D01*
X14940977Y-11126560D02*
X14931453Y-11107512D01*
X14931453Y-11107512D02*
X14931453Y-11031322D01*
X14931453Y-11031322D02*
X14940977Y-11012274D01*
X14940977Y-11012274D02*
X14960025Y-11002751D01*
X14960025Y-11002751D02*
X14998120Y-11002751D01*
X14998120Y-11002751D02*
X15017168Y-11012274D01*
X15017168Y-11012274D02*
X15026691Y-11031322D01*
X15026691Y-11031322D02*
X15026691Y-11050370D01*
X15026691Y-11050370D02*
X14931453Y-11069417D01*
X15102882Y-11126560D02*
X15121930Y-11136084D01*
X15121930Y-11136084D02*
X15160025Y-11136084D01*
X15160025Y-11136084D02*
X15179072Y-11126560D01*
X15179072Y-11126560D02*
X15188596Y-11107512D01*
X15188596Y-11107512D02*
X15188596Y-11097989D01*
X15188596Y-11097989D02*
X15179072Y-11078941D01*
X15179072Y-11078941D02*
X15160025Y-11069417D01*
X15160025Y-11069417D02*
X15131453Y-11069417D01*
X15131453Y-11069417D02*
X15112406Y-11059893D01*
X15112406Y-11059893D02*
X15102882Y-11040846D01*
X15102882Y-11040846D02*
X15102882Y-11031322D01*
X15102882Y-11031322D02*
X15112406Y-11012274D01*
X15112406Y-11012274D02*
X15131453Y-11002751D01*
X15131453Y-11002751D02*
X15160025Y-11002751D01*
X15160025Y-11002751D02*
X15179072Y-11012274D01*
X15255263Y-11212274D02*
X15264787Y-11202750D01*
X15264787Y-11202750D02*
X15283834Y-11174179D01*
X15283834Y-11174179D02*
X15293358Y-11155132D01*
X15293358Y-11155132D02*
X15302882Y-11126560D01*
X15302882Y-11126560D02*
X15312406Y-11078941D01*
X15312406Y-11078941D02*
X15312406Y-11040846D01*
X15312406Y-11040846D02*
X15302882Y-10993227D01*
X15302882Y-10993227D02*
X15293358Y-10964655D01*
X15293358Y-10964655D02*
X15283834Y-10945608D01*
X15283834Y-10945608D02*
X15264787Y-10917036D01*
X15264787Y-10917036D02*
X15255263Y-10907512D01*
D12*
X10440200Y-11268600D02*
X10440200Y-11348600D01*
X10400200Y-11308600D02*
X10480200Y-11308600D01*
D10*
X10779072Y-11200084D02*
X10798120Y-11200084D01*
X10798120Y-11200084D02*
X10817167Y-11209608D01*
X10817167Y-11209608D02*
X10826691Y-11219131D01*
X10826691Y-11219131D02*
X10836215Y-11238179D01*
X10836215Y-11238179D02*
X10845739Y-11276274D01*
X10845739Y-11276274D02*
X10845739Y-11323893D01*
X10845739Y-11323893D02*
X10836215Y-11361989D01*
X10836215Y-11361989D02*
X10826691Y-11381036D01*
X10826691Y-11381036D02*
X10817167Y-11390560D01*
X10817167Y-11390560D02*
X10798120Y-11400084D01*
X10798120Y-11400084D02*
X10779072Y-11400084D01*
X10779072Y-11400084D02*
X10760024Y-11390560D01*
X10760024Y-11390560D02*
X10750501Y-11381036D01*
X10750501Y-11381036D02*
X10740977Y-11361989D01*
X10740977Y-11361989D02*
X10731453Y-11323893D01*
X10731453Y-11323893D02*
X10731453Y-11276274D01*
X10731453Y-11276274D02*
X10740977Y-11238179D01*
X10740977Y-11238179D02*
X10750501Y-11219131D01*
X10750501Y-11219131D02*
X10760024Y-11209608D01*
X10760024Y-11209608D02*
X10779072Y-11200084D01*
X10931453Y-11381036D02*
X10940977Y-11390560D01*
X10940977Y-11390560D02*
X10931453Y-11400084D01*
X10931453Y-11400084D02*
X10921929Y-11390560D01*
X10921929Y-11390560D02*
X10931453Y-11381036D01*
X10931453Y-11381036D02*
X10931453Y-11400084D01*
X11055263Y-11285798D02*
X11036215Y-11276274D01*
X11036215Y-11276274D02*
X11026691Y-11266750D01*
X11026691Y-11266750D02*
X11017167Y-11247703D01*
X11017167Y-11247703D02*
X11017167Y-11238179D01*
X11017167Y-11238179D02*
X11026691Y-11219131D01*
X11026691Y-11219131D02*
X11036215Y-11209608D01*
X11036215Y-11209608D02*
X11055263Y-11200084D01*
X11055263Y-11200084D02*
X11093358Y-11200084D01*
X11093358Y-11200084D02*
X11112405Y-11209608D01*
X11112405Y-11209608D02*
X11121929Y-11219131D01*
X11121929Y-11219131D02*
X11131453Y-11238179D01*
X11131453Y-11238179D02*
X11131453Y-11247703D01*
X11131453Y-11247703D02*
X11121929Y-11266750D01*
X11121929Y-11266750D02*
X11112405Y-11276274D01*
X11112405Y-11276274D02*
X11093358Y-11285798D01*
X11093358Y-11285798D02*
X11055263Y-11285798D01*
X11055263Y-11285798D02*
X11036215Y-11295322D01*
X11036215Y-11295322D02*
X11026691Y-11304846D01*
X11026691Y-11304846D02*
X11017167Y-11323893D01*
X11017167Y-11323893D02*
X11017167Y-11361989D01*
X11017167Y-11361989D02*
X11026691Y-11381036D01*
X11026691Y-11381036D02*
X11036215Y-11390560D01*
X11036215Y-11390560D02*
X11055263Y-11400084D01*
X11055263Y-11400084D02*
X11093358Y-11400084D01*
X11093358Y-11400084D02*
X11112405Y-11390560D01*
X11112405Y-11390560D02*
X11121929Y-11381036D01*
X11121929Y-11381036D02*
X11131453Y-11361989D01*
X11131453Y-11361989D02*
X11131453Y-11323893D01*
X11131453Y-11323893D02*
X11121929Y-11304846D01*
X11121929Y-11304846D02*
X11112405Y-11295322D01*
X11112405Y-11295322D02*
X11093358Y-11285798D01*
X11255262Y-11200084D02*
X11274310Y-11200084D01*
X11274310Y-11200084D02*
X11293358Y-11209608D01*
X11293358Y-11209608D02*
X11302882Y-11219131D01*
X11302882Y-11219131D02*
X11312405Y-11238179D01*
X11312405Y-11238179D02*
X11321929Y-11276274D01*
X11321929Y-11276274D02*
X11321929Y-11323893D01*
X11321929Y-11323893D02*
X11312405Y-11361989D01*
X11312405Y-11361989D02*
X11302882Y-11381036D01*
X11302882Y-11381036D02*
X11293358Y-11390560D01*
X11293358Y-11390560D02*
X11274310Y-11400084D01*
X11274310Y-11400084D02*
X11255262Y-11400084D01*
X11255262Y-11400084D02*
X11236215Y-11390560D01*
X11236215Y-11390560D02*
X11226691Y-11381036D01*
X11226691Y-11381036D02*
X11217167Y-11361989D01*
X11217167Y-11361989D02*
X11207643Y-11323893D01*
X11207643Y-11323893D02*
X11207643Y-11276274D01*
X11207643Y-11276274D02*
X11217167Y-11238179D01*
X11217167Y-11238179D02*
X11226691Y-11219131D01*
X11226691Y-11219131D02*
X11236215Y-11209608D01*
X11236215Y-11209608D02*
X11255262Y-11200084D01*
X11445739Y-11200084D02*
X11464786Y-11200084D01*
X11464786Y-11200084D02*
X11483834Y-11209608D01*
X11483834Y-11209608D02*
X11493358Y-11219131D01*
X11493358Y-11219131D02*
X11502882Y-11238179D01*
X11502882Y-11238179D02*
X11512405Y-11276274D01*
X11512405Y-11276274D02*
X11512405Y-11323893D01*
X11512405Y-11323893D02*
X11502882Y-11361989D01*
X11502882Y-11361989D02*
X11493358Y-11381036D01*
X11493358Y-11381036D02*
X11483834Y-11390560D01*
X11483834Y-11390560D02*
X11464786Y-11400084D01*
X11464786Y-11400084D02*
X11445739Y-11400084D01*
X11445739Y-11400084D02*
X11426691Y-11390560D01*
X11426691Y-11390560D02*
X11417167Y-11381036D01*
X11417167Y-11381036D02*
X11407643Y-11361989D01*
X11407643Y-11361989D02*
X11398120Y-11323893D01*
X11398120Y-11323893D02*
X11398120Y-11276274D01*
X11398120Y-11276274D02*
X11407643Y-11238179D01*
X11407643Y-11238179D02*
X11417167Y-11219131D01*
X11417167Y-11219131D02*
X11426691Y-11209608D01*
X11426691Y-11209608D02*
X11445739Y-11200084D01*
X11598120Y-11400084D02*
X11598120Y-11266750D01*
X11598120Y-11285798D02*
X11607643Y-11276274D01*
X11607643Y-11276274D02*
X11626691Y-11266750D01*
X11626691Y-11266750D02*
X11655263Y-11266750D01*
X11655263Y-11266750D02*
X11674310Y-11276274D01*
X11674310Y-11276274D02*
X11683834Y-11295322D01*
X11683834Y-11295322D02*
X11683834Y-11400084D01*
X11683834Y-11295322D02*
X11693358Y-11276274D01*
X11693358Y-11276274D02*
X11712405Y-11266750D01*
X11712405Y-11266750D02*
X11740977Y-11266750D01*
X11740977Y-11266750D02*
X11760024Y-11276274D01*
X11760024Y-11276274D02*
X11769548Y-11295322D01*
X11769548Y-11295322D02*
X11769548Y-11400084D01*
X11864786Y-11400084D02*
X11864786Y-11266750D01*
X11864786Y-11285798D02*
X11874310Y-11276274D01*
X11874310Y-11276274D02*
X11893358Y-11266750D01*
X11893358Y-11266750D02*
X11921929Y-11266750D01*
X11921929Y-11266750D02*
X11940977Y-11276274D01*
X11940977Y-11276274D02*
X11950501Y-11295322D01*
X11950501Y-11295322D02*
X11950501Y-11400084D01*
X11950501Y-11295322D02*
X11960024Y-11276274D01*
X11960024Y-11276274D02*
X11979072Y-11266750D01*
X11979072Y-11266750D02*
X12007643Y-11266750D01*
X12007643Y-11266750D02*
X12026691Y-11276274D01*
X12026691Y-11276274D02*
X12036215Y-11295322D01*
X12036215Y-11295322D02*
X12036215Y-11400084D01*
X12426691Y-11190560D02*
X12255263Y-11447703D01*
X12683834Y-11200084D02*
X12702882Y-11200084D01*
X12702882Y-11200084D02*
X12721929Y-11209608D01*
X12721929Y-11209608D02*
X12731453Y-11219131D01*
X12731453Y-11219131D02*
X12740977Y-11238179D01*
X12740977Y-11238179D02*
X12750501Y-11276274D01*
X12750501Y-11276274D02*
X12750501Y-11323893D01*
X12750501Y-11323893D02*
X12740977Y-11361989D01*
X12740977Y-11361989D02*
X12731453Y-11381036D01*
X12731453Y-11381036D02*
X12721929Y-11390560D01*
X12721929Y-11390560D02*
X12702882Y-11400084D01*
X12702882Y-11400084D02*
X12683834Y-11400084D01*
X12683834Y-11400084D02*
X12664786Y-11390560D01*
X12664786Y-11390560D02*
X12655263Y-11381036D01*
X12655263Y-11381036D02*
X12645739Y-11361989D01*
X12645739Y-11361989D02*
X12636215Y-11323893D01*
X12636215Y-11323893D02*
X12636215Y-11276274D01*
X12636215Y-11276274D02*
X12645739Y-11238179D01*
X12645739Y-11238179D02*
X12655263Y-11219131D01*
X12655263Y-11219131D02*
X12664786Y-11209608D01*
X12664786Y-11209608D02*
X12683834Y-11200084D01*
X12836215Y-11381036D02*
X12845739Y-11390560D01*
X12845739Y-11390560D02*
X12836215Y-11400084D01*
X12836215Y-11400084D02*
X12826691Y-11390560D01*
X12826691Y-11390560D02*
X12836215Y-11381036D01*
X12836215Y-11381036D02*
X12836215Y-11400084D01*
X12969548Y-11200084D02*
X12988596Y-11200084D01*
X12988596Y-11200084D02*
X13007644Y-11209608D01*
X13007644Y-11209608D02*
X13017167Y-11219131D01*
X13017167Y-11219131D02*
X13026691Y-11238179D01*
X13026691Y-11238179D02*
X13036215Y-11276274D01*
X13036215Y-11276274D02*
X13036215Y-11323893D01*
X13036215Y-11323893D02*
X13026691Y-11361989D01*
X13026691Y-11361989D02*
X13017167Y-11381036D01*
X13017167Y-11381036D02*
X13007644Y-11390560D01*
X13007644Y-11390560D02*
X12988596Y-11400084D01*
X12988596Y-11400084D02*
X12969548Y-11400084D01*
X12969548Y-11400084D02*
X12950501Y-11390560D01*
X12950501Y-11390560D02*
X12940977Y-11381036D01*
X12940977Y-11381036D02*
X12931453Y-11361989D01*
X12931453Y-11361989D02*
X12921929Y-11323893D01*
X12921929Y-11323893D02*
X12921929Y-11276274D01*
X12921929Y-11276274D02*
X12931453Y-11238179D01*
X12931453Y-11238179D02*
X12940977Y-11219131D01*
X12940977Y-11219131D02*
X12950501Y-11209608D01*
X12950501Y-11209608D02*
X12969548Y-11200084D01*
X13102882Y-11200084D02*
X13226691Y-11200084D01*
X13226691Y-11200084D02*
X13160025Y-11276274D01*
X13160025Y-11276274D02*
X13188596Y-11276274D01*
X13188596Y-11276274D02*
X13207644Y-11285798D01*
X13207644Y-11285798D02*
X13217167Y-11295322D01*
X13217167Y-11295322D02*
X13226691Y-11314370D01*
X13226691Y-11314370D02*
X13226691Y-11361989D01*
X13226691Y-11361989D02*
X13217167Y-11381036D01*
X13217167Y-11381036D02*
X13207644Y-11390560D01*
X13207644Y-11390560D02*
X13188596Y-11400084D01*
X13188596Y-11400084D02*
X13131453Y-11400084D01*
X13131453Y-11400084D02*
X13112406Y-11390560D01*
X13112406Y-11390560D02*
X13102882Y-11381036D01*
X13417167Y-11400084D02*
X13302882Y-11400084D01*
X13360025Y-11400084D02*
X13360025Y-11200084D01*
X13360025Y-11200084D02*
X13340977Y-11228655D01*
X13340977Y-11228655D02*
X13321929Y-11247703D01*
X13321929Y-11247703D02*
X13302882Y-11257227D01*
X13598120Y-11200084D02*
X13502882Y-11200084D01*
X13502882Y-11200084D02*
X13493358Y-11295322D01*
X13493358Y-11295322D02*
X13502882Y-11285798D01*
X13502882Y-11285798D02*
X13521929Y-11276274D01*
X13521929Y-11276274D02*
X13569548Y-11276274D01*
X13569548Y-11276274D02*
X13588596Y-11285798D01*
X13588596Y-11285798D02*
X13598120Y-11295322D01*
X13598120Y-11295322D02*
X13607644Y-11314370D01*
X13607644Y-11314370D02*
X13607644Y-11361989D01*
X13607644Y-11361989D02*
X13598120Y-11381036D01*
X13598120Y-11381036D02*
X13588596Y-11390560D01*
X13588596Y-11390560D02*
X13569548Y-11400084D01*
X13569548Y-11400084D02*
X13521929Y-11400084D01*
X13521929Y-11400084D02*
X13502882Y-11390560D01*
X13502882Y-11390560D02*
X13493358Y-11381036D01*
X13683834Y-11200084D02*
X13683834Y-11238179D01*
X13760025Y-11200084D02*
X13760025Y-11238179D01*
X14055263Y-11476274D02*
X14045739Y-11466750D01*
X14045739Y-11466750D02*
X14026691Y-11438179D01*
X14026691Y-11438179D02*
X14017168Y-11419131D01*
X14017168Y-11419131D02*
X14007644Y-11390560D01*
X14007644Y-11390560D02*
X13998120Y-11342941D01*
X13998120Y-11342941D02*
X13998120Y-11304846D01*
X13998120Y-11304846D02*
X14007644Y-11257227D01*
X14007644Y-11257227D02*
X14017168Y-11228655D01*
X14017168Y-11228655D02*
X14026691Y-11209608D01*
X14026691Y-11209608D02*
X14045739Y-11181036D01*
X14045739Y-11181036D02*
X14055263Y-11171512D01*
X14121929Y-11219131D02*
X14131453Y-11209608D01*
X14131453Y-11209608D02*
X14150501Y-11200084D01*
X14150501Y-11200084D02*
X14198120Y-11200084D01*
X14198120Y-11200084D02*
X14217168Y-11209608D01*
X14217168Y-11209608D02*
X14226691Y-11219131D01*
X14226691Y-11219131D02*
X14236215Y-11238179D01*
X14236215Y-11238179D02*
X14236215Y-11257227D01*
X14236215Y-11257227D02*
X14226691Y-11285798D01*
X14226691Y-11285798D02*
X14112406Y-11400084D01*
X14112406Y-11400084D02*
X14236215Y-11400084D01*
X14407644Y-11266750D02*
X14407644Y-11400084D01*
X14360025Y-11190560D02*
X14312406Y-11333417D01*
X14312406Y-11333417D02*
X14436215Y-11333417D01*
X14664787Y-11400084D02*
X14664787Y-11200084D01*
X14750501Y-11400084D02*
X14750501Y-11295322D01*
X14750501Y-11295322D02*
X14740977Y-11276274D01*
X14740977Y-11276274D02*
X14721930Y-11266750D01*
X14721930Y-11266750D02*
X14693358Y-11266750D01*
X14693358Y-11266750D02*
X14674310Y-11276274D01*
X14674310Y-11276274D02*
X14664787Y-11285798D01*
X14874310Y-11400084D02*
X14855263Y-11390560D01*
X14855263Y-11390560D02*
X14845739Y-11381036D01*
X14845739Y-11381036D02*
X14836215Y-11361989D01*
X14836215Y-11361989D02*
X14836215Y-11304846D01*
X14836215Y-11304846D02*
X14845739Y-11285798D01*
X14845739Y-11285798D02*
X14855263Y-11276274D01*
X14855263Y-11276274D02*
X14874310Y-11266750D01*
X14874310Y-11266750D02*
X14902882Y-11266750D01*
X14902882Y-11266750D02*
X14921930Y-11276274D01*
X14921930Y-11276274D02*
X14931453Y-11285798D01*
X14931453Y-11285798D02*
X14940977Y-11304846D01*
X14940977Y-11304846D02*
X14940977Y-11361989D01*
X14940977Y-11361989D02*
X14931453Y-11381036D01*
X14931453Y-11381036D02*
X14921930Y-11390560D01*
X14921930Y-11390560D02*
X14902882Y-11400084D01*
X14902882Y-11400084D02*
X14874310Y-11400084D01*
X15055263Y-11400084D02*
X15036215Y-11390560D01*
X15036215Y-11390560D02*
X15026691Y-11371512D01*
X15026691Y-11371512D02*
X15026691Y-11200084D01*
X15207644Y-11390560D02*
X15188596Y-11400084D01*
X15188596Y-11400084D02*
X15150501Y-11400084D01*
X15150501Y-11400084D02*
X15131453Y-11390560D01*
X15131453Y-11390560D02*
X15121930Y-11371512D01*
X15121930Y-11371512D02*
X15121930Y-11295322D01*
X15121930Y-11295322D02*
X15131453Y-11276274D01*
X15131453Y-11276274D02*
X15150501Y-11266750D01*
X15150501Y-11266750D02*
X15188596Y-11266750D01*
X15188596Y-11266750D02*
X15207644Y-11276274D01*
X15207644Y-11276274D02*
X15217168Y-11295322D01*
X15217168Y-11295322D02*
X15217168Y-11314370D01*
X15217168Y-11314370D02*
X15121930Y-11333417D01*
X15293358Y-11390560D02*
X15312406Y-11400084D01*
X15312406Y-11400084D02*
X15350501Y-11400084D01*
X15350501Y-11400084D02*
X15369549Y-11390560D01*
X15369549Y-11390560D02*
X15379072Y-11371512D01*
X15379072Y-11371512D02*
X15379072Y-11361989D01*
X15379072Y-11361989D02*
X15369549Y-11342941D01*
X15369549Y-11342941D02*
X15350501Y-11333417D01*
X15350501Y-11333417D02*
X15321930Y-11333417D01*
X15321930Y-11333417D02*
X15302882Y-11323893D01*
X15302882Y-11323893D02*
X15293358Y-11304846D01*
X15293358Y-11304846D02*
X15293358Y-11295322D01*
X15293358Y-11295322D02*
X15302882Y-11276274D01*
X15302882Y-11276274D02*
X15321930Y-11266750D01*
X15321930Y-11266750D02*
X15350501Y-11266750D01*
X15350501Y-11266750D02*
X15369549Y-11276274D01*
X15445739Y-11476274D02*
X15455263Y-11466750D01*
X15455263Y-11466750D02*
X15474311Y-11438179D01*
X15474311Y-11438179D02*
X15483834Y-11419131D01*
X15483834Y-11419131D02*
X15493358Y-11390560D01*
X15493358Y-11390560D02*
X15502882Y-11342941D01*
X15502882Y-11342941D02*
X15502882Y-11304846D01*
X15502882Y-11304846D02*
X15493358Y-11257227D01*
X15493358Y-11257227D02*
X15483834Y-11228655D01*
X15483834Y-11228655D02*
X15474311Y-11209608D01*
X15474311Y-11209608D02*
X15455263Y-11181036D01*
X15455263Y-11181036D02*
X15445739Y-11171512D01*
D12*
X10465556Y-11607956D02*
X10465556Y-11537244D01*
X10394844Y-11537244D01*
X10394844Y-11607956D01*
X10465556Y-11607956D01*
D10*
X10845739Y-11664084D02*
X10731453Y-11664084D01*
X10788596Y-11664084D02*
X10788596Y-11464084D01*
X10788596Y-11464084D02*
X10769548Y-11492655D01*
X10769548Y-11492655D02*
X10750501Y-11511703D01*
X10750501Y-11511703D02*
X10731453Y-11521227D01*
X10931453Y-11645036D02*
X10940977Y-11654560D01*
X10940977Y-11654560D02*
X10931453Y-11664084D01*
X10931453Y-11664084D02*
X10921929Y-11654560D01*
X10921929Y-11654560D02*
X10931453Y-11645036D01*
X10931453Y-11645036D02*
X10931453Y-11664084D01*
X11064786Y-11464084D02*
X11083834Y-11464084D01*
X11083834Y-11464084D02*
X11102882Y-11473608D01*
X11102882Y-11473608D02*
X11112405Y-11483131D01*
X11112405Y-11483131D02*
X11121929Y-11502179D01*
X11121929Y-11502179D02*
X11131453Y-11540274D01*
X11131453Y-11540274D02*
X11131453Y-11587893D01*
X11131453Y-11587893D02*
X11121929Y-11625989D01*
X11121929Y-11625989D02*
X11112405Y-11645036D01*
X11112405Y-11645036D02*
X11102882Y-11654560D01*
X11102882Y-11654560D02*
X11083834Y-11664084D01*
X11083834Y-11664084D02*
X11064786Y-11664084D01*
X11064786Y-11664084D02*
X11045739Y-11654560D01*
X11045739Y-11654560D02*
X11036215Y-11645036D01*
X11036215Y-11645036D02*
X11026691Y-11625989D01*
X11026691Y-11625989D02*
X11017167Y-11587893D01*
X11017167Y-11587893D02*
X11017167Y-11540274D01*
X11017167Y-11540274D02*
X11026691Y-11502179D01*
X11026691Y-11502179D02*
X11036215Y-11483131D01*
X11036215Y-11483131D02*
X11045739Y-11473608D01*
X11045739Y-11473608D02*
X11064786Y-11464084D01*
X11255262Y-11464084D02*
X11274310Y-11464084D01*
X11274310Y-11464084D02*
X11293358Y-11473608D01*
X11293358Y-11473608D02*
X11302882Y-11483131D01*
X11302882Y-11483131D02*
X11312405Y-11502179D01*
X11312405Y-11502179D02*
X11321929Y-11540274D01*
X11321929Y-11540274D02*
X11321929Y-11587893D01*
X11321929Y-11587893D02*
X11312405Y-11625989D01*
X11312405Y-11625989D02*
X11302882Y-11645036D01*
X11302882Y-11645036D02*
X11293358Y-11654560D01*
X11293358Y-11654560D02*
X11274310Y-11664084D01*
X11274310Y-11664084D02*
X11255262Y-11664084D01*
X11255262Y-11664084D02*
X11236215Y-11654560D01*
X11236215Y-11654560D02*
X11226691Y-11645036D01*
X11226691Y-11645036D02*
X11217167Y-11625989D01*
X11217167Y-11625989D02*
X11207643Y-11587893D01*
X11207643Y-11587893D02*
X11207643Y-11540274D01*
X11207643Y-11540274D02*
X11217167Y-11502179D01*
X11217167Y-11502179D02*
X11226691Y-11483131D01*
X11226691Y-11483131D02*
X11236215Y-11473608D01*
X11236215Y-11473608D02*
X11255262Y-11464084D01*
X11445739Y-11464084D02*
X11464786Y-11464084D01*
X11464786Y-11464084D02*
X11483834Y-11473608D01*
X11483834Y-11473608D02*
X11493358Y-11483131D01*
X11493358Y-11483131D02*
X11502882Y-11502179D01*
X11502882Y-11502179D02*
X11512405Y-11540274D01*
X11512405Y-11540274D02*
X11512405Y-11587893D01*
X11512405Y-11587893D02*
X11502882Y-11625989D01*
X11502882Y-11625989D02*
X11493358Y-11645036D01*
X11493358Y-11645036D02*
X11483834Y-11654560D01*
X11483834Y-11654560D02*
X11464786Y-11664084D01*
X11464786Y-11664084D02*
X11445739Y-11664084D01*
X11445739Y-11664084D02*
X11426691Y-11654560D01*
X11426691Y-11654560D02*
X11417167Y-11645036D01*
X11417167Y-11645036D02*
X11407643Y-11625989D01*
X11407643Y-11625989D02*
X11398120Y-11587893D01*
X11398120Y-11587893D02*
X11398120Y-11540274D01*
X11398120Y-11540274D02*
X11407643Y-11502179D01*
X11407643Y-11502179D02*
X11417167Y-11483131D01*
X11417167Y-11483131D02*
X11426691Y-11473608D01*
X11426691Y-11473608D02*
X11445739Y-11464084D01*
X11598120Y-11664084D02*
X11598120Y-11530750D01*
X11598120Y-11549798D02*
X11607643Y-11540274D01*
X11607643Y-11540274D02*
X11626691Y-11530750D01*
X11626691Y-11530750D02*
X11655263Y-11530750D01*
X11655263Y-11530750D02*
X11674310Y-11540274D01*
X11674310Y-11540274D02*
X11683834Y-11559322D01*
X11683834Y-11559322D02*
X11683834Y-11664084D01*
X11683834Y-11559322D02*
X11693358Y-11540274D01*
X11693358Y-11540274D02*
X11712405Y-11530750D01*
X11712405Y-11530750D02*
X11740977Y-11530750D01*
X11740977Y-11530750D02*
X11760024Y-11540274D01*
X11760024Y-11540274D02*
X11769548Y-11559322D01*
X11769548Y-11559322D02*
X11769548Y-11664084D01*
X11864786Y-11664084D02*
X11864786Y-11530750D01*
X11864786Y-11549798D02*
X11874310Y-11540274D01*
X11874310Y-11540274D02*
X11893358Y-11530750D01*
X11893358Y-11530750D02*
X11921929Y-11530750D01*
X11921929Y-11530750D02*
X11940977Y-11540274D01*
X11940977Y-11540274D02*
X11950501Y-11559322D01*
X11950501Y-11559322D02*
X11950501Y-11664084D01*
X11950501Y-11559322D02*
X11960024Y-11540274D01*
X11960024Y-11540274D02*
X11979072Y-11530750D01*
X11979072Y-11530750D02*
X12007643Y-11530750D01*
X12007643Y-11530750D02*
X12026691Y-11540274D01*
X12026691Y-11540274D02*
X12036215Y-11559322D01*
X12036215Y-11559322D02*
X12036215Y-11664084D01*
X12426691Y-11454560D02*
X12255263Y-11711703D01*
X12683834Y-11464084D02*
X12702882Y-11464084D01*
X12702882Y-11464084D02*
X12721929Y-11473608D01*
X12721929Y-11473608D02*
X12731453Y-11483131D01*
X12731453Y-11483131D02*
X12740977Y-11502179D01*
X12740977Y-11502179D02*
X12750501Y-11540274D01*
X12750501Y-11540274D02*
X12750501Y-11587893D01*
X12750501Y-11587893D02*
X12740977Y-11625989D01*
X12740977Y-11625989D02*
X12731453Y-11645036D01*
X12731453Y-11645036D02*
X12721929Y-11654560D01*
X12721929Y-11654560D02*
X12702882Y-11664084D01*
X12702882Y-11664084D02*
X12683834Y-11664084D01*
X12683834Y-11664084D02*
X12664786Y-11654560D01*
X12664786Y-11654560D02*
X12655263Y-11645036D01*
X12655263Y-11645036D02*
X12645739Y-11625989D01*
X12645739Y-11625989D02*
X12636215Y-11587893D01*
X12636215Y-11587893D02*
X12636215Y-11540274D01*
X12636215Y-11540274D02*
X12645739Y-11502179D01*
X12645739Y-11502179D02*
X12655263Y-11483131D01*
X12655263Y-11483131D02*
X12664786Y-11473608D01*
X12664786Y-11473608D02*
X12683834Y-11464084D01*
X12836215Y-11645036D02*
X12845739Y-11654560D01*
X12845739Y-11654560D02*
X12836215Y-11664084D01*
X12836215Y-11664084D02*
X12826691Y-11654560D01*
X12826691Y-11654560D02*
X12836215Y-11645036D01*
X12836215Y-11645036D02*
X12836215Y-11664084D01*
X12969548Y-11464084D02*
X12988596Y-11464084D01*
X12988596Y-11464084D02*
X13007644Y-11473608D01*
X13007644Y-11473608D02*
X13017167Y-11483131D01*
X13017167Y-11483131D02*
X13026691Y-11502179D01*
X13026691Y-11502179D02*
X13036215Y-11540274D01*
X13036215Y-11540274D02*
X13036215Y-11587893D01*
X13036215Y-11587893D02*
X13026691Y-11625989D01*
X13026691Y-11625989D02*
X13017167Y-11645036D01*
X13017167Y-11645036D02*
X13007644Y-11654560D01*
X13007644Y-11654560D02*
X12988596Y-11664084D01*
X12988596Y-11664084D02*
X12969548Y-11664084D01*
X12969548Y-11664084D02*
X12950501Y-11654560D01*
X12950501Y-11654560D02*
X12940977Y-11645036D01*
X12940977Y-11645036D02*
X12931453Y-11625989D01*
X12931453Y-11625989D02*
X12921929Y-11587893D01*
X12921929Y-11587893D02*
X12921929Y-11540274D01*
X12921929Y-11540274D02*
X12931453Y-11502179D01*
X12931453Y-11502179D02*
X12940977Y-11483131D01*
X12940977Y-11483131D02*
X12950501Y-11473608D01*
X12950501Y-11473608D02*
X12969548Y-11464084D01*
X13102882Y-11464084D02*
X13226691Y-11464084D01*
X13226691Y-11464084D02*
X13160025Y-11540274D01*
X13160025Y-11540274D02*
X13188596Y-11540274D01*
X13188596Y-11540274D02*
X13207644Y-11549798D01*
X13207644Y-11549798D02*
X13217167Y-11559322D01*
X13217167Y-11559322D02*
X13226691Y-11578370D01*
X13226691Y-11578370D02*
X13226691Y-11625989D01*
X13226691Y-11625989D02*
X13217167Y-11645036D01*
X13217167Y-11645036D02*
X13207644Y-11654560D01*
X13207644Y-11654560D02*
X13188596Y-11664084D01*
X13188596Y-11664084D02*
X13131453Y-11664084D01*
X13131453Y-11664084D02*
X13112406Y-11654560D01*
X13112406Y-11654560D02*
X13102882Y-11645036D01*
X13321929Y-11664084D02*
X13360025Y-11664084D01*
X13360025Y-11664084D02*
X13379072Y-11654560D01*
X13379072Y-11654560D02*
X13388596Y-11645036D01*
X13388596Y-11645036D02*
X13407644Y-11616465D01*
X13407644Y-11616465D02*
X13417167Y-11578370D01*
X13417167Y-11578370D02*
X13417167Y-11502179D01*
X13417167Y-11502179D02*
X13407644Y-11483131D01*
X13407644Y-11483131D02*
X13398120Y-11473608D01*
X13398120Y-11473608D02*
X13379072Y-11464084D01*
X13379072Y-11464084D02*
X13340977Y-11464084D01*
X13340977Y-11464084D02*
X13321929Y-11473608D01*
X13321929Y-11473608D02*
X13312406Y-11483131D01*
X13312406Y-11483131D02*
X13302882Y-11502179D01*
X13302882Y-11502179D02*
X13302882Y-11549798D01*
X13302882Y-11549798D02*
X13312406Y-11568846D01*
X13312406Y-11568846D02*
X13321929Y-11578370D01*
X13321929Y-11578370D02*
X13340977Y-11587893D01*
X13340977Y-11587893D02*
X13379072Y-11587893D01*
X13379072Y-11587893D02*
X13398120Y-11578370D01*
X13398120Y-11578370D02*
X13407644Y-11568846D01*
X13407644Y-11568846D02*
X13417167Y-11549798D01*
X13588596Y-11530750D02*
X13588596Y-11664084D01*
X13540977Y-11454560D02*
X13493358Y-11597417D01*
X13493358Y-11597417D02*
X13617167Y-11597417D01*
X13683834Y-11464084D02*
X13683834Y-11502179D01*
X13760025Y-11464084D02*
X13760025Y-11502179D01*
X14055263Y-11740274D02*
X14045739Y-11730750D01*
X14045739Y-11730750D02*
X14026691Y-11702179D01*
X14026691Y-11702179D02*
X14017168Y-11683131D01*
X14017168Y-11683131D02*
X14007644Y-11654560D01*
X14007644Y-11654560D02*
X13998120Y-11606941D01*
X13998120Y-11606941D02*
X13998120Y-11568846D01*
X13998120Y-11568846D02*
X14007644Y-11521227D01*
X14007644Y-11521227D02*
X14017168Y-11492655D01*
X14017168Y-11492655D02*
X14026691Y-11473608D01*
X14026691Y-11473608D02*
X14045739Y-11445036D01*
X14045739Y-11445036D02*
X14055263Y-11435512D01*
X14217168Y-11530750D02*
X14217168Y-11664084D01*
X14169548Y-11454560D02*
X14121929Y-11597417D01*
X14121929Y-11597417D02*
X14245739Y-11597417D01*
X14312406Y-11483131D02*
X14321929Y-11473608D01*
X14321929Y-11473608D02*
X14340977Y-11464084D01*
X14340977Y-11464084D02*
X14388596Y-11464084D01*
X14388596Y-11464084D02*
X14407644Y-11473608D01*
X14407644Y-11473608D02*
X14417168Y-11483131D01*
X14417168Y-11483131D02*
X14426691Y-11502179D01*
X14426691Y-11502179D02*
X14426691Y-11521227D01*
X14426691Y-11521227D02*
X14417168Y-11549798D01*
X14417168Y-11549798D02*
X14302882Y-11664084D01*
X14302882Y-11664084D02*
X14426691Y-11664084D01*
X14664787Y-11664084D02*
X14664787Y-11464084D01*
X14750501Y-11664084D02*
X14750501Y-11559322D01*
X14750501Y-11559322D02*
X14740977Y-11540274D01*
X14740977Y-11540274D02*
X14721930Y-11530750D01*
X14721930Y-11530750D02*
X14693358Y-11530750D01*
X14693358Y-11530750D02*
X14674310Y-11540274D01*
X14674310Y-11540274D02*
X14664787Y-11549798D01*
X14874310Y-11664084D02*
X14855263Y-11654560D01*
X14855263Y-11654560D02*
X14845739Y-11645036D01*
X14845739Y-11645036D02*
X14836215Y-11625989D01*
X14836215Y-11625989D02*
X14836215Y-11568846D01*
X14836215Y-11568846D02*
X14845739Y-11549798D01*
X14845739Y-11549798D02*
X14855263Y-11540274D01*
X14855263Y-11540274D02*
X14874310Y-11530750D01*
X14874310Y-11530750D02*
X14902882Y-11530750D01*
X14902882Y-11530750D02*
X14921930Y-11540274D01*
X14921930Y-11540274D02*
X14931453Y-11549798D01*
X14931453Y-11549798D02*
X14940977Y-11568846D01*
X14940977Y-11568846D02*
X14940977Y-11625989D01*
X14940977Y-11625989D02*
X14931453Y-11645036D01*
X14931453Y-11645036D02*
X14921930Y-11654560D01*
X14921930Y-11654560D02*
X14902882Y-11664084D01*
X14902882Y-11664084D02*
X14874310Y-11664084D01*
X15055263Y-11664084D02*
X15036215Y-11654560D01*
X15036215Y-11654560D02*
X15026691Y-11635512D01*
X15026691Y-11635512D02*
X15026691Y-11464084D01*
X15207644Y-11654560D02*
X15188596Y-11664084D01*
X15188596Y-11664084D02*
X15150501Y-11664084D01*
X15150501Y-11664084D02*
X15131453Y-11654560D01*
X15131453Y-11654560D02*
X15121930Y-11635512D01*
X15121930Y-11635512D02*
X15121930Y-11559322D01*
X15121930Y-11559322D02*
X15131453Y-11540274D01*
X15131453Y-11540274D02*
X15150501Y-11530750D01*
X15150501Y-11530750D02*
X15188596Y-11530750D01*
X15188596Y-11530750D02*
X15207644Y-11540274D01*
X15207644Y-11540274D02*
X15217168Y-11559322D01*
X15217168Y-11559322D02*
X15217168Y-11578370D01*
X15217168Y-11578370D02*
X15121930Y-11597417D01*
X15293358Y-11654560D02*
X15312406Y-11664084D01*
X15312406Y-11664084D02*
X15350501Y-11664084D01*
X15350501Y-11664084D02*
X15369549Y-11654560D01*
X15369549Y-11654560D02*
X15379072Y-11635512D01*
X15379072Y-11635512D02*
X15379072Y-11625989D01*
X15379072Y-11625989D02*
X15369549Y-11606941D01*
X15369549Y-11606941D02*
X15350501Y-11597417D01*
X15350501Y-11597417D02*
X15321930Y-11597417D01*
X15321930Y-11597417D02*
X15302882Y-11587893D01*
X15302882Y-11587893D02*
X15293358Y-11568846D01*
X15293358Y-11568846D02*
X15293358Y-11559322D01*
X15293358Y-11559322D02*
X15302882Y-11540274D01*
X15302882Y-11540274D02*
X15321930Y-11530750D01*
X15321930Y-11530750D02*
X15350501Y-11530750D01*
X15350501Y-11530750D02*
X15369549Y-11540274D01*
X15445739Y-11740274D02*
X15455263Y-11730750D01*
X15455263Y-11730750D02*
X15474311Y-11702179D01*
X15474311Y-11702179D02*
X15483834Y-11683131D01*
X15483834Y-11683131D02*
X15493358Y-11654560D01*
X15493358Y-11654560D02*
X15502882Y-11606941D01*
X15502882Y-11606941D02*
X15502882Y-11568846D01*
X15502882Y-11568846D02*
X15493358Y-11521227D01*
X15493358Y-11521227D02*
X15483834Y-11492655D01*
X15483834Y-11492655D02*
X15474311Y-11473608D01*
X15474311Y-11473608D02*
X15455263Y-11445036D01*
X15455263Y-11445036D02*
X15445739Y-11435512D01*
X10380200Y-11936600D02*
X10480200Y-11836600D01*
X10380200Y-11736600D01*
X10280200Y-11836600D01*
X10380200Y-11936600D01*
X10836215Y-11728084D02*
X10740977Y-11728084D01*
X10740977Y-11728084D02*
X10731453Y-11823322D01*
X10731453Y-11823322D02*
X10740977Y-11813798D01*
X10740977Y-11813798D02*
X10760024Y-11804274D01*
X10760024Y-11804274D02*
X10807644Y-11804274D01*
X10807644Y-11804274D02*
X10826691Y-11813798D01*
X10826691Y-11813798D02*
X10836215Y-11823322D01*
X10836215Y-11823322D02*
X10845739Y-11842370D01*
X10845739Y-11842370D02*
X10845739Y-11889989D01*
X10845739Y-11889989D02*
X10836215Y-11909036D01*
X10836215Y-11909036D02*
X10826691Y-11918560D01*
X10826691Y-11918560D02*
X10807644Y-11928084D01*
X10807644Y-11928084D02*
X10760024Y-11928084D01*
X10760024Y-11928084D02*
X10740977Y-11918560D01*
X10740977Y-11918560D02*
X10731453Y-11909036D01*
X10931453Y-11909036D02*
X10940977Y-11918560D01*
X10940977Y-11918560D02*
X10931453Y-11928084D01*
X10931453Y-11928084D02*
X10921929Y-11918560D01*
X10921929Y-11918560D02*
X10931453Y-11909036D01*
X10931453Y-11909036D02*
X10931453Y-11928084D01*
X11064786Y-11728084D02*
X11083834Y-11728084D01*
X11083834Y-11728084D02*
X11102882Y-11737608D01*
X11102882Y-11737608D02*
X11112405Y-11747131D01*
X11112405Y-11747131D02*
X11121929Y-11766179D01*
X11121929Y-11766179D02*
X11131453Y-11804274D01*
X11131453Y-11804274D02*
X11131453Y-11851893D01*
X11131453Y-11851893D02*
X11121929Y-11889989D01*
X11121929Y-11889989D02*
X11112405Y-11909036D01*
X11112405Y-11909036D02*
X11102882Y-11918560D01*
X11102882Y-11918560D02*
X11083834Y-11928084D01*
X11083834Y-11928084D02*
X11064786Y-11928084D01*
X11064786Y-11928084D02*
X11045739Y-11918560D01*
X11045739Y-11918560D02*
X11036215Y-11909036D01*
X11036215Y-11909036D02*
X11026691Y-11889989D01*
X11026691Y-11889989D02*
X11017167Y-11851893D01*
X11017167Y-11851893D02*
X11017167Y-11804274D01*
X11017167Y-11804274D02*
X11026691Y-11766179D01*
X11026691Y-11766179D02*
X11036215Y-11747131D01*
X11036215Y-11747131D02*
X11045739Y-11737608D01*
X11045739Y-11737608D02*
X11064786Y-11728084D01*
X11255262Y-11728084D02*
X11274310Y-11728084D01*
X11274310Y-11728084D02*
X11293358Y-11737608D01*
X11293358Y-11737608D02*
X11302882Y-11747131D01*
X11302882Y-11747131D02*
X11312405Y-11766179D01*
X11312405Y-11766179D02*
X11321929Y-11804274D01*
X11321929Y-11804274D02*
X11321929Y-11851893D01*
X11321929Y-11851893D02*
X11312405Y-11889989D01*
X11312405Y-11889989D02*
X11302882Y-11909036D01*
X11302882Y-11909036D02*
X11293358Y-11918560D01*
X11293358Y-11918560D02*
X11274310Y-11928084D01*
X11274310Y-11928084D02*
X11255262Y-11928084D01*
X11255262Y-11928084D02*
X11236215Y-11918560D01*
X11236215Y-11918560D02*
X11226691Y-11909036D01*
X11226691Y-11909036D02*
X11217167Y-11889989D01*
X11217167Y-11889989D02*
X11207643Y-11851893D01*
X11207643Y-11851893D02*
X11207643Y-11804274D01*
X11207643Y-11804274D02*
X11217167Y-11766179D01*
X11217167Y-11766179D02*
X11226691Y-11747131D01*
X11226691Y-11747131D02*
X11236215Y-11737608D01*
X11236215Y-11737608D02*
X11255262Y-11728084D01*
X11445739Y-11728084D02*
X11464786Y-11728084D01*
X11464786Y-11728084D02*
X11483834Y-11737608D01*
X11483834Y-11737608D02*
X11493358Y-11747131D01*
X11493358Y-11747131D02*
X11502882Y-11766179D01*
X11502882Y-11766179D02*
X11512405Y-11804274D01*
X11512405Y-11804274D02*
X11512405Y-11851893D01*
X11512405Y-11851893D02*
X11502882Y-11889989D01*
X11502882Y-11889989D02*
X11493358Y-11909036D01*
X11493358Y-11909036D02*
X11483834Y-11918560D01*
X11483834Y-11918560D02*
X11464786Y-11928084D01*
X11464786Y-11928084D02*
X11445739Y-11928084D01*
X11445739Y-11928084D02*
X11426691Y-11918560D01*
X11426691Y-11918560D02*
X11417167Y-11909036D01*
X11417167Y-11909036D02*
X11407643Y-11889989D01*
X11407643Y-11889989D02*
X11398120Y-11851893D01*
X11398120Y-11851893D02*
X11398120Y-11804274D01*
X11398120Y-11804274D02*
X11407643Y-11766179D01*
X11407643Y-11766179D02*
X11417167Y-11747131D01*
X11417167Y-11747131D02*
X11426691Y-11737608D01*
X11426691Y-11737608D02*
X11445739Y-11728084D01*
X11598120Y-11928084D02*
X11598120Y-11794750D01*
X11598120Y-11813798D02*
X11607643Y-11804274D01*
X11607643Y-11804274D02*
X11626691Y-11794750D01*
X11626691Y-11794750D02*
X11655263Y-11794750D01*
X11655263Y-11794750D02*
X11674310Y-11804274D01*
X11674310Y-11804274D02*
X11683834Y-11823322D01*
X11683834Y-11823322D02*
X11683834Y-11928084D01*
X11683834Y-11823322D02*
X11693358Y-11804274D01*
X11693358Y-11804274D02*
X11712405Y-11794750D01*
X11712405Y-11794750D02*
X11740977Y-11794750D01*
X11740977Y-11794750D02*
X11760024Y-11804274D01*
X11760024Y-11804274D02*
X11769548Y-11823322D01*
X11769548Y-11823322D02*
X11769548Y-11928084D01*
X11864786Y-11928084D02*
X11864786Y-11794750D01*
X11864786Y-11813798D02*
X11874310Y-11804274D01*
X11874310Y-11804274D02*
X11893358Y-11794750D01*
X11893358Y-11794750D02*
X11921929Y-11794750D01*
X11921929Y-11794750D02*
X11940977Y-11804274D01*
X11940977Y-11804274D02*
X11950501Y-11823322D01*
X11950501Y-11823322D02*
X11950501Y-11928084D01*
X11950501Y-11823322D02*
X11960024Y-11804274D01*
X11960024Y-11804274D02*
X11979072Y-11794750D01*
X11979072Y-11794750D02*
X12007643Y-11794750D01*
X12007643Y-11794750D02*
X12026691Y-11804274D01*
X12026691Y-11804274D02*
X12036215Y-11823322D01*
X12036215Y-11823322D02*
X12036215Y-11928084D01*
X12426691Y-11718560D02*
X12255263Y-11975703D01*
X12683834Y-11728084D02*
X12702882Y-11728084D01*
X12702882Y-11728084D02*
X12721929Y-11737608D01*
X12721929Y-11737608D02*
X12731453Y-11747131D01*
X12731453Y-11747131D02*
X12740977Y-11766179D01*
X12740977Y-11766179D02*
X12750501Y-11804274D01*
X12750501Y-11804274D02*
X12750501Y-11851893D01*
X12750501Y-11851893D02*
X12740977Y-11889989D01*
X12740977Y-11889989D02*
X12731453Y-11909036D01*
X12731453Y-11909036D02*
X12721929Y-11918560D01*
X12721929Y-11918560D02*
X12702882Y-11928084D01*
X12702882Y-11928084D02*
X12683834Y-11928084D01*
X12683834Y-11928084D02*
X12664786Y-11918560D01*
X12664786Y-11918560D02*
X12655263Y-11909036D01*
X12655263Y-11909036D02*
X12645739Y-11889989D01*
X12645739Y-11889989D02*
X12636215Y-11851893D01*
X12636215Y-11851893D02*
X12636215Y-11804274D01*
X12636215Y-11804274D02*
X12645739Y-11766179D01*
X12645739Y-11766179D02*
X12655263Y-11747131D01*
X12655263Y-11747131D02*
X12664786Y-11737608D01*
X12664786Y-11737608D02*
X12683834Y-11728084D01*
X12836215Y-11909036D02*
X12845739Y-11918560D01*
X12845739Y-11918560D02*
X12836215Y-11928084D01*
X12836215Y-11928084D02*
X12826691Y-11918560D01*
X12826691Y-11918560D02*
X12836215Y-11909036D01*
X12836215Y-11909036D02*
X12836215Y-11928084D01*
X13036215Y-11928084D02*
X12921929Y-11928084D01*
X12979072Y-11928084D02*
X12979072Y-11728084D01*
X12979072Y-11728084D02*
X12960025Y-11756655D01*
X12960025Y-11756655D02*
X12940977Y-11775703D01*
X12940977Y-11775703D02*
X12921929Y-11785227D01*
X13131453Y-11928084D02*
X13169548Y-11928084D01*
X13169548Y-11928084D02*
X13188596Y-11918560D01*
X13188596Y-11918560D02*
X13198120Y-11909036D01*
X13198120Y-11909036D02*
X13217167Y-11880465D01*
X13217167Y-11880465D02*
X13226691Y-11842370D01*
X13226691Y-11842370D02*
X13226691Y-11766179D01*
X13226691Y-11766179D02*
X13217167Y-11747131D01*
X13217167Y-11747131D02*
X13207644Y-11737608D01*
X13207644Y-11737608D02*
X13188596Y-11728084D01*
X13188596Y-11728084D02*
X13150501Y-11728084D01*
X13150501Y-11728084D02*
X13131453Y-11737608D01*
X13131453Y-11737608D02*
X13121929Y-11747131D01*
X13121929Y-11747131D02*
X13112406Y-11766179D01*
X13112406Y-11766179D02*
X13112406Y-11813798D01*
X13112406Y-11813798D02*
X13121929Y-11832846D01*
X13121929Y-11832846D02*
X13131453Y-11842370D01*
X13131453Y-11842370D02*
X13150501Y-11851893D01*
X13150501Y-11851893D02*
X13188596Y-11851893D01*
X13188596Y-11851893D02*
X13207644Y-11842370D01*
X13207644Y-11842370D02*
X13217167Y-11832846D01*
X13217167Y-11832846D02*
X13226691Y-11813798D01*
X13398120Y-11728084D02*
X13360025Y-11728084D01*
X13360025Y-11728084D02*
X13340977Y-11737608D01*
X13340977Y-11737608D02*
X13331453Y-11747131D01*
X13331453Y-11747131D02*
X13312406Y-11775703D01*
X13312406Y-11775703D02*
X13302882Y-11813798D01*
X13302882Y-11813798D02*
X13302882Y-11889989D01*
X13302882Y-11889989D02*
X13312406Y-11909036D01*
X13312406Y-11909036D02*
X13321929Y-11918560D01*
X13321929Y-11918560D02*
X13340977Y-11928084D01*
X13340977Y-11928084D02*
X13379072Y-11928084D01*
X13379072Y-11928084D02*
X13398120Y-11918560D01*
X13398120Y-11918560D02*
X13407644Y-11909036D01*
X13407644Y-11909036D02*
X13417167Y-11889989D01*
X13417167Y-11889989D02*
X13417167Y-11842370D01*
X13417167Y-11842370D02*
X13407644Y-11823322D01*
X13407644Y-11823322D02*
X13398120Y-11813798D01*
X13398120Y-11813798D02*
X13379072Y-11804274D01*
X13379072Y-11804274D02*
X13340977Y-11804274D01*
X13340977Y-11804274D02*
X13321929Y-11813798D01*
X13321929Y-11813798D02*
X13312406Y-11823322D01*
X13312406Y-11823322D02*
X13302882Y-11842370D01*
X13512406Y-11928084D02*
X13550501Y-11928084D01*
X13550501Y-11928084D02*
X13569548Y-11918560D01*
X13569548Y-11918560D02*
X13579072Y-11909036D01*
X13579072Y-11909036D02*
X13598120Y-11880465D01*
X13598120Y-11880465D02*
X13607644Y-11842370D01*
X13607644Y-11842370D02*
X13607644Y-11766179D01*
X13607644Y-11766179D02*
X13598120Y-11747131D01*
X13598120Y-11747131D02*
X13588596Y-11737608D01*
X13588596Y-11737608D02*
X13569548Y-11728084D01*
X13569548Y-11728084D02*
X13531453Y-11728084D01*
X13531453Y-11728084D02*
X13512406Y-11737608D01*
X13512406Y-11737608D02*
X13502882Y-11747131D01*
X13502882Y-11747131D02*
X13493358Y-11766179D01*
X13493358Y-11766179D02*
X13493358Y-11813798D01*
X13493358Y-11813798D02*
X13502882Y-11832846D01*
X13502882Y-11832846D02*
X13512406Y-11842370D01*
X13512406Y-11842370D02*
X13531453Y-11851893D01*
X13531453Y-11851893D02*
X13569548Y-11851893D01*
X13569548Y-11851893D02*
X13588596Y-11842370D01*
X13588596Y-11842370D02*
X13598120Y-11832846D01*
X13598120Y-11832846D02*
X13607644Y-11813798D01*
X13683834Y-11728084D02*
X13683834Y-11766179D01*
X13760025Y-11728084D02*
X13760025Y-11766179D01*
X14055263Y-12004274D02*
X14045739Y-11994750D01*
X14045739Y-11994750D02*
X14026691Y-11966179D01*
X14026691Y-11966179D02*
X14017168Y-11947131D01*
X14017168Y-11947131D02*
X14007644Y-11918560D01*
X14007644Y-11918560D02*
X13998120Y-11870941D01*
X13998120Y-11870941D02*
X13998120Y-11832846D01*
X13998120Y-11832846D02*
X14007644Y-11785227D01*
X14007644Y-11785227D02*
X14017168Y-11756655D01*
X14017168Y-11756655D02*
X14026691Y-11737608D01*
X14026691Y-11737608D02*
X14045739Y-11709036D01*
X14045739Y-11709036D02*
X14055263Y-11699512D01*
X14217168Y-11794750D02*
X14217168Y-11928084D01*
X14169548Y-11718560D02*
X14121929Y-11861417D01*
X14121929Y-11861417D02*
X14245739Y-11861417D01*
X14474310Y-11928084D02*
X14474310Y-11728084D01*
X14560025Y-11928084D02*
X14560025Y-11823322D01*
X14560025Y-11823322D02*
X14550501Y-11804274D01*
X14550501Y-11804274D02*
X14531453Y-11794750D01*
X14531453Y-11794750D02*
X14502882Y-11794750D01*
X14502882Y-11794750D02*
X14483834Y-11804274D01*
X14483834Y-11804274D02*
X14474310Y-11813798D01*
X14683834Y-11928084D02*
X14664787Y-11918560D01*
X14664787Y-11918560D02*
X14655263Y-11909036D01*
X14655263Y-11909036D02*
X14645739Y-11889989D01*
X14645739Y-11889989D02*
X14645739Y-11832846D01*
X14645739Y-11832846D02*
X14655263Y-11813798D01*
X14655263Y-11813798D02*
X14664787Y-11804274D01*
X14664787Y-11804274D02*
X14683834Y-11794750D01*
X14683834Y-11794750D02*
X14712406Y-11794750D01*
X14712406Y-11794750D02*
X14731453Y-11804274D01*
X14731453Y-11804274D02*
X14740977Y-11813798D01*
X14740977Y-11813798D02*
X14750501Y-11832846D01*
X14750501Y-11832846D02*
X14750501Y-11889989D01*
X14750501Y-11889989D02*
X14740977Y-11909036D01*
X14740977Y-11909036D02*
X14731453Y-11918560D01*
X14731453Y-11918560D02*
X14712406Y-11928084D01*
X14712406Y-11928084D02*
X14683834Y-11928084D01*
X14864787Y-11928084D02*
X14845739Y-11918560D01*
X14845739Y-11918560D02*
X14836215Y-11899512D01*
X14836215Y-11899512D02*
X14836215Y-11728084D01*
X15017168Y-11918560D02*
X14998120Y-11928084D01*
X14998120Y-11928084D02*
X14960025Y-11928084D01*
X14960025Y-11928084D02*
X14940977Y-11918560D01*
X14940977Y-11918560D02*
X14931453Y-11899512D01*
X14931453Y-11899512D02*
X14931453Y-11823322D01*
X14931453Y-11823322D02*
X14940977Y-11804274D01*
X14940977Y-11804274D02*
X14960025Y-11794750D01*
X14960025Y-11794750D02*
X14998120Y-11794750D01*
X14998120Y-11794750D02*
X15017168Y-11804274D01*
X15017168Y-11804274D02*
X15026691Y-11823322D01*
X15026691Y-11823322D02*
X15026691Y-11842370D01*
X15026691Y-11842370D02*
X14931453Y-11861417D01*
X15102882Y-11918560D02*
X15121930Y-11928084D01*
X15121930Y-11928084D02*
X15160025Y-11928084D01*
X15160025Y-11928084D02*
X15179072Y-11918560D01*
X15179072Y-11918560D02*
X15188596Y-11899512D01*
X15188596Y-11899512D02*
X15188596Y-11889989D01*
X15188596Y-11889989D02*
X15179072Y-11870941D01*
X15179072Y-11870941D02*
X15160025Y-11861417D01*
X15160025Y-11861417D02*
X15131453Y-11861417D01*
X15131453Y-11861417D02*
X15112406Y-11851893D01*
X15112406Y-11851893D02*
X15102882Y-11832846D01*
X15102882Y-11832846D02*
X15102882Y-11823322D01*
X15102882Y-11823322D02*
X15112406Y-11804274D01*
X15112406Y-11804274D02*
X15131453Y-11794750D01*
X15131453Y-11794750D02*
X15160025Y-11794750D01*
X15160025Y-11794750D02*
X15179072Y-11804274D01*
X15255263Y-12004274D02*
X15264787Y-11994750D01*
X15264787Y-11994750D02*
X15283834Y-11966179D01*
X15283834Y-11966179D02*
X15293358Y-11947131D01*
X15293358Y-11947131D02*
X15302882Y-11918560D01*
X15302882Y-11918560D02*
X15312406Y-11870941D01*
X15312406Y-11870941D02*
X15312406Y-11832846D01*
X15312406Y-11832846D02*
X15302882Y-11785227D01*
X15302882Y-11785227D02*
X15293358Y-11756655D01*
X15293358Y-11756655D02*
X15283834Y-11737608D01*
X15283834Y-11737608D02*
X15264787Y-11709036D01*
X15264787Y-11709036D02*
X15255263Y-11699512D01*
M02*
