%TF.GenerationSoftware,KiCad,Pcbnew,8.0.5*%
%TF.CreationDate,2024-12-03T18:06:49+01:00*%
%TF.ProjectId,Controller 1.4,436f6e74-726f-46c6-9c65-7220312e342e,rev?*%
%TF.SameCoordinates,Original*%
%TF.FileFunction,Copper,L2,Bot*%
%TF.FilePolarity,Positive*%
%FSLAX46Y46*%
G04 Gerber Fmt 4.6, Leading zero omitted, Abs format (unit mm)*
G04 Created by KiCad (PCBNEW 8.0.5) date 2024-12-03 18:06:49*
%MOMM*%
%LPD*%
G01*
G04 APERTURE LIST*
%TA.AperFunction,ComponentPad*%
%ADD10C,5.400000*%
%TD*%
%TA.AperFunction,ConnectorPad*%
%ADD11C,10.000000*%
%TD*%
%TA.AperFunction,ComponentPad*%
%ADD12C,1.600000*%
%TD*%
%TA.AperFunction,ComponentPad*%
%ADD13O,1.600000X1.600000*%
%TD*%
%TA.AperFunction,ComponentPad*%
%ADD14R,1.700000X1.700000*%
%TD*%
%TA.AperFunction,ComponentPad*%
%ADD15O,1.700000X1.700000*%
%TD*%
%TA.AperFunction,ComponentPad*%
%ADD16R,1.050000X1.500000*%
%TD*%
%TA.AperFunction,ComponentPad*%
%ADD17O,1.050000X1.500000*%
%TD*%
%TA.AperFunction,ComponentPad*%
%ADD18R,1.600000X1.600000*%
%TD*%
%TA.AperFunction,ViaPad*%
%ADD19C,0.800000*%
%TD*%
%TA.AperFunction,Conductor*%
%ADD20C,0.300000*%
%TD*%
%TA.AperFunction,Conductor*%
%ADD21C,0.500000*%
%TD*%
G04 APERTURE END LIST*
D10*
%TO.P,H4,1,1*%
%TO.N,Bat_output*%
X111238000Y-50831142D03*
D11*
X111238000Y-50831142D03*
%TD*%
D12*
%TO.P,R6,1*%
%TO.N,Bat_input*%
X147066000Y-70866000D03*
D13*
%TO.P,R6,2*%
%TO.N,A0*%
X154686000Y-70866000D03*
%TD*%
D14*
%TO.P,J4,1,Pin_1*%
%TO.N,D13*%
X117094000Y-94493000D03*
D15*
%TO.P,J4,2,Pin_2*%
%TO.N,Net-(J4-Pin_2)*%
X117094000Y-91953000D03*
%TD*%
D10*
%TO.P,H2,1,1*%
%TO.N,Bat_input*%
X160514000Y-50831142D03*
D11*
X160514000Y-50831142D03*
%TD*%
D12*
%TO.P,R9,1*%
%TO.N,Net-(Q2-B)*%
X131572000Y-71628000D03*
D13*
%TO.P,R9,2*%
%TO.N,GND*%
X139192000Y-71628000D03*
%TD*%
D16*
%TO.P,Q2,1,E*%
%TO.N,Net-(Q2-E)*%
X128524000Y-73660000D03*
D17*
%TO.P,Q2,2,B*%
%TO.N,Net-(Q2-B)*%
X127253999Y-73660000D03*
%TO.P,Q2,3,C*%
%TO.N,Net-(J2-Pin_1)*%
X125984000Y-73660000D03*
%TD*%
D12*
%TO.P,R4,1*%
%TO.N,A5_SCL*%
X157480000Y-71120000D03*
D13*
%TO.P,R4,2*%
%TO.N,+5V*%
X165100000Y-71120000D03*
%TD*%
D14*
%TO.P,J1,1,Pin_1*%
%TO.N,GND*%
X146304001Y-74676000D03*
D15*
%TO.P,J1,2,Pin_2*%
%TO.N,+5V*%
X148844001Y-74676000D03*
%TO.P,J1,3,Pin_3*%
%TO.N,A4_SDA*%
X151384000Y-74676000D03*
%TO.P,J1,4,Pin_4*%
%TO.N,A5_SCL*%
X153924001Y-74676000D03*
%TD*%
D14*
%TO.P,J3,1,Pin_1*%
%TO.N,D2*%
X109500000Y-87525000D03*
D15*
%TO.P,J3,2,Pin_2*%
%TO.N,+5V*%
X109500000Y-84985000D03*
%TD*%
D14*
%TO.P,J1-1,1,Pin_1*%
%TO.N,RX*%
X125983999Y-97282000D03*
D15*
%TO.P,J1-1,2,Pin_2*%
%TO.N,TX*%
X123443999Y-97282000D03*
%TO.P,J1-1,3,Pin_3*%
%TO.N,GND*%
X120904000Y-97282000D03*
%TD*%
D12*
%TO.P,R8,1*%
%TO.N,D3*%
X139192000Y-74930000D03*
D13*
%TO.P,R8,2*%
%TO.N,Net-(Q2-B)*%
X131572000Y-74930000D03*
%TD*%
D12*
%TO.P,R3,1*%
%TO.N,Net-(U1-REF1)*%
X125466000Y-42101142D03*
D13*
%TO.P,R3,2*%
%TO.N,GND*%
X133086000Y-42101142D03*
%TD*%
D12*
%TO.P,R13,1*%
%TO.N,Net-(J4-Pin_2)*%
X117094000Y-88275000D03*
D13*
%TO.P,R13,2*%
%TO.N,GND*%
X117094000Y-80655000D03*
%TD*%
D12*
%TO.P,R11,1*%
%TO.N,Bat_input*%
X139192000Y-68326000D03*
D13*
%TO.P,R11,2*%
%TO.N,Net-(J2-Pin_1)*%
X131572000Y-68326000D03*
%TD*%
D12*
%TO.P,R7,1*%
%TO.N,A0*%
X153010000Y-67600000D03*
D13*
%TO.P,R7,2*%
%TO.N,GND*%
X145390000Y-67600000D03*
%TD*%
D14*
%TO.P,J2,1,Pin_1*%
%TO.N,Net-(J2-Pin_1)*%
X111500000Y-73500000D03*
%TD*%
D12*
%TO.P,R12,1*%
%TO.N,D2*%
X113500000Y-88275000D03*
D13*
%TO.P,R12,2*%
%TO.N,GND*%
X113500000Y-80655000D03*
%TD*%
D10*
%TO.P,H3,1,1*%
%TO.N,GND*%
X111322000Y-63300000D03*
D11*
X111322000Y-63300000D03*
%TD*%
D12*
%TO.P,R2,1*%
%TO.N,Net-(U1-REF1)*%
X125476000Y-46701142D03*
D13*
%TO.P,R2,2*%
%TO.N,+5V*%
X133096000Y-46701142D03*
%TD*%
D10*
%TO.P,H1,1,1*%
%TO.N,GND*%
X160344000Y-63300000D03*
D11*
X160344000Y-63300000D03*
%TD*%
D12*
%TO.P,R1,1*%
%TO.N,+5V*%
X157480000Y-74930000D03*
D13*
%TO.P,R1,2*%
%TO.N,A4_SDA*%
X165100000Y-74930000D03*
%TD*%
D18*
%TO.P,A1,1,D1/TX*%
%TO.N,TX*%
X123444001Y-93726000D03*
D13*
%TO.P,A1,2,D0/RX*%
%TO.N,RX*%
X125984001Y-93726000D03*
%TO.P,A1,3,~{RESET}*%
%TO.N,unconnected-(A1-~{RESET}-Pad3)*%
X128524000Y-93726000D03*
%TO.P,A1,4,GND*%
%TO.N,GND*%
X131064001Y-93726000D03*
%TO.P,A1,5,D2*%
%TO.N,D2*%
X133604001Y-93726000D03*
%TO.P,A1,6,D3*%
%TO.N,D3*%
X136144001Y-93726000D03*
%TO.P,A1,7,D4*%
%TO.N,unconnected-(A1-D4-Pad7)*%
X138684001Y-93726000D03*
%TO.P,A1,8,D5*%
%TO.N,unconnected-(A1-D5-Pad8)*%
X141224002Y-93726000D03*
%TO.P,A1,9,D6*%
%TO.N,unconnected-(A1-D6-Pad9)*%
X143764001Y-93726000D03*
%TO.P,A1,10,D7*%
%TO.N,unconnected-(A1-D7-Pad10)*%
X146304001Y-93726000D03*
%TO.P,A1,11,D8*%
%TO.N,unconnected-(A1-D8-Pad11)*%
X148844001Y-93726000D03*
%TO.P,A1,12,D9*%
%TO.N,unconnected-(A1-D9-Pad12)*%
X151384000Y-93726000D03*
%TO.P,A1,13,D10*%
%TO.N,unconnected-(A1-D10-Pad13)*%
X153924001Y-93726000D03*
%TO.P,A1,14,D11*%
%TO.N,unconnected-(A1-D11-Pad14)*%
X156464001Y-93726000D03*
%TO.P,A1,15,D12*%
%TO.N,unconnected-(A1-D12-Pad15)*%
X159004001Y-93726000D03*
%TO.P,A1,16,D13*%
%TO.N,D13*%
X159004001Y-78486000D03*
%TO.P,A1,17,3V3*%
%TO.N,unconnected-(A1-3V3-Pad17)*%
X156464001Y-78486000D03*
%TO.P,A1,18,AREF*%
%TO.N,unconnected-(A1-AREF-Pad18)*%
X153924001Y-78486000D03*
%TO.P,A1,19,A0*%
%TO.N,A0*%
X151384001Y-78486000D03*
%TO.P,A1,20,A1*%
%TO.N,unconnected-(A1-A1-Pad20)*%
X148844001Y-78486000D03*
%TO.P,A1,21,A2*%
%TO.N,unconnected-(A1-A2-Pad21)*%
X146304001Y-78486000D03*
%TO.P,A1,22,A3*%
%TO.N,unconnected-(A1-A3-Pad22)*%
X143764001Y-78486000D03*
%TO.P,A1,23,A4*%
%TO.N,A4_SDA*%
X141224001Y-78486000D03*
%TO.P,A1,24,A5*%
%TO.N,A5_SCL*%
X138684001Y-78486000D03*
%TO.P,A1,25,A6*%
%TO.N,unconnected-(A1-A6-Pad25)*%
X136144001Y-78486000D03*
%TO.P,A1,26,A7*%
%TO.N,A7*%
X133604001Y-78486000D03*
%TO.P,A1,27,+5V*%
%TO.N,+5V*%
X131064001Y-78486000D03*
%TO.P,A1,28,~{RESET}*%
%TO.N,unconnected-(A1-~{RESET}-Pad28)*%
X128524001Y-78486000D03*
%TO.P,A1,29,GND*%
%TO.N,GND*%
X125984001Y-78486000D03*
%TO.P,A1,30,VIN*%
%TO.N,unconnected-(A1-VIN-Pad30)*%
X123444001Y-78486000D03*
%TD*%
D12*
%TO.P,R10,1*%
%TO.N,Net-(Q2-E)*%
X120904000Y-67818000D03*
D13*
%TO.P,R10,2*%
%TO.N,GND*%
X120904000Y-75438000D03*
%TD*%
D19*
%TO.N,A7*%
X137858000Y-47942000D03*
%TO.N,GND*%
X143800000Y-76400000D03*
X143551093Y-43536049D03*
%TD*%
D20*
%TO.N,A5_SCL*%
X153924001Y-74676000D02*
X157480000Y-71120001D01*
D21*
%TO.N,A7*%
X133604000Y-78485999D02*
X133604001Y-78486000D01*
X137160000Y-74930001D02*
X133604001Y-78486000D01*
X137858000Y-47942000D02*
X137160000Y-48640000D01*
X137160000Y-48640000D02*
X137160000Y-74930001D01*
%TO.N,D3*%
X137434001Y-92436000D02*
X136144001Y-93726000D01*
X137434001Y-76687999D02*
X137434001Y-92436000D01*
X139192000Y-74930000D02*
X137434001Y-76687999D01*
%TO.N,D2*%
X133604001Y-90204001D02*
X130400000Y-87000000D01*
X110025000Y-87000000D02*
X109500000Y-87525000D01*
X113500000Y-87000000D02*
X113500000Y-88310000D01*
X133604001Y-93726000D02*
X133604001Y-90204001D01*
X113500000Y-87000000D02*
X110025000Y-87000000D01*
X130400000Y-87000000D02*
X113500000Y-87000000D01*
D20*
%TO.N,A4_SDA*%
X163530000Y-76500000D02*
X165100000Y-74930000D01*
X153208000Y-76500000D02*
X163530000Y-76500000D01*
X151384000Y-74676000D02*
X153208000Y-76500000D01*
D21*
%TO.N,+5V*%
X131064001Y-78486000D02*
X134436000Y-75114001D01*
X133096000Y-47111142D02*
X133096000Y-46701142D01*
X134436000Y-48451142D02*
X133096000Y-47111142D01*
X134436000Y-75114001D02*
X134436000Y-48451142D01*
%TO.N,Bat_input*%
X150200000Y-67732000D02*
X150200000Y-61145142D01*
X147066000Y-70866000D02*
X150200000Y-67732000D01*
X150200000Y-61145142D02*
X160514000Y-50831142D01*
%TO.N,Net-(J2-Pin_1)*%
X125984000Y-70866000D02*
X128524000Y-68326000D01*
X128524000Y-68326000D02*
X131572000Y-68326000D01*
X125984000Y-73660000D02*
X125984000Y-70866000D01*
%TO.N,Net-(Q2-B)*%
X127253999Y-73660000D02*
X127253999Y-74564999D01*
X127253999Y-74564999D02*
X128381000Y-75692000D01*
X131572000Y-74930000D02*
X131572000Y-71628000D01*
X128381000Y-75692000D02*
X130810000Y-75692000D01*
X130810000Y-75692000D02*
X131572000Y-74930000D01*
%TD*%
%TA.AperFunction,Conductor*%
%TO.N,GND*%
G36*
X164402957Y-39306015D02*
G01*
X164558542Y-39308450D01*
X164572783Y-39309495D01*
X164882224Y-39350234D01*
X164898103Y-39353392D01*
X165198650Y-39433923D01*
X165214005Y-39439136D01*
X165501450Y-39558200D01*
X165515997Y-39565374D01*
X165785440Y-39720937D01*
X165798926Y-39729948D01*
X166045761Y-39919351D01*
X166057956Y-39930046D01*
X166277953Y-40150043D01*
X166288648Y-40162238D01*
X166478051Y-40409073D01*
X166487062Y-40422559D01*
X166642625Y-40692002D01*
X166649799Y-40706549D01*
X166768863Y-40993994D01*
X166774077Y-41009353D01*
X166798660Y-41101096D01*
X166834370Y-41234371D01*
X166854603Y-41309879D01*
X166857767Y-41325788D01*
X166898503Y-41635214D01*
X166899549Y-41649459D01*
X166901984Y-41805042D01*
X166901999Y-41806982D01*
X166901999Y-98805015D01*
X166901982Y-98807041D01*
X166899440Y-98962572D01*
X166898396Y-98976731D01*
X166857655Y-99286190D01*
X166854491Y-99302098D01*
X166773969Y-99602611D01*
X166768755Y-99617971D01*
X166649697Y-99905401D01*
X166642523Y-99919948D01*
X166486967Y-100189378D01*
X166477956Y-100202864D01*
X166288562Y-100449687D01*
X166277867Y-100461882D01*
X166057881Y-100681868D01*
X166045686Y-100692563D01*
X165798862Y-100881957D01*
X165785376Y-100890968D01*
X165515946Y-101046524D01*
X165501398Y-101053698D01*
X165213969Y-101172754D01*
X165198611Y-101177968D01*
X164898095Y-101258492D01*
X164882186Y-101261656D01*
X164572728Y-101302397D01*
X164558570Y-101303441D01*
X164403039Y-101305984D01*
X164401012Y-101306001D01*
X107402984Y-101306001D01*
X107401043Y-101305986D01*
X107245458Y-101303550D01*
X107231214Y-101302504D01*
X106921788Y-101261768D01*
X106905884Y-101258605D01*
X106755616Y-101218341D01*
X106605353Y-101178078D01*
X106589994Y-101172864D01*
X106302549Y-101053800D01*
X106288002Y-101046626D01*
X106018559Y-100891063D01*
X106005073Y-100882052D01*
X105758237Y-100692649D01*
X105746042Y-100681954D01*
X105526049Y-100461960D01*
X105515354Y-100449766D01*
X105515293Y-100449687D01*
X105325939Y-100202917D01*
X105316938Y-100189444D01*
X105161373Y-99919998D01*
X105154199Y-99905450D01*
X105035137Y-99618007D01*
X105029923Y-99602649D01*
X105014400Y-99544718D01*
X104949393Y-99302110D01*
X104946232Y-99286219D01*
X104905494Y-98976784D01*
X104904449Y-98962541D01*
X104902015Y-98806958D01*
X104902000Y-98805018D01*
X104902000Y-98688115D01*
X106054566Y-98688115D01*
X106054566Y-98923886D01*
X106095508Y-99156074D01*
X106176145Y-99377623D01*
X106176148Y-99377630D01*
X106294030Y-99581807D01*
X106294032Y-99581811D01*
X106361771Y-99662538D01*
X106445581Y-99762419D01*
X106564612Y-99862298D01*
X106626188Y-99913967D01*
X106626189Y-99913967D01*
X106626191Y-99913969D01*
X106830374Y-100031854D01*
X107051926Y-100112492D01*
X107284114Y-100153434D01*
X107519882Y-100153434D01*
X107519884Y-100153434D01*
X107752072Y-100112492D01*
X107973624Y-100031854D01*
X108177807Y-99913969D01*
X108358417Y-99762419D01*
X108509967Y-99581809D01*
X108627852Y-99377626D01*
X108708490Y-99156074D01*
X108749432Y-98923886D01*
X108752000Y-98806001D01*
X108749432Y-98688116D01*
X108749432Y-98688115D01*
X163054567Y-98688115D01*
X163054567Y-98923886D01*
X163095509Y-99156074D01*
X163176146Y-99377623D01*
X163176149Y-99377630D01*
X163294031Y-99581807D01*
X163294033Y-99581811D01*
X163361772Y-99662538D01*
X163445582Y-99762419D01*
X163564613Y-99862298D01*
X163626189Y-99913967D01*
X163626190Y-99913967D01*
X163626192Y-99913969D01*
X163830375Y-100031854D01*
X164051927Y-100112492D01*
X164284115Y-100153434D01*
X164519883Y-100153434D01*
X164519885Y-100153434D01*
X164752073Y-100112492D01*
X164973625Y-100031854D01*
X165177808Y-99913969D01*
X165358418Y-99762419D01*
X165509968Y-99581809D01*
X165627853Y-99377626D01*
X165708491Y-99156074D01*
X165749433Y-98923886D01*
X165752001Y-98806001D01*
X165749433Y-98688116D01*
X165708491Y-98455928D01*
X165627853Y-98234376D01*
X165509968Y-98030193D01*
X165509966Y-98030191D01*
X165509966Y-98030190D01*
X165441092Y-97948110D01*
X165358418Y-97849583D01*
X165258537Y-97765773D01*
X165177810Y-97698034D01*
X165177806Y-97698032D01*
X164973629Y-97580150D01*
X164973626Y-97580149D01*
X164973625Y-97580148D01*
X164752073Y-97499510D01*
X164519885Y-97458568D01*
X164284114Y-97458568D01*
X164051926Y-97499510D01*
X163830377Y-97580147D01*
X163830370Y-97580150D01*
X163626193Y-97698032D01*
X163626189Y-97698034D01*
X163445582Y-97849583D01*
X163294033Y-98030190D01*
X163294031Y-98030194D01*
X163176149Y-98234371D01*
X163176146Y-98234378D01*
X163095509Y-98455927D01*
X163054567Y-98688115D01*
X108749432Y-98688115D01*
X108708490Y-98455928D01*
X108627852Y-98234376D01*
X108509967Y-98030193D01*
X108509965Y-98030191D01*
X108509965Y-98030190D01*
X108441091Y-97948110D01*
X108358417Y-97849583D01*
X108258536Y-97765773D01*
X108177809Y-97698034D01*
X108177805Y-97698032D01*
X107973628Y-97580150D01*
X107973625Y-97580149D01*
X107973624Y-97580148D01*
X107752072Y-97499510D01*
X107519884Y-97458568D01*
X107284113Y-97458568D01*
X107051925Y-97499510D01*
X106830376Y-97580147D01*
X106830369Y-97580150D01*
X106626192Y-97698032D01*
X106626188Y-97698034D01*
X106445581Y-97849583D01*
X106294032Y-98030190D01*
X106294030Y-98030194D01*
X106176148Y-98234371D01*
X106176145Y-98234378D01*
X106095508Y-98455927D01*
X106054566Y-98688115D01*
X104902000Y-98688115D01*
X104902000Y-97031999D01*
X119573364Y-97031999D01*
X119573364Y-97032000D01*
X120470988Y-97032000D01*
X120438075Y-97089007D01*
X120404000Y-97216174D01*
X120404000Y-97347826D01*
X120438075Y-97474993D01*
X120470988Y-97532000D01*
X119573364Y-97532000D01*
X119630567Y-97745486D01*
X119630570Y-97745492D01*
X119730399Y-97959578D01*
X119865894Y-98153082D01*
X120032917Y-98320105D01*
X120226421Y-98455600D01*
X120440507Y-98555429D01*
X120440516Y-98555433D01*
X120654000Y-98612634D01*
X120654000Y-97715012D01*
X120711007Y-97747925D01*
X120838174Y-97782000D01*
X120969826Y-97782000D01*
X121096993Y-97747925D01*
X121154000Y-97715012D01*
X121154000Y-98612633D01*
X121367483Y-98555433D01*
X121367492Y-98555429D01*
X121581578Y-98455600D01*
X121775082Y-98320105D01*
X121942105Y-98153082D01*
X122072119Y-97967405D01*
X122126696Y-97923781D01*
X122196195Y-97916588D01*
X122258549Y-97948110D01*
X122275269Y-97967406D01*
X122405280Y-98153082D01*
X122405504Y-98153401D01*
X122572598Y-98320495D01*
X122669383Y-98388265D01*
X122766164Y-98456032D01*
X122766166Y-98456033D01*
X122766169Y-98456035D01*
X122980336Y-98555903D01*
X123208591Y-98617063D01*
X123385033Y-98632500D01*
X123443998Y-98637659D01*
X123443999Y-98637659D01*
X123444000Y-98637659D01*
X123502965Y-98632500D01*
X123679407Y-98617063D01*
X123907662Y-98555903D01*
X124121829Y-98456035D01*
X124315400Y-98320495D01*
X124437328Y-98198566D01*
X124498647Y-98165084D01*
X124568339Y-98170068D01*
X124624273Y-98211939D01*
X124641188Y-98242917D01*
X124690201Y-98374328D01*
X124690205Y-98374335D01*
X124776451Y-98489544D01*
X124776454Y-98489547D01*
X124891663Y-98575793D01*
X124891670Y-98575797D01*
X125026516Y-98626091D01*
X125026515Y-98626091D01*
X125033443Y-98626835D01*
X125086126Y-98632500D01*
X126881871Y-98632499D01*
X126941482Y-98626091D01*
X127076330Y-98575796D01*
X127191545Y-98489546D01*
X127277795Y-98374331D01*
X127328090Y-98239483D01*
X127334499Y-98179873D01*
X127334498Y-96384128D01*
X127328090Y-96324517D01*
X127326809Y-96321083D01*
X127277796Y-96189671D01*
X127277792Y-96189664D01*
X127191546Y-96074455D01*
X127191543Y-96074452D01*
X127076334Y-95988206D01*
X127076327Y-95988202D01*
X126941481Y-95937908D01*
X126941482Y-95937908D01*
X126881882Y-95931501D01*
X126881880Y-95931500D01*
X126881872Y-95931500D01*
X126881863Y-95931500D01*
X125086128Y-95931500D01*
X125086122Y-95931501D01*
X125026515Y-95937908D01*
X124891670Y-95988202D01*
X124891663Y-95988206D01*
X124776454Y-96074452D01*
X124776451Y-96074455D01*
X124690205Y-96189664D01*
X124690202Y-96189669D01*
X124641188Y-96321083D01*
X124599316Y-96377016D01*
X124533852Y-96401433D01*
X124465579Y-96386581D01*
X124437325Y-96365430D01*
X124315401Y-96243506D01*
X124315394Y-96243501D01*
X124121833Y-96107967D01*
X124121829Y-96107965D01*
X124121827Y-96107964D01*
X123907662Y-96008097D01*
X123907658Y-96008096D01*
X123907654Y-96008094D01*
X123679412Y-95946938D01*
X123679402Y-95946936D01*
X123444000Y-95926341D01*
X123443998Y-95926341D01*
X123208595Y-95946936D01*
X123208585Y-95946938D01*
X122980343Y-96008094D01*
X122980334Y-96008098D01*
X122766170Y-96107964D01*
X122766168Y-96107965D01*
X122572596Y-96243505D01*
X122405504Y-96410597D01*
X122275269Y-96596594D01*
X122220692Y-96640219D01*
X122151194Y-96647413D01*
X122088839Y-96615890D01*
X122072119Y-96596594D01*
X121942113Y-96410926D01*
X121942108Y-96410920D01*
X121775082Y-96243894D01*
X121581578Y-96108399D01*
X121367492Y-96008570D01*
X121367486Y-96008567D01*
X121154000Y-95951364D01*
X121154000Y-96848988D01*
X121096993Y-96816075D01*
X120969826Y-96782000D01*
X120838174Y-96782000D01*
X120711007Y-96816075D01*
X120654000Y-96848988D01*
X120654000Y-95951364D01*
X120653999Y-95951364D01*
X120440513Y-96008567D01*
X120440507Y-96008570D01*
X120226422Y-96108399D01*
X120226420Y-96108400D01*
X120032926Y-96243886D01*
X120032920Y-96243891D01*
X119865891Y-96410920D01*
X119865886Y-96410926D01*
X119730400Y-96604420D01*
X119730399Y-96604422D01*
X119630570Y-96818507D01*
X119630567Y-96818513D01*
X119573364Y-97031999D01*
X104902000Y-97031999D01*
X104902000Y-91952999D01*
X115738341Y-91952999D01*
X115738341Y-91953000D01*
X115758936Y-92188403D01*
X115758938Y-92188413D01*
X115820094Y-92416655D01*
X115820096Y-92416659D01*
X115820097Y-92416663D01*
X115858834Y-92499734D01*
X115919965Y-92630830D01*
X115919967Y-92630834D01*
X115986843Y-92726342D01*
X116055501Y-92824396D01*
X116055506Y-92824402D01*
X116177430Y-92946326D01*
X116210915Y-93007649D01*
X116205931Y-93077341D01*
X116164059Y-93133274D01*
X116133083Y-93150189D01*
X116001669Y-93199203D01*
X116001664Y-93199206D01*
X115886455Y-93285452D01*
X115886452Y-93285455D01*
X115800206Y-93400664D01*
X115800202Y-93400671D01*
X115749908Y-93535517D01*
X115743501Y-93595116D01*
X115743501Y-93595123D01*
X115743500Y-93595135D01*
X115743500Y-95390870D01*
X115743501Y-95390876D01*
X115749908Y-95450483D01*
X115800202Y-95585328D01*
X115800206Y-95585335D01*
X115886452Y-95700544D01*
X115886455Y-95700547D01*
X116001664Y-95786793D01*
X116001671Y-95786797D01*
X116136517Y-95837091D01*
X116136516Y-95837091D01*
X116143444Y-95837835D01*
X116196127Y-95843500D01*
X117991872Y-95843499D01*
X118051483Y-95837091D01*
X118186331Y-95786796D01*
X118301546Y-95700546D01*
X118387796Y-95585331D01*
X118438091Y-95450483D01*
X118444500Y-95390873D01*
X118444499Y-93595128D01*
X118438091Y-93535517D01*
X118402822Y-93440957D01*
X118387797Y-93400671D01*
X118387793Y-93400664D01*
X118301547Y-93285455D01*
X118301544Y-93285452D01*
X118186335Y-93199206D01*
X118186328Y-93199202D01*
X118054917Y-93150189D01*
X117998983Y-93108318D01*
X117974566Y-93042853D01*
X117989418Y-92974580D01*
X118010563Y-92946332D01*
X118132495Y-92824401D01*
X118268035Y-92630830D01*
X118367903Y-92416663D01*
X118429063Y-92188408D01*
X118449659Y-91953000D01*
X118429063Y-91717592D01*
X118367903Y-91489337D01*
X118268035Y-91275171D01*
X118132495Y-91081599D01*
X118132494Y-91081597D01*
X117965402Y-90914506D01*
X117965395Y-90914501D01*
X117771834Y-90778967D01*
X117771830Y-90778965D01*
X117771828Y-90778964D01*
X117557663Y-90679097D01*
X117557659Y-90679096D01*
X117557655Y-90679094D01*
X117329413Y-90617938D01*
X117329403Y-90617936D01*
X117094001Y-90597341D01*
X117093999Y-90597341D01*
X116858596Y-90617936D01*
X116858586Y-90617938D01*
X116630344Y-90679094D01*
X116630335Y-90679098D01*
X116416171Y-90778964D01*
X116416169Y-90778965D01*
X116222597Y-90914505D01*
X116055505Y-91081597D01*
X115919965Y-91275169D01*
X115919964Y-91275171D01*
X115820098Y-91489335D01*
X115820094Y-91489344D01*
X115758938Y-91717586D01*
X115758936Y-91717596D01*
X115738341Y-91952999D01*
X104902000Y-91952999D01*
X104902000Y-84984999D01*
X108144341Y-84984999D01*
X108144341Y-84985000D01*
X108164936Y-85220403D01*
X108164938Y-85220413D01*
X108226094Y-85448655D01*
X108226096Y-85448659D01*
X108226097Y-85448663D01*
X108325965Y-85662830D01*
X108325967Y-85662834D01*
X108434281Y-85817521D01*
X108461501Y-85856396D01*
X108461506Y-85856402D01*
X108583430Y-85978326D01*
X108616915Y-86039649D01*
X108611931Y-86109341D01*
X108570059Y-86165274D01*
X108539083Y-86182189D01*
X108407669Y-86231203D01*
X108407664Y-86231206D01*
X108292455Y-86317452D01*
X108292452Y-86317455D01*
X108206206Y-86432664D01*
X108206202Y-86432671D01*
X108155908Y-86567517D01*
X108149501Y-86627116D01*
X108149500Y-86627135D01*
X108149500Y-88422870D01*
X108149501Y-88422876D01*
X108155908Y-88482483D01*
X108206202Y-88617328D01*
X108206206Y-88617335D01*
X108292452Y-88732544D01*
X108292455Y-88732547D01*
X108407664Y-88818793D01*
X108407671Y-88818797D01*
X108542517Y-88869091D01*
X108542516Y-88869091D01*
X108549444Y-88869835D01*
X108602127Y-88875500D01*
X110397872Y-88875499D01*
X110457483Y-88869091D01*
X110592331Y-88818796D01*
X110707546Y-88732546D01*
X110793796Y-88617331D01*
X110844091Y-88482483D01*
X110850500Y-88422873D01*
X110850500Y-87874500D01*
X110870185Y-87807461D01*
X110922989Y-87761706D01*
X110974500Y-87750500D01*
X112132562Y-87750500D01*
X112199601Y-87770185D01*
X112245356Y-87822989D01*
X112255300Y-87892147D01*
X112252337Y-87906593D01*
X112214366Y-88048302D01*
X112214364Y-88048313D01*
X112194532Y-88274998D01*
X112194532Y-88275001D01*
X112214364Y-88501686D01*
X112214366Y-88501697D01*
X112273258Y-88721488D01*
X112273261Y-88721497D01*
X112369431Y-88927732D01*
X112369432Y-88927734D01*
X112499954Y-89114141D01*
X112660858Y-89275045D01*
X112660861Y-89275047D01*
X112847266Y-89405568D01*
X113053504Y-89501739D01*
X113273308Y-89560635D01*
X113435230Y-89574801D01*
X113499998Y-89580468D01*
X113500000Y-89580468D01*
X113500002Y-89580468D01*
X113556673Y-89575509D01*
X113726692Y-89560635D01*
X113946496Y-89501739D01*
X114152734Y-89405568D01*
X114339139Y-89275047D01*
X114500047Y-89114139D01*
X114630568Y-88927734D01*
X114726739Y-88721496D01*
X114785635Y-88501692D01*
X114805468Y-88275000D01*
X114785635Y-88048308D01*
X114747663Y-87906593D01*
X114749326Y-87836743D01*
X114788489Y-87778881D01*
X114852717Y-87751377D01*
X114867438Y-87750500D01*
X115726562Y-87750500D01*
X115793601Y-87770185D01*
X115839356Y-87822989D01*
X115849300Y-87892147D01*
X115846337Y-87906593D01*
X115808366Y-88048302D01*
X115808364Y-88048313D01*
X115788532Y-88274998D01*
X115788532Y-88275001D01*
X115808364Y-88501686D01*
X115808366Y-88501697D01*
X115867258Y-88721488D01*
X115867261Y-88721497D01*
X115963431Y-88927732D01*
X115963432Y-88927734D01*
X116093954Y-89114141D01*
X116254858Y-89275045D01*
X116254861Y-89275047D01*
X116441266Y-89405568D01*
X116647504Y-89501739D01*
X116867308Y-89560635D01*
X117029230Y-89574801D01*
X117093998Y-89580468D01*
X117094000Y-89580468D01*
X117094002Y-89580468D01*
X117150673Y-89575509D01*
X117320692Y-89560635D01*
X117540496Y-89501739D01*
X117746734Y-89405568D01*
X117933139Y-89275047D01*
X118094047Y-89114139D01*
X118224568Y-88927734D01*
X118320739Y-88721496D01*
X118379635Y-88501692D01*
X118399468Y-88275000D01*
X118379635Y-88048308D01*
X118341663Y-87906593D01*
X118343326Y-87836743D01*
X118382489Y-87778881D01*
X118446717Y-87751377D01*
X118461438Y-87750500D01*
X130037770Y-87750500D01*
X130104809Y-87770185D01*
X130125451Y-87786819D01*
X132817182Y-90478549D01*
X132850667Y-90539872D01*
X132853501Y-90566230D01*
X132853501Y-92599336D01*
X132833816Y-92666375D01*
X132800626Y-92700910D01*
X132764864Y-92725951D01*
X132603952Y-92886862D01*
X132494728Y-93042853D01*
X132473433Y-93073266D01*
X132446384Y-93131274D01*
X132446107Y-93131867D01*
X132399934Y-93184306D01*
X132332740Y-93203457D01*
X132265859Y-93183241D01*
X132221343Y-93131865D01*
X132194136Y-93073520D01*
X132194135Y-93073518D01*
X132063658Y-92887179D01*
X131902821Y-92726342D01*
X131716483Y-92595865D01*
X131510329Y-92499734D01*
X131314001Y-92447127D01*
X131314001Y-93292988D01*
X131256994Y-93260075D01*
X131129827Y-93226000D01*
X130998175Y-93226000D01*
X130871008Y-93260075D01*
X130814001Y-93292988D01*
X130814001Y-92447127D01*
X130617672Y-92499734D01*
X130411518Y-92595865D01*
X130225180Y-92726342D01*
X130064343Y-92887179D01*
X129933866Y-93073517D01*
X129906658Y-93131867D01*
X129860485Y-93184306D01*
X129793292Y-93203458D01*
X129726411Y-93183242D01*
X129681894Y-93131867D01*
X129681618Y-93131275D01*
X129654568Y-93073266D01*
X129524047Y-92886861D01*
X129524045Y-92886858D01*
X129363141Y-92725954D01*
X129176734Y-92595432D01*
X129176732Y-92595431D01*
X128970497Y-92499261D01*
X128970488Y-92499258D01*
X128750697Y-92440366D01*
X128750693Y-92440365D01*
X128750692Y-92440365D01*
X128750691Y-92440364D01*
X128750686Y-92440364D01*
X128524002Y-92420532D01*
X128523998Y-92420532D01*
X128297313Y-92440364D01*
X128297302Y-92440366D01*
X128077511Y-92499258D01*
X128077502Y-92499261D01*
X127871267Y-92595431D01*
X127871265Y-92595432D01*
X127684858Y-92725954D01*
X127523954Y-92886858D01*
X127393432Y-93073265D01*
X127393428Y-93073272D01*
X127366381Y-93131274D01*
X127320208Y-93183713D01*
X127253014Y-93202864D01*
X127186133Y-93182647D01*
X127141618Y-93131273D01*
X127114687Y-93073520D01*
X127114569Y-93073266D01*
X126984048Y-92886861D01*
X126984046Y-92886858D01*
X126823142Y-92725954D01*
X126636735Y-92595432D01*
X126636733Y-92595431D01*
X126430498Y-92499261D01*
X126430489Y-92499258D01*
X126210698Y-92440366D01*
X126210694Y-92440365D01*
X126210693Y-92440365D01*
X126210692Y-92440364D01*
X126210687Y-92440364D01*
X125984003Y-92420532D01*
X125983999Y-92420532D01*
X125757314Y-92440364D01*
X125757303Y-92440366D01*
X125537512Y-92499258D01*
X125537503Y-92499261D01*
X125331268Y-92595431D01*
X125331266Y-92595432D01*
X125144859Y-92725954D01*
X124983955Y-92886858D01*
X124966726Y-92911464D01*
X124912148Y-92955088D01*
X124842649Y-92962280D01*
X124780295Y-92930757D01*
X124744883Y-92870526D01*
X124741862Y-92853591D01*
X124738092Y-92818516D01*
X124687798Y-92683671D01*
X124687794Y-92683664D01*
X124601548Y-92568455D01*
X124601545Y-92568452D01*
X124486336Y-92482206D01*
X124486329Y-92482202D01*
X124351483Y-92431908D01*
X124351484Y-92431908D01*
X124291884Y-92425501D01*
X124291882Y-92425500D01*
X124291874Y-92425500D01*
X124291865Y-92425500D01*
X122596130Y-92425500D01*
X122596124Y-92425501D01*
X122536517Y-92431908D01*
X122401672Y-92482202D01*
X122401665Y-92482206D01*
X122286456Y-92568452D01*
X122286453Y-92568455D01*
X122200207Y-92683664D01*
X122200203Y-92683671D01*
X122149909Y-92818517D01*
X122143502Y-92878116D01*
X122143501Y-92878135D01*
X122143501Y-94573870D01*
X122143502Y-94573876D01*
X122149909Y-94633483D01*
X122200203Y-94768328D01*
X122200207Y-94768335D01*
X122286453Y-94883544D01*
X122286456Y-94883547D01*
X122401665Y-94969793D01*
X122401672Y-94969797D01*
X122536518Y-95020091D01*
X122536517Y-95020091D01*
X122543445Y-95020835D01*
X122596128Y-95026500D01*
X124291873Y-95026499D01*
X124351484Y-95020091D01*
X124486332Y-94969796D01*
X124601547Y-94883546D01*
X124687797Y-94768331D01*
X124738092Y-94633483D01*
X124741863Y-94598401D01*
X124768600Y-94533855D01*
X124825991Y-94494006D01*
X124895817Y-94491511D01*
X124955906Y-94527163D01*
X124966727Y-94540536D01*
X124983957Y-94565143D01*
X125144859Y-94726045D01*
X125144862Y-94726047D01*
X125331267Y-94856568D01*
X125537505Y-94952739D01*
X125757309Y-95011635D01*
X125919231Y-95025801D01*
X125983999Y-95031468D01*
X125984001Y-95031468D01*
X125984003Y-95031468D01*
X126040808Y-95026498D01*
X126210693Y-95011635D01*
X126430497Y-94952739D01*
X126636735Y-94856568D01*
X126823140Y-94726047D01*
X126984048Y-94565139D01*
X127114569Y-94378734D01*
X127141618Y-94320726D01*
X127187790Y-94268287D01*
X127254983Y-94249135D01*
X127321865Y-94269350D01*
X127366381Y-94320724D01*
X127393432Y-94378734D01*
X127449317Y-94458546D01*
X127523954Y-94565141D01*
X127684858Y-94726045D01*
X127684861Y-94726047D01*
X127871266Y-94856568D01*
X128077504Y-94952739D01*
X128297308Y-95011635D01*
X128459230Y-95025801D01*
X128523998Y-95031468D01*
X128524000Y-95031468D01*
X128524002Y-95031468D01*
X128580807Y-95026498D01*
X128750692Y-95011635D01*
X128970496Y-94952739D01*
X129176734Y-94856568D01*
X129363139Y-94726047D01*
X129524047Y-94565139D01*
X129654568Y-94378734D01*
X129681894Y-94320132D01*
X129728066Y-94267693D01*
X129795259Y-94248541D01*
X129862141Y-94268756D01*
X129906658Y-94320133D01*
X129933865Y-94378479D01*
X129933866Y-94378481D01*
X130064343Y-94564820D01*
X130225180Y-94725657D01*
X130411518Y-94856134D01*
X130617674Y-94952265D01*
X130617683Y-94952269D01*
X130814000Y-95004872D01*
X130814001Y-95004871D01*
X130814001Y-94159012D01*
X130871008Y-94191925D01*
X130998175Y-94226000D01*
X131129827Y-94226000D01*
X131256994Y-94191925D01*
X131314001Y-94159012D01*
X131314001Y-95004872D01*
X131510318Y-94952269D01*
X131510327Y-94952265D01*
X131716483Y-94856134D01*
X131902821Y-94725657D01*
X132063658Y-94564820D01*
X132194133Y-94378484D01*
X132221342Y-94320134D01*
X132267514Y-94267695D01*
X132334708Y-94248542D01*
X132401589Y-94268757D01*
X132446106Y-94320132D01*
X132446383Y-94320725D01*
X132473432Y-94378732D01*
X132473433Y-94378734D01*
X132603955Y-94565141D01*
X132764859Y-94726045D01*
X132764862Y-94726047D01*
X132951267Y-94856568D01*
X133157505Y-94952739D01*
X133377309Y-95011635D01*
X133539231Y-95025801D01*
X133603999Y-95031468D01*
X133604001Y-95031468D01*
X133604003Y-95031468D01*
X133660808Y-95026498D01*
X133830693Y-95011635D01*
X134050497Y-94952739D01*
X134256735Y-94856568D01*
X134443140Y-94726047D01*
X134604048Y-94565139D01*
X134734569Y-94378734D01*
X134761619Y-94320724D01*
X134807791Y-94268285D01*
X134874984Y-94249133D01*
X134941866Y-94269348D01*
X134986383Y-94320725D01*
X135013430Y-94378728D01*
X135013433Y-94378734D01*
X135143955Y-94565141D01*
X135304859Y-94726045D01*
X135304862Y-94726047D01*
X135491267Y-94856568D01*
X135697505Y-94952739D01*
X135917309Y-95011635D01*
X136079231Y-95025801D01*
X136143999Y-95031468D01*
X136144001Y-95031468D01*
X136144003Y-95031468D01*
X136200808Y-95026498D01*
X136370693Y-95011635D01*
X136590497Y-94952739D01*
X136796735Y-94856568D01*
X136983140Y-94726047D01*
X137144048Y-94565139D01*
X137274569Y-94378734D01*
X137301619Y-94320724D01*
X137347791Y-94268285D01*
X137414984Y-94249133D01*
X137481866Y-94269348D01*
X137526383Y-94320725D01*
X137553430Y-94378728D01*
X137553433Y-94378734D01*
X137683955Y-94565141D01*
X137844859Y-94726045D01*
X137844862Y-94726047D01*
X138031267Y-94856568D01*
X138237505Y-94952739D01*
X138457309Y-95011635D01*
X138619231Y-95025801D01*
X138683999Y-95031468D01*
X138684001Y-95031468D01*
X138684003Y-95031468D01*
X138740808Y-95026498D01*
X138910693Y-95011635D01*
X139130497Y-94952739D01*
X139336735Y-94856568D01*
X139523140Y-94726047D01*
X139684048Y-94565139D01*
X139814569Y-94378734D01*
X139841621Y-94320719D01*
X139887790Y-94268285D01*
X139954984Y-94249132D01*
X140021865Y-94269347D01*
X140066383Y-94320723D01*
X140093433Y-94378732D01*
X140093434Y-94378734D01*
X140223956Y-94565141D01*
X140384860Y-94726045D01*
X140384863Y-94726047D01*
X140571268Y-94856568D01*
X140777506Y-94952739D01*
X140997310Y-95011635D01*
X141159232Y-95025801D01*
X141224000Y-95031468D01*
X141224002Y-95031468D01*
X141224004Y-95031468D01*
X141280809Y-95026498D01*
X141450694Y-95011635D01*
X141670498Y-94952739D01*
X141876736Y-94856568D01*
X142063141Y-94726047D01*
X142224049Y-94565139D01*
X142354570Y-94378734D01*
X142381619Y-94320726D01*
X142427791Y-94268287D01*
X142494984Y-94249135D01*
X142561866Y-94269350D01*
X142606382Y-94320724D01*
X142633433Y-94378734D01*
X142689318Y-94458546D01*
X142763955Y-94565141D01*
X142924859Y-94726045D01*
X142924862Y-94726047D01*
X143111267Y-94856568D01*
X143317505Y-94952739D01*
X143537309Y-95011635D01*
X143699231Y-95025801D01*
X143763999Y-95031468D01*
X143764001Y-95031468D01*
X143764003Y-95031468D01*
X143820808Y-95026498D01*
X143990693Y-95011635D01*
X144210497Y-94952739D01*
X144416735Y-94856568D01*
X144603140Y-94726047D01*
X144764048Y-94565139D01*
X144894569Y-94378734D01*
X144921619Y-94320724D01*
X144967791Y-94268285D01*
X145034984Y-94249133D01*
X145101866Y-94269348D01*
X145146383Y-94320725D01*
X145173430Y-94378728D01*
X145173433Y-94378734D01*
X145303955Y-94565141D01*
X145464859Y-94726045D01*
X145464862Y-94726047D01*
X145651267Y-94856568D01*
X145857505Y-94952739D01*
X146077309Y-95011635D01*
X146239231Y-95025801D01*
X146303999Y-95031468D01*
X146304001Y-95031468D01*
X146304003Y-95031468D01*
X146360808Y-95026498D01*
X146530693Y-95011635D01*
X146750497Y-94952739D01*
X146956735Y-94856568D01*
X147143140Y-94726047D01*
X147304048Y-94565139D01*
X147434569Y-94378734D01*
X147461619Y-94320724D01*
X147507791Y-94268285D01*
X147574984Y-94249133D01*
X147641866Y-94269348D01*
X147686383Y-94320725D01*
X147713430Y-94378728D01*
X147713433Y-94378734D01*
X147843955Y-94565141D01*
X148004859Y-94726045D01*
X148004862Y-94726047D01*
X148191267Y-94856568D01*
X148397505Y-94952739D01*
X148617309Y-95011635D01*
X148779231Y-95025801D01*
X148843999Y-95031468D01*
X148844001Y-95031468D01*
X148844003Y-95031468D01*
X148900808Y-95026498D01*
X149070693Y-95011635D01*
X149290497Y-94952739D01*
X149496735Y-94856568D01*
X149683140Y-94726047D01*
X149844048Y-94565139D01*
X149974569Y-94378734D01*
X150001618Y-94320726D01*
X150047790Y-94268287D01*
X150114983Y-94249135D01*
X150181865Y-94269350D01*
X150226381Y-94320724D01*
X150253432Y-94378734D01*
X150309317Y-94458546D01*
X150383954Y-94565141D01*
X150544858Y-94726045D01*
X150544861Y-94726047D01*
X150731266Y-94856568D01*
X150937504Y-94952739D01*
X151157308Y-95011635D01*
X151319230Y-95025801D01*
X151383998Y-95031468D01*
X151384000Y-95031468D01*
X151384002Y-95031468D01*
X151440807Y-95026498D01*
X151610692Y-95011635D01*
X151830496Y-94952739D01*
X152036734Y-94856568D01*
X152223139Y-94726047D01*
X152384047Y-94565139D01*
X152514568Y-94378734D01*
X152541620Y-94320719D01*
X152587789Y-94268285D01*
X152654983Y-94249132D01*
X152721864Y-94269347D01*
X152766382Y-94320723D01*
X152793432Y-94378732D01*
X152793433Y-94378734D01*
X152923955Y-94565141D01*
X153084859Y-94726045D01*
X153084862Y-94726047D01*
X153271267Y-94856568D01*
X153477505Y-94952739D01*
X153697309Y-95011635D01*
X153859231Y-95025801D01*
X153923999Y-95031468D01*
X153924001Y-95031468D01*
X153924003Y-95031468D01*
X153980808Y-95026498D01*
X154150693Y-95011635D01*
X154370497Y-94952739D01*
X154576735Y-94856568D01*
X154763140Y-94726047D01*
X154924048Y-94565139D01*
X155054569Y-94378734D01*
X155081619Y-94320724D01*
X155127791Y-94268285D01*
X155194984Y-94249133D01*
X155261866Y-94269348D01*
X155306383Y-94320725D01*
X155333430Y-94378728D01*
X155333433Y-94378734D01*
X155463955Y-94565141D01*
X155624859Y-94726045D01*
X155624862Y-94726047D01*
X155811267Y-94856568D01*
X156017505Y-94952739D01*
X156237309Y-95011635D01*
X156399231Y-95025801D01*
X156463999Y-95031468D01*
X156464001Y-95031468D01*
X156464003Y-95031468D01*
X156520808Y-95026498D01*
X156690693Y-95011635D01*
X156910497Y-94952739D01*
X157116735Y-94856568D01*
X157303140Y-94726047D01*
X157464048Y-94565139D01*
X157594569Y-94378734D01*
X157621619Y-94320724D01*
X157667791Y-94268285D01*
X157734984Y-94249133D01*
X157801866Y-94269348D01*
X157846383Y-94320725D01*
X157873430Y-94378728D01*
X157873433Y-94378734D01*
X158003955Y-94565141D01*
X158164859Y-94726045D01*
X158164862Y-94726047D01*
X158351267Y-94856568D01*
X158557505Y-94952739D01*
X158777309Y-95011635D01*
X158939231Y-95025801D01*
X159003999Y-95031468D01*
X159004001Y-95031468D01*
X159004003Y-95031468D01*
X159060808Y-95026498D01*
X159230693Y-95011635D01*
X159450497Y-94952739D01*
X159656735Y-94856568D01*
X159843140Y-94726047D01*
X160004048Y-94565139D01*
X160134569Y-94378734D01*
X160230740Y-94172496D01*
X160289636Y-93952692D01*
X160309469Y-93726000D01*
X160289636Y-93499308D01*
X160230740Y-93279504D01*
X160134569Y-93073266D01*
X160004048Y-92886861D01*
X160004046Y-92886858D01*
X159843142Y-92725954D01*
X159656735Y-92595432D01*
X159656733Y-92595431D01*
X159450498Y-92499261D01*
X159450489Y-92499258D01*
X159230698Y-92440366D01*
X159230694Y-92440365D01*
X159230693Y-92440365D01*
X159230692Y-92440364D01*
X159230687Y-92440364D01*
X159004003Y-92420532D01*
X159003999Y-92420532D01*
X158777314Y-92440364D01*
X158777303Y-92440366D01*
X158557512Y-92499258D01*
X158557503Y-92499261D01*
X158351268Y-92595431D01*
X158351266Y-92595432D01*
X158164859Y-92725954D01*
X158003955Y-92886858D01*
X157873433Y-93073265D01*
X157873432Y-93073267D01*
X157846383Y-93131275D01*
X157800210Y-93183714D01*
X157733017Y-93202866D01*
X157666136Y-93182650D01*
X157621619Y-93131275D01*
X157594687Y-93073520D01*
X157594569Y-93073266D01*
X157464048Y-92886861D01*
X157464046Y-92886858D01*
X157303142Y-92725954D01*
X157116735Y-92595432D01*
X157116733Y-92595431D01*
X156910498Y-92499261D01*
X156910489Y-92499258D01*
X156690698Y-92440366D01*
X156690694Y-92440365D01*
X156690693Y-92440365D01*
X156690692Y-92440364D01*
X156690687Y-92440364D01*
X156464003Y-92420532D01*
X156463999Y-92420532D01*
X156237314Y-92440364D01*
X156237303Y-92440366D01*
X156017512Y-92499258D01*
X156017503Y-92499261D01*
X155811268Y-92595431D01*
X155811266Y-92595432D01*
X155624859Y-92725954D01*
X155463955Y-92886858D01*
X155333433Y-93073265D01*
X155333432Y-93073267D01*
X155306383Y-93131275D01*
X155260210Y-93183714D01*
X155193017Y-93202866D01*
X155126136Y-93182650D01*
X155081619Y-93131275D01*
X155054687Y-93073520D01*
X155054569Y-93073266D01*
X154924048Y-92886861D01*
X154924046Y-92886858D01*
X154763142Y-92725954D01*
X154576735Y-92595432D01*
X154576733Y-92595431D01*
X154370498Y-92499261D01*
X154370489Y-92499258D01*
X154150698Y-92440366D01*
X154150694Y-92440365D01*
X154150693Y-92440365D01*
X154150692Y-92440364D01*
X154150687Y-92440364D01*
X153924003Y-92420532D01*
X153923999Y-92420532D01*
X153697314Y-92440364D01*
X153697303Y-92440366D01*
X153477512Y-92499258D01*
X153477503Y-92499261D01*
X153271268Y-92595431D01*
X153271266Y-92595432D01*
X153084859Y-92725954D01*
X152923955Y-92886858D01*
X152814728Y-93042853D01*
X152793433Y-93073266D01*
X152793316Y-93073518D01*
X152766382Y-93131277D01*
X152720209Y-93183716D01*
X152653015Y-93202867D01*
X152586134Y-93182651D01*
X152541618Y-93131275D01*
X152514686Y-93073520D01*
X152514568Y-93073266D01*
X152384047Y-92886861D01*
X152384045Y-92886858D01*
X152223141Y-92725954D01*
X152036734Y-92595432D01*
X152036732Y-92595431D01*
X151830497Y-92499261D01*
X151830488Y-92499258D01*
X151610697Y-92440366D01*
X151610693Y-92440365D01*
X151610692Y-92440365D01*
X151610691Y-92440364D01*
X151610686Y-92440364D01*
X151384002Y-92420532D01*
X151383998Y-92420532D01*
X151157313Y-92440364D01*
X151157302Y-92440366D01*
X150937511Y-92499258D01*
X150937502Y-92499261D01*
X150731267Y-92595431D01*
X150731265Y-92595432D01*
X150544858Y-92725954D01*
X150383954Y-92886858D01*
X150253432Y-93073265D01*
X150253428Y-93073272D01*
X150226381Y-93131274D01*
X150180208Y-93183713D01*
X150113014Y-93202864D01*
X150046133Y-93182647D01*
X150001618Y-93131273D01*
X149974687Y-93073520D01*
X149974569Y-93073266D01*
X149844048Y-92886861D01*
X149844046Y-92886858D01*
X149683142Y-92725954D01*
X149496735Y-92595432D01*
X149496733Y-92595431D01*
X149290498Y-92499261D01*
X149290489Y-92499258D01*
X149070698Y-92440366D01*
X149070694Y-92440365D01*
X149070693Y-92440365D01*
X149070692Y-92440364D01*
X149070687Y-92440364D01*
X148844003Y-92420532D01*
X148843999Y-92420532D01*
X148617314Y-92440364D01*
X148617303Y-92440366D01*
X148397512Y-92499258D01*
X148397503Y-92499261D01*
X148191268Y-92595431D01*
X148191266Y-92595432D01*
X148004859Y-92725954D01*
X147843955Y-92886858D01*
X147713433Y-93073265D01*
X147713432Y-93073267D01*
X147686383Y-93131275D01*
X147640210Y-93183714D01*
X147573017Y-93202866D01*
X147506136Y-93182650D01*
X147461619Y-93131275D01*
X147434687Y-93073520D01*
X147434569Y-93073266D01*
X147304048Y-92886861D01*
X147304046Y-92886858D01*
X147143142Y-92725954D01*
X146956735Y-92595432D01*
X146956733Y-92595431D01*
X146750498Y-92499261D01*
X146750489Y-92499258D01*
X146530698Y-92440366D01*
X146530694Y-92440365D01*
X146530693Y-92440365D01*
X146530692Y-92440364D01*
X146530687Y-92440364D01*
X146304003Y-92420532D01*
X146303999Y-92420532D01*
X146077314Y-92440364D01*
X146077303Y-92440366D01*
X145857512Y-92499258D01*
X145857503Y-92499261D01*
X145651268Y-92595431D01*
X145651266Y-92595432D01*
X145464859Y-92725954D01*
X145303955Y-92886858D01*
X145173433Y-93073265D01*
X145173432Y-93073267D01*
X145146383Y-93131275D01*
X145100210Y-93183714D01*
X145033017Y-93202866D01*
X144966136Y-93182650D01*
X144921619Y-93131275D01*
X144894687Y-93073520D01*
X144894569Y-93073266D01*
X144764048Y-92886861D01*
X144764046Y-92886858D01*
X144603142Y-92725954D01*
X144416735Y-92595432D01*
X144416733Y-92595431D01*
X144210498Y-92499261D01*
X144210489Y-92499258D01*
X143990698Y-92440366D01*
X143990694Y-92440365D01*
X143990693Y-92440365D01*
X143990692Y-92440364D01*
X143990687Y-92440364D01*
X143764003Y-92420532D01*
X143763999Y-92420532D01*
X143537314Y-92440364D01*
X143537303Y-92440366D01*
X143317512Y-92499258D01*
X143317503Y-92499261D01*
X143111268Y-92595431D01*
X143111266Y-92595432D01*
X142924859Y-92725954D01*
X142763955Y-92886858D01*
X142633433Y-93073265D01*
X142633429Y-93073272D01*
X142606382Y-93131274D01*
X142560209Y-93183713D01*
X142493015Y-93202864D01*
X142426134Y-93182647D01*
X142381619Y-93131273D01*
X142354688Y-93073520D01*
X142354570Y-93073266D01*
X142224049Y-92886861D01*
X142224047Y-92886858D01*
X142063143Y-92725954D01*
X141876736Y-92595432D01*
X141876734Y-92595431D01*
X141670499Y-92499261D01*
X141670490Y-92499258D01*
X141450699Y-92440366D01*
X141450695Y-92440365D01*
X141450694Y-92440365D01*
X141450693Y-92440364D01*
X141450688Y-92440364D01*
X141224004Y-92420532D01*
X141224000Y-92420532D01*
X140997315Y-92440364D01*
X140997304Y-92440366D01*
X140777513Y-92499258D01*
X140777504Y-92499261D01*
X140571269Y-92595431D01*
X140571267Y-92595432D01*
X140384860Y-92725954D01*
X140223956Y-92886858D01*
X140114729Y-93042853D01*
X140093434Y-93073266D01*
X140093317Y-93073518D01*
X140066383Y-93131277D01*
X140020210Y-93183716D01*
X139953016Y-93202867D01*
X139886135Y-93182651D01*
X139841619Y-93131275D01*
X139814687Y-93073520D01*
X139814569Y-93073266D01*
X139684048Y-92886861D01*
X139684046Y-92886858D01*
X139523142Y-92725954D01*
X139336735Y-92595432D01*
X139336733Y-92595431D01*
X139130498Y-92499261D01*
X139130489Y-92499258D01*
X138910698Y-92440366D01*
X138910694Y-92440365D01*
X138910693Y-92440365D01*
X138910692Y-92440364D01*
X138910687Y-92440364D01*
X138684003Y-92420532D01*
X138683999Y-92420532D01*
X138457314Y-92440364D01*
X138457303Y-92440366D01*
X138340594Y-92471638D01*
X138270744Y-92469975D01*
X138212882Y-92430812D01*
X138185378Y-92366583D01*
X138184501Y-92351863D01*
X138184501Y-79860136D01*
X138204186Y-79793097D01*
X138256990Y-79747342D01*
X138326148Y-79737398D01*
X138340583Y-79740358D01*
X138457309Y-79771635D01*
X138619231Y-79785801D01*
X138683999Y-79791468D01*
X138684001Y-79791468D01*
X138684003Y-79791468D01*
X138740674Y-79786509D01*
X138910693Y-79771635D01*
X139130497Y-79712739D01*
X139336735Y-79616568D01*
X139523140Y-79486047D01*
X139684048Y-79325139D01*
X139814569Y-79138734D01*
X139841619Y-79080724D01*
X139887791Y-79028285D01*
X139954984Y-79009133D01*
X140021866Y-79029348D01*
X140066383Y-79080725D01*
X140093430Y-79138728D01*
X140093433Y-79138734D01*
X140223955Y-79325141D01*
X140384859Y-79486045D01*
X140384862Y-79486047D01*
X140571267Y-79616568D01*
X140777505Y-79712739D01*
X140997309Y-79771635D01*
X141159231Y-79785801D01*
X141223999Y-79791468D01*
X141224001Y-79791468D01*
X141224003Y-79791468D01*
X141280674Y-79786509D01*
X141450693Y-79771635D01*
X141670497Y-79712739D01*
X141876735Y-79616568D01*
X142063140Y-79486047D01*
X142224048Y-79325139D01*
X142354569Y-79138734D01*
X142381619Y-79080724D01*
X142427791Y-79028285D01*
X142494984Y-79009133D01*
X142561866Y-79029348D01*
X142606383Y-79080725D01*
X142633430Y-79138728D01*
X142633433Y-79138734D01*
X142763955Y-79325141D01*
X142924859Y-79486045D01*
X142924862Y-79486047D01*
X143111267Y-79616568D01*
X143317505Y-79712739D01*
X143537309Y-79771635D01*
X143699231Y-79785801D01*
X143763999Y-79791468D01*
X143764001Y-79791468D01*
X143764003Y-79791468D01*
X143820674Y-79786509D01*
X143990693Y-79771635D01*
X144210497Y-79712739D01*
X144416735Y-79616568D01*
X144603140Y-79486047D01*
X144764048Y-79325139D01*
X144894569Y-79138734D01*
X144921619Y-79080724D01*
X144967791Y-79028285D01*
X145034984Y-79009133D01*
X145101866Y-79029348D01*
X145146383Y-79080725D01*
X145173430Y-79138728D01*
X145173433Y-79138734D01*
X145303955Y-79325141D01*
X145464859Y-79486045D01*
X145464862Y-79486047D01*
X145651267Y-79616568D01*
X145857505Y-79712739D01*
X146077309Y-79771635D01*
X146239231Y-79785801D01*
X146303999Y-79791468D01*
X146304001Y-79791468D01*
X146304003Y-79791468D01*
X146360674Y-79786509D01*
X146530693Y-79771635D01*
X146750497Y-79712739D01*
X146956735Y-79616568D01*
X147143140Y-79486047D01*
X147304048Y-79325139D01*
X147434569Y-79138734D01*
X147461619Y-79080724D01*
X147507791Y-79028285D01*
X147574984Y-79009133D01*
X147641866Y-79029348D01*
X147686383Y-79080725D01*
X147713430Y-79138728D01*
X147713433Y-79138734D01*
X147843955Y-79325141D01*
X148004859Y-79486045D01*
X148004862Y-79486047D01*
X148191267Y-79616568D01*
X148397505Y-79712739D01*
X148617309Y-79771635D01*
X148779231Y-79785801D01*
X148843999Y-79791468D01*
X148844001Y-79791468D01*
X148844003Y-79791468D01*
X148900674Y-79786509D01*
X149070693Y-79771635D01*
X149290497Y-79712739D01*
X149496735Y-79616568D01*
X149683140Y-79486047D01*
X149844048Y-79325139D01*
X149974569Y-79138734D01*
X150001619Y-79080724D01*
X150047791Y-79028285D01*
X150114984Y-79009133D01*
X150181866Y-79029348D01*
X150226383Y-79080725D01*
X150253430Y-79138728D01*
X150253433Y-79138734D01*
X150383955Y-79325141D01*
X150544859Y-79486045D01*
X150544862Y-79486047D01*
X150731267Y-79616568D01*
X150937505Y-79712739D01*
X151157309Y-79771635D01*
X151319231Y-79785801D01*
X151383999Y-79791468D01*
X151384001Y-79791468D01*
X151384003Y-79791468D01*
X151440674Y-79786509D01*
X151610693Y-79771635D01*
X151830497Y-79712739D01*
X152036735Y-79616568D01*
X152223140Y-79486047D01*
X152384048Y-79325139D01*
X152514569Y-79138734D01*
X152541619Y-79080724D01*
X152587791Y-79028285D01*
X152654984Y-79009133D01*
X152721866Y-79029348D01*
X152766383Y-79080725D01*
X152793430Y-79138728D01*
X152793433Y-79138734D01*
X152923955Y-79325141D01*
X153084859Y-79486045D01*
X153084862Y-79486047D01*
X153271267Y-79616568D01*
X153477505Y-79712739D01*
X153697309Y-79771635D01*
X153859231Y-79785801D01*
X153923999Y-79791468D01*
X153924001Y-79791468D01*
X153924003Y-79791468D01*
X153980674Y-79786509D01*
X154150693Y-79771635D01*
X154370497Y-79712739D01*
X154576735Y-79616568D01*
X154763140Y-79486047D01*
X154924048Y-79325139D01*
X155054569Y-79138734D01*
X155081619Y-79080724D01*
X155127791Y-79028285D01*
X155194984Y-79009133D01*
X155261866Y-79029348D01*
X155306383Y-79080725D01*
X155333430Y-79138728D01*
X155333433Y-79138734D01*
X155463955Y-79325141D01*
X155624859Y-79486045D01*
X155624862Y-79486047D01*
X155811267Y-79616568D01*
X156017505Y-79712739D01*
X156237309Y-79771635D01*
X156399231Y-79785801D01*
X156463999Y-79791468D01*
X156464001Y-79791468D01*
X156464003Y-79791468D01*
X156520674Y-79786509D01*
X156690693Y-79771635D01*
X156910497Y-79712739D01*
X157116735Y-79616568D01*
X157303140Y-79486047D01*
X157464048Y-79325139D01*
X157594569Y-79138734D01*
X157621619Y-79080724D01*
X157667791Y-79028285D01*
X157734984Y-79009133D01*
X157801866Y-79029348D01*
X157846383Y-79080725D01*
X157873430Y-79138728D01*
X157873433Y-79138734D01*
X158003955Y-79325141D01*
X158164859Y-79486045D01*
X158164862Y-79486047D01*
X158351267Y-79616568D01*
X158557505Y-79712739D01*
X158777309Y-79771635D01*
X158939231Y-79785801D01*
X159003999Y-79791468D01*
X159004001Y-79791468D01*
X159004003Y-79791468D01*
X159060674Y-79786509D01*
X159230693Y-79771635D01*
X159450497Y-79712739D01*
X159656735Y-79616568D01*
X159843140Y-79486047D01*
X160004048Y-79325139D01*
X160134569Y-79138734D01*
X160230740Y-78932496D01*
X160289636Y-78712692D01*
X160309469Y-78486000D01*
X160289636Y-78259308D01*
X160230740Y-78039504D01*
X160134569Y-77833266D01*
X160004048Y-77646861D01*
X160004046Y-77646858D01*
X159843142Y-77485954D01*
X159761494Y-77428784D01*
X159686215Y-77376074D01*
X159642591Y-77321499D01*
X159635397Y-77252000D01*
X159666919Y-77189646D01*
X159727149Y-77154231D01*
X159757339Y-77150500D01*
X163594071Y-77150500D01*
X163678615Y-77133682D01*
X163719744Y-77125501D01*
X163838127Y-77076465D01*
X163944669Y-77005277D01*
X164713062Y-76236882D01*
X164774383Y-76203399D01*
X164832834Y-76204790D01*
X164873308Y-76215635D01*
X165035230Y-76229801D01*
X165099998Y-76235468D01*
X165100000Y-76235468D01*
X165100002Y-76235468D01*
X165156673Y-76230509D01*
X165326692Y-76215635D01*
X165546496Y-76156739D01*
X165752734Y-76060568D01*
X165939139Y-75930047D01*
X166100047Y-75769139D01*
X166230568Y-75582734D01*
X166326739Y-75376496D01*
X166385635Y-75156692D01*
X166405468Y-74930000D01*
X166403841Y-74911408D01*
X166395640Y-74817666D01*
X166385635Y-74703308D01*
X166326739Y-74483504D01*
X166230568Y-74277266D01*
X166100047Y-74090861D01*
X166100045Y-74090858D01*
X165939141Y-73929954D01*
X165752734Y-73799432D01*
X165752732Y-73799431D01*
X165546497Y-73703261D01*
X165546488Y-73703258D01*
X165326697Y-73644366D01*
X165326693Y-73644365D01*
X165326692Y-73644365D01*
X165326691Y-73644364D01*
X165326686Y-73644364D01*
X165100002Y-73624532D01*
X165099998Y-73624532D01*
X164873313Y-73644364D01*
X164873302Y-73644366D01*
X164653511Y-73703258D01*
X164653502Y-73703261D01*
X164447267Y-73799431D01*
X164447265Y-73799432D01*
X164260858Y-73929954D01*
X164099954Y-74090858D01*
X163969432Y-74277265D01*
X163969431Y-74277267D01*
X163873261Y-74483502D01*
X163873258Y-74483511D01*
X163814366Y-74703302D01*
X163814364Y-74703313D01*
X163794532Y-74929998D01*
X163794532Y-74930001D01*
X163814364Y-75156686D01*
X163814366Y-75156697D01*
X163825209Y-75197163D01*
X163823546Y-75267013D01*
X163793115Y-75316937D01*
X163296873Y-75813181D01*
X163235550Y-75846666D01*
X163209192Y-75849500D01*
X158661978Y-75849500D01*
X158594939Y-75829815D01*
X158549184Y-75777011D01*
X158539240Y-75707853D01*
X158560403Y-75654377D01*
X158610568Y-75582734D01*
X158706739Y-75376496D01*
X158765635Y-75156692D01*
X158785468Y-74930000D01*
X158783841Y-74911408D01*
X158775640Y-74817666D01*
X158765635Y-74703308D01*
X158706739Y-74483504D01*
X158610568Y-74277266D01*
X158480047Y-74090861D01*
X158480045Y-74090858D01*
X158319141Y-73929954D01*
X158132734Y-73799432D01*
X158132732Y-73799431D01*
X157926497Y-73703261D01*
X157926488Y-73703258D01*
X157706697Y-73644366D01*
X157706693Y-73644365D01*
X157706692Y-73644365D01*
X157706691Y-73644364D01*
X157706686Y-73644364D01*
X157480002Y-73624532D01*
X157479998Y-73624532D01*
X157253313Y-73644364D01*
X157253302Y-73644366D01*
X157033511Y-73703258D01*
X157033502Y-73703261D01*
X156827267Y-73799431D01*
X156827265Y-73799432D01*
X156640858Y-73929954D01*
X156479954Y-74090858D01*
X156349432Y-74277265D01*
X156349431Y-74277267D01*
X156253261Y-74483502D01*
X156253258Y-74483511D01*
X156194366Y-74703302D01*
X156194364Y-74703313D01*
X156174532Y-74929998D01*
X156174532Y-74930001D01*
X156194364Y-75156686D01*
X156194366Y-75156697D01*
X156253258Y-75376488D01*
X156253261Y-75376497D01*
X156349431Y-75582732D01*
X156349432Y-75582734D01*
X156392538Y-75644297D01*
X156399597Y-75654377D01*
X156421924Y-75720583D01*
X156404914Y-75788350D01*
X156353966Y-75836163D01*
X156298022Y-75849500D01*
X154959759Y-75849500D01*
X154892720Y-75829815D01*
X154846965Y-75777011D01*
X154837021Y-75707853D01*
X154866046Y-75644297D01*
X154872078Y-75637819D01*
X154876525Y-75633372D01*
X154962496Y-75547401D01*
X155098036Y-75353830D01*
X155197904Y-75139663D01*
X155259064Y-74911408D01*
X155279660Y-74676000D01*
X155259064Y-74440592D01*
X155239615Y-74368007D01*
X155241278Y-74298162D01*
X155271707Y-74248238D01*
X157093063Y-72426882D01*
X157154384Y-72393399D01*
X157212834Y-72394789D01*
X157253308Y-72405635D01*
X157297497Y-72409501D01*
X157479998Y-72425468D01*
X157480000Y-72425468D01*
X157480002Y-72425468D01*
X157536673Y-72420509D01*
X157706692Y-72405635D01*
X157926496Y-72346739D01*
X158132734Y-72250568D01*
X158319139Y-72120047D01*
X158480047Y-71959139D01*
X158610568Y-71772734D01*
X158706739Y-71566496D01*
X158765635Y-71346692D01*
X158785468Y-71120000D01*
X158785468Y-71119998D01*
X163794532Y-71119998D01*
X163794532Y-71120001D01*
X163814364Y-71346686D01*
X163814366Y-71346697D01*
X163873258Y-71566488D01*
X163873261Y-71566497D01*
X163969431Y-71772732D01*
X163969432Y-71772734D01*
X164099954Y-71959141D01*
X164260858Y-72120045D01*
X164260861Y-72120047D01*
X164447266Y-72250568D01*
X164653504Y-72346739D01*
X164873308Y-72405635D01*
X165035230Y-72419801D01*
X165099998Y-72425468D01*
X165100000Y-72425468D01*
X165100002Y-72425468D01*
X165156673Y-72420509D01*
X165326692Y-72405635D01*
X165546496Y-72346739D01*
X165752734Y-72250568D01*
X165939139Y-72120047D01*
X166100047Y-71959139D01*
X166230568Y-71772734D01*
X166326739Y-71566496D01*
X166385635Y-71346692D01*
X166405468Y-71120000D01*
X166385635Y-70893308D01*
X166326739Y-70673504D01*
X166230568Y-70467266D01*
X166100047Y-70280861D01*
X166100045Y-70280858D01*
X165939141Y-70119954D01*
X165752734Y-69989432D01*
X165752732Y-69989431D01*
X165546497Y-69893261D01*
X165546488Y-69893258D01*
X165326697Y-69834366D01*
X165326693Y-69834365D01*
X165326692Y-69834365D01*
X165326691Y-69834364D01*
X165326686Y-69834364D01*
X165100002Y-69814532D01*
X165099998Y-69814532D01*
X164873313Y-69834364D01*
X164873302Y-69834366D01*
X164653511Y-69893258D01*
X164653502Y-69893261D01*
X164447267Y-69989431D01*
X164447265Y-69989432D01*
X164260858Y-70119954D01*
X164099954Y-70280858D01*
X163969432Y-70467265D01*
X163969431Y-70467267D01*
X163873261Y-70673502D01*
X163873258Y-70673511D01*
X163814366Y-70893302D01*
X163814364Y-70893313D01*
X163794532Y-71119998D01*
X158785468Y-71119998D01*
X158765635Y-70893308D01*
X158706739Y-70673504D01*
X158610568Y-70467266D01*
X158480047Y-70280861D01*
X158480045Y-70280858D01*
X158319141Y-70119954D01*
X158132734Y-69989432D01*
X158132732Y-69989431D01*
X157926497Y-69893261D01*
X157926488Y-69893258D01*
X157706697Y-69834366D01*
X157706693Y-69834365D01*
X157706692Y-69834365D01*
X157706691Y-69834364D01*
X157706686Y-69834364D01*
X157480002Y-69814532D01*
X157479998Y-69814532D01*
X157253313Y-69834364D01*
X157253302Y-69834366D01*
X157033511Y-69893258D01*
X157033502Y-69893261D01*
X156827267Y-69989431D01*
X156827265Y-69989432D01*
X156640858Y-70119954D01*
X156479954Y-70280858D01*
X156349432Y-70467265D01*
X156349431Y-70467267D01*
X156253261Y-70673502D01*
X156253259Y-70673508D01*
X156225222Y-70778146D01*
X156188857Y-70837806D01*
X156126010Y-70868335D01*
X156056634Y-70860040D01*
X156002756Y-70815555D01*
X155981919Y-70756859D01*
X155971635Y-70639308D01*
X155912739Y-70419504D01*
X155816568Y-70213266D01*
X155686047Y-70026861D01*
X155686045Y-70026858D01*
X155525141Y-69865954D01*
X155338734Y-69735432D01*
X155338732Y-69735431D01*
X155132497Y-69639261D01*
X155132488Y-69639258D01*
X154912697Y-69580366D01*
X154912693Y-69580365D01*
X154912692Y-69580365D01*
X154912691Y-69580364D01*
X154912686Y-69580364D01*
X154686002Y-69560532D01*
X154685998Y-69560532D01*
X154459313Y-69580364D01*
X154459302Y-69580366D01*
X154239511Y-69639258D01*
X154239502Y-69639261D01*
X154033267Y-69735431D01*
X154033265Y-69735432D01*
X153846858Y-69865954D01*
X153685954Y-70026858D01*
X153555432Y-70213265D01*
X153555431Y-70213267D01*
X153459261Y-70419502D01*
X153459258Y-70419511D01*
X153400366Y-70639302D01*
X153400364Y-70639313D01*
X153380532Y-70865998D01*
X153380532Y-70866001D01*
X153400364Y-71092686D01*
X153400366Y-71092697D01*
X153459258Y-71312488D01*
X153459261Y-71312497D01*
X153555429Y-71518728D01*
X153555432Y-71518734D01*
X153685954Y-71705141D01*
X153846858Y-71866045D01*
X153846861Y-71866047D01*
X154033266Y-71996568D01*
X154239504Y-72092739D01*
X154459308Y-72151635D01*
X154621230Y-72165801D01*
X154685998Y-72171468D01*
X154686000Y-72171468D01*
X154686002Y-72171468D01*
X154742673Y-72166509D01*
X154912692Y-72151635D01*
X155132496Y-72092739D01*
X155338734Y-71996568D01*
X155338737Y-71996565D01*
X155343640Y-71994280D01*
X155344099Y-71995266D01*
X155406626Y-71980090D01*
X155472656Y-72002934D01*
X155515853Y-72057850D01*
X155522503Y-72127402D01*
X155490494Y-72189509D01*
X155488422Y-72191631D01*
X154351763Y-73328290D01*
X154290440Y-73361775D01*
X154231990Y-73360384D01*
X154159417Y-73340939D01*
X154159413Y-73340938D01*
X154159409Y-73340937D01*
X154159407Y-73340936D01*
X154159404Y-73340936D01*
X153924002Y-73320341D01*
X153924000Y-73320341D01*
X153688597Y-73340936D01*
X153688587Y-73340938D01*
X153460345Y-73402094D01*
X153460336Y-73402098D01*
X153246172Y-73501964D01*
X153246170Y-73501965D01*
X153052598Y-73637505D01*
X152885509Y-73804594D01*
X152755575Y-73990160D01*
X152700998Y-74033784D01*
X152631499Y-74040977D01*
X152569145Y-74009455D01*
X152552425Y-73990159D01*
X152422494Y-73804597D01*
X152255402Y-73637506D01*
X152255395Y-73637501D01*
X152061834Y-73501967D01*
X152061830Y-73501965D01*
X151990727Y-73468809D01*
X151847663Y-73402097D01*
X151847659Y-73402096D01*
X151847655Y-73402094D01*
X151619413Y-73340938D01*
X151619403Y-73340936D01*
X151384001Y-73320341D01*
X151383999Y-73320341D01*
X151148596Y-73340936D01*
X151148586Y-73340938D01*
X150920344Y-73402094D01*
X150920335Y-73402098D01*
X150706171Y-73501964D01*
X150706169Y-73501965D01*
X150512597Y-73637505D01*
X150345508Y-73804594D01*
X150215575Y-73990158D01*
X150160998Y-74033782D01*
X150091499Y-74040975D01*
X150029145Y-74009453D01*
X150012425Y-73990157D01*
X149882495Y-73804597D01*
X149715403Y-73637506D01*
X149715396Y-73637501D01*
X149521835Y-73501967D01*
X149521831Y-73501965D01*
X149450728Y-73468809D01*
X149307664Y-73402097D01*
X149307660Y-73402096D01*
X149307656Y-73402094D01*
X149079414Y-73340938D01*
X149079404Y-73340936D01*
X148844002Y-73320341D01*
X148844000Y-73320341D01*
X148608597Y-73340936D01*
X148608587Y-73340938D01*
X148380345Y-73402094D01*
X148380336Y-73402098D01*
X148166172Y-73501964D01*
X148166170Y-73501965D01*
X147972601Y-73637503D01*
X147850285Y-73759819D01*
X147788962Y-73793303D01*
X147719270Y-73788319D01*
X147663337Y-73746447D01*
X147646422Y-73715470D01*
X147597355Y-73583913D01*
X147597351Y-73583906D01*
X147511191Y-73468812D01*
X147511188Y-73468809D01*
X147396094Y-73382649D01*
X147396087Y-73382645D01*
X147261380Y-73332403D01*
X147261373Y-73332401D01*
X147201845Y-73326000D01*
X146554001Y-73326000D01*
X146554001Y-74242988D01*
X146496994Y-74210075D01*
X146369827Y-74176000D01*
X146238175Y-74176000D01*
X146111008Y-74210075D01*
X146054001Y-74242988D01*
X146054001Y-73326000D01*
X145406156Y-73326000D01*
X145346628Y-73332401D01*
X145346621Y-73332403D01*
X145211914Y-73382645D01*
X145211907Y-73382649D01*
X145096813Y-73468809D01*
X145096810Y-73468812D01*
X145010650Y-73583906D01*
X145010646Y-73583913D01*
X144960404Y-73718620D01*
X144960402Y-73718627D01*
X144954001Y-73778155D01*
X144954001Y-74426000D01*
X145870989Y-74426000D01*
X145838076Y-74483007D01*
X145804001Y-74610174D01*
X145804001Y-74741826D01*
X145838076Y-74868993D01*
X145870989Y-74926000D01*
X144954001Y-74926000D01*
X144954001Y-75573844D01*
X144960402Y-75633372D01*
X144960404Y-75633379D01*
X145010646Y-75768086D01*
X145010650Y-75768093D01*
X145096810Y-75883187D01*
X145096813Y-75883190D01*
X145211907Y-75969350D01*
X145211914Y-75969354D01*
X145346621Y-76019596D01*
X145346628Y-76019598D01*
X145406156Y-76025999D01*
X145406173Y-76026000D01*
X146054001Y-76026000D01*
X146054001Y-75109012D01*
X146111008Y-75141925D01*
X146238175Y-75176000D01*
X146369827Y-75176000D01*
X146496994Y-75141925D01*
X146554001Y-75109012D01*
X146554001Y-76026000D01*
X147201829Y-76026000D01*
X147201845Y-76025999D01*
X147261373Y-76019598D01*
X147261380Y-76019596D01*
X147396087Y-75969354D01*
X147396094Y-75969350D01*
X147511188Y-75883190D01*
X147511191Y-75883187D01*
X147597351Y-75768093D01*
X147597355Y-75768086D01*
X147646423Y-75636529D01*
X147688294Y-75580595D01*
X147753758Y-75556178D01*
X147822031Y-75571030D01*
X147850286Y-75592181D01*
X147972600Y-75714495D01*
X147981295Y-75720583D01*
X148166166Y-75850032D01*
X148166168Y-75850033D01*
X148166171Y-75850035D01*
X148380338Y-75949903D01*
X148608593Y-76011063D01*
X148779320Y-76026000D01*
X148844000Y-76031659D01*
X148844001Y-76031659D01*
X148844002Y-76031659D01*
X148908682Y-76026000D01*
X149079409Y-76011063D01*
X149307664Y-75949903D01*
X149521831Y-75850035D01*
X149715402Y-75714495D01*
X149882496Y-75547401D01*
X150012425Y-75361842D01*
X150067002Y-75318218D01*
X150136500Y-75311024D01*
X150198855Y-75342547D01*
X150215575Y-75361842D01*
X150345505Y-75547401D01*
X150512599Y-75714495D01*
X150521294Y-75720583D01*
X150706165Y-75850032D01*
X150706167Y-75850033D01*
X150706170Y-75850035D01*
X150920337Y-75949903D01*
X151148592Y-76011063D01*
X151319319Y-76026000D01*
X151383999Y-76031659D01*
X151384000Y-76031659D01*
X151384001Y-76031659D01*
X151448681Y-76026000D01*
X151619408Y-76011063D01*
X151691989Y-75991615D01*
X151761839Y-75993278D01*
X151811763Y-76023709D01*
X152793325Y-77005272D01*
X152793332Y-77005278D01*
X152899868Y-77076462D01*
X152899874Y-77076466D01*
X152969221Y-77105189D01*
X153018256Y-77125501D01*
X153018259Y-77125501D01*
X153018260Y-77125502D01*
X153143928Y-77150500D01*
X153170663Y-77150500D01*
X153237702Y-77170185D01*
X153283457Y-77222989D01*
X153293401Y-77292147D01*
X153264376Y-77355703D01*
X153241787Y-77376073D01*
X153202370Y-77403673D01*
X153084859Y-77485954D01*
X152923955Y-77646858D01*
X152793433Y-77833265D01*
X152793432Y-77833267D01*
X152766383Y-77891275D01*
X152720210Y-77943714D01*
X152653017Y-77962866D01*
X152586136Y-77942650D01*
X152541619Y-77891275D01*
X152514687Y-77833520D01*
X152514569Y-77833266D01*
X152384048Y-77646861D01*
X152384046Y-77646858D01*
X152223142Y-77485954D01*
X152036735Y-77355432D01*
X152036733Y-77355431D01*
X151830498Y-77259261D01*
X151830489Y-77259258D01*
X151610698Y-77200366D01*
X151610694Y-77200365D01*
X151610693Y-77200365D01*
X151610692Y-77200364D01*
X151610687Y-77200364D01*
X151384003Y-77180532D01*
X151383999Y-77180532D01*
X151157314Y-77200364D01*
X151157303Y-77200366D01*
X150937512Y-77259258D01*
X150937503Y-77259261D01*
X150731268Y-77355431D01*
X150731266Y-77355432D01*
X150544859Y-77485954D01*
X150383955Y-77646858D01*
X150253433Y-77833265D01*
X150253432Y-77833267D01*
X150226383Y-77891275D01*
X150180210Y-77943714D01*
X150113017Y-77962866D01*
X150046136Y-77942650D01*
X150001619Y-77891275D01*
X149974687Y-77833520D01*
X149974569Y-77833266D01*
X149844048Y-77646861D01*
X149844046Y-77646858D01*
X149683142Y-77485954D01*
X149496735Y-77355432D01*
X149496733Y-77355431D01*
X149290498Y-77259261D01*
X149290489Y-77259258D01*
X149070698Y-77200366D01*
X149070694Y-77200365D01*
X149070693Y-77200365D01*
X149070692Y-77200364D01*
X149070687Y-77200364D01*
X148844003Y-77180532D01*
X148843999Y-77180532D01*
X148617314Y-77200364D01*
X148617303Y-77200366D01*
X148397512Y-77259258D01*
X148397503Y-77259261D01*
X148191268Y-77355431D01*
X148191266Y-77355432D01*
X148004859Y-77485954D01*
X147843955Y-77646858D01*
X147713433Y-77833265D01*
X147713432Y-77833267D01*
X147686383Y-77891275D01*
X147640210Y-77943714D01*
X147573017Y-77962866D01*
X147506136Y-77942650D01*
X147461619Y-77891275D01*
X147434687Y-77833520D01*
X147434569Y-77833266D01*
X147304048Y-77646861D01*
X147304046Y-77646858D01*
X147143142Y-77485954D01*
X146956735Y-77355432D01*
X146956733Y-77355431D01*
X146750498Y-77259261D01*
X146750489Y-77259258D01*
X146530698Y-77200366D01*
X146530694Y-77200365D01*
X146530693Y-77200365D01*
X146530692Y-77200364D01*
X146530687Y-77200364D01*
X146304003Y-77180532D01*
X146303999Y-77180532D01*
X146077314Y-77200364D01*
X146077303Y-77200366D01*
X145857512Y-77259258D01*
X145857503Y-77259261D01*
X145651268Y-77355431D01*
X145651266Y-77355432D01*
X145464859Y-77485954D01*
X145303955Y-77646858D01*
X145173433Y-77833265D01*
X145173432Y-77833267D01*
X145146383Y-77891275D01*
X145100210Y-77943714D01*
X145033017Y-77962866D01*
X144966136Y-77942650D01*
X144921619Y-77891275D01*
X144894687Y-77833520D01*
X144894569Y-77833266D01*
X144764048Y-77646861D01*
X144764046Y-77646858D01*
X144603142Y-77485954D01*
X144416735Y-77355432D01*
X144416733Y-77355431D01*
X144210498Y-77259261D01*
X144210489Y-77259258D01*
X143990698Y-77200366D01*
X143990694Y-77200365D01*
X143990693Y-77200365D01*
X143990692Y-77200364D01*
X143990687Y-77200364D01*
X143764003Y-77180532D01*
X143763999Y-77180532D01*
X143537314Y-77200364D01*
X143537303Y-77200366D01*
X143317512Y-77259258D01*
X143317503Y-77259261D01*
X143111268Y-77355431D01*
X143111266Y-77355432D01*
X142924859Y-77485954D01*
X142763955Y-77646858D01*
X142633433Y-77833265D01*
X142633432Y-77833267D01*
X142606383Y-77891275D01*
X142560210Y-77943714D01*
X142493017Y-77962866D01*
X142426136Y-77942650D01*
X142381619Y-77891275D01*
X142354687Y-77833520D01*
X142354569Y-77833266D01*
X142224048Y-77646861D01*
X142224046Y-77646858D01*
X142063142Y-77485954D01*
X141876735Y-77355432D01*
X141876733Y-77355431D01*
X141670498Y-77259261D01*
X141670489Y-77259258D01*
X141450698Y-77200366D01*
X141450694Y-77200365D01*
X141450693Y-77200365D01*
X141450692Y-77200364D01*
X141450687Y-77200364D01*
X141224003Y-77180532D01*
X141223999Y-77180532D01*
X140997314Y-77200364D01*
X140997303Y-77200366D01*
X140777512Y-77259258D01*
X140777503Y-77259261D01*
X140571268Y-77355431D01*
X140571266Y-77355432D01*
X140384859Y-77485954D01*
X140223955Y-77646858D01*
X140093433Y-77833265D01*
X140093432Y-77833267D01*
X140066383Y-77891275D01*
X140020210Y-77943714D01*
X139953017Y-77962866D01*
X139886136Y-77942650D01*
X139841619Y-77891275D01*
X139814687Y-77833520D01*
X139814569Y-77833266D01*
X139684048Y-77646861D01*
X139684046Y-77646858D01*
X139523142Y-77485954D01*
X139336735Y-77355432D01*
X139336733Y-77355431D01*
X139130498Y-77259261D01*
X139130489Y-77259258D01*
X138910698Y-77200366D01*
X138910694Y-77200365D01*
X138910693Y-77200365D01*
X138910692Y-77200364D01*
X138910687Y-77200364D01*
X138684003Y-77180532D01*
X138683999Y-77180532D01*
X138457314Y-77200364D01*
X138457303Y-77200366D01*
X138340594Y-77231638D01*
X138270744Y-77229975D01*
X138212882Y-77190812D01*
X138185378Y-77126583D01*
X138184501Y-77111863D01*
X138184501Y-77050228D01*
X138204186Y-76983189D01*
X138220816Y-76962551D01*
X138926652Y-76256714D01*
X138987973Y-76223231D01*
X139025135Y-76220869D01*
X139168366Y-76233400D01*
X139191999Y-76235468D01*
X139192000Y-76235468D01*
X139192002Y-76235468D01*
X139248673Y-76230509D01*
X139418692Y-76215635D01*
X139638496Y-76156739D01*
X139844734Y-76060568D01*
X140031139Y-75930047D01*
X140192047Y-75769139D01*
X140322568Y-75582734D01*
X140418739Y-75376496D01*
X140477635Y-75156692D01*
X140497468Y-74930000D01*
X140495841Y-74911408D01*
X140487640Y-74817666D01*
X140477635Y-74703308D01*
X140418739Y-74483504D01*
X140322568Y-74277266D01*
X140192047Y-74090861D01*
X140192045Y-74090858D01*
X140031141Y-73929954D01*
X139844734Y-73799432D01*
X139844732Y-73799431D01*
X139638497Y-73703261D01*
X139638488Y-73703258D01*
X139418697Y-73644366D01*
X139418693Y-73644365D01*
X139418692Y-73644365D01*
X139418691Y-73644364D01*
X139418686Y-73644364D01*
X139192002Y-73624532D01*
X139191998Y-73624532D01*
X138965313Y-73644364D01*
X138965302Y-73644366D01*
X138745511Y-73703258D01*
X138745502Y-73703261D01*
X138539267Y-73799431D01*
X138539265Y-73799432D01*
X138352858Y-73929954D01*
X138191954Y-74090858D01*
X138136075Y-74170663D01*
X138081498Y-74214288D01*
X138012000Y-74221482D01*
X137949645Y-74189959D01*
X137914231Y-74129730D01*
X137910500Y-74099540D01*
X137910500Y-72457586D01*
X137930185Y-72390547D01*
X137982989Y-72344792D01*
X138052147Y-72334848D01*
X138115703Y-72363873D01*
X138136075Y-72386463D01*
X138192339Y-72466817D01*
X138353179Y-72627657D01*
X138539517Y-72758134D01*
X138745673Y-72854265D01*
X138745682Y-72854269D01*
X138941999Y-72906872D01*
X138942000Y-72906871D01*
X138942000Y-71943686D01*
X138946394Y-71948080D01*
X139037606Y-72000741D01*
X139139339Y-72028000D01*
X139244661Y-72028000D01*
X139346394Y-72000741D01*
X139437606Y-71948080D01*
X139442000Y-71943686D01*
X139442000Y-72906872D01*
X139638317Y-72854269D01*
X139638326Y-72854265D01*
X139844482Y-72758134D01*
X140030820Y-72627657D01*
X140191657Y-72466820D01*
X140322134Y-72280482D01*
X140418265Y-72074326D01*
X140418269Y-72074317D01*
X140470872Y-71878000D01*
X139507686Y-71878000D01*
X139512080Y-71873606D01*
X139564741Y-71782394D01*
X139592000Y-71680661D01*
X139592000Y-71575339D01*
X139564741Y-71473606D01*
X139512080Y-71382394D01*
X139507686Y-71378000D01*
X140470872Y-71378000D01*
X140470872Y-71377999D01*
X140418269Y-71181682D01*
X140418265Y-71181673D01*
X140322134Y-70975517D01*
X140245447Y-70865998D01*
X145760532Y-70865998D01*
X145760532Y-70866001D01*
X145780364Y-71092686D01*
X145780366Y-71092697D01*
X145839258Y-71312488D01*
X145839261Y-71312497D01*
X145935429Y-71518728D01*
X145935432Y-71518734D01*
X146065954Y-71705141D01*
X146226858Y-71866045D01*
X146226861Y-71866047D01*
X146413266Y-71996568D01*
X146619504Y-72092739D01*
X146839308Y-72151635D01*
X147001230Y-72165801D01*
X147065998Y-72171468D01*
X147066000Y-72171468D01*
X147066002Y-72171468D01*
X147122673Y-72166509D01*
X147292692Y-72151635D01*
X147512496Y-72092739D01*
X147718734Y-71996568D01*
X147905139Y-71866047D01*
X148066047Y-71705139D01*
X148196568Y-71518734D01*
X148292739Y-71312496D01*
X148351635Y-71092692D01*
X148371468Y-70866000D01*
X148356869Y-70699137D01*
X148370635Y-70630639D01*
X148392713Y-70600653D01*
X150782951Y-68210416D01*
X150865084Y-68087495D01*
X150921658Y-67950913D01*
X150935861Y-67879511D01*
X150950500Y-67805920D01*
X150950500Y-67599998D01*
X151704532Y-67599998D01*
X151704532Y-67600001D01*
X151724364Y-67826686D01*
X151724366Y-67826697D01*
X151783258Y-68046488D01*
X151783261Y-68046497D01*
X151879431Y-68252732D01*
X151879432Y-68252734D01*
X152009954Y-68439141D01*
X152170858Y-68600045D01*
X152170861Y-68600047D01*
X152357266Y-68730568D01*
X152563504Y-68826739D01*
X152783308Y-68885635D01*
X152945230Y-68899801D01*
X153009998Y-68905468D01*
X153010000Y-68905468D01*
X153010002Y-68905468D01*
X153066673Y-68900509D01*
X153236692Y-68885635D01*
X153456496Y-68826739D01*
X153662734Y-68730568D01*
X153849139Y-68600047D01*
X154010047Y-68439139D01*
X154140568Y-68252734D01*
X154236739Y-68046496D01*
X154295635Y-67826692D01*
X154315468Y-67600000D01*
X154295635Y-67373308D01*
X154236739Y-67153504D01*
X154140568Y-66947266D01*
X154014369Y-66767033D01*
X154010045Y-66760858D01*
X153849141Y-66599954D01*
X153662734Y-66469432D01*
X153662732Y-66469431D01*
X153456497Y-66373261D01*
X153456488Y-66373258D01*
X153236697Y-66314366D01*
X153236693Y-66314365D01*
X153236692Y-66314365D01*
X153236691Y-66314364D01*
X153236686Y-66314364D01*
X153010002Y-66294532D01*
X153009998Y-66294532D01*
X152783313Y-66314364D01*
X152783302Y-66314366D01*
X152563511Y-66373258D01*
X152563502Y-66373261D01*
X152357267Y-66469431D01*
X152357265Y-66469432D01*
X152170858Y-66599954D01*
X152009954Y-66760858D01*
X151879432Y-66947265D01*
X151879431Y-66947267D01*
X151783261Y-67153502D01*
X151783258Y-67153511D01*
X151724366Y-67373302D01*
X151724364Y-67373313D01*
X151704532Y-67599998D01*
X150950500Y-67599998D01*
X150950500Y-63299993D01*
X154839040Y-63299993D01*
X154839040Y-63300006D01*
X154858870Y-63766840D01*
X154918224Y-64230344D01*
X155016669Y-64687129D01*
X155016671Y-64687137D01*
X155153497Y-65133923D01*
X155153502Y-65133936D01*
X155327719Y-65567489D01*
X155327723Y-65567500D01*
X155538083Y-65984723D01*
X155538093Y-65984743D01*
X155783091Y-66382643D01*
X156060947Y-66758330D01*
X156060953Y-66758338D01*
X156281508Y-67008936D01*
X156281509Y-67008936D01*
X158408188Y-64882257D01*
X158476958Y-64968491D01*
X158675509Y-65167042D01*
X158761741Y-65235810D01*
X156634565Y-67362987D01*
X156707014Y-67432423D01*
X157070573Y-67725975D01*
X157457698Y-67987626D01*
X157457717Y-67987638D01*
X157865636Y-68215516D01*
X157865658Y-68215527D01*
X158291434Y-68407990D01*
X158291440Y-68407992D01*
X158732026Y-68563661D01*
X159184220Y-68681402D01*
X159644768Y-68760371D01*
X159644776Y-68760372D01*
X160110344Y-68799999D01*
X160110364Y-68800000D01*
X160577636Y-68800000D01*
X160577655Y-68799999D01*
X161043223Y-68760372D01*
X161043231Y-68760371D01*
X161503779Y-68681402D01*
X161955973Y-68563661D01*
X162396559Y-68407992D01*
X162396565Y-68407990D01*
X162822341Y-68215527D01*
X162822363Y-68215516D01*
X163230282Y-67987638D01*
X163230301Y-67987626D01*
X163617433Y-67725971D01*
X163617434Y-67725970D01*
X163980976Y-67432430D01*
X163980992Y-67432416D01*
X164053433Y-67362986D01*
X161926258Y-65235811D01*
X162012491Y-65167042D01*
X162211042Y-64968491D01*
X162279811Y-64882258D01*
X164406489Y-67008936D01*
X164406490Y-67008936D01*
X164627047Y-66758335D01*
X164627061Y-66758318D01*
X164904908Y-66382643D01*
X165149906Y-65984743D01*
X165149916Y-65984723D01*
X165360276Y-65567500D01*
X165360280Y-65567489D01*
X165534497Y-65133936D01*
X165534502Y-65133923D01*
X165671328Y-64687137D01*
X165671330Y-64687129D01*
X165769775Y-64230344D01*
X165829129Y-63766840D01*
X165848960Y-63300006D01*
X165848960Y-63299993D01*
X165829129Y-62833159D01*
X165769775Y-62369655D01*
X165671330Y-61912870D01*
X165671328Y-61912862D01*
X165534502Y-61466076D01*
X165534497Y-61466063D01*
X165360280Y-61032510D01*
X165360276Y-61032499D01*
X165149916Y-60615276D01*
X165149906Y-60615256D01*
X164904908Y-60217356D01*
X164627052Y-59841669D01*
X164627046Y-59841661D01*
X164406490Y-59591062D01*
X162279810Y-61717741D01*
X162211042Y-61631509D01*
X162012491Y-61432958D01*
X161926256Y-61364187D01*
X164053433Y-59237011D01*
X163980985Y-59167576D01*
X163617426Y-58874024D01*
X163230301Y-58612373D01*
X163230282Y-58612361D01*
X162822363Y-58384483D01*
X162822341Y-58384472D01*
X162396565Y-58192009D01*
X162396559Y-58192007D01*
X161955973Y-58036338D01*
X161503779Y-57918597D01*
X161043231Y-57839628D01*
X161043223Y-57839627D01*
X160577655Y-57800000D01*
X160110344Y-57800000D01*
X159644776Y-57839627D01*
X159644768Y-57839628D01*
X159184220Y-57918597D01*
X158732026Y-58036338D01*
X158291440Y-58192007D01*
X158291434Y-58192009D01*
X157865658Y-58384472D01*
X157865636Y-58384483D01*
X157457717Y-58612361D01*
X157457698Y-58612373D01*
X157070566Y-58874028D01*
X157070565Y-58874029D01*
X156707024Y-59167568D01*
X156707008Y-59167582D01*
X156634565Y-59237012D01*
X158761741Y-61364188D01*
X158675509Y-61432958D01*
X158476958Y-61631509D01*
X158408188Y-61717742D01*
X156281509Y-59591063D01*
X156060947Y-59841669D01*
X156060944Y-59841673D01*
X155783091Y-60217356D01*
X155538093Y-60615256D01*
X155538083Y-60615276D01*
X155327723Y-61032499D01*
X155327719Y-61032510D01*
X155153502Y-61466063D01*
X155153497Y-61466076D01*
X155016671Y-61912862D01*
X155016669Y-61912870D01*
X154918224Y-62369655D01*
X154858870Y-62833159D01*
X154839040Y-63299993D01*
X150950500Y-63299993D01*
X150950500Y-61507371D01*
X150970185Y-61440332D01*
X150986819Y-61419690D01*
X154022037Y-58384472D01*
X157113458Y-55293050D01*
X157174779Y-55259567D01*
X157244471Y-55264551D01*
X157270568Y-55277995D01*
X157627447Y-55519202D01*
X157808768Y-55620494D01*
X158035411Y-55747105D01*
X158035433Y-55747116D01*
X158461247Y-55939597D01*
X158461252Y-55939599D01*
X158664332Y-56011351D01*
X158901876Y-56095281D01*
X159354113Y-56213034D01*
X159814708Y-56292011D01*
X159958850Y-56304279D01*
X160280323Y-56331641D01*
X160280340Y-56331641D01*
X160280342Y-56331642D01*
X160280343Y-56331642D01*
X160747657Y-56331642D01*
X160747658Y-56331642D01*
X160747659Y-56331641D01*
X160747676Y-56331641D01*
X161024812Y-56308052D01*
X161213292Y-56292011D01*
X161673887Y-56213034D01*
X162126124Y-56095281D01*
X162566747Y-55939599D01*
X162566752Y-55939597D01*
X162992566Y-55747116D01*
X162992568Y-55747114D01*
X162992579Y-55747110D01*
X163400553Y-55519202D01*
X163787730Y-55257517D01*
X164151319Y-54963939D01*
X164488701Y-54640584D01*
X164666296Y-54438797D01*
X164797436Y-54289795D01*
X164797442Y-54289787D01*
X164797446Y-54289783D01*
X165075328Y-53914061D01*
X165320345Y-53516127D01*
X165530733Y-53098848D01*
X165704975Y-52665230D01*
X165841816Y-52218397D01*
X165940270Y-51761569D01*
X165999628Y-51298038D01*
X166019461Y-50831142D01*
X165999628Y-50364246D01*
X165940270Y-49900715D01*
X165841816Y-49443887D01*
X165704975Y-48997054D01*
X165680116Y-48935191D01*
X165530737Y-48563446D01*
X165530733Y-48563435D01*
X165320354Y-48146174D01*
X165320343Y-48146154D01*
X165310554Y-48130256D01*
X165075328Y-47748223D01*
X164797446Y-47372501D01*
X164797442Y-47372496D01*
X164797436Y-47372488D01*
X164488702Y-47021701D01*
X164488689Y-47021688D01*
X164151322Y-46698347D01*
X164030122Y-46600485D01*
X163787730Y-46404767D01*
X163400553Y-46143082D01*
X163231081Y-46048409D01*
X162992588Y-45915178D01*
X162992566Y-45915167D01*
X162566752Y-45722686D01*
X162566747Y-45722684D01*
X162126119Y-45567001D01*
X161673885Y-45449249D01*
X161213302Y-45370274D01*
X161213276Y-45370271D01*
X160747676Y-45330642D01*
X160747658Y-45330642D01*
X160280342Y-45330642D01*
X160280323Y-45330642D01*
X159814723Y-45370271D01*
X159814697Y-45370274D01*
X159354114Y-45449249D01*
X158901880Y-45567001D01*
X158461252Y-45722684D01*
X158461247Y-45722686D01*
X158035433Y-45915167D01*
X158035411Y-45915178D01*
X157627455Y-46143077D01*
X157627436Y-46143089D01*
X157240275Y-46404763D01*
X156876677Y-46698347D01*
X156539310Y-47021688D01*
X156539297Y-47021701D01*
X156230563Y-47372488D01*
X156230557Y-47372496D01*
X155952675Y-47748218D01*
X155707656Y-48146154D01*
X155707645Y-48146174D01*
X155497266Y-48563435D01*
X155497262Y-48563446D01*
X155323027Y-48997046D01*
X155323025Y-48997051D01*
X155186186Y-49443878D01*
X155186184Y-49443886D01*
X155087730Y-49900715D01*
X155028370Y-50364259D01*
X155008539Y-50831135D01*
X155008539Y-50831148D01*
X155028370Y-51298024D01*
X155087730Y-51761568D01*
X155186184Y-52218397D01*
X155186186Y-52218405D01*
X155323025Y-52665232D01*
X155323027Y-52665237D01*
X155497262Y-53098837D01*
X155497266Y-53098848D01*
X155707645Y-53516109D01*
X155707655Y-53516127D01*
X155952672Y-53914061D01*
X156066461Y-54067914D01*
X156090497Y-54133516D01*
X156075250Y-54201702D01*
X156054445Y-54229327D01*
X149617050Y-60666722D01*
X149617044Y-60666730D01*
X149567812Y-60740410D01*
X149567813Y-60740411D01*
X149534921Y-60789638D01*
X149534914Y-60789650D01*
X149478342Y-60926228D01*
X149478340Y-60926234D01*
X149449500Y-61071221D01*
X149449500Y-67369769D01*
X149429815Y-67436808D01*
X149413181Y-67457450D01*
X147331348Y-69539282D01*
X147270025Y-69572767D01*
X147232861Y-69575129D01*
X147066003Y-69560532D01*
X147065998Y-69560532D01*
X146839313Y-69580364D01*
X146839302Y-69580366D01*
X146619511Y-69639258D01*
X146619502Y-69639261D01*
X146413267Y-69735431D01*
X146413265Y-69735432D01*
X146226858Y-69865954D01*
X146065954Y-70026858D01*
X145935432Y-70213265D01*
X145935431Y-70213267D01*
X145839261Y-70419502D01*
X145839258Y-70419511D01*
X145780366Y-70639302D01*
X145780364Y-70639313D01*
X145760532Y-70865998D01*
X140245447Y-70865998D01*
X140191657Y-70789179D01*
X140030820Y-70628342D01*
X139844482Y-70497865D01*
X139638328Y-70401734D01*
X139442000Y-70349127D01*
X139442000Y-71312314D01*
X139437606Y-71307920D01*
X139346394Y-71255259D01*
X139244661Y-71228000D01*
X139139339Y-71228000D01*
X139037606Y-71255259D01*
X138946394Y-71307920D01*
X138942000Y-71312314D01*
X138942000Y-70349127D01*
X138745671Y-70401734D01*
X138539517Y-70497865D01*
X138353179Y-70628342D01*
X138192342Y-70789179D01*
X138136075Y-70869537D01*
X138081497Y-70913162D01*
X138011999Y-70920354D01*
X137949644Y-70888832D01*
X137914231Y-70828602D01*
X137910500Y-70798413D01*
X137910500Y-70225500D01*
X137930185Y-70158461D01*
X137982989Y-70112706D01*
X138034500Y-70101500D01*
X138347906Y-70101500D01*
X138347913Y-70101500D01*
X138476806Y-70084791D01*
X138476810Y-70084790D01*
X138476811Y-70084790D01*
X138499749Y-70078741D01*
X138537952Y-70068667D01*
X138658329Y-70019642D01*
X138772129Y-69931601D01*
X138820744Y-69881418D01*
X138905128Y-69764885D01*
X138927613Y-69701548D01*
X138968589Y-69644959D01*
X139033658Y-69619505D01*
X139055267Y-69619505D01*
X139192000Y-69631468D01*
X139192001Y-69631468D01*
X139250494Y-69626350D01*
X139325907Y-69619752D01*
X139394407Y-69633518D01*
X139444590Y-69682133D01*
X139455195Y-69706695D01*
X139463473Y-69733504D01*
X139541257Y-69854537D01*
X139541265Y-69854548D01*
X139587009Y-69907340D01*
X139587012Y-69907343D01*
X139587016Y-69907347D01*
X139695750Y-70001567D01*
X139695753Y-70001568D01*
X139695754Y-70001569D01*
X139790011Y-70044616D01*
X139826627Y-70061338D01*
X139893666Y-70081023D01*
X139893670Y-70081024D01*
X140036086Y-70101500D01*
X140036089Y-70101500D01*
X140591990Y-70101500D01*
X140592000Y-70101500D01*
X140699456Y-70089947D01*
X140750967Y-70078741D01*
X140785197Y-70067347D01*
X140853497Y-70044616D01*
X140853501Y-70044613D01*
X140853504Y-70044613D01*
X140974543Y-69966825D01*
X141027347Y-69921070D01*
X141121567Y-69812336D01*
X141181338Y-69681459D01*
X141201023Y-69614420D01*
X141201024Y-69614416D01*
X141221500Y-69472000D01*
X141221500Y-68603044D01*
X141221464Y-68597049D01*
X141221429Y-68594098D01*
X141221322Y-68588059D01*
X141197461Y-68446171D01*
X141176186Y-68379619D01*
X141175840Y-68378908D01*
X141175797Y-68378648D01*
X141174539Y-68375506D01*
X141175222Y-68375232D01*
X141164250Y-68310008D01*
X141174581Y-68273207D01*
X141181338Y-68258414D01*
X141201023Y-68191375D01*
X141201024Y-68191371D01*
X141221500Y-68048955D01*
X141221500Y-67349999D01*
X144111127Y-67349999D01*
X144111128Y-67350000D01*
X145074314Y-67350000D01*
X145069920Y-67354394D01*
X145017259Y-67445606D01*
X144990000Y-67547339D01*
X144990000Y-67652661D01*
X145017259Y-67754394D01*
X145069920Y-67845606D01*
X145074314Y-67850000D01*
X144111128Y-67850000D01*
X144163730Y-68046317D01*
X144163734Y-68046326D01*
X144259865Y-68252482D01*
X144390342Y-68438820D01*
X144551179Y-68599657D01*
X144737517Y-68730134D01*
X144943673Y-68826265D01*
X144943682Y-68826269D01*
X145139999Y-68878872D01*
X145140000Y-68878871D01*
X145140000Y-67915686D01*
X145144394Y-67920080D01*
X145235606Y-67972741D01*
X145337339Y-68000000D01*
X145442661Y-68000000D01*
X145544394Y-67972741D01*
X145635606Y-67920080D01*
X145640000Y-67915686D01*
X145640000Y-68878872D01*
X145836317Y-68826269D01*
X145836326Y-68826265D01*
X146042482Y-68730134D01*
X146228820Y-68599657D01*
X146389657Y-68438820D01*
X146520134Y-68252482D01*
X146616265Y-68046326D01*
X146616269Y-68046317D01*
X146668872Y-67850000D01*
X145705686Y-67850000D01*
X145710080Y-67845606D01*
X145762741Y-67754394D01*
X145790000Y-67652661D01*
X145790000Y-67547339D01*
X145762741Y-67445606D01*
X145710080Y-67354394D01*
X145705686Y-67350000D01*
X146668872Y-67350000D01*
X146668872Y-67349999D01*
X146616269Y-67153682D01*
X146616265Y-67153673D01*
X146520134Y-66947517D01*
X146389657Y-66761179D01*
X146228820Y-66600342D01*
X146042482Y-66469865D01*
X145836328Y-66373734D01*
X145640000Y-66321127D01*
X145640000Y-67284314D01*
X145635606Y-67279920D01*
X145544394Y-67227259D01*
X145442661Y-67200000D01*
X145337339Y-67200000D01*
X145235606Y-67227259D01*
X145144394Y-67279920D01*
X145140000Y-67284314D01*
X145140000Y-66321127D01*
X144943671Y-66373734D01*
X144737517Y-66469865D01*
X144551179Y-66600342D01*
X144390342Y-66761179D01*
X144259865Y-66947517D01*
X144163734Y-67153673D01*
X144163730Y-67153682D01*
X144111127Y-67349999D01*
X141221500Y-67349999D01*
X141221500Y-66926000D01*
X141209947Y-66818544D01*
X141198741Y-66767033D01*
X141195840Y-66758318D01*
X141164616Y-66664502D01*
X141164613Y-66664496D01*
X141086828Y-66543462D01*
X141086825Y-66543457D01*
X141077213Y-66532364D01*
X141041076Y-66490659D01*
X141041072Y-66490656D01*
X141041070Y-66490653D01*
X140932336Y-66396433D01*
X140932333Y-66396431D01*
X140932331Y-66396430D01*
X140801465Y-66336664D01*
X140801460Y-66336662D01*
X140801459Y-66336662D01*
X140734420Y-66316977D01*
X140734422Y-66316977D01*
X140734417Y-66316976D01*
X140672354Y-66308053D01*
X140592000Y-66296500D01*
X139469044Y-66296500D01*
X139466891Y-66296512D01*
X139462999Y-66296536D01*
X139460195Y-66296569D01*
X139454057Y-66296678D01*
X139454055Y-66296678D01*
X139312178Y-66320537D01*
X139312172Y-66320538D01*
X139312171Y-66320539D01*
X139245619Y-66341814D01*
X139245617Y-66341814D01*
X139245604Y-66341819D01*
X139244891Y-66342166D01*
X139244627Y-66342210D01*
X139241495Y-66343464D01*
X139241222Y-66342782D01*
X139175987Y-66353745D01*
X139139211Y-66343419D01*
X139124418Y-66336663D01*
X139057373Y-66316976D01*
X138995310Y-66308053D01*
X138914956Y-66296500D01*
X138034500Y-66296500D01*
X137967461Y-66276815D01*
X137921706Y-66224011D01*
X137910500Y-66172500D01*
X137910500Y-49002230D01*
X137930185Y-48935191D01*
X137946819Y-48914549D01*
X138010771Y-48850597D01*
X138072094Y-48817112D01*
X138072671Y-48816988D01*
X138114776Y-48808038D01*
X138137803Y-48803144D01*
X138137805Y-48803142D01*
X138137808Y-48803142D01*
X138196058Y-48777206D01*
X138310730Y-48726151D01*
X138463871Y-48614888D01*
X138590533Y-48474216D01*
X138685179Y-48310284D01*
X138743674Y-48130256D01*
X138763460Y-47942000D01*
X138743674Y-47753744D01*
X138685179Y-47573716D01*
X138590533Y-47409784D01*
X138463871Y-47269112D01*
X138463870Y-47269111D01*
X138310734Y-47157851D01*
X138310729Y-47157848D01*
X138137807Y-47080857D01*
X138137802Y-47080855D01*
X137992001Y-47049865D01*
X137952646Y-47041500D01*
X137763354Y-47041500D01*
X137730897Y-47048398D01*
X137578197Y-47080855D01*
X137578192Y-47080857D01*
X137405270Y-47157848D01*
X137405265Y-47157851D01*
X137252129Y-47269111D01*
X137125466Y-47409785D01*
X137030821Y-47573715D01*
X137030818Y-47573722D01*
X136975479Y-47744039D01*
X136945229Y-47793402D01*
X136577048Y-48161583D01*
X136553368Y-48197023D01*
X136529846Y-48232229D01*
X136494914Y-48284507D01*
X136494913Y-48284509D01*
X136438343Y-48421082D01*
X136438340Y-48421092D01*
X136409500Y-48566079D01*
X136409500Y-74567770D01*
X136389815Y-74634809D01*
X136373181Y-74655451D01*
X133869349Y-77159282D01*
X133808026Y-77192767D01*
X133770861Y-77195129D01*
X133709674Y-77189776D01*
X133644605Y-77164324D01*
X133603626Y-77107733D01*
X133599748Y-77037971D01*
X133632798Y-76978569D01*
X135018952Y-75592417D01*
X135078006Y-75504035D01*
X135101084Y-75469496D01*
X135147869Y-75356547D01*
X135157659Y-75332913D01*
X135186500Y-75187918D01*
X135186500Y-75040083D01*
X135186500Y-48377224D01*
X135186500Y-48377221D01*
X135157658Y-48232229D01*
X135157656Y-48232224D01*
X135101087Y-48095653D01*
X135101080Y-48095640D01*
X135018952Y-47972727D01*
X134974105Y-47927880D01*
X134914416Y-47868191D01*
X134747412Y-47701187D01*
X134343150Y-47296924D01*
X134309665Y-47235601D01*
X134314649Y-47165909D01*
X134318450Y-47156837D01*
X134322737Y-47147642D01*
X134322739Y-47147638D01*
X134381635Y-46927834D01*
X134401468Y-46701142D01*
X134401223Y-46698347D01*
X134381635Y-46474455D01*
X134381635Y-46474450D01*
X134322739Y-46254646D01*
X134226568Y-46048408D01*
X134096047Y-45862003D01*
X134096045Y-45862000D01*
X133935141Y-45701096D01*
X133748734Y-45570574D01*
X133748732Y-45570573D01*
X133542497Y-45474403D01*
X133542488Y-45474400D01*
X133322697Y-45415508D01*
X133322693Y-45415507D01*
X133322692Y-45415507D01*
X133322691Y-45415506D01*
X133322686Y-45415506D01*
X133096002Y-45395674D01*
X133095998Y-45395674D01*
X132869313Y-45415506D01*
X132869302Y-45415508D01*
X132649511Y-45474400D01*
X132649502Y-45474403D01*
X132443267Y-45570573D01*
X132443265Y-45570574D01*
X132256858Y-45701096D01*
X132095954Y-45862000D01*
X131965432Y-46048407D01*
X131965431Y-46048409D01*
X131869261Y-46254644D01*
X131869258Y-46254653D01*
X131810366Y-46474444D01*
X131810364Y-46474455D01*
X131790532Y-46701140D01*
X131790532Y-46701143D01*
X131810364Y-46927828D01*
X131810366Y-46927839D01*
X131869258Y-47147630D01*
X131869261Y-47147639D01*
X131965431Y-47353874D01*
X131965432Y-47353876D01*
X132095954Y-47540283D01*
X132256858Y-47701187D01*
X132256861Y-47701189D01*
X132443266Y-47831710D01*
X132649504Y-47927881D01*
X132869308Y-47986777D01*
X132869318Y-47986777D01*
X132874637Y-47987716D01*
X132874444Y-47988810D01*
X132934296Y-48012217D01*
X132946107Y-48022617D01*
X133649181Y-48725690D01*
X133682666Y-48787013D01*
X133685500Y-48813371D01*
X133685500Y-74751770D01*
X133665815Y-74818809D01*
X133649181Y-74839451D01*
X133011258Y-75477374D01*
X132949935Y-75510859D01*
X132880243Y-75505875D01*
X132824310Y-75464003D01*
X132799893Y-75398539D01*
X132803802Y-75357600D01*
X132857635Y-75156692D01*
X132877468Y-74930000D01*
X132875841Y-74911408D01*
X132867640Y-74817666D01*
X132857635Y-74703308D01*
X132798739Y-74483504D01*
X132702568Y-74277266D01*
X132572047Y-74090861D01*
X132411139Y-73929953D01*
X132406373Y-73926615D01*
X132375375Y-73904910D01*
X132331751Y-73850332D01*
X132322500Y-73803336D01*
X132322500Y-72754662D01*
X132342185Y-72687623D01*
X132375379Y-72653086D01*
X132411140Y-72628046D01*
X132572045Y-72467141D01*
X132572047Y-72467139D01*
X132702568Y-72280734D01*
X132798739Y-72074496D01*
X132857635Y-71854692D01*
X132877468Y-71628000D01*
X132857635Y-71401308D01*
X132798739Y-71181504D01*
X132702568Y-70975266D01*
X132572047Y-70788861D01*
X132572045Y-70788858D01*
X132411141Y-70627954D01*
X132224734Y-70497432D01*
X132224732Y-70497431D01*
X132018497Y-70401261D01*
X132018488Y-70401258D01*
X131798697Y-70342366D01*
X131798693Y-70342365D01*
X131798692Y-70342365D01*
X131798691Y-70342364D01*
X131798686Y-70342364D01*
X131572002Y-70322532D01*
X131571998Y-70322532D01*
X131345313Y-70342364D01*
X131345302Y-70342366D01*
X131125511Y-70401258D01*
X131125502Y-70401261D01*
X130919267Y-70497431D01*
X130919265Y-70497432D01*
X130732858Y-70627954D01*
X130571954Y-70788858D01*
X130441432Y-70975265D01*
X130441431Y-70975267D01*
X130345261Y-71181502D01*
X130345258Y-71181511D01*
X130286366Y-71401302D01*
X130286364Y-71401313D01*
X130266532Y-71627998D01*
X130266532Y-71628001D01*
X130286364Y-71854686D01*
X130286366Y-71854697D01*
X130345258Y-72074488D01*
X130345261Y-72074497D01*
X130441431Y-72280732D01*
X130441432Y-72280734D01*
X130571954Y-72467141D01*
X130732859Y-72628046D01*
X130768621Y-72653086D01*
X130812247Y-72707662D01*
X130821500Y-72754662D01*
X130821500Y-73803336D01*
X130801815Y-73870375D01*
X130768625Y-73904910D01*
X130732863Y-73929951D01*
X130571951Y-74090862D01*
X130441432Y-74277265D01*
X130441431Y-74277267D01*
X130345261Y-74483502D01*
X130345258Y-74483511D01*
X130286366Y-74703302D01*
X130286364Y-74703313D01*
X130275429Y-74828307D01*
X130249977Y-74893376D01*
X130193386Y-74934355D01*
X130151901Y-74941500D01*
X129524046Y-74941500D01*
X129457007Y-74921815D01*
X129411252Y-74869011D01*
X129401308Y-74799853D01*
X129424780Y-74743189D01*
X129492793Y-74652335D01*
X129492792Y-74652335D01*
X129492796Y-74652331D01*
X129543091Y-74517483D01*
X129549500Y-74457873D01*
X129549499Y-72862128D01*
X129543091Y-72802517D01*
X129535170Y-72781281D01*
X129492797Y-72667671D01*
X129492793Y-72667664D01*
X129406547Y-72552455D01*
X129406544Y-72552452D01*
X129291335Y-72466206D01*
X129291328Y-72466202D01*
X129156482Y-72415908D01*
X129156483Y-72415908D01*
X129096883Y-72409501D01*
X129096881Y-72409500D01*
X129096873Y-72409500D01*
X129096864Y-72409500D01*
X127951129Y-72409500D01*
X127951123Y-72409501D01*
X127891516Y-72415908D01*
X127756672Y-72466202D01*
X127756665Y-72466206D01*
X127755556Y-72467037D01*
X127754258Y-72467520D01*
X127748887Y-72470454D01*
X127748465Y-72469681D01*
X127690090Y-72491449D01*
X127633801Y-72482325D01*
X127553130Y-72448910D01*
X127553118Y-72448907D01*
X127355006Y-72409500D01*
X127355002Y-72409500D01*
X127152996Y-72409500D01*
X127152991Y-72409500D01*
X126954879Y-72448907D01*
X126954871Y-72448909D01*
X126905953Y-72469172D01*
X126836483Y-72476641D01*
X126774004Y-72445366D01*
X126738352Y-72385277D01*
X126734500Y-72354611D01*
X126734500Y-71228229D01*
X126754185Y-71161190D01*
X126770819Y-71140548D01*
X128798548Y-69112819D01*
X128859871Y-69079334D01*
X128886229Y-69076500D01*
X130445337Y-69076500D01*
X130512376Y-69096185D01*
X130546912Y-69129377D01*
X130571954Y-69165141D01*
X130732858Y-69326045D01*
X130732861Y-69326047D01*
X130919266Y-69456568D01*
X131125504Y-69552739D01*
X131345308Y-69611635D01*
X131507230Y-69625801D01*
X131571998Y-69631468D01*
X131572000Y-69631468D01*
X131572002Y-69631468D01*
X131628673Y-69626509D01*
X131798692Y-69611635D01*
X132018496Y-69552739D01*
X132224734Y-69456568D01*
X132411139Y-69326047D01*
X132572047Y-69165139D01*
X132702568Y-68978734D01*
X132798739Y-68772496D01*
X132857635Y-68552692D01*
X132877468Y-68326000D01*
X132857635Y-68099308D01*
X132798739Y-67879504D01*
X132702568Y-67673266D01*
X132572047Y-67486861D01*
X132572045Y-67486858D01*
X132411141Y-67325954D01*
X132224734Y-67195432D01*
X132224732Y-67195431D01*
X132018497Y-67099261D01*
X132018488Y-67099258D01*
X131798697Y-67040366D01*
X131798693Y-67040365D01*
X131798692Y-67040365D01*
X131798691Y-67040364D01*
X131798686Y-67040364D01*
X131572002Y-67020532D01*
X131571998Y-67020532D01*
X131345313Y-67040364D01*
X131345302Y-67040366D01*
X131125511Y-67099258D01*
X131125502Y-67099261D01*
X130919267Y-67195431D01*
X130919265Y-67195432D01*
X130732858Y-67325954D01*
X130571954Y-67486858D01*
X130546912Y-67522623D01*
X130492335Y-67566248D01*
X130445337Y-67575500D01*
X128450080Y-67575500D01*
X128305092Y-67604340D01*
X128305082Y-67604343D01*
X128168511Y-67660912D01*
X128168498Y-67660919D01*
X128045584Y-67743048D01*
X128045580Y-67743051D01*
X125401047Y-70387584D01*
X125390015Y-70404095D01*
X125379031Y-70420536D01*
X125348870Y-70465674D01*
X125318914Y-70510507D01*
X125262343Y-70647082D01*
X125262340Y-70647092D01*
X125233500Y-70792079D01*
X125233500Y-72683861D01*
X125213815Y-72750900D01*
X125197181Y-72771542D01*
X125187444Y-72781278D01*
X125187441Y-72781281D01*
X125075217Y-72949237D01*
X125075212Y-72949247D01*
X124997909Y-73135872D01*
X124997907Y-73135880D01*
X124958500Y-73333992D01*
X124958500Y-73986007D01*
X124997907Y-74184119D01*
X124997909Y-74184127D01*
X125075212Y-74370752D01*
X125075217Y-74370762D01*
X125187441Y-74538718D01*
X125330281Y-74681558D01*
X125498237Y-74793782D01*
X125498241Y-74793784D01*
X125498244Y-74793786D01*
X125684873Y-74871091D01*
X125850777Y-74904091D01*
X125882992Y-74910499D01*
X125882996Y-74910500D01*
X125882997Y-74910500D01*
X126085004Y-74910500D01*
X126085005Y-74910499D01*
X126283127Y-74871091D01*
X126412105Y-74817665D01*
X126481574Y-74810197D01*
X126544054Y-74841472D01*
X126574119Y-74884774D01*
X126588914Y-74920492D01*
X126588917Y-74920498D01*
X126595267Y-74930001D01*
X126595269Y-74930003D01*
X126630684Y-74983007D01*
X126671050Y-75043419D01*
X126671051Y-75043420D01*
X127798049Y-76170416D01*
X127850864Y-76223231D01*
X127902585Y-76274952D01*
X128025498Y-76357080D01*
X128025511Y-76357087D01*
X128162082Y-76413656D01*
X128162087Y-76413658D01*
X128162091Y-76413658D01*
X128162092Y-76413659D01*
X128307079Y-76442500D01*
X128307082Y-76442500D01*
X130883920Y-76442500D01*
X131008241Y-76417770D01*
X131028913Y-76413658D01*
X131165495Y-76357084D01*
X131235577Y-76310257D01*
X131235580Y-76310254D01*
X131235582Y-76310254D01*
X131285620Y-76276820D01*
X131288416Y-76274952D01*
X131306650Y-76256717D01*
X131367971Y-76223231D01*
X131405135Y-76220869D01*
X131551298Y-76233656D01*
X131571999Y-76235468D01*
X131572000Y-76235468D01*
X131572002Y-76235468D01*
X131628673Y-76230509D01*
X131798692Y-76215635D01*
X131999600Y-76161802D01*
X132069448Y-76163465D01*
X132127311Y-76202627D01*
X132154815Y-76266856D01*
X132143229Y-76335758D01*
X132119373Y-76369258D01*
X131329349Y-77159282D01*
X131268026Y-77192767D01*
X131230862Y-77195129D01*
X131064004Y-77180532D01*
X131063999Y-77180532D01*
X130837314Y-77200364D01*
X130837303Y-77200366D01*
X130617512Y-77259258D01*
X130617503Y-77259261D01*
X130411268Y-77355431D01*
X130411266Y-77355432D01*
X130224859Y-77485954D01*
X130063955Y-77646858D01*
X129933433Y-77833265D01*
X129933432Y-77833267D01*
X129906383Y-77891275D01*
X129860210Y-77943714D01*
X129793017Y-77962866D01*
X129726136Y-77942650D01*
X129681619Y-77891275D01*
X129654687Y-77833520D01*
X129654569Y-77833266D01*
X129524048Y-77646861D01*
X129524046Y-77646858D01*
X129363142Y-77485954D01*
X129176735Y-77355432D01*
X129176733Y-77355431D01*
X128970498Y-77259261D01*
X128970489Y-77259258D01*
X128750698Y-77200366D01*
X128750694Y-77200365D01*
X128750693Y-77200365D01*
X128750692Y-77200364D01*
X128750687Y-77200364D01*
X128524003Y-77180532D01*
X128523999Y-77180532D01*
X128297314Y-77200364D01*
X128297303Y-77200366D01*
X128077512Y-77259258D01*
X128077503Y-77259261D01*
X127871268Y-77355431D01*
X127871266Y-77355432D01*
X127684859Y-77485954D01*
X127523955Y-77646858D01*
X127393434Y-77833264D01*
X127393433Y-77833266D01*
X127393316Y-77833518D01*
X127366107Y-77891867D01*
X127319934Y-77944306D01*
X127252740Y-77963457D01*
X127185859Y-77943241D01*
X127141343Y-77891865D01*
X127114136Y-77833520D01*
X127114135Y-77833518D01*
X126983658Y-77647179D01*
X126822821Y-77486342D01*
X126636483Y-77355865D01*
X126430329Y-77259734D01*
X126234001Y-77207127D01*
X126234001Y-78052988D01*
X126176994Y-78020075D01*
X126049827Y-77986000D01*
X125918175Y-77986000D01*
X125791008Y-78020075D01*
X125734001Y-78052988D01*
X125734001Y-77207127D01*
X125537672Y-77259734D01*
X125331518Y-77355865D01*
X125145180Y-77486342D01*
X124984343Y-77647179D01*
X124853868Y-77833515D01*
X124826658Y-77891867D01*
X124780485Y-77944306D01*
X124713291Y-77963457D01*
X124646410Y-77943241D01*
X124601894Y-77891865D01*
X124574686Y-77833518D01*
X124574569Y-77833266D01*
X124444048Y-77646861D01*
X124444046Y-77646858D01*
X124283142Y-77485954D01*
X124096735Y-77355432D01*
X124096733Y-77355431D01*
X123890498Y-77259261D01*
X123890489Y-77259258D01*
X123670698Y-77200366D01*
X123670694Y-77200365D01*
X123670693Y-77200365D01*
X123670692Y-77200364D01*
X123670687Y-77200364D01*
X123444003Y-77180532D01*
X123443999Y-77180532D01*
X123217314Y-77200364D01*
X123217303Y-77200366D01*
X122997512Y-77259258D01*
X122997503Y-77259261D01*
X122791268Y-77355431D01*
X122791266Y-77355432D01*
X122604859Y-77485954D01*
X122443955Y-77646858D01*
X122313433Y-77833265D01*
X122313432Y-77833267D01*
X122217262Y-78039502D01*
X122217259Y-78039511D01*
X122158367Y-78259302D01*
X122158365Y-78259313D01*
X122138533Y-78485998D01*
X122138533Y-78486001D01*
X122158365Y-78712686D01*
X122158367Y-78712697D01*
X122217259Y-78932488D01*
X122217262Y-78932497D01*
X122313432Y-79138732D01*
X122313433Y-79138734D01*
X122443955Y-79325141D01*
X122604859Y-79486045D01*
X122604862Y-79486047D01*
X122791267Y-79616568D01*
X122997505Y-79712739D01*
X123217309Y-79771635D01*
X123379231Y-79785801D01*
X123443999Y-79791468D01*
X123444001Y-79791468D01*
X123444003Y-79791468D01*
X123500674Y-79786509D01*
X123670693Y-79771635D01*
X123890497Y-79712739D01*
X124096735Y-79616568D01*
X124283140Y-79486047D01*
X124444048Y-79325139D01*
X124574569Y-79138734D01*
X124601896Y-79080129D01*
X124648065Y-79027695D01*
X124715258Y-79008542D01*
X124782140Y-79028757D01*
X124826658Y-79080133D01*
X124853866Y-79138482D01*
X124984343Y-79324820D01*
X125145180Y-79485657D01*
X125331518Y-79616134D01*
X125537674Y-79712265D01*
X125537683Y-79712269D01*
X125734000Y-79764872D01*
X125734001Y-79764871D01*
X125734001Y-78919012D01*
X125791008Y-78951925D01*
X125918175Y-78986000D01*
X126049827Y-78986000D01*
X126176994Y-78951925D01*
X126234001Y-78919012D01*
X126234001Y-79764872D01*
X126430318Y-79712269D01*
X126430327Y-79712265D01*
X126636483Y-79616134D01*
X126822821Y-79485657D01*
X126983658Y-79324820D01*
X127114133Y-79138484D01*
X127141342Y-79080134D01*
X127187514Y-79027695D01*
X127254708Y-79008542D01*
X127321589Y-79028757D01*
X127366107Y-79080133D01*
X127393432Y-79138732D01*
X127393433Y-79138734D01*
X127523955Y-79325141D01*
X127684859Y-79486045D01*
X127684862Y-79486047D01*
X127871267Y-79616568D01*
X128077505Y-79712739D01*
X128297309Y-79771635D01*
X128459231Y-79785801D01*
X128523999Y-79791468D01*
X128524001Y-79791468D01*
X128524003Y-79791468D01*
X128580674Y-79786509D01*
X128750693Y-79771635D01*
X128970497Y-79712739D01*
X129176735Y-79616568D01*
X129363140Y-79486047D01*
X129524048Y-79325139D01*
X129654569Y-79138734D01*
X129681619Y-79080724D01*
X129727791Y-79028285D01*
X129794984Y-79009133D01*
X129861866Y-79029348D01*
X129906383Y-79080725D01*
X129933430Y-79138728D01*
X129933433Y-79138734D01*
X130063955Y-79325141D01*
X130224859Y-79486045D01*
X130224862Y-79486047D01*
X130411267Y-79616568D01*
X130617505Y-79712739D01*
X130837309Y-79771635D01*
X130999231Y-79785801D01*
X131063999Y-79791468D01*
X131064001Y-79791468D01*
X131064003Y-79791468D01*
X131120674Y-79786509D01*
X131290693Y-79771635D01*
X131510497Y-79712739D01*
X131716735Y-79616568D01*
X131903140Y-79486047D01*
X132064048Y-79325139D01*
X132194569Y-79138734D01*
X132221619Y-79080724D01*
X132267791Y-79028285D01*
X132334984Y-79009133D01*
X132401866Y-79029348D01*
X132446383Y-79080725D01*
X132473430Y-79138728D01*
X132473433Y-79138734D01*
X132603955Y-79325141D01*
X132764859Y-79486045D01*
X132764862Y-79486047D01*
X132951267Y-79616568D01*
X133157505Y-79712739D01*
X133377309Y-79771635D01*
X133539231Y-79785801D01*
X133603999Y-79791468D01*
X133604001Y-79791468D01*
X133604003Y-79791468D01*
X133660674Y-79786509D01*
X133830693Y-79771635D01*
X134050497Y-79712739D01*
X134256735Y-79616568D01*
X134443140Y-79486047D01*
X134604048Y-79325139D01*
X134734569Y-79138734D01*
X134761619Y-79080724D01*
X134807791Y-79028285D01*
X134874984Y-79009133D01*
X134941866Y-79029348D01*
X134986383Y-79080725D01*
X135013430Y-79138728D01*
X135013433Y-79138734D01*
X135143955Y-79325141D01*
X135304859Y-79486045D01*
X135304862Y-79486047D01*
X135491267Y-79616568D01*
X135697505Y-79712739D01*
X135917309Y-79771635D01*
X136079231Y-79785801D01*
X136143999Y-79791468D01*
X136144001Y-79791468D01*
X136144003Y-79791468D01*
X136200674Y-79786509D01*
X136370693Y-79771635D01*
X136527409Y-79729643D01*
X136597257Y-79731306D01*
X136655120Y-79770468D01*
X136682624Y-79834697D01*
X136683501Y-79849418D01*
X136683501Y-92073769D01*
X136663816Y-92140808D01*
X136647182Y-92161450D01*
X136409349Y-92399282D01*
X136348026Y-92432767D01*
X136310862Y-92435129D01*
X136144004Y-92420532D01*
X136143999Y-92420532D01*
X135917314Y-92440364D01*
X135917303Y-92440366D01*
X135697512Y-92499258D01*
X135697503Y-92499261D01*
X135491268Y-92595431D01*
X135491266Y-92595432D01*
X135304859Y-92725954D01*
X135143955Y-92886858D01*
X135013433Y-93073265D01*
X135013432Y-93073267D01*
X134986383Y-93131275D01*
X134940210Y-93183714D01*
X134873017Y-93202866D01*
X134806136Y-93182650D01*
X134761619Y-93131275D01*
X134734687Y-93073520D01*
X134734569Y-93073266D01*
X134665469Y-92974580D01*
X134604049Y-92886862D01*
X134535703Y-92818516D01*
X134443140Y-92725953D01*
X134438374Y-92722615D01*
X134407376Y-92700910D01*
X134363752Y-92646332D01*
X134354501Y-92599336D01*
X134354501Y-90130082D01*
X134348764Y-90101243D01*
X134348764Y-90101241D01*
X134325661Y-89985096D01*
X134325660Y-89985089D01*
X134271409Y-89854118D01*
X134269765Y-89849523D01*
X134186955Y-89725589D01*
X134186954Y-89725588D01*
X134186952Y-89725585D01*
X134082417Y-89621050D01*
X133330458Y-88869091D01*
X130878421Y-86417052D01*
X130878414Y-86417046D01*
X130804729Y-86367812D01*
X130804729Y-86367813D01*
X130755491Y-86334913D01*
X130618917Y-86278343D01*
X130618907Y-86278340D01*
X130473920Y-86249500D01*
X130473918Y-86249500D01*
X113573918Y-86249500D01*
X110657487Y-86249500D01*
X110598058Y-86234331D01*
X110592330Y-86231203D01*
X110460917Y-86182189D01*
X110404983Y-86140318D01*
X110380566Y-86074853D01*
X110395418Y-86006580D01*
X110416563Y-85978332D01*
X110538495Y-85856401D01*
X110674035Y-85662830D01*
X110773903Y-85448663D01*
X110835063Y-85220408D01*
X110855659Y-84985000D01*
X110835063Y-84749592D01*
X110773903Y-84521337D01*
X110674035Y-84307171D01*
X110538495Y-84113599D01*
X110538494Y-84113597D01*
X110371402Y-83946506D01*
X110371395Y-83946501D01*
X110177834Y-83810967D01*
X110177830Y-83810965D01*
X110177828Y-83810964D01*
X109963663Y-83711097D01*
X109963659Y-83711096D01*
X109963655Y-83711094D01*
X109735413Y-83649938D01*
X109735403Y-83649936D01*
X109500001Y-83629341D01*
X109499999Y-83629341D01*
X109264596Y-83649936D01*
X109264586Y-83649938D01*
X109036344Y-83711094D01*
X109036335Y-83711098D01*
X108822171Y-83810964D01*
X108822169Y-83810965D01*
X108628597Y-83946505D01*
X108461505Y-84113597D01*
X108325965Y-84307169D01*
X108325964Y-84307171D01*
X108226098Y-84521335D01*
X108226094Y-84521344D01*
X108164938Y-84749586D01*
X108164936Y-84749596D01*
X108144341Y-84984999D01*
X104902000Y-84984999D01*
X104902000Y-80404999D01*
X112221127Y-80404999D01*
X112221128Y-80405000D01*
X113184314Y-80405000D01*
X113179920Y-80409394D01*
X113127259Y-80500606D01*
X113100000Y-80602339D01*
X113100000Y-80707661D01*
X113127259Y-80809394D01*
X113179920Y-80900606D01*
X113184314Y-80905000D01*
X112221128Y-80905000D01*
X112273730Y-81101317D01*
X112273734Y-81101326D01*
X112369865Y-81307482D01*
X112500342Y-81493820D01*
X112661179Y-81654657D01*
X112847517Y-81785134D01*
X113053673Y-81881265D01*
X113053682Y-81881269D01*
X113249999Y-81933872D01*
X113250000Y-81933871D01*
X113250000Y-80970686D01*
X113254394Y-80975080D01*
X113345606Y-81027741D01*
X113447339Y-81055000D01*
X113552661Y-81055000D01*
X113654394Y-81027741D01*
X113745606Y-80975080D01*
X113750000Y-80970686D01*
X113750000Y-81933872D01*
X113946317Y-81881269D01*
X113946326Y-81881265D01*
X114152482Y-81785134D01*
X114338820Y-81654657D01*
X114499657Y-81493820D01*
X114630134Y-81307482D01*
X114726265Y-81101326D01*
X114726269Y-81101317D01*
X114778872Y-80905000D01*
X113815686Y-80905000D01*
X113820080Y-80900606D01*
X113872741Y-80809394D01*
X113900000Y-80707661D01*
X113900000Y-80602339D01*
X113872741Y-80500606D01*
X113820080Y-80409394D01*
X113815686Y-80405000D01*
X114778872Y-80405000D01*
X114778872Y-80404999D01*
X115815127Y-80404999D01*
X115815128Y-80405000D01*
X116778314Y-80405000D01*
X116773920Y-80409394D01*
X116721259Y-80500606D01*
X116694000Y-80602339D01*
X116694000Y-80707661D01*
X116721259Y-80809394D01*
X116773920Y-80900606D01*
X116778314Y-80905000D01*
X115815128Y-80905000D01*
X115867730Y-81101317D01*
X115867734Y-81101326D01*
X115963865Y-81307482D01*
X116094342Y-81493820D01*
X116255179Y-81654657D01*
X116441517Y-81785134D01*
X116647673Y-81881265D01*
X116647682Y-81881269D01*
X116843999Y-81933872D01*
X116844000Y-81933871D01*
X116844000Y-80970686D01*
X116848394Y-80975080D01*
X116939606Y-81027741D01*
X117041339Y-81055000D01*
X117146661Y-81055000D01*
X117248394Y-81027741D01*
X117339606Y-80975080D01*
X117344000Y-80970686D01*
X117344000Y-81933872D01*
X117540317Y-81881269D01*
X117540326Y-81881265D01*
X117746482Y-81785134D01*
X117932820Y-81654657D01*
X118093657Y-81493820D01*
X118224134Y-81307482D01*
X118320265Y-81101326D01*
X118320269Y-81101317D01*
X118372872Y-80905000D01*
X117409686Y-80905000D01*
X117414080Y-80900606D01*
X117466741Y-80809394D01*
X117494000Y-80707661D01*
X117494000Y-80602339D01*
X117466741Y-80500606D01*
X117414080Y-80409394D01*
X117409686Y-80405000D01*
X118372872Y-80405000D01*
X118372872Y-80404999D01*
X118320269Y-80208682D01*
X118320265Y-80208673D01*
X118224134Y-80002517D01*
X118093657Y-79816179D01*
X117932820Y-79655342D01*
X117746482Y-79524865D01*
X117540328Y-79428734D01*
X117344000Y-79376127D01*
X117344000Y-80339314D01*
X117339606Y-80334920D01*
X117248394Y-80282259D01*
X117146661Y-80255000D01*
X117041339Y-80255000D01*
X116939606Y-80282259D01*
X116848394Y-80334920D01*
X116844000Y-80339314D01*
X116844000Y-79376127D01*
X116647671Y-79428734D01*
X116441517Y-79524865D01*
X116255179Y-79655342D01*
X116094342Y-79816179D01*
X115963865Y-80002517D01*
X115867734Y-80208673D01*
X115867730Y-80208682D01*
X115815127Y-80404999D01*
X114778872Y-80404999D01*
X114726269Y-80208682D01*
X114726265Y-80208673D01*
X114630134Y-80002517D01*
X114499657Y-79816179D01*
X114338820Y-79655342D01*
X114152482Y-79524865D01*
X113946328Y-79428734D01*
X113750000Y-79376127D01*
X113750000Y-80339314D01*
X113745606Y-80334920D01*
X113654394Y-80282259D01*
X113552661Y-80255000D01*
X113447339Y-80255000D01*
X113345606Y-80282259D01*
X113254394Y-80334920D01*
X113250000Y-80339314D01*
X113250000Y-79376127D01*
X113053671Y-79428734D01*
X112847517Y-79524865D01*
X112661179Y-79655342D01*
X112500342Y-79816179D01*
X112369865Y-80002517D01*
X112273734Y-80208673D01*
X112273730Y-80208682D01*
X112221127Y-80404999D01*
X104902000Y-80404999D01*
X104902000Y-75187999D01*
X119625127Y-75187999D01*
X119625128Y-75188000D01*
X120588314Y-75188000D01*
X120583920Y-75192394D01*
X120531259Y-75283606D01*
X120504000Y-75385339D01*
X120504000Y-75490661D01*
X120531259Y-75592394D01*
X120583920Y-75683606D01*
X120588314Y-75688000D01*
X119625128Y-75688000D01*
X119677730Y-75884317D01*
X119677734Y-75884326D01*
X119773865Y-76090482D01*
X119904342Y-76276820D01*
X120065179Y-76437657D01*
X120251517Y-76568134D01*
X120457673Y-76664265D01*
X120457682Y-76664269D01*
X120653999Y-76716872D01*
X120654000Y-76716871D01*
X120654000Y-75753686D01*
X120658394Y-75758080D01*
X120749606Y-75810741D01*
X120851339Y-75838000D01*
X120956661Y-75838000D01*
X121058394Y-75810741D01*
X121149606Y-75758080D01*
X121154000Y-75753686D01*
X121154000Y-76716872D01*
X121350317Y-76664269D01*
X121350326Y-76664265D01*
X121556482Y-76568134D01*
X121742820Y-76437657D01*
X121903657Y-76276820D01*
X122034134Y-76090482D01*
X122130265Y-75884326D01*
X122130269Y-75884317D01*
X122182872Y-75688000D01*
X121219686Y-75688000D01*
X121224080Y-75683606D01*
X121276741Y-75592394D01*
X121304000Y-75490661D01*
X121304000Y-75385339D01*
X121276741Y-75283606D01*
X121224080Y-75192394D01*
X121219686Y-75188000D01*
X122182872Y-75188000D01*
X122182872Y-75187999D01*
X122130269Y-74991682D01*
X122130265Y-74991673D01*
X122034134Y-74785517D01*
X121903657Y-74599179D01*
X121742820Y-74438342D01*
X121556482Y-74307865D01*
X121350328Y-74211734D01*
X121154000Y-74159127D01*
X121154000Y-75122314D01*
X121149606Y-75117920D01*
X121058394Y-75065259D01*
X120956661Y-75038000D01*
X120851339Y-75038000D01*
X120749606Y-75065259D01*
X120658394Y-75117920D01*
X120654000Y-75122314D01*
X120654000Y-74159127D01*
X120457671Y-74211734D01*
X120251517Y-74307865D01*
X120065179Y-74438342D01*
X119904342Y-74599179D01*
X119773865Y-74785517D01*
X119677734Y-74991673D01*
X119677730Y-74991682D01*
X119625127Y-75187999D01*
X104902000Y-75187999D01*
X104902000Y-72602135D01*
X110149500Y-72602135D01*
X110149500Y-74397870D01*
X110149501Y-74397876D01*
X110155908Y-74457483D01*
X110206202Y-74592328D01*
X110206206Y-74592335D01*
X110292452Y-74707544D01*
X110292455Y-74707547D01*
X110407664Y-74793793D01*
X110407671Y-74793797D01*
X110542517Y-74844091D01*
X110542516Y-74844091D01*
X110549444Y-74844835D01*
X110602127Y-74850500D01*
X112397872Y-74850499D01*
X112457483Y-74844091D01*
X112592331Y-74793796D01*
X112707546Y-74707546D01*
X112793796Y-74592331D01*
X112844091Y-74457483D01*
X112850500Y-74397873D01*
X112850499Y-72602128D01*
X112844091Y-72542517D01*
X112838010Y-72526214D01*
X112793797Y-72407671D01*
X112793793Y-72407664D01*
X112707547Y-72292455D01*
X112707544Y-72292452D01*
X112592335Y-72206206D01*
X112592328Y-72206202D01*
X112457482Y-72155908D01*
X112457483Y-72155908D01*
X112397883Y-72149501D01*
X112397881Y-72149500D01*
X112397873Y-72149500D01*
X112397864Y-72149500D01*
X110602129Y-72149500D01*
X110602123Y-72149501D01*
X110542516Y-72155908D01*
X110407671Y-72206202D01*
X110407664Y-72206206D01*
X110292455Y-72292452D01*
X110292452Y-72292455D01*
X110206206Y-72407664D01*
X110206202Y-72407671D01*
X110155908Y-72542517D01*
X110149501Y-72602116D01*
X110149501Y-72602123D01*
X110149500Y-72602135D01*
X104902000Y-72602135D01*
X104902000Y-63299993D01*
X105817040Y-63299993D01*
X105817040Y-63300006D01*
X105836870Y-63766840D01*
X105896224Y-64230344D01*
X105994669Y-64687129D01*
X105994671Y-64687137D01*
X106131497Y-65133923D01*
X106131502Y-65133936D01*
X106305719Y-65567489D01*
X106305723Y-65567500D01*
X106516083Y-65984723D01*
X106516093Y-65984743D01*
X106761091Y-66382643D01*
X107038947Y-66758330D01*
X107038953Y-66758338D01*
X107259508Y-67008936D01*
X107259509Y-67008936D01*
X109386188Y-64882257D01*
X109454958Y-64968491D01*
X109653509Y-65167042D01*
X109739741Y-65235810D01*
X107612565Y-67362987D01*
X107685014Y-67432423D01*
X108048573Y-67725975D01*
X108435698Y-67987626D01*
X108435717Y-67987638D01*
X108843636Y-68215516D01*
X108843658Y-68215527D01*
X109269434Y-68407990D01*
X109269440Y-68407992D01*
X109710026Y-68563661D01*
X110162220Y-68681402D01*
X110622768Y-68760371D01*
X110622776Y-68760372D01*
X111088344Y-68799999D01*
X111088364Y-68800000D01*
X111555636Y-68800000D01*
X111555655Y-68799999D01*
X112021223Y-68760372D01*
X112021231Y-68760371D01*
X112481779Y-68681402D01*
X112933973Y-68563661D01*
X113374559Y-68407992D01*
X113374565Y-68407990D01*
X113800341Y-68215527D01*
X113800363Y-68215516D01*
X114208282Y-67987638D01*
X114208301Y-67987626D01*
X114459274Y-67817998D01*
X119598532Y-67817998D01*
X119598532Y-67818001D01*
X119618364Y-68044686D01*
X119618366Y-68044697D01*
X119677258Y-68264488D01*
X119677261Y-68264497D01*
X119773431Y-68470732D01*
X119773432Y-68470734D01*
X119903954Y-68657141D01*
X120064858Y-68818045D01*
X120077277Y-68826741D01*
X120251266Y-68948568D01*
X120457504Y-69044739D01*
X120677308Y-69103635D01*
X120839230Y-69117801D01*
X120903998Y-69123468D01*
X120904000Y-69123468D01*
X120904002Y-69123468D01*
X120960673Y-69118509D01*
X121130692Y-69103635D01*
X121350496Y-69044739D01*
X121556734Y-68948568D01*
X121743139Y-68818047D01*
X121904047Y-68657139D01*
X122034568Y-68470734D01*
X122130739Y-68264496D01*
X122189635Y-68044692D01*
X122209468Y-67818000D01*
X122189635Y-67591308D01*
X122130739Y-67371504D01*
X122034568Y-67165266D01*
X121904047Y-66978861D01*
X121904045Y-66978858D01*
X121743141Y-66817954D01*
X121556734Y-66687432D01*
X121556732Y-66687431D01*
X121350497Y-66591261D01*
X121350488Y-66591258D01*
X121130697Y-66532366D01*
X121130693Y-66532365D01*
X121130692Y-66532365D01*
X121130691Y-66532364D01*
X121130686Y-66532364D01*
X120904002Y-66512532D01*
X120903998Y-66512532D01*
X120677313Y-66532364D01*
X120677302Y-66532366D01*
X120457511Y-66591258D01*
X120457502Y-66591261D01*
X120251267Y-66687431D01*
X120251265Y-66687432D01*
X120064858Y-66817954D01*
X119903954Y-66978858D01*
X119773432Y-67165265D01*
X119773431Y-67165267D01*
X119677261Y-67371502D01*
X119677258Y-67371511D01*
X119618366Y-67591302D01*
X119618364Y-67591313D01*
X119598532Y-67817998D01*
X114459274Y-67817998D01*
X114595433Y-67725971D01*
X114595434Y-67725970D01*
X114958976Y-67432430D01*
X114958992Y-67432416D01*
X115031433Y-67362986D01*
X112904258Y-65235811D01*
X112990491Y-65167042D01*
X113189042Y-64968491D01*
X113257811Y-64882258D01*
X115384489Y-67008936D01*
X115384490Y-67008936D01*
X115605047Y-66758335D01*
X115605061Y-66758318D01*
X115882908Y-66382643D01*
X116127906Y-65984743D01*
X116127916Y-65984723D01*
X116338276Y-65567500D01*
X116338280Y-65567489D01*
X116512497Y-65133936D01*
X116512502Y-65133923D01*
X116649328Y-64687137D01*
X116649330Y-64687129D01*
X116747775Y-64230344D01*
X116807129Y-63766840D01*
X116826960Y-63300006D01*
X116826960Y-63299993D01*
X116807129Y-62833159D01*
X116747775Y-62369655D01*
X116649330Y-61912870D01*
X116649328Y-61912862D01*
X116512502Y-61466076D01*
X116512497Y-61466063D01*
X116338280Y-61032510D01*
X116338276Y-61032499D01*
X116127916Y-60615276D01*
X116127906Y-60615256D01*
X115882908Y-60217356D01*
X115605052Y-59841669D01*
X115605046Y-59841661D01*
X115384490Y-59591062D01*
X113257810Y-61717741D01*
X113189042Y-61631509D01*
X112990491Y-61432958D01*
X112904256Y-61364187D01*
X115031433Y-59237011D01*
X114958985Y-59167576D01*
X114595426Y-58874024D01*
X114208301Y-58612373D01*
X114208282Y-58612361D01*
X113800363Y-58384483D01*
X113800341Y-58384472D01*
X113374565Y-58192009D01*
X113374559Y-58192007D01*
X112933973Y-58036338D01*
X112481779Y-57918597D01*
X112021231Y-57839628D01*
X112021223Y-57839627D01*
X111555655Y-57800000D01*
X111088344Y-57800000D01*
X110622776Y-57839627D01*
X110622768Y-57839628D01*
X110162220Y-57918597D01*
X109710026Y-58036338D01*
X109269440Y-58192007D01*
X109269434Y-58192009D01*
X108843658Y-58384472D01*
X108843636Y-58384483D01*
X108435717Y-58612361D01*
X108435698Y-58612373D01*
X108048566Y-58874028D01*
X108048565Y-58874029D01*
X107685024Y-59167568D01*
X107685008Y-59167582D01*
X107612565Y-59237012D01*
X109739741Y-61364188D01*
X109653509Y-61432958D01*
X109454958Y-61631509D01*
X109386188Y-61717742D01*
X107259509Y-59591063D01*
X107038947Y-59841669D01*
X107038944Y-59841673D01*
X106761091Y-60217356D01*
X106516093Y-60615256D01*
X106516083Y-60615276D01*
X106305723Y-61032499D01*
X106305719Y-61032510D01*
X106131502Y-61466063D01*
X106131497Y-61466076D01*
X105994671Y-61912862D01*
X105994669Y-61912870D01*
X105896224Y-62369655D01*
X105836870Y-62833159D01*
X105817040Y-63299993D01*
X104902000Y-63299993D01*
X104902000Y-50831135D01*
X105732539Y-50831135D01*
X105732539Y-50831148D01*
X105752370Y-51298024D01*
X105811730Y-51761568D01*
X105910184Y-52218397D01*
X105910186Y-52218405D01*
X106047025Y-52665232D01*
X106047027Y-52665237D01*
X106221262Y-53098837D01*
X106221266Y-53098848D01*
X106431645Y-53516109D01*
X106431655Y-53516127D01*
X106676672Y-53914061D01*
X106676675Y-53914065D01*
X106954557Y-54289787D01*
X106954563Y-54289795D01*
X107263297Y-54640582D01*
X107263310Y-54640595D01*
X107600677Y-54963936D01*
X107600681Y-54963939D01*
X107964270Y-55257517D01*
X108351447Y-55519202D01*
X108532768Y-55620494D01*
X108759411Y-55747105D01*
X108759433Y-55747116D01*
X109185247Y-55939597D01*
X109185252Y-55939599D01*
X109388332Y-56011351D01*
X109625876Y-56095281D01*
X110078113Y-56213034D01*
X110538708Y-56292011D01*
X110682850Y-56304279D01*
X111004323Y-56331641D01*
X111004340Y-56331641D01*
X111004342Y-56331642D01*
X111004343Y-56331642D01*
X111471657Y-56331642D01*
X111471658Y-56331642D01*
X111471659Y-56331641D01*
X111471676Y-56331641D01*
X111748812Y-56308052D01*
X111937292Y-56292011D01*
X112397887Y-56213034D01*
X112850124Y-56095281D01*
X113290747Y-55939599D01*
X113290752Y-55939597D01*
X113716566Y-55747116D01*
X113716568Y-55747114D01*
X113716579Y-55747110D01*
X114124553Y-55519202D01*
X114511730Y-55257517D01*
X114875319Y-54963939D01*
X115212701Y-54640584D01*
X115390296Y-54438797D01*
X115521436Y-54289795D01*
X115521442Y-54289787D01*
X115521446Y-54289783D01*
X115799328Y-53914061D01*
X116044345Y-53516127D01*
X116254733Y-53098848D01*
X116428975Y-52665230D01*
X116565816Y-52218397D01*
X116664270Y-51761569D01*
X116723628Y-51298038D01*
X116743461Y-50831142D01*
X116723628Y-50364246D01*
X116664270Y-49900715D01*
X116565816Y-49443887D01*
X116428975Y-48997054D01*
X116404116Y-48935191D01*
X116254737Y-48563446D01*
X116254733Y-48563435D01*
X116044354Y-48146174D01*
X116044343Y-48146154D01*
X116034554Y-48130256D01*
X115799328Y-47748223D01*
X115521446Y-47372501D01*
X115521442Y-47372496D01*
X115521436Y-47372488D01*
X115212702Y-47021701D01*
X115212689Y-47021688D01*
X114878236Y-46701140D01*
X124170532Y-46701140D01*
X124170532Y-46701143D01*
X124190364Y-46927828D01*
X124190366Y-46927839D01*
X124249258Y-47147630D01*
X124249261Y-47147639D01*
X124345431Y-47353874D01*
X124345432Y-47353876D01*
X124475954Y-47540283D01*
X124636858Y-47701187D01*
X124636861Y-47701189D01*
X124823266Y-47831710D01*
X125029504Y-47927881D01*
X125249308Y-47986777D01*
X125411230Y-48000943D01*
X125475998Y-48006610D01*
X125476000Y-48006610D01*
X125476002Y-48006610D01*
X125532673Y-48001651D01*
X125702692Y-47986777D01*
X125922496Y-47927881D01*
X126128734Y-47831710D01*
X126315139Y-47701189D01*
X126476047Y-47540281D01*
X126606568Y-47353876D01*
X126702739Y-47147638D01*
X126761635Y-46927834D01*
X126781468Y-46701142D01*
X126781223Y-46698347D01*
X126761635Y-46474455D01*
X126761635Y-46474450D01*
X126702739Y-46254646D01*
X126606568Y-46048408D01*
X126476047Y-45862003D01*
X126476045Y-45862000D01*
X126315141Y-45701096D01*
X126128734Y-45570574D01*
X126128732Y-45570573D01*
X125922497Y-45474403D01*
X125922488Y-45474400D01*
X125702697Y-45415508D01*
X125702693Y-45415507D01*
X125702692Y-45415507D01*
X125702691Y-45415506D01*
X125702686Y-45415506D01*
X125476002Y-45395674D01*
X125475998Y-45395674D01*
X125249313Y-45415506D01*
X125249302Y-45415508D01*
X125029511Y-45474400D01*
X125029502Y-45474403D01*
X124823267Y-45570573D01*
X124823265Y-45570574D01*
X124636858Y-45701096D01*
X124475954Y-45862000D01*
X124345432Y-46048407D01*
X124345431Y-46048409D01*
X124249261Y-46254644D01*
X124249258Y-46254653D01*
X124190366Y-46474444D01*
X124190364Y-46474455D01*
X124170532Y-46701140D01*
X114878236Y-46701140D01*
X114875322Y-46698347D01*
X114754122Y-46600485D01*
X114511730Y-46404767D01*
X114124553Y-46143082D01*
X113955081Y-46048409D01*
X113716588Y-45915178D01*
X113716566Y-45915167D01*
X113290752Y-45722686D01*
X113290747Y-45722684D01*
X112850119Y-45567001D01*
X112397885Y-45449249D01*
X111937302Y-45370274D01*
X111937276Y-45370271D01*
X111471676Y-45330642D01*
X111471658Y-45330642D01*
X111004342Y-45330642D01*
X111004323Y-45330642D01*
X110538723Y-45370271D01*
X110538697Y-45370274D01*
X110078114Y-45449249D01*
X109625880Y-45567001D01*
X109185252Y-45722684D01*
X109185247Y-45722686D01*
X108759433Y-45915167D01*
X108759411Y-45915178D01*
X108351455Y-46143077D01*
X108351436Y-46143089D01*
X107964275Y-46404763D01*
X107600677Y-46698347D01*
X107263310Y-47021688D01*
X107263297Y-47021701D01*
X106954563Y-47372488D01*
X106954557Y-47372496D01*
X106676675Y-47748218D01*
X106431656Y-48146154D01*
X106431645Y-48146174D01*
X106221266Y-48563435D01*
X106221262Y-48563446D01*
X106047027Y-48997046D01*
X106047025Y-48997051D01*
X105910186Y-49443878D01*
X105910184Y-49443886D01*
X105811730Y-49900715D01*
X105752370Y-50364259D01*
X105732539Y-50831135D01*
X104902000Y-50831135D01*
X104902000Y-41806983D01*
X104902015Y-41805043D01*
X104903845Y-41688112D01*
X106054567Y-41688112D01*
X106054567Y-41923887D01*
X106095506Y-42156067D01*
X106176146Y-42377621D01*
X106176149Y-42377628D01*
X106294031Y-42581805D01*
X106294033Y-42581809D01*
X106361772Y-42662536D01*
X106445582Y-42762417D01*
X106564613Y-42862296D01*
X106626189Y-42913965D01*
X106626190Y-42913965D01*
X106626192Y-42913967D01*
X106830375Y-43031852D01*
X107051926Y-43112491D01*
X107051930Y-43112491D01*
X107051931Y-43112492D01*
X107098559Y-43120713D01*
X107284114Y-43153432D01*
X107519882Y-43153432D01*
X107519884Y-43153432D01*
X107752072Y-43112491D01*
X107973623Y-43031852D01*
X108177806Y-42913967D01*
X108358416Y-42762417D01*
X108509966Y-42581807D01*
X108627851Y-42377624D01*
X108708490Y-42156073D01*
X108718176Y-42101140D01*
X124160532Y-42101140D01*
X124160532Y-42101143D01*
X124180364Y-42327828D01*
X124180366Y-42327839D01*
X124239258Y-42547630D01*
X124239261Y-42547639D01*
X124335431Y-42753874D01*
X124335432Y-42753876D01*
X124465954Y-42940283D01*
X124626858Y-43101187D01*
X124654744Y-43120713D01*
X124813266Y-43231710D01*
X125019504Y-43327881D01*
X125239308Y-43386777D01*
X125401230Y-43400943D01*
X125465998Y-43406610D01*
X125466000Y-43406610D01*
X125466002Y-43406610D01*
X125522673Y-43401651D01*
X125692692Y-43386777D01*
X125912496Y-43327881D01*
X126118734Y-43231710D01*
X126305139Y-43101189D01*
X126466047Y-42940281D01*
X126596568Y-42753876D01*
X126692739Y-42547638D01*
X126751635Y-42327834D01*
X126771468Y-42101142D01*
X126751635Y-41874450D01*
X126745389Y-41851141D01*
X131807127Y-41851141D01*
X131807128Y-41851142D01*
X132770314Y-41851142D01*
X132765920Y-41855536D01*
X132713259Y-41946748D01*
X132686000Y-42048481D01*
X132686000Y-42153803D01*
X132713259Y-42255536D01*
X132765920Y-42346748D01*
X132770314Y-42351142D01*
X131807128Y-42351142D01*
X131859730Y-42547459D01*
X131859734Y-42547468D01*
X131955865Y-42753624D01*
X132086342Y-42939962D01*
X132247179Y-43100799D01*
X132433517Y-43231276D01*
X132639673Y-43327407D01*
X132639682Y-43327411D01*
X132835999Y-43380014D01*
X132836000Y-43380013D01*
X132836000Y-42416828D01*
X132840394Y-42421222D01*
X132931606Y-42473883D01*
X133033339Y-42501142D01*
X133138661Y-42501142D01*
X133240394Y-42473883D01*
X133331606Y-42421222D01*
X133336000Y-42416828D01*
X133336000Y-43380014D01*
X133532317Y-43327411D01*
X133532326Y-43327407D01*
X133738482Y-43231276D01*
X133924820Y-43100799D01*
X134085657Y-42939962D01*
X134216134Y-42753624D01*
X134312265Y-42547468D01*
X134312269Y-42547459D01*
X134364872Y-42351142D01*
X133401686Y-42351142D01*
X133406080Y-42346748D01*
X133458741Y-42255536D01*
X133486000Y-42153803D01*
X133486000Y-42048481D01*
X133458741Y-41946748D01*
X133406080Y-41855536D01*
X133401686Y-41851142D01*
X134364872Y-41851142D01*
X134364872Y-41851141D01*
X134321188Y-41688112D01*
X163054568Y-41688112D01*
X163054568Y-41923887D01*
X163095507Y-42156067D01*
X163176147Y-42377621D01*
X163176150Y-42377628D01*
X163294032Y-42581805D01*
X163294034Y-42581809D01*
X163361773Y-42662536D01*
X163445583Y-42762417D01*
X163564614Y-42862296D01*
X163626190Y-42913965D01*
X163626191Y-42913965D01*
X163626193Y-42913967D01*
X163830376Y-43031852D01*
X164051927Y-43112491D01*
X164051931Y-43112491D01*
X164051932Y-43112492D01*
X164098560Y-43120713D01*
X164284115Y-43153432D01*
X164519883Y-43153432D01*
X164519885Y-43153432D01*
X164752073Y-43112491D01*
X164973624Y-43031852D01*
X165177807Y-42913967D01*
X165358417Y-42762417D01*
X165509967Y-42581807D01*
X165627852Y-42377624D01*
X165708491Y-42156073D01*
X165749432Y-41923885D01*
X165752000Y-41806000D01*
X165749432Y-41688115D01*
X165708491Y-41455927D01*
X165627852Y-41234376D01*
X165509967Y-41030193D01*
X165509965Y-41030191D01*
X165509965Y-41030190D01*
X165379243Y-40874403D01*
X165358417Y-40849583D01*
X165258536Y-40765773D01*
X165177809Y-40698034D01*
X165177805Y-40698032D01*
X165167362Y-40692003D01*
X165109746Y-40658738D01*
X164973628Y-40580150D01*
X164973625Y-40580149D01*
X164973624Y-40580148D01*
X164752073Y-40499509D01*
X164752072Y-40499508D01*
X164752067Y-40499507D01*
X164519887Y-40458568D01*
X164519885Y-40458568D01*
X164284115Y-40458568D01*
X164284112Y-40458568D01*
X164051932Y-40499507D01*
X163830378Y-40580147D01*
X163830371Y-40580150D01*
X163626194Y-40698032D01*
X163626190Y-40698034D01*
X163445583Y-40849583D01*
X163294034Y-41030190D01*
X163294032Y-41030194D01*
X163176150Y-41234371D01*
X163176147Y-41234378D01*
X163095507Y-41455932D01*
X163054568Y-41688112D01*
X134321188Y-41688112D01*
X134312269Y-41654824D01*
X134312265Y-41654815D01*
X134216134Y-41448659D01*
X134085657Y-41262321D01*
X133924820Y-41101484D01*
X133738482Y-40971007D01*
X133532328Y-40874876D01*
X133336000Y-40822269D01*
X133336000Y-41785456D01*
X133331606Y-41781062D01*
X133240394Y-41728401D01*
X133138661Y-41701142D01*
X133033339Y-41701142D01*
X132931606Y-41728401D01*
X132840394Y-41781062D01*
X132836000Y-41785456D01*
X132836000Y-40822269D01*
X132639671Y-40874876D01*
X132433517Y-40971007D01*
X132247179Y-41101484D01*
X132086342Y-41262321D01*
X131955865Y-41448659D01*
X131859734Y-41654815D01*
X131859730Y-41654824D01*
X131807127Y-41851141D01*
X126745389Y-41851141D01*
X126692739Y-41654646D01*
X126596568Y-41448408D01*
X126466047Y-41262003D01*
X126466045Y-41262000D01*
X126305141Y-41101096D01*
X126118734Y-40970574D01*
X126118732Y-40970573D01*
X125912497Y-40874403D01*
X125912488Y-40874400D01*
X125692697Y-40815508D01*
X125692693Y-40815507D01*
X125692692Y-40815507D01*
X125692691Y-40815506D01*
X125692686Y-40815506D01*
X125466002Y-40795674D01*
X125465998Y-40795674D01*
X125239313Y-40815506D01*
X125239302Y-40815508D01*
X125019511Y-40874400D01*
X125019502Y-40874403D01*
X124813267Y-40970573D01*
X124813265Y-40970574D01*
X124626858Y-41101096D01*
X124465954Y-41262000D01*
X124335432Y-41448407D01*
X124335431Y-41448409D01*
X124239261Y-41654644D01*
X124239258Y-41654653D01*
X124180366Y-41874444D01*
X124180364Y-41874455D01*
X124160532Y-42101140D01*
X108718176Y-42101140D01*
X108749431Y-41923885D01*
X108751999Y-41806000D01*
X108749431Y-41688115D01*
X108708490Y-41455927D01*
X108627851Y-41234376D01*
X108509966Y-41030193D01*
X108509964Y-41030191D01*
X108509964Y-41030190D01*
X108379242Y-40874403D01*
X108358416Y-40849583D01*
X108258535Y-40765773D01*
X108177808Y-40698034D01*
X108177804Y-40698032D01*
X108167361Y-40692003D01*
X108109745Y-40658738D01*
X107973627Y-40580150D01*
X107973624Y-40580149D01*
X107973623Y-40580148D01*
X107752072Y-40499509D01*
X107752071Y-40499508D01*
X107752066Y-40499507D01*
X107519886Y-40458568D01*
X107519884Y-40458568D01*
X107284114Y-40458568D01*
X107284111Y-40458568D01*
X107051931Y-40499507D01*
X106830377Y-40580147D01*
X106830370Y-40580150D01*
X106626193Y-40698032D01*
X106626189Y-40698034D01*
X106445582Y-40849583D01*
X106294033Y-41030190D01*
X106294031Y-41030194D01*
X106176149Y-41234371D01*
X106176146Y-41234378D01*
X106095506Y-41455932D01*
X106054567Y-41688112D01*
X104903845Y-41688112D01*
X104904450Y-41649459D01*
X104905496Y-41635214D01*
X104929099Y-41455932D01*
X104946234Y-41325772D01*
X104949392Y-41309899D01*
X105029924Y-41009344D01*
X105035136Y-40993994D01*
X105044837Y-40970574D01*
X105154203Y-40706542D01*
X105161374Y-40692003D01*
X105225953Y-40580148D01*
X105316938Y-40422555D01*
X105325934Y-40409090D01*
X105515360Y-40162226D01*
X105526042Y-40150047D01*
X105746050Y-39930038D01*
X105758229Y-39919357D01*
X106005079Y-39729943D01*
X106018551Y-39720941D01*
X106288007Y-39565370D01*
X106302549Y-39558200D01*
X106589992Y-39439138D01*
X106605350Y-39433924D01*
X106905893Y-39353393D01*
X106921778Y-39350234D01*
X107231216Y-39309495D01*
X107245455Y-39308450D01*
X107401041Y-39306015D01*
X107402981Y-39306001D01*
X164401018Y-39306001D01*
X164402957Y-39306015D01*
G37*
%TD.AperFunction*%
%TD*%
%TA.AperFunction,Conductor*%
%TO.N,Bat_input*%
G36*
X138792000Y-68378661D02*
G01*
X138819259Y-68480394D01*
X138871920Y-68571606D01*
X138946394Y-68646080D01*
X139037606Y-68698741D01*
X139139339Y-68726000D01*
X139145553Y-68726000D01*
X138466527Y-69405024D01*
X138471441Y-69461193D01*
X138457674Y-69529693D01*
X138409059Y-69579876D01*
X138347913Y-69596000D01*
X138034500Y-69596000D01*
X137967461Y-69576315D01*
X137921706Y-69523511D01*
X137910500Y-69472000D01*
X137910500Y-69155586D01*
X137930185Y-69088547D01*
X137982989Y-69042792D01*
X138052147Y-69032848D01*
X138088178Y-69049303D01*
X138112974Y-69051472D01*
X138792000Y-68372446D01*
X138792000Y-68378661D01*
G37*
%TD.AperFunction*%
%TA.AperFunction,Conductor*%
G36*
X140271024Y-69051471D02*
G01*
X140322136Y-68978478D01*
X140418264Y-68772331D01*
X140418269Y-68772317D01*
X140472225Y-68570951D01*
X140508590Y-68511290D01*
X140571437Y-68480761D01*
X140640812Y-68489056D01*
X140694690Y-68533541D01*
X140715965Y-68600093D01*
X140716000Y-68603044D01*
X140716000Y-69472000D01*
X140696315Y-69539039D01*
X140643511Y-69584794D01*
X140592000Y-69596000D01*
X140036086Y-69596000D01*
X139969047Y-69576315D01*
X139923292Y-69523511D01*
X139912558Y-69461193D01*
X139917471Y-69405024D01*
X139238447Y-68726000D01*
X139244661Y-68726000D01*
X139346394Y-68698741D01*
X139437606Y-68646080D01*
X139512080Y-68571606D01*
X139564741Y-68480394D01*
X139592000Y-68378661D01*
X139592000Y-68372447D01*
X140271024Y-69051471D01*
G37*
%TD.AperFunction*%
%TA.AperFunction,Conductor*%
G36*
X138981995Y-66821685D02*
G01*
X139027750Y-66874489D01*
X139037694Y-66943647D01*
X139008669Y-67007203D01*
X138949891Y-67044977D01*
X138947049Y-67045775D01*
X138745682Y-67099730D01*
X138745673Y-67099734D01*
X138539516Y-67195866D01*
X138539512Y-67195868D01*
X138466526Y-67246973D01*
X138466526Y-67246974D01*
X139145553Y-67926000D01*
X139139339Y-67926000D01*
X139037606Y-67953259D01*
X138946394Y-68005920D01*
X138871920Y-68080394D01*
X138819259Y-68171606D01*
X138792000Y-68273339D01*
X138792000Y-68279552D01*
X138112974Y-67600526D01*
X138092566Y-67602311D01*
X138081498Y-67611159D01*
X138012000Y-67618353D01*
X137949645Y-67586830D01*
X137914231Y-67526601D01*
X137910500Y-67496411D01*
X137910500Y-66926000D01*
X137930185Y-66858961D01*
X137982989Y-66813206D01*
X138034500Y-66802000D01*
X138914956Y-66802000D01*
X138981995Y-66821685D01*
G37*
%TD.AperFunction*%
%TA.AperFunction,Conductor*%
G36*
X140659039Y-66821685D02*
G01*
X140704794Y-66874489D01*
X140716000Y-66926000D01*
X140716000Y-68048955D01*
X140696315Y-68115994D01*
X140643511Y-68161749D01*
X140574353Y-68171693D01*
X140510797Y-68142668D01*
X140473023Y-68083890D01*
X140472225Y-68081049D01*
X140418268Y-67879679D01*
X140418264Y-67879668D01*
X140322136Y-67673521D01*
X140322132Y-67673513D01*
X140271025Y-67600526D01*
X139592000Y-68279551D01*
X139592000Y-68273339D01*
X139564741Y-68171606D01*
X139512080Y-68080394D01*
X139437606Y-68005920D01*
X139346394Y-67953259D01*
X139244661Y-67926000D01*
X139238448Y-67926000D01*
X139917472Y-67246974D01*
X139844478Y-67195863D01*
X139638331Y-67099735D01*
X139638317Y-67099730D01*
X139436951Y-67045775D01*
X139377290Y-67009410D01*
X139346761Y-66946563D01*
X139355056Y-66877188D01*
X139399541Y-66823310D01*
X139466093Y-66802035D01*
X139469044Y-66802000D01*
X140592000Y-66802000D01*
X140659039Y-66821685D01*
G37*
%TD.AperFunction*%
%TD*%
M02*
