%TF.GenerationSoftware,KiCad,Pcbnew,8.0.5*%
%TF.CreationDate,2024-12-03T18:06:50+01:00*%
%TF.ProjectId,Controller 1.4,436f6e74-726f-46c6-9c65-7220312e342e,rev?*%
%TF.SameCoordinates,Original*%
%TF.FileFunction,Legend,Bot*%
%TF.FilePolarity,Positive*%
%FSLAX46Y46*%
G04 Gerber Fmt 4.6, Leading zero omitted, Abs format (unit mm)*
G04 Created by KiCad (PCBNEW 8.0.5) date 2024-12-03 18:06:50*
%MOMM*%
%LPD*%
G01*
G04 APERTURE LIST*
%ADD10C,0.250000*%
G04 APERTURE END LIST*
D10*
X161511717Y-40264619D02*
X161511717Y-40978904D01*
X161511717Y-40978904D02*
X161559336Y-41121761D01*
X161559336Y-41121761D02*
X161654574Y-41217000D01*
X161654574Y-41217000D02*
X161797431Y-41264619D01*
X161797431Y-41264619D02*
X161892669Y-41264619D01*
X160559336Y-41264619D02*
X161035526Y-41264619D01*
X161035526Y-41264619D02*
X161035526Y-40264619D01*
X159654574Y-41169380D02*
X159702193Y-41217000D01*
X159702193Y-41217000D02*
X159845050Y-41264619D01*
X159845050Y-41264619D02*
X159940288Y-41264619D01*
X159940288Y-41264619D02*
X160083145Y-41217000D01*
X160083145Y-41217000D02*
X160178383Y-41121761D01*
X160178383Y-41121761D02*
X160226002Y-41026523D01*
X160226002Y-41026523D02*
X160273621Y-40836047D01*
X160273621Y-40836047D02*
X160273621Y-40693190D01*
X160273621Y-40693190D02*
X160226002Y-40502714D01*
X160226002Y-40502714D02*
X160178383Y-40407476D01*
X160178383Y-40407476D02*
X160083145Y-40312238D01*
X160083145Y-40312238D02*
X159940288Y-40264619D01*
X159940288Y-40264619D02*
X159845050Y-40264619D01*
X159845050Y-40264619D02*
X159702193Y-40312238D01*
X159702193Y-40312238D02*
X159654574Y-40359857D01*
X158940288Y-40264619D02*
X158940288Y-40978904D01*
X158940288Y-40978904D02*
X158987907Y-41121761D01*
X158987907Y-41121761D02*
X159083145Y-41217000D01*
X159083145Y-41217000D02*
X159226002Y-41264619D01*
X159226002Y-41264619D02*
X159321240Y-41264619D01*
X157987907Y-41264619D02*
X158464097Y-41264619D01*
X158464097Y-41264619D02*
X158464097Y-40264619D01*
X157083145Y-41169380D02*
X157130764Y-41217000D01*
X157130764Y-41217000D02*
X157273621Y-41264619D01*
X157273621Y-41264619D02*
X157368859Y-41264619D01*
X157368859Y-41264619D02*
X157511716Y-41217000D01*
X157511716Y-41217000D02*
X157606954Y-41121761D01*
X157606954Y-41121761D02*
X157654573Y-41026523D01*
X157654573Y-41026523D02*
X157702192Y-40836047D01*
X157702192Y-40836047D02*
X157702192Y-40693190D01*
X157702192Y-40693190D02*
X157654573Y-40502714D01*
X157654573Y-40502714D02*
X157606954Y-40407476D01*
X157606954Y-40407476D02*
X157511716Y-40312238D01*
X157511716Y-40312238D02*
X157368859Y-40264619D01*
X157368859Y-40264619D02*
X157273621Y-40264619D01*
X157273621Y-40264619D02*
X157130764Y-40312238D01*
X157130764Y-40312238D02*
X157083145Y-40359857D01*
X156368859Y-40264619D02*
X156368859Y-40978904D01*
X156368859Y-40978904D02*
X156416478Y-41121761D01*
X156416478Y-41121761D02*
X156511716Y-41217000D01*
X156511716Y-41217000D02*
X156654573Y-41264619D01*
X156654573Y-41264619D02*
X156749811Y-41264619D01*
X155416478Y-41264619D02*
X155892668Y-41264619D01*
X155892668Y-41264619D02*
X155892668Y-40264619D01*
X154511716Y-41169380D02*
X154559335Y-41217000D01*
X154559335Y-41217000D02*
X154702192Y-41264619D01*
X154702192Y-41264619D02*
X154797430Y-41264619D01*
X154797430Y-41264619D02*
X154940287Y-41217000D01*
X154940287Y-41217000D02*
X155035525Y-41121761D01*
X155035525Y-41121761D02*
X155083144Y-41026523D01*
X155083144Y-41026523D02*
X155130763Y-40836047D01*
X155130763Y-40836047D02*
X155130763Y-40693190D01*
X155130763Y-40693190D02*
X155083144Y-40502714D01*
X155083144Y-40502714D02*
X155035525Y-40407476D01*
X155035525Y-40407476D02*
X154940287Y-40312238D01*
X154940287Y-40312238D02*
X154797430Y-40264619D01*
X154797430Y-40264619D02*
X154702192Y-40264619D01*
X154702192Y-40264619D02*
X154559335Y-40312238D01*
X154559335Y-40312238D02*
X154511716Y-40359857D01*
X153797430Y-40264619D02*
X153797430Y-40978904D01*
X153797430Y-40978904D02*
X153845049Y-41121761D01*
X153845049Y-41121761D02*
X153940287Y-41217000D01*
X153940287Y-41217000D02*
X154083144Y-41264619D01*
X154083144Y-41264619D02*
X154178382Y-41264619D01*
X152845049Y-41264619D02*
X153321239Y-41264619D01*
X153321239Y-41264619D02*
X153321239Y-40264619D01*
X151940287Y-41169380D02*
X151987906Y-41217000D01*
X151987906Y-41217000D02*
X152130763Y-41264619D01*
X152130763Y-41264619D02*
X152226001Y-41264619D01*
X152226001Y-41264619D02*
X152368858Y-41217000D01*
X152368858Y-41217000D02*
X152464096Y-41121761D01*
X152464096Y-41121761D02*
X152511715Y-41026523D01*
X152511715Y-41026523D02*
X152559334Y-40836047D01*
X152559334Y-40836047D02*
X152559334Y-40693190D01*
X152559334Y-40693190D02*
X152511715Y-40502714D01*
X152511715Y-40502714D02*
X152464096Y-40407476D01*
X152464096Y-40407476D02*
X152368858Y-40312238D01*
X152368858Y-40312238D02*
X152226001Y-40264619D01*
X152226001Y-40264619D02*
X152130763Y-40264619D01*
X152130763Y-40264619D02*
X151987906Y-40312238D01*
X151987906Y-40312238D02*
X151940287Y-40359857D01*
M02*
