%TF.GenerationSoftware,KiCad,Pcbnew,8.0.5*%
%TF.CreationDate,2024-12-03T18:06:48+01:00*%
%TF.ProjectId,Controller 1.4,436f6e74-726f-46c6-9c65-7220312e342e,rev?*%
%TF.SameCoordinates,Original*%
%TF.FileFunction,Drillmap*%
%TF.FilePolarity,Positive*%
%FSLAX45Y45*%
G04 Gerber Fmt 4.5, Leading zero omitted, Abs format (unit mm)*
G04 Created by KiCad (PCBNEW 8.0.5) date 2024-12-03 18:06:48*
%MOMM*%
%LPD*%
G01*
G04 APERTURE LIST*
%ADD10C,0.200000*%
%ADD11C,0.010050*%
G04 APERTURE END LIST*
D10*
X16690200Y-9880600D02*
G75*
G02*
X16440200Y-10130600I-250000J0D01*
G01*
X10875200Y-4180600D02*
G75*
G02*
X10605200Y-4180600I-135000J0D01*
G01*
X10605200Y-4180600D02*
G75*
G02*
X10875200Y-4180600I135000J0D01*
G01*
X16440200Y-3930600D02*
G75*
G02*
X16690200Y-4180600I0J-250000D01*
G01*
X10740200Y-3930600D02*
X16440200Y-3930600D01*
X10490200Y-9880600D02*
X10490200Y-4180600D01*
X10740200Y-10130600D02*
G75*
G02*
X10490200Y-9880600I0J250000D01*
G01*
X10875200Y-9880600D02*
G75*
G02*
X10605200Y-9880600I-135000J0D01*
G01*
X10605200Y-9880600D02*
G75*
G02*
X10875200Y-9880600I135000J0D01*
G01*
X16575200Y-9880600D02*
G75*
G02*
X16305200Y-9880600I-135000J0D01*
G01*
X16305200Y-9880600D02*
G75*
G02*
X16575200Y-9880600I135000J0D01*
G01*
X16575200Y-4180600D02*
G75*
G02*
X16305200Y-4180600I-135000J0D01*
G01*
X16305200Y-4180600D02*
G75*
G02*
X16575200Y-4180600I135000J0D01*
G01*
X16440200Y-10130600D02*
X10740200Y-10130600D01*
X10490200Y-4180600D02*
G75*
G02*
X10740200Y-3930600I250000J0D01*
G01*
X16690200Y-4180600D02*
X16690200Y-9880600D01*
D11*
X12990702Y-7630600D02*
G75*
G02*
X12989697Y-7630600I-503J0D01*
G01*
X12989697Y-7630600D02*
G75*
G02*
X12990702Y-7630600I503J0D01*
G01*
D10*
X10740977Y-10452084D02*
X10740977Y-10252084D01*
X10740977Y-10252084D02*
X10788596Y-10252084D01*
X10788596Y-10252084D02*
X10817167Y-10261608D01*
X10817167Y-10261608D02*
X10836215Y-10280655D01*
X10836215Y-10280655D02*
X10845739Y-10299703D01*
X10845739Y-10299703D02*
X10855263Y-10337798D01*
X10855263Y-10337798D02*
X10855263Y-10366370D01*
X10855263Y-10366370D02*
X10845739Y-10404465D01*
X10845739Y-10404465D02*
X10836215Y-10423512D01*
X10836215Y-10423512D02*
X10817167Y-10442560D01*
X10817167Y-10442560D02*
X10788596Y-10452084D01*
X10788596Y-10452084D02*
X10740977Y-10452084D01*
X10940977Y-10452084D02*
X10940977Y-10318751D01*
X10940977Y-10356846D02*
X10950501Y-10337798D01*
X10950501Y-10337798D02*
X10960024Y-10328274D01*
X10960024Y-10328274D02*
X10979072Y-10318751D01*
X10979072Y-10318751D02*
X10998120Y-10318751D01*
X11064786Y-10452084D02*
X11064786Y-10318751D01*
X11064786Y-10252084D02*
X11055263Y-10261608D01*
X11055263Y-10261608D02*
X11064786Y-10271132D01*
X11064786Y-10271132D02*
X11074310Y-10261608D01*
X11074310Y-10261608D02*
X11064786Y-10252084D01*
X11064786Y-10252084D02*
X11064786Y-10271132D01*
X11188596Y-10452084D02*
X11169548Y-10442560D01*
X11169548Y-10442560D02*
X11160024Y-10423512D01*
X11160024Y-10423512D02*
X11160024Y-10252084D01*
X11293358Y-10452084D02*
X11274310Y-10442560D01*
X11274310Y-10442560D02*
X11264786Y-10423512D01*
X11264786Y-10423512D02*
X11264786Y-10252084D01*
X11521929Y-10452084D02*
X11521929Y-10252084D01*
X11521929Y-10252084D02*
X11588596Y-10394941D01*
X11588596Y-10394941D02*
X11655262Y-10252084D01*
X11655262Y-10252084D02*
X11655262Y-10452084D01*
X11836215Y-10452084D02*
X11836215Y-10347322D01*
X11836215Y-10347322D02*
X11826691Y-10328274D01*
X11826691Y-10328274D02*
X11807643Y-10318751D01*
X11807643Y-10318751D02*
X11769548Y-10318751D01*
X11769548Y-10318751D02*
X11750501Y-10328274D01*
X11836215Y-10442560D02*
X11817167Y-10452084D01*
X11817167Y-10452084D02*
X11769548Y-10452084D01*
X11769548Y-10452084D02*
X11750501Y-10442560D01*
X11750501Y-10442560D02*
X11740977Y-10423512D01*
X11740977Y-10423512D02*
X11740977Y-10404465D01*
X11740977Y-10404465D02*
X11750501Y-10385417D01*
X11750501Y-10385417D02*
X11769548Y-10375893D01*
X11769548Y-10375893D02*
X11817167Y-10375893D01*
X11817167Y-10375893D02*
X11836215Y-10366370D01*
X11931453Y-10318751D02*
X11931453Y-10518751D01*
X11931453Y-10328274D02*
X11950501Y-10318751D01*
X11950501Y-10318751D02*
X11988596Y-10318751D01*
X11988596Y-10318751D02*
X12007643Y-10328274D01*
X12007643Y-10328274D02*
X12017167Y-10337798D01*
X12017167Y-10337798D02*
X12026691Y-10356846D01*
X12026691Y-10356846D02*
X12026691Y-10413989D01*
X12026691Y-10413989D02*
X12017167Y-10433036D01*
X12017167Y-10433036D02*
X12007643Y-10442560D01*
X12007643Y-10442560D02*
X11988596Y-10452084D01*
X11988596Y-10452084D02*
X11950501Y-10452084D01*
X11950501Y-10452084D02*
X11931453Y-10442560D01*
X12112405Y-10433036D02*
X12121929Y-10442560D01*
X12121929Y-10442560D02*
X12112405Y-10452084D01*
X12112405Y-10452084D02*
X12102882Y-10442560D01*
X12102882Y-10442560D02*
X12112405Y-10433036D01*
X12112405Y-10433036D02*
X12112405Y-10452084D01*
X12112405Y-10328274D02*
X12121929Y-10337798D01*
X12121929Y-10337798D02*
X12112405Y-10347322D01*
X12112405Y-10347322D02*
X12102882Y-10337798D01*
X12102882Y-10337798D02*
X12112405Y-10328274D01*
X12112405Y-10328274D02*
X12112405Y-10347322D01*
M02*
