%TF.GenerationSoftware,KiCad,Pcbnew,8.0.5*%
%TF.CreationDate,2024-12-03T18:06:50+01:00*%
%TF.ProjectId,Controller 1.4,436f6e74-726f-46c6-9c65-7220312e342e,rev?*%
%TF.SameCoordinates,Original*%
%TF.FileFunction,Soldermask,Bot*%
%TF.FilePolarity,Negative*%
%FSLAX46Y46*%
G04 Gerber Fmt 4.6, Leading zero omitted, Abs format (unit mm)*
G04 Created by KiCad (PCBNEW 8.0.5) date 2024-12-03 18:06:50*
%MOMM*%
%LPD*%
G01*
G04 APERTURE LIST*
%ADD10C,5.400000*%
%ADD11C,10.000000*%
%ADD12C,1.600000*%
%ADD13O,1.600000X1.600000*%
%ADD14R,1.700000X1.700000*%
%ADD15O,1.700000X1.700000*%
%ADD16R,1.050000X1.500000*%
%ADD17O,1.050000X1.500000*%
%ADD18R,1.600000X1.600000*%
G04 APERTURE END LIST*
D10*
%TO.C,H4*%
X111238000Y-50831142D03*
D11*
X111238000Y-50831142D03*
%TD*%
D12*
%TO.C,R6*%
X147066000Y-70866000D03*
D13*
X154686000Y-70866000D03*
%TD*%
D14*
%TO.C,J4*%
X117094000Y-94493000D03*
D15*
X117094000Y-91953000D03*
%TD*%
D10*
%TO.C,H2*%
X160514000Y-50831142D03*
D11*
X160514000Y-50831142D03*
%TD*%
D12*
%TO.C,R9*%
X131572000Y-71628000D03*
D13*
X139192000Y-71628000D03*
%TD*%
D16*
%TO.C,Q2*%
X128524000Y-73660000D03*
D17*
X127253999Y-73660000D03*
X125984000Y-73660000D03*
%TD*%
D12*
%TO.C,R4*%
X157480000Y-71120000D03*
D13*
X165100000Y-71120000D03*
%TD*%
D14*
%TO.C,J1*%
X146304001Y-74676000D03*
D15*
X148844001Y-74676000D03*
X151384000Y-74676000D03*
X153924001Y-74676000D03*
%TD*%
D14*
%TO.C,J3*%
X109500000Y-87525000D03*
D15*
X109500000Y-84985000D03*
%TD*%
D14*
%TO.C,J1-1*%
X125983999Y-97282000D03*
D15*
X123443999Y-97282000D03*
X120904000Y-97282000D03*
%TD*%
D12*
%TO.C,R8*%
X139192000Y-74930000D03*
D13*
X131572000Y-74930000D03*
%TD*%
D12*
%TO.C,R3*%
X125466000Y-42101142D03*
D13*
X133086000Y-42101142D03*
%TD*%
D12*
%TO.C,R13*%
X117094000Y-88275000D03*
D13*
X117094000Y-80655000D03*
%TD*%
D12*
%TO.C,R11*%
X139192000Y-68326000D03*
D13*
X131572000Y-68326000D03*
%TD*%
D12*
%TO.C,R7*%
X153010000Y-67600000D03*
D13*
X145390000Y-67600000D03*
%TD*%
D14*
%TO.C,J2*%
X111500000Y-73500000D03*
%TD*%
D12*
%TO.C,R12*%
X113500000Y-88275000D03*
D13*
X113500000Y-80655000D03*
%TD*%
D10*
%TO.C,H3*%
X111322000Y-63300000D03*
D11*
X111322000Y-63300000D03*
%TD*%
D12*
%TO.C,R2*%
X125476000Y-46701142D03*
D13*
X133096000Y-46701142D03*
%TD*%
D10*
%TO.C,H1*%
X160344000Y-63300000D03*
D11*
X160344000Y-63300000D03*
%TD*%
D12*
%TO.C,R1*%
X157480000Y-74930000D03*
D13*
X165100000Y-74930000D03*
%TD*%
D18*
%TO.C,A1*%
X123444001Y-93726000D03*
D13*
X125984001Y-93726000D03*
X128524000Y-93726000D03*
X131064001Y-93726000D03*
X133604001Y-93726000D03*
X136144001Y-93726000D03*
X138684001Y-93726000D03*
X141224002Y-93726000D03*
X143764001Y-93726000D03*
X146304001Y-93726000D03*
X148844001Y-93726000D03*
X151384000Y-93726000D03*
X153924001Y-93726000D03*
X156464001Y-93726000D03*
X159004001Y-93726000D03*
X159004001Y-78486000D03*
X156464001Y-78486000D03*
X153924001Y-78486000D03*
X151384001Y-78486000D03*
X148844001Y-78486000D03*
X146304001Y-78486000D03*
X143764001Y-78486000D03*
X141224001Y-78486000D03*
X138684001Y-78486000D03*
X136144001Y-78486000D03*
X133604001Y-78486000D03*
X131064001Y-78486000D03*
X128524001Y-78486000D03*
X125984001Y-78486000D03*
X123444001Y-78486000D03*
%TD*%
D12*
%TO.C,R10*%
X120904000Y-67818000D03*
D13*
X120904000Y-75438000D03*
%TD*%
M02*
